<?xml version="1.0" encoding="UTF-8" standalone="no"?><!DOCTYPE svg PUBLIC "-//W3C//DTD SVG 1.1//EN" "http://www.w3.org/Graphics/SVG/1.1/DTD/svg11.dtd"><svg width="100%" height="100%" viewBox="0 0 600 400" version="1.1" xmlns="http://www.w3.org/2000/svg" xmlns:xlink="http://www.w3.org/1999/xlink" xml:space="preserve" xmlns:serif="http://www.serif.com/" style="fill-rule:evenodd;clip-rule:evenodd;"><rect id="patch_2" x="67.001" y="27.649" width="104.718" height="255.039" style="fill:none;"/><path id="m2ab0498cd1" d="M93.18,292.072l0,5.63" style="fill:#262626;fill-rule:nonzero;stroke:#262626;stroke-width:0.94px;"/><path id="m2ab0498cd11" serif:id="m2ab0498cd1" d="M145.539,292.072l0,5.63" style="fill:#262626;fill-rule:nonzero;stroke:#262626;stroke-width:0.94px;"/><path id="m7de6f0ce82" d="M62.309,282.688l-5.63,0" style="fill:#262626;fill-rule:nonzero;stroke:#262626;stroke-width:0.94px;"/><text id="text_3" x="40.717px" y="288.733px" style="font-family:'ArialMT', 'Arial', sans-serif;font-size:16.89px;fill:#262626;">0</text><path id="m7de6f0ce821" serif:id="m7de6f0ce82" d="M62.309,231.68l-5.63,0" style="fill:#262626;fill-rule:nonzero;stroke:#262626;stroke-width:0.94px;"/><text id="text_4" x="40.717px" y="237.725px" style="font-family:'ArialMT', 'Arial', sans-serif;font-size:16.89px;fill:#262626;">1</text><path id="m7de6f0ce822" serif:id="m7de6f0ce82" d="M62.309,180.673l-5.63,0" style="fill:#262626;fill-rule:nonzero;stroke:#262626;stroke-width:0.94px;"/><text id="text_5" x="40.717px" y="186.717px" style="font-family:'ArialMT', 'Arial', sans-serif;font-size:16.89px;fill:#262626;">2</text><path id="m7de6f0ce823" serif:id="m7de6f0ce82" d="M62.309,129.665l-5.63,0" style="fill:#262626;fill-rule:nonzero;stroke:#262626;stroke-width:0.94px;"/><text id="text_6" x="40.717px" y="135.71px" style="font-family:'ArialMT', 'Arial', sans-serif;font-size:16.89px;fill:#262626;">3</text><path id="m7de6f0ce824" serif:id="m7de6f0ce82" d="M62.309,78.657l-5.63,0" style="fill:#262626;fill-rule:nonzero;stroke:#262626;stroke-width:0.94px;"/><text id="text_7" x="40.717px" y="84.702px" style="font-family:'ArialMT', 'Arial', sans-serif;font-size:16.89px;fill:#262626;">4</text><path id="m7de6f0ce825" serif:id="m7de6f0ce82" d="M62.309,27.649l-5.63,0" style="fill:#262626;fill-rule:nonzero;stroke:#262626;stroke-width:0.94px;"/><text id="text_8" x="40.717px" y="33.694px" style="font-family:'ArialMT', 'Arial', sans-serif;font-size:16.89px;fill:#262626;">5</text><rect id="patch_3" x="72.237" y="125.2" width="41.887" height="157.489" style="fill:#5875a4;fill-rule:nonzero;"/><rect id="patch_4" x="124.596" y="161.955" width="41.887" height="120.733" style="fill:#5f9e6e;fill-rule:nonzero;"/><path id="line2d_9" d="M93.18,139.955l0,-28.002" style="fill:none;stroke:#424242;stroke-width:2.96px;stroke-linecap:round;"/><path id="line2d_10" d="M145.539,178.8l0,-34.311" style="fill:none;stroke:#424242;stroke-width:2.96px;stroke-linecap:round;"/><path id="patch_5" d="M62.309,282.688l0,-255.039" style="fill:none;stroke:#262626;stroke-width:1.17px;stroke-linecap:square;"/><path id="patch_6" d="M93.18,292.072l52.359,0" style="fill:none;stroke:#262626;stroke-width:1.17px;stroke-linecap:square;"/><text id="text_9" x="100.066px" y="21.529px" style="font-family:'ArialMT', 'Arial', sans-serif;font-size:18.767px;fill:#262626;">Bars</text><rect id="patch_7" x="233.499" y="27.649" width="104.718" height="255.039" style="fill:none;"/><path id="m2ab0498cd12" serif:id="m2ab0498cd1" d="M259.679,292.072l0,5.63" style="fill:#262626;fill-rule:nonzero;stroke:#262626;stroke-width:0.94px;"/><path id="m2ab0498cd13" serif:id="m2ab0498cd1" d="M312.038,292.072l0,5.63" style="fill:#262626;fill-rule:nonzero;stroke:#262626;stroke-width:0.94px;"/><path id="m7de6f0ce826" serif:id="m7de6f0ce82" d="M228.808,282.688l-5.63,0" style="fill:#262626;fill-rule:nonzero;stroke:#262626;stroke-width:0.94px;"/><text id="text_12" x="207.216px" y="288.733px" style="font-family:'ArialMT', 'Arial', sans-serif;font-size:16.89px;fill:#262626;">0</text><path id="m7de6f0ce827" serif:id="m7de6f0ce82" d="M228.808,231.68l-5.63,0" style="fill:#262626;fill-rule:nonzero;stroke:#262626;stroke-width:0.94px;"/><text id="text_13" x="207.216px" y="237.725px" style="font-family:'ArialMT', 'Arial', sans-serif;font-size:16.89px;fill:#262626;">1</text><path id="m7de6f0ce828" serif:id="m7de6f0ce82" d="M228.808,180.673l-5.63,0" style="fill:#262626;fill-rule:nonzero;stroke:#262626;stroke-width:0.94px;"/><text id="text_14" x="207.216px" y="186.717px" style="font-family:'ArialMT', 'Arial', sans-serif;font-size:16.89px;fill:#262626;">2</text><path id="m7de6f0ce829" serif:id="m7de6f0ce82" d="M228.808,129.665l-5.63,0" style="fill:#262626;fill-rule:nonzero;stroke:#262626;stroke-width:0.94px;"/><text id="text_15" x="207.216px" y="135.71px" style="font-family:'ArialMT', 'Arial', sans-serif;font-size:16.89px;fill:#262626;">3</text><path id="m7de6f0ce8210" serif:id="m7de6f0ce82" d="M228.808,78.657l-5.63,0" style="fill:#262626;fill-rule:nonzero;stroke:#262626;stroke-width:0.94px;"/><text id="text_16" x="207.216px" y="84.702px" style="font-family:'ArialMT', 'Arial', sans-serif;font-size:16.89px;fill:#262626;">4</text><path id="m7de6f0ce8211" serif:id="m7de6f0ce82" d="M228.808,27.649l-5.63,0" style="fill:#262626;fill-rule:nonzero;stroke:#262626;stroke-width:0.94px;"/><text id="text_17" x="207.216px" y="33.694px" style="font-family:'ArialMT', 'Arial', sans-serif;font-size:16.89px;fill:#262626;">5</text><rect id="patch_8" x="238.735" y="106.108" width="41.887" height="28.986" style="fill:#5875a4;fill-rule:nonzero;stroke:#4c4c4c;stroke-width:1.64px;"/><rect id="patch_9" x="291.094" y="137.254" width="41.887" height="43.153" style="fill:#5f9e6e;fill-rule:nonzero;stroke:#4c4c4c;stroke-width:1.64px;"/><path id="line2d_19" d="M259.679,135.094l0,40.951" style="fill:none;stroke:#4c4c4c;stroke-width:1.64px;stroke-linecap:round;"/><path id="line2d_20" d="M259.679,106.108l0,-30.78" style="fill:none;stroke:#4c4c4c;stroke-width:1.64px;stroke-linecap:round;"/><path id="line2d_21" d="M249.207,176.045l20.944,0" style="fill:none;stroke:#4c4c4c;stroke-width:1.64px;stroke-linecap:round;"/><path id="line2d_22" d="M249.207,75.328l20.944,0" style="fill:none;stroke:#4c4c4c;stroke-width:1.64px;stroke-linecap:round;"/><path id="line2d_24" d="M312.038,180.406l0,64.72" style="fill:none;stroke:#4c4c4c;stroke-width:1.64px;stroke-linecap:round;"/><path id="line2d_25" d="M312.038,137.254l0,-63.709" style="fill:none;stroke:#4c4c4c;stroke-width:1.64px;stroke-linecap:round;"/><path id="line2d_26" d="M301.566,245.126l20.944,0" style="fill:none;stroke:#4c4c4c;stroke-width:1.64px;stroke-linecap:round;"/><path id="line2d_27" d="M301.566,73.545l20.944,0" style="fill:none;stroke:#4c4c4c;stroke-width:1.64px;stroke-linecap:round;"/><path id="line2d_29" d="M238.735,122.243l41.888,0" style="fill:none;stroke:#4c4c4c;stroke-width:1.64px;stroke-linecap:round;"/><path id="line2d_30" d="M291.094,164.44l41.888,0" style="fill:none;stroke:#4c4c4c;stroke-width:1.64px;stroke-linecap:round;"/><path id="patch_10" d="M228.808,282.688l0,-255.039" style="fill:none;stroke:#262626;stroke-width:1.17px;stroke-linecap:square;"/><path id="patch_11" d="M259.679,292.072l52.359,0" style="fill:none;stroke:#262626;stroke-width:1.17px;stroke-linecap:square;"/><text id="text_18" x="258.691px" y="21.051px" style="font-family:'ArialMT', 'Arial', sans-serif;font-size:18.767px;fill:#262626;">Boxplot</text><rect id="patch_21" serif:id="patch_2" x="398.326" y="22.375" width="141.577" height="272.781" style="fill:none;"/><path id="m55869ad861" d="M424.067,295.156l0,5.638" style="fill:#262626;fill-rule:nonzero;stroke:#262626;stroke-width:1.5px;"/><g id="text_1" transform="matrix(0.707107,-0.707107,0.707107,0.707107,-172.053,363.982)"><text x="353.338px" y="389.677px" style="font-family:'ArialMT', 'Arial', sans-serif;font-size:18.794px;fill:#262626;">Control n=18</text></g><path id="m55869ad8611" serif:id="m55869ad861" d="M475.55,295.156l0,5.638" style="fill:#262626;fill-rule:nonzero;stroke:#262626;stroke-width:1.5px;"/><g id="text_2" transform="matrix(0.707107,-0.707107,0.707107,0.707107,-138.844,406.973)"><text x="421.838px" y="371.086px" style="font-family:'ArialMT', 'Arial', sans-serif;font-size:18.794px;fill:#262626;">T<tspan x="431.235px 441.687px " y="371.086px 371.086px ">es</tspan>t n=18</text></g><path id="maa8b209461" d="M398.326,281.769l-5.638,0" style="fill:#262626;fill-rule:nonzero;stroke:#262626;stroke-width:1.5px;"/><text id="text_31" serif:id="text_3" x="371.711px" y="288.495px" style="font-family:'ArialMT', 'Arial', sans-serif;font-size:18.794px;fill:#262626;">0</text><path id="maa8b2094611" serif:id="maa8b209461" d="M398.326,230.905l-5.638,0" style="fill:#262626;fill-rule:nonzero;stroke:#262626;stroke-width:1.5px;"/><text id="text_41" serif:id="text_4" x="371.711px" y="237.632px" style="font-family:'ArialMT', 'Arial', sans-serif;font-size:18.794px;fill:#262626;">1</text><path id="maa8b2094612" serif:id="maa8b209461" d="M398.326,180.042l-5.638,0" style="fill:#262626;fill-rule:nonzero;stroke:#262626;stroke-width:1.5px;"/><text id="text_51" serif:id="text_5" x="371.711px" y="186.768px" style="font-family:'ArialMT', 'Arial', sans-serif;font-size:18.794px;fill:#262626;">2</text><path id="maa8b2094613" serif:id="maa8b209461" d="M398.326,129.178l-5.638,0" style="fill:#262626;fill-rule:nonzero;stroke:#262626;stroke-width:1.5px;"/><text id="text_61" serif:id="text_6" x="371.711px" y="135.904px" style="font-family:'ArialMT', 'Arial', sans-serif;font-size:18.794px;fill:#262626;">3</text><path id="maa8b2094614" serif:id="maa8b209461" d="M398.326,78.315l-5.638,0" style="fill:#262626;fill-rule:nonzero;stroke:#262626;stroke-width:1.5px;"/><text id="text_71" serif:id="text_7" x="371.711px" y="85.041px" style="font-family:'ArialMT', 'Arial', sans-serif;font-size:18.794px;fill:#262626;">4</text><path id="maa8b2094615" serif:id="maa8b209461" d="M398.326,27.451l-5.638,0" style="fill:#262626;fill-rule:nonzero;stroke:#262626;stroke-width:1.5px;"/><text id="text_81" serif:id="text_8" x="371.711px" y="34.177px" style="font-family:'ArialMT', 'Arial', sans-serif;font-size:18.794px;fill:#262626;">5</text><path id="patch_31" serif:id="patch_3" d="M398.326,281.769l0,-254.318" style="fill:none;stroke:#262626;stroke-width:1.17px;stroke-linecap:square;"/><path id="patch_41" serif:id="patch_4" d="M424.067,295.156l51.483,0" style="fill:none;stroke:#262626;stroke-width:1.17px;stroke-linecap:square;"/><path id="C0_0_5ee90cb4f1" d="M424.067,194.881c0.748,0 1.465,-0.297 1.994,-0.826c0.528,-0.528 0.825,-1.245 0.825,-1.993c0,-0.748 -0.297,-1.465 -0.825,-1.994c-0.529,-0.528 -1.246,-0.825 -1.994,-0.825c-0.747,0 -1.465,0.297 -1.993,0.825c-0.529,0.529 -0.826,1.246 -0.826,1.994c0,0.748 0.297,1.465 0.826,1.993c0.528,0.529 1.246,0.826 1.993,0.826Z" style="fill:#4c72b0;fill-rule:nonzero;"/><path id="C0_0_5ee90cb4f11" serif:id="C0_0_5ee90cb4f1" d="M424.067,178.247c0.748,0 1.465,-0.297 1.994,-0.826c0.528,-0.529 0.825,-1.246 0.825,-1.993c0,-0.748 -0.297,-1.465 -0.825,-1.994c-0.529,-0.529 -1.246,-0.826 -1.994,-0.826c-0.747,0 -1.465,0.297 -1.993,0.826c-0.529,0.529 -0.826,1.246 -0.826,1.994c0,0.747 0.297,1.464 0.826,1.993c0.528,0.529 1.246,0.826 1.993,0.826Z" style="fill:#4c72b0;fill-rule:nonzero;"/><path id="C0_0_5ee90cb4f12" serif:id="C0_0_5ee90cb4f1" d="M424.067,171.267c0.748,0 1.465,-0.297 1.994,-0.826c0.528,-0.529 0.825,-1.246 0.825,-1.993c0,-0.748 -0.297,-1.465 -0.825,-1.994c-0.529,-0.529 -1.246,-0.826 -1.994,-0.826c-0.747,0 -1.465,0.297 -1.993,0.826c-0.529,0.529 -0.826,1.246 -0.826,1.994c0,0.747 0.297,1.464 0.826,1.993c0.528,0.529 1.246,0.826 1.993,0.826Z" style="fill:#4c72b0;fill-rule:nonzero;"/><path id="C0_0_5ee90cb4f13" serif:id="C0_0_5ee90cb4f1" d="M424.067,161.298c0.748,0 1.465,-0.297 1.994,-0.825c0.528,-0.529 0.825,-1.246 0.825,-1.994c0,-0.748 -0.297,-1.465 -0.825,-1.993c-0.529,-0.529 -1.246,-0.826 -1.994,-0.826c-0.747,0 -1.465,0.297 -1.993,0.826c-0.529,0.528 -0.826,1.245 -0.826,1.993c0,0.748 0.297,1.465 0.826,1.994c0.528,0.528 1.246,0.825 1.993,0.825Z" style="fill:#4c72b0;fill-rule:nonzero;"/><path id="C0_0_5ee90cb4f14" serif:id="C0_0_5ee90cb4f1" d="M424.067,139.102c0.748,0 1.465,-0.297 1.994,-0.826c0.528,-0.528 0.825,-1.246 0.825,-1.993c0,-0.748 -0.297,-1.465 -0.825,-1.994c-0.529,-0.528 -1.246,-0.825 -1.994,-0.825c-0.747,0 -1.465,0.297 -1.993,0.825c-0.529,0.529 -0.826,1.246 -0.826,1.994c0,0.747 0.297,1.465 0.826,1.993c0.528,0.529 1.246,0.826 1.993,0.826Z" style="fill:#4c72b0;fill-rule:nonzero;"/><path id="C0_0_5ee90cb4f15" serif:id="C0_0_5ee90cb4f1" d="M424.067,132.338c0.748,0 1.465,-0.297 1.994,-0.825c0.528,-0.529 0.825,-1.246 0.825,-1.994c0,-0.747 -0.297,-1.464 -0.825,-1.993c-0.529,-0.529 -1.246,-0.826 -1.994,-0.826c-0.747,0 -1.465,0.297 -1.993,0.826c-0.529,0.529 -0.826,1.246 -0.826,1.993c0,0.748 0.297,1.465 0.826,1.994c0.528,0.528 1.246,0.825 1.993,0.825Z" style="fill:#4c72b0;fill-rule:nonzero;"/><path id="C0_0_5ee90cb4f16" serif:id="C0_0_5ee90cb4f1" d="M419.78,131.823c0.747,0 1.464,-0.297 1.993,-0.826c0.529,-0.529 0.826,-1.246 0.826,-1.993c0,-0.748 -0.297,-1.465 -0.826,-1.994c-0.529,-0.528 -1.246,-0.826 -1.993,-0.826c-0.748,0 -1.465,0.298 -1.994,0.826c-0.528,0.529 -0.825,1.246 -0.825,1.994c0,0.747 0.297,1.464 0.825,1.993c0.529,0.529 1.246,0.826 1.994,0.826Z" style="fill:#4c72b0;fill-rule:nonzero;"/><path id="C0_0_5ee90cb4f17" serif:id="C0_0_5ee90cb4f1" d="M426.377,127.58c0.748,0 1.465,-0.297 1.994,-0.825c0.528,-0.529 0.825,-1.246 0.825,-1.994c0,-0.747 -0.297,-1.464 -0.825,-1.993c-0.529,-0.529 -1.246,-0.826 -1.994,-0.826c-0.747,0 -1.465,0.297 -1.993,0.826c-0.529,0.529 -0.826,1.246 -0.826,1.993c0,0.748 0.297,1.465 0.826,1.994c0.528,0.528 1.246,0.825 1.993,0.825Z" style="fill:#4c72b0;fill-rule:nonzero;"/><path id="C0_0_5ee90cb4f18" serif:id="C0_0_5ee90cb4f1" d="M422.152,126.499c0.747,0 1.464,-0.298 1.993,-0.826c0.529,-0.529 0.826,-1.246 0.826,-1.994c0,-0.747 -0.297,-1.464 -0.826,-1.993c-0.529,-0.529 -1.246,-0.826 -1.993,-0.826c-0.748,0 -1.465,0.297 -1.994,0.826c-0.528,0.529 -0.825,1.246 -0.825,1.993c0,0.748 0.297,1.465 0.825,1.994c0.529,0.528 1.246,0.826 1.994,0.826Z" style="fill:#4c72b0;fill-rule:nonzero;"/><path id="C0_0_5ee90cb4f19" serif:id="C0_0_5ee90cb4f1" d="M428.526,122.694c0.747,0 1.464,-0.297 1.993,-0.826c0.529,-0.528 0.826,-1.245 0.826,-1.993c0,-0.748 -0.297,-1.465 -0.826,-1.993c-0.529,-0.529 -1.246,-0.826 -1.993,-0.826c-0.748,0 -1.465,0.297 -1.994,0.826c-0.529,0.528 -0.826,1.245 -0.826,1.993c0,0.748 0.297,1.465 0.826,1.993c0.529,0.529 1.246,0.826 1.994,0.826Z" style="fill:#4c72b0;fill-rule:nonzero;"/><path id="C0_0_5ee90cb4f110" serif:id="C0_0_5ee90cb4f1" d="M424.067,121.193c0.748,0 1.465,-0.297 1.994,-0.825c0.528,-0.529 0.825,-1.246 0.825,-1.994c0,-0.747 -0.297,-1.464 -0.825,-1.993c-0.529,-0.529 -1.246,-0.826 -1.994,-0.826c-0.747,0 -1.465,0.297 -1.993,0.826c-0.529,0.529 -0.826,1.246 -0.826,1.993c0,0.748 0.297,1.465 0.826,1.994c0.528,0.528 1.246,0.825 1.993,0.825Z" style="fill:#4c72b0;fill-rule:nonzero;"/><path id="C0_0_5ee90cb4f111" serif:id="C0_0_5ee90cb4f1" d="M424.067,114.377c0.748,0 1.465,-0.297 1.994,-0.826c0.528,-0.528 0.825,-1.245 0.825,-1.993c0,-0.748 -0.297,-1.465 -0.825,-1.993c-0.529,-0.529 -1.246,-0.826 -1.994,-0.826c-0.747,0 -1.465,0.297 -1.993,0.826c-0.529,0.528 -0.826,1.245 -0.826,1.993c0,0.748 0.297,1.465 0.826,1.993c0.528,0.529 1.246,0.826 1.993,0.826Z" style="fill:#4c72b0;fill-rule:nonzero;"/><path id="C0_0_5ee90cb4f112" serif:id="C0_0_5ee90cb4f1" d="M419.778,113.884c0.748,0 1.465,-0.297 1.994,-0.825c0.528,-0.529 0.825,-1.246 0.825,-1.994c0,-0.747 -0.297,-1.465 -0.825,-1.993c-0.529,-0.529 -1.246,-0.826 -1.994,-0.826c-0.748,0 -1.465,0.297 -1.993,0.826c-0.529,0.528 -0.826,1.246 -0.826,1.993c0,0.748 0.297,1.465 0.826,1.994c0.528,0.528 1.245,0.825 1.993,0.825Z" style="fill:#4c72b0;fill-rule:nonzero;"/><path id="C0_0_5ee90cb4f113" serif:id="C0_0_5ee90cb4f1" d="M424.067,106.715c0.748,0 1.465,-0.297 1.994,-0.826c0.528,-0.529 0.825,-1.246 0.825,-1.993c0,-0.748 -0.297,-1.465 -0.825,-1.994c-0.529,-0.529 -1.246,-0.826 -1.994,-0.826c-0.747,0 -1.465,0.297 -1.993,0.826c-0.529,0.529 -0.826,1.246 -0.826,1.994c0,0.747 0.297,1.464 0.826,1.993c0.528,0.529 1.246,0.826 1.993,0.826Z" style="fill:#4c72b0;fill-rule:nonzero;"/><path id="C0_0_5ee90cb4f114" serif:id="C0_0_5ee90cb4f1" d="M420.902,102.892c0.748,0 1.465,-0.297 1.994,-0.826c0.528,-0.528 0.825,-1.245 0.825,-1.993c0,-0.748 -0.297,-1.465 -0.825,-1.994c-0.529,-0.528 -1.246,-0.825 -1.994,-0.825c-0.747,0 -1.464,0.297 -1.993,0.825c-0.529,0.529 -0.826,1.246 -0.826,1.994c0,0.748 0.297,1.465 0.826,1.993c0.529,0.529 1.246,0.826 1.993,0.826Z" style="fill:#4c72b0;fill-rule:nonzero;"/><path id="C0_0_5ee90cb4f115" serif:id="C0_0_5ee90cb4f1" d="M424.067,90.156c0.748,0 1.465,-0.297 1.994,-0.826c0.528,-0.528 0.825,-1.245 0.825,-1.993c0,-0.748 -0.297,-1.465 -0.825,-1.994c-0.529,-0.528 -1.246,-0.825 -1.994,-0.825c-0.747,0 -1.465,0.297 -1.993,0.825c-0.529,0.529 -0.826,1.246 -0.826,1.994c0,0.748 0.297,1.465 0.826,1.993c0.528,0.529 1.246,0.826 1.993,0.826Z" style="fill:#4c72b0;fill-rule:nonzero;"/><path id="C0_0_5ee90cb4f116" serif:id="C0_0_5ee90cb4f1" d="M424.067,83.045c0.748,0 1.465,-0.297 1.994,-0.826c0.528,-0.529 0.825,-1.246 0.825,-1.993c0,-0.748 -0.297,-1.465 -0.825,-1.994c-0.529,-0.528 -1.246,-0.826 -1.994,-0.826c-0.747,0 -1.465,0.298 -1.993,0.826c-0.529,0.529 -0.826,1.246 -0.826,1.994c0,0.747 0.297,1.464 0.826,1.993c0.528,0.529 1.246,0.826 1.993,0.826Z" style="fill:#4c72b0;fill-rule:nonzero;"/><path id="C0_0_5ee90cb4f117" serif:id="C0_0_5ee90cb4f1" d="M425.674,77.814c0.748,0 1.465,-0.297 1.994,-0.826c0.528,-0.528 0.825,-1.246 0.825,-1.993c0,-0.748 -0.297,-1.465 -0.825,-1.994c-0.529,-0.528 -1.246,-0.825 -1.994,-0.825c-0.747,0 -1.464,0.297 -1.993,0.825c-0.529,0.529 -0.826,1.246 -0.826,1.994c0,0.747 0.297,1.465 0.826,1.993c0.529,0.529 1.246,0.826 1.993,0.826Z" style="fill:#4c72b0;fill-rule:nonzero;"/><path id="C1_0_5aa2f6aee6" d="M475.55,247.132c0.747,0 1.464,-0.297 1.993,-0.825c0.529,-0.529 0.826,-1.246 0.826,-1.994c0,-0.747 -0.297,-1.465 -0.826,-1.993c-0.529,-0.529 -1.246,-0.826 -1.993,-0.826c-0.748,0 -1.465,0.297 -1.994,0.826c-0.528,0.528 -0.826,1.246 -0.826,1.993c0,0.748 0.298,1.465 0.826,1.994c0.529,0.528 1.246,0.825 1.994,0.825Z" style="fill:#55a868;fill-rule:nonzero;"/><path id="C1_0_5aa2f6aee61" serif:id="C1_0_5aa2f6aee6" d="M475.55,213.169c0.747,0 1.464,-0.297 1.993,-0.826c0.529,-0.529 0.826,-1.246 0.826,-1.994c0,-0.747 -0.297,-1.464 -0.826,-1.993c-0.529,-0.529 -1.246,-0.826 -1.993,-0.826c-0.748,0 -1.465,0.297 -1.994,0.826c-0.528,0.529 -0.826,1.246 -0.826,1.993c0,0.748 0.298,1.465 0.826,1.994c0.529,0.529 1.246,0.826 1.994,0.826Z" style="fill:#55a868;fill-rule:nonzero;"/><path id="C1_0_5aa2f6aee62" serif:id="C1_0_5aa2f6aee6" d="M471.256,212.757c0.747,0 1.464,-0.297 1.993,-0.826c0.529,-0.529 0.826,-1.246 0.826,-1.993c0,-0.748 -0.297,-1.465 -0.826,-1.994c-0.529,-0.528 -1.246,-0.825 -1.993,-0.825c-0.748,0 -1.465,0.297 -1.994,0.825c-0.529,0.529 -0.826,1.246 -0.826,1.994c0,0.747 0.297,1.464 0.826,1.993c0.529,0.529 1.246,0.826 1.994,0.826Z" style="fill:#55a868;fill-rule:nonzero;"/><path id="C1_0_5aa2f6aee63" serif:id="C1_0_5aa2f6aee6" d="M475.55,186.166c0.747,0 1.464,-0.297 1.993,-0.826c0.529,-0.528 0.826,-1.246 0.826,-1.993c0,-0.748 -0.297,-1.465 -0.826,-1.994c-0.529,-0.528 -1.246,-0.825 -1.993,-0.825c-0.748,0 -1.465,0.297 -1.994,0.825c-0.528,0.529 -0.826,1.246 -0.826,1.994c0,0.747 0.298,1.465 0.826,1.993c0.529,0.529 1.246,0.826 1.994,0.826Z" style="fill:#55a868;fill-rule:nonzero;"/><path id="C1_0_5aa2f6aee64" serif:id="C1_0_5aa2f6aee6" d="M472.012,182.952c0.748,0 1.465,-0.297 1.993,-0.826c0.529,-0.528 0.826,-1.246 0.826,-1.993c0,-0.748 -0.297,-1.465 -0.826,-1.994c-0.528,-0.528 -1.245,-0.825 -1.993,-0.825c-0.748,0 -1.465,0.297 -1.993,0.825c-0.529,0.529 -0.826,1.246 -0.826,1.994c0,0.747 0.297,1.465 0.826,1.993c0.528,0.529 1.245,0.826 1.993,0.826Z" style="fill:#55a868;fill-rule:nonzero;"/><path id="C1_0_5aa2f6aee65" serif:id="C1_0_5aa2f6aee6" d="M477.995,181.526c0.748,0 1.465,-0.297 1.994,-0.826c0.528,-0.529 0.825,-1.246 0.825,-1.993c0,-0.748 -0.297,-1.465 -0.825,-1.994c-0.529,-0.529 -1.246,-0.826 -1.994,-0.826c-0.747,0 -1.464,0.297 -1.993,0.826c-0.529,0.529 -0.826,1.246 -0.826,1.994c0,0.747 0.297,1.464 0.826,1.993c0.529,0.529 1.246,0.826 1.993,0.826Z" style="fill:#55a868;fill-rule:nonzero;"/><path id="C1_0_5aa2f6aee66" serif:id="C1_0_5aa2f6aee6" d="M475.55,173.315c0.747,0 1.464,-0.297 1.993,-0.825c0.529,-0.529 0.826,-1.246 0.826,-1.994c0,-0.747 -0.297,-1.465 -0.826,-1.993c-0.529,-0.529 -1.246,-0.826 -1.993,-0.826c-0.748,0 -1.465,0.297 -1.994,0.826c-0.528,0.528 -0.826,1.246 -0.826,1.993c0,0.748 0.298,1.465 0.826,1.994c0.529,0.528 1.246,0.825 1.994,0.825Z" style="fill:#55a868;fill-rule:nonzero;"/><path id="C1_0_5aa2f6aee67" serif:id="C1_0_5aa2f6aee6" d="M471.253,172.951c0.748,0 1.465,-0.297 1.993,-0.826c0.529,-0.528 0.826,-1.245 0.826,-1.993c0,-0.748 -0.297,-1.465 -0.826,-1.993c-0.528,-0.529 -1.245,-0.826 -1.993,-0.826c-0.748,0 -1.465,0.297 -1.993,0.826c-0.529,0.528 -0.826,1.245 -0.826,1.993c0,0.748 0.297,1.465 0.826,1.993c0.528,0.529 1.245,0.826 1.993,0.826Z" style="fill:#55a868;fill-rule:nonzero;"/><path id="C1_0_5aa2f6aee68" serif:id="C1_0_5aa2f6aee6" d="M475.55,167.632c0.747,0 1.464,-0.297 1.993,-0.826c0.529,-0.528 0.826,-1.245 0.826,-1.993c0,-0.748 -0.297,-1.465 -0.826,-1.993c-0.529,-0.529 -1.246,-0.826 -1.993,-0.826c-0.748,0 -1.465,0.297 -1.994,0.826c-0.528,0.528 -0.826,1.245 -0.826,1.993c0,0.748 0.298,1.465 0.826,1.993c0.529,0.529 1.246,0.826 1.994,0.826Z" style="fill:#55a868;fill-rule:nonzero;"/><path id="C1_0_5aa2f6aee69" serif:id="C1_0_5aa2f6aee6" d="M471.5,165.717c0.748,0 1.465,-0.297 1.994,-0.826c0.528,-0.529 0.825,-1.246 0.825,-1.993c0,-0.748 -0.297,-1.465 -0.825,-1.994c-0.529,-0.529 -1.246,-0.826 -1.994,-0.826c-0.748,0 -1.465,0.297 -1.993,0.826c-0.529,0.529 -0.826,1.246 -0.826,1.994c0,0.747 0.297,1.464 0.826,1.993c0.528,0.529 1.245,0.826 1.993,0.826Z" style="fill:#55a868;fill-rule:nonzero;"/><path id="C1_0_5aa2f6aee610" serif:id="C1_0_5aa2f6aee6" d="M479.49,165.359c0.747,0 1.465,-0.297 1.993,-0.826c0.529,-0.528 0.826,-1.245 0.826,-1.993c0,-0.748 -0.297,-1.465 -0.826,-1.993c-0.528,-0.529 -1.246,-0.826 -1.993,-0.826c-0.748,0 -1.465,0.297 -1.994,0.826c-0.528,0.528 -0.825,1.245 -0.825,1.993c0,0.748 0.297,1.465 0.825,1.993c0.529,0.529 1.246,0.826 1.994,0.826Z" style="fill:#55a868;fill-rule:nonzero;"/><path id="C1_0_5aa2f6aee611" serif:id="C1_0_5aa2f6aee6" d="M475.55,145.447c0.747,0 1.464,-0.297 1.993,-0.825c0.529,-0.529 0.826,-1.246 0.826,-1.994c0,-0.748 -0.297,-1.465 -0.826,-1.993c-0.529,-0.529 -1.246,-0.826 -1.993,-0.826c-0.748,0 -1.465,0.297 -1.994,0.826c-0.528,0.528 -0.826,1.245 -0.826,1.993c0,0.748 0.298,1.465 0.826,1.994c0.529,0.528 1.246,0.825 1.994,0.825Z" style="fill:#55a868;fill-rule:nonzero;"/><path id="C1_0_5aa2f6aee612" serif:id="C1_0_5aa2f6aee6" d="M474.03,140.172c0.748,0 1.465,-0.297 1.993,-0.826c0.529,-0.528 0.826,-1.246 0.826,-1.993c0,-0.748 -0.297,-1.465 -0.826,-1.994c-0.528,-0.528 -1.245,-0.825 -1.993,-0.825c-0.748,0 -1.465,0.297 -1.994,0.825c-0.528,0.529 -0.825,1.246 -0.825,1.994c0,0.747 0.297,1.465 0.825,1.993c0.529,0.529 1.246,0.826 1.994,0.826Z" style="fill:#55a868;fill-rule:nonzero;"/><path id="C1_0_5aa2f6aee613" serif:id="C1_0_5aa2f6aee6" d="M478.291,139.363c0.748,0 1.465,-0.297 1.993,-0.826c0.529,-0.529 0.826,-1.246 0.826,-1.994c0,-0.747 -0.297,-1.464 -0.826,-1.993c-0.528,-0.529 -1.245,-0.826 -1.993,-0.826c-0.748,0 -1.465,0.297 -1.994,0.826c-0.528,0.529 -0.825,1.246 -0.825,1.993c0,0.748 0.297,1.465 0.825,1.994c0.529,0.529 1.246,0.826 1.994,0.826Z" style="fill:#55a868;fill-rule:nonzero;"/><path id="C1_0_5aa2f6aee614" serif:id="C1_0_5aa2f6aee6" d="M470.733,136.545c0.748,0 1.465,-0.297 1.994,-0.826c0.528,-0.528 0.825,-1.245 0.825,-1.993c0,-0.748 -0.297,-1.465 -0.825,-1.993c-0.529,-0.529 -1.246,-0.826 -1.994,-0.826c-0.747,0 -1.464,0.297 -1.993,0.826c-0.529,0.528 -0.826,1.245 -0.826,1.993c0,0.748 0.297,1.465 0.826,1.993c0.529,0.529 1.246,0.826 1.993,0.826Z" style="fill:#55a868;fill-rule:nonzero;"/><path id="C1_0_5aa2f6aee615" serif:id="C1_0_5aa2f6aee6" d="M475.55,126.942c0.747,0 1.464,-0.297 1.993,-0.826c0.529,-0.528 0.826,-1.245 0.826,-1.993c0,-0.748 -0.297,-1.465 -0.826,-1.994c-0.529,-0.528 -1.246,-0.825 -1.993,-0.825c-0.748,0 -1.465,0.297 -1.994,0.825c-0.528,0.529 -0.826,1.246 -0.826,1.994c0,0.748 0.298,1.465 0.826,1.993c0.529,0.529 1.246,0.826 1.994,0.826Z" style="fill:#55a868;fill-rule:nonzero;"/><path id="C1_0_5aa2f6aee616" serif:id="C1_0_5aa2f6aee6" d="M473.043,122.358c0.748,0 1.465,-0.297 1.993,-0.826c0.529,-0.529 0.826,-1.246 0.826,-1.993c0,-0.748 -0.297,-1.465 -0.826,-1.994c-0.528,-0.528 -1.245,-0.825 -1.993,-0.825c-0.748,0 -1.465,0.297 -1.993,0.825c-0.529,0.529 -0.826,1.246 -0.826,1.994c0,0.747 0.297,1.464 0.826,1.993c0.528,0.529 1.245,0.826 1.993,0.826Z" style="fill:#55a868;fill-rule:nonzero;"/><path id="C1_0_5aa2f6aee617" serif:id="C1_0_5aa2f6aee6" d="M475.55,76.037c0.747,0 1.464,-0.298 1.993,-0.826c0.529,-0.529 0.826,-1.246 0.826,-1.994c0,-0.747 -0.297,-1.464 -0.826,-1.993c-0.529,-0.529 -1.246,-0.826 -1.993,-0.826c-0.748,0 -1.465,0.297 -1.994,0.826c-0.528,0.529 -0.826,1.246 -0.826,1.993c0,0.748 0.298,1.465 0.826,1.994c0.529,0.528 1.246,0.826 1.994,0.826Z" style="fill:#55a868;fill-rule:nonzero;"/><text id="text_10" x="406.517px" y="21.528px" style="font-family:'ArialMT', 'Arial', sans-serif;font-size:18.794px;fill:#262626;">Estimation Plot</text><path id="m59e91205f8" d="M539.903,175.589l5.638,0" style="fill:#262626;fill-rule:nonzero;stroke:#262626;stroke-width:1.5px;"/><text id="text_11" x="556.066px" y="182.315px" style="font-family:'ArialMT', 'Arial', sans-serif;font-size:18.794px;fill:#262626;">−1</text><path id="m59e91205f81" serif:id="m59e91205f8" d="M539.903,124.726l5.638,0" style="fill:#262626;fill-rule:nonzero;stroke:#262626;stroke-width:1.5px;"/><text id="text_121" serif:id="text_12" x="556.066px" y="131.452px" style="font-family:'ArialMT', 'Arial', sans-serif;font-size:18.794px;fill:#262626;">0</text><path id="m833e9a5c4e" d="M514.176,205.155l-0.014,0l0,-0.82l0,-0.82l0,-0.82l0,-0.82l0,-0.82l0,-0.82l0,-0.82l0,-0.82l0,-0.82l0,-0.82l0,-0.82l0,-0.82l0,-0.82l0,-0.82l0,-0.821l0,-0.82l0,-0.82l0,-0.82l0,-0.82l0,-0.82l0,-0.82l0,-0.82l0,-0.82l0,-0.82l0,-0.82l0,-0.82l0,-0.82l0,-0.82l0,-0.82l0,-0.82l0,-0.82l0,-0.821l0,-0.82l0,-0.82l0,-0.82l0,-0.82l0,-0.82l0,-0.82l0,-0.82l0,-0.82l0,-0.82l0,-0.82l0,-0.82l0,-0.82l0,-0.82l0,-0.82l0,-0.82l0,-0.821l0,-0.82l0,-0.82l0,-0.82l0,-0.82l0,-0.82l0,-0.82l0,-0.82l0,-0.82l0,-0.82l0,-0.82l0,-0.82l0,-0.82l0,-0.82l0,-0.82l0,-0.82l0,-0.82l0,-0.821l0,-0.82l0,-0.82l0,-0.82l0,-0.82l0,-0.82l0,-0.82l0,-0.82l0,-0.82l0,-0.82l0,-0.82l0,-0.82l0,-0.82l0,-0.82l0,-0.82l0,-0.82l0,-0.821l0,-0.82l0,-0.82l0,-0.82l0,-0.82l0,-0.82l0,-0.82l0,-0.82l0,-0.82l0,-0.82l0,-0.82l0,-0.82l0,-0.82l0,-0.82l0,-0.82l0,-0.82l0,-0.82l0,-0.821l0,-0.82l0.063,0l0.033,0.82l0.039,0.821l0.043,0.82l0.046,0.82l0.049,0.82l0.057,0.82l0.07,0.82l0.087,0.82l0.104,0.82l0.119,0.82l0.132,0.82l0.142,0.82l0.148,0.82l0.153,0.82l0.159,0.82l0.168,0.82l0.187,0.82l0.21,0.82l0.239,0.821l0.274,0.82l0.32,0.82l0.377,0.82l0.436,0.82l0.476,0.82l0.483,0.82l0.457,0.82l0.421,0.82l0.398,0.82l0.405,0.82l0.439,0.82l0.485,0.82l0.519,0.82l0.53,0.82l0.514,0.82l0.48,0.821l0.438,0.82l0.4,0.82l0.372,0.82l0.352,0.82l0.331,0.82l0.308,0.82l0.289,0.82l0.284,0.82l0.286,0.82l0.268,0.82l0.201,0.82l0.079,0.82l-0.072,0.82l-0.213,0.82l-0.316,0.82l-0.37,0.82l-0.394,0.821l-0.41,0.82l-0.438,0.82l-0.48,0.82l-0.526,0.82l-0.558,0.82l-0.569,0.82l-0.558,0.82l-0.536,0.82l-0.52,0.82l-0.514,0.82l-0.517,0.82l-0.521,0.82l-0.514,0.82l-0.495,0.82l-0.465,0.82l-0.429,0.821l-0.388,0.82l-0.341,0.82l-0.298,0.82l-0.26,0.82l-0.237,0.82l-0.225,0.82l-0.221,0.82l-0.217,0.82l-0.206,0.82l-0.188,0.82l-0.161,0.82l-0.131,0.82l-0.103,0.82l-0.084,0.82l-0.07,0.82l-0.059,0.82l-0.049,0.821l-0.039,0.82l-0.03,0.82l-0.023,0.82l-0.021,0.82l-0.019,0.82l-0.019,0.82l-0.018,0.82l-0.014,0.82l-0.011,0.82l-0.007,0.82l-0.003,0.82l0,0.82l0.001,0.82l0,0.82Z" style="fill-opacity:0.298039;fill-rule:nonzero;stroke:#000;stroke-opacity:0.298039;stroke-width:0.45px;"/><path id="LineCollection_1" d="M424.067,124.726l115.836,0" style="fill:none;stroke:#000;stroke-width:0.7px;"/><path id="LineCollection_2" d="M475.55,161.377l64.353,0" style="fill:none;stroke:#000;stroke-width:0.7px;"/><path id="m9397246038" d="M514.161,166.076c1.246,0 2.442,-0.495 3.323,-1.376c0.881,-0.881 1.376,-2.076 1.376,-3.323c0,-1.246 -0.495,-2.441 -1.376,-3.322c-0.881,-0.881 -2.077,-1.376 -3.323,-1.376c-1.246,0 -2.441,0.495 -3.322,1.376c-0.881,0.881 -1.376,2.076 -1.376,3.322c0,1.247 0.495,2.442 1.376,3.323c0.881,0.881 2.076,1.376 3.322,1.376Z" style="fill-rule:nonzero;"/><path id="line2d_12" d="M514.161,183.357l0,-45.637" style="fill:none;stroke:#000;stroke-width:1.88px;stroke-linecap:round;"/><path id="patch_51" serif:id="patch_5" d="M539.903,175.589l0,-50.863" style="fill:none;stroke:#262626;stroke-width:1.17px;stroke-linecap:square;"/><g id="text_19" serif:id="text_1" transform="matrix(0.707107,-0.707107,0.707107,0.707107,-187.187,259.49)"><text x="219.639px" y="355.7px" style="font-family:'ArialMT', 'Arial', sans-serif;font-size:18.794px;fill:#262626;">Control</text></g><g id="text_21" serif:id="text_2" transform="matrix(0.707107,-0.707107,0.707107,0.707107,-154.543,302.715)"><text x="288.138px" y="337.907px" style="font-family:'ArialMT', 'Arial', sans-serif;font-size:18.794px;fill:#262626;">T<tspan x="297.535px 307.988px " y="337.907px 337.907px ">es</tspan>t</text></g><g id="text_110" serif:id="text_1" transform="matrix(0.707107,-0.707107,0.707107,0.707107,-233.997,146.481)"><text x="59.819px" y="355.7px" style="font-family:'ArialMT', 'Arial', sans-serif;font-size:18.794px;fill:#262626;">Control</text></g><g id="text_22" serif:id="text_2" transform="matrix(0.707107,-0.707107,0.707107,0.707107,-201.353,189.705)"><text x="128.318px" y="337.907px" style="font-family:'ArialMT', 'Arial', sans-serif;font-size:18.794px;fill:#262626;">T<tspan x="137.715px 148.168px " y="337.907px 337.907px ">es</tspan>t</text></g></svg>