<?xml version="1.0" encoding="UTF-8" standalone="no"?><!DOCTYPE svg PUBLIC "-//W3C//DTD SVG 1.1//EN" "http://www.w3.org/Graphics/SVG/1.1/DTD/svg11.dtd"><svg width="100%" height="100%" viewBox="0 0 1100 400" version="1.1" xmlns="http://www.w3.org/2000/svg" xmlns:xlink="http://www.w3.org/1999/xlink" xml:space="preserve" xmlns:serif="http://www.serif.com/" style="fill-rule:evenodd;clip-rule:evenodd;"><g id="multi-two-group-paired"><g id="axes_1"><rect id="patch_2" x="89.54" y="36.965" width="204.6" height="326.16" style="fill:none;"/><g id="matplotlib.axis_2"><g id="ytick_1"><path id="mb4fbe4f7e6" d="M89.54,363.125l-9,0" style="fill:#262626;fill-rule:nonzero;stroke:#262626;stroke-width:2.4px;"/><text id="text_3" x="29.536px" y="373.861px" style="font-family:'ArialMT', 'Arial', sans-serif;font-size:30px;fill:#262626;">−4</text></g><g id="ytick_2"><path id="mb4fbe4f7e61" serif:id="mb4fbe4f7e6" d="M89.54,297.893l-9,0" style="fill:#262626;fill-rule:nonzero;stroke:#262626;stroke-width:2.4px;"/><text id="text_4" x="29.536px" y="308.629px" style="font-family:'ArialMT', 'Arial', sans-serif;font-size:30px;fill:#262626;">−2</text></g><g id="ytick_3"><path id="mb4fbe4f7e62" serif:id="mb4fbe4f7e6" d="M89.54,232.661l-9,0" style="fill:#262626;fill-rule:nonzero;stroke:#262626;stroke-width:2.4px;"/><text id="text_5" x="47.056px" y="243.397px" style="font-family:'ArialMT', 'Arial', sans-serif;font-size:30px;fill:#262626;">0</text></g><g id="ytick_4"><path id="mb4fbe4f7e63" serif:id="mb4fbe4f7e6" d="M89.54,167.429l-9,0" style="fill:#262626;fill-rule:nonzero;stroke:#262626;stroke-width:2.4px;"/><text id="text_6" x="47.056px" y="178.165px" style="font-family:'ArialMT', 'Arial', sans-serif;font-size:30px;fill:#262626;">2</text></g><g id="ytick_5"><path id="mb4fbe4f7e64" serif:id="mb4fbe4f7e6" d="M89.54,102.197l-9,0" style="fill:#262626;fill-rule:nonzero;stroke:#262626;stroke-width:2.4px;"/><text id="text_7" x="47.056px" y="112.933px" style="font-family:'ArialMT', 'Arial', sans-serif;font-size:30px;fill:#262626;">4</text></g><g id="ytick_6"><path id="mb4fbe4f7e65" serif:id="mb4fbe4f7e6" d="M89.54,36.965l-9,0" style="fill:#262626;fill-rule:nonzero;stroke:#262626;stroke-width:2.4px;"/><text id="text_8" x="47.056px" y="47.701px" style="font-family:'ArialMT', 'Arial', sans-serif;font-size:30px;fill:#262626;">6</text></g></g><path id="line2d_9" d="M96.476,175.6l69.356,44.895" style="fill:none;stroke:#4c72b0;stroke-width:1.12px;stroke-linecap:round;"/><path id="line2d_10" d="M96.476,241.991l69.356,16.157" style="fill:none;stroke:#4c72b0;stroke-width:1.12px;stroke-linecap:round;"/><path id="line2d_11" d="M96.476,248.465l69.356,-20.45" style="fill:none;stroke:#4c72b0;stroke-width:1.12px;stroke-linecap:round;"/><path id="line2d_12" d="M96.476,319.201l69.356,-27.808" style="fill:none;stroke:#4c72b0;stroke-width:1.12px;stroke-linecap:round;"/><path id="line2d_13" d="M96.476,232.931l69.356,-21.573" style="fill:none;stroke:#4c72b0;stroke-width:1.12px;stroke-linecap:round;"/><path id="line2d_14" d="M96.476,243.086l69.356,42.893" style="fill:none;stroke:#4c72b0;stroke-width:1.12px;stroke-linecap:round;"/><path id="line2d_15" d="M96.476,250.163l69.356,-14.408" style="fill:none;stroke:#4c72b0;stroke-width:1.12px;stroke-linecap:round;"/><path id="line2d_16" d="M96.476,222.373l69.356,17.47" style="fill:none;stroke:#4c72b0;stroke-width:1.12px;stroke-linecap:round;"/><path id="line2d_17" d="M96.476,218.928l69.356,43.315" style="fill:none;stroke:#4c72b0;stroke-width:1.12px;stroke-linecap:round;"/><path id="line2d_18" d="M96.476,267.416l69.356,-125.161" style="fill:none;stroke:#4c72b0;stroke-width:1.12px;stroke-linecap:round;"/><path id="line2d_19" d="M96.476,261.566l69.356,-6.145" style="fill:none;stroke:#4c72b0;stroke-width:1.12px;stroke-linecap:round;"/><path id="line2d_20" d="M96.476,248.177l69.356,-27.665" style="fill:none;stroke:#4c72b0;stroke-width:1.12px;stroke-linecap:round;"/><path id="line2d_21" d="M96.476,210.166l69.356,-9.99" style="fill:none;stroke:#4c72b0;stroke-width:1.12px;stroke-linecap:round;"/><path id="line2d_22" d="M96.476,214.357l69.356,61.199" style="fill:none;stroke:#4c72b0;stroke-width:1.12px;stroke-linecap:round;"/><path id="line2d_23" d="M96.476,275.242l69.356,-83.102" style="fill:none;stroke:#4c72b0;stroke-width:1.12px;stroke-linecap:round;"/><path id="line2d_24" d="M96.476,269.173l69.356,-29.267" style="fill:none;stroke:#4c72b0;stroke-width:1.12px;stroke-linecap:round;"/><path id="line2d_25" d="M96.476,208.628l69.356,-5.73" style="fill:none;stroke:#4c72b0;stroke-width:1.12px;stroke-linecap:round;"/><path id="line2d_26" d="M96.476,181.302l69.356,84.427" style="fill:none;stroke:#4c72b0;stroke-width:1.12px;stroke-linecap:round;"/><path id="line2d_27" d="M96.476,233.674l69.356,35.827" style="fill:none;stroke:#4c72b0;stroke-width:1.12px;stroke-linecap:round;"/><path id="line2d_28" d="M96.476,254.952l69.356,-58.489" style="fill:none;stroke:#4c72b0;stroke-width:1.12px;stroke-linecap:round;"/><path id="line2d_29" d="M96.476,196.925l69.356,22.628" style="fill:none;stroke:#55a868;stroke-width:1.12px;stroke-linecap:round;"/><path id="line2d_30" d="M96.476,242.758l69.356,-11.364" style="fill:none;stroke:#55a868;stroke-width:1.12px;stroke-linecap:round;"/><path id="line2d_31" d="M96.476,208.989l69.356,6.034" style="fill:none;stroke:#55a868;stroke-width:1.12px;stroke-linecap:round;"/><path id="line2d_32" d="M96.476,182.136l69.356,36.587" style="fill:none;stroke:#55a868;stroke-width:1.12px;stroke-linecap:round;"/><path id="line2d_33" d="M96.476,212.11l69.356,61.463" style="fill:none;stroke:#55a868;stroke-width:1.12px;stroke-linecap:round;"/><path id="line2d_34" d="M96.476,230.263l69.356,77.849" style="fill:none;stroke:#55a868;stroke-width:1.12px;stroke-linecap:round;"/><path id="line2d_35" d="M96.476,208.777l69.356,81.997" style="fill:none;stroke:#55a868;stroke-width:1.12px;stroke-linecap:round;"/><path id="line2d_36" d="M96.476,253.619l69.356,40.624" style="fill:none;stroke:#55a868;stroke-width:1.12px;stroke-linecap:round;"/><path id="line2d_37" d="M96.476,238.469l69.356,69.813" style="fill:none;stroke:#55a868;stroke-width:1.12px;stroke-linecap:round;"/><path id="line2d_38" d="M96.476,251.381l69.356,5.658" style="fill:none;stroke:#55a868;stroke-width:1.12px;stroke-linecap:round;"/><path id="line2d_39" d="M96.476,239.326l69.356,13.831" style="fill:none;stroke:#55a868;stroke-width:1.12px;stroke-linecap:round;"/><path id="line2d_40" d="M96.476,248.528l69.356,-11.327" style="fill:none;stroke:#55a868;stroke-width:1.12px;stroke-linecap:round;"/><path id="line2d_41" d="M96.476,238.72l69.356,-9.81" style="fill:none;stroke:#55a868;stroke-width:1.12px;stroke-linecap:round;"/><path id="line2d_42" d="M96.476,245.072l69.356,3.386" style="fill:none;stroke:#55a868;stroke-width:1.12px;stroke-linecap:round;"/><path id="line2d_43" d="M96.476,229.758l69.356,14.445" style="fill:none;stroke:#55a868;stroke-width:1.12px;stroke-linecap:round;"/><path id="line2d_44" d="M96.476,230.584l69.356,2.949" style="fill:none;stroke:#55a868;stroke-width:1.12px;stroke-linecap:round;"/><path id="line2d_45" d="M96.476,222.995l69.356,45.452" style="fill:none;stroke:#55a868;stroke-width:1.12px;stroke-linecap:round;"/><path id="line2d_46" d="M96.476,186.908l69.356,72.297" style="fill:none;stroke:#55a868;stroke-width:1.12px;stroke-linecap:round;"/><path id="line2d_47" d="M96.476,283.113l69.356,-48.346" style="fill:none;stroke:#55a868;stroke-width:1.12px;stroke-linecap:round;"/><path id="line2d_48" d="M96.476,190.403l69.356,67.631" style="fill:none;stroke:#55a868;stroke-width:1.12px;stroke-linecap:round;"/><path id="patch_3" d="M89.54,363.125l0,-326.16" style="fill:none;stroke:#262626;stroke-width:1.87px;stroke-linecap:square;"/></g><g id="axes_2"><rect id="patch_5" x="447.59" y="36.965" width="204.6" height="326.16" style="fill:none;"/><g id="matplotlib.axis_4"><g id="ytick_7"><path id="mb4fbe4f7e66" serif:id="mb4fbe4f7e6" d="M447.59,363.125l-9,0" style="fill:#262626;fill-rule:nonzero;stroke:#262626;stroke-width:2.4px;"/><text id="text_12" x="387.586px" y="373.861px" style="font-family:'ArialMT', 'Arial', sans-serif;font-size:30px;fill:#262626;">−4</text></g><g id="ytick_8"><path id="mb4fbe4f7e67" serif:id="mb4fbe4f7e6" d="M447.59,297.893l-9,0" style="fill:#262626;fill-rule:nonzero;stroke:#262626;stroke-width:2.4px;"/><text id="text_13" x="387.586px" y="308.629px" style="font-family:'ArialMT', 'Arial', sans-serif;font-size:30px;fill:#262626;">−2</text></g><g id="ytick_9"><path id="mb4fbe4f7e68" serif:id="mb4fbe4f7e6" d="M447.59,232.661l-9,0" style="fill:#262626;fill-rule:nonzero;stroke:#262626;stroke-width:2.4px;"/><text id="text_14" x="405.106px" y="243.397px" style="font-family:'ArialMT', 'Arial', sans-serif;font-size:30px;fill:#262626;">0</text></g><g id="ytick_10"><path id="mb4fbe4f7e69" serif:id="mb4fbe4f7e6" d="M447.59,167.429l-9,0" style="fill:#262626;fill-rule:nonzero;stroke:#262626;stroke-width:2.4px;"/><text id="text_15" x="405.106px" y="178.165px" style="font-family:'ArialMT', 'Arial', sans-serif;font-size:30px;fill:#262626;">2</text></g><g id="ytick_11"><path id="mb4fbe4f7e610" serif:id="mb4fbe4f7e6" d="M447.59,102.197l-9,0" style="fill:#262626;fill-rule:nonzero;stroke:#262626;stroke-width:2.4px;"/><text id="text_16" x="405.106px" y="112.933px" style="font-family:'ArialMT', 'Arial', sans-serif;font-size:30px;fill:#262626;">4</text></g><g id="ytick_12"><path id="mb4fbe4f7e611" serif:id="mb4fbe4f7e6" d="M447.59,36.965l-9,0" style="fill:#262626;fill-rule:nonzero;stroke:#262626;stroke-width:2.4px;"/><text id="text_17" x="405.106px" y="47.701px" style="font-family:'ArialMT', 'Arial', sans-serif;font-size:30px;fill:#262626;">6</text></g></g><path id="line2d_57" d="M454.526,189.23l69.356,87.252" style="fill:none;stroke:#4c72b0;stroke-width:1.12px;stroke-linecap:round;"/><path id="line2d_58" d="M454.526,209.331l69.356,43.773" style="fill:none;stroke:#4c72b0;stroke-width:1.12px;stroke-linecap:round;"/><path id="line2d_59" d="M454.526,283.065l69.356,-12.195" style="fill:none;stroke:#4c72b0;stroke-width:1.12px;stroke-linecap:round;"/><path id="line2d_60" d="M454.526,232.934l69.356,50.346" style="fill:none;stroke:#4c72b0;stroke-width:1.12px;stroke-linecap:round;"/><path id="line2d_61" d="M454.526,212.395l69.356,44.43" style="fill:none;stroke:#4c72b0;stroke-width:1.12px;stroke-linecap:round;"/><path id="line2d_62" d="M454.526,256.147l69.356,72.403" style="fill:none;stroke:#4c72b0;stroke-width:1.12px;stroke-linecap:round;"/><path id="line2d_63" d="M454.526,224.001l69.356,80.592" style="fill:none;stroke:#4c72b0;stroke-width:1.12px;stroke-linecap:round;"/><path id="line2d_64" d="M454.526,229.12l69.356,75.183" style="fill:none;stroke:#4c72b0;stroke-width:1.12px;stroke-linecap:round;"/><path id="line2d_65" d="M454.526,232.521l69.356,43.704" style="fill:none;stroke:#4c72b0;stroke-width:1.12px;stroke-linecap:round;"/><path id="line2d_66" d="M454.526,238.355l69.356,43.918" style="fill:none;stroke:#4c72b0;stroke-width:1.12px;stroke-linecap:round;"/><path id="line2d_67" d="M454.526,218.537l69.356,53.936" style="fill:none;stroke:#4c72b0;stroke-width:1.12px;stroke-linecap:round;"/><path id="line2d_68" d="M454.526,193.422l69.356,59.111" style="fill:none;stroke:#4c72b0;stroke-width:1.12px;stroke-linecap:round;"/><path id="line2d_69" d="M454.526,264.137l69.356,-23.599" style="fill:none;stroke:#4c72b0;stroke-width:1.12px;stroke-linecap:round;"/><path id="line2d_70" d="M454.526,199.122l69.356,51.424" style="fill:none;stroke:#4c72b0;stroke-width:1.12px;stroke-linecap:round;"/><path id="line2d_71" d="M454.526,225.204l69.356,60.343" style="fill:none;stroke:#4c72b0;stroke-width:1.12px;stroke-linecap:round;"/><path id="line2d_72" d="M454.526,218.142l69.356,25.63" style="fill:none;stroke:#4c72b0;stroke-width:1.12px;stroke-linecap:round;"/><path id="line2d_73" d="M454.526,269.732l69.356,1.39" style="fill:none;stroke:#4c72b0;stroke-width:1.12px;stroke-linecap:round;"/><path id="line2d_74" d="M454.526,228.253l69.356,-20.388" style="fill:none;stroke:#4c72b0;stroke-width:1.12px;stroke-linecap:round;"/><path id="line2d_75" d="M454.526,184.241l69.356,56.58" style="fill:none;stroke:#4c72b0;stroke-width:1.12px;stroke-linecap:round;"/><path id="line2d_76" d="M454.526,267.879l69.356,-3.136" style="fill:none;stroke:#4c72b0;stroke-width:1.12px;stroke-linecap:round;"/><path id="line2d_77" d="M454.526,297.166l69.356,-28.74" style="fill:none;stroke:#55a868;stroke-width:1.12px;stroke-linecap:round;"/><path id="line2d_78" d="M454.526,289.522l69.356,10.991" style="fill:none;stroke:#55a868;stroke-width:1.12px;stroke-linecap:round;"/><path id="line2d_79" d="M454.526,223.982l69.356,36.929" style="fill:none;stroke:#55a868;stroke-width:1.12px;stroke-linecap:round;"/><path id="line2d_80" d="M454.526,154.872l69.356,151.213" style="fill:none;stroke:#55a868;stroke-width:1.12px;stroke-linecap:round;"/><path id="line2d_81" d="M454.526,196.01l69.356,56.745" style="fill:none;stroke:#55a868;stroke-width:1.12px;stroke-linecap:round;"/><path id="line2d_82" d="M454.526,178.106l69.356,153.85" style="fill:none;stroke:#55a868;stroke-width:1.12px;stroke-linecap:round;"/><path id="line2d_83" d="M454.526,229.427l69.356,77.725" style="fill:none;stroke:#55a868;stroke-width:1.12px;stroke-linecap:round;"/><path id="line2d_84" d="M454.526,187.063l69.356,27.092" style="fill:none;stroke:#55a868;stroke-width:1.12px;stroke-linecap:round;"/><path id="line2d_85" d="M454.526,241.508l69.356,-29.925" style="fill:none;stroke:#55a868;stroke-width:1.12px;stroke-linecap:round;"/><path id="line2d_86" d="M454.526,212.66l69.356,6.337" style="fill:none;stroke:#55a868;stroke-width:1.12px;stroke-linecap:round;"/><path id="line2d_87" d="M454.526,241.379l69.356,88.899" style="fill:none;stroke:#55a868;stroke-width:1.12px;stroke-linecap:round;"/><path id="line2d_88" d="M454.526,250.577l69.356,68.455" style="fill:none;stroke:#55a868;stroke-width:1.12px;stroke-linecap:round;"/><path id="line2d_89" d="M454.526,228.332l69.356,88.972" style="fill:none;stroke:#55a868;stroke-width:1.12px;stroke-linecap:round;"/><path id="line2d_90" d="M454.526,248.19l69.356,77.86" style="fill:none;stroke:#55a868;stroke-width:1.12px;stroke-linecap:round;"/><path id="line2d_91" d="M454.526,189.983l69.356,67.14" style="fill:none;stroke:#55a868;stroke-width:1.12px;stroke-linecap:round;"/><path id="line2d_92" d="M454.526,226.3l69.356,56.547" style="fill:none;stroke:#55a868;stroke-width:1.12px;stroke-linecap:round;"/><path id="line2d_93" d="M454.526,219.607l69.356,45.688" style="fill:none;stroke:#55a868;stroke-width:1.12px;stroke-linecap:round;"/><path id="line2d_94" d="M454.526,243.673l69.356,39.193" style="fill:none;stroke:#55a868;stroke-width:1.12px;stroke-linecap:round;"/><path id="line2d_95" d="M454.526,191.679l69.356,102.056" style="fill:none;stroke:#55a868;stroke-width:1.12px;stroke-linecap:round;"/><path id="line2d_96" d="M454.526,256.534l69.356,-64.767" style="fill:none;stroke:#55a868;stroke-width:1.12px;stroke-linecap:round;"/><path id="patch_6" d="M447.59,363.125l0,-326.16" style="fill:none;stroke:#262626;stroke-width:1.87px;stroke-linecap:square;"/></g><g id="axes_3"><rect id="patch_8" x="805.64" y="36.965" width="204.6" height="326.16" style="fill:none;"/><g id="matplotlib.axis_6"><g id="ytick_13"><path id="mb4fbe4f7e612" serif:id="mb4fbe4f7e6" d="M805.64,363.125l-9,0" style="fill:#262626;fill-rule:nonzero;stroke:#262626;stroke-width:2.4px;"/><text id="text_20" x="745.636px" y="373.861px" style="font-family:'ArialMT', 'Arial', sans-serif;font-size:30px;fill:#262626;">−4</text></g><g id="ytick_14"><path id="mb4fbe4f7e613" serif:id="mb4fbe4f7e6" d="M805.64,297.893l-9,0" style="fill:#262626;fill-rule:nonzero;stroke:#262626;stroke-width:2.4px;"/><text id="text_21" x="745.636px" y="308.629px" style="font-family:'ArialMT', 'Arial', sans-serif;font-size:30px;fill:#262626;">−2</text></g><g id="ytick_15"><path id="mb4fbe4f7e614" serif:id="mb4fbe4f7e6" d="M805.64,232.661l-9,0" style="fill:#262626;fill-rule:nonzero;stroke:#262626;stroke-width:2.4px;"/><text id="text_22" x="763.156px" y="243.397px" style="font-family:'ArialMT', 'Arial', sans-serif;font-size:30px;fill:#262626;">0</text></g><g id="ytick_16"><path id="mb4fbe4f7e615" serif:id="mb4fbe4f7e6" d="M805.64,167.429l-9,0" style="fill:#262626;fill-rule:nonzero;stroke:#262626;stroke-width:2.4px;"/><text id="text_23" x="763.156px" y="178.165px" style="font-family:'ArialMT', 'Arial', sans-serif;font-size:30px;fill:#262626;">2</text></g><g id="ytick_17"><path id="mb4fbe4f7e616" serif:id="mb4fbe4f7e6" d="M805.64,102.197l-9,0" style="fill:#262626;fill-rule:nonzero;stroke:#262626;stroke-width:2.4px;"/><text id="text_24" x="763.156px" y="112.933px" style="font-family:'ArialMT', 'Arial', sans-serif;font-size:30px;fill:#262626;">4</text></g><g id="ytick_18"><path id="mb4fbe4f7e617" serif:id="mb4fbe4f7e6" d="M805.64,36.965l-9,0" style="fill:#262626;fill-rule:nonzero;stroke:#262626;stroke-width:2.4px;"/><text id="text_25" x="763.156px" y="47.701px" style="font-family:'ArialMT', 'Arial', sans-serif;font-size:30px;fill:#262626;">6</text></g></g><path id="line2d_105" d="M812.576,46.538l69.356,202.835" style="fill:none;stroke:#4c72b0;stroke-width:1.12px;stroke-linecap:round;"/><path id="line2d_106" d="M812.576,99.356l69.356,102.196" style="fill:none;stroke:#4c72b0;stroke-width:1.12px;stroke-linecap:round;"/><path id="line2d_107" d="M812.576,95.955l69.356,131.634" style="fill:none;stroke:#4c72b0;stroke-width:1.12px;stroke-linecap:round;"/><path id="line2d_108" d="M812.576,104.792l69.356,106.609" style="fill:none;stroke:#4c72b0;stroke-width:1.12px;stroke-linecap:round;"/><path id="line2d_109" d="M812.576,174.107l69.356,8.158" style="fill:none;stroke:#4c72b0;stroke-width:1.12px;stroke-linecap:round;"/><path id="line2d_110" d="M812.576,97.006l69.356,111.769" style="fill:none;stroke:#4c72b0;stroke-width:1.12px;stroke-linecap:round;"/><path id="line2d_111" d="M812.576,156.055l69.356,26.045" style="fill:none;stroke:#4c72b0;stroke-width:1.12px;stroke-linecap:round;"/><path id="line2d_112" d="M812.576,94.622l69.356,103.426" style="fill:none;stroke:#4c72b0;stroke-width:1.12px;stroke-linecap:round;"/><path id="line2d_113" d="M812.576,122.224l69.356,55.685" style="fill:none;stroke:#4c72b0;stroke-width:1.12px;stroke-linecap:round;"/><path id="line2d_114" d="M812.576,63.286l69.356,196.947" style="fill:none;stroke:#4c72b0;stroke-width:1.12px;stroke-linecap:round;"/><path id="line2d_115" d="M812.576,108.88l69.356,142.991" style="fill:none;stroke:#4c72b0;stroke-width:1.12px;stroke-linecap:round;"/><path id="line2d_116" d="M812.576,101.671l69.356,165.615" style="fill:none;stroke:#4c72b0;stroke-width:1.12px;stroke-linecap:round;"/><path id="line2d_117" d="M812.576,140.785l69.356,66.995" style="fill:none;stroke:#4c72b0;stroke-width:1.12px;stroke-linecap:round;"/><path id="line2d_118" d="M812.576,79.154l69.356,154.92" style="fill:none;stroke:#4c72b0;stroke-width:1.12px;stroke-linecap:round;"/><path id="line2d_119" d="M812.576,108.667l69.356,87.668" style="fill:none;stroke:#4c72b0;stroke-width:1.12px;stroke-linecap:round;"/><path id="line2d_120" d="M812.576,79.942l69.356,135.845" style="fill:none;stroke:#4c72b0;stroke-width:1.12px;stroke-linecap:round;"/><path id="line2d_121" d="M812.576,73.101l69.356,148.884" style="fill:none;stroke:#4c72b0;stroke-width:1.12px;stroke-linecap:round;"/><path id="line2d_122" d="M812.576,74.286l69.356,81.714" style="fill:none;stroke:#4c72b0;stroke-width:1.12px;stroke-linecap:round;"/><path id="line2d_123" d="M812.576,110.717l69.356,95.646" style="fill:none;stroke:#4c72b0;stroke-width:1.12px;stroke-linecap:round;"/><path id="line2d_124" d="M812.576,170.074l69.356,56.937" style="fill:none;stroke:#4c72b0;stroke-width:1.12px;stroke-linecap:round;"/><path id="line2d_125" d="M812.576,144.249l69.356,113.988" style="fill:none;stroke:#55a868;stroke-width:1.12px;stroke-linecap:round;"/><path id="line2d_126" d="M812.576,72.195l69.356,115.106" style="fill:none;stroke:#55a868;stroke-width:1.12px;stroke-linecap:round;"/><path id="line2d_127" d="M812.576,65.986l69.356,129.074" style="fill:none;stroke:#55a868;stroke-width:1.12px;stroke-linecap:round;"/><path id="line2d_128" d="M812.576,55.803l69.356,205.794" style="fill:none;stroke:#55a868;stroke-width:1.12px;stroke-linecap:round;"/><path id="line2d_129" d="M812.576,121.905l69.356,108.969" style="fill:none;stroke:#55a868;stroke-width:1.12px;stroke-linecap:round;"/><path id="line2d_130" d="M812.576,137.418l69.356,80.961" style="fill:none;stroke:#55a868;stroke-width:1.12px;stroke-linecap:round;"/><path id="line2d_131" d="M812.576,69.38l69.356,210.218" style="fill:none;stroke:#55a868;stroke-width:1.12px;stroke-linecap:round;"/><path id="line2d_132" d="M812.576,70.873l69.356,164.336" style="fill:none;stroke:#55a868;stroke-width:1.12px;stroke-linecap:round;"/><path id="line2d_133" d="M812.576,101.403l69.356,79.097" style="fill:none;stroke:#55a868;stroke-width:1.12px;stroke-linecap:round;"/><path id="line2d_134" d="M812.576,102.345l69.356,176.471" style="fill:none;stroke:#55a868;stroke-width:1.12px;stroke-linecap:round;"/><path id="line2d_135" d="M812.576,150.6l69.356,59.527" style="fill:none;stroke:#55a868;stroke-width:1.12px;stroke-linecap:round;"/><path id="line2d_136" d="M812.576,109.667l69.356,54.737" style="fill:none;stroke:#55a868;stroke-width:1.12px;stroke-linecap:round;"/><path id="line2d_137" d="M812.576,54.603l69.356,191.788" style="fill:none;stroke:#55a868;stroke-width:1.12px;stroke-linecap:round;"/><path id="line2d_138" d="M812.576,135.07l69.356,105.867" style="fill:none;stroke:#55a868;stroke-width:1.12px;stroke-linecap:round;"/><path id="line2d_139" d="M812.576,119.059l69.356,99.986" style="fill:none;stroke:#55a868;stroke-width:1.12px;stroke-linecap:round;"/><path id="line2d_140" d="M812.576,107.558l69.356,101.804" style="fill:none;stroke:#55a868;stroke-width:1.12px;stroke-linecap:round;"/><path id="line2d_141" d="M812.576,113.866l69.356,99.315" style="fill:none;stroke:#55a868;stroke-width:1.12px;stroke-linecap:round;"/><path id="line2d_142" d="M812.576,166.982l69.356,108.498" style="fill:none;stroke:#55a868;stroke-width:1.12px;stroke-linecap:round;"/><path id="line2d_143" d="M812.576,120.149l69.356,130.908" style="fill:none;stroke:#55a868;stroke-width:1.12px;stroke-linecap:round;"/><path id="line2d_144" d="M812.576,122.46l69.356,100.374" style="fill:none;stroke:#55a868;stroke-width:1.12px;stroke-linecap:round;"/><path id="patch_9" d="M805.64,363.125l0,-326.16" style="fill:none;stroke:#262626;stroke-width:1.87px;stroke-linecap:square;"/></g><g id="axes_4"><g id="matplotlib.axis_7"><g id="ytick_19"><path id="m6871c29f82" d="M294.14,298.188l9,0" style="fill:#262626;fill-rule:nonzero;stroke:#262626;stroke-width:2.4px;"/><text id="text_28" x="319.94px" y="308.924px" style="font-family:'ArialMT', 'Arial', sans-serif;font-size:30px;fill:#262626;">−2</text></g><g id="ytick_20"><path id="m6871c29f821" serif:id="m6871c29f82" d="M294.14,232.956l9,0" style="fill:#262626;fill-rule:nonzero;stroke:#262626;stroke-width:2.4px;"/><text id="text_29" x="319.94px" y="243.692px" style="font-family:'ArialMT', 'Arial', sans-serif;font-size:30px;fill:#262626;">0</text></g></g><path id="mf3cb979d06" d="M217.898,269.149l-0.049,0l0,-0.531l0,-0.531l0,-0.531l0,-0.531l0,-0.531l0,-0.53l0,-0.531l0,-0.531l0,-0.531l0,-0.531l0,-0.53l0,-0.531l0,-0.531l0,-0.531l0,-0.531l0,-0.531l0,-0.53l0,-0.531l0,-0.531l0,-0.531l0,-0.531l0,-0.531l0,-0.53l0,-0.531l0,-0.531l0,-0.531l0,-0.531l0,-0.531l0,-0.53l0,-0.531l0,-0.531l0,-0.531l0,-0.531l0,-0.531l0,-0.53l0,-0.531l0,-0.531l0,-0.531l0,-0.531l0,-0.531l0,-0.53l0,-0.531l0,-0.531l0,-0.531l0,-0.531l0,-0.531l0,-0.53l0,-0.531l0,-0.531l0,-0.531l0,-0.531l0,-0.531l0,-0.53l0,-0.531l0,-0.531l0,-0.531l0,-0.531l0,-0.531l0,-0.53l0,-0.531l0,-0.531l0,-0.531l0,-0.531l0,-0.531l0,-0.53l0,-0.531l0,-0.531l0,-0.531l0,-0.531l0,-0.53l0,-0.531l0,-0.531l0,-0.531l0,-0.531l0,-0.531l0,-0.53l0,-0.531l0,-0.531l0,-0.531l0,-0.531l0,-0.531l0,-0.53l0,-0.531l0,-0.531l0,-0.531l0,-0.531l0,-0.531l0,-0.53l0,-0.531l0,-0.531l0,-0.531l0,-0.531l0,-0.531l0,-0.53l0,-0.531l0,-0.531l0,-0.531l0,-0.531l0,-0.531l0.03,0l0.009,0.531l0.012,0.531l0.015,0.531l0.017,0.531l0.018,0.531l0.017,0.53l0.014,0.531l0.008,0.531l0.004,0.531l0.002,0.531l0.008,0.531l0.023,0.53l0.05,0.531l0.084,0.531l0.123,0.531l0.163,0.531l0.197,0.531l0.227,0.53l0.249,0.531l0.268,0.531l0.277,0.531l0.271,0.531l0.247,0.531l0.21,0.53l0.185,0.531l0.195,0.531l0.255,0.531l0.355,0.531l0.462,0.531l0.547,0.53l0.59,0.531l0.591,0.531l0.567,0.531l0.545,0.531l0.556,0.53l0.613,0.531l0.705,0.531l0.789,0.531l0.819,0.531l0.771,0.531l0.657,0.53l0.522,0.531l0.42,0.531l0.379,0.531l0.397,0.531l0.449,0.531l0.505,0.53l0.545,0.531l0.558,0.531l0.542,0.531l0.496,0.531l0.413,0.531l0.278,0.53l0.09,0.531l-0.137,0.531l-0.359,0.531l-0.532,0.531l-0.632,0.531l-0.662,0.53l-0.638,0.531l-0.586,0.531l-0.528,0.531l-0.486,0.531l-0.479,0.531l-0.519,0.53l-0.603,0.531l-0.7,0.531l-0.777,0.531l-0.801,0.531l-0.772,0.531l-0.712,0.53l-0.651,0.531l-0.61,0.531l-0.588,0.531l-0.578,0.531l-0.566,0.531l-0.546,0.53l-0.516,0.531l-0.477,0.531l-0.429,0.531l-0.377,0.531l-0.323,0.531l-0.272,0.53l-0.225,0.531l-0.181,0.531l-0.146,0.531l-0.124,0.531l-0.116,0.531l-0.117,0.53l-0.117,0.531l-0.111,0.531l-0.095,0.531l-0.074,0.531l-0.05,0.53l-0.03,0.531l-0.016,0.531l-0.011,0.531l-0.01,0.531l-0.011,0.531Z" style="fill-opacity:0.298039;fill-rule:nonzero;stroke:#000;stroke-opacity:0.298039;stroke-width:0.72px;"/><path id="LineCollection_1" d="M96.476,232.956l197.664,0" style="fill:none;stroke:#000;stroke-width:1.12px;"/><path id="LineCollection_2" d="M165.832,244.41l128.308,0" style="fill:none;stroke:#000;stroke-width:1.12px;"/><path id="m81ba855546" d="M217.849,251.91c1.989,0 3.896,-0.79 5.303,-2.196c1.406,-1.407 2.197,-3.315 2.197,-5.304c0,-1.989 -0.791,-3.896 -2.197,-5.303c-1.407,-1.406 -3.314,-2.197 -5.303,-2.197c-1.989,0 -3.897,0.791 -5.304,2.197c-1.406,1.407 -2.196,3.314 -2.196,5.303c0,1.989 0.79,3.897 2.196,5.304c1.407,1.406 3.315,2.196 5.304,2.196Z" style="fill-rule:nonzero;"/><path id="line2d_152" d="M217.849,257.584l0,-29.247" style="fill:none;stroke:#000;stroke-width:3px;stroke-linecap:round;"/><path id="patch_11" d="M294.14,298.188l0,-65.232" style="fill:none;stroke:#262626;stroke-width:1.87px;stroke-linecap:square;"/></g><g id="axes_5"><g id="matplotlib.axis_8"><g id="ytick_21"><path id="m6871c29f822" serif:id="m6871c29f82" d="M652.19,292.291l9,0" style="fill:#262626;fill-rule:nonzero;stroke:#262626;stroke-width:2.4px;"/><text id="text_30" x="677.99px" y="303.027px" style="font-family:'ArialMT', 'Arial', sans-serif;font-size:30px;fill:#262626;">−2</text></g><g id="ytick_22"><path id="m6871c29f823" serif:id="m6871c29f82" d="M652.19,227.059l9,0" style="fill:#262626;fill-rule:nonzero;stroke:#262626;stroke-width:2.4px;"/><text id="text_31" x="677.99px" y="237.795px" style="font-family:'ArialMT', 'Arial', sans-serif;font-size:30px;fill:#262626;">0</text></g></g><path id="mcdbc4a66e1" d="M575.935,300.476l-0.036,0l0,-0.579l0,-0.579l0,-0.578l0,-0.579l0,-0.579l0,-0.579l0,-0.578l0,-0.579l0,-0.579l0,-0.579l0,-0.578l0,-0.579l0,-0.579l0,-0.579l0,-0.578l0,-0.579l0,-0.579l0,-0.579l0,-0.578l0,-0.579l0,-0.579l0,-0.579l0,-0.578l0,-0.579l0,-0.579l0,-0.579l0,-0.578l0,-0.579l0,-0.579l0,-0.579l0,-0.578l0,-0.579l0,-0.579l0,-0.579l0,-0.578l0,-0.579l0,-0.579l0,-0.579l0,-0.578l0,-0.579l0,-0.579l0,-0.579l0,-0.578l0,-0.579l0,-0.579l0,-0.579l0,-0.578l0,-0.579l0,-0.579l0,-0.579l0,-0.579l0,-0.578l0,-0.579l0,-0.579l0,-0.579l0,-0.578l0,-0.579l0,-0.579l0,-0.579l0,-0.578l0,-0.579l0,-0.579l0,-0.579l0,-0.578l0,-0.579l0,-0.579l0,-0.579l0,-0.578l0,-0.579l0,-0.579l0,-0.579l0,-0.578l0,-0.579l0,-0.579l0,-0.579l0,-0.578l0,-0.579l0,-0.579l0,-0.579l0,-0.578l0,-0.579l0,-0.579l0,-0.579l0,-0.578l0,-0.579l0,-0.579l0,-0.579l0,-0.578l0,-0.579l0,-0.579l0,-0.579l0,-0.578l0,-0.579l0,-0.579l0,-0.579l0,-0.578l0,-0.579l0,-0.579l0,-0.579l0.019,0l-0.001,0.579l-0.004,0.579l-0.003,0.579l0,0.578l0.004,0.579l0.006,0.579l0.006,0.579l0.008,0.578l0.012,0.579l0.018,0.579l0.023,0.579l0.028,0.578l0.032,0.579l0.035,0.579l0.04,0.579l0.047,0.578l0.061,0.579l0.081,0.579l0.112,0.579l0.151,0.578l0.198,0.579l0.248,0.579l0.293,0.579l0.329,0.578l0.351,0.579l0.361,0.579l0.378,0.579l0.432,0.578l0.531,0.579l0.64,0.579l0.709,0.579l0.716,0.578l0.687,0.579l0.661,0.579l0.66,0.579l0.684,0.578l0.732,0.579l0.801,0.579l0.871,0.579l0.907,0.578l0.891,0.579l0.839,0.579l0.779,0.579l0.719,0.578l0.647,0.579l0.547,0.579l0.425,0.579l0.306,0.578l0.198,0.579l0.102,0.579l0.022,0.579l-0.034,0.579l-0.064,0.578l-0.096,0.579l-0.164,0.579l-0.284,0.579l-0.456,0.578l-0.66,0.579l-0.856,0.579l-0.991,0.579l-1.032,0.578l-0.988,0.579l-0.909,0.579l-0.846,0.579l-0.825,0.578l-0.837,0.579l-0.85,0.579l-0.833,0.579l-0.777,0.578l-0.689,0.579l-0.594,0.579l-0.521,0.579l-0.48,0.578l-0.461,0.579l-0.436,0.579l-0.392,0.579l-0.334,0.578l-0.285,0.579l-0.259,0.579l-0.249,0.579l-0.24,0.578l-0.217,0.579l-0.181,0.579l-0.139,0.579l-0.1,0.578l-0.065,0.579l-0.036,0.579l-0.014,0.579l-0.003,0.578l0.002,0.579l0,0.579l-0.006,0.579l-0.012,0.578l-0.019,0.579l-0.02,0.579l-0.019,0.579l-0.013,0.578l-0.01,0.579l-0.009,0.579Z" style="fill-opacity:0.298039;fill-rule:nonzero;stroke:#000;stroke-opacity:0.298039;stroke-width:0.72px;"/><path id="LineCollection_3" d="M454.526,227.059l197.664,0" style="fill:none;stroke:#000;stroke-width:1.12px;"/><path id="LineCollection_4" d="M523.882,272.632l128.308,0" style="fill:none;stroke:#000;stroke-width:1.12px;"/><path id="m81ba8555461" serif:id="m81ba855546" d="M575.899,280.132c1.989,0 3.896,-0.79 5.303,-2.196c1.406,-1.407 2.197,-3.315 2.197,-5.304c0,-1.989 -0.791,-3.896 -2.197,-5.303c-1.407,-1.406 -3.314,-2.197 -5.303,-2.197c-1.989,0 -3.897,0.791 -5.304,2.197c-1.406,1.407 -2.196,3.314 -2.196,5.303c0,1.989 0.79,3.897 2.196,5.304c1.407,1.406 3.315,2.196 5.304,2.196Z" style="fill-rule:nonzero;"/><path id="line2d_156" d="M575.899,286.289l0,-27.565" style="fill:none;stroke:#000;stroke-width:3px;stroke-linecap:round;"/><path id="patch_12" d="M652.19,292.291l0,-65.232" style="fill:none;stroke:#262626;stroke-width:1.87px;stroke-linecap:square;"/></g><g id="axes_6"><g id="matplotlib.axis_9"><g id="ytick_23"><path id="m6871c29f824" serif:id="m6871c29f82" d="M1010.24,236.534l9,0" style="fill:#262626;fill-rule:nonzero;stroke:#262626;stroke-width:2.4px;"/><text id="text_32" x="1036.04px" y="247.27px" style="font-family:'ArialMT', 'Arial', sans-serif;font-size:30px;fill:#262626;">−4</text></g><g id="ytick_24"><path id="m6871c29f825" serif:id="m6871c29f82" d="M1010.24,171.302l9,0" style="fill:#262626;fill-rule:nonzero;stroke:#262626;stroke-width:2.4px;"/><text id="text_33" x="1036.04px" y="182.038px" style="font-family:'ArialMT', 'Arial', sans-serif;font-size:30px;fill:#262626;">−2</text></g><g id="ytick_25"><path id="m6871c29f826" serif:id="m6871c29f82" d="M1010.24,106.07l9,0" style="fill:#262626;fill-rule:nonzero;stroke:#262626;stroke-width:2.4px;"/><text id="text_34" x="1036.04px" y="116.806px" style="font-family:'ArialMT', 'Arial', sans-serif;font-size:30px;fill:#262626;">0</text></g></g><path id="m19119ddb53" d="M934.036,246.82l-0.086,0l0,-0.54l0,-0.541l0,-0.54l0,-0.54l0,-0.54l0,-0.541l0,-0.54l0,-0.54l0,-0.54l0,-0.541l0,-0.54l0,-0.54l0,-0.54l0,-0.54l0,-0.541l0,-0.54l0,-0.54l0,-0.54l0,-0.541l0,-0.54l0,-0.54l0,-0.54l0,-0.541l0,-0.54l0,-0.54l0,-0.54l0,-0.54l0,-0.541l0,-0.54l0,-0.54l0,-0.54l0,-0.541l0,-0.54l0,-0.54l0,-0.54l0,-0.541l0,-0.54l0,-0.54l0,-0.54l0,-0.54l0,-0.541l0,-0.54l0,-0.54l0,-0.54l0,-0.541l0,-0.54l0,-0.54l0,-0.54l0,-0.541l0,-0.54l0,-0.54l0,-0.54l0,-0.54l0,-0.541l0,-0.54l0,-0.54l0,-0.54l0,-0.541l0,-0.54l0,-0.54l0,-0.54l0,-0.541l0,-0.54l0,-0.54l0,-0.54l0,-0.54l0,-0.541l0,-0.54l0,-0.54l0,-0.54l0,-0.541l0,-0.54l0,-0.54l0,-0.54l0,-0.541l0,-0.54l0,-0.54l0,-0.54l0,-0.54l0,-0.541l0,-0.54l0,-0.54l0,-0.54l0,-0.541l0,-0.54l0,-0.54l0,-0.54l0,-0.541l0,-0.54l0,-0.54l0,-0.54l0,-0.541l0,-0.54l0,-0.54l0,-0.54l0,-0.54l0,-0.541l0,-0.54l0,-0.54l0.019,0l-0.001,0.54l-0.001,0.54l-0.001,0.541l0.003,0.54l0.009,0.54l0.017,0.54l0.025,0.54l0.034,0.541l0.044,0.54l0.054,0.54l0.064,0.54l0.076,0.541l0.091,0.54l0.108,0.54l0.127,0.54l0.143,0.541l0.158,0.54l0.17,0.54l0.187,0.54l0.207,0.541l0.232,0.54l0.261,0.54l0.298,0.54l0.343,0.54l0.397,0.541l0.449,0.54l0.493,0.54l0.527,0.54l0.555,0.541l0.586,0.54l0.627,0.54l0.678,0.54l0.735,0.541l0.793,0.54l0.844,0.54l0.878,0.54l0.891,0.54l0.872,0.541l0.819,0.54l0.731,0.54l0.626,0.54l0.529,0.541l0.465,0.54l0.444,0.54l0.444,0.54l0.429,0.541l0.372,0.54l0.272,0.54l0.156,0.54l0.059,0.54l-0.006,0.541l-0.045,0.54l-0.077,0.54l-0.116,0.54l-0.163,0.541l-0.22,0.54l-0.288,0.54l-0.373,0.54l-0.467,0.541l-0.559,0.54l-0.634,0.54l-0.683,0.54l-0.701,0.54l-0.684,0.541l-0.641,0.54l-0.597,0.54l-0.573,0.54l-0.585,0.541l-0.614,0.54l-0.639,0.54l-0.643,0.54l-0.632,0.541l-0.621,0.54l-0.617,0.54l-0.614,0.54l-0.598,0.54l-0.565,0.541l-0.519,0.54l-0.472,0.54l-0.429,0.54l-0.391,0.541l-0.354,0.54l-0.313,0.54l-0.274,0.54l-0.238,0.541l-0.209,0.54l-0.186,0.54l-0.166,0.54l-0.144,0.54l-0.123,0.541l-0.102,0.54l-0.08,0.54l-0.063,0.54l-0.051,0.541l-0.042,0.54l-0.038,0.54l-0.036,0.54l-0.035,0.541l-0.032,0.54Z" style="fill-opacity:0.298039;fill-rule:nonzero;stroke:#000;stroke-opacity:0.298039;stroke-width:0.72px;"/><path id="LineCollection_5" d="M812.576,106.07l197.664,0" style="fill:none;stroke:#000;stroke-width:1.12px;"/><path id="LineCollection_6" d="M881.932,221.553l128.308,0" style="fill:none;stroke:#000;stroke-width:1.12px;"/><path id="m81ba8555462" serif:id="m81ba855546" d="M933.949,229.053c1.989,0 3.896,-0.79 5.303,-2.197c1.406,-1.406 2.197,-3.314 2.197,-5.303c0,-1.989 -0.791,-3.897 -2.197,-5.303c-1.407,-1.407 -3.314,-2.197 -5.303,-2.197c-1.989,0 -3.897,0.79 -5.304,2.197c-1.406,1.406 -2.196,3.314 -2.196,5.303c0,1.989 0.79,3.897 2.196,5.303c1.407,1.407 3.315,2.197 5.304,2.197Z" style="fill-rule:nonzero;"/><path id="line2d_161" d="M933.949,236.992l0,-29.834" style="fill:none;stroke:#000;stroke-width:3px;stroke-linecap:round;"/><path id="patch_13" d="M1010.24,236.534l0,-130.464" style="fill:none;stroke:#262626;stroke-width:1.87px;stroke-linecap:square;"/></g></g></svg>