<?xml version="1.0" encoding="utf-8" standalone="no"?>
<!DOCTYPE svg PUBLIC "-//W3C//DTD SVG 1.1//EN"
  "http://www.w3.org/Graphics/SVG/1.1/DTD/svg11.dtd">
<!-- Created with matplotlib (http://matplotlib.org/) -->
<svg height="352pt" version="1.1" viewBox="0 0 861 352" width="861pt" xmlns="http://www.w3.org/2000/svg" xmlns:xlink="http://www.w3.org/1999/xlink">
 <defs>
  <style type="text/css">
*{stroke-linecap:butt;stroke-linejoin:round;}
  </style>
 </defs>
 <g id="figure_1">
  <g id="patch_1">
   <path d="M 0 352.25164 
L 861.494473 352.25164 
L 861.494473 0 
L 0 0 
z
" style="fill:none;"/>
  </g>
  <g id="axes_1">
   <g id="patch_2">
    <path d="M 98.630098 231.797812 
L 235.030098 231.797812 
L 235.030098 14.357812 
L 98.630098 14.357812 
z
" style="fill:none;"/>
   </g>
   <g id="matplotlib.axis_1">
    <g id="xtick_1">
     <g id="line2d_1">
      <defs>
       <path d="M 0 0 
L 0 6 
" id="m7836221d12" style="stroke:#262626;stroke-width:1.6;"/>
      </defs>
      <g>
       <use style="fill:#262626;stroke:#262626;stroke-width:1.6;" x="103.253827" xlink:href="#m7836221d12" y="231.797812"/>
      </g>
     </g>
     <g id="text_1">
      <text style="fill:#262626;font-family:Arial;font-size:20px;font-style:normal;font-weight:normal;" transform="translate(17.495033 342.24089)rotate(-45)">Group1 n=40</text>
     </g>
    </g>
    <g id="xtick_2">
     <g id="line2d_2">
      <g>
       <use style="fill:#262626;stroke:#262626;stroke-width:1.6;" x="149.491115" xlink:href="#m7836221d12" y="231.797812"/>
      </g>
     </g>
     <g id="text_2">
      <text style="fill:#262626;font-family:Arial;font-size:20px;font-style:normal;font-weight:normal;" transform="translate(63.732321 342.24089)rotate(-45)">Group2 n=40</text>
     </g>
    </g>
   </g>
   <g id="matplotlib.axis_2">
    <g id="ytick_1">
     <g id="line2d_3">
      <defs>
       <path d="M 0 0 
L -6 0 
" id="mb4fbe4f7e6" style="stroke:#262626;stroke-width:1.6;"/>
      </defs>
      <g>
       <use style="fill:#262626;stroke:#262626;stroke-width:1.6;" x="98.630098" xlink:href="#mb4fbe4f7e6" y="231.797812"/>
      </g>
     </g>
     <g id="text_3">
      <text style="fill:#262626;font-family:Arial;font-size:20px;font-style:normal;font-weight:normal;text-anchor:end;" transform="rotate(-0, 81.430098, 238.955625)" x="81.430098" y="238.955625">−4</text>
     </g>
    </g>
    <g id="ytick_2">
     <g id="line2d_4">
      <g>
       <use style="fill:#262626;stroke:#262626;stroke-width:1.6;" x="98.630098" xlink:href="#mb4fbe4f7e6" y="188.309812"/>
      </g>
     </g>
     <g id="text_4">
      <text style="fill:#262626;font-family:Arial;font-size:20px;font-style:normal;font-weight:normal;text-anchor:end;" transform="rotate(-0, 81.430098, 195.467625)" x="81.430098" y="195.467625">−2</text>
     </g>
    </g>
    <g id="ytick_3">
     <g id="line2d_5">
      <g>
       <use style="fill:#262626;stroke:#262626;stroke-width:1.6;" x="98.630098" xlink:href="#mb4fbe4f7e6" y="144.821812"/>
      </g>
     </g>
     <g id="text_5">
      <text style="fill:#262626;font-family:Arial;font-size:20px;font-style:normal;font-weight:normal;text-anchor:end;" transform="rotate(-0, 81.430098, 151.979625)" x="81.430098" y="151.979625">0</text>
     </g>
    </g>
    <g id="ytick_4">
     <g id="line2d_6">
      <g>
       <use style="fill:#262626;stroke:#262626;stroke-width:1.6;" x="98.630098" xlink:href="#mb4fbe4f7e6" y="101.333812"/>
      </g>
     </g>
     <g id="text_6">
      <text style="fill:#262626;font-family:Arial;font-size:20px;font-style:normal;font-weight:normal;text-anchor:end;" transform="rotate(-0, 81.430098, 108.491625)" x="81.430098" y="108.491625">2</text>
     </g>
    </g>
    <g id="ytick_5">
     <g id="line2d_7">
      <g>
       <use style="fill:#262626;stroke:#262626;stroke-width:1.6;" x="98.630098" xlink:href="#mb4fbe4f7e6" y="57.845812"/>
      </g>
     </g>
     <g id="text_7">
      <text style="fill:#262626;font-family:Arial;font-size:20px;font-style:normal;font-weight:normal;text-anchor:end;" transform="rotate(-0, 81.430098, 65.003625)" x="81.430098" y="65.003625">4</text>
     </g>
    </g>
    <g id="ytick_6">
     <g id="line2d_8">
      <g>
       <use style="fill:#262626;stroke:#262626;stroke-width:1.6;" x="98.630098" xlink:href="#mb4fbe4f7e6" y="14.357812"/>
      </g>
     </g>
     <g id="text_8">
      <text style="fill:#262626;font-family:Arial;font-size:20px;font-style:normal;font-weight:normal;text-anchor:end;" transform="rotate(-0, 81.430098, 21.515625)" x="81.430098" y="21.515625">6</text>
     </g>
    </g>
    <g id="text_9">
     <text style="fill:#262626;font-family:Arial;font-size:22px;font-style:normal;font-weight:normal;text-anchor:middle;" transform="rotate(-90, 50.254473, 123.077812)" x="50.254473" y="123.077812">value</text>
    </g>
   </g>
   <g id="line2d_9">
    <path clip-path="url(#pd3b0db0522)" d="M 103.253827 106.781669 
L 149.491115 136.711609 
" style="fill:none;stroke:#4c72b0;stroke-linecap:round;stroke-width:0.75;"/>
   </g>
   <g id="line2d_10">
    <path clip-path="url(#pd3b0db0522)" d="M 103.253827 151.042184 
L 149.491115 161.813137 
" style="fill:none;stroke:#4c72b0;stroke-linecap:round;stroke-width:0.75;"/>
   </g>
   <g id="line2d_11">
    <path clip-path="url(#pd3b0db0522)" d="M 103.253827 155.358197 
L 149.491115 141.724608 
" style="fill:none;stroke:#4c72b0;stroke-linecap:round;stroke-width:0.75;"/>
   </g>
   <g id="line2d_12">
    <path clip-path="url(#pd3b0db0522)" d="M 103.253827 202.515571 
L 149.491115 183.977008 
" style="fill:none;stroke:#4c72b0;stroke-linecap:round;stroke-width:0.75;"/>
   </g>
   <g id="line2d_13">
    <path clip-path="url(#pd3b0db0522)" d="M 103.253827 145.001953 
L 149.491115 130.619875 
" style="fill:none;stroke:#4c72b0;stroke-linecap:round;stroke-width:0.75;"/>
   </g>
   <g id="line2d_14">
    <path clip-path="url(#pd3b0db0522)" d="M 103.253827 151.771877 
L 149.491115 180.367193 
" style="fill:none;stroke:#4c72b0;stroke-linecap:round;stroke-width:0.75;"/>
   </g>
   <g id="line2d_15">
    <path clip-path="url(#pd3b0db0522)" d="M 103.253827 156.490281 
L 149.491115 146.884729 
" style="fill:none;stroke:#4c72b0;stroke-linecap:round;stroke-width:0.75;"/>
   </g>
   <g id="line2d_16">
    <path clip-path="url(#pd3b0db0522)" d="M 103.253827 137.963697 
L 149.491115 149.610443 
" style="fill:none;stroke:#4c72b0;stroke-linecap:round;stroke-width:0.75;"/>
   </g>
   <g id="line2d_17">
    <path clip-path="url(#pd3b0db0522)" d="M 103.253827 135.666486 
L 149.491115 164.543226 
" style="fill:none;stroke:#4c72b0;stroke-linecap:round;stroke-width:0.75;"/>
   </g>
   <g id="line2d_18">
    <path clip-path="url(#pd3b0db0522)" d="M 103.253827 167.992284 
L 149.491115 84.551372 
" style="fill:none;stroke:#4c72b0;stroke-linecap:round;stroke-width:0.75;"/>
   </g>
   <g id="line2d_19">
    <path clip-path="url(#pd3b0db0522)" d="M 103.253827 164.092208 
L 149.491115 159.995274 
" style="fill:none;stroke:#4c72b0;stroke-linecap:round;stroke-width:0.75;"/>
   </g>
   <g id="line2d_20">
    <path clip-path="url(#pd3b0db0522)" d="M 103.253827 155.166162 
L 149.491115 136.723108 
" style="fill:none;stroke:#4c72b0;stroke-linecap:round;stroke-width:0.75;"/>
   </g>
   <g id="line2d_21">
    <path clip-path="url(#pd3b0db0522)" d="M 103.253827 129.82536 
L 149.491115 123.165743 
" style="fill:none;stroke:#4c72b0;stroke-linecap:round;stroke-width:0.75;"/>
   </g>
   <g id="line2d_22">
    <path clip-path="url(#pd3b0db0522)" d="M 103.253827 132.61925 
L 149.491115 173.418843 
" style="fill:none;stroke:#4c72b0;stroke-linecap:round;stroke-width:0.75;"/>
   </g>
   <g id="line2d_23">
    <path clip-path="url(#pd3b0db0522)" d="M 103.253827 173.209659 
L 149.491115 117.808016 
" style="fill:none;stroke:#4c72b0;stroke-linecap:round;stroke-width:0.75;"/>
   </g>
   <g id="line2d_24">
    <path clip-path="url(#pd3b0db0522)" d="M 103.253827 169.163683 
L 149.491115 149.652237 
" style="fill:none;stroke:#4c72b0;stroke-linecap:round;stroke-width:0.75;"/>
   </g>
   <g id="line2d_25">
    <path clip-path="url(#pd3b0db0522)" d="M 103.253827 128.80002 
L 149.491115 124.980076 
" style="fill:none;stroke:#4c72b0;stroke-linecap:round;stroke-width:0.75;"/>
   </g>
   <g id="line2d_26">
    <path clip-path="url(#pd3b0db0522)" d="M 103.253827 110.582969 
L 149.491115 166.867383 
" style="fill:none;stroke:#4c72b0;stroke-linecap:round;stroke-width:0.75;"/>
   </g>
   <g id="line2d_27">
    <path clip-path="url(#pd3b0db0522)" d="M 103.253827 145.497509 
L 149.491115 169.382317 
" style="fill:none;stroke:#4c72b0;stroke-linecap:round;stroke-width:0.75;"/>
   </g>
   <g id="line2d_28">
    <path clip-path="url(#pd3b0db0522)" d="M 103.253827 159.682676 
L 149.491115 120.690398 
" style="fill:none;stroke:#4c72b0;stroke-linecap:round;stroke-width:0.75;"/>
   </g>
   <g id="line2d_29">
    <path clip-path="url(#pd3b0db0522)" d="M 103.253827 120.99844 
L 149.491115 136.083501 
" style="fill:none;stroke:#55a868;stroke-linecap:round;stroke-width:0.75;"/>
   </g>
   <g id="line2d_30">
    <path clip-path="url(#pd3b0db0522)" d="M 103.253827 151.553247 
L 149.491115 143.977141 
" style="fill:none;stroke:#55a868;stroke-linecap:round;stroke-width:0.75;"/>
   </g>
   <g id="line2d_31">
    <path clip-path="url(#pd3b0db0522)" d="M 103.253827 129.041056 
L 149.491115 133.063503 
" style="fill:none;stroke:#55a868;stroke-linecap:round;stroke-width:0.75;"/>
   </g>
   <g id="line2d_32">
    <path clip-path="url(#pd3b0db0522)" d="M 103.253827 111.138799 
L 149.491115 135.529891 
" style="fill:none;stroke:#55a868;stroke-linecap:round;stroke-width:0.75;"/>
   </g>
   <g id="line2d_33">
    <path clip-path="url(#pd3b0db0522)" d="M 103.253827 131.121357 
L 149.491115 172.096621 
" style="fill:none;stroke:#55a868;stroke-linecap:round;stroke-width:0.75;"/>
   </g>
   <g id="line2d_34">
    <path clip-path="url(#pd3b0db0522)" d="M 103.253827 143.223776 
L 149.491115 195.122936 
" style="fill:none;stroke:#55a868;stroke-linecap:round;stroke-width:0.75;"/>
   </g>
   <g id="line2d_35">
    <path clip-path="url(#pd3b0db0522)" d="M 103.253827 128.899304 
L 149.491115 183.564326 
" style="fill:none;stroke:#55a868;stroke-linecap:round;stroke-width:0.75;"/>
   </g>
   <g id="line2d_36">
    <path clip-path="url(#pd3b0db0522)" d="M 103.253827 158.793972 
L 149.491115 185.876534 
" style="fill:none;stroke:#55a868;stroke-linecap:round;stroke-width:0.75;"/>
   </g>
   <g id="line2d_37">
    <path clip-path="url(#pd3b0db0522)" d="M 103.253827 148.694271 
L 149.491115 195.236036 
" style="fill:none;stroke:#55a868;stroke-linecap:round;stroke-width:0.75;"/>
   </g>
   <g id="line2d_38">
    <path clip-path="url(#pd3b0db0522)" d="M 103.253827 157.30188 
L 149.491115 161.073947 
" style="fill:none;stroke:#55a868;stroke-linecap:round;stroke-width:0.75;"/>
   </g>
   <g id="line2d_39">
    <path clip-path="url(#pd3b0db0522)" d="M 103.253827 149.265749 
L 149.491115 158.485836 
" style="fill:none;stroke:#55a868;stroke-linecap:round;stroke-width:0.75;"/>
   </g>
   <g id="line2d_40">
    <path clip-path="url(#pd3b0db0522)" d="M 103.253827 155.400162 
L 149.491115 147.848777 
" style="fill:none;stroke:#55a868;stroke-linecap:round;stroke-width:0.75;"/>
   </g>
   <g id="line2d_41">
    <path clip-path="url(#pd3b0db0522)" d="M 103.253827 148.861311 
L 149.491115 142.321775 
" style="fill:none;stroke:#55a868;stroke-linecap:round;stroke-width:0.75;"/>
   </g>
   <g id="line2d_42">
    <path clip-path="url(#pd3b0db0522)" d="M 103.253827 153.096196 
L 149.491115 155.35371 
" style="fill:none;stroke:#55a868;stroke-linecap:round;stroke-width:0.75;"/>
   </g>
   <g id="line2d_43">
    <path clip-path="url(#pd3b0db0522)" d="M 103.253827 142.887083 
L 149.491115 152.517103 
" style="fill:none;stroke:#55a868;stroke-linecap:round;stroke-width:0.75;"/>
   </g>
   <g id="line2d_44">
    <path clip-path="url(#pd3b0db0522)" d="M 103.253827 143.437336 
L 149.491115 145.403419 
" style="fill:none;stroke:#55a868;stroke-linecap:round;stroke-width:0.75;"/>
   </g>
   <g id="line2d_45">
    <path clip-path="url(#pd3b0db0522)" d="M 103.253827 138.378041 
L 149.491115 168.679413 
" style="fill:none;stroke:#55a868;stroke-linecap:round;stroke-width:0.75;"/>
   </g>
   <g id="line2d_46">
    <path clip-path="url(#pd3b0db0522)" d="M 103.253827 114.319957 
L 149.491115 162.518304 
" style="fill:none;stroke:#55a868;stroke-linecap:round;stroke-width:0.75;"/>
   </g>
   <g id="line2d_47">
    <path clip-path="url(#pd3b0db0522)" d="M 103.253827 178.456792 
L 149.491115 146.226119 
" style="fill:none;stroke:#55a868;stroke-linecap:round;stroke-width:0.75;"/>
   </g>
   <g id="line2d_48">
    <path clip-path="url(#pd3b0db0522)" d="M 103.253827 116.649882 
L 149.491115 161.737457 
" style="fill:none;stroke:#55a868;stroke-linecap:round;stroke-width:0.75;"/>
   </g>
   <g id="patch_3">
    <path d="M 98.630098 231.797812 
L 98.630098 14.357812 
" style="fill:none;stroke:#262626;stroke-linecap:square;stroke-linejoin:miter;stroke-width:1.25;"/>
   </g>
   <g id="patch_4">
    <path d="M 103.253827 231.797812 
L 149.491115 231.797812 
" style="fill:none;stroke:#262626;stroke-linecap:square;stroke-linejoin:miter;stroke-width:1.25;"/>
   </g>
  </g>
  <g id="axes_2">
   <g id="patch_5">
    <path d="M 337.330098 231.797812 
L 473.730098 231.797812 
L 473.730098 14.357812 
L 337.330098 14.357812 
z
" style="fill:none;"/>
   </g>
   <g id="matplotlib.axis_3">
    <g id="xtick_3">
     <g id="line2d_49">
      <g>
       <use style="fill:#262626;stroke:#262626;stroke-width:1.6;" x="341.953827" xlink:href="#m7836221d12" y="231.797812"/>
      </g>
     </g>
     <g id="text_10">
      <text style="fill:#262626;font-family:Arial;font-size:20px;font-style:normal;font-weight:normal;" transform="translate(257.774975 340.488591)rotate(-45)">Control n=40</text>
     </g>
    </g>
    <g id="xtick_4">
     <g id="line2d_50">
      <g>
       <use style="fill:#262626;stroke:#262626;stroke-width:1.6;" x="388.191115" xlink:href="#m7836221d12" y="231.797812"/>
      </g>
     </g>
     <g id="text_11">
      <text style="fill:#262626;font-family:Arial;font-size:20px;font-style:normal;font-weight:normal;" transform="translate(302.432321 342.24089)rotate(-45)">Group5 n=40</text>
     </g>
    </g>
   </g>
   <g id="matplotlib.axis_4">
    <g id="ytick_7">
     <g id="line2d_51">
      <g>
       <use style="fill:#262626;stroke:#262626;stroke-width:1.6;" x="337.330098" xlink:href="#mb4fbe4f7e6" y="231.797812"/>
      </g>
     </g>
     <g id="text_12">
      <text style="fill:#262626;font-family:Arial;font-size:20px;font-style:normal;font-weight:normal;text-anchor:end;" transform="rotate(-0, 320.130098, 238.955625)" x="320.130098" y="238.955625">−4</text>
     </g>
    </g>
    <g id="ytick_8">
     <g id="line2d_52">
      <g>
       <use style="fill:#262626;stroke:#262626;stroke-width:1.6;" x="337.330098" xlink:href="#mb4fbe4f7e6" y="188.309812"/>
      </g>
     </g>
     <g id="text_13">
      <text style="fill:#262626;font-family:Arial;font-size:20px;font-style:normal;font-weight:normal;text-anchor:end;" transform="rotate(-0, 320.130098, 195.467625)" x="320.130098" y="195.467625">−2</text>
     </g>
    </g>
    <g id="ytick_9">
     <g id="line2d_53">
      <g>
       <use style="fill:#262626;stroke:#262626;stroke-width:1.6;" x="337.330098" xlink:href="#mb4fbe4f7e6" y="144.821812"/>
      </g>
     </g>
     <g id="text_14">
      <text style="fill:#262626;font-family:Arial;font-size:20px;font-style:normal;font-weight:normal;text-anchor:end;" transform="rotate(-0, 320.130098, 151.979625)" x="320.130098" y="151.979625">0</text>
     </g>
    </g>
    <g id="ytick_10">
     <g id="line2d_54">
      <g>
       <use style="fill:#262626;stroke:#262626;stroke-width:1.6;" x="337.330098" xlink:href="#mb4fbe4f7e6" y="101.333812"/>
      </g>
     </g>
     <g id="text_15">
      <text style="fill:#262626;font-family:Arial;font-size:20px;font-style:normal;font-weight:normal;text-anchor:end;" transform="rotate(-0, 320.130098, 108.491625)" x="320.130098" y="108.491625">2</text>
     </g>
    </g>
    <g id="ytick_11">
     <g id="line2d_55">
      <g>
       <use style="fill:#262626;stroke:#262626;stroke-width:1.6;" x="337.330098" xlink:href="#mb4fbe4f7e6" y="57.845812"/>
      </g>
     </g>
     <g id="text_16">
      <text style="fill:#262626;font-family:Arial;font-size:20px;font-style:normal;font-weight:normal;text-anchor:end;" transform="rotate(-0, 320.130098, 65.003625)" x="320.130098" y="65.003625">4</text>
     </g>
    </g>
    <g id="ytick_12">
     <g id="line2d_56">
      <g>
       <use style="fill:#262626;stroke:#262626;stroke-width:1.6;" x="337.330098" xlink:href="#mb4fbe4f7e6" y="14.357812"/>
      </g>
     </g>
     <g id="text_17">
      <text style="fill:#262626;font-family:Arial;font-size:20px;font-style:normal;font-weight:normal;text-anchor:end;" transform="rotate(-0, 320.130098, 21.515625)" x="320.130098" y="21.515625">6</text>
     </g>
    </g>
   </g>
   <g id="line2d_57">
    <path clip-path="url(#pac99ae031e)" d="M 341.953827 115.867796 
L 388.191115 174.03621 
" style="fill:none;stroke:#4c72b0;stroke-linecap:round;stroke-width:0.75;"/>
   </g>
   <g id="line2d_58">
    <path clip-path="url(#pac99ae031e)" d="M 341.953827 129.268786 
L 388.191115 158.450665 
" style="fill:none;stroke:#4c72b0;stroke-linecap:round;stroke-width:0.75;"/>
   </g>
   <g id="line2d_59">
    <path clip-path="url(#pac99ae031e)" d="M 341.953827 178.424996 
L 388.191115 170.294895 
" style="fill:none;stroke:#4c72b0;stroke-linecap:round;stroke-width:0.75;"/>
   </g>
   <g id="line2d_60">
    <path clip-path="url(#pac99ae031e)" d="M 341.953827 145.004111 
L 388.191115 178.567819 
" style="fill:none;stroke:#4c72b0;stroke-linecap:round;stroke-width:0.75;"/>
   </g>
   <g id="line2d_61">
    <path clip-path="url(#pac99ae031e)" d="M 341.953827 131.311483 
L 388.191115 160.931382 
" style="fill:none;stroke:#4c72b0;stroke-linecap:round;stroke-width:0.75;"/>
   </g>
   <g id="line2d_62">
    <path clip-path="url(#pac99ae031e)" d="M 341.953827 160.479353 
L 388.191115 208.748428 
" style="fill:none;stroke:#4c72b0;stroke-linecap:round;stroke-width:0.75;"/>
   </g>
   <g id="line2d_63">
    <path clip-path="url(#pac99ae031e)" d="M 341.953827 139.048529 
L 388.191115 192.777079 
" style="fill:none;stroke:#4c72b0;stroke-linecap:round;stroke-width:0.75;"/>
   </g>
   <g id="line2d_64">
    <path clip-path="url(#pac99ae031e)" d="M 341.953827 142.461533 
L 388.191115 192.583429 
" style="fill:none;stroke:#4c72b0;stroke-linecap:round;stroke-width:0.75;"/>
   </g>
   <g id="line2d_65">
    <path clip-path="url(#pac99ae031e)" d="M 341.953827 144.7285 
L 388.191115 173.864992 
" style="fill:none;stroke:#4c72b0;stroke-linecap:round;stroke-width:0.75;"/>
   </g>
   <g id="line2d_66">
    <path clip-path="url(#pac99ae031e)" d="M 341.953827 148.618319 
L 388.191115 177.897116 
" style="fill:none;stroke:#4c72b0;stroke-linecap:round;stroke-width:0.75;"/>
   </g>
   <g id="line2d_67">
    <path clip-path="url(#pac99ae031e)" d="M 341.953827 135.406091 
L 388.191115 171.363713 
" style="fill:none;stroke:#4c72b0;stroke-linecap:round;stroke-width:0.75;"/>
   </g>
   <g id="line2d_68">
    <path clip-path="url(#pac99ae031e)" d="M 341.953827 118.662968 
L 388.191115 158.070074 
" style="fill:none;stroke:#4c72b0;stroke-linecap:round;stroke-width:0.75;"/>
   </g>
   <g id="line2d_69">
    <path clip-path="url(#pac99ae031e)" d="M 341.953827 165.8062 
L 388.191115 150.073652 
" style="fill:none;stroke:#4c72b0;stroke-linecap:round;stroke-width:0.75;"/>
   </g>
   <g id="line2d_70">
    <path clip-path="url(#pac99ae031e)" d="M 341.953827 122.463021 
L 388.191115 156.745164 
" style="fill:none;stroke:#4c72b0;stroke-linecap:round;stroke-width:0.75;"/>
   </g>
   <g id="line2d_71">
    <path clip-path="url(#pac99ae031e)" d="M 341.953827 139.850479 
L 388.191115 180.079193 
" style="fill:none;stroke:#4c72b0;stroke-linecap:round;stroke-width:0.75;"/>
   </g>
   <g id="line2d_72">
    <path clip-path="url(#pac99ae031e)" d="M 341.953827 135.14274 
L 388.191115 152.229346 
" style="fill:none;stroke:#4c72b0;stroke-linecap:round;stroke-width:0.75;"/>
   </g>
   <g id="line2d_73">
    <path clip-path="url(#pac99ae031e)" d="M 341.953827 169.536091 
L 388.191115 170.462988 
" style="fill:none;stroke:#4c72b0;stroke-linecap:round;stroke-width:0.75;"/>
   </g>
   <g id="line2d_74">
    <path clip-path="url(#pac99ae031e)" d="M 341.953827 141.883396 
L 388.191115 128.291242 
" style="fill:none;stroke:#4c72b0;stroke-linecap:round;stroke-width:0.75;"/>
   </g>
   <g id="line2d_75">
    <path clip-path="url(#pac99ae031e)" d="M 341.953827 112.54204 
L 388.191115 150.26238 
" style="fill:none;stroke:#4c72b0;stroke-linecap:round;stroke-width:0.75;"/>
   </g>
   <g id="line2d_76">
    <path clip-path="url(#pac99ae031e)" d="M 341.953827 168.30109 
L 388.191115 166.209904 
" style="fill:none;stroke:#4c72b0;stroke-linecap:round;stroke-width:0.75;"/>
   </g>
   <g id="line2d_77">
    <path clip-path="url(#pac99ae031e)" d="M 341.953827 187.825536 
L 388.191115 168.665361 
" style="fill:none;stroke:#55a868;stroke-linecap:round;stroke-width:0.75;"/>
   </g>
   <g id="line2d_78">
    <path clip-path="url(#pac99ae031e)" d="M 341.953827 182.7297 
L 388.191115 190.0565 
" style="fill:none;stroke:#55a868;stroke-linecap:round;stroke-width:0.75;"/>
   </g>
   <g id="line2d_79">
    <path clip-path="url(#pac99ae031e)" d="M 341.953827 139.036383 
L 388.191115 163.655171 
" style="fill:none;stroke:#55a868;stroke-linecap:round;stroke-width:0.75;"/>
   </g>
   <g id="line2d_80">
    <path clip-path="url(#pac99ae031e)" d="M 341.953827 92.963083 
L 388.191115 193.771492 
" style="fill:none;stroke:#55a868;stroke-linecap:round;stroke-width:0.75;"/>
   </g>
   <g id="line2d_81">
    <path clip-path="url(#pac99ae031e)" d="M 341.953827 120.38827 
L 388.191115 158.218229 
" style="fill:none;stroke:#55a868;stroke-linecap:round;stroke-width:0.75;"/>
   </g>
   <g id="line2d_82">
    <path clip-path="url(#pac99ae031e)" d="M 341.953827 108.452315 
L 388.191115 211.018474 
" style="fill:none;stroke:#55a868;stroke-linecap:round;stroke-width:0.75;"/>
   </g>
   <g id="line2d_83">
    <path clip-path="url(#pac99ae031e)" d="M 341.953827 142.665912 
L 388.191115 194.482936 
" style="fill:none;stroke:#55a868;stroke-linecap:round;stroke-width:0.75;"/>
   </g>
   <g id="line2d_84">
    <path clip-path="url(#pac99ae031e)" d="M 341.953827 114.423779 
L 388.191115 132.48456 
" style="fill:none;stroke:#55a868;stroke-linecap:round;stroke-width:0.75;"/>
   </g>
   <g id="line2d_85">
    <path clip-path="url(#pac99ae031e)" d="M 341.953827 150.719829 
L 388.191115 130.770364 
" style="fill:none;stroke:#55a868;stroke-linecap:round;stroke-width:0.75;"/>
   </g>
   <g id="line2d_86">
    <path clip-path="url(#pac99ae031e)" d="M 341.953827 131.488301 
L 388.191115 135.712702 
" style="fill:none;stroke:#55a868;stroke-linecap:round;stroke-width:0.75;"/>
   </g>
   <g id="line2d_87">
    <path clip-path="url(#pac99ae031e)" d="M 341.953827 150.634357 
L 388.191115 209.89986 
" style="fill:none;stroke:#55a868;stroke-linecap:round;stroke-width:0.75;"/>
   </g>
   <g id="line2d_88">
    <path clip-path="url(#pac99ae031e)" d="M 341.953827 156.765988 
L 388.191115 202.402924 
" style="fill:none;stroke:#55a868;stroke-linecap:round;stroke-width:0.75;"/>
   </g>
   <g id="line2d_89">
    <path clip-path="url(#pac99ae031e)" d="M 341.953827 141.936203 
L 388.191115 201.250918 
" style="fill:none;stroke:#55a868;stroke-linecap:round;stroke-width:0.75;"/>
   </g>
   <g id="line2d_90">
    <path clip-path="url(#pac99ae031e)" d="M 341.953827 155.175044 
L 388.191115 207.081357 
" style="fill:none;stroke:#55a868;stroke-linecap:round;stroke-width:0.75;"/>
   </g>
   <g id="line2d_91">
    <path clip-path="url(#pac99ae031e)" d="M 341.953827 116.370374 
L 388.191115 161.130021 
" style="fill:none;stroke:#55a868;stroke-linecap:round;stroke-width:0.75;"/>
   </g>
   <g id="line2d_92">
    <path clip-path="url(#pac99ae031e)" d="M 341.953827 140.581444 
L 388.191115 178.279483 
" style="fill:none;stroke:#55a868;stroke-linecap:round;stroke-width:0.75;"/>
   </g>
   <g id="line2d_93">
    <path clip-path="url(#pac99ae031e)" d="M 341.953827 136.119647 
L 388.191115 166.578454 
" style="fill:none;stroke:#55a868;stroke-linecap:round;stroke-width:0.75;"/>
   </g>
   <g id="line2d_94">
    <path clip-path="url(#pac99ae031e)" d="M 341.953827 152.16329 
L 388.191115 178.291871 
" style="fill:none;stroke:#55a868;stroke-linecap:round;stroke-width:0.75;"/>
   </g>
   <g id="line2d_95">
    <path clip-path="url(#pac99ae031e)" d="M 341.953827 117.50108 
L 388.191115 185.538113 
" style="fill:none;stroke:#55a868;stroke-linecap:round;stroke-width:0.75;"/>
   </g>
   <g id="line2d_96">
    <path clip-path="url(#pac99ae031e)" d="M 341.953827 160.737757 
L 388.191115 117.559432 
" style="fill:none;stroke:#55a868;stroke-linecap:round;stroke-width:0.75;"/>
   </g>
   <g id="patch_6">
    <path d="M 337.330098 231.797812 
L 337.330098 14.357812 
" style="fill:none;stroke:#262626;stroke-linecap:square;stroke-linejoin:miter;stroke-width:1.25;"/>
   </g>
   <g id="patch_7">
    <path d="M 341.953827 231.797812 
L 388.191115 231.797812 
" style="fill:none;stroke:#262626;stroke-linecap:square;stroke-linejoin:miter;stroke-width:1.25;"/>
   </g>
  </g>
  <g id="axes_3">
   <g id="patch_8">
    <path d="M 576.030098 231.797812 
L 712.430098 231.797812 
L 712.430098 14.357812 
L 576.030098 14.357812 
z
" style="fill:none;"/>
   </g>
   <g id="matplotlib.axis_5">
    <g id="xtick_5">
     <g id="line2d_97">
      <g>
       <use style="fill:#262626;stroke:#262626;stroke-width:1.6;" x="580.653827" xlink:href="#m7836221d12" y="231.797812"/>
      </g>
     </g>
     <g id="text_18">
      <text style="fill:#262626;font-family:Arial;font-size:20px;font-style:normal;font-weight:normal;" transform="translate(494.895033 342.24089)rotate(-45)">Group4 n=40</text>
     </g>
    </g>
    <g id="xtick_6">
     <g id="line2d_98">
      <g>
       <use style="fill:#262626;stroke:#262626;stroke-width:1.6;" x="626.891115" xlink:href="#m7836221d12" y="231.797812"/>
      </g>
     </g>
     <g id="text_19">
      <text style="fill:#262626;font-family:Arial;font-size:20px;font-style:normal;font-weight:normal;" transform="translate(541.132321 342.24089)rotate(-45)">Group3 n=40</text>
     </g>
    </g>
   </g>
   <g id="matplotlib.axis_6">
    <g id="ytick_13">
     <g id="line2d_99">
      <g>
       <use style="fill:#262626;stroke:#262626;stroke-width:1.6;" x="576.030098" xlink:href="#mb4fbe4f7e6" y="231.797812"/>
      </g>
     </g>
     <g id="text_20">
      <text style="fill:#262626;font-family:Arial;font-size:20px;font-style:normal;font-weight:normal;text-anchor:end;" transform="rotate(-0, 558.830098, 238.955625)" x="558.830098" y="238.955625">−4</text>
     </g>
    </g>
    <g id="ytick_14">
     <g id="line2d_100">
      <g>
       <use style="fill:#262626;stroke:#262626;stroke-width:1.6;" x="576.030098" xlink:href="#mb4fbe4f7e6" y="188.309812"/>
      </g>
     </g>
     <g id="text_21">
      <text style="fill:#262626;font-family:Arial;font-size:20px;font-style:normal;font-weight:normal;text-anchor:end;" transform="rotate(-0, 558.830098, 195.467625)" x="558.830098" y="195.467625">−2</text>
     </g>
    </g>
    <g id="ytick_15">
     <g id="line2d_101">
      <g>
       <use style="fill:#262626;stroke:#262626;stroke-width:1.6;" x="576.030098" xlink:href="#mb4fbe4f7e6" y="144.821812"/>
      </g>
     </g>
     <g id="text_22">
      <text style="fill:#262626;font-family:Arial;font-size:20px;font-style:normal;font-weight:normal;text-anchor:end;" transform="rotate(-0, 558.830098, 151.979625)" x="558.830098" y="151.979625">0</text>
     </g>
    </g>
    <g id="ytick_16">
     <g id="line2d_102">
      <g>
       <use style="fill:#262626;stroke:#262626;stroke-width:1.6;" x="576.030098" xlink:href="#mb4fbe4f7e6" y="101.333812"/>
      </g>
     </g>
     <g id="text_23">
      <text style="fill:#262626;font-family:Arial;font-size:20px;font-style:normal;font-weight:normal;text-anchor:end;" transform="rotate(-0, 558.830098, 108.491625)" x="558.830098" y="108.491625">2</text>
     </g>
    </g>
    <g id="ytick_17">
     <g id="line2d_103">
      <g>
       <use style="fill:#262626;stroke:#262626;stroke-width:1.6;" x="576.030098" xlink:href="#mb4fbe4f7e6" y="57.845812"/>
      </g>
     </g>
     <g id="text_24">
      <text style="fill:#262626;font-family:Arial;font-size:20px;font-style:normal;font-weight:normal;text-anchor:end;" transform="rotate(-0, 558.830098, 65.003625)" x="558.830098" y="65.003625">4</text>
     </g>
    </g>
    <g id="ytick_18">
     <g id="line2d_104">
      <g>
       <use style="fill:#262626;stroke:#262626;stroke-width:1.6;" x="576.030098" xlink:href="#mb4fbe4f7e6" y="14.357812"/>
      </g>
     </g>
     <g id="text_25">
      <text style="fill:#262626;font-family:Arial;font-size:20px;font-style:normal;font-weight:normal;text-anchor:end;" transform="rotate(-0, 558.830098, 21.515625)" x="558.830098" y="21.515625">6</text>
     </g>
    </g>
   </g>
   <g id="line2d_105">
    <path clip-path="url(#pa519888431)" d="M 580.653827 20.740263 
L 626.891115 155.963235 
" style="fill:none;stroke:#4c72b0;stroke-linecap:round;stroke-width:0.75;"/>
   </g>
   <g id="line2d_106">
    <path clip-path="url(#pa519888431)" d="M 580.653827 55.951809 
L 626.891115 124.083116 
" style="fill:none;stroke:#4c72b0;stroke-linecap:round;stroke-width:0.75;"/>
   </g>
   <g id="line2d_107">
    <path clip-path="url(#pa519888431)" d="M 580.653827 53.684572 
L 626.891115 141.440687 
" style="fill:none;stroke:#4c72b0;stroke-linecap:round;stroke-width:0.75;"/>
   </g>
   <g id="line2d_108">
    <path clip-path="url(#pa519888431)" d="M 580.653827 59.575987 
L 626.891115 130.648805 
" style="fill:none;stroke:#4c72b0;stroke-linecap:round;stroke-width:0.75;"/>
   </g>
   <g id="line2d_109">
    <path clip-path="url(#pa519888431)" d="M 580.653827 105.786165 
L 626.891115 111.225121 
" style="fill:none;stroke:#4c72b0;stroke-linecap:round;stroke-width:0.75;"/>
   </g>
   <g id="line2d_110">
    <path clip-path="url(#pa519888431)" d="M 580.653827 54.385351 
L 626.891115 128.897857 
" style="fill:none;stroke:#4c72b0;stroke-linecap:round;stroke-width:0.75;"/>
   </g>
   <g id="line2d_111">
    <path clip-path="url(#pa519888431)" d="M 580.653827 93.751364 
L 626.891115 111.114527 
" style="fill:none;stroke:#4c72b0;stroke-linecap:round;stroke-width:0.75;"/>
   </g>
   <g id="line2d_112">
    <path clip-path="url(#pa519888431)" d="M 580.653827 52.796412 
L 626.891115 121.746832 
" style="fill:none;stroke:#4c72b0;stroke-linecap:round;stroke-width:0.75;"/>
   </g>
   <g id="line2d_113">
    <path clip-path="url(#pa519888431)" d="M 580.653827 71.197184 
L 626.891115 108.32047 
" style="fill:none;stroke:#4c72b0;stroke-linecap:round;stroke-width:0.75;"/>
   </g>
   <g id="line2d_114">
    <path clip-path="url(#pa519888431)" d="M 580.653827 31.905613 
L 626.891115 163.203693 
" style="fill:none;stroke:#4c72b0;stroke-linecap:round;stroke-width:0.75;"/>
   </g>
   <g id="line2d_115">
    <path clip-path="url(#pa519888431)" d="M 580.653827 62.30155 
L 626.891115 157.62879 
" style="fill:none;stroke:#4c72b0;stroke-linecap:round;stroke-width:0.75;"/>
   </g>
   <g id="line2d_116">
    <path clip-path="url(#pa519888431)" d="M 580.653827 57.495136 
L 626.891115 167.905372 
" style="fill:none;stroke:#4c72b0;stroke-linecap:round;stroke-width:0.75;"/>
   </g>
   <g id="line2d_117">
    <path clip-path="url(#pa519888431)" d="M 580.653827 83.571713 
L 626.891115 128.234472 
" style="fill:none;stroke:#4c72b0;stroke-linecap:round;stroke-width:0.75;"/>
   </g>
   <g id="line2d_118">
    <path clip-path="url(#pa519888431)" d="M 580.653827 42.48417 
L 626.891115 145.763899 
" style="fill:none;stroke:#4c72b0;stroke-linecap:round;stroke-width:0.75;"/>
   </g>
   <g id="line2d_119">
    <path clip-path="url(#pa519888431)" d="M 580.653827 62.159178 
L 626.891115 120.604635 
" style="fill:none;stroke:#4c72b0;stroke-linecap:round;stroke-width:0.75;"/>
   </g>
   <g id="line2d_120">
    <path clip-path="url(#pa519888431)" d="M 580.653827 43.009223 
L 626.891115 133.572534 
" style="fill:none;stroke:#4c72b0;stroke-linecap:round;stroke-width:0.75;"/>
   </g>
   <g id="line2d_121">
    <path clip-path="url(#pa519888431)" d="M 580.653827 38.448604 
L 626.891115 137.70493 
" style="fill:none;stroke:#4c72b0;stroke-linecap:round;stroke-width:0.75;"/>
   </g>
   <g id="line2d_122">
    <path clip-path="url(#pa519888431)" d="M 580.653827 39.238831 
L 626.891115 93.715085 
" style="fill:none;stroke:#4c72b0;stroke-linecap:round;stroke-width:0.75;"/>
   </g>
   <g id="line2d_123">
    <path clip-path="url(#pa519888431)" d="M 580.653827 63.526186 
L 626.891115 127.289872 
" style="fill:none;stroke:#4c72b0;stroke-linecap:round;stroke-width:0.75;"/>
   </g>
   <g id="line2d_124">
    <path clip-path="url(#pa519888431)" d="M 580.653827 103.097329 
L 626.891115 141.055135 
" style="fill:none;stroke:#4c72b0;stroke-linecap:round;stroke-width:0.75;"/>
   </g>
   <g id="line2d_125">
    <path clip-path="url(#pa519888431)" d="M 580.653827 85.88109 
L 626.891115 161.872605 
" style="fill:none;stroke:#55a868;stroke-linecap:round;stroke-width:0.75;"/>
   </g>
   <g id="line2d_126">
    <path clip-path="url(#pa519888431)" d="M 580.653827 37.84508 
L 626.891115 114.582317 
" style="fill:none;stroke:#55a868;stroke-linecap:round;stroke-width:0.75;"/>
   </g>
   <g id="line2d_127">
    <path clip-path="url(#pa519888431)" d="M 580.653827 33.705608 
L 626.891115 119.754664 
" style="fill:none;stroke:#55a868;stroke-linecap:round;stroke-width:0.75;"/>
   </g>
   <g id="line2d_128">
    <path clip-path="url(#pa519888431)" d="M 580.653827 26.916945 
L 626.891115 164.112689 
" style="fill:none;stroke:#55a868;stroke-linecap:round;stroke-width:0.75;"/>
   </g>
   <g id="line2d_129">
    <path clip-path="url(#pa519888431)" d="M 580.653827 70.984935 
L 626.891115 143.630488 
" style="fill:none;stroke:#55a868;stroke-linecap:round;stroke-width:0.75;"/>
   </g>
   <g id="line2d_130">
    <path clip-path="url(#pa519888431)" d="M 580.653827 81.326813 
L 626.891115 135.301032 
" style="fill:none;stroke:#55a868;stroke-linecap:round;stroke-width:0.75;"/>
   </g>
   <g id="line2d_131">
    <path clip-path="url(#pa519888431)" d="M 580.653827 35.968304 
L 626.891115 176.11346 
" style="fill:none;stroke:#55a868;stroke-linecap:round;stroke-width:0.75;"/>
   </g>
   <g id="line2d_132">
    <path clip-path="url(#pa519888431)" d="M 580.653827 36.963366 
L 626.891115 146.520769 
" style="fill:none;stroke:#55a868;stroke-linecap:round;stroke-width:0.75;"/>
   </g>
   <g id="line2d_133">
    <path clip-path="url(#pa519888431)" d="M 580.653827 57.316949 
L 626.891115 110.047972 
" style="fill:none;stroke:#55a868;stroke-linecap:round;stroke-width:0.75;"/>
   </g>
   <g id="line2d_134">
    <path clip-path="url(#pa519888431)" d="M 580.653827 57.94492 
L 626.891115 175.59192 
" style="fill:none;stroke:#55a868;stroke-linecap:round;stroke-width:0.75;"/>
   </g>
   <g id="line2d_135">
    <path clip-path="url(#pa519888431)" d="M 580.653827 90.114751 
L 626.891115 129.799495 
" style="fill:none;stroke:#55a868;stroke-linecap:round;stroke-width:0.75;"/>
   </g>
   <g id="line2d_136">
    <path clip-path="url(#pa519888431)" d="M 580.653827 62.82605 
L 626.891115 99.317226 
" style="fill:none;stroke:#55a868;stroke-linecap:round;stroke-width:0.75;"/>
   </g>
   <g id="line2d_137">
    <path clip-path="url(#pa519888431)" d="M 580.653827 26.117091 
L 626.891115 153.975595 
" style="fill:none;stroke:#55a868;stroke-linecap:round;stroke-width:0.75;"/>
   </g>
   <g id="line2d_138">
    <path clip-path="url(#pa519888431)" d="M 580.653827 79.7613 
L 626.891115 150.339404 
" style="fill:none;stroke:#55a868;stroke-linecap:round;stroke-width:0.75;"/>
   </g>
   <g id="line2d_139">
    <path clip-path="url(#pa519888431)" d="M 580.653827 69.087775 
L 626.891115 135.744744 
" style="fill:none;stroke:#55a868;stroke-linecap:round;stroke-width:0.75;"/>
   </g>
   <g id="line2d_140">
    <path clip-path="url(#pa519888431)" d="M 580.653827 61.420238 
L 626.891115 129.289446 
" style="fill:none;stroke:#55a868;stroke-linecap:round;stroke-width:0.75;"/>
   </g>
   <g id="line2d_141">
    <path clip-path="url(#pa519888431)" d="M 580.653827 65.625514 
L 626.891115 131.835397 
" style="fill:none;stroke:#55a868;stroke-linecap:round;stroke-width:0.75;"/>
   </g>
   <g id="line2d_142">
    <path clip-path="url(#pa519888431)" d="M 580.653827 101.035828 
L 626.891115 173.368317 
" style="fill:none;stroke:#55a868;stroke-linecap:round;stroke-width:0.75;"/>
   </g>
   <g id="line2d_143">
    <path clip-path="url(#pa519888431)" d="M 580.653827 69.813867 
L 626.891115 157.086167 
" style="fill:none;stroke:#55a868;stroke-linecap:round;stroke-width:0.75;"/>
   </g>
   <g id="line2d_144">
    <path clip-path="url(#pa519888431)" d="M 580.653827 71.354462 
L 626.891115 138.271002 
" style="fill:none;stroke:#55a868;stroke-linecap:round;stroke-width:0.75;"/>
   </g>
   <g id="patch_9">
    <path d="M 576.030098 231.797812 
L 576.030098 14.357812 
" style="fill:none;stroke:#262626;stroke-linecap:square;stroke-linejoin:miter;stroke-width:1.25;"/>
   </g>
   <g id="patch_10">
    <path d="M 580.653827 231.797812 
L 626.891115 231.797812 
" style="fill:none;stroke:#262626;stroke-linecap:square;stroke-linejoin:miter;stroke-width:1.25;"/>
   </g>
   <g id="legend_1">
    <g id="line2d_145">
     <path d="M 723.610098 39.673437 
L 763.610098 39.673437 
" style="fill:none;stroke:#55a868;stroke-linecap:round;stroke-width:0.75;"/>
    </g>
    <g id="line2d_146"/>
    <g id="text_26">
     <text style="fill:#262626;font-family:Arial;font-size:20px;font-style:normal;font-weight:normal;text-anchor:start;" transform="rotate(-0, 779.610098, 46.673437)" x="779.610098" y="46.673437">Female</text>
    </g>
    <g id="line2d_147">
     <path d="M 723.610098 67.964062 
L 763.610098 67.964062 
" style="fill:none;stroke:#4c72b0;stroke-linecap:round;stroke-width:0.75;"/>
    </g>
    <g id="line2d_148"/>
    <g id="text_27">
     <text style="fill:#262626;font-family:Arial;font-size:20px;font-style:normal;font-weight:normal;text-anchor:start;" transform="rotate(-0, 779.610098, 74.964062)" x="779.610098" y="74.964062">Male</text>
    </g>
   </g>
  </g>
  <g id="axes_4">
   <g id="matplotlib.axis_7">
    <g id="ytick_19">
     <g id="line2d_149">
      <defs>
       <path d="M 0 0 
L 6 0 
" id="m6871c29f82" style="stroke:#262626;stroke-width:1.6;"/>
      </defs>
      <g>
       <use style="fill:#262626;stroke:#262626;stroke-width:1.6;" x="235.030098" xlink:href="#m6871c29f82" y="188.506558"/>
      </g>
     </g>
     <g id="text_28">
      <text style="fill:#262626;font-family:Arial;font-size:20px;font-style:normal;font-weight:normal;text-anchor:start;" transform="rotate(-0, 252.230098, 195.66437)" x="252.230098" y="195.66437">−2</text>
     </g>
    </g>
    <g id="ytick_20">
     <g id="line2d_150">
      <g>
       <use style="fill:#262626;stroke:#262626;stroke-width:1.6;" x="235.030098" xlink:href="#m6871c29f82" y="145.018558"/>
      </g>
     </g>
     <g id="text_29">
      <text style="fill:#262626;font-family:Arial;font-size:20px;font-style:normal;font-weight:normal;text-anchor:start;" transform="rotate(-0, 252.230098, 152.17637)" x="252.230098" y="152.17637">0</text>
     </g>
    </g>
   </g>
   <g id="PolyCollection_1">
    <defs>
     <path d="M 184.201885 -183.104416 
L 184.169503 -183.104416 
L 184.169503 -183.458304 
L 184.169503 -183.812191 
L 184.169503 -184.166078 
L 184.169503 -184.519965 
L 184.169503 -184.873852 
L 184.169503 -185.227739 
L 184.169503 -185.581626 
L 184.169503 -185.935513 
L 184.169503 -186.2894 
L 184.169503 -186.643288 
L 184.169503 -186.997175 
L 184.169503 -187.351062 
L 184.169503 -187.704949 
L 184.169503 -188.058836 
L 184.169503 -188.412723 
L 184.169503 -188.76661 
L 184.169503 -189.120497 
L 184.169503 -189.474384 
L 184.169503 -189.828272 
L 184.169503 -190.182159 
L 184.169503 -190.536046 
L 184.169503 -190.889933 
L 184.169503 -191.24382 
L 184.169503 -191.597707 
L 184.169503 -191.951594 
L 184.169503 -192.305481 
L 184.169503 -192.659369 
L 184.169503 -193.013256 
L 184.169503 -193.367143 
L 184.169503 -193.72103 
L 184.169503 -194.074917 
L 184.169503 -194.428804 
L 184.169503 -194.782691 
L 184.169503 -195.136578 
L 184.169503 -195.490465 
L 184.169503 -195.844353 
L 184.169503 -196.19824 
L 184.169503 -196.552127 
L 184.169503 -196.906014 
L 184.169503 -197.259901 
L 184.169503 -197.613788 
L 184.169503 -197.967675 
L 184.169503 -198.321562 
L 184.169503 -198.675449 
L 184.169503 -199.029337 
L 184.169503 -199.383224 
L 184.169503 -199.737111 
L 184.169503 -200.090998 
L 184.169503 -200.444885 
L 184.169503 -200.798772 
L 184.169503 -201.152659 
L 184.169503 -201.506546 
L 184.169503 -201.860434 
L 184.169503 -202.214321 
L 184.169503 -202.568208 
L 184.169503 -202.922095 
L 184.169503 -203.275982 
L 184.169503 -203.629869 
L 184.169503 -203.983756 
L 184.169503 -204.337643 
L 184.169503 -204.69153 
L 184.169503 -205.045418 
L 184.169503 -205.399305 
L 184.169503 -205.753192 
L 184.169503 -206.107079 
L 184.169503 -206.460966 
L 184.169503 -206.814853 
L 184.169503 -207.16874 
L 184.169503 -207.522627 
L 184.169503 -207.876514 
L 184.169503 -208.230402 
L 184.169503 -208.584289 
L 184.169503 -208.938176 
L 184.169503 -209.292063 
L 184.169503 -209.64595 
L 184.169503 -209.999837 
L 184.169503 -210.353724 
L 184.169503 -210.707611 
L 184.169503 -211.061499 
L 184.169503 -211.415386 
L 184.169503 -211.769273 
L 184.169503 -212.12316 
L 184.169503 -212.477047 
L 184.169503 -212.830934 
L 184.169503 -213.184821 
L 184.169503 -213.538708 
L 184.169503 -213.892595 
L 184.169503 -214.246483 
L 184.169503 -214.60037 
L 184.169503 -214.954257 
L 184.169503 -215.308144 
L 184.169503 -215.662031 
L 184.169503 -216.015918 
L 184.169503 -216.369805 
L 184.169503 -216.723692 
L 184.169503 -217.077579 
L 184.169503 -217.431467 
L 184.169503 -217.785354 
L 184.169503 -218.139241 
L 184.189141 -218.139241 
L 184.189141 -218.139241 
L 184.195296 -217.785354 
L 184.203192 -217.431467 
L 184.213166 -217.077579 
L 184.224757 -216.723692 
L 184.236844 -216.369805 
L 184.248061 -216.015918 
L 184.257057 -215.662031 
L 184.262785 -215.308144 
L 184.265281 -214.954257 
L 184.26675 -214.60037 
L 184.272002 -214.246483 
L 184.28767 -213.892595 
L 184.320654 -213.538708 
L 184.376604 -213.184821 
L 184.458745 -212.830934 
L 184.567148 -212.477047 
L 184.698968 -212.12316 
L 184.84997 -211.769273 
L 185.016327 -211.415386 
L 185.194592 -211.061499 
L 185.379185 -210.707611 
L 185.56001 -210.353724 
L 185.724383 -209.999837 
L 185.864736 -209.64595 
L 185.98789 -209.292063 
L 186.118 -208.938176 
L 186.288159 -208.584289 
L 186.524383 -208.230402 
L 186.832693 -207.876514 
L 187.197576 -207.522627 
L 187.59096 -207.16874 
L 187.984845 -206.814853 
L 188.362472 -206.460966 
L 188.725853 -206.107079 
L 189.096524 -205.753192 
L 189.505653 -205.399305 
L 189.975327 -205.045418 
L 190.50102 -204.69153 
L 191.047253 -204.337643 
L 191.561443 -203.983756 
L 191.99944 -203.629869 
L 192.347571 -203.275982 
L 192.627166 -202.922095 
L 192.87969 -202.568208 
L 193.14447 -202.214321 
L 193.443757 -201.860434 
L 193.780465 -201.506546 
L 194.143756 -201.152659 
L 194.515943 -200.798772 
L 194.877485 -200.444885 
L 195.208109 -200.090998 
L 195.483012 -199.737111 
L 195.668796 -199.383224 
L 195.728403 -199.029337 
L 195.637116 -198.675449 
L 195.398047 -198.321562 
L 195.043548 -197.967675 
L 194.621969 -197.613788 
L 194.18071 -197.259901 
L 193.755071 -196.906014 
L 193.364411 -196.552127 
L 193.012459 -196.19824 
L 192.688576 -195.844353 
L 192.369301 -195.490465 
L 192.023116 -195.136578 
L 191.62167 -194.782691 
L 191.154422 -194.428804 
L 190.636612 -194.074917 
L 190.102617 -193.72103 
L 189.588102 -193.367143 
L 189.113501 -193.013256 
L 188.679208 -192.659369 
L 188.272755 -192.305481 
L 187.880409 -191.951594 
L 187.495174 -191.597707 
L 187.117988 -191.24382 
L 186.754257 -190.889933 
L 186.410311 -190.536046 
L 186.092263 -190.182159 
L 185.805772 -189.828272 
L 185.554632 -189.474384 
L 185.339352 -189.120497 
L 185.158003 -188.76661 
L 185.008269 -188.412723 
L 184.887435 -188.058836 
L 184.790132 -187.704949 
L 184.707509 -187.351062 
L 184.630125 -186.997175 
L 184.55229 -186.643288 
L 184.474109 -186.2894 
L 184.400146 -185.935513 
L 184.336381 -185.581626 
L 184.287298 -185.227739 
L 184.254066 -184.873852 
L 184.23427 -184.519965 
L 184.223238 -184.166078 
L 184.216111 -183.812191 
L 184.20947 -183.458304 
L 184.201885 -183.104416 
z
" id="mf3cb979d06" style="stroke:#000000;stroke-opacity:0.3;stroke-width:0.48;"/>
    </defs>
    <g clip-path="url(#pd3b0db0522)">
     <use style="fill-opacity:0.3;stroke:#000000;stroke-opacity:0.3;stroke-width:0.48;" x="0" xlink:href="#mf3cb979d06" y="352.25164"/>
    </g>
   </g>
   <g id="LineCollection_1">
    <path clip-path="url(#pd3b0db0522)" d="M 103.253827 145.018558 
L 235.030098 145.018558 
" style="fill:none;stroke:#000000;stroke-width:0.75;"/>
   </g>
   <g id="LineCollection_2">
    <path clip-path="url(#pd3b0db0522)" d="M 149.491115 152.655074 
L 235.030098 152.655074 
" style="fill:none;stroke:#000000;stroke-width:0.75;"/>
   </g>
   <g id="line2d_151">
    <path clip-path="url(#pd3b0db0522)" d="M 184.169081 152.655074 
" style="fill:none;stroke:#000000;stroke-linecap:round;stroke-width:2.8;"/>
    <defs>
     <path d="M 0 5 
C 1.326016 5 2.597899 4.473168 3.535534 3.535534 
C 4.473168 2.597899 5 1.326016 5 0 
C 5 -1.326016 4.473168 -2.597899 3.535534 -3.535534 
C 2.597899 -4.473168 1.326016 -5 0 -5 
C -1.326016 -5 -2.597899 -4.473168 -3.535534 -3.535534 
C -4.473168 -2.597899 -5 -1.326016 -5 0 
C -5 1.326016 -4.473168 2.597899 -3.535534 3.535534 
C -2.597899 4.473168 -1.326016 5 0 5 
z
" id="m81ba855546"/>
    </defs>
    <g clip-path="url(#pd3b0db0522)">
     <use x="184.169081" xlink:href="#m81ba855546" y="152.655074"/>
    </g>
   </g>
   <g id="line2d_152">
    <path clip-path="url(#pd3b0db0522)" d="M 184.169081 161.437696 
L 184.169081 141.939301 
" style="fill:none;stroke:#000000;stroke-linecap:round;stroke-width:2;"/>
   </g>
   <g id="patch_11">
    <path d="M 235.030098 188.506558 
L 235.030098 145.018558 
" style="fill:none;stroke:#262626;stroke-linecap:square;stroke-linejoin:miter;stroke-width:1.25;"/>
   </g>
  </g>
  <g id="axes_5">
   <g id="matplotlib.axis_8">
    <g id="ytick_21">
     <g id="line2d_153">
      <g>
       <use style="fill:#262626;stroke:#262626;stroke-width:1.6;" x="473.730098" xlink:href="#m6871c29f82" y="184.575145"/>
      </g>
     </g>
     <g id="text_30">
      <text style="fill:#262626;font-family:Arial;font-size:20px;font-style:normal;font-weight:normal;text-anchor:start;" transform="rotate(-0, 490.930098, 191.732958)" x="490.930098" y="191.732958">−2</text>
     </g>
    </g>
    <g id="ytick_22">
     <g id="line2d_154">
      <g>
       <use style="fill:#262626;stroke:#262626;stroke-width:1.6;" x="473.730098" xlink:href="#m6871c29f82" y="141.087145"/>
      </g>
     </g>
     <g id="text_31">
      <text style="fill:#262626;font-family:Arial;font-size:20px;font-style:normal;font-weight:normal;text-anchor:start;" transform="rotate(-0, 490.930098, 148.244958)" x="490.930098" y="148.244958">0</text>
     </g>
    </g>
   </g>
   <g id="PolyCollection_2">
    <defs>
     <path d="M 422.893406 -162.219515 
L 422.869386 -162.219515 
L 422.869386 -162.605352 
L 422.869386 -162.991188 
L 422.869386 -163.377025 
L 422.869386 -163.762862 
L 422.869386 -164.148699 
L 422.869386 -164.534536 
L 422.869386 -164.920372 
L 422.869386 -165.306209 
L 422.869386 -165.692046 
L 422.869386 -166.077883 
L 422.869386 -166.46372 
L 422.869386 -166.849556 
L 422.869386 -167.235393 
L 422.869386 -167.62123 
L 422.869386 -168.007067 
L 422.869386 -168.392904 
L 422.869386 -168.77874 
L 422.869386 -169.164577 
L 422.869386 -169.550414 
L 422.869386 -169.936251 
L 422.869386 -170.322088 
L 422.869386 -170.707924 
L 422.869386 -171.093761 
L 422.869386 -171.479598 
L 422.869386 -171.865435 
L 422.869386 -172.251272 
L 422.869386 -172.637108 
L 422.869386 -173.022945 
L 422.869386 -173.408782 
L 422.869386 -173.794619 
L 422.869386 -174.180456 
L 422.869386 -174.566292 
L 422.869386 -174.952129 
L 422.869386 -175.337966 
L 422.869386 -175.723803 
L 422.869386 -176.109639 
L 422.869386 -176.495476 
L 422.869386 -176.881313 
L 422.869386 -177.26715 
L 422.869386 -177.652987 
L 422.869386 -178.038823 
L 422.869386 -178.42466 
L 422.869386 -178.810497 
L 422.869386 -179.196334 
L 422.869386 -179.582171 
L 422.869386 -179.968007 
L 422.869386 -180.353844 
L 422.869386 -180.739681 
L 422.869386 -181.125518 
L 422.869386 -181.511355 
L 422.869386 -181.897191 
L 422.869386 -182.283028 
L 422.869386 -182.668865 
L 422.869386 -183.054702 
L 422.869386 -183.440539 
L 422.869386 -183.826375 
L 422.869386 -184.212212 
L 422.869386 -184.598049 
L 422.869386 -184.983886 
L 422.869386 -185.369723 
L 422.869386 -185.755559 
L 422.869386 -186.141396 
L 422.869386 -186.527233 
L 422.869386 -186.91307 
L 422.869386 -187.298907 
L 422.869386 -187.684743 
L 422.869386 -188.07058 
L 422.869386 -188.456417 
L 422.869386 -188.842254 
L 422.869386 -189.22809 
L 422.869386 -189.613927 
L 422.869386 -189.999764 
L 422.869386 -190.385601 
L 422.869386 -190.771438 
L 422.869386 -191.157274 
L 422.869386 -191.543111 
L 422.869386 -191.928948 
L 422.869386 -192.314785 
L 422.869386 -192.700622 
L 422.869386 -193.086458 
L 422.869386 -193.472295 
L 422.869386 -193.858132 
L 422.869386 -194.243969 
L 422.869386 -194.629806 
L 422.869386 -195.015642 
L 422.869386 -195.401479 
L 422.869386 -195.787316 
L 422.869386 -196.173153 
L 422.869386 -196.55899 
L 422.869386 -196.944826 
L 422.869386 -197.330663 
L 422.869386 -197.7165 
L 422.869386 -198.102337 
L 422.869386 -198.488174 
L 422.869386 -198.87401 
L 422.869386 -199.259847 
L 422.869386 -199.645684 
L 422.869386 -200.031521 
L 422.869386 -200.417357 
L 422.882314 -200.417357 
L 422.882314 -200.417357 
L 422.881283 -200.031521 
L 422.878844 -199.645684 
L 422.8769 -199.259847 
L 422.876986 -198.87401 
L 422.879352 -198.488174 
L 422.883129 -198.102337 
L 422.887468 -197.7165 
L 422.892747 -197.330663 
L 422.900568 -196.944826 
L 422.912357 -196.55899 
L 422.928131 -196.173153 
L 422.946875 -195.787316 
L 422.967837 -195.401479 
L 422.991145 -195.015642 
L 423.017674 -194.629806 
L 423.049355 -194.243969 
L 423.089808 -193.858132 
L 423.144235 -193.472295 
L 423.2187 -193.086458 
L 423.319456 -192.700622 
L 423.451515 -192.314785 
L 423.616507 -191.928948 
L 423.811868 -191.543111 
L 424.031337 -191.157274 
L 424.26543 -190.771438 
L 424.505944 -190.385601 
L 424.757749 -189.999764 
L 425.045686 -189.613927 
L 425.399703 -189.22809 
L 425.826579 -188.842254 
L 426.299098 -188.456417 
L 426.7765 -188.07058 
L 427.234491 -187.684743 
L 427.675382 -187.298907 
L 428.1155 -186.91307 
L 428.571581 -186.527233 
L 429.059534 -186.141396 
L 429.593624 -185.755559 
L 430.174315 -185.369723 
L 430.77887 -184.983886 
L 431.372805 -184.598049 
L 431.93205 -184.212212 
L 432.451026 -183.826375 
L 432.930486 -183.440539 
L 433.361778 -183.054702 
L 433.726355 -182.668865 
L 434.010247 -182.283028 
L 434.213892 -181.897191 
L 434.345924 -181.511355 
L 434.414186 -181.125518 
L 434.428403 -180.739681 
L 434.40581 -180.353844 
L 434.363027 -179.968007 
L 434.299086 -179.582171 
L 434.190254 -179.196334 
L 434.000948 -178.810497 
L 433.696957 -178.42466 
L 433.256792 -178.038823 
L 432.685992 -177.652987 
L 432.0253 -177.26715 
L 431.337663 -176.881313 
L 430.678773 -176.495476 
L 430.072756 -176.109639 
L 429.508908 -175.723803 
L 428.958809 -175.337966 
L 428.400601 -174.952129 
L 427.83402 -174.566292 
L 427.278559 -174.180456 
L 426.760895 -173.794619 
L 426.301521 -173.408782 
L 425.905046 -173.022945 
L 425.557864 -172.637108 
L 425.237753 -172.251272 
L 424.930637 -171.865435 
L 424.639808 -171.479598 
L 424.378903 -171.093761 
L 424.156291 -170.707924 
L 423.966145 -170.322088 
L 423.793548 -169.936251 
L 423.627215 -169.550414 
L 423.467357 -169.164577 
L 423.322733 -168.77874 
L 423.202114 -168.392904 
L 423.109044 -168.007067 
L 423.042471 -167.62123 
L 422.999314 -167.235393 
L 422.975512 -166.849556 
L 422.965828 -166.46372 
L 422.964221 -166.077883 
L 422.965227 -165.692046 
L 422.965063 -165.306209 
L 422.961466 -164.920372 
L 422.953276 -164.534536 
L 422.940977 -164.148699 
L 422.927121 -163.762862 
L 422.914938 -163.377025 
L 422.906002 -162.991188 
L 422.899443 -162.605352 
L 422.893406 -162.219515 
z
" id="mcdbc4a66e1" style="stroke:#000000;stroke-opacity:0.3;stroke-width:0.48;"/>
    </defs>
    <g clip-path="url(#pac99ae031e)">
     <use style="fill-opacity:0.3;stroke:#000000;stroke-opacity:0.3;stroke-width:0.48;" x="0" xlink:href="#mcdbc4a66e1" y="352.25164"/>
    </g>
   </g>
   <g id="LineCollection_3">
    <path clip-path="url(#pac99ae031e)" d="M 341.953827 141.087145 
L 473.730098 141.087145 
" style="fill:none;stroke:#000000;stroke-width:0.75;"/>
   </g>
   <g id="LineCollection_4">
    <path clip-path="url(#pac99ae031e)" d="M 388.191115 171.469697 
L 473.730098 171.469697 
" style="fill:none;stroke:#000000;stroke-width:0.75;"/>
   </g>
   <g id="line2d_155">
    <path clip-path="url(#pac99ae031e)" d="M 422.869081 171.469697 
" style="fill:none;stroke:#000000;stroke-linecap:round;stroke-width:2.8;"/>
    <g clip-path="url(#pac99ae031e)">
     <use x="422.869081" xlink:href="#m81ba855546" y="171.469697"/>
    </g>
   </g>
   <g id="line2d_156">
    <path clip-path="url(#pac99ae031e)" d="M 422.869081 180.574054 
L 422.869081 162.197567 
" style="fill:none;stroke:#000000;stroke-linecap:round;stroke-width:2;"/>
   </g>
   <g id="patch_12">
    <path d="M 473.730098 184.575145 
L 473.730098 141.087145 
" style="fill:none;stroke:#262626;stroke-linecap:square;stroke-linejoin:miter;stroke-width:1.25;"/>
   </g>
  </g>
  <g id="axes_6">
   <g id="matplotlib.axis_9">
    <g id="ytick_23">
     <g id="line2d_157">
      <g>
       <use style="fill:#262626;stroke:#262626;stroke-width:1.6;" x="712.430098" xlink:href="#m6871c29f82" y="147.403938"/>
      </g>
     </g>
     <g id="text_32">
      <text style="fill:#262626;font-family:Arial;font-size:20px;font-style:normal;font-weight:normal;text-anchor:start;" transform="rotate(-0, 729.630098, 154.561751)" x="729.630098" y="154.561751">−4</text>
     </g>
    </g>
    <g id="ytick_24">
     <g id="line2d_158">
      <g>
       <use style="fill:#262626;stroke:#262626;stroke-width:1.6;" x="712.430098" xlink:href="#m6871c29f82" y="103.915938"/>
      </g>
     </g>
     <g id="text_33">
      <text style="fill:#262626;font-family:Arial;font-size:20px;font-style:normal;font-weight:normal;text-anchor:start;" transform="rotate(-0, 729.630098, 111.073751)" x="729.630098" y="111.073751">−2</text>
     </g>
    </g>
    <g id="ytick_25">
     <g id="line2d_159">
      <g>
       <use style="fill:#262626;stroke:#262626;stroke-width:1.6;" x="712.430098" xlink:href="#m6871c29f82" y="60.427938"/>
      </g>
     </g>
     <g id="text_34">
      <text style="fill:#262626;font-family:Arial;font-size:20px;font-style:normal;font-weight:normal;text-anchor:start;" transform="rotate(-0, 729.630098, 67.585751)" x="729.630098" y="67.585751">0</text>
     </g>
    </g>
   </g>
   <g id="PolyCollection_3">
    <defs>
     <path d="M 661.627344 -197.990305 
L 661.569722 -197.990305 
L 661.569722 -198.350459 
L 661.569722 -198.710614 
L 661.569722 -199.070768 
L 661.569722 -199.430923 
L 661.569722 -199.791077 
L 661.569722 -200.151232 
L 661.569722 -200.511386 
L 661.569722 -200.871541 
L 661.569722 -201.231696 
L 661.569722 -201.59185 
L 661.569722 -201.952005 
L 661.569722 -202.312159 
L 661.569722 -202.672314 
L 661.569722 -203.032468 
L 661.569722 -203.392623 
L 661.569722 -203.752777 
L 661.569722 -204.112932 
L 661.569722 -204.473086 
L 661.569722 -204.833241 
L 661.569722 -205.193395 
L 661.569722 -205.55355 
L 661.569722 -205.913704 
L 661.569722 -206.273859 
L 661.569722 -206.634014 
L 661.569722 -206.994168 
L 661.569722 -207.354323 
L 661.569722 -207.714477 
L 661.569722 -208.074632 
L 661.569722 -208.434786 
L 661.569722 -208.794941 
L 661.569722 -209.155095 
L 661.569722 -209.51525 
L 661.569722 -209.875404 
L 661.569722 -210.235559 
L 661.569722 -210.595713 
L 661.569722 -210.955868 
L 661.569722 -211.316023 
L 661.569722 -211.676177 
L 661.569722 -212.036332 
L 661.569722 -212.396486 
L 661.569722 -212.756641 
L 661.569722 -213.116795 
L 661.569722 -213.47695 
L 661.569722 -213.837104 
L 661.569722 -214.197259 
L 661.569722 -214.557413 
L 661.569722 -214.917568 
L 661.569722 -215.277722 
L 661.569722 -215.637877 
L 661.569722 -215.998031 
L 661.569722 -216.358186 
L 661.569722 -216.718341 
L 661.569722 -217.078495 
L 661.569722 -217.43865 
L 661.569722 -217.798804 
L 661.569722 -218.158959 
L 661.569722 -218.519113 
L 661.569722 -218.879268 
L 661.569722 -219.239422 
L 661.569722 -219.599577 
L 661.569722 -219.959731 
L 661.569722 -220.319886 
L 661.569722 -220.68004 
L 661.569722 -221.040195 
L 661.569722 -221.40035 
L 661.569722 -221.760504 
L 661.569722 -222.120659 
L 661.569722 -222.480813 
L 661.569722 -222.840968 
L 661.569722 -223.201122 
L 661.569722 -223.561277 
L 661.569722 -223.921431 
L 661.569722 -224.281586 
L 661.569722 -224.64174 
L 661.569722 -225.001895 
L 661.569722 -225.362049 
L 661.569722 -225.722204 
L 661.569722 -226.082359 
L 661.569722 -226.442513 
L 661.569722 -226.802668 
L 661.569722 -227.162822 
L 661.569722 -227.522977 
L 661.569722 -227.883131 
L 661.569722 -228.243286 
L 661.569722 -228.60344 
L 661.569722 -228.963595 
L 661.569722 -229.323749 
L 661.569722 -229.683904 
L 661.569722 -230.044058 
L 661.569722 -230.404213 
L 661.569722 -230.764367 
L 661.569722 -231.124522 
L 661.569722 -231.484677 
L 661.569722 -231.844831 
L 661.569722 -232.204986 
L 661.569722 -232.56514 
L 661.569722 -232.925295 
L 661.569722 -233.285449 
L 661.569722 -233.645604 
L 661.582696 -233.645604 
L 661.582696 -233.645604 
L 661.582261 -233.285449 
L 661.581053 -232.925295 
L 661.580643 -232.56514 
L 661.582803 -232.204986 
L 661.588964 -231.844831 
L 661.600048 -231.484677 
L 661.616661 -231.124522 
L 661.639345 -230.764367 
L 661.668554 -230.404213 
L 661.704498 -230.044058 
L 661.747365 -229.683904 
L 661.79803 -229.323749 
L 661.858408 -228.963595 
L 661.930567 -228.60344 
L 662.015151 -228.243286 
L 662.11086 -227.883131 
L 662.215824 -227.522977 
L 662.329647 -227.162822 
L 662.454107 -226.802668 
L 662.592137 -226.442513 
L 662.746636 -226.082359 
L 662.920771 -225.722204 
L 663.119262 -225.362049 
L 663.348267 -225.001895 
L 663.612517 -224.64174 
L 663.911792 -224.281586 
L 664.24054 -223.921431 
L 664.591732 -223.561277 
L 664.96181 -223.201122 
L 665.352794 -222.840968 
L 665.770723 -222.480813 
L 666.222421 -222.120659 
L 666.712499 -221.760504 
L 667.241258 -221.40035 
L 667.803707 -221.040195 
L 668.389548 -220.68004 
L 668.983391 -220.319886 
L 669.564935 -219.959731 
L 670.110498 -219.599577 
L 670.598002 -219.239422 
L 671.01535 -218.879268 
L 671.367928 -218.519113 
L 671.678245 -218.158959 
L 671.973958 -217.798804 
L 672.269746 -217.43865 
L 672.555994 -217.078495 
L 672.80411 -216.718341 
L 672.985447 -216.358186 
L 673.089587 -215.998031 
L 673.128403 -215.637877 
L 673.124417 -215.277722 
L 673.094694 -214.917568 
L 673.043465 -214.557413 
L 672.966314 -214.197259 
L 672.857391 -213.837104 
L 672.710987 -213.47695 
L 672.518771 -213.116795 
L 672.270266 -212.756641 
L 671.958663 -212.396486 
L 671.586063 -212.036332 
L 671.163433 -211.676177 
L 670.707794 -211.316023 
L 670.240497 -210.955868 
L 669.784553 -210.595713 
L 669.357029 -210.235559 
L 668.959644 -209.875404 
L 668.577069 -209.51525 
L 668.187481 -209.155095 
L 667.778021 -208.794941 
L 667.352209 -208.434786 
L 666.923508 -208.074632 
L 666.50216 -207.714477 
L 666.088277 -207.354323 
L 665.676815 -206.994168 
L 665.26748 -206.634014 
L 664.868626 -206.273859 
L 664.492209 -205.913704 
L 664.146202 -205.55355 
L 663.831635 -205.193395 
L 663.545352 -204.833241 
L 663.28453 -204.473086 
L 663.048964 -204.112932 
L 662.839919 -203.752777 
L 662.657387 -203.392623 
L 662.498594 -203.032468 
L 662.359098 -202.672314 
L 662.235131 -202.312159 
L 662.124952 -201.952005 
L 662.028526 -201.59185 
L 661.946453 -201.231696 
L 661.878989 -200.871541 
L 661.825321 -200.511386 
L 661.783251 -200.151232 
L 661.74963 -199.791077 
L 661.721287 -199.430923 
L 661.695789 -199.070768 
L 661.671724 -198.710614 
L 661.648726 -198.350459 
L 661.627344 -197.990305 
z
" id="m19119ddb53" style="stroke:#000000;stroke-opacity:0.3;stroke-width:0.48;"/>
    </defs>
    <g clip-path="url(#pa519888431)">
     <use style="fill-opacity:0.3;stroke:#000000;stroke-opacity:0.3;stroke-width:0.48;" x="0" xlink:href="#m19119ddb53" y="352.25164"/>
    </g>
   </g>
   <g id="LineCollection_5">
    <path clip-path="url(#pa519888431)" d="M 580.653827 60.427938 
L 712.430098 60.427938 
" style="fill:none;stroke:#000000;stroke-width:0.75;"/>
   </g>
   <g id="LineCollection_6">
    <path clip-path="url(#pa519888431)" d="M 626.891115 137.416844 
L 712.430098 137.416844 
" style="fill:none;stroke:#000000;stroke-width:0.75;"/>
   </g>
   <g id="line2d_160">
    <path clip-path="url(#pa519888431)" d="M 661.569081 137.416844 
" style="fill:none;stroke:#000000;stroke-linecap:round;stroke-width:2.8;"/>
    <g clip-path="url(#pa519888431)">
     <use x="661.569081" xlink:href="#m81ba855546" y="137.416844"/>
    </g>
   </g>
   <g id="line2d_161">
    <path clip-path="url(#pa519888431)" d="M 661.569081 147.709764 
L 661.569081 127.819876 
" style="fill:none;stroke:#000000;stroke-linecap:round;stroke-width:2;"/>
   </g>
   <g id="patch_13">
    <path d="M 712.430098 147.403938 
L 712.430098 60.427938 
" style="fill:none;stroke:#262626;stroke-linecap:square;stroke-linejoin:miter;stroke-width:1.25;"/>
   </g>
  </g>
 </g>
 <defs>
  <clipPath id="pd3b0db0522">
   <rect height="217.44" width="136.4" x="98.630098" y="14.357812"/>
  </clipPath>
  <clipPath id="pac99ae031e">
   <rect height="217.44" width="136.4" x="337.330098" y="14.357812"/>
  </clipPath>
  <clipPath id="pa519888431">
   <rect height="217.44" width="136.4" x="576.030098" y="14.357812"/>
  </clipPath>
 </defs>
</svg>
