<?xml version="1.0" encoding="utf-8" standalone="no"?>
<!DOCTYPE svg PUBLIC "-//W3C//DTD SVG 1.1//EN"
  "http://www.w3.org/Graphics/SVG/1.1/DTD/svg11.dtd">
<!-- Created with matplotlib (http://matplotlib.org/) -->
<svg height="459pt" version="1.1" viewBox="0 0 410 459" width="410pt" xmlns="http://www.w3.org/2000/svg" xmlns:xlink="http://www.w3.org/1999/xlink">
 <defs>
  <style type="text/css">
*{stroke-linecap:butt;stroke-linejoin:round;}
  </style>
 </defs>
 <g id="figure_1">
  <g id="patch_1">
   <path d="M 0 459.813827 
L 410.741327 459.813827 
L 410.741327 -0 
L 0 -0 
z
" style="fill:none;"/>
  </g>
  <g id="axes_1">
   <g id="patch_2">
    <path d="M 95.826952 339.36 
L 263.226952 339.36 
L 263.226952 13.2 
L 95.826952 13.2 
z
" style="fill:none;"/>
   </g>
   <g id="matplotlib.axis_1">
    <g id="xtick_1">
     <g id="line2d_1">
      <defs>
       <path d="M 0 0 
L 0 6 
" id="md2a1513569" style="stroke:#262626;stroke-width:1.6;"/>
      </defs>
      <g>
       <use style="fill:#262626;stroke:#262626;stroke-width:1.6;" x="101.501528" xlink:href="#md2a1513569" y="339.36"/>
      </g>
     </g>
     <g id="text_1">
      <text style="fill:#262626;font-family:Arial;font-size:20px;font-style:normal;font-weight:normal;" transform="translate(17.322676 448.050779)rotate(-45)">Control n=40</text>
     </g>
    </g>
    <g id="xtick_2">
     <g id="line2d_2">
      <g>
       <use style="fill:#262626;stroke:#262626;stroke-width:1.6;" x="158.247291" xlink:href="#md2a1513569" y="339.36"/>
      </g>
     </g>
     <g id="text_2">
      <text style="fill:#262626;font-family:Arial;font-size:20px;font-style:normal;font-weight:normal;" transform="translate(72.488497 449.803078)rotate(-45)">Group4 n=40</text>
     </g>
    </g>
   </g>
   <g id="matplotlib.axis_2">
    <g id="ytick_1">
     <g id="line2d_3">
      <defs>
       <path d="M 0 0 
L -6 0 
" id="m41cbed357a" style="stroke:#262626;stroke-width:1.6;"/>
      </defs>
      <g>
       <use style="fill:#262626;stroke:#262626;stroke-width:1.6;" x="95.826952" xlink:href="#m41cbed357a" y="299.263693"/>
      </g>
     </g>
     <g id="text_3">
      <text style="fill:#262626;font-family:Arial;font-size:20px;font-style:normal;font-weight:normal;text-anchor:end;" transform="rotate(-0, 78.626952, 306.421506)" x="78.626952" y="306.421506">−2</text>
     </g>
    </g>
    <g id="ytick_2">
     <g id="line2d_4">
      <g>
       <use style="fill:#262626;stroke:#262626;stroke-width:1.6;" x="95.826952" xlink:href="#m41cbed357a" y="235.613671"/>
      </g>
     </g>
     <g id="text_4">
      <text style="fill:#262626;font-family:Arial;font-size:20px;font-style:normal;font-weight:normal;text-anchor:end;" transform="rotate(-0, 78.626952, 242.771484)" x="78.626952" y="242.771484">0</text>
     </g>
    </g>
    <g id="ytick_3">
     <g id="line2d_5">
      <g>
       <use style="fill:#262626;stroke:#262626;stroke-width:1.6;" x="95.826952" xlink:href="#m41cbed357a" y="171.963649"/>
      </g>
     </g>
     <g id="text_5">
      <text style="fill:#262626;font-family:Arial;font-size:20px;font-style:normal;font-weight:normal;text-anchor:end;" transform="rotate(-0, 78.626952, 179.121462)" x="78.626952" y="179.121462">2</text>
     </g>
    </g>
    <g id="ytick_4">
     <g id="line2d_6">
      <g>
       <use style="fill:#262626;stroke:#262626;stroke-width:1.6;" x="95.826952" xlink:href="#m41cbed357a" y="108.313627"/>
      </g>
     </g>
     <g id="text_6">
      <text style="fill:#262626;font-family:Arial;font-size:20px;font-style:normal;font-weight:normal;text-anchor:end;" transform="rotate(-0, 78.626952, 115.47144)" x="78.626952" y="115.47144">4</text>
     </g>
    </g>
    <g id="ytick_5">
     <g id="line2d_7">
      <g>
       <use style="fill:#262626;stroke:#262626;stroke-width:1.6;" x="95.826952" xlink:href="#m41cbed357a" y="44.663605"/>
      </g>
     </g>
     <g id="text_7">
      <text style="fill:#262626;font-family:Arial;font-size:20px;font-style:normal;font-weight:normal;text-anchor:end;" transform="rotate(-0, 78.626952, 51.821418)" x="78.626952" y="51.821418">6</text>
     </g>
    </g>
    <g id="text_8">
     <text style="fill:#262626;font-family:Arial;font-size:22px;font-style:normal;font-weight:normal;text-anchor:middle;" transform="rotate(-90, 47.451327, 176.28)" x="47.451327" y="176.28">value</text>
    </g>
   </g>
   <g id="line2d_8">
    <path clip-path="url(#p1dc3d2967e)" d="M 101.501528 193.235916 
L 158.247291 54.005104 
" style="fill:none;stroke:#4c72b0;stroke-linecap:round;stroke-width:0.75;"/>
   </g>
   <g id="line2d_9">
    <path clip-path="url(#p1dc3d2967e)" d="M 101.501528 212.84991 
L 158.247291 105.541521 
" style="fill:none;stroke:#4c72b0;stroke-linecap:round;stroke-width:0.75;"/>
   </g>
   <g id="line2d_10">
    <path clip-path="url(#p1dc3d2967e)" d="M 101.501528 284.796053 
L 158.247291 102.223142 
" style="fill:none;stroke:#4c72b0;stroke-linecap:round;stroke-width:0.75;"/>
   </g>
   <g id="line2d_11">
    <path clip-path="url(#p1dc3d2967e)" d="M 101.501528 235.880487 
L 158.247291 110.84595 
" style="fill:none;stroke:#4c72b0;stroke-linecap:round;stroke-width:0.75;"/>
   </g>
   <g id="line2d_12">
    <path clip-path="url(#p1dc3d2967e)" d="M 101.501528 215.839647 
L 158.247291 178.480213 
" style="fill:none;stroke:#4c72b0;stroke-linecap:round;stroke-width:0.75;"/>
   </g>
   <g id="line2d_13">
    <path clip-path="url(#p1dc3d2967e)" d="M 101.501528 258.530402 
L 158.247291 103.248817 
" style="fill:none;stroke:#4c72b0;stroke-linecap:round;stroke-width:0.75;"/>
   </g>
   <g id="line2d_14">
    <path clip-path="url(#p1dc3d2967e)" d="M 101.501528 227.163762 
L 158.247291 160.865806 
" style="fill:none;stroke:#4c72b0;stroke-linecap:round;stroke-width:0.75;"/>
   </g>
   <g id="line2d_15">
    <path clip-path="url(#p1dc3d2967e)" d="M 101.501528 232.159113 
L 158.247291 100.923211 
" style="fill:none;stroke:#4c72b0;stroke-linecap:round;stroke-width:0.75;"/>
   </g>
   <g id="line2d_16">
    <path clip-path="url(#p1dc3d2967e)" d="M 101.501528 235.477096 
L 158.247291 127.854997 
" style="fill:none;stroke:#4c72b0;stroke-linecap:round;stroke-width:0.75;"/>
   </g>
   <g id="line2d_17">
    <path clip-path="url(#p1dc3d2967e)" d="M 101.501528 241.170325 
L 158.247291 70.346963 
" style="fill:none;stroke:#4c72b0;stroke-linecap:round;stroke-width:0.75;"/>
   </g>
   <g id="line2d_18">
    <path clip-path="url(#p1dc3d2967e)" d="M 101.501528 221.832608 
L 158.247291 114.835146 
" style="fill:none;stroke:#4c72b0;stroke-linecap:round;stroke-width:0.75;"/>
   </g>
   <g id="line2d_19">
    <path clip-path="url(#p1dc3d2967e)" d="M 101.501528 197.326994 
L 158.247291 107.800369 
" style="fill:none;stroke:#4c72b0;stroke-linecap:round;stroke-width:0.75;"/>
   </g>
   <g id="line2d_20">
    <path clip-path="url(#p1dc3d2967e)" d="M 101.501528 266.326897 
L 158.247291 145.966638 
" style="fill:none;stroke:#4c72b0;stroke-linecap:round;stroke-width:0.75;"/>
   </g>
   <g id="line2d_21">
    <path clip-path="url(#p1dc3d2967e)" d="M 101.501528 202.888837 
L 158.247291 85.82998 
" style="fill:none;stroke:#4c72b0;stroke-linecap:round;stroke-width:0.75;"/>
   </g>
   <g id="line2d_22">
    <path clip-path="url(#p1dc3d2967e)" d="M 101.501528 228.337515 
L 158.247291 114.626767 
" style="fill:none;stroke:#4c72b0;stroke-linecap:round;stroke-width:0.75;"/>
   </g>
   <g id="line2d_23">
    <path clip-path="url(#p1dc3d2967e)" d="M 101.501528 221.447162 
L 158.247291 86.598459 
" style="fill:none;stroke:#4c72b0;stroke-linecap:round;stroke-width:0.75;"/>
   </g>
   <g id="line2d_24">
    <path clip-path="url(#p1dc3d2967e)" d="M 101.501528 271.786049 
L 158.247291 79.923433 
" style="fill:none;stroke:#4c72b0;stroke-linecap:round;stroke-width:0.75;"/>
   </g>
   <g id="line2d_25">
    <path clip-path="url(#p1dc3d2967e)" d="M 101.501528 231.312939 
L 158.247291 81.080028 
" style="fill:none;stroke:#4c72b0;stroke-linecap:round;stroke-width:0.75;"/>
   </g>
   <g id="line2d_26">
    <path clip-path="url(#p1dc3d2967e)" d="M 101.501528 188.368265 
L 158.247291 116.62755 
" style="fill:none;stroke:#4c72b0;stroke-linecap:round;stroke-width:0.75;"/>
   </g>
   <g id="line2d_27">
    <path clip-path="url(#p1dc3d2967e)" d="M 101.501528 269.978474 
L 158.247291 174.544772 
" style="fill:none;stroke:#4c72b0;stroke-linecap:round;stroke-width:0.75;"/>
   </g>
   <g id="line2d_28">
    <path clip-path="url(#p1dc3d2967e)" d="M 101.501528 298.554896 
L 158.247291 149.346695 
" style="fill:none;stroke:#55a868;stroke-linecap:round;stroke-width:0.75;"/>
   </g>
   <g id="line2d_29">
    <path clip-path="url(#p1dc3d2967e)" d="M 101.501528 291.096514 
L 158.247291 79.040101 
" style="fill:none;stroke:#55a868;stroke-linecap:round;stroke-width:0.75;"/>
   </g>
   <g id="line2d_30">
    <path clip-path="url(#p1dc3d2967e)" d="M 101.501528 227.145985 
L 158.247291 72.981476 
" style="fill:none;stroke:#55a868;stroke-linecap:round;stroke-width:0.75;"/>
   </g>
   <g id="line2d_31">
    <path clip-path="url(#p1dc3d2967e)" d="M 101.501528 159.71206 
L 158.247291 63.045436 
" style="fill:none;stroke:#55a868;stroke-linecap:round;stroke-width:0.75;"/>
   </g>
   <g id="line2d_32">
    <path clip-path="url(#p1dc3d2967e)" d="M 101.501528 199.852185 
L 158.247291 127.544345 
" style="fill:none;stroke:#55a868;stroke-linecap:round;stroke-width:0.75;"/>
   </g>
   <g id="line2d_33">
    <path clip-path="url(#p1dc3d2967e)" d="M 101.501528 182.382451 
L 158.247291 142.680952 
" style="fill:none;stroke:#55a868;stroke-linecap:round;stroke-width:0.75;"/>
   </g>
   <g id="line2d_34">
    <path clip-path="url(#p1dc3d2967e)" d="M 101.501528 232.458246 
L 158.247291 76.29321 
" style="fill:none;stroke:#55a868;stroke-linecap:round;stroke-width:0.75;"/>
   </g>
   <g id="line2d_35">
    <path clip-path="url(#p1dc3d2967e)" d="M 101.501528 191.122421 
L 158.247291 77.749605 
" style="fill:none;stroke:#55a868;stroke-linecap:round;stroke-width:0.75;"/>
   </g>
   <g id="line2d_36">
    <path clip-path="url(#p1dc3d2967e)" d="M 101.501528 244.246141 
L 158.247291 107.539571 
" style="fill:none;stroke:#55a868;stroke-linecap:round;stroke-width:0.75;"/>
   </g>
   <g id="line2d_37">
    <path clip-path="url(#p1dc3d2967e)" d="M 101.501528 216.098441 
L 158.247291 108.458684 
" style="fill:none;stroke:#55a868;stroke-linecap:round;stroke-width:0.75;"/>
   </g>
   <g id="line2d_38">
    <path clip-path="url(#p1dc3d2967e)" d="M 101.501528 244.121044 
L 158.247291 155.543177 
" style="fill:none;stroke:#55a868;stroke-linecap:round;stroke-width:0.75;"/>
   </g>
   <g id="line2d_39">
    <path clip-path="url(#p1dc3d2967e)" d="M 101.501528 253.095437 
L 158.247291 115.602816 
" style="fill:none;stroke:#55a868;stroke-linecap:round;stroke-width:0.75;"/>
   </g>
   <g id="line2d_40">
    <path clip-path="url(#p1dc3d2967e)" d="M 101.501528 231.390228 
L 158.247291 61.874752 
" style="fill:none;stroke:#55a868;stroke-linecap:round;stroke-width:0.75;"/>
   </g>
   <g id="line2d_41">
    <path clip-path="url(#p1dc3d2967e)" d="M 101.501528 250.766896 
L 158.247291 140.389631 
" style="fill:none;stroke:#55a868;stroke-linecap:round;stroke-width:0.75;"/>
   </g>
   <g id="line2d_42">
    <path clip-path="url(#p1dc3d2967e)" d="M 101.501528 193.971501 
L 158.247291 124.767618 
" style="fill:none;stroke:#55a868;stroke-linecap:round;stroke-width:0.75;"/>
   </g>
   <g id="line2d_43">
    <path clip-path="url(#p1dc3d2967e)" d="M 101.501528 229.407371 
L 158.247291 113.545238 
" style="fill:none;stroke:#55a868;stroke-linecap:round;stroke-width:0.75;"/>
   </g>
   <g id="line2d_44">
    <path clip-path="url(#p1dc3d2967e)" d="M 101.501528 222.876984 
L 158.247291 119.700175 
" style="fill:none;stroke:#55a868;stroke-linecap:round;stroke-width:0.75;"/>
   </g>
   <g id="line2d_45">
    <path clip-path="url(#p1dc3d2967e)" d="M 101.501528 246.358824 
L 158.247291 171.527513 
" style="fill:none;stroke:#55a868;stroke-linecap:round;stroke-width:0.75;"/>
   </g>
   <g id="line2d_46">
    <path clip-path="url(#p1dc3d2967e)" d="M 101.501528 195.626428 
L 158.247291 125.830343 
" style="fill:none;stroke:#55a868;stroke-linecap:round;stroke-width:0.75;"/>
   </g>
   <g id="line2d_47">
    <path clip-path="url(#p1dc3d2967e)" d="M 101.501528 258.908609 
L 158.247291 128.085192 
" style="fill:none;stroke:#55a868;stroke-linecap:round;stroke-width:0.75;"/>
   </g>
   <g id="patch_3">
    <path d="M 95.826952 299.263693 
L 95.826952 44.663605 
" style="fill:none;stroke:#262626;stroke-linecap:square;stroke-linejoin:miter;stroke-width:1.25;"/>
   </g>
   <g id="patch_4">
    <path d="M 101.501528 339.36 
L 158.247291 339.36 
" style="fill:none;stroke:#262626;stroke-linecap:square;stroke-linejoin:miter;stroke-width:1.25;"/>
   </g>
   <g id="legend_1">
    <g id="line2d_48">
     <path d="M 272.856952 38.515625 
L 312.856952 38.515625 
" style="fill:none;stroke:#55a868;stroke-linecap:round;stroke-width:0.75;"/>
    </g>
    <g id="line2d_49"/>
    <g id="text_9">
     <text style="fill:#262626;font-family:Arial;font-size:20px;font-style:normal;font-weight:normal;text-anchor:start;" transform="rotate(-0, 328.856952, 45.515625)" x="328.856952" y="45.515625">Female</text>
    </g>
    <g id="line2d_50">
     <path d="M 272.856952 66.80625 
L 312.856952 66.80625 
" style="fill:none;stroke:#4c72b0;stroke-linecap:round;stroke-width:0.75;"/>
    </g>
    <g id="line2d_51"/>
    <g id="text_10">
     <text style="fill:#262626;font-family:Arial;font-size:20px;font-style:normal;font-weight:normal;text-anchor:start;" transform="rotate(-0, 328.856952, 73.80625)" x="328.856952" y="73.80625">Male</text>
    </g>
   </g>
  </g>
  <g id="axes_2">
   <g id="matplotlib.axis_3">
    <g id="ytick_6">
     <g id="line2d_52">
      <defs>
       <path d="M 0 0 
L 6 0 
" id="m780496ae1a" style="stroke:#262626;stroke-width:1.6;"/>
      </defs>
      <g>
       <use style="fill:#262626;stroke:#262626;stroke-width:1.6;" x="263.226952" xlink:href="#m780496ae1a" y="230.147528"/>
      </g>
     </g>
     <g id="text_11">
      <text style="fill:#262626;font-family:Arial;font-size:20px;font-style:normal;font-weight:normal;text-anchor:start;" transform="rotate(-0, 280.426952, 237.30534)" x="280.426952" y="237.30534">0</text>
     </g>
    </g>
    <g id="ytick_7">
     <g id="line2d_53">
      <g>
       <use style="fill:#262626;stroke:#262626;stroke-width:1.6;" x="263.226952" xlink:href="#m780496ae1a" y="166.497506"/>
      </g>
     </g>
     <g id="text_12">
      <text style="fill:#262626;font-family:Arial;font-size:20px;font-style:normal;font-weight:normal;text-anchor:start;" transform="rotate(-0, 280.426952, 173.655318)" x="280.426952" y="173.655318">2</text>
     </g>
    </g>
    <g id="ytick_8">
     <g id="line2d_54">
      <g>
       <use style="fill:#262626;stroke:#262626;stroke-width:1.6;" x="263.226952" xlink:href="#m780496ae1a" y="102.847484"/>
      </g>
     </g>
     <g id="text_13">
      <text style="fill:#262626;font-family:Arial;font-size:20px;font-style:normal;font-weight:normal;text-anchor:start;" transform="rotate(-0, 280.426952, 110.005296)" x="280.426952" y="110.005296">4</text>
     </g>
    </g>
   </g>
   <g id="PolyCollection_1">
    <defs>
     <path d="M 200.888662 -328.389088 
L 200.807598 -328.389088 
L 200.807598 -328.811416 
L 200.807598 -329.233743 
L 200.807598 -329.656071 
L 200.807598 -330.078398 
L 200.807598 -330.500725 
L 200.807598 -330.923053 
L 200.807598 -331.34538 
L 200.807598 -331.767708 
L 200.807598 -332.190035 
L 200.807598 -332.612362 
L 200.807598 -333.03469 
L 200.807598 -333.457017 
L 200.807598 -333.879345 
L 200.807598 -334.301672 
L 200.807598 -334.723999 
L 200.807598 -335.146327 
L 200.807598 -335.568654 
L 200.807598 -335.990982 
L 200.807598 -336.413309 
L 200.807598 -336.835637 
L 200.807598 -337.257964 
L 200.807598 -337.680291 
L 200.807598 -338.102619 
L 200.807598 -338.524946 
L 200.807598 -338.947274 
L 200.807598 -339.369601 
L 200.807598 -339.791928 
L 200.807598 -340.214256 
L 200.807598 -340.636583 
L 200.807598 -341.058911 
L 200.807598 -341.481238 
L 200.807598 -341.903566 
L 200.807598 -342.325893 
L 200.807598 -342.74822 
L 200.807598 -343.170548 
L 200.807598 -343.592875 
L 200.807598 -344.015203 
L 200.807598 -344.43753 
L 200.807598 -344.859857 
L 200.807598 -345.282185 
L 200.807598 -345.704512 
L 200.807598 -346.12684 
L 200.807598 -346.549167 
L 200.807598 -346.971495 
L 200.807598 -347.393822 
L 200.807598 -347.816149 
L 200.807598 -348.238477 
L 200.807598 -348.660804 
L 200.807598 -349.083132 
L 200.807598 -349.505459 
L 200.807598 -349.927786 
L 200.807598 -350.350114 
L 200.807598 -350.772441 
L 200.807598 -351.194769 
L 200.807598 -351.617096 
L 200.807598 -352.039423 
L 200.807598 -352.461751 
L 200.807598 -352.884078 
L 200.807598 -353.306406 
L 200.807598 -353.728733 
L 200.807598 -354.151061 
L 200.807598 -354.573388 
L 200.807598 -354.995715 
L 200.807598 -355.418043 
L 200.807598 -355.84037 
L 200.807598 -356.262698 
L 200.807598 -356.685025 
L 200.807598 -357.107352 
L 200.807598 -357.52968 
L 200.807598 -357.952007 
L 200.807598 -358.374335 
L 200.807598 -358.796662 
L 200.807598 -359.21899 
L 200.807598 -359.641317 
L 200.807598 -360.063644 
L 200.807598 -360.485972 
L 200.807598 -360.908299 
L 200.807598 -361.330627 
L 200.807598 -361.752954 
L 200.807598 -362.175281 
L 200.807598 -362.597609 
L 200.807598 -363.019936 
L 200.807598 -363.442264 
L 200.807598 -363.864591 
L 200.807598 -364.286919 
L 200.807598 -364.709246 
L 200.807598 -365.131573 
L 200.807598 -365.553901 
L 200.807598 -365.976228 
L 200.807598 -366.398556 
L 200.807598 -366.820883 
L 200.807598 -367.24321 
L 200.807598 -367.665538 
L 200.807598 -368.087865 
L 200.807598 -368.510193 
L 200.807598 -368.93252 
L 200.807598 -369.354848 
L 200.807598 -369.777175 
L 200.807598 -370.199502 
L 200.842526 -370.199502 
L 200.842526 -370.199502 
L 200.848228 -369.777175 
L 200.85238 -369.354848 
L 200.855963 -368.93252 
L 200.860388 -368.510193 
L 200.867101 -368.087865 
L 200.877715 -367.665538 
L 200.894428 -367.24321 
L 200.920064 -366.820883 
L 200.957268 -366.398556 
L 201.007169 -365.976228 
L 201.068539 -365.553901 
L 201.138443 -365.131573 
L 201.214325 -364.709246 
L 201.296209 -364.286919 
L 201.38742 -363.864591 
L 201.493308 -363.442264 
L 201.618983 -363.019936 
L 201.767525 -362.597609 
L 201.939267 -362.175281 
L 202.13189 -361.752954 
L 202.341207 -361.330627 
L 202.563027 -360.908299 
L 202.79595 -360.485972 
L 203.043475 -360.063644 
L 203.313308 -359.641317 
L 203.613511 -359.21899 
L 203.947905 -358.796662 
L 204.314349 -358.374335 
L 204.70763 -357.952007 
L 205.124636 -357.52968 
L 205.566761 -357.107352 
L 206.036566 -356.685025 
L 206.531571 -356.262698 
L 207.041505 -355.84037 
L 207.552316 -355.418043 
L 208.054123 -354.995715 
L 208.547589 -354.573388 
L 209.045158 -354.151061 
L 209.566406 -353.728733 
L 210.128319 -353.306406 
L 210.733365 -352.884078 
L 211.36184 -352.461751 
L 211.975946 -352.039423 
L 212.536412 -351.617096 
L 213.021174 -351.194769 
L 213.431689 -350.772441 
L 213.783084 -350.350114 
L 214.089519 -349.927786 
L 214.357936 -349.505459 
L 214.590179 -349.083132 
L 214.783476 -348.660804 
L 214.9256 -348.238477 
L 214.993054 -347.816149 
L 214.960169 -347.393822 
L 214.814425 -346.971495 
L 214.565918 -346.549167 
L 214.245167 -346.12684 
L 213.893243 -345.704512 
L 213.550283 -345.282185 
L 213.244879 -344.859857 
L 212.985734 -344.43753 
L 212.758615 -344.015203 
L 212.530597 -343.592875 
L 212.259349 -343.170548 
L 211.903352 -342.74822 
L 211.431517 -342.325893 
L 210.832364 -341.903566 
L 210.120269 -341.481238 
L 209.333805 -341.058911 
L 208.524691 -340.636583 
L 207.742547 -340.214256 
L 207.023033 -339.791928 
L 206.383424 -339.369601 
L 205.825054 -338.947274 
L 205.339685 -338.524946 
L 204.915968 -338.102619 
L 204.542531 -337.680291 
L 204.20704 -337.257964 
L 203.894747 -336.835637 
L 203.590931 -336.413309 
L 203.287448 -335.990982 
L 202.988182 -335.568654 
L 202.707589 -335.146327 
L 202.461991 -334.723999 
L 202.259606 -334.301672 
L 202.096419 -333.879345 
L 201.959923 -333.457017 
L 201.836622 -333.03469 
L 201.717422 -332.612362 
L 201.598473 -332.190035 
L 201.479422 -331.767708 
L 201.36214 -331.34538 
L 201.250669 -330.923053 
L 201.150718 -330.500725 
L 201.06748 -330.078398 
L 201.002902 -329.656071 
L 200.954722 -329.233743 
L 200.918139 -328.811416 
L 200.888662 -328.389088 
z
" id="m37e5fb40e2" style="stroke:#000000;stroke-opacity:0.3;stroke-width:0.48;"/>
    </defs>
    <g clip-path="url(#p1dc3d2967e)">
     <use style="fill-opacity:0.3;stroke:#000000;stroke-opacity:0.3;stroke-width:0.48;" x="0" xlink:href="#m37e5fb40e2" y="459.813827"/>
    </g>
   </g>
   <g id="LineCollection_1">
    <path clip-path="url(#p1dc3d2967e)" d="M 101.501528 230.147528 
L 263.226952 230.147528 
" style="fill:none;stroke:#000000;stroke-width:0.75;"/>
   </g>
   <g id="LineCollection_2">
    <path clip-path="url(#p1dc3d2967e)" d="M 158.247291 112.092885 
L 263.226952 112.092885 
" style="fill:none;stroke:#000000;stroke-width:0.75;"/>
   </g>
   <g id="line2d_55">
    <path clip-path="url(#p1dc3d2967e)" d="M 200.806613 112.092885 
" style="fill:none;stroke:#000000;stroke-linecap:round;stroke-width:2.8;"/>
    <defs>
     <path d="M 0 5 
C 1.326016 5 2.597899 4.473168 3.535534 3.535534 
C 4.473168 2.597899 5 1.326016 5 0 
C 5 -1.326016 4.473168 -2.597899 3.535534 -3.535534 
C 2.597899 -4.473168 1.326016 -5 0 -5 
C -1.326016 -5 -2.597899 -4.473168 -3.535534 -3.535534 
C -4.473168 -2.597899 -5 -1.326016 -5 0 
C -5 1.326016 -4.473168 2.597899 -3.535534 3.535534 
C -2.597899 4.473168 -1.326016 5 0 5 
z
" id="m3f5c8df1c7"/>
    </defs>
    <g clip-path="url(#p1dc3d2967e)">
     <use x="200.806613" xlink:href="#m3f5c8df1c7" y="112.092885"/>
    </g>
   </g>
   <g id="line2d_56">
    <path clip-path="url(#p1dc3d2967e)" d="M 200.806613 124.013861 
L 200.806613 99.535248 
" style="fill:none;stroke:#000000;stroke-linecap:round;stroke-width:2;"/>
   </g>
   <g id="patch_5">
    <path d="M 263.226952 230.147528 
L 263.226952 102.847484 
" style="fill:none;stroke:#262626;stroke-linecap:square;stroke-linejoin:miter;stroke-width:1.25;"/>
   </g>
  </g>
 </g>
 <defs>
  <clipPath id="p1dc3d2967e">
   <rect height="326.16" width="167.4" x="95.826952" y="13.2"/>
  </clipPath>
 </defs>
</svg>
