<?xml version="1.0" encoding="UTF-8" standalone="no"?><!DOCTYPE svg PUBLIC "-//W3C//DTD SVG 1.1//EN" "http://www.w3.org/Graphics/SVG/1.1/DTD/svg11.dtd"><svg width="100%" height="100%" viewBox="0 0 300 500" version="1.1" xmlns="http://www.w3.org/2000/svg" xmlns:xlink="http://www.w3.org/1999/xlink" xml:space="preserve" xmlns:serif="http://www.serif.com/" style="fill-rule:evenodd;clip-rule:evenodd;"><g><g id="axes_1"><rect id="patch_2" x="99.227" y="4.453" width="187.79" height="365.887" style="fill:none;"/><g id="matplotlib.axis_1"><g id="xtick_1"><path id="md2a1513569" d="M105.593,370.34l0,6.731" style="fill:#262626;fill-rule:nonzero;stroke:#262626;stroke-width:1.79px;"/><g id="text_1" transform="matrix(0.707107,-0.707107,0.707107,0.707107,-344.819,152.074)"><text x="11.161px" y="492.27px" style="font-family:'ArialMT', 'Arial', sans-serif;font-size:22.436px;fill:#262626;">Control n=40</text></g></g><g id="xtick_2"><path id="md2a15135691" serif:id="md2a1513569" d="M169.25,370.34l0,6.731" style="fill:#262626;fill-rule:nonzero;stroke:#262626;stroke-width:1.79px;"/><g id="text_2" transform="matrix(0.707107,-0.707107,0.707107,0.707107,-328.083,196.41)"><text x="73.046px" y="494.236px" style="font-family:'ArialMT', 'Arial', sans-serif;font-size:22.436px;fill:#262626;">Group <tspan x="140.398px 154.125px 160.358px " y="494.236px 494.236px 494.236px ">A n</tspan>=40</text></g></g></g><g id="matplotlib.axis_2"><g id="ytick_1"><path id="m41cbed357a" d="M99.227,325.36l-6.731,0" style="fill:#262626;fill-rule:nonzero;stroke:#262626;stroke-width:1.79px;"/><text id="text_3" x="54.352px" y="333.39px" style="font-family:'ArialMT', 'Arial', sans-serif;font-size:22.436px;fill:#262626;">−2</text></g><g id="ytick_2"><path id="m41cbed357a1" serif:id="m41cbed357a" d="M99.227,253.957l-6.731,0" style="fill:#262626;fill-rule:nonzero;stroke:#262626;stroke-width:1.79px;"/><text id="text_4" x="67.454px" y="261.987px" style="font-family:'ArialMT', 'Arial', sans-serif;font-size:22.436px;fill:#262626;">0</text></g><g id="ytick_3"><path id="m41cbed357a2" serif:id="m41cbed357a" d="M99.227,182.555l-6.731,0" style="fill:#262626;fill-rule:nonzero;stroke:#262626;stroke-width:1.79px;"/><text id="text_5" x="67.454px" y="190.584px" style="font-family:'ArialMT', 'Arial', sans-serif;font-size:22.436px;fill:#262626;">2</text></g><g id="ytick_4"><path id="m41cbed357a3" serif:id="m41cbed357a" d="M99.227,111.152l-6.731,0" style="fill:#262626;fill-rule:nonzero;stroke:#262626;stroke-width:1.79px;"/><text id="text_6" x="67.454px" y="119.182px" style="font-family:'ArialMT', 'Arial', sans-serif;font-size:22.436px;fill:#262626;">4</text></g><g id="ytick_5"><path id="m41cbed357a4" serif:id="m41cbed357a" d="M99.227,39.749l-6.731,0" style="fill:#262626;fill-rule:nonzero;stroke:#262626;stroke-width:1.79px;"/><text id="text_7" x="67.454px" y="47.779px" style="font-family:'ArialMT', 'Arial', sans-serif;font-size:22.436px;fill:#262626;">6</text></g><g id="text_8" transform="matrix(-3.82857e-16,-1,1,-3.82857e-16,-161.438,213.356)"><text x="-3.541px" y="187.397px" style="font-family:'ArialMT', 'Arial', sans-serif;font-size:24.68px;fill:#262626;">value</text></g></g><path id="line2d_8" d="M105.593,206.418l63.657,-156.189" style="fill:none;stroke:#4c72b0;stroke-width:0.84px;stroke-linecap:round;"/><path id="line2d_9" d="M105.593,228.421l63.657,-120.379" style="fill:none;stroke:#4c72b0;stroke-width:0.84px;stroke-linecap:round;"/><path id="line2d_10" d="M105.593,309.13l63.657,-204.81" style="fill:none;stroke:#4c72b0;stroke-width:0.84px;stroke-linecap:round;"/><path id="line2d_11" d="M105.593,254.257l63.657,-140.264" style="fill:none;stroke:#4c72b0;stroke-width:0.84px;stroke-linecap:round;"/><path id="line2d_12" d="M105.593,231.775l63.657,-41.91" style="fill:none;stroke:#4c72b0;stroke-width:0.84px;stroke-linecap:round;"/><path id="line2d_13" d="M105.593,279.666l63.657,-174.196" style="fill:none;stroke:#4c72b0;stroke-width:0.84px;stroke-linecap:round;"/><path id="line2d_14" d="M105.593,244.478l63.657,-74.373" style="fill:none;stroke:#4c72b0;stroke-width:0.84px;stroke-linecap:round;"/><path id="line2d_15" d="M105.593,250.082l63.657,-147.221" style="fill:none;stroke:#4c72b0;stroke-width:0.84px;stroke-linecap:round;"/><path id="line2d_16" d="M105.593,253.804l63.657,-120.73" style="fill:none;stroke:#4c72b0;stroke-width:0.84px;stroke-linecap:round;"/><path id="line2d_17" d="M105.593,260.191l63.657,-191.63" style="fill:none;stroke:#4c72b0;stroke-width:0.84px;stroke-linecap:round;"/><path id="line2d_18" d="M105.593,238.498l63.657,-120.03" style="fill:none;stroke:#4c72b0;stroke-width:0.84px;stroke-linecap:round;"/><path id="line2d_19" d="M105.593,211.007l63.657,-100.431" style="fill:none;stroke:#4c72b0;stroke-width:0.84px;stroke-linecap:round;"/><path id="line2d_20" d="M105.593,288.412l63.657,-135.021" style="fill:none;stroke:#4c72b0;stroke-width:0.84px;stroke-linecap:round;"/><path id="line2d_21" d="M105.593,217.247l63.657,-131.317" style="fill:none;stroke:#4c72b0;stroke-width:0.84px;stroke-linecap:round;"/><path id="line2d_22" d="M105.593,245.795l63.657,-127.561" style="fill:none;stroke:#4c72b0;stroke-width:0.84px;stroke-linecap:round;"/><path id="line2d_23" d="M105.593,238.065l63.657,-151.273" style="fill:none;stroke:#4c72b0;stroke-width:0.84px;stroke-linecap:round;"/><path id="line2d_24" d="M105.593,294.536l63.657,-215.232" style="fill:none;stroke:#4c72b0;stroke-width:0.84px;stroke-linecap:round;"/><path id="line2d_25" d="M105.593,249.133l63.657,-168.532" style="fill:none;stroke:#4c72b0;stroke-width:0.84px;stroke-linecap:round;"/><path id="line2d_26" d="M105.593,200.957l63.657,-80.478" style="fill:none;stroke:#4c72b0;stroke-width:0.84px;stroke-linecap:round;"/><path id="line2d_27" d="M105.593,292.508l63.657,-107.058" style="fill:none;stroke:#4c72b0;stroke-width:0.84px;stroke-linecap:round;"/><path id="line2d_28" d="M105.593,324.565l63.657,-167.382" style="fill:none;stroke:#55a868;stroke-width:0.84px;stroke-linecap:round;"/><path id="line2d_29" d="M105.593,316.198l63.657,-237.885" style="fill:none;stroke:#55a868;stroke-width:0.84px;stroke-linecap:round;"/><path id="line2d_30" d="M105.593,244.458l63.657,-172.942" style="fill:none;stroke:#55a868;stroke-width:0.84px;stroke-linecap:round;"/><path id="line2d_31" d="M105.593,168.811l63.657,-108.441" style="fill:none;stroke:#55a868;stroke-width:0.84px;stroke-linecap:round;"/><path id="line2d_32" d="M105.593,213.84l63.657,-81.115" style="fill:none;stroke:#55a868;stroke-width:0.84px;stroke-linecap:round;"/><path id="line2d_33" d="M105.593,194.243l63.657,-44.538" style="fill:none;stroke:#55a868;stroke-width:0.84px;stroke-linecap:round;"/><path id="line2d_34" d="M105.593,250.418l63.657,-175.187" style="fill:none;stroke:#55a868;stroke-width:0.84px;stroke-linecap:round;"/><path id="line2d_35" d="M105.593,204.047l63.657,-127.182" style="fill:none;stroke:#55a868;stroke-width:0.84px;stroke-linecap:round;"/><path id="line2d_36" d="M105.593,263.641l63.657,-153.357" style="fill:none;stroke:#55a868;stroke-width:0.84px;stroke-linecap:round;"/><path id="line2d_37" d="M105.593,232.065l63.657,-120.75" style="fill:none;stroke:#55a868;stroke-width:0.84px;stroke-linecap:round;"/><path id="line2d_38" d="M105.593,263.501l63.657,-99.367" style="fill:none;stroke:#55a868;stroke-width:0.84px;stroke-linecap:round;"/><path id="line2d_39" d="M105.593,273.569l63.657,-154.24" style="fill:none;stroke:#55a868;stroke-width:0.84px;stroke-linecap:round;"/><path id="line2d_40" d="M105.593,249.22l63.657,-190.163" style="fill:none;stroke:#55a868;stroke-width:0.84px;stroke-linecap:round;"/><path id="line2d_41" d="M105.593,270.956l63.657,-123.821" style="fill:none;stroke:#55a868;stroke-width:0.84px;stroke-linecap:round;"/><path id="line2d_42" d="M105.593,207.243l63.657,-77.633" style="fill:none;stroke:#55a868;stroke-width:0.84px;stroke-linecap:round;"/><path id="line2d_43" d="M105.593,246.995l63.657,-129.974" style="fill:none;stroke:#55a868;stroke-width:0.84px;stroke-linecap:round;"/><path id="line2d_44" d="M105.593,239.669l63.657,-115.744" style="fill:none;stroke:#55a868;stroke-width:0.84px;stroke-linecap:round;"/><path id="line2d_45" d="M105.593,266.011l63.657,-83.946" style="fill:none;stroke:#55a868;stroke-width:0.84px;stroke-linecap:round;"/><path id="line2d_46" d="M105.593,209.1l63.657,-78.298" style="fill:none;stroke:#55a868;stroke-width:0.84px;stroke-linecap:round;"/><path id="line2d_47" d="M105.593,280.09l63.657,-146.758" style="fill:none;stroke:#55a868;stroke-width:0.84px;stroke-linecap:round;"/><path id="patch_3" d="M99.227,325.36l0,-285.611" style="fill:none;stroke:#262626;stroke-width:1.4px;stroke-linecap:square;"/><path id="patch_4" d="M105.593,370.34l63.657,0" style="fill:none;stroke:#262626;stroke-width:1.4px;stroke-linecap:square;"/></g><g id="axes_2"><g id="matplotlib.axis_3"><g id="ytick_6"><path id="m780496ae1a" d="M252.017,247.826l6.731,0" style="fill:#262626;fill-rule:nonzero;stroke:#262626;stroke-width:1.79px;"/><text id="text_11" x="271.312px" y="255.855px" style="font-family:'ArialMT', 'Arial', sans-serif;font-size:22.436px;fill:#262626;">0</text></g><g id="ytick_7"><path id="m780496ae1a1" serif:id="m780496ae1a" d="M252.017,176.423l6.731,0" style="fill:#262626;fill-rule:nonzero;stroke:#262626;stroke-width:1.79px;"/><text id="text_12" x="271.312px" y="184.452px" style="font-family:'ArialMT', 'Arial', sans-serif;font-size:22.436px;fill:#262626;">2</text></g><g id="ytick_8"><path id="m780496ae1a2" serif:id="m780496ae1a" d="M252.017,105.02l6.731,0" style="fill:#262626;fill-rule:nonzero;stroke:#262626;stroke-width:1.79px;"/><text id="text_13" x="271.312px" y="113.05px" style="font-family:'ArialMT', 'Arial', sans-serif;font-size:22.436px;fill:#262626;">4</text></g></g><path id="m37e5fb40e2" d="M217.086,137.078l-0.091,0l0,-0.474l0,-0.473l0,-0.474l0,-0.474l0,-0.474l0,-0.474l0,-0.473l0,-0.474l0,-0.474l0,-0.474l0,-0.473l0,-0.474l0,-0.474l0,-0.474l0,-0.473l0,-0.474l0,-0.474l0,-0.474l0,-0.474l0,-0.473l0,-0.474l0,-0.474l0,-0.474l0,-0.473l0,-0.474l0,-0.474l0,-0.474l0,-0.473l0,-0.474l0,-0.474l0,-0.474l0,-0.474l0,-0.473l0,-0.474l0,-0.474l0,-0.474l0,-0.473l0,-0.474l0,-0.474l0,-0.474l0,-0.473l0,-0.474l0,-0.474l0,-0.474l0,-0.474l0,-0.473l0,-0.474l0,-0.474l0,-0.474l0,-0.473l0,-0.474l0,-0.474l0,-0.474l0,-0.473l0,-0.474l0,-0.474l0,-0.474l0,-0.473l0,-0.474l0,-0.474l0,-0.474l0,-0.474l0,-0.473l0,-0.474l0,-0.474l0,-0.474l0,-0.473l0,-0.474l0,-0.474l0,-0.474l0,-0.473l0,-0.474l0,-0.474l0,-0.474l0,-0.474l0,-0.473l0,-0.474l0,-0.474l0,-0.474l0,-0.473l0,-0.474l0,-0.474l0,-0.474l0,-0.473l0,-0.474l0,-0.474l0,-0.474l0,-0.474l0,-0.473l0,-0.474l0,-0.474l0,-0.474l0,-0.473l0,-0.474l0,-0.474l0,-0.474l0,-0.473l0,-0.474l0,-0.474l0.039,0l0.006,0.474l0.005,0.474l0.004,0.473l0.005,0.474l0.007,0.474l0.012,0.474l0.019,0.473l0.029,0.474l0.042,0.474l0.056,0.474l0.068,0.473l0.079,0.474l0.085,0.474l0.092,0.474l0.102,0.474l0.119,0.473l0.141,0.474l0.166,0.474l0.193,0.474l0.216,0.473l0.235,0.474l0.249,0.474l0.261,0.474l0.278,0.473l0.303,0.474l0.336,0.474l0.375,0.474l0.412,0.474l0.441,0.473l0.468,0.474l0.495,0.474l0.528,0.474l0.555,0.473l0.572,0.474l0.573,0.474l0.563,0.474l0.553,0.473l0.559,0.474l0.584,0.474l0.631,0.474l0.678,0.474l0.705,0.473l0.689,0.474l0.629,0.474l0.544,0.474l0.46,0.473l0.395,0.474l0.343,0.474l0.301,0.474l0.261,0.473l0.217,0.474l0.159,0.474l0.076,0.474l-0.037,0.473l-0.163,0.474l-0.279,0.474l-0.36,0.474l-0.395,0.474l-0.385,0.473l-0.342,0.474l-0.291,0.474l-0.255,0.474l-0.255,0.473l-0.305,0.474l-0.399,0.474l-0.529,0.474l-0.673,0.473l-0.798,0.474l-0.883,0.474l-0.907,0.474l-0.878,0.474l-0.807,0.473l-0.717,0.474l-0.627,0.474l-0.544,0.474l-0.476,0.473l-0.419,0.474l-0.376,0.474l-0.35,0.474l-0.341,0.473l-0.34,0.474l-0.336,0.474l-0.315,0.474l-0.275,0.474l-0.227,0.473l-0.184,0.474l-0.153,0.474l-0.138,0.474l-0.134,0.473l-0.133,0.474l-0.134,0.474l-0.131,0.474l-0.125,0.473l-0.112,0.474l-0.094,0.474l-0.072,0.474l-0.054,0.474l-0.041,0.473l-0.033,0.474Z" style="fill-opacity:0.298039;fill-rule:nonzero;stroke:#000;stroke-opacity:0.298039;stroke-width:0.54px;"/><path id="LineCollection_1" d="M105.593,247.826l146.545,0" style="fill:none;stroke:#000;stroke-width:0.76px;"/><path id="LineCollection_2" d="M157.012,115.392l95.126,0" style="fill:none;stroke:#000;stroke-width:0.76px;"/><path id="m3f5c8df1c7" d="M216.994,121.001c1.487,0 2.914,-0.591 3.966,-1.643c1.052,-1.052 1.643,-2.479 1.643,-3.966c0,-1.488 -0.591,-2.915 -1.643,-3.967c-1.052,-1.051 -2.479,-1.642 -3.966,-1.642c-1.488,0 -2.915,0.591 -3.967,1.642c-1.051,1.052 -1.642,2.479 -1.642,3.967c0,1.487 0.591,2.914 1.642,3.966c1.052,1.052 2.479,1.643 3.967,1.643Z" style="fill-rule:nonzero;"/><path id="line2d_56" d="M216.994,128.765l0,-27.461" style="fill:none;stroke:#000;stroke-width:2.24px;stroke-linecap:round;"/><path id="patch_5" d="M252.017,247.826l0,-142.806" style="fill:none;stroke:#262626;stroke-width:1.4px;stroke-linecap:square;"/></g></g></svg>