<?xml version="1.0" encoding="UTF-8" standalone="no"?><!DOCTYPE svg PUBLIC "-//W3C//DTD SVG 1.1//EN" "http://www.w3.org/Graphics/SVG/1.1/DTD/svg11.dtd"><svg width="100%" height="100%" viewBox="0 0 300 500" version="1.1" xmlns="http://www.w3.org/2000/svg" xmlns:xlink="http://www.w3.org/1999/xlink" xml:space="preserve" xmlns:serif="http://www.serif.com/" style="fill-rule:evenodd;clip-rule:evenodd;"><g><g id="axes_1"><rect id="patch_2" x="75.486" y="-0.508" width="190.958" height="372.061" style="fill:none;"/><g id="matplotlib.axis_1"><g id="xtick_1"><path id="m450641a374" d="M110.206,371.552l0,6.845" style="fill:#262626;fill-rule:nonzero;stroke:#262626;stroke-width:1.83px;"/><g id="text_1" transform="matrix(0.707107,-0.707107,0.707107,0.707107,-346.246,155.167)"><text x="14.18px" y="495.539px" style="font-family:'ArialMT', 'Arial', sans-serif;font-size:22.815px;fill:#262626;">Control n=40</text></g></g><g id="xtick_2"><path id="m450641a3741" serif:id="m450641a374" d="M179.645,371.552l0,6.845" style="fill:#262626;fill-rule:nonzero;stroke:#262626;stroke-width:1.83px;"/><g id="text_2" transform="matrix(0.707107,-0.707107,0.707107,0.707107,-327.849,203.579)"><text x="81.818px" y="497.538px" style="font-family:'ArialMT', 'Arial', sans-serif;font-size:22.815px;fill:#262626;">Group <tspan x="150.306px 164.264px 170.603px " y="497.538px 497.538px 497.538px ">A n</tspan>=40</text></g></g></g><g id="matplotlib.axis_2"><g id="ytick_1"><path id="ma14b09d02c" d="M75.486,325.813l-6.844,0" style="fill:#262626;fill-rule:nonzero;stroke:#262626;stroke-width:1.83px;"/><text id="text_3" x="29.854px" y="333.978px" style="font-family:'ArialMT', 'Arial', sans-serif;font-size:22.815px;fill:#262626;">−2</text></g><g id="ytick_2"><path id="ma14b09d02c1" serif:id="ma14b09d02c" d="M75.486,253.206l-6.844,0" style="fill:#262626;fill-rule:nonzero;stroke:#262626;stroke-width:1.83px;"/><text id="text_4" x="43.177px" y="261.371px" style="font-family:'ArialMT', 'Arial', sans-serif;font-size:22.815px;fill:#262626;">0</text></g><g id="ytick_3"><path id="ma14b09d02c2" serif:id="ma14b09d02c" d="M75.486,180.598l-6.844,0" style="fill:#262626;fill-rule:nonzero;stroke:#262626;stroke-width:1.83px;"/><text id="text_5" x="43.177px" y="188.763px" style="font-family:'ArialMT', 'Arial', sans-serif;font-size:22.815px;fill:#262626;">2</text></g><g id="ytick_4"><path id="ma14b09d02c3" serif:id="ma14b09d02c" d="M75.486,107.991l-6.844,0" style="fill:#262626;fill-rule:nonzero;stroke:#262626;stroke-width:1.83px;"/><text id="text_6" x="43.177px" y="116.156px" style="font-family:'ArialMT', 'Arial', sans-serif;font-size:22.815px;fill:#262626;">4</text></g><g id="ytick_5"><path id="ma14b09d02c4" serif:id="ma14b09d02c" d="M75.486,35.383l-6.844,0" style="fill:#262626;fill-rule:nonzero;stroke:#262626;stroke-width:1.83px;"/><text id="text_7" x="43.177px" y="43.548px" style="font-family:'ArialMT', 'Arial', sans-serif;font-size:22.815px;fill:#262626;">6</text></g><g id="text_8" transform="matrix(-3.82857e-16,-1,1,-3.82857e-16,-165.219,205.824)"><text x="-9.695px" y="185.522px" style="font-family:'ArialMT', 'Arial', sans-serif;font-size:25.096px;fill:#262626;">value</text></g></g><path id="patch_3" d="M75.486,325.813l0,-290.43" style="fill:none;stroke:#262626;stroke-width:1.43px;stroke-linecap:square;"/><path id="patch_4" d="M110.206,371.552l69.439,0" style="fill:none;stroke:#262626;stroke-width:1.43px;stroke-linecap:square;"/><g id="PathCollection_3"><path id="C0_0_0030be1c3a" d="M110.206,328.427c0.907,0 1.778,-0.361 2.42,-1.002c0.641,-0.642 1.002,-1.513 1.002,-2.42c0,-0.908 -0.361,-1.778 -1.002,-2.42c-0.642,-0.642 -1.513,-1.002 -2.42,-1.002c-0.908,0 -1.778,0.36 -2.42,1.002c-0.642,0.642 -1.002,1.512 -1.002,2.42c0,0.907 0.36,1.778 1.002,2.42c0.642,0.641 1.512,1.002 2.42,1.002Z" style="fill:#55a868;fill-rule:nonzero;"/><path id="C0_0_0030be1c3a1" serif:id="C0_0_0030be1c3a" d="M110.206,319.919c0.907,0 1.778,-0.361 2.42,-1.002c0.641,-0.642 1.002,-1.513 1.002,-2.42c0,-0.908 -0.361,-1.778 -1.002,-2.42c-0.642,-0.642 -1.513,-1.002 -2.42,-1.002c-0.908,0 -1.778,0.36 -2.42,1.002c-0.642,0.642 -1.002,1.512 -1.002,2.42c0,0.907 0.36,1.778 1.002,2.42c0.642,0.641 1.512,1.002 2.42,1.002Z" style="fill:#55a868;fill-rule:nonzero;"/><path id="C0_0_0030be1c3a2" serif:id="C0_0_0030be1c3a" d="M110.206,312.732c0.907,0 1.778,-0.361 2.42,-1.003c0.641,-0.641 1.002,-1.512 1.002,-2.419c0,-0.908 -0.361,-1.779 -1.002,-2.42c-0.642,-0.642 -1.513,-1.003 -2.42,-1.003c-0.908,0 -1.778,0.361 -2.42,1.003c-0.642,0.641 -1.002,1.512 -1.002,2.42c0,0.907 0.36,1.778 1.002,2.419c0.642,0.642 1.512,1.003 2.42,1.003Z" style="fill:#4c72b0;fill-rule:nonzero;"/><path id="C0_0_0030be1c3a3" serif:id="C0_0_0030be1c3a" d="M110.206,297.891c0.907,0 1.778,-0.361 2.42,-1.002c0.641,-0.642 1.002,-1.513 1.002,-2.42c0,-0.908 -0.361,-1.778 -1.002,-2.42c-0.642,-0.642 -1.513,-1.003 -2.42,-1.003c-0.908,0 -1.778,0.361 -2.42,1.003c-0.642,0.642 -1.002,1.512 -1.002,2.42c0,0.907 0.36,1.778 1.002,2.42c0.642,0.641 1.512,1.002 2.42,1.002Z" style="fill:#4c72b0;fill-rule:nonzero;"/><path id="C0_0_0030be1c3a4" serif:id="C0_0_0030be1c3a" d="M105.222,295.829c0.908,0 1.778,-0.361 2.42,-1.002c0.642,-0.642 1.002,-1.513 1.002,-2.42c0,-0.908 -0.36,-1.778 -1.002,-2.42c-0.642,-0.642 -1.512,-1.002 -2.42,-1.002c-0.908,0 -1.778,0.36 -2.42,1.002c-0.642,0.642 -1.002,1.512 -1.002,2.42c0,0.907 0.36,1.778 1.002,2.42c0.642,0.641 1.512,1.002 2.42,1.002Z" style="fill:#4c72b0;fill-rule:nonzero;"/><path id="C0_0_0030be1c3a5" serif:id="C0_0_0030be1c3a" d="M112.374,291.663c0.908,0 1.779,-0.36 2.42,-1.002c0.642,-0.642 1.003,-1.512 1.003,-2.42c0,-0.907 -0.361,-1.778 -1.003,-2.42c-0.641,-0.641 -1.512,-1.002 -2.42,-1.002c-0.907,0 -1.778,0.361 -2.419,1.002c-0.642,0.642 -1.003,1.513 -1.003,2.42c0,0.908 0.361,1.778 1.003,2.42c0.641,0.642 1.512,1.002 2.419,1.002Z" style="fill:#4c72b0;fill-rule:nonzero;"/><path id="C0_0_0030be1c3a6" serif:id="C0_0_0030be1c3a" d="M110.206,283.201c0.907,0 1.778,-0.36 2.42,-1.002c0.641,-0.642 1.002,-1.512 1.002,-2.42c0,-0.908 -0.361,-1.778 -1.002,-2.42c-0.642,-0.642 -1.513,-1.002 -2.42,-1.002c-0.908,0 -1.778,0.36 -2.42,1.002c-0.642,0.642 -1.002,1.512 -1.002,2.42c0,0.908 0.36,1.778 1.002,2.42c0.642,0.642 1.512,1.002 2.42,1.002Z" style="fill:#55a868;fill-rule:nonzero;"/><path id="C0_0_0030be1c3a7" serif:id="C0_0_0030be1c3a" d="M104.99,282.77c0.907,0 1.778,-0.361 2.419,-1.003c0.642,-0.641 1.003,-1.512 1.003,-2.419c0,-0.908 -0.361,-1.779 -1.003,-2.42c-0.641,-0.642 -1.512,-1.003 -2.419,-1.003c-0.908,0 -1.779,0.361 -2.42,1.003c-0.642,0.641 -1.003,1.512 -1.003,2.42c0,0.907 0.361,1.778 1.003,2.419c0.641,0.642 1.512,1.003 2.42,1.003Z" style="fill:#4c72b0;fill-rule:nonzero;"/><path id="C0_0_0030be1c3a8" serif:id="C0_0_0030be1c3a" d="M108.912,276.57c0.907,0 1.778,-0.361 2.42,-1.002c0.641,-0.642 1.002,-1.513 1.002,-2.42c0,-0.908 -0.361,-1.778 -1.002,-2.42c-0.642,-0.642 -1.513,-1.002 -2.42,-1.002c-0.908,0 -1.778,0.36 -2.42,1.002c-0.642,0.642 -1.002,1.512 -1.002,2.42c0,0.907 0.36,1.778 1.002,2.42c0.642,0.641 1.512,1.002 2.42,1.002Z" style="fill:#55a868;fill-rule:nonzero;"/><path id="C0_0_0030be1c3a9" serif:id="C0_0_0030be1c3a" d="M113.729,273.914c0.907,0 1.778,-0.361 2.42,-1.003c0.641,-0.641 1.002,-1.512 1.002,-2.42c0,-0.907 -0.361,-1.778 -1.002,-2.419c-0.642,-0.642 -1.513,-1.003 -2.42,-1.003c-0.908,0 -1.778,0.361 -2.42,1.003c-0.642,0.641 -1.003,1.512 -1.003,2.419c0,0.908 0.361,1.779 1.003,2.42c0.642,0.642 1.512,1.003 2.42,1.003Z" style="fill:#55a868;fill-rule:nonzero;"/><path id="C0_0_0030be1c3a10" serif:id="C0_0_0030be1c3a" d="M110.206,268.885c0.907,0 1.778,-0.36 2.42,-1.002c0.641,-0.642 1.002,-1.512 1.002,-2.42c0,-0.908 -0.361,-1.778 -1.002,-2.42c-0.642,-0.642 -1.513,-1.002 -2.42,-1.002c-0.908,0 -1.778,0.36 -2.42,1.002c-0.642,0.642 -1.002,1.512 -1.002,2.42c0,0.908 0.36,1.778 1.002,2.42c0.642,0.642 1.512,1.002 2.42,1.002Z" style="fill:#55a868;fill-rule:nonzero;"/><path id="C0_0_0030be1c3a11" serif:id="C0_0_0030be1c3a" d="M115.098,266.475c0.907,0 1.778,-0.36 2.42,-1.002c0.641,-0.642 1.002,-1.512 1.002,-2.42c0,-0.908 -0.361,-1.778 -1.002,-2.42c-0.642,-0.642 -1.513,-1.002 -2.42,-1.002c-0.908,0 -1.778,0.36 -2.42,1.002c-0.642,0.642 -1.002,1.512 -1.002,2.42c0,0.908 0.36,1.778 1.002,2.42c0.642,0.642 1.512,1.002 2.42,1.002Z" style="fill:#55a868;fill-rule:nonzero;"/><path id="C0_0_0030be1c3a12" serif:id="C0_0_0030be1c3a" d="M105.356,266.333c0.908,0 1.778,-0.361 2.42,-1.003c0.642,-0.642 1.003,-1.512 1.003,-2.42c0,-0.907 -0.361,-1.778 -1.003,-2.42c-0.642,-0.641 -1.512,-1.002 -2.42,-1.002c-0.907,0 -1.778,0.361 -2.42,1.002c-0.641,0.642 -1.002,1.513 -1.002,2.42c0,0.908 0.361,1.778 1.002,2.42c0.642,0.642 1.513,1.003 2.42,1.003Z" style="fill:#55a868;fill-rule:nonzero;"/><path id="C0_0_0030be1c3a13" serif:id="C0_0_0030be1c3a" d="M119.585,262.967c0.908,0 1.778,-0.361 2.42,-1.003c0.642,-0.642 1.003,-1.512 1.003,-2.42c0,-0.907 -0.361,-1.778 -1.003,-2.419c-0.642,-0.642 -1.512,-1.003 -2.42,-1.003c-0.907,0 -1.778,0.361 -2.42,1.003c-0.641,0.641 -1.002,1.512 -1.002,2.419c0,0.908 0.361,1.778 1.002,2.42c0.642,0.642 1.513,1.003 2.42,1.003Z" style="fill:#4c72b0;fill-rule:nonzero;"/><path id="C0_0_0030be1c3a14" serif:id="C0_0_0030be1c3a" d="M110.206,256.932c0.907,0 1.778,-0.36 2.42,-1.002c0.641,-0.642 1.002,-1.512 1.002,-2.42c0,-0.907 -0.361,-1.778 -1.002,-2.42c-0.642,-0.642 -1.513,-1.002 -2.42,-1.002c-0.908,0 -1.778,0.36 -2.42,1.002c-0.642,0.642 -1.002,1.513 -1.002,2.42c0,0.908 0.36,1.778 1.002,2.42c0.642,0.642 1.512,1.002 2.42,1.002Z" style="fill:#4c72b0;fill-rule:nonzero;"/><path id="C0_0_0030be1c3a15" serif:id="C0_0_0030be1c3a" d="M115.421,256.472c0.907,0 1.778,-0.36 2.419,-1.002c0.642,-0.642 1.003,-1.512 1.003,-2.42c0,-0.908 -0.361,-1.778 -1.003,-2.42c-0.641,-0.642 -1.512,-1.002 -2.419,-1.002c-0.908,0 -1.778,0.36 -2.42,1.002c-0.642,0.642 -1.003,1.512 -1.003,2.42c0,0.908 0.361,1.778 1.003,2.42c0.642,0.642 1.512,1.002 2.42,1.002Z" style="fill:#4c72b0;fill-rule:nonzero;"/><path id="C0_0_0030be1c3a16" serif:id="C0_0_0030be1c3a" d="M105.913,253.028c0.907,0 1.778,-0.36 2.42,-1.002c0.641,-0.642 1.002,-1.512 1.002,-2.42c0,-0.907 -0.361,-1.778 -1.002,-2.42c-0.642,-0.641 -1.513,-1.002 -2.42,-1.002c-0.908,0 -1.778,0.361 -2.42,1.002c-0.642,0.642 -1.002,1.513 -1.002,2.42c0,0.908 0.36,1.778 1.002,2.42c0.642,0.642 1.512,1.002 2.42,1.002Z" style="fill:#55a868;fill-rule:nonzero;"/><path id="C0_0_0030be1c3a17" serif:id="C0_0_0030be1c3a" d="M100.693,252.687c0.907,0 1.778,-0.36 2.419,-1.002c0.642,-0.642 1.003,-1.512 1.003,-2.42c0,-0.908 -0.361,-1.778 -1.003,-2.42c-0.641,-0.642 -1.512,-1.002 -2.419,-1.002c-0.908,0 -1.778,0.36 -2.42,1.002c-0.642,0.642 -1.003,1.512 -1.003,2.42c0,0.908 0.361,1.778 1.003,2.42c0.642,0.642 1.512,1.002 2.42,1.002Z" style="fill:#4c72b0;fill-rule:nonzero;"/><path id="C0_0_0030be1c3a18" serif:id="C0_0_0030be1c3a" d="M119.247,251.81c0.908,0 1.778,-0.36 2.42,-1.002c0.642,-0.642 1.002,-1.513 1.002,-2.42c0,-0.908 -0.36,-1.778 -1.002,-2.42c-0.642,-0.642 -1.512,-1.002 -2.42,-1.002c-0.907,0 -1.778,0.36 -2.42,1.002c-0.641,0.642 -1.002,1.512 -1.002,2.42c0,0.907 0.361,1.778 1.002,2.42c0.642,0.642 1.513,1.002 2.42,1.002Z" style="fill:#55a868;fill-rule:nonzero;"/><path id="C0_0_0030be1c3a19" serif:id="C0_0_0030be1c3a" d="M124.473,251.722c0.908,0 1.779,-0.361 2.42,-1.002c0.642,-0.642 1.003,-1.513 1.003,-2.42c0,-0.908 -0.361,-1.778 -1.003,-2.42c-0.641,-0.642 -1.512,-1.002 -2.42,-1.002c-0.907,0 -1.778,0.36 -2.419,1.002c-0.642,0.642 -1.003,1.512 -1.003,2.42c0,0.907 0.361,1.778 1.003,2.42c0.641,0.641 1.512,1.002 2.419,1.002Z" style="fill:#4c72b0;fill-rule:nonzero;"/><path id="C0_0_0030be1c3a20" serif:id="C0_0_0030be1c3a" d="M110.206,249.548c0.907,0 1.778,-0.36 2.42,-1.002c0.641,-0.642 1.002,-1.512 1.002,-2.42c0,-0.908 -0.361,-1.778 -1.002,-2.42c-0.642,-0.642 -1.513,-1.002 -2.42,-1.002c-0.908,0 -1.778,0.36 -2.42,1.002c-0.642,0.642 -1.002,1.512 -1.002,2.42c0,0.908 0.36,1.778 1.002,2.42c0.642,0.642 1.512,1.002 2.42,1.002Z" style="fill:#55a868;fill-rule:nonzero;"/><path id="C0_0_0030be1c3a21" serif:id="C0_0_0030be1c3a" d="M96.663,248.328c0.908,0 1.778,-0.361 2.42,-1.003c0.642,-0.641 1.003,-1.512 1.003,-2.419c0,-0.908 -0.361,-1.779 -1.003,-2.42c-0.642,-0.642 -1.512,-1.003 -2.42,-1.003c-0.907,0 -1.778,0.361 -2.42,1.003c-0.641,0.641 -1.002,1.512 -1.002,2.42c0,0.907 0.361,1.778 1.002,2.419c0.642,0.642 1.513,1.003 2.42,1.003Z" style="fill:#4c72b0;fill-rule:nonzero;"/><path id="C0_0_0030be1c3a22" serif:id="C0_0_0030be1c3a" d="M115.053,246.989c0.908,0 1.778,-0.361 2.42,-1.002c0.642,-0.642 1.002,-1.513 1.002,-2.42c0,-0.908 -0.36,-1.778 -1.002,-2.42c-0.642,-0.642 -1.512,-1.003 -2.42,-1.003c-0.907,0 -1.778,0.361 -2.42,1.003c-0.641,0.642 -1.002,1.512 -1.002,2.42c0,0.907 0.361,1.778 1.002,2.42c0.642,0.641 1.513,1.002 2.42,1.002Z" style="fill:#4c72b0;fill-rule:nonzero;"/><path id="C0_0_0030be1c3a23" serif:id="C0_0_0030be1c3a" d="M103.564,246.969c0.908,0 1.779,-0.361 2.42,-1.003c0.642,-0.642 1.003,-1.512 1.003,-2.42c0,-0.907 -0.361,-1.778 -1.003,-2.419c-0.641,-0.642 -1.512,-1.003 -2.42,-1.003c-0.907,0 -1.778,0.361 -2.419,1.003c-0.642,0.641 -1.003,1.512 -1.003,2.419c0,0.908 0.361,1.778 1.003,2.42c0.641,0.642 1.512,1.003 2.419,1.003Z" style="fill:#55a868;fill-rule:nonzero;"/><path id="C0_0_0030be1c3a24" serif:id="C0_0_0030be1c3a" d="M110.206,242.099c0.907,0 1.778,-0.361 2.42,-1.003c0.641,-0.641 1.002,-1.512 1.002,-2.419c0,-0.908 -0.361,-1.779 -1.002,-2.42c-0.642,-0.642 -1.513,-1.003 -2.42,-1.003c-0.908,0 -1.778,0.361 -2.42,1.003c-0.642,0.641 -1.002,1.512 -1.002,2.42c0,0.907 0.36,1.778 1.002,2.419c0.642,0.642 1.512,1.003 2.42,1.003Z" style="fill:#55a868;fill-rule:nonzero;"/><path id="C0_0_0030be1c3a25" serif:id="C0_0_0030be1c3a" d="M117.451,240.907c0.908,0 1.778,-0.36 2.42,-1.002c0.642,-0.642 1.003,-1.512 1.003,-2.42c0,-0.907 -0.361,-1.778 -1.003,-2.42c-0.642,-0.641 -1.512,-1.002 -2.42,-1.002c-0.907,0 -1.778,0.361 -2.419,1.002c-0.642,0.642 -1.003,1.513 -1.003,2.42c0,0.908 0.361,1.778 1.003,2.42c0.641,0.642 1.512,1.002 2.419,1.002Z" style="fill:#4c72b0;fill-rule:nonzero;"/><path id="C0_0_0030be1c3a26" serif:id="C0_0_0030be1c3a" d="M105.2,240.468c0.907,0 1.778,-0.361 2.419,-1.003c0.642,-0.641 1.003,-1.512 1.003,-2.419c0,-0.908 -0.361,-1.779 -1.003,-2.42c-0.641,-0.642 -1.512,-1.003 -2.419,-1.003c-0.908,0 -1.779,0.361 -2.42,1.003c-0.642,0.641 -1.003,1.512 -1.003,2.42c0,0.907 0.361,1.778 1.003,2.419c0.641,0.642 1.512,1.003 2.42,1.003Z" style="fill:#4c72b0;fill-rule:nonzero;"/><path id="C0_0_0030be1c3a27" serif:id="C0_0_0030be1c3a" d="M110.206,234.366c0.907,0 1.778,-0.36 2.42,-1.002c0.641,-0.642 1.002,-1.512 1.002,-2.42c0,-0.907 -0.361,-1.778 -1.002,-2.42c-0.642,-0.642 -1.513,-1.002 -2.42,-1.002c-0.908,0 -1.778,0.36 -2.42,1.002c-0.642,0.642 -1.002,1.513 -1.002,2.42c0,0.908 0.36,1.778 1.002,2.42c0.642,0.642 1.512,1.002 2.42,1.002Z" style="fill:#55a868;fill-rule:nonzero;"/><path id="C0_0_0030be1c3a28" serif:id="C0_0_0030be1c3a" d="M115.428,234.071c0.907,0 1.778,-0.361 2.419,-1.002c0.642,-0.642 1.003,-1.513 1.003,-2.42c0,-0.908 -0.361,-1.778 -1.003,-2.42c-0.641,-0.642 -1.512,-1.002 -2.419,-1.002c-0.908,0 -1.779,0.36 -2.42,1.002c-0.642,0.642 -1.003,1.512 -1.003,2.42c0,0.907 0.361,1.778 1.003,2.42c0.641,0.641 1.512,1.002 2.42,1.002Z" style="fill:#4c72b0;fill-rule:nonzero;"/><path id="C0_0_0030be1c3a29" serif:id="C0_0_0030be1c3a" d="M105.812,230.661c0.907,0 1.778,-0.361 2.419,-1.003c0.642,-0.642 1.003,-1.512 1.003,-2.42c0,-0.907 -0.361,-1.778 -1.003,-2.419c-0.641,-0.642 -1.512,-1.003 -2.419,-1.003c-0.908,0 -1.779,0.361 -2.42,1.003c-0.642,0.641 -1.003,1.512 -1.003,2.419c0,0.908 0.361,1.778 1.003,2.42c0.641,0.642 1.512,1.003 2.42,1.003Z" style="fill:#4c72b0;fill-rule:nonzero;"/><path id="C0_0_0030be1c3a30" serif:id="C0_0_0030be1c3a" d="M110.206,219.298c0.907,0 1.778,-0.361 2.42,-1.003c0.641,-0.641 1.002,-1.512 1.002,-2.42c0,-0.907 -0.361,-1.778 -1.002,-2.419c-0.642,-0.642 -1.513,-1.003 -2.42,-1.003c-0.908,0 -1.778,0.361 -2.42,1.003c-0.642,0.641 -1.002,1.512 -1.002,2.419c0,0.908 0.36,1.779 1.002,2.42c0.642,0.642 1.512,1.003 2.42,1.003Z" style="fill:#4c72b0;fill-rule:nonzero;"/><path id="C0_0_0030be1c3a31" serif:id="C0_0_0030be1c3a" d="M105.698,215.834c0.908,0 1.778,-0.361 2.42,-1.003c0.642,-0.641 1.002,-1.512 1.002,-2.42c0,-0.907 -0.36,-1.778 -1.002,-2.419c-0.642,-0.642 -1.512,-1.003 -2.42,-1.003c-0.908,0 -1.778,0.361 -2.42,1.003c-0.642,0.641 -1.002,1.512 -1.002,2.419c0,0.908 0.36,1.779 1.002,2.42c0.642,0.642 1.512,1.003 2.42,1.003Z" style="fill:#55a868;fill-rule:nonzero;"/><path id="C0_0_0030be1c3a32" serif:id="C0_0_0030be1c3a" d="M112.166,212.953c0.908,0 1.779,-0.36 2.42,-1.002c0.642,-0.642 1.003,-1.513 1.003,-2.42c0,-0.908 -0.361,-1.778 -1.003,-2.42c-0.641,-0.642 -1.512,-1.002 -2.42,-1.002c-0.907,0 -1.778,0.36 -2.419,1.002c-0.642,0.642 -1.003,1.512 -1.003,2.42c0,0.907 0.361,1.778 1.003,2.42c0.641,0.642 1.512,1.002 2.419,1.002Z" style="fill:#4c72b0;fill-rule:nonzero;"/><path id="C0_0_0030be1c3a33" serif:id="C0_0_0030be1c3a" d="M117.179,211.013c0.907,0 1.778,-0.36 2.42,-1.002c0.641,-0.642 1.002,-1.512 1.002,-2.42c0,-0.908 -0.361,-1.778 -1.002,-2.42c-0.642,-0.642 -1.513,-1.002 -2.42,-1.002c-0.908,0 -1.778,0.36 -2.42,1.002c-0.642,0.642 -1.002,1.512 -1.002,2.42c0,0.908 0.36,1.778 1.002,2.42c0.642,0.642 1.512,1.002 2.42,1.002Z" style="fill:#55a868;fill-rule:nonzero;"/><path id="C0_0_0030be1c3a34" serif:id="C0_0_0030be1c3a" d="M107.834,209.125c0.907,0 1.778,-0.36 2.419,-1.002c0.642,-0.642 1.003,-1.512 1.003,-2.42c0,-0.907 -0.361,-1.778 -1.003,-2.42c-0.641,-0.641 -1.512,-1.002 -2.419,-1.002c-0.908,0 -1.779,0.361 -2.42,1.002c-0.642,0.642 -1.003,1.513 -1.003,2.42c0,0.908 0.361,1.778 1.003,2.42c0.641,0.642 1.512,1.002 2.42,1.002Z" style="fill:#55a868;fill-rule:nonzero;"/><path id="C0_0_0030be1c3a35" serif:id="C0_0_0030be1c3a" d="M102.646,208.286c0.908,0 1.778,-0.36 2.42,-1.002c0.642,-0.642 1.003,-1.512 1.003,-2.42c0,-0.907 -0.361,-1.778 -1.003,-2.42c-0.642,-0.642 -1.512,-1.002 -2.42,-1.002c-0.907,0 -1.778,0.36 -2.419,1.002c-0.642,0.642 -1.003,1.513 -1.003,2.42c0,0.908 0.361,1.778 1.003,2.42c0.641,0.642 1.512,1.002 2.419,1.002Z" style="fill:#4c72b0;fill-rule:nonzero;"/><path id="C0_0_0030be1c3a36" serif:id="C0_0_0030be1c3a" d="M112.433,205.875c0.908,0 1.778,-0.36 2.42,-1.002c0.642,-0.642 1.003,-1.512 1.003,-2.42c0,-0.907 -0.361,-1.778 -1.003,-2.42c-0.642,-0.641 -1.512,-1.002 -2.42,-1.002c-0.907,0 -1.778,0.361 -2.419,1.002c-0.642,0.642 -1.003,1.513 -1.003,2.42c0,0.908 0.361,1.778 1.003,2.42c0.641,0.642 1.512,1.002 2.419,1.002Z" style="fill:#55a868;fill-rule:nonzero;"/><path id="C0_0_0030be1c3a37" serif:id="C0_0_0030be1c3a" d="M105.965,202.734c0.907,0 1.778,-0.361 2.419,-1.003c0.642,-0.641 1.003,-1.512 1.003,-2.42c0,-0.907 -0.361,-1.778 -1.003,-2.419c-0.641,-0.642 -1.512,-1.003 -2.419,-1.003c-0.908,0 -1.779,0.361 -2.42,1.003c-0.642,0.641 -1.003,1.512 -1.003,2.419c0,0.908 0.361,1.779 1.003,2.42c0.641,0.642 1.512,1.003 2.42,1.003Z" style="fill:#4c72b0;fill-rule:nonzero;"/><path id="C0_0_0030be1c3a38" serif:id="C0_0_0030be1c3a" d="M110.206,195.905c0.907,0 1.778,-0.36 2.42,-1.002c0.641,-0.642 1.002,-1.512 1.002,-2.42c0,-0.907 -0.361,-1.778 -1.002,-2.42c-0.642,-0.641 -1.513,-1.002 -2.42,-1.002c-0.908,0 -1.778,0.361 -2.42,1.002c-0.642,0.642 -1.002,1.513 -1.002,2.42c0,0.908 0.36,1.778 1.002,2.42c0.642,0.642 1.512,1.002 2.42,1.002Z" style="fill:#55a868;fill-rule:nonzero;"/><path id="C0_0_0030be1c3a39" serif:id="C0_0_0030be1c3a" d="M110.206,170.045c0.907,0 1.778,-0.361 2.42,-1.003c0.641,-0.642 1.002,-1.512 1.002,-2.42c0,-0.907 -0.361,-1.778 -1.002,-2.419c-0.642,-0.642 -1.513,-1.003 -2.42,-1.003c-0.908,0 -1.778,0.361 -2.42,1.003c-0.642,0.641 -1.002,1.512 -1.002,2.419c0,0.908 0.36,1.778 1.002,2.42c0.642,0.642 1.512,1.003 2.42,1.003Z" style="fill:#55a868;fill-rule:nonzero;"/></g><g id="PathCollection_4"><path id="C1_0_9c2c63ec28" d="M179.645,191.454c0.908,0 1.778,-0.361 2.42,-1.002c0.642,-0.642 1.002,-1.513 1.002,-2.42c0,-0.908 -0.36,-1.778 -1.002,-2.42c-0.642,-0.642 -1.512,-1.002 -2.42,-1.002c-0.907,0 -1.778,0.36 -2.42,1.002c-0.641,0.642 -1.002,1.512 -1.002,2.42c0,0.907 0.361,1.778 1.002,2.42c0.642,0.641 1.513,1.002 2.42,1.002Z" style="fill:#4c72b0;fill-rule:nonzero;"/><path id="C1_0_9c2c63ec281" serif:id="C1_0_9c2c63ec28" d="M175.7,186.965c0.908,0 1.778,-0.361 2.42,-1.003c0.642,-0.641 1.002,-1.512 1.002,-2.419c0,-0.908 -0.36,-1.779 -1.002,-2.42c-0.642,-0.642 -1.512,-1.003 -2.42,-1.003c-0.908,0 -1.778,0.361 -2.42,1.003c-0.642,0.641 -1.002,1.512 -1.002,2.42c0,0.907 0.36,1.778 1.002,2.419c0.642,0.642 1.512,1.003 2.42,1.003Z" style="fill:#4c72b0;fill-rule:nonzero;"/><path id="C1_0_9c2c63ec282" serif:id="C1_0_9c2c63ec28" d="M180.218,183.523c0.907,0 1.778,-0.361 2.419,-1.002c0.642,-0.642 1.003,-1.513 1.003,-2.42c0,-0.908 -0.361,-1.778 -1.003,-2.42c-0.641,-0.642 -1.512,-1.003 -2.419,-1.003c-0.908,0 -1.778,0.361 -2.42,1.003c-0.642,0.642 -1.003,1.512 -1.003,2.42c0,0.907 0.361,1.778 1.003,2.42c0.642,0.641 1.512,1.002 2.42,1.002Z" style="fill:#55a868;fill-rule:nonzero;"/><path id="C1_0_9c2c63ec283" serif:id="C1_0_9c2c63ec28" d="M179.645,171.361c0.908,0 1.778,-0.361 2.42,-1.003c0.642,-0.641 1.002,-1.512 1.002,-2.419c0,-0.908 -0.36,-1.779 -1.002,-2.42c-0.642,-0.642 -1.512,-1.003 -2.42,-1.003c-0.907,0 -1.778,0.361 -2.42,1.003c-0.641,0.641 -1.002,1.512 -1.002,2.42c0,0.907 0.361,1.778 1.002,2.419c0.642,0.642 1.513,1.003 2.42,1.003Z" style="fill:#4c72b0;fill-rule:nonzero;"/><path id="C1_0_9c2c63ec284" serif:id="C1_0_9c2c63ec28" d="M177.233,165.289c0.907,0 1.778,-0.361 2.42,-1.002c0.641,-0.642 1.002,-1.513 1.002,-2.42c0,-0.908 -0.361,-1.778 -1.002,-2.42c-0.642,-0.642 -1.513,-1.002 -2.42,-1.002c-0.908,0 -1.778,0.36 -2.42,1.002c-0.642,0.642 -1.002,1.512 -1.002,2.42c0,0.907 0.36,1.778 1.002,2.42c0.642,0.641 1.512,1.002 2.42,1.002Z" style="fill:#55a868;fill-rule:nonzero;"/><path id="C1_0_9c2c63ec285" serif:id="C1_0_9c2c63ec28" d="M179.645,158.22c0.908,0 1.778,-0.36 2.42,-1.002c0.642,-0.642 1.002,-1.512 1.002,-2.42c0,-0.907 -0.36,-1.778 -1.002,-2.42c-0.642,-0.641 -1.512,-1.002 -2.42,-1.002c-0.907,0 -1.778,0.361 -2.42,1.002c-0.641,0.642 -1.002,1.513 -1.002,2.42c0,0.908 0.361,1.778 1.002,2.42c0.642,0.642 1.513,1.002 2.42,1.002Z" style="fill:#55a868;fill-rule:nonzero;"/><path id="C1_0_9c2c63ec286" serif:id="C1_0_9c2c63ec28" d="M175.327,154.365c0.907,0 1.778,-0.361 2.42,-1.003c0.641,-0.641 1.002,-1.512 1.002,-2.419c0,-0.908 -0.361,-1.779 -1.002,-2.42c-0.642,-0.642 -1.513,-1.003 -2.42,-1.003c-0.908,0 -1.778,0.361 -2.42,1.003c-0.642,0.641 -1.002,1.512 -1.002,2.42c0,0.907 0.36,1.778 1.002,2.419c0.642,0.642 1.512,1.003 2.42,1.003Z" style="fill:#4c72b0;fill-rule:nonzero;"/><path id="C1_0_9c2c63ec287" serif:id="C1_0_9c2c63ec28" d="M179.645,150.617c0.908,0 1.778,-0.361 2.42,-1.003c0.642,-0.641 1.002,-1.512 1.002,-2.42c0,-0.907 -0.36,-1.778 -1.002,-2.419c-0.642,-0.642 -1.512,-1.003 -2.42,-1.003c-0.907,0 -1.778,0.361 -2.42,1.003c-0.641,0.641 -1.002,1.512 -1.002,2.419c0,0.908 0.361,1.779 1.002,2.42c0.642,0.642 1.513,1.003 2.42,1.003Z" style="fill:#55a868;fill-rule:nonzero;"/><path id="C1_0_9c2c63ec288" serif:id="C1_0_9c2c63ec28" d="M184.476,148.003c0.907,0 1.778,-0.361 2.42,-1.002c0.641,-0.642 1.002,-1.513 1.002,-2.42c0,-0.908 -0.361,-1.778 -1.002,-2.42c-0.642,-0.642 -1.513,-1.002 -2.42,-1.002c-0.908,0 -1.778,0.36 -2.42,1.002c-0.642,0.642 -1.002,1.512 -1.002,2.42c0,0.907 0.36,1.778 1.002,2.42c0.642,0.641 1.512,1.002 2.42,1.002Z" style="fill:#55a868;fill-rule:nonzero;"/><path id="C1_0_9c2c63ec289" serif:id="C1_0_9c2c63ec28" d="M179.645,133.967c0.908,0 1.778,-0.361 2.42,-1.003c0.642,-0.641 1.002,-1.512 1.002,-2.419c0,-0.908 -0.36,-1.778 -1.002,-2.42c-0.642,-0.642 -1.512,-1.003 -2.42,-1.003c-0.907,0 -1.778,0.361 -2.42,1.003c-0.641,0.642 -1.002,1.512 -1.002,2.42c0,0.907 0.361,1.778 1.002,2.419c0.642,0.642 1.513,1.003 2.42,1.003Z" style="fill:#55a868;fill-rule:nonzero;"/><path id="C1_0_9c2c63ec2810" serif:id="C1_0_9c2c63ec28" d="M174.422,133.704c0.908,0 1.779,-0.36 2.42,-1.002c0.642,-0.642 1.003,-1.512 1.003,-2.42c0,-0.908 -0.361,-1.778 -1.003,-2.42c-0.641,-0.642 -1.512,-1.002 -2.42,-1.002c-0.907,0 -1.778,0.36 -2.419,1.002c-0.642,0.642 -1.003,1.512 -1.003,2.42c0,0.908 0.361,1.778 1.003,2.42c0.641,0.642 1.512,1.002 2.419,1.002Z" style="fill:#4c72b0;fill-rule:nonzero;"/><path id="C1_0_9c2c63ec2811" serif:id="C1_0_9c2c63ec28" d="M184.851,133.35c0.907,0 1.778,-0.361 2.419,-1.002c0.642,-0.642 1.003,-1.513 1.003,-2.42c0,-0.908 -0.361,-1.778 -1.003,-2.42c-0.641,-0.642 -1.512,-1.003 -2.419,-1.003c-0.908,0 -1.779,0.361 -2.42,1.003c-0.642,0.642 -1.003,1.512 -1.003,2.42c0,0.907 0.361,1.778 1.003,2.42c0.641,0.641 1.512,1.002 2.42,1.002Z" style="fill:#55a868;fill-rule:nonzero;"/><path id="C1_0_9c2c63ec2812" serif:id="C1_0_9c2c63ec28" d="M169.502,131.395c0.908,0 1.778,-0.361 2.42,-1.003c0.642,-0.641 1.003,-1.512 1.003,-2.42c0,-0.907 -0.361,-1.778 -1.003,-2.419c-0.642,-0.642 -1.512,-1.003 -2.42,-1.003c-0.907,0 -1.778,0.361 -2.419,1.003c-0.642,0.641 -1.003,1.512 -1.003,2.419c0,0.908 0.361,1.779 1.003,2.42c0.641,0.642 1.512,1.003 2.419,1.003Z" style="fill:#55a868;fill-rule:nonzero;"/><path id="C1_0_9c2c63ec2813" serif:id="C1_0_9c2c63ec28" d="M189.484,130.182c0.907,0 1.778,-0.36 2.42,-1.002c0.641,-0.642 1.002,-1.512 1.002,-2.42c0,-0.907 -0.361,-1.778 -1.002,-2.42c-0.642,-0.641 -1.513,-1.002 -2.42,-1.002c-0.908,0 -1.778,0.361 -2.42,1.002c-0.642,0.642 -1.002,1.513 -1.002,2.42c0,0.908 0.36,1.778 1.002,2.42c0.642,0.642 1.512,1.002 2.42,1.002Z" style="fill:#55a868;fill-rule:nonzero;"/><path id="C1_0_9c2c63ec2814" serif:id="C1_0_9c2c63ec28" d="M179.645,124.402c0.908,0 1.778,-0.361 2.42,-1.003c0.642,-0.641 1.002,-1.512 1.002,-2.419c0,-0.908 -0.36,-1.779 -1.002,-2.42c-0.642,-0.642 -1.512,-1.003 -2.42,-1.003c-0.907,0 -1.778,0.361 -2.42,1.003c-0.641,0.641 -1.002,1.512 -1.002,2.42c0,0.907 0.361,1.778 1.002,2.419c0.642,0.642 1.513,1.003 2.42,1.003Z" style="fill:#55a868;fill-rule:nonzero;"/><path id="C1_0_9c2c63ec2815" serif:id="C1_0_9c2c63ec28" d="M175.156,120.897c0.908,0 1.778,-0.361 2.42,-1.003c0.642,-0.641 1.002,-1.512 1.002,-2.419c0,-0.908 -0.36,-1.779 -1.002,-2.42c-0.642,-0.642 -1.512,-1.003 -2.42,-1.003c-0.908,0 -1.778,0.361 -2.42,1.003c-0.642,0.641 -1.002,1.512 -1.002,2.42c0,0.907 0.36,1.778 1.002,2.419c0.642,0.642 1.512,1.003 2.42,1.003Z" style="fill:#4c72b0;fill-rule:nonzero;"/><path id="C1_0_9c2c63ec2816" serif:id="C1_0_9c2c63ec28" d="M183.463,119.728c0.908,0 1.778,-0.361 2.42,-1.003c0.642,-0.641 1.003,-1.512 1.003,-2.419c0,-0.908 -0.361,-1.779 -1.003,-2.42c-0.642,-0.642 -1.512,-1.003 -2.42,-1.003c-0.907,0 -1.778,0.361 -2.419,1.003c-0.642,0.641 -1.003,1.512 -1.003,2.42c0,0.907 0.361,1.778 1.003,2.419c0.641,0.642 1.512,1.003 2.419,1.003Z" style="fill:#55a868;fill-rule:nonzero;"/><path id="C1_0_9c2c63ec2817" serif:id="C1_0_9c2c63ec28" d="M188.647,118.852c0.908,0 1.778,-0.36 2.42,-1.002c0.642,-0.642 1.002,-1.513 1.002,-2.42c0,-0.908 -0.36,-1.778 -1.002,-2.42c-0.642,-0.642 -1.512,-1.002 -2.42,-1.002c-0.908,0 -1.778,0.36 -2.42,1.002c-0.642,0.642 -1.002,1.512 -1.002,2.42c0,0.907 0.36,1.778 1.002,2.42c0.642,0.642 1.512,1.002 2.42,1.002Z" style="fill:#4c72b0;fill-rule:nonzero;"/><path id="C1_0_9c2c63ec2818" serif:id="C1_0_9c2c63ec28" d="M170.228,118.614c0.908,0 1.779,-0.36 2.42,-1.002c0.642,-0.642 1.003,-1.512 1.003,-2.42c0,-0.907 -0.361,-1.778 -1.003,-2.42c-0.641,-0.641 -1.512,-1.002 -2.42,-1.002c-0.907,0 -1.778,0.361 -2.419,1.002c-0.642,0.642 -1.003,1.513 -1.003,2.42c0,0.908 0.361,1.778 1.003,2.42c0.641,0.642 1.512,1.002 2.419,1.002Z" style="fill:#4c72b0;fill-rule:nonzero;"/><path id="C1_0_9c2c63ec2819" serif:id="C1_0_9c2c63ec28" d="M193.751,117.381c0.908,0 1.779,-0.361 2.42,-1.003c0.642,-0.641 1.003,-1.512 1.003,-2.42c0,-0.907 -0.361,-1.778 -1.003,-2.419c-0.641,-0.642 -1.512,-1.003 -2.42,-1.003c-0.907,0 -1.778,0.361 -2.419,1.003c-0.642,0.641 -1.003,1.512 -1.003,2.419c0,0.908 0.361,1.779 1.003,2.42c0.641,0.642 1.512,1.003 2.419,1.003Z" style="fill:#55a868;fill-rule:nonzero;"/><path id="C1_0_9c2c63ec2820" serif:id="C1_0_9c2c63ec28" d="M179.645,114.301c0.908,0 1.778,-0.36 2.42,-1.002c0.642,-0.642 1.002,-1.512 1.002,-2.42c0,-0.907 -0.36,-1.778 -1.002,-2.42c-0.642,-0.641 -1.512,-1.002 -2.42,-1.002c-0.907,0 -1.778,0.361 -2.42,1.002c-0.641,0.642 -1.002,1.513 -1.002,2.42c0,0.908 0.361,1.778 1.002,2.42c0.642,0.642 1.513,1.002 2.42,1.002Z" style="fill:#4c72b0;fill-rule:nonzero;"/><path id="C1_0_9c2c63ec2821" serif:id="C1_0_9c2c63ec28" d="M184.44,111.578c0.908,0 1.778,-0.36 2.42,-1.002c0.642,-0.642 1.003,-1.512 1.003,-2.42c0,-0.908 -0.361,-1.778 -1.003,-2.42c-0.642,-0.642 -1.512,-1.002 -2.42,-1.002c-0.907,0 -1.778,0.36 -2.42,1.002c-0.641,0.642 -1.002,1.512 -1.002,2.42c0,0.908 0.361,1.778 1.002,2.42c0.642,0.642 1.513,1.002 2.42,1.002Z" style="fill:#55a868;fill-rule:nonzero;"/><path id="C1_0_9c2c63ec2822" serif:id="C1_0_9c2c63ec28" d="M175.142,110.827c0.908,0 1.778,-0.36 2.42,-1.002c0.642,-0.642 1.002,-1.512 1.002,-2.42c0,-0.907 -0.36,-1.778 -1.002,-2.42c-0.642,-0.642 -1.512,-1.002 -2.42,-1.002c-0.908,0 -1.778,0.36 -2.42,1.002c-0.642,0.642 -1.002,1.513 -1.002,2.42c0,0.908 0.36,1.778 1.002,2.42c0.642,0.642 1.512,1.002 2.42,1.002Z" style="fill:#4c72b0;fill-rule:nonzero;"/><path id="C1_0_9c2c63ec2823" serif:id="C1_0_9c2c63ec28" d="M169.92,110.53c0.908,0 1.778,-0.361 2.42,-1.003c0.642,-0.641 1.003,-1.512 1.003,-2.419c0,-0.908 -0.361,-1.778 -1.003,-2.42c-0.642,-0.642 -1.512,-1.003 -2.42,-1.003c-0.907,0 -1.778,0.361 -2.42,1.003c-0.641,0.642 -1.002,1.512 -1.002,2.42c0,0.907 0.361,1.778 1.002,2.419c0.642,0.642 1.513,1.003 2.42,1.003Z" style="fill:#55a868;fill-rule:nonzero;"/><path id="C1_0_9c2c63ec2824" serif:id="C1_0_9c2c63ec28" d="M189.008,108.251c0.907,0 1.778,-0.361 2.419,-1.003c0.642,-0.642 1.003,-1.512 1.003,-2.42c0,-0.907 -0.361,-1.778 -1.003,-2.419c-0.641,-0.642 -1.512,-1.003 -2.419,-1.003c-0.908,0 -1.778,0.361 -2.42,1.003c-0.642,0.641 -1.003,1.512 -1.003,2.419c0,0.908 0.361,1.778 1.003,2.42c0.642,0.642 1.512,1.003 2.42,1.003Z" style="fill:#4c72b0;fill-rule:nonzero;"/><path id="C1_0_9c2c63ec2825" serif:id="C1_0_9c2c63ec28" d="M179.645,105.635c0.908,0 1.778,-0.36 2.42,-1.002c0.642,-0.642 1.002,-1.512 1.002,-2.42c0,-0.908 -0.36,-1.778 -1.002,-2.42c-0.642,-0.642 -1.512,-1.002 -2.42,-1.002c-0.907,0 -1.778,0.36 -2.42,1.002c-0.641,0.642 -1.002,1.512 -1.002,2.42c0,0.908 0.361,1.778 1.002,2.42c0.642,0.642 1.513,1.002 2.42,1.002Z" style="fill:#4c72b0;fill-rule:nonzero;"/><path id="C1_0_9c2c63ec2826" serif:id="C1_0_9c2c63ec28" d="M184.653,104.465c0.908,0 1.778,-0.36 2.42,-1.002c0.642,-0.642 1.002,-1.512 1.002,-2.42c0,-0.908 -0.36,-1.778 -1.002,-2.42c-0.642,-0.642 -1.512,-1.002 -2.42,-1.002c-0.907,0 -1.778,0.36 -2.42,1.002c-0.641,0.642 -1.002,1.512 -1.002,2.42c0,0.908 0.361,1.778 1.002,2.42c0.642,0.642 1.513,1.002 2.42,1.002Z" style="fill:#4c72b0;fill-rule:nonzero;"/><path id="C1_0_9c2c63ec2827" serif:id="C1_0_9c2c63ec28" d="M174.827,102.982c0.908,0 1.778,-0.36 2.42,-1.002c0.642,-0.642 1.002,-1.512 1.002,-2.42c0,-0.907 -0.36,-1.778 -1.002,-2.42c-0.642,-0.641 -1.512,-1.002 -2.42,-1.002c-0.907,0 -1.778,0.361 -2.42,1.002c-0.641,0.642 -1.002,1.513 -1.002,2.42c0,0.908 0.361,1.778 1.002,2.42c0.642,0.642 1.513,1.002 2.42,1.002Z" style="fill:#4c72b0;fill-rule:nonzero;"/><path id="C1_0_9c2c63ec2828" serif:id="C1_0_9c2c63ec28" d="M179.645,86.642c0.908,0 1.778,-0.361 2.42,-1.003c0.642,-0.641 1.002,-1.512 1.002,-2.42c0,-0.907 -0.36,-1.778 -1.002,-2.419c-0.642,-0.642 -1.512,-1.003 -2.42,-1.003c-0.907,0 -1.778,0.361 -2.42,1.003c-0.641,0.641 -1.002,1.512 -1.002,2.419c0,0.908 0.361,1.779 1.002,2.42c0.642,0.642 1.513,1.003 2.42,1.003Z" style="fill:#4c72b0;fill-rule:nonzero;"/><path id="C1_0_9c2c63ec2829" serif:id="C1_0_9c2c63ec28" d="M174.462,85.765c0.907,0 1.778,-0.361 2.42,-1.002c0.641,-0.642 1.002,-1.513 1.002,-2.42c0,-0.908 -0.361,-1.778 -1.002,-2.42c-0.642,-0.642 -1.513,-1.002 -2.42,-1.002c-0.908,0 -1.778,0.36 -2.42,1.002c-0.642,0.642 -1.003,1.512 -1.003,2.42c0,0.907 0.361,1.778 1.003,2.42c0.642,0.641 1.512,1.002 2.42,1.002Z" style="fill:#4c72b0;fill-rule:nonzero;"/><path id="C1_0_9c2c63ec2830" serif:id="C1_0_9c2c63ec28" d="M177.655,80.347c0.908,0 1.778,-0.361 2.42,-1.003c0.642,-0.642 1.002,-1.512 1.002,-2.42c0,-0.907 -0.36,-1.778 -1.002,-2.419c-0.642,-0.642 -1.512,-1.003 -2.42,-1.003c-0.908,0 -1.778,0.361 -2.42,1.003c-0.642,0.641 -1.002,1.512 -1.002,2.419c0,0.908 0.36,1.778 1.002,2.42c0.642,0.642 1.512,1.003 2.42,1.003Z" style="fill:#4c72b0;fill-rule:nonzero;"/><path id="C1_0_9c2c63ec2831" serif:id="C1_0_9c2c63ec28" d="M182.784,79.027c0.907,0 1.778,-0.36 2.419,-1.002c0.642,-0.642 1.003,-1.512 1.003,-2.42c0,-0.908 -0.361,-1.778 -1.003,-2.42c-0.641,-0.642 -1.512,-1.002 -2.419,-1.002c-0.908,0 -1.779,0.36 -2.42,1.002c-0.642,0.642 -1.003,1.512 -1.003,2.42c0,0.908 0.361,1.778 1.003,2.42c0.641,0.642 1.512,1.002 2.42,1.002Z" style="fill:#4c72b0;fill-rule:nonzero;"/><path id="C1_0_9c2c63ec2832" serif:id="C1_0_9c2c63ec28" d="M172.74,78.02c0.907,0 1.778,-0.361 2.42,-1.003c0.641,-0.642 1.002,-1.512 1.002,-2.42c0,-0.907 -0.361,-1.778 -1.002,-2.419c-0.642,-0.642 -1.513,-1.003 -2.42,-1.003c-0.908,0 -1.778,0.361 -2.42,1.003c-0.642,0.641 -1.003,1.512 -1.003,2.419c0,0.908 0.361,1.778 1.003,2.42c0.642,0.642 1.512,1.003 2.42,1.003Z" style="fill:#55a868;fill-rule:nonzero;"/><path id="C1_0_9c2c63ec2833" serif:id="C1_0_9c2c63ec28" d="M187.655,76.547c0.908,0 1.778,-0.36 2.42,-1.002c0.642,-0.642 1.002,-1.512 1.002,-2.42c0,-0.907 -0.36,-1.778 -1.002,-2.42c-0.642,-0.641 -1.512,-1.002 -2.42,-1.002c-0.908,0 -1.778,0.361 -2.42,1.002c-0.642,0.642 -1.002,1.513 -1.002,2.42c0,0.908 0.36,1.778 1.002,2.42c0.642,0.642 1.512,1.002 2.42,1.002Z" style="fill:#55a868;fill-rule:nonzero;"/><path id="C1_0_9c2c63ec2834" serif:id="C1_0_9c2c63ec28" d="M168.093,74.886c0.908,0 1.778,-0.36 2.42,-1.002c0.642,-0.642 1.002,-1.513 1.002,-2.42c0,-0.908 -0.36,-1.778 -1.002,-2.42c-0.642,-0.642 -1.512,-1.002 -2.42,-1.002c-0.908,0 -1.778,0.36 -2.42,1.002c-0.642,0.642 -1.002,1.512 -1.002,2.42c0,0.907 0.36,1.778 1.002,2.42c0.642,0.642 1.512,1.002 2.42,1.002Z" style="fill:#55a868;fill-rule:nonzero;"/><path id="C1_0_9c2c63ec2835" serif:id="C1_0_9c2c63ec28" d="M179.645,71.108c0.908,0 1.778,-0.36 2.42,-1.002c0.642,-0.642 1.002,-1.512 1.002,-2.42c0,-0.907 -0.36,-1.778 -1.002,-2.42c-0.642,-0.641 -1.512,-1.002 -2.42,-1.002c-0.907,0 -1.778,0.361 -2.42,1.002c-0.641,0.642 -1.002,1.513 -1.002,2.42c0,0.908 0.361,1.778 1.002,2.42c0.642,0.642 1.513,1.002 2.42,1.002Z" style="fill:#55a868;fill-rule:nonzero;"/><path id="C1_0_9c2c63ec2836" serif:id="C1_0_9c2c63ec28" d="M184.341,68.103c0.908,0 1.778,-0.361 2.42,-1.002c0.642,-0.642 1.002,-1.513 1.002,-2.42c0,-0.908 -0.36,-1.778 -1.002,-2.42c-0.642,-0.642 -1.512,-1.002 -2.42,-1.002c-0.908,0 -1.778,0.36 -2.42,1.002c-0.642,0.642 -1.002,1.512 -1.002,2.42c0,0.907 0.36,1.778 1.002,2.42c0.642,0.641 1.512,1.002 2.42,1.002Z" style="fill:#4c72b0;fill-rule:nonzero;"/><path id="C1_0_9c2c63ec2837" serif:id="C1_0_9c2c63ec28" d="M179.645,59.774c0.908,0 1.778,-0.361 2.42,-1.002c0.642,-0.642 1.002,-1.513 1.002,-2.42c0,-0.908 -0.36,-1.778 -1.002,-2.42c-0.642,-0.642 -1.512,-1.002 -2.42,-1.002c-0.907,0 -1.778,0.36 -2.42,1.002c-0.641,0.642 -1.002,1.512 -1.002,2.42c0,0.907 0.361,1.778 1.002,2.42c0.642,0.641 1.513,1.002 2.42,1.002Z" style="fill:#55a868;fill-rule:nonzero;"/><path id="C1_0_9c2c63ec2838" serif:id="C1_0_9c2c63ec28" d="M174.519,58.439c0.908,0 1.778,-0.361 2.42,-1.003c0.642,-0.642 1.002,-1.512 1.002,-2.42c0,-0.907 -0.36,-1.778 -1.002,-2.42c-0.642,-0.641 -1.512,-1.002 -2.42,-1.002c-0.908,0 -1.778,0.361 -2.42,1.002c-0.642,0.642 -1.002,1.513 -1.002,2.42c0,0.908 0.36,1.778 1.002,2.42c0.642,0.642 1.512,1.003 2.42,1.003Z" style="fill:#55a868;fill-rule:nonzero;"/><path id="C1_0_9c2c63ec2839" serif:id="C1_0_9c2c63ec28" d="M179.645,49.461c0.908,0 1.778,-0.36 2.42,-1.002c0.642,-0.642 1.002,-1.512 1.002,-2.42c0,-0.907 -0.36,-1.778 -1.002,-2.42c-0.642,-0.641 -1.512,-1.002 -2.42,-1.002c-0.907,0 -1.778,0.361 -2.42,1.002c-0.641,0.642 -1.002,1.513 -1.002,2.42c0,0.908 0.361,1.778 1.002,2.42c0.642,0.642 1.513,1.002 2.42,1.002Z" style="fill:#4c72b0;fill-rule:nonzero;"/></g></g><g id="axes_2"><g id="matplotlib.axis_3"><g id="ytick_6"><path id="m1f441a202a" d="M266.444,246.97l6.845,0" style="fill:#262626;fill-rule:nonzero;stroke:#262626;stroke-width:1.83px;"/><text id="text_11" x="286.065px" y="255.135px" style="font-family:'ArialMT', 'Arial', sans-serif;font-size:22.815px;fill:#262626;">0</text></g><g id="ytick_7"><path id="m1f441a202a1" serif:id="m1f441a202a" d="M266.444,174.363l6.845,0" style="fill:#262626;fill-rule:nonzero;stroke:#262626;stroke-width:1.83px;"/><text id="text_12" x="286.065px" y="182.528px" style="font-family:'ArialMT', 'Arial', sans-serif;font-size:22.815px;fill:#262626;">2</text></g><g id="ytick_8"><path id="m1f441a202a2" serif:id="m1f441a202a" d="M266.444,101.755l6.845,0" style="fill:#262626;fill-rule:nonzero;stroke:#262626;stroke-width:1.83px;"/><text id="text_13" x="286.065px" y="109.92px" style="font-family:'ArialMT', 'Arial', sans-serif;font-size:22.815px;fill:#262626;">4</text></g></g><path id="m3e556b128b" d="M231.814,139.219l-0.088,0l0,-0.538l0,-0.538l0,-0.538l0,-0.538l0,-0.538l0,-0.538l0,-0.539l0,-0.538l0,-0.538l0,-0.538l0,-0.538l0,-0.538l0,-0.538l0,-0.538l0,-0.538l0,-0.538l0,-0.538l0,-0.538l0,-0.538l0,-0.539l0,-0.538l0,-0.538l0,-0.538l0,-0.538l0,-0.538l0,-0.538l0,-0.538l0,-0.538l0,-0.538l0,-0.538l0,-0.538l0,-0.538l0,-0.539l0,-0.538l0,-0.538l0,-0.538l0,-0.538l0,-0.538l0,-0.538l0,-0.538l0,-0.538l0,-0.538l0,-0.538l0,-0.538l0,-0.538l0,-0.538l0,-0.539l0,-0.538l0,-0.538l0,-0.538l0,-0.538l0,-0.538l0,-0.538l0,-0.538l0,-0.538l0,-0.538l0,-0.538l0,-0.538l0,-0.538l0,-0.539l0,-0.538l0,-0.538l0,-0.538l0,-0.538l0,-0.538l0,-0.538l0,-0.538l0,-0.538l0,-0.538l0,-0.538l0,-0.538l0,-0.538l0,-0.538l0,-0.539l0,-0.538l0,-0.538l0,-0.538l0,-0.538l0,-0.538l0,-0.538l0,-0.538l0,-0.538l0,-0.538l0,-0.538l0,-0.538l0,-0.538l0,-0.539l0,-0.538l0,-0.538l0,-0.538l0,-0.538l0,-0.538l0,-0.538l0,-0.538l0,-0.538l0,-0.538l0,-0.538l0,-0.538l0,-0.538l0.104,0l0.029,0.538l0.026,0.538l0.023,0.538l0.024,0.538l0.03,0.538l0.045,0.538l0.07,0.538l0.103,0.538l0.136,0.538l0.162,0.538l0.168,0.538l0.154,0.538l0.126,0.539l0.101,0.538l0.096,0.538l0.117,0.538l0.159,0.538l0.21,0.538l0.26,0.538l0.308,0.538l0.355,0.538l0.404,0.538l0.454,0.538l0.495,0.538l0.522,0.538l0.54,0.539l0.559,0.538l0.591,0.538l0.632,0.538l0.674,0.538l0.703,0.538l0.72,0.538l0.736,0.538l0.763,0.538l0.799,0.538l0.825,0.538l0.812,0.538l0.753,0.538l0.663,0.538l0.577,0.539l0.515,0.538l0.48,0.538l0.449,0.538l0.394,0.538l0.296,0.538l0.166,0.538l0.031,0.538l-0.077,0.538l-0.14,0.538l-0.166,0.538l-0.177,0.538l-0.195,0.538l-0.236,0.539l-0.3,0.538l-0.383,0.538l-0.475,0.538l-0.567,0.538l-0.644,0.538l-0.699,0.538l-0.72,0.538l-0.699,0.538l-0.647,0.538l-0.586,0.538l-0.545,0.538l-0.54,0.538l-0.565,0.538l-0.596,0.539l-0.609,0.538l-0.595,0.538l-0.562,0.538l-0.532,0.538l-0.519,0.538l-0.521,0.538l-0.525,0.538l-0.513,0.538l-0.478,0.538l-0.426,0.538l-0.373,0.538l-0.329,0.538l-0.303,0.539l-0.287,0.538l-0.274,0.538l-0.256,0.538l-0.228,0.538l-0.194,0.538l-0.156,0.538l-0.118,0.538l-0.085,0.538l-0.061,0.538l-0.048,0.538l-0.043,0.538l-0.044,0.538l-0.046,0.539l-0.046,0.538l-0.042,0.538l-0.034,0.538l-0.026,0.538l-0.021,0.538l-0.02,0.538Z" style="fill-opacity:0.298039;fill-rule:nonzero;stroke:#000;stroke-opacity:0.298039;stroke-width:0.55px;"/><path id="LineCollection_1" d="M110.206,246.97l156.238,0" style="fill:none;stroke:#000;stroke-width:0.86px;"/><path id="LineCollection_2" d="M179.645,112.302l86.799,0" style="fill:none;stroke:#000;stroke-width:0.86px;"/><path id="m81cf79c97c" d="M231.725,118.005c1.512,0 2.963,-0.601 4.033,-1.67c1.069,-1.07 1.67,-2.521 1.67,-4.033c0,-1.513 -0.601,-2.964 -1.67,-4.033c-1.07,-1.07 -2.521,-1.671 -4.033,-1.671c-1.513,0 -2.964,0.601 -4.033,1.671c-1.07,1.069 -1.671,2.52 -1.671,4.033c0,1.512 0.601,2.963 1.671,4.033c1.069,1.069 2.52,1.67 4.033,1.67Z" style="fill-rule:nonzero;"/><path id="line2d_12" d="M231.725,128.288l0,-31.427" style="fill:none;stroke:#000;stroke-width:2.28px;stroke-linecap:round;"/><path id="patch_5" d="M266.444,246.97l0,-145.215" style="fill:none;stroke:#262626;stroke-width:1.43px;stroke-linecap:square;"/></g></g></svg>