<?xml version="1.0" encoding="UTF-8" standalone="no"?>
<!DOCTYPE svg PUBLIC "-//W3C//DTD SVG 1.1//EN" "http://www.w3.org/Graphics/SVG/1.1/DTD/svg11.dtd">
<svg width="100%" height="100%" viewBox="0 0 500 500" version="1.1" xmlns="http://www.w3.org/2000/svg" xmlns:xlink="http://www.w3.org/1999/xlink" xml:space="preserve" xmlns:serif="http://www.serif.com/" style="fill-rule:evenodd;clip-rule:evenodd;">
    <g transform="matrix(1.75,0,0,1.75,-232.906,-174.05)">
        <g id="matplotlib.axis_2" transform="matrix(1,0,0,1,126.685,70.3806)">
            <g id="ytick_1">
                <g id="ma14b09d02c" transform="matrix(1,0,0,1,71.3228,299.264)">
                    <path d="M0,0L-6,0" style="fill:rgb(38,38,38);fill-rule:nonzero;stroke:rgb(38,38,38);stroke-width:1.6px;"/>
                </g>
                <g id="text_3" transform="matrix(1,0,0,1,54.1228,306.422)">
                    <text x="-22.803px" y="0px" style="font-family:'ArialMT', 'Arial', sans-serif;font-size:20px;fill:rgb(38,38,38);">−2</text>
                </g>
            </g>
            <g id="ytick_2">
                <g id="ma14b09d02c1" serif:id="ma14b09d02c" transform="matrix(1,0,0,1,71.3228,235.614)">
                    <path d="M0,0L-6,0" style="fill:rgb(38,38,38);fill-rule:nonzero;stroke:rgb(38,38,38);stroke-width:1.6px;"/>
                </g>
                <g id="text_4" transform="matrix(1,0,0,1,54.1228,242.771)">
                    <text x="-11.123px" y="0px" style="font-family:'ArialMT', 'Arial', sans-serif;font-size:20px;fill:rgb(38,38,38);">0</text>
                </g>
            </g>
            <g id="ytick_3">
                <g id="ma14b09d02c2" serif:id="ma14b09d02c" transform="matrix(1,0,0,1,71.3228,171.964)">
                    <path d="M0,0L-6,0" style="fill:rgb(38,38,38);fill-rule:nonzero;stroke:rgb(38,38,38);stroke-width:1.6px;"/>
                </g>
                <g id="text_5" transform="matrix(1,0,0,1,54.1228,179.121)">
                    <text x="-11.123px" y="0px" style="font-family:'ArialMT', 'Arial', sans-serif;font-size:20px;fill:rgb(38,38,38);">2</text>
                </g>
            </g>
            <g id="ytick_4">
                <g id="ma14b09d02c3" serif:id="ma14b09d02c" transform="matrix(1,0,0,1,71.3228,108.314)">
                    <path d="M0,0L-6,0" style="fill:rgb(38,38,38);fill-rule:nonzero;stroke:rgb(38,38,38);stroke-width:1.6px;"/>
                </g>
                <g id="text_6" transform="matrix(1,0,0,1,54.1228,115.471)">
                    <text x="-11.123px" y="0px" style="font-family:'ArialMT', 'Arial', sans-serif;font-size:20px;fill:rgb(38,38,38);">4</text>
                </g>
            </g>
            <g id="ytick_5">
                <g id="ma14b09d02c4" serif:id="ma14b09d02c" transform="matrix(1,0,0,1,71.3228,44.6636)">
                    <path d="M0,0L-6,0" style="fill:rgb(38,38,38);fill-rule:nonzero;stroke:rgb(38,38,38);stroke-width:1.6px;"/>
                </g>
                <g id="text_7" transform="matrix(1,0,0,1,54.1228,51.8214)">
                    <text x="-11.123px" y="0px" style="font-family:'ArialMT', 'Arial', sans-serif;font-size:20px;fill:rgb(38,38,38);">6</text>
                </g>
            </g>
        </g>
        <g id="patch_3" transform="matrix(1,0,0,1,126.685,70.3806)">
            <path d="M71.323,299.264L71.323,44.664" style="fill:none;stroke:rgb(38,38,38);stroke-width:1.25px;stroke-linecap:square;"/>
        </g>
        <g id="PathCollection_3" transform="matrix(1,0,0,1,126.685,70.3806)">
            <g id="C0_0_0030be1c3a" transform="matrix(1,0,0,1,101.759,298.555)">
                <path d="M0,3C0.796,3 1.559,2.684 2.121,2.121C2.684,1.559 3,0.796 3,0C3,-0.796 2.684,-1.559 2.121,-2.121C1.559,-2.684 0.796,-3 0,-3C-0.796,-3 -1.559,-2.684 -2.121,-2.121C-2.684,-1.559 -3,-0.796 -3,0C-3,0.796 -2.684,1.559 -2.121,2.121C-1.559,2.684 -0.796,3 0,3Z" style="fill:rgb(85,168,104);fill-rule:nonzero;"/>
            </g>
            <g id="C0_0_0030be1c3a1" serif:id="C0_0_0030be1c3a" transform="matrix(1,0,0,1,101.759,291.097)">
                <path d="M0,3C0.796,3 1.559,2.684 2.121,2.121C2.684,1.559 3,0.796 3,0C3,-0.796 2.684,-1.559 2.121,-2.121C1.559,-2.684 0.796,-3 0,-3C-0.796,-3 -1.559,-2.684 -2.121,-2.121C-2.684,-1.559 -3,-0.796 -3,0C-3,0.796 -2.684,1.559 -2.121,2.121C-1.559,2.684 -0.796,3 0,3Z" style="fill:rgb(85,168,104);fill-rule:nonzero;"/>
            </g>
            <g id="C0_0_0030be1c3a2" serif:id="C0_0_0030be1c3a" transform="matrix(1,0,0,1,101.759,284.796)">
                <path d="M0,3C0.796,3 1.559,2.684 2.121,2.121C2.684,1.559 3,0.796 3,0C3,-0.796 2.684,-1.559 2.121,-2.121C1.559,-2.684 0.796,-3 0,-3C-0.796,-3 -1.559,-2.684 -2.121,-2.121C-2.684,-1.559 -3,-0.796 -3,0C-3,0.796 -2.684,1.559 -2.121,2.121C-1.559,2.684 -0.796,3 0,3Z" style="fill:rgb(76,114,176);fill-rule:nonzero;"/>
            </g>
            <g id="C0_0_0030be1c3a3" serif:id="C0_0_0030be1c3a" transform="matrix(1,0,0,1,101.759,271.786)">
                <path d="M0,3C0.796,3 1.559,2.684 2.121,2.121C2.684,1.559 3,0.796 3,0C3,-0.796 2.684,-1.559 2.121,-2.121C1.559,-2.684 0.796,-3 0,-3C-0.796,-3 -1.559,-2.684 -2.121,-2.121C-2.684,-1.559 -3,-0.796 -3,0C-3,0.796 -2.684,1.559 -2.121,2.121C-1.559,2.684 -0.796,3 0,3Z" style="fill:rgb(76,114,176);fill-rule:nonzero;"/>
            </g>
            <g id="C0_0_0030be1c3a4" serif:id="C0_0_0030be1c3a" transform="matrix(1,0,0,1,97.3902,269.978)">
                <path d="M0,3C0.796,3 1.559,2.684 2.121,2.121C2.684,1.559 3,0.796 3,0C3,-0.796 2.684,-1.559 2.121,-2.121C1.559,-2.684 0.796,-3 0,-3C-0.796,-3 -1.559,-2.684 -2.121,-2.121C-2.684,-1.559 -3,-0.796 -3,0C-3,0.796 -2.684,1.559 -2.121,2.121C-1.559,2.684 -0.796,3 0,3Z" style="fill:rgb(76,114,176);fill-rule:nonzero;"/>
            </g>
            <g id="C0_0_0030be1c3a5" serif:id="C0_0_0030be1c3a" transform="matrix(1,0,0,1,103.66,266.327)">
                <path d="M0,3C0.796,3 1.559,2.684 2.121,2.121C2.684,1.559 3,0.796 3,0C3,-0.796 2.684,-1.559 2.121,-2.121C1.559,-2.684 0.796,-3 0,-3C-0.796,-3 -1.559,-2.684 -2.121,-2.121C-2.684,-1.559 -3,-0.796 -3,0C-3,0.796 -2.684,1.559 -2.121,2.121C-1.559,2.684 -0.796,3 0,3Z" style="fill:rgb(76,114,176);fill-rule:nonzero;"/>
            </g>
            <g id="C0_0_0030be1c3a6" serif:id="C0_0_0030be1c3a" transform="matrix(1,0,0,1,101.759,258.909)">
                <path d="M0,3C0.796,3 1.559,2.684 2.121,2.121C2.684,1.559 3,0.796 3,0C3,-0.796 2.684,-1.559 2.121,-2.121C1.559,-2.684 0.796,-3 0,-3C-0.796,-3 -1.559,-2.684 -2.121,-2.121C-2.684,-1.559 -3,-0.796 -3,0C-3,0.796 -2.684,1.559 -2.121,2.121C-1.559,2.684 -0.796,3 0,3Z" style="fill:rgb(85,168,104);fill-rule:nonzero;"/>
            </g>
            <g id="C0_0_0030be1c3a7" serif:id="C0_0_0030be1c3a" transform="matrix(1,0,0,1,97.1865,258.53)">
                <path d="M0,3C0.796,3 1.559,2.684 2.121,2.121C2.684,1.559 3,0.796 3,0C3,-0.796 2.684,-1.559 2.121,-2.121C1.559,-2.684 0.796,-3 0,-3C-0.796,-3 -1.559,-2.684 -2.121,-2.121C-2.684,-1.559 -3,-0.796 -3,0C-3,0.796 -2.684,1.559 -2.121,2.121C-1.559,2.684 -0.796,3 0,3Z" style="fill:rgb(76,114,176);fill-rule:nonzero;"/>
            </g>
            <g id="C0_0_0030be1c3a8" serif:id="C0_0_0030be1c3a" transform="matrix(1,0,0,1,100.625,253.095)">
                <path d="M0,3C0.796,3 1.559,2.684 2.121,2.121C2.684,1.559 3,0.796 3,0C3,-0.796 2.684,-1.559 2.121,-2.121C1.559,-2.684 0.796,-3 0,-3C-0.796,-3 -1.559,-2.684 -2.121,-2.121C-2.684,-1.559 -3,-0.796 -3,0C-3,0.796 -2.684,1.559 -2.121,2.121C-1.559,2.684 -0.796,3 0,3Z" style="fill:rgb(85,168,104);fill-rule:nonzero;"/>
            </g>
            <g id="C0_0_0030be1c3a9" serif:id="C0_0_0030be1c3a" transform="matrix(1,0,0,1,104.847,250.767)">
                <path d="M0,3C0.796,3 1.559,2.684 2.121,2.121C2.684,1.559 3,0.796 3,0C3,-0.796 2.684,-1.559 2.121,-2.121C1.559,-2.684 0.796,-3 0,-3C-0.796,-3 -1.559,-2.684 -2.121,-2.121C-2.684,-1.559 -3,-0.796 -3,0C-3,0.796 -2.684,1.559 -2.121,2.121C-1.559,2.684 -0.796,3 0,3Z" style="fill:rgb(85,168,104);fill-rule:nonzero;"/>
            </g>
            <g id="C0_0_0030be1c3a10" serif:id="C0_0_0030be1c3a" transform="matrix(1,0,0,1,101.759,246.359)">
                <path d="M0,3C0.796,3 1.559,2.684 2.121,2.121C2.684,1.559 3,0.796 3,0C3,-0.796 2.684,-1.559 2.121,-2.121C1.559,-2.684 0.796,-3 0,-3C-0.796,-3 -1.559,-2.684 -2.121,-2.121C-2.684,-1.559 -3,-0.796 -3,0C-3,0.796 -2.684,1.559 -2.121,2.121C-1.559,2.684 -0.796,3 0,3Z" style="fill:rgb(85,168,104);fill-rule:nonzero;"/>
            </g>
            <g id="C0_0_0030be1c3a11" serif:id="C0_0_0030be1c3a" transform="matrix(1,0,0,1,106.048,244.246)">
                <path d="M0,3C0.796,3 1.559,2.684 2.121,2.121C2.684,1.559 3,0.796 3,0C3,-0.796 2.684,-1.559 2.121,-2.121C1.559,-2.684 0.796,-3 0,-3C-0.796,-3 -1.559,-2.684 -2.121,-2.121C-2.684,-1.559 -3,-0.796 -3,0C-3,0.796 -2.684,1.559 -2.121,2.121C-1.559,2.684 -0.796,3 0,3Z" style="fill:rgb(85,168,104);fill-rule:nonzero;"/>
            </g>
            <g id="C0_0_0030be1c3a12" serif:id="C0_0_0030be1c3a" transform="matrix(1,0,0,1,97.508,244.121)">
                <path d="M0,3C0.796,3 1.559,2.684 2.121,2.121C2.684,1.559 3,0.796 3,0C3,-0.796 2.684,-1.559 2.121,-2.121C1.559,-2.684 0.796,-3 0,-3C-0.796,-3 -1.559,-2.684 -2.121,-2.121C-2.684,-1.559 -3,-0.796 -3,0C-3,0.796 -2.684,1.559 -2.121,2.121C-1.559,2.684 -0.796,3 0,3Z" style="fill:rgb(85,168,104);fill-rule:nonzero;"/>
            </g>
            <g id="C0_0_0030be1c3a13" serif:id="C0_0_0030be1c3a" transform="matrix(1,0,0,1,109.982,241.17)">
                <path d="M0,3C0.796,3 1.559,2.684 2.121,2.121C2.684,1.559 3,0.796 3,0C3,-0.796 2.684,-1.559 2.121,-2.121C1.559,-2.684 0.796,-3 0,-3C-0.796,-3 -1.559,-2.684 -2.121,-2.121C-2.684,-1.559 -3,-0.796 -3,0C-3,0.796 -2.684,1.559 -2.121,2.121C-1.559,2.684 -0.796,3 0,3Z" style="fill:rgb(76,114,176);fill-rule:nonzero;"/>
            </g>
            <g id="C0_0_0030be1c3a14" serif:id="C0_0_0030be1c3a" transform="matrix(1,0,0,1,101.759,235.88)">
                <path d="M0,3C0.796,3 1.559,2.684 2.121,2.121C2.684,1.559 3,0.796 3,0C3,-0.796 2.684,-1.559 2.121,-2.121C1.559,-2.684 0.796,-3 0,-3C-0.796,-3 -1.559,-2.684 -2.121,-2.121C-2.684,-1.559 -3,-0.796 -3,0C-3,0.796 -2.684,1.559 -2.121,2.121C-1.559,2.684 -0.796,3 0,3Z" style="fill:rgb(76,114,176);fill-rule:nonzero;"/>
            </g>
            <g id="C0_0_0030be1c3a15" serif:id="C0_0_0030be1c3a" transform="matrix(1,0,0,1,106.331,235.477)">
                <path d="M0,3C0.796,3 1.559,2.684 2.121,2.121C2.684,1.559 3,0.796 3,0C3,-0.796 2.684,-1.559 2.121,-2.121C1.559,-2.684 0.796,-3 0,-3C-0.796,-3 -1.559,-2.684 -2.121,-2.121C-2.684,-1.559 -3,-0.796 -3,0C-3,0.796 -2.684,1.559 -2.121,2.121C-1.559,2.684 -0.796,3 0,3Z" style="fill:rgb(76,114,176);fill-rule:nonzero;"/>
            </g>
            <g id="C0_0_0030be1c3a16" serif:id="C0_0_0030be1c3a" transform="matrix(1,0,0,1,97.9957,232.458)">
                <path d="M0,3C0.796,3 1.559,2.684 2.121,2.121C2.684,1.559 3,0.796 3,0C3,-0.796 2.684,-1.559 2.121,-2.121C1.559,-2.684 0.796,-3 0,-3C-0.796,-3 -1.559,-2.684 -2.121,-2.121C-2.684,-1.559 -3,-0.796 -3,0C-3,0.796 -2.684,1.559 -2.121,2.121C-1.559,2.684 -0.796,3 0,3Z" style="fill:rgb(85,168,104);fill-rule:nonzero;"/>
            </g>
            <g id="C0_0_0030be1c3a17" serif:id="C0_0_0030be1c3a" transform="matrix(1,0,0,1,93.4196,232.159)">
                <path d="M0,3C0.796,3 1.559,2.684 2.121,2.121C2.684,1.559 3,0.796 3,0C3,-0.796 2.684,-1.559 2.121,-2.121C1.559,-2.684 0.796,-3 0,-3C-0.796,-3 -1.559,-2.684 -2.121,-2.121C-2.684,-1.559 -3,-0.796 -3,0C-3,0.796 -2.684,1.559 -2.121,2.121C-1.559,2.684 -0.796,3 0,3Z" style="fill:rgb(76,114,176);fill-rule:nonzero;"/>
            </g>
            <g id="C0_0_0030be1c3a18" serif:id="C0_0_0030be1c3a" transform="matrix(1,0,0,1,109.685,231.39)">
                <path d="M0,3C0.796,3 1.559,2.684 2.121,2.121C2.684,1.559 3,0.796 3,0C3,-0.796 2.684,-1.559 2.121,-2.121C1.559,-2.684 0.796,-3 0,-3C-0.796,-3 -1.559,-2.684 -2.121,-2.121C-2.684,-1.559 -3,-0.796 -3,0C-3,0.796 -2.684,1.559 -2.121,2.121C-1.559,2.684 -0.796,3 0,3Z" style="fill:rgb(85,168,104);fill-rule:nonzero;"/>
            </g>
            <g id="C0_0_0030be1c3a19" serif:id="C0_0_0030be1c3a" transform="matrix(1,0,0,1,114.267,231.313)">
                <path d="M0,3C0.796,3 1.559,2.684 2.121,2.121C2.684,1.559 3,0.796 3,0C3,-0.796 2.684,-1.559 2.121,-2.121C1.559,-2.684 0.796,-3 0,-3C-0.796,-3 -1.559,-2.684 -2.121,-2.121C-2.684,-1.559 -3,-0.796 -3,0C-3,0.796 -2.684,1.559 -2.121,2.121C-1.559,2.684 -0.796,3 0,3Z" style="fill:rgb(76,114,176);fill-rule:nonzero;"/>
            </g>
            <g id="C0_0_0030be1c3a20" serif:id="C0_0_0030be1c3a" transform="matrix(1,0,0,1,101.759,229.407)">
                <path d="M0,3C0.796,3 1.559,2.684 2.121,2.121C2.684,1.559 3,0.796 3,0C3,-0.796 2.684,-1.559 2.121,-2.121C1.559,-2.684 0.796,-3 0,-3C-0.796,-3 -1.559,-2.684 -2.121,-2.121C-2.684,-1.559 -3,-0.796 -3,0C-3,0.796 -2.684,1.559 -2.121,2.121C-1.559,2.684 -0.796,3 0,3Z" style="fill:rgb(85,168,104);fill-rule:nonzero;"/>
            </g>
            <g id="C0_0_0030be1c3a21" serif:id="C0_0_0030be1c3a" transform="matrix(1,0,0,1,89.8874,228.338)">
                <path d="M0,3C0.796,3 1.559,2.684 2.121,2.121C2.684,1.559 3,0.796 3,0C3,-0.796 2.684,-1.559 2.121,-2.121C1.559,-2.684 0.796,-3 0,-3C-0.796,-3 -1.559,-2.684 -2.121,-2.121C-2.684,-1.559 -3,-0.796 -3,0C-3,0.796 -2.684,1.559 -2.121,2.121C-1.559,2.684 -0.796,3 0,3Z" style="fill:rgb(76,114,176);fill-rule:nonzero;"/>
            </g>
            <g id="C0_0_0030be1c3a22" serif:id="C0_0_0030be1c3a" transform="matrix(1,0,0,1,106.009,227.164)">
                <path d="M0,3C0.796,3 1.559,2.684 2.121,2.121C2.684,1.559 3,0.796 3,0C3,-0.796 2.684,-1.559 2.121,-2.121C1.559,-2.684 0.796,-3 0,-3C-0.796,-3 -1.559,-2.684 -2.121,-2.121C-2.684,-1.559 -3,-0.796 -3,0C-3,0.796 -2.684,1.559 -2.121,2.121C-1.559,2.684 -0.796,3 0,3Z" style="fill:rgb(76,114,176);fill-rule:nonzero;"/>
            </g>
            <g id="C0_0_0030be1c3a23" serif:id="C0_0_0030be1c3a" transform="matrix(1,0,0,1,95.9371,227.146)">
                <path d="M0,3C0.796,3 1.559,2.684 2.121,2.121C2.684,1.559 3,0.796 3,0C3,-0.796 2.684,-1.559 2.121,-2.121C1.559,-2.684 0.796,-3 0,-3C-0.796,-3 -1.559,-2.684 -2.121,-2.121C-2.684,-1.559 -3,-0.796 -3,0C-3,0.796 -2.684,1.559 -2.121,2.121C-1.559,2.684 -0.796,3 0,3Z" style="fill:rgb(85,168,104);fill-rule:nonzero;"/>
            </g>
            <g id="C0_0_0030be1c3a24" serif:id="C0_0_0030be1c3a" transform="matrix(1,0,0,1,101.759,222.877)">
                <path d="M0,3C0.796,3 1.559,2.684 2.121,2.121C2.684,1.559 3,0.796 3,0C3,-0.796 2.684,-1.559 2.121,-2.121C1.559,-2.684 0.796,-3 0,-3C-0.796,-3 -1.559,-2.684 -2.121,-2.121C-2.684,-1.559 -3,-0.796 -3,0C-3,0.796 -2.684,1.559 -2.121,2.121C-1.559,2.684 -0.796,3 0,3Z" style="fill:rgb(85,168,104);fill-rule:nonzero;"/>
            </g>
            <g id="C0_0_0030be1c3a25" serif:id="C0_0_0030be1c3a" transform="matrix(1,0,0,1,108.111,221.833)">
                <path d="M0,3C0.796,3 1.559,2.684 2.121,2.121C2.684,1.559 3,0.796 3,0C3,-0.796 2.684,-1.559 2.121,-2.121C1.559,-2.684 0.796,-3 0,-3C-0.796,-3 -1.559,-2.684 -2.121,-2.121C-2.684,-1.559 -3,-0.796 -3,0C-3,0.796 -2.684,1.559 -2.121,2.121C-1.559,2.684 -0.796,3 0,3Z" style="fill:rgb(76,114,176);fill-rule:nonzero;"/>
            </g>
            <g id="C0_0_0030be1c3a26" serif:id="C0_0_0030be1c3a" transform="matrix(1,0,0,1,97.3705,221.447)">
                <path d="M0,3C0.796,3 1.559,2.684 2.121,2.121C2.684,1.559 3,0.796 3,0C3,-0.796 2.684,-1.559 2.121,-2.121C1.559,-2.684 0.796,-3 0,-3C-0.796,-3 -1.559,-2.684 -2.121,-2.121C-2.684,-1.559 -3,-0.796 -3,0C-3,0.796 -2.684,1.559 -2.121,2.121C-1.559,2.684 -0.796,3 0,3Z" style="fill:rgb(76,114,176);fill-rule:nonzero;"/>
            </g>
            <g id="C0_0_0030be1c3a27" serif:id="C0_0_0030be1c3a" transform="matrix(1,0,0,1,101.759,216.098)">
                <path d="M0,3C0.796,3 1.559,2.684 2.121,2.121C2.684,1.559 3,0.796 3,0C3,-0.796 2.684,-1.559 2.121,-2.121C1.559,-2.684 0.796,-3 0,-3C-0.796,-3 -1.559,-2.684 -2.121,-2.121C-2.684,-1.559 -3,-0.796 -3,0C-3,0.796 -2.684,1.559 -2.121,2.121C-1.559,2.684 -0.796,3 0,3Z" style="fill:rgb(85,168,104);fill-rule:nonzero;"/>
            </g>
            <g id="C0_0_0030be1c3a28" serif:id="C0_0_0030be1c3a" transform="matrix(1,0,0,1,106.337,215.84)">
                <path d="M0,3C0.796,3 1.559,2.684 2.121,2.121C2.684,1.559 3,0.796 3,0C3,-0.796 2.684,-1.559 2.121,-2.121C1.559,-2.684 0.796,-3 0,-3C-0.796,-3 -1.559,-2.684 -2.121,-2.121C-2.684,-1.559 -3,-0.796 -3,0C-3,0.796 -2.684,1.559 -2.121,2.121C-1.559,2.684 -0.796,3 0,3Z" style="fill:rgb(76,114,176);fill-rule:nonzero;"/>
            </g>
            <g id="C0_0_0030be1c3a29" serif:id="C0_0_0030be1c3a" transform="matrix(1,0,0,1,97.907,212.85)">
                <path d="M0,3C0.796,3 1.559,2.684 2.121,2.121C2.684,1.559 3,0.796 3,0C3,-0.796 2.684,-1.559 2.121,-2.121C1.559,-2.684 0.796,-3 0,-3C-0.796,-3 -1.559,-2.684 -2.121,-2.121C-2.684,-1.559 -3,-0.796 -3,0C-3,0.796 -2.684,1.559 -2.121,2.121C-1.559,2.684 -0.796,3 0,3Z" style="fill:rgb(76,114,176);fill-rule:nonzero;"/>
            </g>
            <g id="C0_0_0030be1c3a30" serif:id="C0_0_0030be1c3a" transform="matrix(1,0,0,1,101.759,202.889)">
                <path d="M0,3C0.796,3 1.559,2.684 2.121,2.121C2.684,1.559 3,0.796 3,0C3,-0.796 2.684,-1.559 2.121,-2.121C1.559,-2.684 0.796,-3 0,-3C-0.796,-3 -1.559,-2.684 -2.121,-2.121C-2.684,-1.559 -3,-0.796 -3,0C-3,0.796 -2.684,1.559 -2.121,2.121C-1.559,2.684 -0.796,3 0,3Z" style="fill:rgb(76,114,176);fill-rule:nonzero;"/>
            </g>
            <g id="C0_0_0030be1c3a31" serif:id="C0_0_0030be1c3a" transform="matrix(1,0,0,1,97.8075,199.852)">
                <path d="M0,3C0.796,3 1.559,2.684 2.121,2.121C2.684,1.559 3,0.796 3,0C3,-0.796 2.684,-1.559 2.121,-2.121C1.559,-2.684 0.796,-3 0,-3C-0.796,-3 -1.559,-2.684 -2.121,-2.121C-2.684,-1.559 -3,-0.796 -3,0C-3,0.796 -2.684,1.559 -2.121,2.121C-1.559,2.684 -0.796,3 0,3Z" style="fill:rgb(85,168,104);fill-rule:nonzero;"/>
            </g>
            <g id="C0_0_0030be1c3a32" serif:id="C0_0_0030be1c3a" transform="matrix(1,0,0,1,103.478,197.327)">
                <path d="M0,3C0.796,3 1.559,2.684 2.121,2.121C2.684,1.559 3,0.796 3,0C3,-0.796 2.684,-1.559 2.121,-2.121C1.559,-2.684 0.796,-3 0,-3C-0.796,-3 -1.559,-2.684 -2.121,-2.121C-2.684,-1.559 -3,-0.796 -3,0C-3,0.796 -2.684,1.559 -2.121,2.121C-1.559,2.684 -0.796,3 0,3Z" style="fill:rgb(76,114,176);fill-rule:nonzero;"/>
            </g>
            <g id="C0_0_0030be1c3a33" serif:id="C0_0_0030be1c3a" transform="matrix(1,0,0,1,107.872,195.626)">
                <path d="M0,3C0.796,3 1.559,2.684 2.121,2.121C2.684,1.559 3,0.796 3,0C3,-0.796 2.684,-1.559 2.121,-2.121C1.559,-2.684 0.796,-3 0,-3C-0.796,-3 -1.559,-2.684 -2.121,-2.121C-2.684,-1.559 -3,-0.796 -3,0C-3,0.796 -2.684,1.559 -2.121,2.121C-1.559,2.684 -0.796,3 0,3Z" style="fill:rgb(85,168,104);fill-rule:nonzero;"/>
            </g>
            <g id="C0_0_0030be1c3a34" serif:id="C0_0_0030be1c3a" transform="matrix(1,0,0,1,99.6796,193.972)">
                <path d="M0,3C0.796,3 1.559,2.684 2.121,2.121C2.684,1.559 3,0.796 3,0C3,-0.796 2.684,-1.559 2.121,-2.121C1.559,-2.684 0.796,-3 0,-3C-0.796,-3 -1.559,-2.684 -2.121,-2.121C-2.684,-1.559 -3,-0.796 -3,0C-3,0.796 -2.684,1.559 -2.121,2.121C-1.559,2.684 -0.796,3 0,3Z" style="fill:rgb(85,168,104);fill-rule:nonzero;"/>
            </g>
            <g id="C0_0_0030be1c3a35" serif:id="C0_0_0030be1c3a" transform="matrix(1,0,0,1,95.1324,193.236)">
                <path d="M0,3C0.796,3 1.559,2.684 2.121,2.121C2.684,1.559 3,0.796 3,0C3,-0.796 2.684,-1.559 2.121,-2.121C1.559,-2.684 0.796,-3 0,-3C-0.796,-3 -1.559,-2.684 -2.121,-2.121C-2.684,-1.559 -3,-0.796 -3,0C-3,0.796 -2.684,1.559 -2.121,2.121C-1.559,2.684 -0.796,3 0,3Z" style="fill:rgb(76,114,176);fill-rule:nonzero;"/>
            </g>
            <g id="C0_0_0030be1c3a36" serif:id="C0_0_0030be1c3a" transform="matrix(1,0,0,1,103.712,191.122)">
                <path d="M0,3C0.796,3 1.559,2.684 2.121,2.121C2.684,1.559 3,0.796 3,0C3,-0.796 2.684,-1.559 2.121,-2.121C1.559,-2.684 0.796,-3 0,-3C-0.796,-3 -1.559,-2.684 -2.121,-2.121C-2.684,-1.559 -3,-0.796 -3,0C-3,0.796 -2.684,1.559 -2.121,2.121C-1.559,2.684 -0.796,3 0,3Z" style="fill:rgb(85,168,104);fill-rule:nonzero;"/>
            </g>
            <g id="C0_0_0030be1c3a37" serif:id="C0_0_0030be1c3a" transform="matrix(1,0,0,1,98.0411,188.368)">
                <path d="M0,3C0.796,3 1.559,2.684 2.121,2.121C2.684,1.559 3,0.796 3,0C3,-0.796 2.684,-1.559 2.121,-2.121C1.559,-2.684 0.796,-3 0,-3C-0.796,-3 -1.559,-2.684 -2.121,-2.121C-2.684,-1.559 -3,-0.796 -3,0C-3,0.796 -2.684,1.559 -2.121,2.121C-1.559,2.684 -0.796,3 0,3Z" style="fill:rgb(76,114,176);fill-rule:nonzero;"/>
            </g>
            <g id="C0_0_0030be1c3a38" serif:id="C0_0_0030be1c3a" transform="matrix(1,0,0,1,101.759,182.382)">
                <path d="M0,3C0.796,3 1.559,2.684 2.121,2.121C2.684,1.559 3,0.796 3,0C3,-0.796 2.684,-1.559 2.121,-2.121C1.559,-2.684 0.796,-3 0,-3C-0.796,-3 -1.559,-2.684 -2.121,-2.121C-2.684,-1.559 -3,-0.796 -3,0C-3,0.796 -2.684,1.559 -2.121,2.121C-1.559,2.684 -0.796,3 0,3Z" style="fill:rgb(85,168,104);fill-rule:nonzero;"/>
            </g>
            <g id="C0_0_0030be1c3a39" serif:id="C0_0_0030be1c3a" transform="matrix(1,0,0,1,101.759,159.712)">
                <path d="M0,3C0.796,3 1.559,2.684 2.121,2.121C2.684,1.559 3,0.796 3,0C3,-0.796 2.684,-1.559 2.121,-2.121C1.559,-2.684 0.796,-3 0,-3C-0.796,-3 -1.559,-2.684 -2.121,-2.121C-2.684,-1.559 -3,-0.796 -3,0C-3,0.796 -2.684,1.559 -2.121,2.121C-1.559,2.684 -0.796,3 0,3Z" style="fill:rgb(85,168,104);fill-rule:nonzero;"/>
            </g>
        </g>
        <g id="PathCollection_4" transform="matrix(1,0,0,1,126.685,70.3806)">
            <g id="C1_0_9c2c63ec28" transform="matrix(1,0,0,1,162.632,178.48)">
                <path d="M0,3C0.796,3 1.559,2.684 2.121,2.121C2.684,1.559 3,0.796 3,0C3,-0.796 2.684,-1.559 2.121,-2.121C1.559,-2.684 0.796,-3 0,-3C-0.796,-3 -1.559,-2.684 -2.121,-2.121C-2.684,-1.559 -3,-0.796 -3,0C-3,0.796 -2.684,1.559 -2.121,2.121C-1.559,2.684 -0.796,3 0,3Z" style="fill:rgb(76,114,176);fill-rule:nonzero;"/>
            </g>
            <g id="C1_0_9c2c63ec281" serif:id="C1_0_9c2c63ec28" transform="matrix(1,0,0,1,159.173,174.545)">
                <path d="M0,3C0.796,3 1.559,2.684 2.121,2.121C2.684,1.559 3,0.796 3,0C3,-0.796 2.684,-1.559 2.121,-2.121C1.559,-2.684 0.796,-3 0,-3C-0.796,-3 -1.559,-2.684 -2.121,-2.121C-2.684,-1.559 -3,-0.796 -3,0C-3,0.796 -2.684,1.559 -2.121,2.121C-1.559,2.684 -0.796,3 0,3Z" style="fill:rgb(76,114,176);fill-rule:nonzero;"/>
            </g>
            <g id="C1_0_9c2c63ec282" serif:id="C1_0_9c2c63ec28" transform="matrix(1,0,0,1,163.134,171.528)">
                <path d="M0,3C0.796,3 1.559,2.684 2.121,2.121C2.684,1.559 3,0.796 3,0C3,-0.796 2.684,-1.559 2.121,-2.121C1.559,-2.684 0.796,-3 0,-3C-0.796,-3 -1.559,-2.684 -2.121,-2.121C-2.684,-1.559 -3,-0.796 -3,0C-3,0.796 -2.684,1.559 -2.121,2.121C-1.559,2.684 -0.796,3 0,3Z" style="fill:rgb(85,168,104);fill-rule:nonzero;"/>
            </g>
            <g id="C1_0_9c2c63ec283" serif:id="C1_0_9c2c63ec28" transform="matrix(1,0,0,1,162.632,160.866)">
                <path d="M0,3C0.796,3 1.559,2.684 2.121,2.121C2.684,1.559 3,0.796 3,0C3,-0.796 2.684,-1.559 2.121,-2.121C1.559,-2.684 0.796,-3 0,-3C-0.796,-3 -1.559,-2.684 -2.121,-2.121C-2.684,-1.559 -3,-0.796 -3,0C-3,0.796 -2.684,1.559 -2.121,2.121C-1.559,2.684 -0.796,3 0,3Z" style="fill:rgb(76,114,176);fill-rule:nonzero;"/>
            </g>
            <g id="C1_0_9c2c63ec284" serif:id="C1_0_9c2c63ec28" transform="matrix(1,0,0,1,160.517,155.543)">
                <path d="M0,3C0.796,3 1.559,2.684 2.121,2.121C2.684,1.559 3,0.796 3,0C3,-0.796 2.684,-1.559 2.121,-2.121C1.559,-2.684 0.796,-3 0,-3C-0.796,-3 -1.559,-2.684 -2.121,-2.121C-2.684,-1.559 -3,-0.796 -3,0C-3,0.796 -2.684,1.559 -2.121,2.121C-1.559,2.684 -0.796,3 0,3Z" style="fill:rgb(85,168,104);fill-rule:nonzero;"/>
            </g>
            <g id="C1_0_9c2c63ec285" serif:id="C1_0_9c2c63ec28" transform="matrix(1,0,0,1,162.632,149.347)">
                <path d="M0,3C0.796,3 1.559,2.684 2.121,2.121C2.684,1.559 3,0.796 3,0C3,-0.796 2.684,-1.559 2.121,-2.121C1.559,-2.684 0.796,-3 0,-3C-0.796,-3 -1.559,-2.684 -2.121,-2.121C-2.684,-1.559 -3,-0.796 -3,0C-3,0.796 -2.684,1.559 -2.121,2.121C-1.559,2.684 -0.796,3 0,3Z" style="fill:rgb(85,168,104);fill-rule:nonzero;"/>
            </g>
            <g id="C1_0_9c2c63ec286" serif:id="C1_0_9c2c63ec28" transform="matrix(1,0,0,1,158.846,145.967)">
                <path d="M0,3C0.796,3 1.559,2.684 2.121,2.121C2.684,1.559 3,0.796 3,0C3,-0.796 2.684,-1.559 2.121,-2.121C1.559,-2.684 0.796,-3 0,-3C-0.796,-3 -1.559,-2.684 -2.121,-2.121C-2.684,-1.559 -3,-0.796 -3,0C-3,0.796 -2.684,1.559 -2.121,2.121C-1.559,2.684 -0.796,3 0,3Z" style="fill:rgb(76,114,176);fill-rule:nonzero;"/>
            </g>
            <g id="C1_0_9c2c63ec287" serif:id="C1_0_9c2c63ec28" transform="matrix(1,0,0,1,162.632,142.681)">
                <path d="M0,3C0.796,3 1.559,2.684 2.121,2.121C2.684,1.559 3,0.796 3,0C3,-0.796 2.684,-1.559 2.121,-2.121C1.559,-2.684 0.796,-3 0,-3C-0.796,-3 -1.559,-2.684 -2.121,-2.121C-2.684,-1.559 -3,-0.796 -3,0C-3,0.796 -2.684,1.559 -2.121,2.121C-1.559,2.684 -0.796,3 0,3Z" style="fill:rgb(85,168,104);fill-rule:nonzero;"/>
            </g>
            <g id="C1_0_9c2c63ec288" serif:id="C1_0_9c2c63ec28" transform="matrix(1,0,0,1,166.866,140.39)">
                <path d="M0,3C0.796,3 1.559,2.684 2.121,2.121C2.684,1.559 3,0.796 3,0C3,-0.796 2.684,-1.559 2.121,-2.121C1.559,-2.684 0.796,-3 0,-3C-0.796,-3 -1.559,-2.684 -2.121,-2.121C-2.684,-1.559 -3,-0.796 -3,0C-3,0.796 -2.684,1.559 -2.121,2.121C-1.559,2.684 -0.796,3 0,3Z" style="fill:rgb(85,168,104);fill-rule:nonzero;"/>
            </g>
            <g id="C1_0_9c2c63ec289" serif:id="C1_0_9c2c63ec28" transform="matrix(1,0,0,1,162.632,128.085)">
                <path d="M0,3C0.796,3 1.559,2.684 2.121,2.121C2.684,1.559 3,0.796 3,0C3,-0.796 2.684,-1.559 2.121,-2.121C1.559,-2.684 0.796,-3 0,-3C-0.796,-3 -1.559,-2.684 -2.121,-2.121C-2.684,-1.559 -3,-0.796 -3,0C-3,0.796 -2.684,1.559 -2.121,2.121C-1.559,2.684 -0.796,3 0,3Z" style="fill:rgb(85,168,104);fill-rule:nonzero;"/>
            </g>
            <g id="C1_0_9c2c63ec2810" serif:id="C1_0_9c2c63ec28" transform="matrix(1,0,0,1,158.053,127.855)">
                <path d="M0,3C0.796,3 1.559,2.684 2.121,2.121C2.684,1.559 3,0.796 3,0C3,-0.796 2.684,-1.559 2.121,-2.121C1.559,-2.684 0.796,-3 0,-3C-0.796,-3 -1.559,-2.684 -2.121,-2.121C-2.684,-1.559 -3,-0.796 -3,0C-3,0.796 -2.684,1.559 -2.121,2.121C-1.559,2.684 -0.796,3 0,3Z" style="fill:rgb(76,114,176);fill-rule:nonzero;"/>
            </g>
            <g id="C1_0_9c2c63ec2811" serif:id="C1_0_9c2c63ec28" transform="matrix(1,0,0,1,167.195,127.544)">
                <path d="M0,3C0.796,3 1.559,2.684 2.121,2.121C2.684,1.559 3,0.796 3,0C3,-0.796 2.684,-1.559 2.121,-2.121C1.559,-2.684 0.796,-3 0,-3C-0.796,-3 -1.559,-2.684 -2.121,-2.121C-2.684,-1.559 -3,-0.796 -3,0C-3,0.796 -2.684,1.559 -2.121,2.121C-1.559,2.684 -0.796,3 0,3Z" style="fill:rgb(85,168,104);fill-rule:nonzero;"/>
            </g>
            <g id="C1_0_9c2c63ec2812" serif:id="C1_0_9c2c63ec28" transform="matrix(1,0,0,1,153.74,125.83)">
                <path d="M0,3C0.796,3 1.559,2.684 2.121,2.121C2.684,1.559 3,0.796 3,0C3,-0.796 2.684,-1.559 2.121,-2.121C1.559,-2.684 0.796,-3 0,-3C-0.796,-3 -1.559,-2.684 -2.121,-2.121C-2.684,-1.559 -3,-0.796 -3,0C-3,0.796 -2.684,1.559 -2.121,2.121C-1.559,2.684 -0.796,3 0,3Z" style="fill:rgb(85,168,104);fill-rule:nonzero;"/>
            </g>
            <g id="C1_0_9c2c63ec2813" serif:id="C1_0_9c2c63ec28" transform="matrix(1,0,0,1,171.257,124.768)">
                <path d="M0,3C0.796,3 1.559,2.684 2.121,2.121C2.684,1.559 3,0.796 3,0C3,-0.796 2.684,-1.559 2.121,-2.121C1.559,-2.684 0.796,-3 0,-3C-0.796,-3 -1.559,-2.684 -2.121,-2.121C-2.684,-1.559 -3,-0.796 -3,0C-3,0.796 -2.684,1.559 -2.121,2.121C-1.559,2.684 -0.796,3 0,3Z" style="fill:rgb(85,168,104);fill-rule:nonzero;"/>
            </g>
            <g id="C1_0_9c2c63ec2814" serif:id="C1_0_9c2c63ec28" transform="matrix(1,0,0,1,162.632,119.7)">
                <path d="M0,3C0.796,3 1.559,2.684 2.121,2.121C2.684,1.559 3,0.796 3,0C3,-0.796 2.684,-1.559 2.121,-2.121C1.559,-2.684 0.796,-3 0,-3C-0.796,-3 -1.559,-2.684 -2.121,-2.121C-2.684,-1.559 -3,-0.796 -3,0C-3,0.796 -2.684,1.559 -2.121,2.121C-1.559,2.684 -0.796,3 0,3Z" style="fill:rgb(85,168,104);fill-rule:nonzero;"/>
            </g>
            <g id="C1_0_9c2c63ec2815" serif:id="C1_0_9c2c63ec28" transform="matrix(1,0,0,1,158.696,116.628)">
                <path d="M0,3C0.796,3 1.559,2.684 2.121,2.121C2.684,1.559 3,0.796 3,0C3,-0.796 2.684,-1.559 2.121,-2.121C1.559,-2.684 0.796,-3 0,-3C-0.796,-3 -1.559,-2.684 -2.121,-2.121C-2.684,-1.559 -3,-0.796 -3,0C-3,0.796 -2.684,1.559 -2.121,2.121C-1.559,2.684 -0.796,3 0,3Z" style="fill:rgb(76,114,176);fill-rule:nonzero;"/>
            </g>
            <g id="C1_0_9c2c63ec2816" serif:id="C1_0_9c2c63ec28" transform="matrix(1,0,0,1,165.979,115.603)">
                <path d="M0,3C0.796,3 1.559,2.684 2.121,2.121C2.684,1.559 3,0.796 3,0C3,-0.796 2.684,-1.559 2.121,-2.121C1.559,-2.684 0.796,-3 0,-3C-0.796,-3 -1.559,-2.684 -2.121,-2.121C-2.684,-1.559 -3,-0.796 -3,0C-3,0.796 -2.684,1.559 -2.121,2.121C-1.559,2.684 -0.796,3 0,3Z" style="fill:rgb(85,168,104);fill-rule:nonzero;"/>
            </g>
            <g id="C1_0_9c2c63ec2817" serif:id="C1_0_9c2c63ec28" transform="matrix(1,0,0,1,170.523,114.835)">
                <path d="M0,3C0.796,3 1.559,2.684 2.121,2.121C2.684,1.559 3,0.796 3,0C3,-0.796 2.684,-1.559 2.121,-2.121C1.559,-2.684 0.796,-3 0,-3C-0.796,-3 -1.559,-2.684 -2.121,-2.121C-2.684,-1.559 -3,-0.796 -3,0C-3,0.796 -2.684,1.559 -2.121,2.121C-1.559,2.684 -0.796,3 0,3Z" style="fill:rgb(76,114,176);fill-rule:nonzero;"/>
            </g>
            <g id="C1_0_9c2c63ec2818" serif:id="C1_0_9c2c63ec28" transform="matrix(1,0,0,1,154.377,114.627)">
                <path d="M0,3C0.796,3 1.559,2.684 2.121,2.121C2.684,1.559 3,0.796 3,0C3,-0.796 2.684,-1.559 2.121,-2.121C1.559,-2.684 0.796,-3 0,-3C-0.796,-3 -1.559,-2.684 -2.121,-2.121C-2.684,-1.559 -3,-0.796 -3,0C-3,0.796 -2.684,1.559 -2.121,2.121C-1.559,2.684 -0.796,3 0,3Z" style="fill:rgb(76,114,176);fill-rule:nonzero;"/>
            </g>
            <g id="C1_0_9c2c63ec2819" serif:id="C1_0_9c2c63ec28" transform="matrix(1,0,0,1,174.998,113.545)">
                <path d="M0,3C0.796,3 1.559,2.684 2.121,2.121C2.684,1.559 3,0.796 3,0C3,-0.796 2.684,-1.559 2.121,-2.121C1.559,-2.684 0.796,-3 0,-3C-0.796,-3 -1.559,-2.684 -2.121,-2.121C-2.684,-1.559 -3,-0.796 -3,0C-3,0.796 -2.684,1.559 -2.121,2.121C-1.559,2.684 -0.796,3 0,3Z" style="fill:rgb(85,168,104);fill-rule:nonzero;"/>
            </g>
            <g id="C1_0_9c2c63ec2820" serif:id="C1_0_9c2c63ec28" transform="matrix(1,0,0,1,162.632,110.846)">
                <path d="M0,3C0.796,3 1.559,2.684 2.121,2.121C2.684,1.559 3,0.796 3,0C3,-0.796 2.684,-1.559 2.121,-2.121C1.559,-2.684 0.796,-3 0,-3C-0.796,-3 -1.559,-2.684 -2.121,-2.121C-2.684,-1.559 -3,-0.796 -3,0C-3,0.796 -2.684,1.559 -2.121,2.121C-1.559,2.684 -0.796,3 0,3Z" style="fill:rgb(76,114,176);fill-rule:nonzero;"/>
            </g>
            <g id="C1_0_9c2c63ec2821" serif:id="C1_0_9c2c63ec28" transform="matrix(1,0,0,1,166.835,108.459)">
                <path d="M0,3C0.796,3 1.559,2.684 2.121,2.121C2.684,1.559 3,0.796 3,0C3,-0.796 2.684,-1.559 2.121,-2.121C1.559,-2.684 0.796,-3 0,-3C-0.796,-3 -1.559,-2.684 -2.121,-2.121C-2.684,-1.559 -3,-0.796 -3,0C-3,0.796 -2.684,1.559 -2.121,2.121C-1.559,2.684 -0.796,3 0,3Z" style="fill:rgb(85,168,104);fill-rule:nonzero;"/>
            </g>
            <g id="C1_0_9c2c63ec2822" serif:id="C1_0_9c2c63ec28" transform="matrix(1,0,0,1,158.684,107.8)">
                <path d="M0,3C0.796,3 1.559,2.684 2.121,2.121C2.684,1.559 3,0.796 3,0C3,-0.796 2.684,-1.559 2.121,-2.121C1.559,-2.684 0.796,-3 0,-3C-0.796,-3 -1.559,-2.684 -2.121,-2.121C-2.684,-1.559 -3,-0.796 -3,0C-3,0.796 -2.684,1.559 -2.121,2.121C-1.559,2.684 -0.796,3 0,3Z" style="fill:rgb(76,114,176);fill-rule:nonzero;"/>
            </g>
            <g id="C1_0_9c2c63ec2823" serif:id="C1_0_9c2c63ec28" transform="matrix(1,0,0,1,154.107,107.54)">
                <path d="M0,3C0.796,3 1.559,2.684 2.121,2.121C2.684,1.559 3,0.796 3,0C3,-0.796 2.684,-1.559 2.121,-2.121C1.559,-2.684 0.796,-3 0,-3C-0.796,-3 -1.559,-2.684 -2.121,-2.121C-2.684,-1.559 -3,-0.796 -3,0C-3,0.796 -2.684,1.559 -2.121,2.121C-1.559,2.684 -0.796,3 0,3Z" style="fill:rgb(85,168,104);fill-rule:nonzero;"/>
            </g>
            <g id="C1_0_9c2c63ec2824" serif:id="C1_0_9c2c63ec28" transform="matrix(1,0,0,1,170.839,105.542)">
                <path d="M0,3C0.796,3 1.559,2.684 2.121,2.121C2.684,1.559 3,0.796 3,0C3,-0.796 2.684,-1.559 2.121,-2.121C1.559,-2.684 0.796,-3 0,-3C-0.796,-3 -1.559,-2.684 -2.121,-2.121C-2.684,-1.559 -3,-0.796 -3,0C-3,0.796 -2.684,1.559 -2.121,2.121C-1.559,2.684 -0.796,3 0,3Z" style="fill:rgb(76,114,176);fill-rule:nonzero;"/>
            </g>
            <g id="C1_0_9c2c63ec2825" serif:id="C1_0_9c2c63ec28" transform="matrix(1,0,0,1,162.632,103.249)">
                <path d="M0,3C0.796,3 1.559,2.684 2.121,2.121C2.684,1.559 3,0.796 3,0C3,-0.796 2.684,-1.559 2.121,-2.121C1.559,-2.684 0.796,-3 0,-3C-0.796,-3 -1.559,-2.684 -2.121,-2.121C-2.684,-1.559 -3,-0.796 -3,0C-3,0.796 -2.684,1.559 -2.121,2.121C-1.559,2.684 -0.796,3 0,3Z" style="fill:rgb(76,114,176);fill-rule:nonzero;"/>
            </g>
            <g id="C1_0_9c2c63ec2826" serif:id="C1_0_9c2c63ec28" transform="matrix(1,0,0,1,167.022,102.223)">
                <path d="M0,3C0.796,3 1.559,2.684 2.121,2.121C2.684,1.559 3,0.796 3,0C3,-0.796 2.684,-1.559 2.121,-2.121C1.559,-2.684 0.796,-3 0,-3C-0.796,-3 -1.559,-2.684 -2.121,-2.121C-2.684,-1.559 -3,-0.796 -3,0C-3,0.796 -2.684,1.559 -2.121,2.121C-1.559,2.684 -0.796,3 0,3Z" style="fill:rgb(76,114,176);fill-rule:nonzero;"/>
            </g>
            <g id="C1_0_9c2c63ec2827" serif:id="C1_0_9c2c63ec28" transform="matrix(1,0,0,1,158.408,100.923)">
                <path d="M0,3C0.796,3 1.559,2.684 2.121,2.121C2.684,1.559 3,0.796 3,0C3,-0.796 2.684,-1.559 2.121,-2.121C1.559,-2.684 0.796,-3 0,-3C-0.796,-3 -1.559,-2.684 -2.121,-2.121C-2.684,-1.559 -3,-0.796 -3,0C-3,0.796 -2.684,1.559 -2.121,2.121C-1.559,2.684 -0.796,3 0,3Z" style="fill:rgb(76,114,176);fill-rule:nonzero;"/>
            </g>
            <g id="C1_0_9c2c63ec2828" serif:id="C1_0_9c2c63ec28" transform="matrix(1,0,0,1,162.632,86.5985)">
                <path d="M0,3C0.796,3 1.559,2.684 2.121,2.121C2.684,1.559 3,0.796 3,0C3,-0.796 2.684,-1.559 2.121,-2.121C1.559,-2.684 0.796,-3 0,-3C-0.796,-3 -1.559,-2.684 -2.121,-2.121C-2.684,-1.559 -3,-0.796 -3,0C-3,0.796 -2.684,1.559 -2.121,2.121C-1.559,2.684 -0.796,3 0,3Z" style="fill:rgb(76,114,176);fill-rule:nonzero;"/>
            </g>
            <g id="C1_0_9c2c63ec2829" serif:id="C1_0_9c2c63ec28" transform="matrix(1,0,0,1,158.088,85.83)">
                <path d="M0,3C0.796,3 1.559,2.684 2.121,2.121C2.684,1.559 3,0.796 3,0C3,-0.796 2.684,-1.559 2.121,-2.121C1.559,-2.684 0.796,-3 0,-3C-0.796,-3 -1.559,-2.684 -2.121,-2.121C-2.684,-1.559 -3,-0.796 -3,0C-3,0.796 -2.684,1.559 -2.121,2.121C-1.559,2.684 -0.796,3 0,3Z" style="fill:rgb(76,114,176);fill-rule:nonzero;"/>
            </g>
            <g id="C1_0_9c2c63ec2830" serif:id="C1_0_9c2c63ec28" transform="matrix(1,0,0,1,160.887,81.08)">
                <path d="M0,3C0.796,3 1.559,2.684 2.121,2.121C2.684,1.559 3,0.796 3,0C3,-0.796 2.684,-1.559 2.121,-2.121C1.559,-2.684 0.796,-3 0,-3C-0.796,-3 -1.559,-2.684 -2.121,-2.121C-2.684,-1.559 -3,-0.796 -3,0C-3,0.796 -2.684,1.559 -2.121,2.121C-1.559,2.684 -0.796,3 0,3Z" style="fill:rgb(76,114,176);fill-rule:nonzero;"/>
            </g>
            <g id="C1_0_9c2c63ec2831" serif:id="C1_0_9c2c63ec28" transform="matrix(1,0,0,1,165.383,79.9234)">
                <path d="M0,3C0.796,3 1.559,2.684 2.121,2.121C2.684,1.559 3,0.796 3,0C3,-0.796 2.684,-1.559 2.121,-2.121C1.559,-2.684 0.796,-3 0,-3C-0.796,-3 -1.559,-2.684 -2.121,-2.121C-2.684,-1.559 -3,-0.796 -3,0C-3,0.796 -2.684,1.559 -2.121,2.121C-1.559,2.684 -0.796,3 0,3Z" style="fill:rgb(76,114,176);fill-rule:nonzero;"/>
            </g>
            <g id="C1_0_9c2c63ec2832" serif:id="C1_0_9c2c63ec28" transform="matrix(1,0,0,1,156.578,79.0401)">
                <path d="M0,3C0.796,3 1.559,2.684 2.121,2.121C2.684,1.559 3,0.796 3,0C3,-0.796 2.684,-1.559 2.121,-2.121C1.559,-2.684 0.796,-3 0,-3C-0.796,-3 -1.559,-2.684 -2.121,-2.121C-2.684,-1.559 -3,-0.796 -3,0C-3,0.796 -2.684,1.559 -2.121,2.121C-1.559,2.684 -0.796,3 0,3Z" style="fill:rgb(85,168,104);fill-rule:nonzero;"/>
            </g>
            <g id="C1_0_9c2c63ec2833" serif:id="C1_0_9c2c63ec28" transform="matrix(1,0,0,1,169.654,77.7496)">
                <path d="M0,3C0.796,3 1.559,2.684 2.121,2.121C2.684,1.559 3,0.796 3,0C3,-0.796 2.684,-1.559 2.121,-2.121C1.559,-2.684 0.796,-3 0,-3C-0.796,-3 -1.559,-2.684 -2.121,-2.121C-2.684,-1.559 -3,-0.796 -3,0C-3,0.796 -2.684,1.559 -2.121,2.121C-1.559,2.684 -0.796,3 0,3Z" style="fill:rgb(85,168,104);fill-rule:nonzero;"/>
            </g>
            <g id="C1_0_9c2c63ec2834" serif:id="C1_0_9c2c63ec28" transform="matrix(1,0,0,1,152.505,76.2932)">
                <path d="M0,3C0.796,3 1.559,2.684 2.121,2.121C2.684,1.559 3,0.796 3,0C3,-0.796 2.684,-1.559 2.121,-2.121C1.559,-2.684 0.796,-3 0,-3C-0.796,-3 -1.559,-2.684 -2.121,-2.121C-2.684,-1.559 -3,-0.796 -3,0C-3,0.796 -2.684,1.559 -2.121,2.121C-1.559,2.684 -0.796,3 0,3Z" style="fill:rgb(85,168,104);fill-rule:nonzero;"/>
            </g>
            <g id="C1_0_9c2c63ec2835" serif:id="C1_0_9c2c63ec28" transform="matrix(1,0,0,1,162.632,72.9815)">
                <path d="M0,3C0.796,3 1.559,2.684 2.121,2.121C2.684,1.559 3,0.796 3,0C3,-0.796 2.684,-1.559 2.121,-2.121C1.559,-2.684 0.796,-3 0,-3C-0.796,-3 -1.559,-2.684 -2.121,-2.121C-2.684,-1.559 -3,-0.796 -3,0C-3,0.796 -2.684,1.559 -2.121,2.121C-1.559,2.684 -0.796,3 0,3Z" style="fill:rgb(85,168,104);fill-rule:nonzero;"/>
            </g>
            <g id="C1_0_9c2c63ec2836" serif:id="C1_0_9c2c63ec28" transform="matrix(1,0,0,1,166.748,70.347)">
                <path d="M0,3C0.796,3 1.559,2.684 2.121,2.121C2.684,1.559 3,0.796 3,0C3,-0.796 2.684,-1.559 2.121,-2.121C1.559,-2.684 0.796,-3 0,-3C-0.796,-3 -1.559,-2.684 -2.121,-2.121C-2.684,-1.559 -3,-0.796 -3,0C-3,0.796 -2.684,1.559 -2.121,2.121C-1.559,2.684 -0.796,3 0,3Z" style="fill:rgb(76,114,176);fill-rule:nonzero;"/>
            </g>
            <g id="C1_0_9c2c63ec2837" serif:id="C1_0_9c2c63ec28" transform="matrix(1,0,0,1,162.632,63.0454)">
                <path d="M0,3C0.796,3 1.559,2.684 2.121,2.121C2.684,1.559 3,0.796 3,0C3,-0.796 2.684,-1.559 2.121,-2.121C1.559,-2.684 0.796,-3 0,-3C-0.796,-3 -1.559,-2.684 -2.121,-2.121C-2.684,-1.559 -3,-0.796 -3,0C-3,0.796 -2.684,1.559 -2.121,2.121C-1.559,2.684 -0.796,3 0,3Z" style="fill:rgb(85,168,104);fill-rule:nonzero;"/>
            </g>
            <g id="C1_0_9c2c63ec2838" serif:id="C1_0_9c2c63ec28" transform="matrix(1,0,0,1,158.138,61.8748)">
                <path d="M0,3C0.796,3 1.559,2.684 2.121,2.121C2.684,1.559 3,0.796 3,0C3,-0.796 2.684,-1.559 2.121,-2.121C1.559,-2.684 0.796,-3 0,-3C-0.796,-3 -1.559,-2.684 -2.121,-2.121C-2.684,-1.559 -3,-0.796 -3,0C-3,0.796 -2.684,1.559 -2.121,2.121C-1.559,2.684 -0.796,3 0,3Z" style="fill:rgb(85,168,104);fill-rule:nonzero;"/>
            </g>
            <g id="C1_0_9c2c63ec2839" serif:id="C1_0_9c2c63ec28" transform="matrix(1,0,0,1,162.632,54.0051)">
                <path d="M0,3C0.796,3 1.559,2.684 2.121,2.121C2.684,1.559 3,0.796 3,0C3,-0.796 2.684,-1.559 2.121,-2.121C1.559,-2.684 0.796,-3 0,-3C-0.796,-3 -1.559,-2.684 -2.121,-2.121C-2.684,-1.559 -3,-0.796 -3,0C-3,0.796 -2.684,1.559 -2.121,2.121C-1.559,2.684 -0.796,3 0,3Z" style="fill:rgb(76,114,176);fill-rule:nonzero;"/>
            </g>
        </g>
        <g id="axes_2" transform="matrix(1,0,0,1,126.685,70.3806)">
            <g id="matplotlib.axis_3">
                <g id="ytick_6">
                    <g id="m1f441a202a" transform="matrix(1,0,0,1,238.723,230.148)">
                        <path d="M0,0L6,0" style="fill:rgb(38,38,38);fill-rule:nonzero;stroke:rgb(38,38,38);stroke-width:1.6px;"/>
                    </g>
                    <g id="text_11" transform="matrix(1,0,0,1,255.923,237.305)">
                        <text x="0px" y="0px" style="font-family:'ArialMT', 'Arial', sans-serif;font-size:20px;fill:rgb(38,38,38);">0</text>
                    </g>
                </g>
                <g id="ytick_7">
                    <g id="m1f441a202a1" serif:id="m1f441a202a" transform="matrix(1,0,0,1,238.723,166.498)">
                        <path d="M0,0L6,0" style="fill:rgb(38,38,38);fill-rule:nonzero;stroke:rgb(38,38,38);stroke-width:1.6px;"/>
                    </g>
                    <g id="text_12" transform="matrix(1,0,0,1,255.923,173.655)">
                        <text x="0px" y="0px" style="font-family:'ArialMT', 'Arial', sans-serif;font-size:20px;fill:rgb(38,38,38);">2</text>
                    </g>
                </g>
                <g id="ytick_8">
                    <g id="m1f441a202a2" serif:id="m1f441a202a" transform="matrix(1,0,0,1,238.723,102.847)">
                        <path d="M0,0L6,0" style="fill:rgb(38,38,38);fill-rule:nonzero;stroke:rgb(38,38,38);stroke-width:1.6px;"/>
                    </g>
                    <g id="text_13" transform="matrix(1,0,0,1,255.923,110.005)">
                        <text x="0px" y="0px" style="font-family:'ArialMT', 'Arial', sans-serif;font-size:20px;fill:rgb(38,38,38);">4</text>
                    </g>
                </g>
            </g>
            <g id="m3e556b128b" transform="matrix(1,0,0,1,0,459.814)">
                <path d="M208.365,-324.124L208.288,-324.124L208.288,-324.596L208.288,-325.068L208.288,-325.54L208.288,-326.011L208.288,-326.483L208.288,-326.955L208.288,-327.426L208.288,-327.898L208.288,-328.37L208.288,-328.841L208.288,-329.313L208.288,-329.785L208.288,-330.256L208.288,-330.728L208.288,-331.2L208.288,-331.672L208.288,-332.143L208.288,-332.615L208.288,-333.087L208.288,-333.558L208.288,-334.03L208.288,-334.502L208.288,-334.973L208.288,-335.445L208.288,-335.917L208.288,-336.388L208.288,-336.86L208.288,-337.332L208.288,-337.804L208.288,-338.275L208.288,-338.747L208.288,-339.219L208.288,-339.69L208.288,-340.162L208.288,-340.634L208.288,-341.105L208.288,-341.577L208.288,-342.049L208.288,-342.52L208.288,-342.992L208.288,-343.464L208.288,-343.936L208.288,-344.407L208.288,-344.879L208.288,-345.351L208.288,-345.822L208.288,-346.294L208.288,-346.766L208.288,-347.237L208.288,-347.709L208.288,-348.181L208.288,-348.652L208.288,-349.124L208.288,-349.596L208.288,-350.068L208.288,-350.539L208.288,-351.011L208.288,-351.483L208.288,-351.954L208.288,-352.426L208.288,-352.898L208.288,-353.369L208.288,-353.841L208.288,-354.313L208.288,-354.784L208.288,-355.256L208.288,-355.728L208.288,-356.2L208.288,-356.671L208.288,-357.143L208.288,-357.615L208.288,-358.086L208.288,-358.558L208.288,-359.03L208.288,-359.501L208.288,-359.973L208.288,-360.445L208.288,-360.917L208.288,-361.388L208.288,-361.86L208.288,-362.332L208.288,-362.803L208.288,-363.275L208.288,-363.747L208.288,-364.218L208.288,-364.69L208.288,-365.162L208.288,-365.633L208.288,-366.105L208.288,-366.577L208.288,-367.049L208.288,-367.52L208.288,-367.992L208.288,-368.464L208.288,-368.935L208.288,-369.407L208.288,-369.879L208.288,-370.35L208.288,-370.822L208.379,-370.822L208.404,-370.35L208.427,-369.879L208.447,-369.407L208.468,-368.935L208.494,-368.464L208.534,-367.992L208.595,-367.52L208.685,-367.049L208.805,-366.577L208.947,-366.105L209.094,-365.633L209.229,-365.162L209.339,-364.69L209.428,-364.218L209.512,-363.747L209.615,-363.275L209.754,-362.803L209.938,-362.332L210.166,-361.86L210.436,-361.388L210.747,-360.917L211.102,-360.445L211.5,-359.973L211.933,-359.501L212.391,-359.03L212.864,-358.558L213.355,-358.086L213.873,-357.615L214.427,-357.143L215.017,-356.671L215.634,-356.2L216.265,-355.728L216.91,-355.256L217.579,-354.784L218.28,-354.313L219.002,-353.841L219.714,-353.369L220.374,-352.898L220.956,-352.426L221.461,-351.954L221.913,-351.483L222.333,-351.011L222.727,-350.539L223.073,-350.068L223.333,-349.596L223.478,-349.124L223.505,-348.652L223.437,-348.181L223.315,-347.709L223.169,-347.237L223.014,-346.766L222.843,-346.294L222.637,-345.822L222.373,-345.351L222.037,-344.879L221.621,-344.407L221.124,-343.936L220.559,-343.464L219.946,-342.992L219.316,-342.52L218.703,-342.049L218.136,-341.577L217.622,-341.105L217.144,-340.634L216.671,-340.162L216.176,-339.69L215.653,-339.219L215.119,-338.747L214.598,-338.275L214.105,-337.804L213.639,-337.332L213.184,-336.86L212.727,-336.388L212.267,-335.917L211.817,-335.445L211.398,-334.973L211.024,-334.502L210.698,-334.03L210.409,-333.558L210.143,-333.087L209.891,-332.615L209.651,-332.143L209.427,-331.672L209.227,-331.2L209.057,-330.728L208.92,-330.256L208.817,-329.785L208.742,-329.313L208.689,-328.841L208.647,-328.37L208.609,-327.898L208.571,-327.426L208.531,-326.955L208.49,-326.483L208.454,-326.011L208.424,-325.54L208.401,-325.068L208.382,-324.596L208.365,-324.124Z" style="fill-opacity:0.298039;fill-rule:nonzero;stroke:black;stroke-opacity:0.298039;stroke-width:0.48px;"/>
            </g>
            <path id="LineCollection_1" d="M101.759,230.148L238.723,230.148" style="fill:none;stroke:black;stroke-width:0.75px;"/>
            <path id="LineCollection_2" d="M162.632,112.093L238.723,112.093" style="fill:none;stroke:black;stroke-width:0.75px;"/>
            <g id="m81cf79c97c" transform="matrix(1,0,0,1,208.286,112.093)">
                <path d="M0,5C1.326,5 2.598,4.473 3.536,3.536C4.473,2.598 5,1.326 5,0C5,-1.326 4.473,-2.598 3.536,-3.536C2.598,-4.473 1.326,-5 0,-5C-1.326,-5 -2.598,-4.473 -3.536,-3.536C-4.473,-2.598 -5,-1.326 -5,0C-5,1.326 -4.473,2.598 -3.536,3.536C-2.598,4.473 -1.326,5 0,5Z" style="fill-rule:nonzero;"/>
            </g>
            <path id="line2d_12" d="M208.286,126.107L208.286,98.557" style="fill:none;stroke:black;stroke-width:2px;stroke-linecap:round;"/>
            <path id="patch_5" d="M238.723,230.148L238.723,102.847" style="fill:none;stroke:rgb(38,38,38);stroke-width:1.25px;stroke-linecap:square;"/>
        </g>
    </g>
</svg>
