<?xml version="1.0" encoding="UTF-8" standalone="no"?><!DOCTYPE svg PUBLIC "-//W3C//DTD SVG 1.1//EN" "http://www.w3.org/Graphics/SVG/1.1/DTD/svg11.dtd"><svg width="100%" height="100%" viewBox="0 0 500 500" version="1.1" xmlns="http://www.w3.org/2000/svg" xmlns:xlink="http://www.w3.org/1999/xlink" xml:space="preserve" xmlns:serif="http://www.serif.com/" style="fill-rule:evenodd;clip-rule:evenodd;"><g><g id="matplotlib.axis_2"><g id="ytick_1"><path id="m41cbed357a" d="M113.608,472.827l-10.5,0" style="fill:#262626;fill-rule:nonzero;stroke:#262626;stroke-width:2.8px;"/><text id="text_3" x="43.603px" y="485.353px" style="font-family:'ArialMT', 'Arial', sans-serif;font-size:35px;fill:#262626;">−2</text></g><g id="ytick_2"><path id="m41cbed357a1" serif:id="m41cbed357a" d="M113.608,361.439l-10.5,0" style="fill:#262626;fill-rule:nonzero;stroke:#262626;stroke-width:2.8px;"/><text id="text_4" x="64.043px" y="373.966px" style="font-family:'ArialMT', 'Arial', sans-serif;font-size:35px;fill:#262626;">0</text></g><g id="ytick_3"><path id="m41cbed357a2" serif:id="m41cbed357a" d="M113.608,250.052l-10.5,0" style="fill:#262626;fill-rule:nonzero;stroke:#262626;stroke-width:2.8px;"/><text id="text_5" x="64.043px" y="262.578px" style="font-family:'ArialMT', 'Arial', sans-serif;font-size:35px;fill:#262626;">2</text></g><g id="ytick_4"><path id="m41cbed357a3" serif:id="m41cbed357a" d="M113.608,138.664l-10.5,0" style="fill:#262626;fill-rule:nonzero;stroke:#262626;stroke-width:2.8px;"/><text id="text_6" x="64.043px" y="151.191px" style="font-family:'ArialMT', 'Arial', sans-serif;font-size:35px;fill:#262626;">4</text></g><g id="ytick_5"><path id="m41cbed357a4" serif:id="m41cbed357a" d="M113.608,27.277l-10.5,0" style="fill:#262626;fill-rule:nonzero;stroke:#262626;stroke-width:2.8px;"/><text id="text_7" x="64.043px" y="39.803px" style="font-family:'ArialMT', 'Arial', sans-serif;font-size:35px;fill:#262626;">6</text></g></g><path id="line2d_8" d="M123.539,287.278l99.305,-243.654" style="fill:none;stroke:#4c72b0;stroke-width:1.31px;stroke-linecap:round;"/><path id="line2d_9" d="M123.539,321.603l99.305,-187.79" style="fill:none;stroke:#4c72b0;stroke-width:1.31px;stroke-linecap:round;"/><path id="line2d_10" d="M123.539,447.509l99.305,-319.503" style="fill:none;stroke:#4c72b0;stroke-width:1.31px;stroke-linecap:round;"/><path id="line2d_11" d="M123.539,361.906l99.305,-218.81" style="fill:none;stroke:#4c72b0;stroke-width:1.31px;stroke-linecap:round;"/><path id="line2d_12" d="M123.539,326.835l99.305,-65.379" style="fill:none;stroke:#4c72b0;stroke-width:1.31px;stroke-linecap:round;"/><path id="line2d_13" d="M123.539,401.544l99.305,-271.743" style="fill:none;stroke:#4c72b0;stroke-width:1.31px;stroke-linecap:round;"/><path id="line2d_14" d="M123.539,346.652l99.305,-116.021" style="fill:none;stroke:#4c72b0;stroke-width:1.31px;stroke-linecap:round;"/><path id="line2d_15" d="M123.539,355.394l99.305,-229.663" style="fill:none;stroke:#4c72b0;stroke-width:1.31px;stroke-linecap:round;"/><path id="line2d_16" d="M123.539,361.2l99.305,-188.338" style="fill:none;stroke:#4c72b0;stroke-width:1.31px;stroke-linecap:round;"/><path id="line2d_17" d="M123.539,371.164l99.305,-298.941" style="fill:none;stroke:#4c72b0;stroke-width:1.31px;stroke-linecap:round;"/><path id="line2d_18" d="M123.539,337.323l99.305,-187.246" style="fill:none;stroke:#4c72b0;stroke-width:1.31px;stroke-linecap:round;"/><path id="line2d_19" d="M123.539,294.438l99.305,-156.672" style="fill:none;stroke:#4c72b0;stroke-width:1.31px;stroke-linecap:round;"/><path id="line2d_20" d="M123.539,415.188l99.305,-210.631" style="fill:none;stroke:#4c72b0;stroke-width:1.31px;stroke-linecap:round;"/><path id="line2d_21" d="M123.539,304.171l99.305,-204.853" style="fill:none;stroke:#4c72b0;stroke-width:1.31px;stroke-linecap:round;"/><path id="line2d_22" d="M123.539,348.706l99.305,-198.994" style="fill:none;stroke:#4c72b0;stroke-width:1.31px;stroke-linecap:round;"/><path id="line2d_23" d="M123.539,336.648l99.305,-235.985" style="fill:none;stroke:#4c72b0;stroke-width:1.31px;stroke-linecap:round;"/><path id="line2d_24" d="M123.539,424.741l99.305,-335.759" style="fill:none;stroke:#4c72b0;stroke-width:1.31px;stroke-linecap:round;"/><path id="line2d_25" d="M123.539,353.913l99.305,-262.907" style="fill:none;stroke:#4c72b0;stroke-width:1.31px;stroke-linecap:round;"/><path id="line2d_26" d="M123.539,278.76l99.305,-125.546" style="fill:none;stroke:#4c72b0;stroke-width:1.31px;stroke-linecap:round;"/><path id="line2d_27" d="M123.539,421.578l99.305,-167.009" style="fill:none;stroke:#4c72b0;stroke-width:1.31px;stroke-linecap:round;"/><path id="line2d_28" d="M123.539,471.587l99.305,-261.115" style="fill:none;stroke:#55a868;stroke-width:1.31px;stroke-linecap:round;"/><path id="line2d_29" d="M123.539,458.534l99.305,-371.098" style="fill:none;stroke:#55a868;stroke-width:1.31px;stroke-linecap:round;"/><path id="line2d_30" d="M123.539,346.621l99.305,-269.788" style="fill:none;stroke:#55a868;stroke-width:1.31px;stroke-linecap:round;"/><path id="line2d_31" d="M123.539,228.612l99.305,-169.167" style="fill:none;stroke:#55a868;stroke-width:1.31px;stroke-linecap:round;"/><path id="line2d_32" d="M123.539,298.857l99.305,-126.539" style="fill:none;stroke:#55a868;stroke-width:1.31px;stroke-linecap:round;"/><path id="line2d_33" d="M123.539,268.285l99.305,-69.478" style="fill:none;stroke:#55a868;stroke-width:1.31px;stroke-linecap:round;"/><path id="line2d_34" d="M123.539,355.917l99.305,-273.288" style="fill:none;stroke:#55a868;stroke-width:1.31px;stroke-linecap:round;"/><path id="line2d_35" d="M123.539,283.58l99.305,-198.403" style="fill:none;stroke:#55a868;stroke-width:1.31px;stroke-linecap:round;"/><path id="line2d_36" d="M123.539,376.546l99.305,-239.236" style="fill:none;stroke:#55a868;stroke-width:1.31px;stroke-linecap:round;"/><path id="line2d_37" d="M123.539,327.288l99.305,-188.37" style="fill:none;stroke:#55a868;stroke-width:1.31px;stroke-linecap:round;"/><path id="line2d_38" d="M123.539,376.327l99.305,-155.011" style="fill:none;stroke:#55a868;stroke-width:1.31px;stroke-linecap:round;"/><path id="line2d_39" d="M123.539,392.033l99.305,-240.613" style="fill:none;stroke:#55a868;stroke-width:1.31px;stroke-linecap:round;"/><path id="line2d_40" d="M123.539,354.048l99.305,-296.652" style="fill:none;stroke:#55a868;stroke-width:1.31px;stroke-linecap:round;"/><path id="line2d_41" d="M123.539,387.958l99.305,-193.161" style="fill:none;stroke:#55a868;stroke-width:1.31px;stroke-linecap:round;"/><path id="line2d_42" d="M123.539,288.566l99.305,-121.107" style="fill:none;stroke:#55a868;stroke-width:1.31px;stroke-linecap:round;"/><path id="line2d_43" d="M123.539,350.578l99.305,-202.758" style="fill:none;stroke:#55a868;stroke-width:1.31px;stroke-linecap:round;"/><path id="line2d_44" d="M123.539,339.15l99.305,-180.559" style="fill:none;stroke:#55a868;stroke-width:1.31px;stroke-linecap:round;"/><path id="line2d_45" d="M123.539,380.244l99.305,-130.955" style="fill:none;stroke:#55a868;stroke-width:1.31px;stroke-linecap:round;"/><path id="line2d_46" d="M123.539,291.462l99.305,-122.143" style="fill:none;stroke:#55a868;stroke-width:1.31px;stroke-linecap:round;"/><path id="line2d_47" d="M123.539,402.206l99.305,-228.941" style="fill:none;stroke:#55a868;stroke-width:1.31px;stroke-linecap:round;"/><path id="patch_3" d="M113.608,472.827l0,-445.55" style="fill:none;stroke:#262626;stroke-width:2.19px;stroke-linecap:square;"/><g id="axes_2"><g id="matplotlib.axis_3"><g id="ytick_6"><path id="m780496ae1a" d="M406.558,351.874l10.5,0" style="fill:#262626;fill-rule:nonzero;stroke:#262626;stroke-width:2.8px;"/><text id="text_11" x="436.658px" y="364.4px" style="font-family:'ArialMT', 'Arial', sans-serif;font-size:35px;fill:#262626;">0</text></g><g id="ytick_7"><path id="m780496ae1a1" serif:id="m780496ae1a" d="M406.558,240.486l10.5,0" style="fill:#262626;fill-rule:nonzero;stroke:#262626;stroke-width:2.8px;"/><text id="text_12" x="436.658px" y="253.012px" style="font-family:'ArialMT', 'Arial', sans-serif;font-size:35px;fill:#262626;">2</text></g><g id="ytick_8"><path id="m780496ae1a2" serif:id="m780496ae1a" d="M406.558,129.099l10.5,0" style="fill:#262626;fill-rule:nonzero;stroke:#262626;stroke-width:2.8px;"/><text id="text_13" x="436.658px" y="141.625px" style="font-family:'ArialMT', 'Arial', sans-serif;font-size:35px;fill:#262626;">4</text></g></g><path id="m37e5fb40e2" d="M297.466,179.109l-0.142,0l0,-0.739l0,-0.739l0,-0.739l0,-0.739l0,-0.74l0,-0.739l0,-0.739l0,-0.739l0,-0.739l0,-0.739l0,-0.739l0,-0.739l0,-0.739l0,-0.739l0,-0.739l0,-0.739l0,-0.739l0,-0.739l0,-0.74l0,-0.739l0,-0.739l0,-0.739l0,-0.739l0,-0.739l0,-0.739l0,-0.739l0,-0.739l0,-0.739l0,-0.739l0,-0.739l0,-0.739l0,-0.739l0,-0.74l0,-0.739l0,-0.739l0,-0.739l0,-0.739l0,-0.739l0,-0.739l0,-0.739l0,-0.739l0,-0.739l0,-0.739l0,-0.739l0,-0.739l0,-0.739l0,-0.74l0,-0.739l0,-0.739l0,-0.739l0,-0.739l0,-0.739l0,-0.739l0,-0.739l0,-0.739l0,-0.739l0,-0.739l0,-0.739l0,-0.739l0,-0.74l0,-0.739l0,-0.739l0,-0.739l0,-0.739l0,-0.739l0,-0.739l0,-0.739l0,-0.739l0,-0.739l0,-0.739l0,-0.739l0,-0.739l0,-0.739l0,-0.74l0,-0.739l0,-0.739l0,-0.739l0,-0.739l0,-0.739l0,-0.739l0,-0.739l0,-0.739l0,-0.739l0,-0.739l0,-0.739l0,-0.739l0,-0.739l0,-0.74l0,-0.739l0,-0.739l0,-0.739l0,-0.739l0,-0.739l0,-0.739l0,-0.739l0,-0.739l0,-0.739l0,-0.739l0,-0.739l0.061,0l0.01,0.739l0.008,0.739l0.006,0.739l0.008,0.739l0.011,0.739l0.019,0.739l0.029,0.739l0.045,0.739l0.065,0.739l0.087,0.739l0.108,0.739l0.122,0.74l0.133,0.739l0.143,0.739l0.16,0.739l0.185,0.739l0.22,0.739l0.26,0.739l0.301,0.739l0.337,0.739l0.366,0.739l0.388,0.739l0.408,0.739l0.433,0.739l0.472,0.739l0.525,0.74l0.586,0.739l0.641,0.739l0.688,0.739l0.73,0.739l0.774,0.739l0.822,0.739l0.866,0.739l0.892,0.739l0.894,0.739l0.879,0.739l0.863,0.739l0.871,0.739l0.912,0.739l0.983,0.74l1.059,0.739l1.1,0.739l1.075,0.739l0.981,0.739l0.848,0.739l0.718,0.739l0.615,0.739l0.537,0.739l0.469,0.739l0.407,0.739l0.338,0.739l0.249,0.739l0.118,0.74l-0.058,0.739l-0.255,0.739l-0.435,0.739l-0.561,0.739l-0.616,0.739l-0.6,0.739l-0.535,0.739l-0.453,0.739l-0.398,0.739l-0.399,0.739l-0.474,0.739l-0.623,0.739l-0.826,0.739l-1.049,0.74l-1.246,0.739l-1.376,0.739l-1.416,0.739l-1.369,0.739l-1.259,0.739l-1.119,0.739l-0.977,0.739l-0.85,0.739l-0.741,0.739l-0.654,0.739l-0.587,0.739l-0.546,0.739l-0.532,0.739l-0.531,0.74l-0.524,0.739l-0.491,0.739l-0.43,0.739l-0.354,0.739l-0.285,0.739l-0.239,0.739l-0.216,0.739l-0.209,0.739l-0.208,0.739l-0.208,0.739l-0.205,0.739l-0.195,0.739l-0.175,0.739l-0.146,0.74l-0.113,0.739l-0.084,0.739l-0.064,0.739l-0.052,0.739Z" style="fill-opacity:0.298039;fill-rule:nonzero;stroke:#000;stroke-opacity:0.298039;stroke-width:0.84px;"/><path id="LineCollection_1" d="M123.539,351.874l283.019,0" style="fill:none;stroke:#000;stroke-width:1.31px;"/><path id="LineCollection_2" d="M222.844,145.278l183.714,0" style="fill:none;stroke:#000;stroke-width:1.31px;"/><path id="m3f5c8df1c7" d="M297.322,154.028c2.321,0 4.547,-0.922 6.188,-2.563c1.64,-1.641 2.562,-3.866 2.562,-6.187c0,-2.32 -0.922,-4.546 -2.562,-6.187c-1.641,-1.641 -3.867,-2.563 -6.188,-2.563c-2.32,0 -4.546,0.922 -6.187,2.563c-1.641,1.641 -2.563,3.867 -2.563,6.187c0,2.321 0.922,4.546 2.563,6.187c1.641,1.641 3.867,2.563 6.187,2.563Z" style="fill-rule:nonzero;"/><path id="line2d_56" d="M297.322,166.14l0,-42.838" style="fill:none;stroke:#000;stroke-width:3.5px;stroke-linecap:round;"/><path id="patch_5" d="M406.558,351.874l0,-222.775" style="fill:none;stroke:#262626;stroke-width:2.19px;stroke-linecap:square;"/></g><g id="axes_21" serif:id="axes_2"><g id="matplotlib.axis_31" serif:id="matplotlib.axis_3"><g id="ytick_61" serif:id="ytick_6"><path id="m780496ae1a3" serif:id="m780496ae1a" d="M406.558,351.874l10.5,0" style="fill:#262626;fill-rule:nonzero;stroke:#262626;stroke-width:2.8px;"/><text id="text_111" serif:id="text_11" x="436.658px" y="364.4px" style="font-family:'ArialMT', 'Arial', sans-serif;font-size:35px;fill:#262626;">0</text></g><g id="ytick_71" serif:id="ytick_7"><path id="m780496ae1a4" serif:id="m780496ae1a" d="M406.558,240.486l10.5,0" style="fill:#262626;fill-rule:nonzero;stroke:#262626;stroke-width:2.8px;"/><text id="text_121" serif:id="text_12" x="436.658px" y="253.012px" style="font-family:'ArialMT', 'Arial', sans-serif;font-size:35px;fill:#262626;">2</text></g><g id="ytick_81" serif:id="ytick_8"><path id="m780496ae1a5" serif:id="m780496ae1a" d="M406.558,129.099l10.5,0" style="fill:#262626;fill-rule:nonzero;stroke:#262626;stroke-width:2.8px;"/><text id="text_131" serif:id="text_13" x="436.658px" y="141.625px" style="font-family:'ArialMT', 'Arial', sans-serif;font-size:35px;fill:#262626;">4</text></g></g><path id="m37e5fb40e21" serif:id="m37e5fb40e2" d="M297.466,179.109l-0.142,0l0,-0.739l0,-0.739l0,-0.739l0,-0.739l0,-0.74l0,-0.739l0,-0.739l0,-0.739l0,-0.739l0,-0.739l0,-0.739l0,-0.739l0,-0.739l0,-0.739l0,-0.739l0,-0.739l0,-0.739l0,-0.739l0,-0.74l0,-0.739l0,-0.739l0,-0.739l0,-0.739l0,-0.739l0,-0.739l0,-0.739l0,-0.739l0,-0.739l0,-0.739l0,-0.739l0,-0.739l0,-0.739l0,-0.74l0,-0.739l0,-0.739l0,-0.739l0,-0.739l0,-0.739l0,-0.739l0,-0.739l0,-0.739l0,-0.739l0,-0.739l0,-0.739l0,-0.739l0,-0.739l0,-0.74l0,-0.739l0,-0.739l0,-0.739l0,-0.739l0,-0.739l0,-0.739l0,-0.739l0,-0.739l0,-0.739l0,-0.739l0,-0.739l0,-0.739l0,-0.74l0,-0.739l0,-0.739l0,-0.739l0,-0.739l0,-0.739l0,-0.739l0,-0.739l0,-0.739l0,-0.739l0,-0.739l0,-0.739l0,-0.739l0,-0.739l0,-0.74l0,-0.739l0,-0.739l0,-0.739l0,-0.739l0,-0.739l0,-0.739l0,-0.739l0,-0.739l0,-0.739l0,-0.739l0,-0.739l0,-0.739l0,-0.739l0,-0.74l0,-0.739l0,-0.739l0,-0.739l0,-0.739l0,-0.739l0,-0.739l0,-0.739l0,-0.739l0,-0.739l0,-0.739l0,-0.739l0.061,0l0.01,0.739l0.008,0.739l0.006,0.739l0.008,0.739l0.011,0.739l0.019,0.739l0.029,0.739l0.045,0.739l0.065,0.739l0.087,0.739l0.108,0.739l0.122,0.74l0.133,0.739l0.143,0.739l0.16,0.739l0.185,0.739l0.22,0.739l0.26,0.739l0.301,0.739l0.337,0.739l0.366,0.739l0.388,0.739l0.408,0.739l0.433,0.739l0.472,0.739l0.525,0.74l0.586,0.739l0.641,0.739l0.688,0.739l0.73,0.739l0.774,0.739l0.822,0.739l0.866,0.739l0.892,0.739l0.894,0.739l0.879,0.739l0.863,0.739l0.871,0.739l0.912,0.739l0.983,0.74l1.059,0.739l1.1,0.739l1.075,0.739l0.981,0.739l0.848,0.739l0.718,0.739l0.615,0.739l0.537,0.739l0.469,0.739l0.407,0.739l0.338,0.739l0.249,0.739l0.118,0.74l-0.058,0.739l-0.255,0.739l-0.435,0.739l-0.561,0.739l-0.616,0.739l-0.6,0.739l-0.535,0.739l-0.453,0.739l-0.398,0.739l-0.399,0.739l-0.474,0.739l-0.623,0.739l-0.826,0.739l-1.049,0.74l-1.246,0.739l-1.376,0.739l-1.416,0.739l-1.369,0.739l-1.259,0.739l-1.119,0.739l-0.977,0.739l-0.85,0.739l-0.741,0.739l-0.654,0.739l-0.587,0.739l-0.546,0.739l-0.532,0.739l-0.531,0.74l-0.524,0.739l-0.491,0.739l-0.43,0.739l-0.354,0.739l-0.285,0.739l-0.239,0.739l-0.216,0.739l-0.209,0.739l-0.208,0.739l-0.208,0.739l-0.205,0.739l-0.195,0.739l-0.175,0.739l-0.146,0.74l-0.113,0.739l-0.084,0.739l-0.064,0.739l-0.052,0.739Z" style="fill:#060000;fill-opacity:0;fill-rule:nonzero;stroke:#000;stroke-opacity:0.298039;stroke-width:0.84px;"/><path id="LineCollection_11" serif:id="LineCollection_1" d="M123.539,351.874l283.019,0" style="fill:none;stroke:#000;stroke-width:1.31px;"/><path id="LineCollection_21" serif:id="LineCollection_2" d="M222.844,145.278l183.714,0" style="fill:none;stroke:#000;stroke-width:1.31px;"/><path id="m3f5c8df1c71" serif:id="m3f5c8df1c7" d="M297.322,154.028c2.321,0 4.547,-0.922 6.188,-2.563c1.64,-1.641 2.562,-3.866 2.562,-6.187c0,-2.32 -0.922,-4.546 -2.562,-6.187c-1.641,-1.641 -3.867,-2.563 -6.188,-2.563c-2.32,0 -4.546,0.922 -6.187,2.563c-1.641,1.641 -2.563,3.867 -2.563,6.187c0,2.321 0.922,4.546 2.563,6.187c1.641,1.641 3.867,2.563 6.187,2.563Z" style="fill-rule:nonzero;"/><path id="line2d_561" serif:id="line2d_56" d="M297.322,166.14l0,-42.838" style="fill:none;stroke:#000;stroke-width:3.5px;stroke-linecap:round;"/><path id="patch_51" serif:id="patch_5" d="M406.558,351.874l0,-222.775" style="fill:none;stroke:#262626;stroke-width:2.19px;stroke-linecap:square;"/></g></g></svg>