<?xml version="1.0" encoding="utf-8" standalone="no"?>
<!DOCTYPE svg PUBLIC "-//W3C//DTD SVG 1.1//EN"
  "http://www.w3.org/Graphics/SVG/1.1/DTD/svg11.dtd">
<!-- Created with matplotlib (http://matplotlib.org/) -->
<svg height="592.258541pt" version="1.1" viewBox="0 0 702.402 592.258541" width="702.402pt" xmlns="http://www.w3.org/2000/svg" xmlns:xlink="http://www.w3.org/1999/xlink">
 <defs>
  <style type="text/css">
    @import url('https://fonts.googleapis.com/css?family=Work+Sans');
    *{stroke-linecap:butt;stroke-linejoin:round;}
  </style>
 </defs>
 <g id="figure_1">
  <g id="patch_1">
   <path d="M 0 592.258541
L 702.402 592.258541
L 702.402 0
L 0 0
z
" style="fill:none;"/>
  </g>
  <g id="axes_1">
   <g id="patch_2">
    <path d="M 120.502 218.64
L 306.502 218.64
L 306.502 19.2
L 120.502 19.2
z
" style="fill:none;"/>
   </g>
   <g id="matplotlib.axis_1">
    <g id="ytick_1">
     <g id="line2d_1">
      <defs>
       <path d="M 0 0
L -12 0
" id="m1d9860fd6f" style="stroke:#262626;stroke-width:1.6;"/>
      </defs>
      <g>
       <use style="fill:#262626;stroke:#262626;stroke-width:1.6;" x="120.502" xlink:href="#m1d9860fd6f" y="209.215894"/>
      </g>
     </g>
     <g id="text_1">
      <text style="fill:#262626;font-family:Work Sans;font-size:20px;font-style:normal;font-weight:normal;text-anchor:end;" transform="rotate(-0, 97.302, 216.406519)" x="97.302" y="216.406519">0</text>
     </g>
    </g>
    <g id="ytick_2">
     <g id="line2d_2">
      <g>
       <use style="fill:#262626;stroke:#262626;stroke-width:1.6;" x="120.502" xlink:href="#m1d9860fd6f" y="178.724039"/>
      </g>
     </g>
     <g id="text_2">
      <text style="fill:#262626;font-family:Work Sans;font-size:20px;font-style:normal;font-weight:normal;text-anchor:end;" transform="rotate(-0, 97.302, 185.914664)" x="97.302" y="185.914664">1</text>
     </g>
    </g>
    <g id="ytick_3">
     <g id="line2d_3">
      <g>
       <use style="fill:#262626;stroke:#262626;stroke-width:1.6;" x="120.502" xlink:href="#m1d9860fd6f" y="148.232185"/>
      </g>
     </g>
     <g id="text_3">
      <text style="fill:#262626;font-family:Work Sans;font-size:20px;font-style:normal;font-weight:normal;text-anchor:end;" transform="rotate(-0, 97.302, 155.42281)" x="97.302" y="155.42281">2</text>
     </g>
    </g>
    <g id="ytick_4">
     <g id="line2d_4">
      <g>
       <use style="fill:#262626;stroke:#262626;stroke-width:1.6;" x="120.502" xlink:href="#m1d9860fd6f" y="117.740331"/>
      </g>
     </g>
     <g id="text_4">
      <text style="fill:#262626;font-family:Work Sans;font-size:20px;font-style:normal;font-weight:normal;text-anchor:end;" transform="rotate(-0, 97.302, 124.930956)" x="97.302" y="124.930956">3</text>
     </g>
    </g>
    <g id="ytick_5">
     <g id="line2d_5">
      <g>
       <use style="fill:#262626;stroke:#262626;stroke-width:1.6;" x="120.502" xlink:href="#m1d9860fd6f" y="87.248476"/>
      </g>
     </g>
     <g id="text_5">
      <text style="fill:#262626;font-family:Work Sans;font-size:20px;font-style:normal;font-weight:normal;text-anchor:end;" transform="rotate(-0, 97.302, 94.439101)" x="97.302" y="94.439101">4</text>
     </g>
    </g>
    <g id="ytick_6">
     <g id="line2d_6">
      <g>
       <use style="fill:#262626;stroke:#262626;stroke-width:1.6;" x="120.502" xlink:href="#m1d9860fd6f" y="56.756622"/>
      </g>
     </g>
     <g id="text_6">
      <text style="fill:#262626;font-family:Work Sans;font-size:20px;font-style:normal;font-weight:normal;text-anchor:end;" transform="rotate(-0, 97.302, 63.947247)" x="97.302" y="63.947247">5</text>
     </g>
    </g>
    <g id="ytick_7">
     <g id="line2d_7">
      <g>
       <use style="fill:#262626;stroke:#262626;stroke-width:1.6;" x="120.502" xlink:href="#m1d9860fd6f" y="26.264768"/>
      </g>
     </g>
     <g id="text_7">
      <text style="fill:#262626;font-family:Work Sans;font-size:20px;font-style:normal;font-weight:normal;text-anchor:end;" transform="rotate(-0, 97.302, 33.455393)" x="97.302" y="33.455393">6</text>
     </g>
    </g>
    <g id="text_8">
     <text style="fill:#262626;font-family:Work Sans;font-size:22px;font-style:normal;font-weight:normal;text-anchor:middle;" transform="rotate(-90, 75.96325, 118.92)" x="75.96325" y="118.92">value</text>
    </g>
   </g>
   <g id="line2d_8">
    <path clip-path="url(#pb3e5892815)" d="M 147.073429 131.09055
L 253.359143 90.87867
" style="fill:none;stroke:#000000;stroke-linecap:round;"/>
   </g>
   <g id="line2d_9">
    <path clip-path="url(#pb3e5892815)" d="M 147.073429 126.000214
L 253.359143 109.465196
" style="fill:none;stroke:#000000;stroke-linecap:round;"/>
   </g>
   <g id="line2d_10">
    <path clip-path="url(#pb3e5892815)" d="M 147.073429 108.1882
L 253.359143 91.63193
" style="fill:none;stroke:#000000;stroke-linecap:round;"/>
   </g>
   <g id="line2d_11">
    <path clip-path="url(#pb3e5892815)" d="M 147.073429 132.918791
L 253.359143 80.736158
" style="fill:none;stroke:#000000;stroke-linecap:round;"/>
   </g>
   <g id="line2d_12">
    <path clip-path="url(#pb3e5892815)" d="M 147.073429 123.5325
L 253.359143 116.527226
" style="fill:none;stroke:#000000;stroke-linecap:round;"/>
   </g>
   <g id="line2d_13">
    <path clip-path="url(#pb3e5892815)" d="M 147.073429 123.996885
L 253.359143 87.270045
" style="fill:none;stroke:#000000;stroke-linecap:round;"/>
   </g>
   <g id="line2d_14">
    <path clip-path="url(#pb3e5892815)" d="M 147.073429 123.22774
L 253.359143 113.184702
" style="fill:none;stroke:#000000;stroke-linecap:round;"/>
   </g>
   <g id="line2d_15">
    <path clip-path="url(#pb3e5892815)" d="M 147.073429 116.825078
L 253.359143 103.694459
" style="fill:none;stroke:#000000;stroke-linecap:round;"/>
   </g>
   <g id="line2d_16">
    <path clip-path="url(#pb3e5892815)" d="M 147.073429 141.971889
L 253.359143 125.591377
" style="fill:none;stroke:#000000;stroke-linecap:round;"/>
   </g>
   <g id="line2d_17">
    <path clip-path="url(#pb3e5892815)" d="M 147.073429 126.631922
L 253.359143 104.993963
" style="fill:none;stroke:#000000;stroke-linecap:round;"/>
   </g>
   <g id="line2d_18">
    <path clip-path="url(#pb3e5892815)" d="M 147.073429 100.345203
L 253.359143 128.806714
" style="fill:none;stroke:#000000;stroke-linecap:round;"/>
   </g>
   <g id="line2d_19">
    <path clip-path="url(#pb3e5892815)" d="M 147.073429 136.324541
L 253.359143 108.740487
" style="fill:none;stroke:#000000;stroke-linecap:round;"/>
   </g>
   <g id="line2d_20">
    <path clip-path="url(#pb3e5892815)" d="M 147.073429 112.623218
L 253.359143 68.825415
" style="fill:none;stroke:#000000;stroke-linecap:round;"/>
   </g>
   <g id="line2d_21">
    <path clip-path="url(#pb3e5892815)" d="M 147.073429 110.473017
L 253.359143 93.76507
" style="fill:none;stroke:#000000;stroke-linecap:round;"/>
   </g>
   <g id="line2d_22">
    <path clip-path="url(#pb3e5892815)" d="M 147.073429 121.887031
L 253.359143 90.179148
" style="fill:none;stroke:#000000;stroke-linecap:round;"/>
   </g>
   <g id="line2d_23">
    <path clip-path="url(#pb3e5892815)" d="M 147.073429 108.585173
L 253.359143 96.922673
" style="fill:none;stroke:#000000;stroke-linecap:round;"/>
   </g>
   <g id="line2d_24">
    <path clip-path="url(#pb3e5892815)" d="M 147.073429 121.447304
L 253.359143 81.103892
" style="fill:none;stroke:#000000;stroke-linecap:round;"/>
   </g>
   <g id="line2d_25">
    <path clip-path="url(#pb3e5892815)" d="M 147.073429 122.409676
L 253.359143 96.389571
" style="fill:none;stroke:#000000;stroke-linecap:round;"/>
   </g>
   <g id="line2d_26">
    <path clip-path="url(#pb3e5892815)" d="M 147.073429 125.518257
L 253.359143 100.378001
" style="fill:none;stroke:#000000;stroke-linecap:round;"/>
   </g>
   <g id="line2d_27">
    <path clip-path="url(#pb3e5892815)" d="M 147.073429 130.129708
L 253.359143 111.891355
" style="fill:none;stroke:#000000;stroke-linecap:round;"/>
   </g>
   <g id="patch_3">
    <path d="M 120.502 209.215894
L 120.502 26.264768
" style="fill:none;stroke:#262626;stroke-linecap:square;stroke-linejoin:miter;stroke-width:1.25;"/>
   </g>
  </g>
  <g id="axes_2">
   <g id="patch_4">
    <path d="M 306.502 218.64
L 492.502 218.64
L 492.502 19.2
L 306.502 19.2
z
" style="fill:none;"/>
   </g>
   <g id="line2d_28">
    <path clip-path="url(#p4905bf02c6)" d="M 333.073429 134.454876
L 439.359143 179.735969
" style="fill:none;stroke:#000000;stroke-linecap:round;"/>
   </g>
   <g id="line2d_29">
    <path clip-path="url(#p4905bf02c6)" d="M 333.073429 138.760946
L 439.359143 113.20555
" style="fill:none;stroke:#000000;stroke-linecap:round;"/>
   </g>
   <g id="line2d_30">
    <path clip-path="url(#p4905bf02c6)" d="M 333.073429 127.097742
L 439.359143 88.242861
" style="fill:none;stroke:#000000;stroke-linecap:round;"/>
   </g>
   <g id="line2d_31">
    <path clip-path="url(#p4905bf02c6)" d="M 333.073429 104.157844
L 439.359143 117.902823
" style="fill:none;stroke:#000000;stroke-linecap:round;"/>
   </g>
   <g id="line2d_32">
    <path clip-path="url(#p4905bf02c6)" d="M 333.073429 138.785553
L 439.359143 128.391817
" style="fill:none;stroke:#000000;stroke-linecap:round;"/>
   </g>
   <g id="line2d_33">
    <path clip-path="url(#p4905bf02c6)" d="M 333.073429 96.030379
L 439.359143 104.132934
" style="fill:none;stroke:#000000;stroke-linecap:round;"/>
   </g>
   <g id="line2d_34">
    <path clip-path="url(#p4905bf02c6)" d="M 333.073429 109.67225
L 439.359143 99.148017
" style="fill:none;stroke:#000000;stroke-linecap:round;"/>
   </g>
   <g id="line2d_35">
    <path clip-path="url(#p4905bf02c6)" d="M 333.073429 102.559245
L 439.359143 73.934148
" style="fill:none;stroke:#000000;stroke-linecap:round;"/>
   </g>
   <g id="line2d_36">
    <path clip-path="url(#p4905bf02c6)" d="M 333.073429 140.088796
L 439.359143 151.74221
" style="fill:none;stroke:#000000;stroke-linecap:round;"/>
   </g>
   <g id="line2d_37">
    <path clip-path="url(#p4905bf02c6)" d="M 333.073429 117.903458
L 439.359143 115.239433
" style="fill:none;stroke:#000000;stroke-linecap:round;"/>
   </g>
   <g id="line2d_38">
    <path clip-path="url(#p4905bf02c6)" d="M 333.073429 161.179584
L 439.359143 117.406935
" style="fill:none;stroke:#000000;stroke-linecap:round;"/>
   </g>
   <g id="line2d_39">
    <path clip-path="url(#p4905bf02c6)" d="M 333.073429 127.633316
L 439.359143 100.360935
" style="fill:none;stroke:#000000;stroke-linecap:round;"/>
   </g>
   <g id="line2d_40">
    <path clip-path="url(#p4905bf02c6)" d="M 333.073429 151.933931
L 439.359143 94.453089
" style="fill:none;stroke:#000000;stroke-linecap:round;"/>
   </g>
   <g id="line2d_41">
    <path clip-path="url(#p4905bf02c6)" d="M 333.073429 110.37074
L 439.359143 157.341814
" style="fill:none;stroke:#000000;stroke-linecap:round;"/>
   </g>
   <g id="line2d_42">
    <path clip-path="url(#p4905bf02c6)" d="M 333.073429 117.516711
L 439.359143 147.545067
" style="fill:none;stroke:#000000;stroke-linecap:round;"/>
   </g>
   <g id="line2d_43">
    <path clip-path="url(#p4905bf02c6)" d="M 333.073429 145.874916
L 439.359143 152.279119
" style="fill:none;stroke:#000000;stroke-linecap:round;"/>
   </g>
   <g id="line2d_44">
    <path clip-path="url(#p4905bf02c6)" d="M 333.073429 138.591389
L 439.359143 114.133341
" style="fill:none;stroke:#000000;stroke-linecap:round;"/>
   </g>
   <g id="line2d_45">
    <path clip-path="url(#p4905bf02c6)" d="M 333.073429 110.698517
L 439.359143 88.5338
" style="fill:none;stroke:#000000;stroke-linecap:round;"/>
   </g>
   <g id="line2d_46">
    <path clip-path="url(#p4905bf02c6)" d="M 333.073429 104.868331
L 439.359143 137.769675
" style="fill:none;stroke:#000000;stroke-linecap:round;"/>
   </g>
   <g id="line2d_47">
    <path clip-path="url(#p4905bf02c6)" d="M 333.073429 140.848046
L 439.359143 132.824263
" style="fill:none;stroke:#000000;stroke-linecap:round;"/>
   </g>
  </g>
  <g id="axes_3">
   <g id="patch_5">
    <path d="M 492.502 218.64
L 678.502 218.64
L 678.502 19.2
L 492.502 19.2
z
" style="fill:none;"/>
   </g>
   <g id="line2d_48">
    <path clip-path="url(#p6ed99ad228)" d="M 519.073429 92.345739
L 625.359143 118.976195
" style="fill:none;stroke:#000000;stroke-linecap:round;"/>
   </g>
   <g id="line2d_49">
    <path clip-path="url(#p6ed99ad228)" d="M 519.073429 79.283531
L 625.359143 89.833293
" style="fill:none;stroke:#000000;stroke-linecap:round;"/>
   </g>
   <g id="line2d_50">
    <path clip-path="url(#p6ed99ad228)" d="M 519.073429 101.172181
L 625.359143 114.251472
" style="fill:none;stroke:#000000;stroke-linecap:round;"/>
   </g>
   <g id="line2d_51">
    <path clip-path="url(#p6ed99ad228)" d="M 519.073429 72.069818
L 625.359143 105.951236
" style="fill:none;stroke:#000000;stroke-linecap:round;"/>
   </g>
   <g id="line2d_52">
    <path clip-path="url(#p6ed99ad228)" d="M 519.073429 67.338841
L 625.359143 120.527476
" style="fill:none;stroke:#000000;stroke-linecap:round;"/>
   </g>
   <g id="line2d_53">
    <path clip-path="url(#p6ed99ad228)" d="M 519.073429 125.078332
L 625.359143 93.652861
" style="fill:none;stroke:#000000;stroke-linecap:round;"/>
   </g>
   <g id="line2d_54">
    <path clip-path="url(#p6ed99ad228)" d="M 519.073429 122.112676
L 625.359143 115.851818
" style="fill:none;stroke:#000000;stroke-linecap:round;"/>
   </g>
   <g id="line2d_55">
    <path clip-path="url(#p6ed99ad228)" d="M 519.073429 73.107717
L 625.359143 99.86066
" style="fill:none;stroke:#000000;stroke-linecap:round;"/>
   </g>
   <g id="line2d_56">
    <path clip-path="url(#p6ed99ad228)" d="M 519.073429 58.104031
L 625.359143 112.938119
" style="fill:none;stroke:#000000;stroke-linecap:round;"/>
   </g>
   <g id="line2d_57">
    <path clip-path="url(#p6ed99ad228)" d="M 519.073429 119.047592
L 625.359143 112.776309
" style="fill:none;stroke:#000000;stroke-linecap:round;"/>
   </g>
   <g id="line2d_58">
    <path clip-path="url(#p6ed99ad228)" d="M 519.073429 118.004281
L 625.359143 106.977379
" style="fill:none;stroke:#000000;stroke-linecap:round;"/>
   </g>
   <g id="line2d_59">
    <path clip-path="url(#p6ed99ad228)" d="M 519.073429 132.315694
L 625.359143 98.899968
" style="fill:none;stroke:#000000;stroke-linecap:round;"/>
   </g>
   <g id="line2d_60">
    <path clip-path="url(#p6ed99ad228)" d="M 519.073429 84.087432
L 625.359143 113.114902
" style="fill:none;stroke:#000000;stroke-linecap:round;"/>
   </g>
   <g id="line2d_61">
    <path clip-path="url(#p6ed99ad228)" d="M 519.073429 79.284759
L 625.359143 114.396874
" style="fill:none;stroke:#000000;stroke-linecap:round;"/>
   </g>
   <g id="line2d_62">
    <path clip-path="url(#p6ed99ad228)" d="M 519.073429 110.865792
L 625.359143 116.072256
" style="fill:none;stroke:#000000;stroke-linecap:round;"/>
   </g>
   <g id="line2d_63">
    <path clip-path="url(#p6ed99ad228)" d="M 519.073429 97.290431
L 625.359143 119.240742
" style="fill:none;stroke:#000000;stroke-linecap:round;"/>
   </g>
   <g id="line2d_64">
    <path clip-path="url(#p6ed99ad228)" d="M 519.073429 109.449122
L 625.359143 115.169349
" style="fill:none;stroke:#000000;stroke-linecap:round;"/>
   </g>
   <g id="line2d_65">
    <path clip-path="url(#p6ed99ad228)" d="M 519.073429 97.997196
L 625.359143 127.777005
" style="fill:none;stroke:#000000;stroke-linecap:round;"/>
   </g>
   <g id="line2d_66">
    <path clip-path="url(#p6ed99ad228)" d="M 519.073429 77.446595
L 625.359143 107.383084
" style="fill:none;stroke:#000000;stroke-linecap:round;"/>
   </g>
   <g id="line2d_67">
    <path clip-path="url(#p6ed99ad228)" d="M 519.073429 93.229927
L 625.359143 110.347086
" style="fill:none;stroke:#000000;stroke-linecap:round;"/>
   </g>
   <g id="legend_1"/>
  </g>
  <g id="axes_4">
   <g id="patch_6">
    <path d="M 120.502 454.08
L 306.502 454.08
L 306.502 254.64
L 120.502 254.64
z
" style="fill:none;"/>
   </g>
   <g id="matplotlib.axis_2">
    <g id="xtick_1">
     <g id="line2d_68">
      <defs>
       <path d="M 0 0
L 0 12
" id="mdbc4768e79" style="stroke:#262626;stroke-width:1.6;"/>
      </defs>
      <g>
       <use style="fill:#262626;stroke:#262626;stroke-width:1.6;" x="147.073429" xlink:href="#mdbc4768e79" y="454.08"/>
      </g>
     </g>
     <g id="text_9">
      <text style="fill:#262626;font-family:Work Sans;font-size:20px;font-style:normal;font-weight:normal;" transform="translate(53.08126 578.4714)rotate(-45)">Control n=20</text>
     </g>
    </g>
    <g id="xtick_2">
     <g id="line2d_69">
      <g>
       <use style="fill:#262626;stroke:#262626;stroke-width:1.6;" x="253.359143" xlink:href="#mdbc4768e79" y="454.08"/>
      </g>
     </g>
     <g id="text_10">
      <text style="fill:#262626;font-family:Work Sans;font-size:20px;font-style:normal;font-weight:normal;" transform="translate(158.648819 579.189555)rotate(-45)">Group 1 n=20</text>
     </g>
    </g>
   </g>
   <g id="matplotlib.axis_3">
    <g id="ytick_8">
     <g id="line2d_70">
      <g>
       <use style="fill:#262626;stroke:#262626;stroke-width:1.6;" x="120.502" xlink:href="#m1d9860fd6f" y="436.445767"/>
      </g>
     </g>
     <g id="text_11">
      <text style="fill:#262626;font-family:Work Sans;font-size:20px;font-style:normal;font-weight:normal;text-anchor:end;" transform="rotate(-0, 97.302, 443.636392)" x="97.302" y="443.636392">−1.0</text>
     </g>
    </g>
    <g id="ytick_9">
     <g id="line2d_71">
      <g>
       <use style="fill:#262626;stroke:#262626;stroke-width:1.6;" x="120.502" xlink:href="#m1d9860fd6f" y="394.491058"/>
      </g>
     </g>
     <g id="text_12">
      <text style="fill:#262626;font-family:Work Sans;font-size:20px;font-style:normal;font-weight:normal;text-anchor:end;" transform="rotate(-0, 97.302, 401.681683)" x="97.302" y="401.681683">−0.5</text>
     </g>
    </g>
    <g id="ytick_10">
     <g id="line2d_72">
      <g>
       <use style="fill:#262626;stroke:#262626;stroke-width:1.6;" x="120.502" xlink:href="#m1d9860fd6f" y="352.536348"/>
      </g>
     </g>
     <g id="text_13">
      <text style="fill:#262626;font-family:Work Sans;font-size:20px;font-style:normal;font-weight:normal;text-anchor:end;" transform="rotate(-0, 97.302, 359.726973)" x="97.302" y="359.726973">0.0</text>
     </g>
    </g>
    <g id="ytick_11">
     <g id="line2d_73">
      <g>
       <use style="fill:#262626;stroke:#262626;stroke-width:1.6;" x="120.502" xlink:href="#m1d9860fd6f" y="310.581639"/>
      </g>
     </g>
     <g id="text_14">
      <text style="fill:#262626;font-family:Work Sans;font-size:20px;font-style:normal;font-weight:normal;text-anchor:end;" transform="rotate(-0, 97.302, 317.772264)" x="97.302" y="317.772264">0.5</text>
     </g>
    </g>
    <g id="ytick_12">
     <g id="line2d_74">
      <g>
       <use style="fill:#262626;stroke:#262626;stroke-width:1.6;" x="120.502" xlink:href="#m1d9860fd6f" y="268.626929"/>
      </g>
     </g>
     <g id="text_15">
      <text style="fill:#262626;font-family:Work Sans;font-size:20px;font-style:normal;font-weight:normal;text-anchor:end;" transform="rotate(-0, 97.302, 275.817554)" x="97.302" y="275.817554">1.0</text>
     </g>
    </g>
    <g id="text_16">
     <text style="fill:#262626;font-family:Work Sans;font-size:22px;font-style:normal;font-weight:normal;" transform="translate(23.019375 419.8925)rotate(-90)">paired delta</text>
     <text style="fill:#262626;font-family:Work Sans;font-size:22px;font-style:normal;font-weight:normal;" transform="translate(46.622625 383.401719)rotate(-90)">value</text>
    </g>
   </g>
   <g id="PolyCollection_1">
    <defs>
     <path d="M 253.388486 -257.331302
L 253.359901 -257.331302
L 253.359901 -258.103666
L 253.359901 -258.87603
L 253.359901 -259.648394
L 253.359901 -260.420758
L 253.359901 -261.193122
L 253.359901 -261.965486
L 253.359901 -262.73785
L 253.359901 -263.510214
L 253.359901 -264.282578
L 253.359901 -265.054942
L 253.359901 -265.827306
L 253.359901 -266.59967
L 253.359901 -267.372034
L 253.359901 -268.144398
L 253.359901 -268.916762
L 253.359901 -269.689126
L 253.359901 -270.46149
L 253.359901 -271.233854
L 253.359901 -272.006218
L 253.359901 -272.778582
L 253.359901 -273.550946
L 253.359901 -274.32331
L 253.359901 -275.095674
L 253.359901 -275.868038
L 253.359901 -276.640402
L 253.359901 -277.412766
L 253.359901 -278.18513
L 253.359901 -278.957494
L 253.359901 -279.729858
L 253.359901 -280.502222
L 253.359901 -281.274586
L 253.359901 -282.04695
L 253.359901 -282.819314
L 253.359901 -283.591678
L 253.359901 -284.364042
L 253.359901 -285.136407
L 253.359901 -285.908771
L 253.359901 -286.681135
L 253.359901 -287.453499
L 253.359901 -288.225863
L 253.359901 -288.998227
L 253.359901 -289.770591
L 253.359901 -290.542955
L 253.359901 -291.315319
L 253.359901 -292.087683
L 253.359901 -292.860047
L 253.359901 -293.632411
L 253.359901 -294.404775
L 253.359901 -295.177139
L 253.359901 -295.949503
L 253.359901 -296.721867
L 253.359901 -297.494231
L 253.359901 -298.266595
L 253.359901 -299.038959
L 253.359901 -299.811323
L 253.359901 -300.583687
L 253.359901 -301.356051
L 253.359901 -302.128415
L 253.359901 -302.900779
L 253.359901 -303.673143
L 253.359901 -304.445507
L 253.359901 -305.217871
L 253.359901 -305.990235
L 253.359901 -306.762599
L 253.359901 -307.534963
L 253.359901 -308.307327
L 253.359901 -309.079691
L 253.359901 -309.852055
L 253.359901 -310.624419
L 253.359901 -311.396783
L 253.359901 -312.169147
L 253.359901 -312.941511
L 253.359901 -313.713875
L 253.359901 -314.486239
L 253.359901 -315.258603
L 253.359901 -316.030967
L 253.359901 -316.803331
L 253.359901 -317.575695
L 253.359901 -318.348059
L 253.359901 -319.120423
L 253.359901 -319.892787
L 253.359901 -320.665151
L 253.359901 -321.437515
L 253.359901 -322.209879
L 253.359901 -322.982243
L 253.359901 -323.754607
L 253.359901 -324.526971
L 253.359901 -325.299335
L 253.359901 -326.071699
L 253.359901 -326.844063
L 253.359901 -327.616427
L 253.359901 -328.388791
L 253.359901 -329.161155
L 253.359901 -329.933519
L 253.359901 -330.705883
L 253.359901 -331.478247
L 253.359901 -332.250612
L 253.359901 -333.022976
L 253.359901 -333.79534
L 253.454297 -333.79534
L 253.454297 -333.79534
L 253.480028 -333.022976
L 253.509799 -332.250612
L 253.550197 -331.478247
L 253.607001 -330.705883
L 253.682639 -329.933519
L 253.777879 -329.161155
L 253.895724 -328.388791
L 254.043146 -327.616427
L 254.228805 -326.844063
L 254.458633 -326.071699
L 254.732867 -325.299335
L 255.047586 -324.526971
L 255.399826 -323.754607
L 255.789979 -322.982243
L 256.216951 -322.209879
L 256.673482 -321.437515
L 257.15601 -320.665151
L 257.688994 -319.892787
L 258.338525 -319.120423
L 259.188395 -318.348059
L 260.286429 -317.575695
L 261.604822 -316.803331
L 263.049777 -316.030967
L 264.50843 -315.258603
L 265.89128 -314.486239
L 267.148963 -313.713875
L 268.277021 -312.941511
L 269.319725 -312.169147
L 270.355461 -311.396783
L 271.447727 -310.624419
L 272.58909 -309.852055
L 273.693761 -309.079691
L 274.660186 -308.307327
L 275.457093 -307.534963
L 276.156918 -306.762599
L 276.88202 -305.990235
L 277.703074 -305.217871
L 278.569555 -304.445507
L 279.327109 -303.673143
L 279.808715 -302.900779
L 279.930571 -302.128415
L 279.726219 -301.356051
L 279.30981 -300.583687
L 278.81203 -299.811323
L 278.329408 -299.038959
L 277.893349 -298.266595
L 277.457018 -297.494231
L 276.916875 -296.721867
L 276.17798 -295.949503
L 275.226204 -295.177139
L 274.146267 -294.404775
L 273.065652 -293.632411
L 272.069347 -292.860047
L 271.150032 -292.087683
L 270.22394 -291.315319
L 269.195239 -290.542955
L 268.023491 -289.770591
L 266.749892 -288.998227
L 265.468497 -288.225863
L 264.268994 -287.453499
L 263.194719 -286.681135
L 262.240267 -285.908771
L 261.377903 -285.136407
L 260.584056 -284.364042
L 259.848315 -283.591678
L 259.168653 -282.819314
L 258.543984 -282.04695
L 257.969474 -281.274586
L 257.435891 -280.502222
L 256.933494 -279.729858
L 256.457869 -278.957494
L 256.012706 -278.18513
L 255.607631 -277.412766
L 255.253656 -276.640402
L 254.95909 -275.868038
L 254.726335 -275.095674
L 254.549157 -274.32331
L 254.411768 -273.550946
L 254.292904 -272.778582
L 254.175929 -272.006218
L 254.058897 -271.233854
L 253.954523 -270.46149
L 253.877569 -269.689126
L 253.830048 -268.916762
L 253.797414 -268.144398
L 253.758408 -267.372034
L 253.69943 -266.59967
L 253.622148 -265.827306
L 253.540102 -265.054942
L 253.468802 -264.282578
L 253.417352 -263.510214
L 253.386371 -262.73785
L 253.371198 -261.965486
L 253.366296 -261.193122
L 253.367705 -260.420758
L 253.373007 -259.648394
L 253.380041 -258.87603
L 253.38609 -258.103666
L 253.388486 -257.331302
z
" id="mc28a9e025e" style="stroke:#000000;stroke-opacity:0.3;stroke-width:0.48;"/>
    </defs>
    <g clip-path="url(#p2840be3330)">
     <use style="fill-opacity:0.3;stroke:#000000;stroke-opacity:0.3;stroke-width:0.48;" x="0" xlink:href="#mc28a9e025e" y="592.258541"/>
    </g>
   </g>
   <g id="line2d_75">
    <path clip-path="url(#p2840be3330)" d="M 253.359143 291.561817
" style="fill:none;stroke:#000000;stroke-linecap:round;stroke-width:2.8;"/>
    <defs>
     <path d="M 0 7.5
C 1.989023 7.5 3.896849 6.709753 5.303301 5.303301
C 6.709753 3.896849 7.5 1.989023 7.5 0
C 7.5 -1.989023 6.709753 -3.896849 5.303301 -5.303301
C 3.896849 -6.709753 1.989023 -7.5 0 -7.5
C -1.989023 -7.5 -3.896849 -6.709753 -5.303301 -5.303301
C -6.709753 -3.896849 -7.5 -1.989023 -7.5 0
C -7.5 1.989023 -6.709753 3.896849 -5.303301 5.303301
C -3.896849 6.709753 -1.989023 7.5 0 7.5
z
" id="m1a90337410"/>
    </defs>
    <g clip-path="url(#p2840be3330)">
     <use x="253.359143" xlink:href="#m1a90337410" y="291.561817"/>
    </g>
   </g>
   <g id="line2d_76">
    <path clip-path="url(#p2840be3330)" d="M 253.359143 315.016645
L 253.359143 274.708717
" style="fill:none;stroke:#000000;stroke-linecap:round;stroke-width:4;"/>
   </g>
   <g id="line2d_77">
    <path clip-path="url(#p2840be3330)" d="M 120.502 352.536348
L 306.502 352.536348
" style="fill:none;stroke:#000000;stroke-linecap:round;stroke-width:0.5;"/>
   </g>
   <g id="patch_7">
    <path d="M 120.502 436.445767
L 120.502 268.626929
" style="fill:none;stroke:#262626;stroke-linecap:square;stroke-linejoin:miter;stroke-width:1.25;"/>
   </g>
   <g id="patch_8">
    <path d="M 147.073429 454.08
L 253.359143 454.08
" style="fill:none;stroke:#262626;stroke-linecap:square;stroke-linejoin:miter;stroke-width:1.25;"/>
   </g>
  </g>
  <g id="axes_5">
   <g id="patch_9">
    <path d="M 306.502 454.08
L 492.502 454.08
L 492.502 254.64
L 306.502 254.64
z
" style="fill:none;"/>
   </g>
   <g id="matplotlib.axis_4">
    <g id="xtick_3">
     <g id="line2d_78">
      <g>
       <use style="fill:#262626;stroke:#262626;stroke-width:1.6;" x="333.073429" xlink:href="#mdbc4768e79" y="454.08"/>
      </g>
     </g>
     <g id="text_17">
      <text style="fill:#262626;font-family:Work Sans;font-size:20px;font-style:normal;font-weight:normal;" transform="translate(236.058378 581.494281)rotate(-45)">Group 2 n=20</text>
     </g>
    </g>
    <g id="xtick_4">
     <g id="line2d_79">
      <g>
       <use style="fill:#262626;stroke:#262626;stroke-width:1.6;" x="439.359143" xlink:href="#mdbc4768e79" y="454.08"/>
      </g>
     </g>
     <g id="text_18">
      <text style="fill:#262626;font-family:Work Sans;font-size:20px;font-style:normal;font-weight:normal;" transform="translate(342.370609 581.467765)rotate(-45)">Group 3 n=20</text>
     </g>
    </g>
   </g>
   <g id="PolyCollection_2">
    <defs>
     <path d="M 439.389161 -187.262164
L 439.359694 -187.262164
L 439.359694 -188.56025
L 439.359694 -189.858336
L 439.359694 -191.156422
L 439.359694 -192.454507
L 439.359694 -193.752593
L 439.359694 -195.050679
L 439.359694 -196.348765
L 439.359694 -197.646851
L 439.359694 -198.944937
L 439.359694 -200.243022
L 439.359694 -201.541108
L 439.359694 -202.839194
L 439.359694 -204.13728
L 439.359694 -205.435366
L 439.359694 -206.733451
L 439.359694 -208.031537
L 439.359694 -209.329623
L 439.359694 -210.627709
L 439.359694 -211.925795
L 439.359694 -213.223881
L 439.359694 -214.521966
L 439.359694 -215.820052
L 439.359694 -217.118138
L 439.359694 -218.416224
L 439.359694 -219.71431
L 439.359694 -221.012395
L 439.359694 -222.310481
L 439.359694 -223.608567
L 439.359694 -224.906653
L 439.359694 -226.204739
L 439.359694 -227.502824
L 439.359694 -228.80091
L 439.359694 -230.098996
L 439.359694 -231.397082
L 439.359694 -232.695168
L 439.359694 -233.993254
L 439.359694 -235.291339
L 439.359694 -236.589425
L 439.359694 -237.887511
L 439.359694 -239.185597
L 439.359694 -240.483683
L 439.359694 -241.781768
L 439.359694 -243.079854
L 439.359694 -244.37794
L 439.359694 -245.676026
L 439.359694 -246.974112
L 439.359694 -248.272198
L 439.359694 -249.570283
L 439.359694 -250.868369
L 439.359694 -252.166455
L 439.359694 -253.464541
L 439.359694 -254.762627
L 439.359694 -256.060712
L 439.359694 -257.358798
L 439.359694 -258.656884
L 439.359694 -259.95497
L 439.359694 -261.253056
L 439.359694 -262.551141
L 439.359694 -263.849227
L 439.359694 -265.147313
L 439.359694 -266.445399
L 439.359694 -267.743485
L 439.359694 -269.041571
L 439.359694 -270.339656
L 439.359694 -271.637742
L 439.359694 -272.935828
L 439.359694 -274.233914
L 439.359694 -275.532
L 439.359694 -276.830085
L 439.359694 -278.128171
L 439.359694 -279.426257
L 439.359694 -280.724343
L 439.359694 -282.022429
L 439.359694 -283.320515
L 439.359694 -284.6186
L 439.359694 -285.916686
L 439.359694 -287.214772
L 439.359694 -288.512858
L 439.359694 -289.810944
L 439.359694 -291.109029
L 439.359694 -292.407115
L 439.359694 -293.705201
L 439.359694 -295.003287
L 439.359694 -296.301373
L 439.359694 -297.599458
L 439.359694 -298.897544
L 439.359694 -300.19563
L 439.359694 -301.493716
L 439.359694 -302.791802
L 439.359694 -304.089888
L 439.359694 -305.387973
L 439.359694 -306.686059
L 439.359694 -307.984145
L 439.359694 -309.282231
L 439.359694 -310.580317
L 439.359694 -311.878402
L 439.359694 -313.176488
L 439.359694 -314.474574
L 439.359694 -315.77266
L 439.410925 -315.77266
L 439.410925 -315.77266
L 439.428919 -314.474574
L 439.452293 -313.176488
L 439.482584 -311.878402
L 439.520113 -310.580317
L 439.564789 -309.282231
L 439.617827 -307.984145
L 439.682502 -306.686059
L 439.762805 -305.387973
L 439.860905 -304.089888
L 439.975895 -302.791802
L 440.105327 -301.493716
L 440.248559 -300.19563
L 440.409753 -298.897544
L 440.599091 -297.599458
L 440.831087 -296.301373
L 441.119328 -295.003287
L 441.469884 -293.705201
L 441.878585 -292.407115
L 442.335332 -291.109029
L 442.832311 -289.810944
L 443.369392 -288.512858
L 443.953507 -287.214772
L 444.595095 -285.916686
L 445.306148 -284.6186
L 446.099077 -283.320515
L 446.981562 -282.022429
L 447.947242 -280.724343
L 448.971009 -279.426257
L 450.018473 -278.128171
L 451.067196 -276.830085
L 452.122956 -275.532
L 453.212979 -274.233914
L 454.356234 -272.935828
L 455.535433 -271.637742
L 456.699983 -270.339656
L 457.801809 -269.041571
L 458.831948 -267.743485
L 459.823632 -266.445399
L 460.820464 -265.147313
L 461.839092 -263.849227
L 462.854462 -262.551141
L 463.811551 -261.253056
L 464.647327 -259.95497
L 465.30557 -258.656884
L 465.741922 -257.358798
L 465.930571 -256.060712
L 465.87865 -254.762627
L 465.634099 -253.464541
L 465.266411 -252.166455
L 464.823513 -250.868369
L 464.298372 -249.570283
L 463.638488 -248.272198
L 462.795779 -246.974112
L 461.7776 -245.676026
L 460.657199 -244.37794
L 459.535049 -243.079854
L 458.48216 -241.781768
L 457.508657 -240.483683
L 456.574915 -239.185597
L 455.625702 -237.887511
L 454.619372 -236.589425
L 453.543858 -235.291339
L 452.422115 -233.993254
L 451.302061 -232.695168
L 450.229634 -231.397082
L 449.224469 -230.098996
L 448.280595 -228.80091
L 447.387358 -227.502824
L 446.545097 -226.204739
L 445.762457 -224.906653
L 445.045674 -223.608567
L 444.394391 -222.310481
L 443.805295 -221.012395
L 443.275472 -219.71431
L 442.800717 -218.416224
L 442.372076 -217.118138
L 441.9766 -215.820052
L 441.60395 -214.521966
L 441.253798 -213.223881
L 440.936629 -211.925795
L 440.665897 -210.627709
L 440.447631 -209.329623
L 440.27556 -208.031537
L 440.13446 -206.733451
L 440.008248 -205.435366
L 439.887204 -204.13728
L 439.770437 -202.839194
L 439.663329 -201.541108
L 439.572804 -200.243022
L 439.503424 -198.944937
L 439.455483 -197.646851
L 439.425169 -196.348765
L 439.406649 -195.050679
L 439.395032 -193.752593
L 439.388081 -192.454507
L 439.385431 -191.156422
L 439.386389 -189.858336
L 439.388652 -188.56025
L 439.389161 -187.262164
z
" id="ma92d1252bc" style="stroke:#000000;stroke-opacity:0.3;stroke-width:0.48;"/>
    </defs>
    <g clip-path="url(#p2951dd963d)">
     <use style="fill-opacity:0.3;stroke:#000000;stroke-opacity:0.3;stroke-width:0.48;" x="0" xlink:href="#ma92d1252bc" y="592.258541"/>
    </g>
   </g>
   <g id="line2d_80">
    <path clip-path="url(#p2951dd963d)" d="M 439.359143 338.129962
" style="fill:none;stroke:#000000;stroke-linecap:round;stroke-width:2.8;"/>
    <g clip-path="url(#p2951dd963d)">
     <use x="439.359143" xlink:href="#m1a90337410" y="338.129962"/>
    </g>
   </g>
   <g id="line2d_81">
    <path clip-path="url(#p2951dd963d)" d="M 439.359143 374.321452
L 439.359143 305.63329
" style="fill:none;stroke:#000000;stroke-linecap:round;stroke-width:4;"/>
   </g>
   <g id="line2d_82">
    <path clip-path="url(#p2951dd963d)" d="M 306.502 352.536348
L 492.502 352.536348
" style="fill:none;stroke:#000000;stroke-linecap:round;stroke-width:0.5;"/>
   </g>
   <g id="patch_10">
    <path d="M 333.073429 454.08
L 439.359143 454.08
" style="fill:none;stroke:#262626;stroke-linecap:square;stroke-linejoin:miter;stroke-width:1.25;"/>
   </g>
  </g>
  <g id="axes_6">
   <g id="patch_11">
    <path d="M 492.502 454.08
L 678.502 454.08
L 678.502 254.64
L 492.502 254.64
z
" style="fill:none;"/>
   </g>
   <g id="matplotlib.axis_5">
    <g id="xtick_5">
     <g id="line2d_83">
      <g>
       <use style="fill:#262626;stroke:#262626;stroke-width:1.6;" x="519.073429" xlink:href="#mdbc4768e79" y="454.08"/>
      </g>
     </g>
     <g id="text_19">
      <text style="fill:#262626;font-family:Work Sans;font-size:20px;font-style:normal;font-weight:normal;" transform="translate(421.463967 582.088693)rotate(-45)">Group 4 n=20</text>
     </g>
    </g>
    <g id="xtick_6">
     <g id="line2d_84">
      <g>
       <use style="fill:#262626;stroke:#262626;stroke-width:1.6;" x="625.359143" xlink:href="#mdbc4768e79" y="454.08"/>
      </g>
     </g>
     <g id="text_20">
      <text style="fill:#262626;font-family:Work Sans;font-size:20px;font-style:normal;font-weight:normal;" transform="translate(528.470046 581.368328)rotate(-45)">Group 5 n=20</text>
     </g>
    </g>
   </g>
   <g id="PolyCollection_3">
    <defs>
     <path d="M 625.398589 -143.57398
L 625.359947 -143.57398
L 625.359947 -144.663968
L 625.359947 -145.753956
L 625.359947 -146.843944
L 625.359947 -147.933931
L 625.359947 -149.023919
L 625.359947 -150.113907
L 625.359947 -151.203894
L 625.359947 -152.293882
L 625.359947 -153.38387
L 625.359947 -154.473857
L 625.359947 -155.563845
L 625.359947 -156.653833
L 625.359947 -157.74382
L 625.359947 -158.833808
L 625.359947 -159.923796
L 625.359947 -161.013783
L 625.359947 -162.103771
L 625.359947 -163.193759
L 625.359947 -164.283747
L 625.359947 -165.373734
L 625.359947 -166.463722
L 625.359947 -167.55371
L 625.359947 -168.643697
L 625.359947 -169.733685
L 625.359947 -170.823673
L 625.359947 -171.91366
L 625.359947 -173.003648
L 625.359947 -174.093636
L 625.359947 -175.183623
L 625.359947 -176.273611
L 625.359947 -177.363599
L 625.359947 -178.453586
L 625.359947 -179.543574
L 625.359947 -180.633562
L 625.359947 -181.72355
L 625.359947 -182.813537
L 625.359947 -183.903525
L 625.359947 -184.993513
L 625.359947 -186.0835
L 625.359947 -187.173488
L 625.359947 -188.263476
L 625.359947 -189.353463
L 625.359947 -190.443451
L 625.359947 -191.533439
L 625.359947 -192.623426
L 625.359947 -193.713414
L 625.359947 -194.803402
L 625.359947 -195.89339
L 625.359947 -196.983377
L 625.359947 -198.073365
L 625.359947 -199.163353
L 625.359947 -200.25334
L 625.359947 -201.343328
L 625.359947 -202.433316
L 625.359947 -203.523303
L 625.359947 -204.613291
L 625.359947 -205.703279
L 625.359947 -206.793266
L 625.359947 -207.883254
L 625.359947 -208.973242
L 625.359947 -210.063229
L 625.359947 -211.153217
L 625.359947 -212.243205
L 625.359947 -213.333193
L 625.359947 -214.42318
L 625.359947 -215.513168
L 625.359947 -216.603156
L 625.359947 -217.693143
L 625.359947 -218.783131
L 625.359947 -219.873119
L 625.359947 -220.963106
L 625.359947 -222.053094
L 625.359947 -223.143082
L 625.359947 -224.233069
L 625.359947 -225.323057
L 625.359947 -226.413045
L 625.359947 -227.503032
L 625.359947 -228.59302
L 625.359947 -229.683008
L 625.359947 -230.772996
L 625.359947 -231.862983
L 625.359947 -232.952971
L 625.359947 -234.042959
L 625.359947 -235.132946
L 625.359947 -236.222934
L 625.359947 -237.312922
L 625.359947 -238.402909
L 625.359947 -239.492897
L 625.359947 -240.582885
L 625.359947 -241.672872
L 625.359947 -242.76286
L 625.359947 -243.852848
L 625.359947 -244.942835
L 625.359947 -246.032823
L 625.359947 -247.122811
L 625.359947 -248.212799
L 625.359947 -249.302786
L 625.359947 -250.392774
L 625.359947 -251.482762
L 625.443534 -251.482762
L 625.443534 -251.482762
L 625.466396 -250.392774
L 625.49014 -249.302786
L 625.515614 -248.212799
L 625.541437 -247.122811
L 625.564461 -246.032823
L 625.583514 -244.942835
L 625.602501 -243.852848
L 625.629281 -242.76286
L 625.671929 -241.672872
L 625.73688 -240.582885
L 625.830076 -239.492897
L 625.957122 -238.402909
L 626.1195 -237.312922
L 626.310645 -236.222934
L 626.518293 -235.132946
L 626.733286 -234.042959
L 626.957428 -232.952971
L 627.203596 -231.862983
L 627.488199 -230.772996
L 627.822427 -229.683008
L 628.209984 -228.59302
L 628.652922 -227.503032
L 629.157688 -226.413045
L 629.732123 -225.323057
L 630.375082 -224.233069
L 631.069167 -223.143082
L 631.782805 -222.053094
L 632.480626 -220.963106
L 633.141234 -219.873119
L 633.779541 -218.783131
L 634.458763 -217.693143
L 635.272112 -216.603156
L 636.293507 -215.513168
L 637.526266 -214.42318
L 638.888344 -213.333193
L 640.251017 -212.243205
L 641.509104 -211.153217
L 642.633072 -210.063229
L 643.663432 -208.973242
L 644.653884 -207.883254
L 645.612446 -206.793266
L 646.491405 -205.703279
L 647.235786 -204.613291
L 647.846674 -203.523303
L 648.397082 -202.433316
L 648.981121 -201.343328
L 649.642412 -200.25334
L 650.343196 -199.163353
L 650.991951 -198.073365
L 651.499401 -196.983377
L 651.817149 -195.89339
L 651.930571 -194.803402
L 651.820707 -193.713414
L 651.445685 -192.623426
L 650.77337 -191.533439
L 649.834454 -190.443451
L 648.732906 -189.353463
L 647.588779 -188.263476
L 646.456097 -187.173488
L 645.288338 -186.0835
L 643.988595 -184.993513
L 642.510188 -183.903525
L 640.925605 -182.813537
L 639.401018 -181.72355
L 638.091036 -180.633562
L 637.03852 -179.543574
L 636.158838 -178.453586
L 635.311778 -177.363599
L 634.395302 -176.273611
L 633.393806 -175.183623
L 632.363626 -174.093636
L 631.38443 -173.003648
L 630.515398 -171.91366
L 629.777447 -170.823673
L 629.160302 -169.733685
L 628.640353 -168.643697
L 628.194943 -167.55371
L 627.806992 -166.463722
L 627.463011 -165.373734
L 627.151141 -164.283747
L 626.862508 -163.193759
L 626.593961 -162.103771
L 626.348638 -161.013783
L 626.13321 -159.923796
L 625.953687 -158.833808
L 625.8124 -157.74382
L 625.707424 -156.653833
L 625.633365 -155.563845
L 625.582096 -154.473857
L 625.544039 -153.38387
L 625.51119 -152.293882
L 625.480283 -151.203894
L 625.452898 -150.113907
L 625.432132 -149.023919
L 625.419089 -147.933931
L 625.412077 -146.843944
L 625.408057 -145.753956
L 625.404188 -144.663968
L 625.398589 -143.57398
z
" id="m51bcfb4443" style="stroke:#000000;stroke-opacity:0.3;stroke-width:0.48;"/>
    </defs>
    <g clip-path="url(#p0bd89b5d1f)">
     <use style="fill-opacity:0.3;stroke:#000000;stroke-opacity:0.3;stroke-width:0.48;" x="0" xlink:href="#m51bcfb4443" y="592.258541"/>
    </g>
   </g>
   <g id="line2d_85">
    <path clip-path="url(#p0bd89b5d1f)" d="M 625.359143 394.415086
" style="fill:none;stroke:#000000;stroke-linecap:round;stroke-width:2.8;"/>
    <g clip-path="url(#p0bd89b5d1f)">
     <use x="625.359143" xlink:href="#m1a90337410" y="394.415086"/>
    </g>
   </g>
   <g id="line2d_86">
    <path clip-path="url(#p0bd89b5d1f)" d="M 625.359143 419.328851
L 625.359143 362.619429
" style="fill:none;stroke:#000000;stroke-linecap:round;stroke-width:4;"/>
   </g>
   <g id="line2d_87">
    <path clip-path="url(#p0bd89b5d1f)" d="M 492.502 352.536348
L 678.502 352.536348
" style="fill:none;stroke:#000000;stroke-linecap:round;stroke-width:0.5;"/>
   </g>
   <g id="patch_12">
    <path d="M 519.073429 454.08
L 625.359143 454.08
" style="fill:none;stroke:#262626;stroke-linecap:square;stroke-linejoin:miter;stroke-width:1.25;"/>
   </g>
  </g>
 </g>
 <defs>
  <clipPath id="pb3e5892815">
   <rect height="199.44" width="186" x="120.502" y="19.2"/>
  </clipPath>
  <clipPath id="p4905bf02c6">
   <rect height="199.44" width="186" x="306.502" y="19.2"/>
  </clipPath>
  <clipPath id="p6ed99ad228">
   <rect height="199.44" width="186" x="492.502" y="19.2"/>
  </clipPath>
  <clipPath id="p2840be3330">
   <rect height="199.44" width="186" x="120.502" y="254.64"/>
  </clipPath>
  <clipPath id="p2951dd963d">
   <rect height="199.44" width="186" x="306.502" y="254.64"/>
  </clipPath>
  <clipPath id="p0bd89b5d1f">
   <rect height="199.44" width="186" x="492.502" y="254.64"/>
  </clipPath>
 </defs>
</svg>
