<?xml version="1.0" encoding="utf-8" standalone="no"?>
<!DOCTYPE svg PUBLIC "-//W3C//DTD SVG 1.1//EN"
  "http://www.w3.org/Graphics/SVG/1.1/DTD/svg11.dtd">
<!-- Created with matplotlib (http://matplotlib.org/) -->
<svg height="405pt" version="1.1" viewBox="0 0 780 405" width="780pt" xmlns="http://www.w3.org/2000/svg" xmlns:xlink="http://www.w3.org/1999/xlink">
 <defs>
  <style type="text/css">
*{stroke-linecap:butt;stroke-linejoin:round;}
  </style>
 </defs>
 <g id="figure_1">
  <g id="patch_1">
   <path d="M 0 405.453827 
L 780.576312 405.453827 
L 780.576312 0 
L 0 0 
z
" style="fill:none;"/>
  </g>
  <g id="axes_1">
   <g id="patch_2">
    <path d="M 94.591938 131.1 
L 652.591937 131.1 
L 652.591937 13.2 
L 94.591938 13.2 
z
" style="fill:none;"/>
   </g>
   <g id="matplotlib.axis_1">
    <g id="ytick_1">
     <g id="line2d_1">
      <defs>
       <path d="M 0 0 
L -6 0 
" id="m4917664c16" style="stroke:#262626;stroke-width:1.6;"/>
      </defs>
      <g>
       <use style="fill:#262626;stroke:#262626;stroke-width:1.6;" x="94.591938" xlink:href="#m4917664c16" y="121.206859"/>
      </g>
     </g>
     <g id="text_1">
      <text style="fill:#262626;font-family:Arial;font-size:20px;font-style:normal;font-weight:normal;text-anchor:end;" transform="rotate(-0, 77.391937, 128.364672)" x="77.391937" y="128.364672">−4</text>
     </g>
    </g>
    <g id="ytick_2">
     <g id="line2d_2">
      <g>
       <use style="fill:#262626;stroke:#262626;stroke-width:1.6;" x="94.591938" xlink:href="#m4917664c16" y="95.813319"/>
      </g>
     </g>
     <g id="text_2">
      <text style="fill:#262626;font-family:Arial;font-size:20px;font-style:normal;font-weight:normal;text-anchor:end;" transform="rotate(-0, 77.391937, 102.971132)" x="77.391937" y="102.971132">−2</text>
     </g>
    </g>
    <g id="ytick_3">
     <g id="line2d_3">
      <g>
       <use style="fill:#262626;stroke:#262626;stroke-width:1.6;" x="94.591938" xlink:href="#m4917664c16" y="70.419779"/>
      </g>
     </g>
     <g id="text_3">
      <text style="fill:#262626;font-family:Arial;font-size:20px;font-style:normal;font-weight:normal;text-anchor:end;" transform="rotate(-0, 77.391937, 77.577591)" x="77.391937" y="77.577591">0</text>
     </g>
    </g>
    <g id="ytick_4">
     <g id="line2d_4">
      <g>
       <use style="fill:#262626;stroke:#262626;stroke-width:1.6;" x="94.591938" xlink:href="#m4917664c16" y="45.026239"/>
      </g>
     </g>
     <g id="text_4">
      <text style="fill:#262626;font-family:Arial;font-size:20px;font-style:normal;font-weight:normal;text-anchor:end;" transform="rotate(-0, 77.391937, 52.184051)" x="77.391937" y="52.184051">2</text>
     </g>
    </g>
    <g id="ytick_5">
     <g id="line2d_5">
      <g>
       <use style="fill:#262626;stroke:#262626;stroke-width:1.6;" x="94.591938" xlink:href="#m4917664c16" y="19.632699"/>
      </g>
     </g>
     <g id="text_5">
      <text style="fill:#262626;font-family:Arial;font-size:20px;font-style:normal;font-weight:normal;text-anchor:end;" transform="rotate(-0, 77.391937, 26.790511)" x="77.391937" y="26.790511">4</text>
     </g>
    </g>
    <g id="text_6">
     <text style="fill:#262626;font-family:Arial;font-size:22px;font-style:normal;font-weight:normal;text-anchor:middle;" transform="rotate(-90, 46.216313, 72.15)" x="46.216313" y="72.15">value</text>
    </g>
   </g>
   <g id="PathCollection_1"/>
   <g id="PathCollection_2"/>
   <g id="patch_3">
    <path d="M 94.591938 121.206859 
L 94.591938 19.632699 
" style="fill:none;stroke:#262626;stroke-linecap:square;stroke-linejoin:miter;stroke-width:1.25;"/>
   </g>
   <g id="PathCollection_3">
    <defs>
     <path d="M 0 3 
C 0.795609 3 1.55874 2.683901 2.12132 2.12132 
C 2.683901 1.55874 3 0.795609 3 0 
C 3 -0.795609 2.683901 -1.55874 2.12132 -2.12132 
C 1.55874 -2.683901 0.795609 -3 0 -3 
C -0.795609 -3 -1.55874 -2.683901 -2.12132 -2.12132 
C -2.683901 -1.55874 -3 -0.795609 -3 0 
C -3 0.795609 -2.683901 1.55874 -2.12132 2.12132 
C -1.55874 2.683901 -0.795609 3 0 3 
z
" id="C0_0_c79ff87466"/>
    </defs>
    <g clip-path="url(#pcff1bb07f7)">
     <use style="fill:#55a868;" x="150.391938" xlink:href="#C0_0_c79ff87466" y="95.53054"/>
    </g>
    <g clip-path="url(#pcff1bb07f7)">
     <use style="fill:#55a868;" x="150.391938" xlink:href="#C0_0_c79ff87466" y="92.554976"/>
    </g>
    <g clip-path="url(#pcff1bb07f7)">
     <use style="fill:#4c72b0;" x="148.758121" xlink:href="#C0_0_c79ff87466" y="90.041371"/>
    </g>
    <g clip-path="url(#pcff1bb07f7)">
     <use style="fill:#4c72b0;" x="150.391938" xlink:href="#C0_0_c79ff87466" y="84.850956"/>
    </g>
    <g clip-path="url(#pcff1bb07f7)">
     <use style="fill:#4c72b0;" x="144.338603" xlink:href="#C0_0_c79ff87466" y="84.129813"/>
    </g>
    <g clip-path="url(#pcff1bb07f7)">
     <use style="fill:#4c72b0;" x="153.841008" xlink:href="#C0_0_c79ff87466" y="82.672996"/>
    </g>
    <g clip-path="url(#pcff1bb07f7)">
     <use style="fill:#55a868;" x="150.391938" xlink:href="#C0_0_c79ff87466" y="79.713427"/>
    </g>
    <g clip-path="url(#pcff1bb07f7)">
     <use style="fill:#4c72b0;" x="144.102534" xlink:href="#C0_0_c79ff87466" y="79.56254"/>
    </g>
    <g clip-path="url(#pcff1bb07f7)">
     <use style="fill:#55a868;" x="147.587046" xlink:href="#C0_0_c79ff87466" y="77.394229"/>
    </g>
    <g clip-path="url(#pcff1bb07f7)">
     <use style="fill:#55a868;" x="153.472052" xlink:href="#C0_0_c79ff87466" y="76.465245"/>
    </g>
    <g clip-path="url(#pcff1bb07f7)">
     <use style="fill:#55a868;" x="148.827874" xlink:href="#C0_0_c79ff87466" y="74.706619"/>
    </g>
    <g clip-path="url(#pcff1bb07f7)">
     <use style="fill:#55a868;" x="154.788358" xlink:href="#C0_0_c79ff87466" y="73.863752"/>
    </g>
    <g clip-path="url(#pcff1bb07f7)">
     <use style="fill:#55a868;" x="142.91012" xlink:href="#C0_0_c79ff87466" y="73.813844"/>
    </g>
    <g clip-path="url(#pcff1bb07f7)">
     <use style="fill:#4c72b0;" x="160.344158" xlink:href="#C0_0_c79ff87466" y="72.636638"/>
    </g>
    <g clip-path="url(#pcff1bb07f7)">
     <use style="fill:#4c72b0;" x="150.391938" xlink:href="#C0_0_c79ff87466" y="70.526227"/>
    </g>
    <g clip-path="url(#pcff1bb07f7)">
     <use style="fill:#4c72b0;" x="156.679882" xlink:href="#C0_0_c79ff87466" y="70.365292"/>
    </g>
    <g clip-path="url(#pcff1bb07f7)">
     <use style="fill:#55a868;" x="145.028399" xlink:href="#C0_0_c79ff87466" y="69.160904"/>
    </g>
    <g clip-path="url(#pcff1bb07f7)">
     <use style="fill:#4c72b0;" x="138.735026" xlink:href="#C0_0_c79ff87466" y="69.041563"/>
    </g>
    <g clip-path="url(#pcff1bb07f7)">
     <use style="fill:#55a868;" x="161.590393" xlink:href="#C0_0_c79ff87466" y="68.734812"/>
    </g>
    <g clip-path="url(#pcff1bb07f7)">
     <use style="fill:#4c72b0;" x="167.88995" xlink:href="#C0_0_c79ff87466" y="68.703977"/>
    </g>
    <g clip-path="url(#pcff1bb07f7)">
     <use style="fill:#55a868;" x="151.174603" xlink:href="#C0_0_c79ff87466" y="67.94374"/>
    </g>
    <g clip-path="url(#pcff1bb07f7)">
     <use style="fill:#4c72b0;" x="133.629185" xlink:href="#C0_0_c79ff87466" y="67.516915"/>
    </g>
    <g clip-path="url(#pcff1bb07f7)">
     <use style="fill:#4c72b0;" x="172.751486" xlink:href="#C0_0_c79ff87466" y="67.048639"/>
    </g>
    <g clip-path="url(#pcff1bb07f7)">
     <use style="fill:#55a868;" x="156.806005" xlink:href="#C0_0_c79ff87466" y="67.041547"/>
    </g>
    <g clip-path="url(#pcff1bb07f7)">
     <use style="fill:#55a868;" x="150.391938" xlink:href="#C0_0_c79ff87466" y="65.338405"/>
    </g>
    <g clip-path="url(#pcff1bb07f7)">
     <use style="fill:#4c72b0;" x="144.173193" xlink:href="#C0_0_c79ff87466" y="64.921745"/>
    </g>
    <g clip-path="url(#pcff1bb07f7)">
     <use style="fill:#4c72b0;" x="159.872283" xlink:href="#C0_0_c79ff87466" y="64.767969"/>
    </g>
    <g clip-path="url(#pcff1bb07f7)">
     <use style="fill:#55a868;" x="150.391938" xlink:href="#C0_0_c79ff87466" y="62.634066"/>
    </g>
    <g clip-path="url(#pcff1bb07f7)">
     <use style="fill:#4c72b0;" x="156.652833" xlink:href="#C0_0_c79ff87466" y="62.530819"/>
    </g>
    <g clip-path="url(#pcff1bb07f7)">
     <use style="fill:#4c72b0;" x="144.928585" xlink:href="#C0_0_c79ff87466" y="61.338046"/>
    </g>
    <g clip-path="url(#pcff1bb07f7)">
     <use style="fill:#4c72b0;" x="150.391938" xlink:href="#C0_0_c79ff87466" y="57.364019"/>
    </g>
    <g clip-path="url(#pcff1bb07f7)">
     <use style="fill:#55a868;" x="144.816081" xlink:href="#C0_0_c79ff87466" y="56.152529"/>
    </g>
    <g clip-path="url(#pcff1bb07f7)">
     <use style="fill:#4c72b0;" x="153.684443" xlink:href="#C0_0_c79ff87466" y="55.14509"/>
    </g>
    <g clip-path="url(#pcff1bb07f7)">
     <use style="fill:#55a868;" x="159.766628" xlink:href="#C0_0_c79ff87466" y="54.466639"/>
    </g>
    <g clip-path="url(#pcff1bb07f7)">
     <use style="fill:#55a868;" x="148.281717" xlink:href="#C0_0_c79ff87466" y="53.806397"/>
    </g>
    <g clip-path="url(#pcff1bb07f7)">
     <use style="fill:#4c72b0;" x="142.021894" xlink:href="#C0_0_c79ff87466" y="53.512931"/>
    </g>
    <g clip-path="url(#pcff1bb07f7)">
     <use style="fill:#55a868;" x="164.324153" xlink:href="#C0_0_c79ff87466" y="52.66974"/>
    </g>
    <g clip-path="url(#pcff1bb07f7)">
     <use style="fill:#4c72b0;" x="151.508107" xlink:href="#C0_0_c79ff87466" y="51.570954"/>
    </g>
    <g clip-path="url(#pcff1bb07f7)">
     <use style="fill:#55a868;" x="149.003177" xlink:href="#C0_0_c79ff87466" y="49.182879"/>
    </g>
    <g clip-path="url(#pcff1bb07f7)">
     <use style="fill:#55a868;" x="150.391938" xlink:href="#C0_0_c79ff87466" y="40.138397"/>
    </g>
   </g>
   <g id="PathCollection_4">
    <defs>
     <path d="M 0 3 
C 0.795609 3 1.55874 2.683901 2.12132 2.12132 
C 2.683901 1.55874 3 0.795609 3 0 
C 3 -0.795609 2.683901 -1.55874 2.12132 -2.12132 
C 1.55874 -2.683901 0.795609 -3 0 -3 
C -0.795609 -3 -1.55874 -2.683901 -2.12132 -2.12132 
C -2.683901 -1.55874 -3 -0.795609 -3 0 
C -3 0.795609 -2.683901 1.55874 -2.12132 2.12132 
C -1.55874 2.683901 -0.795609 3 0 3 
z
" id="C1_0_d0e9e54876"/>
    </defs>
    <g clip-path="url(#pcff1bb07f7)">
     <use style="fill:#4c72b0;" x="261.991938" xlink:href="#C1_0_d0e9e54876" y="104.108355"/>
    </g>
    <g clip-path="url(#pcff1bb07f7)">
     <use style="fill:#55a868;" x="261.991938" xlink:href="#C1_0_d0e9e54876" y="90.059937"/>
    </g>
    <g clip-path="url(#pcff1bb07f7)">
     <use style="fill:#4c72b0;" x="261.991938" xlink:href="#C1_0_d0e9e54876" y="86.996028"/>
    </g>
    <g clip-path="url(#pcff1bb07f7)">
     <use style="fill:#4c72b0;" x="259.348882" xlink:href="#C1_0_d0e9e54876" y="84.633499"/>
    </g>
    <g clip-path="url(#pcff1bb07f7)">
     <use style="fill:#4c72b0;" x="265.427421" xlink:href="#C1_0_d0e9e54876" y="83.949495"/>
    </g>
    <g clip-path="url(#pcff1bb07f7)">
     <use style="fill:#4c72b0;" x="261.991938" xlink:href="#C1_0_d0e9e54876" y="81.67216"/>
    </g>
    <g clip-path="url(#pcff1bb07f7)">
     <use style="fill:#4c72b0;" x="261.073058" xlink:href="#C1_0_d0e9e54876" y="79.097344"/>
    </g>
    <g clip-path="url(#pcff1bb07f7)">
     <use style="fill:#55a868;" x="267.24656" xlink:href="#C1_0_d0e9e54876" y="78.578411"/>
    </g>
    <g clip-path="url(#pcff1bb07f7)">
     <use style="fill:#55a868;" x="255.747088" xlink:href="#C1_0_d0e9e54876" y="77.707148"/>
    </g>
    <g clip-path="url(#pcff1bb07f7)">
     <use style="fill:#4c72b0;" x="272.639848" xlink:href="#C1_0_d0e9e54876" y="77.233239"/>
    </g>
    <g clip-path="url(#pcff1bb07f7)">
     <use style="fill:#55a868;" x="262.819491" xlink:href="#C1_0_d0e9e54876" y="76.596695"/>
    </g>
    <g clip-path="url(#pcff1bb07f7)">
     <use style="fill:#4c72b0;" x="250.077661" xlink:href="#C1_0_d0e9e54876" y="76.572191"/>
    </g>
    <g clip-path="url(#pcff1bb07f7)">
     <use style="fill:#4c72b0;" x="278.65543" xlink:href="#C1_0_d0e9e54876" y="76.460058"/>
    </g>
    <g clip-path="url(#pcff1bb07f7)">
     <use style="fill:#55a868;" x="268.212545" xlink:href="#C1_0_d0e9e54876" y="75.251362"/>
    </g>
    <g clip-path="url(#pcff1bb07f7)">
     <use style="fill:#4c72b0;" x="259.160294" xlink:href="#C1_0_d0e9e54876" y="74.478065"/>
    </g>
    <g clip-path="url(#pcff1bb07f7)">
     <use style="fill:#55a868;" x="274.123026" xlink:href="#C1_0_d0e9e54876" y="74.350402"/>
    </g>
    <g clip-path="url(#pcff1bb07f7)">
     <use style="fill:#4c72b0;" x="252.945292" xlink:href="#C1_0_d0e9e54876" y="74.051982"/>
    </g>
    <g clip-path="url(#pcff1bb07f7)">
     <use style="fill:#55a868;" x="264.370122" xlink:href="#C1_0_d0e9e54876" y="73.014685"/>
    </g>
    <g clip-path="url(#pcff1bb07f7)">
     <use style="fill:#55a868;" x="247.450937" xlink:href="#C1_0_d0e9e54876" y="72.778525"/>
    </g>
    <g clip-path="url(#pcff1bb07f7)">
     <use style="fill:#55a868;" x="278.956274" xlink:href="#C1_0_d0e9e54876" y="72.680987"/>
    </g>
    <g clip-path="url(#pcff1bb07f7)">
     <use style="fill:#4c72b0;" x="261.005362" xlink:href="#C1_0_d0e9e54876" y="70.814332"/>
    </g>
    <g clip-path="url(#pcff1bb07f7)">
     <use style="fill:#4c72b0;" x="267.266303" xlink:href="#C1_0_d0e9e54876" y="70.524967"/>
    </g>
    <g clip-path="url(#pcff1bb07f7)">
     <use style="fill:#55a868;" x="255.418717" xlink:href="#C1_0_d0e9e54876" y="69.611354"/>
    </g>
    <g clip-path="url(#pcff1bb07f7)">
     <use style="fill:#55a868;" x="273.043244" xlink:href="#C1_0_d0e9e54876" y="69.486652"/>
    </g>
    <g clip-path="url(#pcff1bb07f7)">
     <use style="fill:#55a868;" x="249.166909" xlink:href="#C1_0_d0e9e54876" y="69.29005"/>
    </g>
    <g clip-path="url(#pcff1bb07f7)">
     <use style="fill:#55a868;" x="261.991938" xlink:href="#C1_0_d0e9e54876" y="66.657128"/>
    </g>
    <g clip-path="url(#pcff1bb07f7)">
     <use style="fill:#4c72b0;" x="255.719218" xlink:href="#C1_0_d0e9e54876" y="66.415184"/>
    </g>
    <g clip-path="url(#pcff1bb07f7)">
     <use style="fill:#4c72b0;" x="266.99203" xlink:href="#C1_0_d0e9e54876" y="65.073795"/>
    </g>
    <g clip-path="url(#pcff1bb07f7)">
     <use style="fill:#4c72b0;" x="261.991938" xlink:href="#C1_0_d0e9e54876" y="63.294451"/>
    </g>
    <g clip-path="url(#pcff1bb07f7)">
     <use style="fill:#55a868;" x="267.925529" xlink:href="#C1_0_d0e9e54876" y="62.4198"/>
    </g>
    <g clip-path="url(#pcff1bb07f7)">
     <use style="fill:#4c72b0;" x="257.083237" xlink:href="#C1_0_d0e9e54876" y="61.663041"/>
    </g>
    <g clip-path="url(#pcff1bb07f7)">
     <use style="fill:#55a868;" x="250.881538" xlink:href="#C1_0_d0e9e54876" y="61.20507"/>
    </g>
    <g clip-path="url(#pcff1bb07f7)">
     <use style="fill:#55a868;" x="273.386821" xlink:href="#C1_0_d0e9e54876" y="61.122298"/>
    </g>
    <g clip-path="url(#pcff1bb07f7)">
     <use style="fill:#4c72b0;" x="244.590757" xlink:href="#C1_0_d0e9e54876" y="61.064324"/>
    </g>
    <g clip-path="url(#pcff1bb07f7)">
     <use style="fill:#55a868;" x="261.991938" xlink:href="#C1_0_d0e9e54876" y="56.508821"/>
    </g>
    <g clip-path="url(#pcff1bb07f7)">
     <use style="fill:#55a868;" x="260.609475" xlink:href="#C1_0_d0e9e54876" y="53.969608"/>
    </g>
    <g clip-path="url(#pcff1bb07f7)">
     <use style="fill:#55a868;" x="265.980202" xlink:href="#C1_0_d0e9e54876" y="52.609117"/>
    </g>
    <g clip-path="url(#pcff1bb07f7)">
     <use style="fill:#55a868;" x="261.56744" xlink:href="#C1_0_d0e9e54876" y="50.751573"/>
    </g>
    <g clip-path="url(#pcff1bb07f7)">
     <use style="fill:#4c72b0;" x="255.316617" xlink:href="#C1_0_d0e9e54876" y="50.427012"/>
    </g>
    <g clip-path="url(#pcff1bb07f7)">
     <use style="fill:#4c72b0;" x="262.894887" xlink:href="#C1_0_d0e9e54876" y="48.207354"/>
    </g>
   </g>
   <g id="PathCollection_5">
    <defs>
     <path d="M 0 3 
C 0.795609 3 1.55874 2.683901 2.12132 2.12132 
C 2.683901 1.55874 3 0.795609 3 0 
C 3 -0.795609 2.683901 -1.55874 2.12132 -2.12132 
C 1.55874 -2.683901 0.795609 -3 0 -3 
C -0.795609 -3 -1.55874 -2.683901 -2.12132 -2.12132 
C -2.683901 -1.55874 -3 -0.795609 -3 0 
C -3 0.795609 -2.683901 1.55874 -2.12132 2.12132 
C -1.55874 2.683901 -0.795609 3 0 3 
z
" id="C2_0_ece1d7864a"/>
    </defs>
    <g clip-path="url(#pcff1bb07f7)">
     <use style="fill:#55a868;" x="373.591937" xlink:href="#C2_0_ece1d7864a" y="99.857684"/>
    </g>
    <g clip-path="url(#pcff1bb07f7)">
     <use style="fill:#55a868;" x="367.293966" xlink:href="#C2_0_ece1d7864a" y="99.791642"/>
    </g>
    <g clip-path="url(#pcff1bb07f7)">
     <use style="fill:#55a868;" x="373.591937" xlink:href="#C2_0_ece1d7864a" y="94.392477"/>
    </g>
    <g clip-path="url(#pcff1bb07f7)">
     <use style="fill:#4c72b0;" x="367.892688" xlink:href="#C2_0_ece1d7864a" y="93.283305"/>
    </g>
    <g clip-path="url(#pcff1bb07f7)">
     <use style="fill:#55a868;" x="378.977939" xlink:href="#C2_0_ece1d7864a" y="93.042332"/>
    </g>
    <g clip-path="url(#pcff1bb07f7)">
     <use style="fill:#4c72b0;" x="373.591937" xlink:href="#C2_0_ece1d7864a" y="91.17546"/>
    </g>
    <g clip-path="url(#pcff1bb07f7)">
     <use style="fill:#4c72b0;" x="373.591937" xlink:href="#C2_0_ece1d7864a" y="87.118175"/>
    </g>
    <g clip-path="url(#pcff1bb07f7)">
     <use style="fill:#55a868;" x="367.575521" xlink:href="#C2_0_ece1d7864a" y="86.346102"/>
    </g>
    <g clip-path="url(#pcff1bb07f7)">
     <use style="fill:#4c72b0;" x="376.263707" xlink:href="#C2_0_ece1d7864a" y="84.761164"/>
    </g>
    <g clip-path="url(#pcff1bb07f7)">
     <use style="fill:#55a868;" x="382.484875" xlink:href="#C2_0_ece1d7864a" y="84.350724"/>
    </g>
    <g clip-path="url(#pcff1bb07f7)">
     <use style="fill:#4c72b0;" x="371.062365" xlink:href="#C2_0_ece1d7864a" y="83.292642"/>
    </g>
    <g clip-path="url(#pcff1bb07f7)">
     <use style="fill:#4c72b0;" x="376.438082" xlink:href="#C2_0_ece1d7864a" y="81.935519"/>
    </g>
    <g clip-path="url(#pcff1bb07f7)">
     <use style="fill:#55a868;" x="369.683182" xlink:href="#C2_0_ece1d7864a" y="80.753125"/>
    </g>
    <g clip-path="url(#pcff1bb07f7)">
     <use style="fill:#4c72b0;" x="381.417985" xlink:href="#C2_0_ece1d7864a" y="80.341364"/>
    </g>
    <g clip-path="url(#pcff1bb07f7)">
     <use style="fill:#55a868;" x="363.480611" xlink:href="#C2_0_ece1d7864a" y="80.297172"/>
    </g>
    <g clip-path="url(#pcff1bb07f7)">
     <use style="fill:#55a868;" x="387.630745" xlink:href="#C2_0_ece1d7864a" y="79.909736"/>
    </g>
    <g clip-path="url(#pcff1bb07f7)">
     <use style="fill:#4c72b0;" x="374.876686" xlink:href="#C2_0_ece1d7864a" y="79.279876"/>
    </g>
    <g clip-path="url(#pcff1bb07f7)">
     <use style="fill:#55a868;" x="359.171676" xlink:href="#C2_0_ece1d7864a" y="78.398484"/>
    </g>
    <g clip-path="url(#pcff1bb07f7)">
     <use style="fill:#55a868;" x="373.591937" xlink:href="#C2_0_ece1d7864a" y="76.569571"/>
    </g>
    <g clip-path="url(#pcff1bb07f7)">
     <use style="fill:#55a868;" x="368.73243" xlink:href="#C2_0_ece1d7864a" y="74.913218"/>
    </g>
    <g clip-path="url(#pcff1bb07f7)">
     <use style="fill:#4c72b0;" x="373.591937" xlink:href="#C2_0_ece1d7864a" y="73.240364"/>
    </g>
    <g clip-path="url(#pcff1bb07f7)">
     <use style="fill:#4c72b0;" x="379.891661" xlink:href="#C2_0_ece1d7864a" y="73.215959"/>
    </g>
    <g clip-path="url(#pcff1bb07f7)">
     <use style="fill:#55a868;" x="367.830676" xlink:href="#C2_0_ece1d7864a" y="72.187286"/>
    </g>
    <g clip-path="url(#pcff1bb07f7)">
     <use style="fill:#4c72b0;" x="384.87635" xlink:href="#C2_0_ece1d7864a" y="71.624359"/>
    </g>
    <g clip-path="url(#pcff1bb07f7)">
     <use style="fill:#55a868;" x="361.962994" xlink:href="#C2_0_ece1d7864a" y="71.239783"/>
    </g>
    <g clip-path="url(#pcff1bb07f7)">
     <use style="fill:#55a868;" x="375.495709" xlink:href="#C2_0_ece1d7864a" y="70.759391"/>
    </g>
    <g clip-path="url(#pcff1bb07f7)">
     <use style="fill:#55a868;" x="389.65131" xlink:href="#C2_0_ece1d7864a" y="69.926558"/>
    </g>
    <g clip-path="url(#pcff1bb07f7)">
     <use style="fill:#55a868;" x="370.944051" xlink:href="#C2_0_ece1d7864a" y="68.959956"/>
    </g>
    <g clip-path="url(#pcff1bb07f7)">
     <use style="fill:#4c72b0;" x="379.052692" xlink:href="#C2_0_ece1d7864a" y="68.611257"/>
    </g>
    <g clip-path="url(#pcff1bb07f7)">
     <use style="fill:#4c72b0;" x="373.591937" xlink:href="#C2_0_ece1d7864a" y="65.690778"/>
    </g>
    <g clip-path="url(#pcff1bb07f7)">
     <use style="fill:#4c72b0;" x="367.291958" xlink:href="#C2_0_ece1d7864a" y="65.684064"/>
    </g>
    <g clip-path="url(#pcff1bb07f7)">
     <use style="fill:#55a868;" x="379.826735" xlink:href="#C2_0_ece1d7864a" y="65.317299"/>
    </g>
    <g clip-path="url(#pcff1bb07f7)">
     <use style="fill:#55a868;" x="361.217411" xlink:href="#C2_0_ece1d7864a" y="64.994034"/>
    </g>
    <g clip-path="url(#pcff1bb07f7)">
     <use style="fill:#55a868;" x="384.460206" xlink:href="#C2_0_ece1d7864a" y="63.553859"/>
    </g>
    <g clip-path="url(#pcff1bb07f7)">
     <use style="fill:#4c72b0;" x="373.591937" xlink:href="#C2_0_ece1d7864a" y="62.126974"/>
    </g>
    <g clip-path="url(#pcff1bb07f7)">
     <use style="fill:#4c72b0;" x="373.591937" xlink:href="#C2_0_ece1d7864a" y="58.83378"/>
    </g>
    <g clip-path="url(#pcff1bb07f7)">
     <use style="fill:#4c72b0;" x="367.8375" xlink:href="#C2_0_ece1d7864a" y="57.774353"/>
    </g>
    <g clip-path="url(#pcff1bb07f7)">
     <use style="fill:#4c72b0;" x="375.302888" xlink:href="#C2_0_ece1d7864a" y="56.328949"/>
    </g>
    <g clip-path="url(#pcff1bb07f7)">
     <use style="fill:#4c72b0;" x="370.497494" xlink:href="#C2_0_ece1d7864a" y="54.645866"/>
    </g>
    <g clip-path="url(#pcff1bb07f7)">
     <use style="fill:#4c72b0;" x="373.591937" xlink:href="#C2_0_ece1d7864a" y="35.226625"/>
    </g>
   </g>
   <g id="PathCollection_6">
    <defs>
     <path d="M 0 3 
C 0.795609 3 1.55874 2.683901 2.12132 2.12132 
C 2.683901 1.55874 3 0.795609 3 0 
C 3 -0.795609 2.683901 -1.55874 2.12132 -2.12132 
C 1.55874 -2.683901 0.795609 -3 0 -3 
C -0.795609 -3 -1.55874 -2.683901 -2.12132 -2.12132 
C -2.683901 -1.55874 -3 -0.795609 -3 0 
C -3 0.795609 -2.683901 1.55874 -2.12132 2.12132 
C -1.55874 2.683901 -0.795609 3 0 3 
z
" id="C3_0_ae05b6eb47"/>
    </defs>
    <g clip-path="url(#pcff1bb07f7)">
     <use style="fill:#55a868;" x="485.191937" xlink:href="#C3_0_ae05b6eb47" y="88.691617"/>
    </g>
    <g clip-path="url(#pcff1bb07f7)">
     <use style="fill:#55a868;" x="478.935214" xlink:href="#C3_0_ae05b6eb47" y="88.387079"/>
    </g>
    <g clip-path="url(#pcff1bb07f7)">
     <use style="fill:#55a868;" x="490.15528" xlink:href="#C3_0_ae05b6eb47" y="87.088671"/>
    </g>
    <g clip-path="url(#pcff1bb07f7)">
     <use style="fill:#4c72b0;" x="485.191937" xlink:href="#C3_0_ae05b6eb47" y="83.898745"/>
    </g>
    <g clip-path="url(#pcff1bb07f7)">
     <use style="fill:#55a868;" x="481.882498" xlink:href="#C3_0_ae05b6eb47" y="81.68412"/>
    </g>
    <g clip-path="url(#pcff1bb07f7)">
     <use style="fill:#4c72b0;" x="488.050095" xlink:href="#C3_0_ae05b6eb47" y="81.153338"/>
    </g>
    <g clip-path="url(#pcff1bb07f7)">
     <use style="fill:#55a868;" x="476.435944" xlink:href="#C3_0_ae05b6eb47" y="80.376088"/>
    </g>
    <g clip-path="url(#pcff1bb07f7)">
     <use style="fill:#4c72b0;" x="485.191937" xlink:href="#C3_0_ae05b6eb47" y="77.898037"/>
    </g>
    <g clip-path="url(#pcff1bb07f7)">
     <use style="fill:#55a868;" x="478.938797" xlink:href="#C3_0_ae05b6eb47" y="77.581189"/>
    </g>
    <g clip-path="url(#pcff1bb07f7)">
     <use style="fill:#4c72b0;" x="491.035557" xlink:href="#C3_0_ae05b6eb47" y="76.925485"/>
    </g>
    <g clip-path="url(#pcff1bb07f7)">
     <use style="fill:#55a868;" x="474.426622" xlink:href="#C3_0_ae05b6eb47" y="75.764861"/>
    </g>
    <g clip-path="url(#pcff1bb07f7)">
     <use style="fill:#55a868;" x="485.191937" xlink:href="#C3_0_ae05b6eb47" y="73.641615"/>
    </g>
    <g clip-path="url(#pcff1bb07f7)">
     <use style="fill:#55a868;" x="481.942666" xlink:href="#C3_0_ae05b6eb47" y="71.411835"/>
    </g>
    <g clip-path="url(#pcff1bb07f7)">
     <use style="fill:#4c72b0;" x="488.151171" xlink:href="#C3_0_ae05b6eb47" y="70.969882"/>
    </g>
    <g clip-path="url(#pcff1bb07f7)">
     <use style="fill:#55a868;" x="477.14676" xlink:href="#C3_0_ae05b6eb47" y="69.72414"/>
    </g>
    <g clip-path="url(#pcff1bb07f7)">
     <use style="fill:#4c72b0;" x="485.191937" xlink:href="#C3_0_ae05b6eb47" y="68.44547"/>
    </g>
    <g clip-path="url(#pcff1bb07f7)">
     <use style="fill:#4c72b0;" x="491.468324" xlink:href="#C3_0_ae05b6eb47" y="68.220338"/>
    </g>
    <g clip-path="url(#pcff1bb07f7)">
     <use style="fill:#55a868;" x="480.762712" xlink:href="#C3_0_ae05b6eb47" y="66.594626"/>
    </g>
    <g clip-path="url(#pcff1bb07f7)">
     <use style="fill:#4c72b0;" x="495.62364" xlink:href="#C3_0_ae05b6eb47" y="66.264084"/>
    </g>
    <g clip-path="url(#pcff1bb07f7)">
     <use style="fill:#55a868;" x="485.953079" xlink:href="#C3_0_ae05b6eb47" y="65.119491"/>
    </g>
    <g clip-path="url(#pcff1bb07f7)">
     <use style="fill:#55a868;" x="476.065081" xlink:href="#C3_0_ae05b6eb47" y="64.860399"/>
    </g>
    <g clip-path="url(#pcff1bb07f7)">
     <use style="fill:#4c72b0;" x="491.454286" xlink:href="#C3_0_ae05b6eb47" y="63.851093"/>
    </g>
    <g clip-path="url(#pcff1bb07f7)">
     <use style="fill:#55a868;" x="482.926984" xlink:href="#C3_0_ae05b6eb47" y="62.836743"/>
    </g>
    <g clip-path="url(#pcff1bb07f7)">
     <use style="fill:#4c72b0;" x="476.854335" xlink:href="#C3_0_ae05b6eb47" y="62.143867"/>
    </g>
    <g clip-path="url(#pcff1bb07f7)">
     <use style="fill:#55a868;" x="494.808286" xlink:href="#C3_0_ae05b6eb47" y="61.647938"/>
    </g>
    <g clip-path="url(#pcff1bb07f7)">
     <use style="fill:#55a868;" x="488.098092" xlink:href="#C3_0_ae05b6eb47" y="61.35011"/>
    </g>
    <g clip-path="url(#pcff1bb07f7)">
     <use style="fill:#4c72b0;" x="471.060801" xlink:href="#C3_0_ae05b6eb47" y="61.121453"/>
    </g>
    <g clip-path="url(#pcff1bb07f7)">
     <use style="fill:#4c72b0;" x="500.707161" xlink:href="#C3_0_ae05b6eb47" y="60.734089"/>
    </g>
    <g clip-path="url(#pcff1bb07f7)">
     <use style="fill:#4c72b0;" x="482.46763" xlink:href="#C3_0_ae05b6eb47" y="60.182517"/>
    </g>
    <g clip-path="url(#pcff1bb07f7)">
     <use style="fill:#4c72b0;" x="486.843221" xlink:href="#C3_0_ae05b6eb47" y="58.310026"/>
    </g>
    <g clip-path="url(#pcff1bb07f7)">
     <use style="fill:#4c72b0;" x="481.478016" xlink:href="#C3_0_ae05b6eb47" y="56.945822"/>
    </g>
    <g clip-path="url(#pcff1bb07f7)">
     <use style="fill:#4c72b0;" x="490.782338" xlink:href="#C3_0_ae05b6eb47" y="56.278869"/>
    </g>
    <g clip-path="url(#pcff1bb07f7)">
     <use style="fill:#55a868;" x="475.842312" xlink:href="#C3_0_ae05b6eb47" y="55.782554"/>
    </g>
    <g clip-path="url(#pcff1bb07f7)">
     <use style="fill:#55a868;" x="485.191937" xlink:href="#C3_0_ae05b6eb47" y="52.762314"/>
    </g>
    <g clip-path="url(#pcff1bb07f7)">
     <use style="fill:#4c72b0;" x="481.047908" xlink:href="#C3_0_ae05b6eb47" y="50.801978"/>
    </g>
    <g clip-path="url(#pcff1bb07f7)">
     <use style="fill:#4c72b0;" x="489.149843" xlink:href="#C3_0_ae05b6eb47" y="50.7374"/>
    </g>
    <g clip-path="url(#pcff1bb07f7)">
     <use style="fill:#55a868;" x="495.266819" xlink:href="#C3_0_ae05b6eb47" y="50.114616"/>
    </g>
    <g clip-path="url(#pcff1bb07f7)">
     <use style="fill:#4c72b0;" x="476.269378" xlink:href="#C3_0_ae05b6eb47" y="49.105892"/>
    </g>
    <g clip-path="url(#pcff1bb07f7)">
     <use style="fill:#55a868;" x="485.191937" xlink:href="#C3_0_ae05b6eb47" y="43.848712"/>
    </g>
    <g clip-path="url(#pcff1bb07f7)">
     <use style="fill:#4c72b0;" x="485.191937" xlink:href="#C3_0_ae05b6eb47" y="40.577507"/>
    </g>
   </g>
   <g id="PathCollection_7">
    <defs>
     <path d="M 0 3 
C 0.795609 3 1.55874 2.683901 2.12132 2.12132 
C 2.683901 1.55874 3 0.795609 3 0 
C 3 -0.795609 2.683901 -1.55874 2.12132 -2.12132 
C 1.55874 -2.683901 0.795609 -3 0 -3 
C -0.795609 -3 -1.55874 -2.683901 -2.12132 -2.12132 
C -2.683901 -1.55874 -3 -0.795609 -3 0 
C -3 0.795609 -2.683901 1.55874 -2.12132 2.12132 
C -1.55874 2.683901 -0.795609 3 0 3 
z
" id="C4_0_183a5384f9"/>
    </defs>
    <g clip-path="url(#pcff1bb07f7)">
     <use style="fill:#55a868;" x="596.791938" xlink:href="#C4_0_183a5384f9" y="109.073375"/>
    </g>
    <g clip-path="url(#pcff1bb07f7)">
     <use style="fill:#55a868;" x="590.693566" xlink:href="#C4_0_183a5384f9" y="108.420193"/>
    </g>
    <g clip-path="url(#pcff1bb07f7)">
     <use style="fill:#4c72b0;" x="602.213653" xlink:href="#C4_0_183a5384f9" y="107.747848"/>
    </g>
    <g clip-path="url(#pcff1bb07f7)">
     <use style="fill:#55a868;" x="585.813059" xlink:href="#C4_0_183a5384f9" y="106.774411"/>
    </g>
    <g clip-path="url(#pcff1bb07f7)">
     <use style="fill:#55a868;" x="596.791938" xlink:href="#C4_0_183a5384f9" y="104.042577"/>
    </g>
    <g clip-path="url(#pcff1bb07f7)">
     <use style="fill:#55a868;" x="590.705999" xlink:href="#C4_0_183a5384f9" y="103.369897"/>
    </g>
    <g clip-path="url(#pcff1bb07f7)">
     <use style="fill:#55a868;" x="596.791938" xlink:href="#C4_0_183a5384f9" y="99.417933"/>
    </g>
    <g clip-path="url(#pcff1bb07f7)">
     <use style="fill:#55a868;" x="590.572709" xlink:href="#C4_0_183a5384f9" y="99.002507"/>
    </g>
    <g clip-path="url(#pcff1bb07f7)">
     <use style="fill:#4c72b0;" x="602.612284" xlink:href="#C4_0_183a5384f9" y="98.421848"/>
    </g>
    <g clip-path="url(#pcff1bb07f7)">
     <use style="fill:#4c72b0;" x="608.906335" xlink:href="#C4_0_183a5384f9" y="98.308772"/>
    </g>
    <g clip-path="url(#pcff1bb07f7)">
     <use style="fill:#55a868;" x="596.05306" xlink:href="#C4_0_183a5384f9" y="96.833246"/>
    </g>
    <g clip-path="url(#pcff1bb07f7)">
     <use style="fill:#55a868;" x="596.791938" xlink:href="#C4_0_183a5384f9" y="94.194866"/>
    </g>
    <g clip-path="url(#pcff1bb07f7)">
     <use style="fill:#4c72b0;" x="596.791938" xlink:href="#C4_0_183a5384f9" y="91.00729"/>
    </g>
    <g clip-path="url(#pcff1bb07f7)">
     <use style="fill:#4c72b0;" x="590.865179" xlink:href="#C4_0_183a5384f9" y="90.124768"/>
    </g>
    <g clip-path="url(#pcff1bb07f7)">
     <use style="fill:#55a868;" x="602.563238" xlink:href="#C4_0_183a5384f9" y="89.963636"/>
    </g>
    <g clip-path="url(#pcff1bb07f7)">
     <use style="fill:#55a868;" x="608.863213" xlink:href="#C4_0_183a5384f9" y="89.956403"/>
    </g>
    <g clip-path="url(#pcff1bb07f7)">
     <use style="fill:#4c72b0;" x="584.636914" xlink:href="#C4_0_183a5384f9" y="89.733131"/>
    </g>
    <g clip-path="url(#pcff1bb07f7)">
     <use style="fill:#4c72b0;" x="596.791938" xlink:href="#C4_0_183a5384f9" y="87.478668"/>
    </g>
    <g clip-path="url(#pcff1bb07f7)">
     <use style="fill:#4c72b0;" x="590.496587" xlink:href="#C4_0_183a5384f9" y="87.37869"/>
    </g>
    <g clip-path="url(#pcff1bb07f7)">
     <use style="fill:#4c72b0;" x="601.833867" xlink:href="#C4_0_183a5384f9" y="85.918142"/>
    </g>
    <g clip-path="url(#pcff1bb07f7)">
     <use style="fill:#4c72b0;" x="586.426218" xlink:href="#C4_0_183a5384f9" y="85.39219"/>
    </g>
    <g clip-path="url(#pcff1bb07f7)">
     <use style="fill:#4c72b0;" x="607.950054" xlink:href="#C4_0_183a5384f9" y="85.294037"/>
    </g>
    <g clip-path="url(#pcff1bb07f7)">
     <use style="fill:#55a868;" x="596.791938" xlink:href="#C4_0_183a5384f9" y="84.342519"/>
    </g>
    <g clip-path="url(#pcff1bb07f7)">
     <use style="fill:#55a868;" x="591.225151" xlink:href="#C4_0_183a5384f9" y="83.12393"/>
    </g>
    <g clip-path="url(#pcff1bb07f7)">
     <use style="fill:#4c72b0;" x="602.049749" xlink:href="#C4_0_183a5384f9" y="82.908727"/>
    </g>
    <g clip-path="url(#pcff1bb07f7)">
     <use style="fill:#55a868;" x="596.791938" xlink:href="#C4_0_183a5384f9" y="81.416965"/>
    </g>
    <g clip-path="url(#pcff1bb07f7)">
     <use style="fill:#55a868;" x="591.600493" xlink:href="#C4_0_183a5384f9" y="79.942478"/>
    </g>
    <g clip-path="url(#pcff1bb07f7)">
     <use style="fill:#4c72b0;" x="601.778728" xlink:href="#C4_0_183a5384f9" y="79.826488"/>
    </g>
    <g clip-path="url(#pcff1bb07f7)">
     <use style="fill:#4c72b0;" x="596.791938" xlink:href="#C4_0_183a5384f9" y="78.377947"/>
    </g>
    <g clip-path="url(#pcff1bb07f7)">
     <use style="fill:#55a868;" x="586.830652" xlink:href="#C4_0_183a5384f9" y="78.242223"/>
    </g>
    <g clip-path="url(#pcff1bb07f7)">
     <use style="fill:#4c72b0;" x="606.609219" xlink:href="#C4_0_183a5384f9" y="78.155712"/>
    </g>
    <g clip-path="url(#pcff1bb07f7)">
     <use style="fill:#4c72b0;" x="612.624453" xlink:href="#C4_0_183a5384f9" y="77.38207"/>
    </g>
    <g clip-path="url(#pcff1bb07f7)">
     <use style="fill:#4c72b0;" x="596.791938" xlink:href="#C4_0_183a5384f9" y="74.745191"/>
    </g>
    <g clip-path="url(#pcff1bb07f7)">
     <use style="fill:#4c72b0;" x="591.138575" xlink:href="#C4_0_183a5384f9" y="73.596639"/>
    </g>
    <g clip-path="url(#pcff1bb07f7)">
     <use style="fill:#4c72b0;" x="602.306107" xlink:href="#C4_0_183a5384f9" y="73.486436"/>
    </g>
    <g clip-path="url(#pcff1bb07f7)">
     <use style="fill:#55a868;" x="596.791938" xlink:href="#C4_0_183a5384f9" y="65.100781"/>
    </g>
    <g clip-path="url(#pcff1bb07f7)">
     <use style="fill:#55a868;" x="592.447876" xlink:href="#C4_0_183a5384f9" y="63.215803"/>
    </g>
    <g clip-path="url(#pcff1bb07f7)">
     <use style="fill:#55a868;" x="598.263326" xlink:href="#C4_0_183a5384f9" y="62.214848"/>
    </g>
    <g clip-path="url(#pcff1bb07f7)">
     <use style="fill:#4c72b0;" x="590.312366" xlink:href="#C4_0_183a5384f9" y="60.767238"/>
    </g>
    <g clip-path="url(#pcff1bb07f7)">
     <use style="fill:#55a868;" x="596.791938" xlink:href="#C4_0_183a5384f9" y="54.500713"/>
    </g>
   </g>
   <g id="line2d_6">
    <path clip-path="url(#pcff1bb07f7)" d="M 182.795486 80.606696 
L 182.795486 55.871363 
" style="fill:none;stroke:#000000;stroke-linecap:round;stroke-width:2;"/>
   </g>
   <g id="line2d_7">
    <path clip-path="url(#pcff1bb07f7)" d="M 294.395486 82.213817 
L 294.395486 58.855508 
" style="fill:none;stroke:#000000;stroke-linecap:round;stroke-width:2;"/>
   </g>
   <g id="line2d_8">
    <path clip-path="url(#pcff1bb07f7)" d="M 405.995486 88.370987 
L 405.995486 61.616576 
" style="fill:none;stroke:#000000;stroke-linecap:round;stroke-width:2;"/>
   </g>
   <g id="line2d_9">
    <path clip-path="url(#pcff1bb07f7)" d="M 517.595486 78.398162 
L 517.595486 53.793569 
" style="fill:none;stroke:#000000;stroke-linecap:round;stroke-width:2;"/>
   </g>
   <g id="line2d_10">
    <path clip-path="url(#pcff1bb07f7)" d="M 629.195486 99.807442 
L 629.195486 72.152615 
" style="fill:none;stroke:#000000;stroke-linecap:round;stroke-width:2;"/>
   </g>
   <g id="legend_1">
    <g id="PathCollection_8">
     <defs>
      <path d="M 0 4.260282 
C 1.12984 4.260282 2.213557 3.811392 3.012474 3.012474 
C 3.811392 2.213557 4.260282 1.12984 4.260282 0 
C 4.260282 -1.12984 3.811392 -2.213557 3.012474 -3.012474 
C 2.213557 -3.811392 1.12984 -4.260282 0 -4.260282 
C -1.12984 -4.260282 -2.213557 -3.811392 -3.012474 -3.012474 
C -3.811392 -2.213557 -4.260282 -1.12984 -4.260282 0 
C -4.260282 1.12984 -3.811392 2.213557 -3.012474 3.012474 
C -2.213557 3.811392 -1.12984 4.260282 0 4.260282 
z
" id="me6d3dc60cc" style="stroke:#55a868;stroke-width:0.48;"/>
     </defs>
     <g>
      <use style="fill:#55a868;stroke:#55a868;stroke-width:0.48;" x="662.691937" xlink:href="#me6d3dc60cc" y="40.265625"/>
     </g>
    </g>
    <g id="text_7">
     <text style="fill:#262626;font-family:Arial;font-size:20px;font-style:normal;font-weight:normal;text-anchor:start;" transform="rotate(-0, 698.691937, 45.515625)" x="698.691937" y="45.515625">Female</text>
    </g>
    <g id="PathCollection_9">
     <defs>
      <path d="M 0 4.260282 
C 1.12984 4.260282 2.213557 3.811392 3.012474 3.012474 
C 3.811392 2.213557 4.260282 1.12984 4.260282 0 
C 4.260282 -1.12984 3.811392 -2.213557 3.012474 -3.012474 
C 2.213557 -3.811392 1.12984 -4.260282 0 -4.260282 
C -1.12984 -4.260282 -2.213557 -3.811392 -3.012474 -3.012474 
C -3.811392 -2.213557 -4.260282 -1.12984 -4.260282 0 
C -4.260282 1.12984 -3.811392 2.213557 -3.012474 3.012474 
C -2.213557 3.811392 -1.12984 4.260282 0 4.260282 
z
" id="m9ec48d57ff" style="stroke:#4c72b0;stroke-width:0.48;"/>
     </defs>
     <g>
      <use style="fill:#4c72b0;stroke:#4c72b0;stroke-width:0.48;" x="662.691937" xlink:href="#m9ec48d57ff" y="68.55625"/>
     </g>
    </g>
    <g id="text_8">
     <text style="fill:#262626;font-family:Arial;font-size:20px;font-style:normal;font-weight:normal;text-anchor:start;" transform="rotate(-0, 698.691937, 73.80625)" x="698.691937" y="73.80625">Male</text>
    </g>
   </g>
   <g id="line2d_11">
    <path clip-path="url(#pcff1bb07f7)" d="M 181.679486 68.23903 
L 183.911486 68.23903 
" style="fill:none;stroke:#ffffff;stroke-linecap:round;stroke-width:2;"/>
   </g>
   <g id="line2d_12">
    <path clip-path="url(#pcff1bb07f7)" d="M 293.279486 70.534662 
L 295.511486 70.534662 
" style="fill:none;stroke:#ffffff;stroke-linecap:round;stroke-width:2;"/>
   </g>
   <g id="line2d_13">
    <path clip-path="url(#pcff1bb07f7)" d="M 404.879486 74.993782 
L 407.111486 74.993782 
" style="fill:none;stroke:#ffffff;stroke-linecap:round;stroke-width:2;"/>
   </g>
   <g id="line2d_14">
    <path clip-path="url(#pcff1bb07f7)" d="M 516.479486 66.095865 
L 518.711486 66.095865 
" style="fill:none;stroke:#ffffff;stroke-linecap:round;stroke-width:2;"/>
   </g>
   <g id="line2d_15">
    <path clip-path="url(#pcff1bb07f7)" d="M 628.079486 85.980028 
L 630.311486 85.980028 
" style="fill:none;stroke:#ffffff;stroke-linecap:round;stroke-width:2;"/>
   </g>
  </g>
  <g id="axes_2">
   <g id="patch_4">
    <path d="M 94.591938 285 
L 652.591937 285 
L 652.591937 167.1 
L 94.591938 167.1 
z
" style="fill:none;"/>
   </g>
   <g id="matplotlib.axis_2">
    <g id="xtick_1">
     <g id="line2d_16">
      <defs>
       <path d="M 0 0 
L 0 6 
" id="m3c83ba5838" style="stroke:#262626;stroke-width:1.6;"/>
      </defs>
      <g>
       <use style="fill:#262626;stroke:#262626;stroke-width:1.6;" x="150.391938" xlink:href="#m3c83ba5838" y="285"/>
      </g>
     </g>
     <g id="text_9">
      <text style="fill:#262626;font-family:Arial;font-size:20px;font-style:normal;font-weight:normal;" transform="translate(66.213085 393.690779)rotate(-45)">Control n=40</text>
     </g>
    </g>
    <g id="xtick_2">
     <g id="line2d_17">
      <g>
       <use style="fill:#262626;stroke:#262626;stroke-width:1.6;" x="261.991938" xlink:href="#m3c83ba5838" y="285"/>
      </g>
     </g>
     <g id="text_10">
      <text style="fill:#262626;font-family:Arial;font-size:20px;font-style:normal;font-weight:normal;" transform="translate(176.233143 395.443078)rotate(-45)">Group1 n=40</text>
     </g>
    </g>
    <g id="xtick_3">
     <g id="line2d_18">
      <g>
       <use style="fill:#262626;stroke:#262626;stroke-width:1.6;" x="373.591938" xlink:href="#m3c83ba5838" y="285"/>
      </g>
     </g>
     <g id="text_11">
      <text style="fill:#262626;font-family:Arial;font-size:20px;font-style:normal;font-weight:normal;" transform="translate(287.833143 395.443078)rotate(-45)">Group2 n=40</text>
     </g>
    </g>
    <g id="xtick_4">
     <g id="line2d_19">
      <g>
       <use style="fill:#262626;stroke:#262626;stroke-width:1.6;" x="485.191937" xlink:href="#m3c83ba5838" y="285"/>
      </g>
     </g>
     <g id="text_12">
      <text style="fill:#262626;font-family:Arial;font-size:20px;font-style:normal;font-weight:normal;" transform="translate(399.433143 395.443078)rotate(-45)">Group3 n=40</text>
     </g>
    </g>
    <g id="xtick_5">
     <g id="line2d_20">
      <g>
       <use style="fill:#262626;stroke:#262626;stroke-width:1.6;" x="596.791938" xlink:href="#m3c83ba5838" y="285"/>
      </g>
     </g>
     <g id="text_13">
      <text style="fill:#262626;font-family:Arial;font-size:20px;font-style:normal;font-weight:normal;" transform="translate(511.033143 395.443078)rotate(-45)">Group5 n=40</text>
     </g>
    </g>
   </g>
   <g id="matplotlib.axis_3">
    <g id="ytick_6">
     <g id="line2d_21">
      <g>
       <use style="fill:#262626;stroke:#262626;stroke-width:1.6;" x="94.591938" xlink:href="#m4917664c16" y="272.121584"/>
      </g>
     </g>
     <g id="text_14">
      <text style="fill:#262626;font-family:Arial;font-size:20px;font-style:normal;font-weight:normal;text-anchor:end;" transform="rotate(-0, 77.391937, 279.279397)" x="77.391937" y="279.279397">−2</text>
     </g>
    </g>
    <g id="ytick_7">
     <g id="line2d_22">
      <g>
       <use style="fill:#262626;stroke:#262626;stroke-width:1.6;" x="94.591938" xlink:href="#m4917664c16" y="237.775078"/>
      </g>
     </g>
     <g id="text_15">
      <text style="fill:#262626;font-family:Arial;font-size:20px;font-style:normal;font-weight:normal;text-anchor:end;" transform="rotate(-0, 77.391937, 244.93289)" x="77.391937" y="244.93289">−1</text>
     </g>
    </g>
    <g id="ytick_8">
     <g id="line2d_23">
      <g>
       <use style="fill:#262626;stroke:#262626;stroke-width:1.6;" x="94.591938" xlink:href="#m4917664c16" y="203.428571"/>
      </g>
     </g>
     <g id="text_16">
      <text style="fill:#262626;font-family:Arial;font-size:20px;font-style:normal;font-weight:normal;text-anchor:end;" transform="rotate(-0, 77.391937, 210.586384)" x="77.391937" y="210.586384">0</text>
     </g>
    </g>
    <g id="ytick_9">
     <g id="line2d_24">
      <g>
       <use style="fill:#262626;stroke:#262626;stroke-width:1.6;" x="94.591938" xlink:href="#m4917664c16" y="169.082065"/>
      </g>
     </g>
     <g id="text_17">
      <text style="fill:#262626;font-family:Arial;font-size:20px;font-style:normal;font-weight:normal;text-anchor:end;" transform="rotate(-0, 77.391937, 176.239878)" x="77.391937" y="176.239878">1</text>
     </g>
    </g>
    <g id="text_18">
     <text style="fill:#262626;font-family:Arial;font-size:22px;font-style:normal;font-weight:normal;" transform="translate(22.947187 249.901094)rotate(-90)">delta</text>
     <text style="fill:#262626;font-family:Arial;font-size:22px;font-style:normal;font-weight:normal;" transform="translate(46.216312 252.345156)rotate(-90)">value</text>
    </g>
   </g>
   <g id="PolyCollection_1">
    <defs>
     <path d="M 262.037131 -168.466034 
L 261.992713 -168.466034 
L 261.992713 -168.995885 
L 261.992713 -169.525735 
L 261.992713 -170.055586 
L 261.992713 -170.585437 
L 261.992713 -171.115287 
L 261.992713 -171.645138 
L 261.992713 -172.174989 
L 261.992713 -172.704839 
L 261.992713 -173.23469 
L 261.992713 -173.76454 
L 261.992713 -174.294391 
L 261.992713 -174.824242 
L 261.992713 -175.354092 
L 261.992713 -175.883943 
L 261.992713 -176.413794 
L 261.992713 -176.943644 
L 261.992713 -177.473495 
L 261.992713 -178.003346 
L 261.992713 -178.533196 
L 261.992713 -179.063047 
L 261.992713 -179.592898 
L 261.992713 -180.122748 
L 261.992713 -180.652599 
L 261.992713 -181.18245 
L 261.992713 -181.7123 
L 261.992713 -182.242151 
L 261.992713 -182.772002 
L 261.992713 -183.301852 
L 261.992713 -183.831703 
L 261.992713 -184.361554 
L 261.992713 -184.891404 
L 261.992713 -185.421255 
L 261.992713 -185.951106 
L 261.992713 -186.480956 
L 261.992713 -187.010807 
L 261.992713 -187.540658 
L 261.992713 -188.070508 
L 261.992713 -188.600359 
L 261.992713 -189.13021 
L 261.992713 -189.66006 
L 261.992713 -190.189911 
L 261.992713 -190.719762 
L 261.992713 -191.249612 
L 261.992713 -191.779463 
L 261.992713 -192.309313 
L 261.992713 -192.839164 
L 261.992713 -193.369015 
L 261.992713 -193.898865 
L 261.992713 -194.428716 
L 261.992713 -194.958567 
L 261.992713 -195.488417 
L 261.992713 -196.018268 
L 261.992713 -196.548119 
L 261.992713 -197.077969 
L 261.992713 -197.60782 
L 261.992713 -198.137671 
L 261.992713 -198.667521 
L 261.992713 -199.197372 
L 261.992713 -199.727223 
L 261.992713 -200.257073 
L 261.992713 -200.786924 
L 261.992713 -201.316775 
L 261.992713 -201.846625 
L 261.992713 -202.376476 
L 261.992713 -202.906327 
L 261.992713 -203.436177 
L 261.992713 -203.966028 
L 261.992713 -204.495879 
L 261.992713 -205.025729 
L 261.992713 -205.55558 
L 261.992713 -206.085431 
L 261.992713 -206.615281 
L 261.992713 -207.145132 
L 261.992713 -207.674983 
L 261.992713 -208.204833 
L 261.992713 -208.734684 
L 261.992713 -209.264535 
L 261.992713 -209.794385 
L 261.992713 -210.324236 
L 261.992713 -210.854087 
L 261.992713 -211.383937 
L 261.992713 -211.913788 
L 261.992713 -212.443638 
L 261.992713 -212.973489 
L 261.992713 -213.50334 
L 261.992713 -214.03319 
L 261.992713 -214.563041 
L 261.992713 -215.092892 
L 261.992713 -215.622742 
L 261.992713 -216.152593 
L 261.992713 -216.682444 
L 261.992713 -217.212294 
L 261.992713 -217.742145 
L 261.992713 -218.271996 
L 261.992713 -218.801846 
L 261.992713 -219.331697 
L 261.992713 -219.861548 
L 261.992713 -220.391398 
L 261.992713 -220.921249 
L 262.059035 -220.921249 
L 262.059035 -220.921249 
L 262.063239 -220.391398 
L 262.069444 -219.861548 
L 262.088302 -219.331697 
L 262.128274 -218.801846 
L 262.189752 -218.271996 
L 262.264257 -217.742145 
L 262.340618 -217.212294 
L 262.414631 -216.682444 
L 262.494649 -216.152593 
L 262.597152 -215.622742 
L 262.734372 -215.092892 
L 262.904515 -214.563041 
L 263.094956 -214.03319 
L 263.297112 -213.50334 
L 263.519092 -212.973489 
L 263.78434 -212.443638 
L 264.119783 -211.913788 
L 264.546032 -211.383937 
L 265.074602 -210.854087 
L 265.706993 -210.324236 
L 266.43269 -209.794385 
L 267.230642 -209.264535 
L 268.078042 -208.734684 
L 268.96158 -208.204833 
L 269.881089 -207.674983 
L 270.841231 -207.145132 
L 271.840405 -206.615281 
L 272.871591 -206.085431 
L 273.935125 -205.55558 
L 275.044285 -205.025729 
L 276.210422 -204.495879 
L 277.421275 -203.966028 
L 278.636693 -203.436177 
L 279.806238 -202.906327 
L 280.891866 -202.376476 
L 281.881151 -201.846625 
L 282.790587 -201.316775 
L 283.662441 -200.786924 
L 284.551775 -200.257073 
L 285.498938 -199.727223 
L 286.497305 -199.197372 
L 287.482839 -198.667521 
L 288.362608 -198.137671 
L 289.062047 -197.60782 
L 289.549394 -197.077969 
L 289.823309 -196.548119 
L 289.891938 -196.018268 
L 289.77248 -195.488417 
L 289.50268 -194.958567 
L 289.134494 -194.428716 
L 288.704654 -193.898865 
L 288.211333 -193.369015 
L 287.621398 -192.839164 
L 286.897258 -192.309313 
L 286.017677 -191.779463 
L 284.985232 -191.249612 
L 283.826947 -190.719762 
L 282.588296 -190.189911 
L 281.318207 -189.66006 
L 280.053256 -189.13021 
L 278.813362 -188.600359 
L 277.611087 -188.070508 
L 276.46479 -187.540658 
L 275.402196 -187.010807 
L 274.446973 -186.480956 
L 273.595791 -185.951106 
L 272.806974 -185.421255 
L 272.01675 -184.891404 
L 271.174742 -184.361554 
L 270.27122 -183.831703 
L 269.33672 -183.301852 
L 268.420288 -182.772002 
L 267.566392 -182.242151 
L 266.801553 -181.7123 
L 266.128868 -181.18245 
L 265.529582 -180.652599 
L 264.976007 -180.122748 
L 264.452389 -179.592898 
L 263.9677 -179.063047 
L 263.547989 -178.533196 
L 263.215067 -178.003346 
L 262.970203 -177.473495 
L 262.794278 -176.943644 
L 262.660655 -176.413794 
L 262.549058 -175.883943 
L 262.451214 -175.354092 
L 262.367086 -174.824242 
L 262.297711 -174.294391 
L 262.241474 -173.76454 
L 262.195226 -173.23469 
L 262.156676 -172.704839 
L 262.125032 -172.174989 
L 262.100108 -171.645138 
L 262.081452 -171.115287 
L 262.068095 -170.585437 
L 262.058663 -170.055586 
L 262.051507 -169.525735 
L 262.044842 -168.995885 
L 262.037131 -168.466034 
z
" id="m3b99c2d17f" style="stroke:#000000;stroke-opacity:0.3;stroke-width:0.48;"/>
    </defs>
    <g clip-path="url(#p2eddb652b8)">
     <use style="fill-opacity:0.3;stroke:#000000;stroke-opacity:0.3;stroke-width:0.48;" x="0" xlink:href="#m3b99c2d17f" y="405.453827"/>
    </g>
   </g>
   <g id="PolyCollection_2">
    <defs>
     <path d="M 373.722956 -155.360224 
L 373.593583 -155.360224 
L 373.593583 -155.905877 
L 373.593583 -156.45153 
L 373.593583 -156.997184 
L 373.593583 -157.542837 
L 373.593583 -158.08849 
L 373.593583 -158.634143 
L 373.593583 -159.179796 
L 373.593583 -159.72545 
L 373.593583 -160.271103 
L 373.593583 -160.816756 
L 373.593583 -161.362409 
L 373.593583 -161.908063 
L 373.593583 -162.453716 
L 373.593583 -162.999369 
L 373.593583 -163.545022 
L 373.593583 -164.090675 
L 373.593583 -164.636329 
L 373.593583 -165.181982 
L 373.593583 -165.727635 
L 373.593583 -166.273288 
L 373.593583 -166.818941 
L 373.593583 -167.364595 
L 373.593583 -167.910248 
L 373.593583 -168.455901 
L 373.593583 -169.001554 
L 373.593583 -169.547208 
L 373.593583 -170.092861 
L 373.593583 -170.638514 
L 373.593583 -171.184167 
L 373.593583 -171.72982 
L 373.593583 -172.275474 
L 373.593583 -172.821127 
L 373.593583 -173.36678 
L 373.593583 -173.912433 
L 373.593583 -174.458086 
L 373.593583 -175.00374 
L 373.593583 -175.549393 
L 373.593583 -176.095046 
L 373.593583 -176.640699 
L 373.593583 -177.186353 
L 373.593583 -177.732006 
L 373.593583 -178.277659 
L 373.593583 -178.823312 
L 373.593583 -179.368965 
L 373.593583 -179.914619 
L 373.593583 -180.460272 
L 373.593583 -181.005925 
L 373.593583 -181.551578 
L 373.593583 -182.097231 
L 373.593583 -182.642885 
L 373.593583 -183.188538 
L 373.593583 -183.734191 
L 373.593583 -184.279844 
L 373.593583 -184.825498 
L 373.593583 -185.371151 
L 373.593583 -185.916804 
L 373.593583 -186.462457 
L 373.593583 -187.00811 
L 373.593583 -187.553764 
L 373.593583 -188.099417 
L 373.593583 -188.64507 
L 373.593583 -189.190723 
L 373.593583 -189.736376 
L 373.593583 -190.28203 
L 373.593583 -190.827683 
L 373.593583 -191.373336 
L 373.593583 -191.918989 
L 373.593583 -192.464643 
L 373.593583 -193.010296 
L 373.593583 -193.555949 
L 373.593583 -194.101602 
L 373.593583 -194.647255 
L 373.593583 -195.192909 
L 373.593583 -195.738562 
L 373.593583 -196.284215 
L 373.593583 -196.829868 
L 373.593583 -197.375521 
L 373.593583 -197.921175 
L 373.593583 -198.466828 
L 373.593583 -199.012481 
L 373.593583 -199.558134 
L 373.593583 -200.103787 
L 373.593583 -200.649441 
L 373.593583 -201.195094 
L 373.593583 -201.740747 
L 373.593583 -202.2864 
L 373.593583 -202.832054 
L 373.593583 -203.377707 
L 373.593583 -203.92336 
L 373.593583 -204.469013 
L 373.593583 -205.014666 
L 373.593583 -205.56032 
L 373.593583 -206.105973 
L 373.593583 -206.651626 
L 373.593583 -207.197279 
L 373.593583 -207.742932 
L 373.593583 -208.288586 
L 373.593583 -208.834239 
L 373.593583 -209.379892 
L 373.663885 -209.379892 
L 373.663885 -209.379892 
L 373.699472 -208.834239 
L 373.751088 -208.288586 
L 373.821257 -207.742932 
L 373.907734 -207.197279 
L 374.003247 -206.651626 
L 374.098472 -206.105973 
L 374.187112 -205.56032 
L 374.270431 -205.014666 
L 374.358585 -204.469013 
L 374.46785 -203.92336 
L 374.615073 -203.377707 
L 374.812213 -202.832054 
L 375.063873 -202.2864 
L 375.368815 -201.740747 
L 375.723289 -201.195094 
L 376.122614 -200.649441 
L 376.56055 -200.103787 
L 377.03023 -199.558134 
L 377.529629 -199.012481 
L 378.068574 -198.466828 
L 378.670467 -197.921175 
L 379.364943 -197.375521 
L 380.174159 -196.829868 
L 381.099981 -196.284215 
L 382.120238 -195.738562 
L 383.198362 -195.192909 
L 384.302182 -194.647255 
L 385.419012 -194.101602 
L 386.554678 -193.555949 
L 387.716677 -193.010296 
L 388.8962 -192.464643 
L 390.065036 -191.918989 
L 391.189367 -191.373336 
L 392.248053 -190.827683 
L 393.24221 -190.28203 
L 394.19168 -189.736376 
L 395.120895 -189.190723 
L 396.04028 -188.64507 
L 396.933898 -188.099417 
L 397.763859 -187.553764 
L 398.490289 -187.00811 
L 399.092093 -186.462457 
L 399.575071 -185.916804 
L 399.967696 -185.371151 
L 400.31167 -184.825498 
L 400.647346 -184.279844 
L 400.98979 -183.734191 
L 401.302678 -183.188538 
L 401.491938 -182.642885 
L 401.435754 -182.097231 
L 401.040622 -181.551578 
L 400.289556 -181.005925 
L 399.25188 -180.460272 
L 398.051725 -179.914619 
L 396.819802 -179.368965 
L 395.657098 -178.823312 
L 394.619393 -178.277659 
L 393.712206 -177.732006 
L 392.889734 -177.186353 
L 392.068196 -176.640699 
L 391.162591 -176.095046 
L 390.130707 -175.549393 
L 388.992318 -175.00374 
L 387.809022 -174.458086 
L 386.642703 -173.912433 
L 385.524118 -173.36678 
L 384.44947 -172.821127 
L 383.399872 -172.275474 
L 382.365675 -171.72982 
L 381.359489 -171.184167 
L 380.411775 -170.638514 
L 379.554103 -170.092861 
L 378.803145 -169.547208 
L 378.157252 -169.001554 
L 377.604934 -168.455901 
L 377.133148 -167.910248 
L 376.727035 -167.364595 
L 376.366162 -166.818941 
L 376.027149 -166.273288 
L 375.693634 -165.727635 
L 375.364647 -165.181982 
L 375.053375 -164.636329 
L 374.777436 -164.090675 
L 374.548633 -163.545022 
L 374.369004 -162.999369 
L 374.23329 -162.453716 
L 374.132903 -161.908063 
L 374.057668 -161.362409 
L 373.996339 -160.816756 
L 373.938856 -160.271103 
L 373.88033 -159.72545 
L 373.823334 -159.179796 
L 373.77573 -158.634143 
L 373.74508 -158.08849 
L 373.73335 -157.542837 
L 373.735117 -156.997184 
L 373.740009 -156.45153 
L 373.737754 -155.905877 
L 373.722956 -155.360224 
z
" id="m4aa60f6a31" style="stroke:#000000;stroke-opacity:0.3;stroke-width:0.48;"/>
    </defs>
    <g clip-path="url(#p2eddb652b8)">
     <use style="fill-opacity:0.3;stroke:#000000;stroke-opacity:0.3;stroke-width:0.48;" x="0" xlink:href="#m4aa60f6a31" y="405.453827"/>
    </g>
   </g>
   <g id="PolyCollection_3">
    <defs>
     <path d="M 485.228604 -180.738511 
L 485.192586 -180.738511 
L 485.192586 -181.266352 
L 485.192586 -181.794193 
L 485.192586 -182.322033 
L 485.192586 -182.849874 
L 485.192586 -183.377715 
L 485.192586 -183.905555 
L 485.192586 -184.433396 
L 485.192586 -184.961237 
L 485.192586 -185.489077 
L 485.192586 -186.016918 
L 485.192586 -186.544759 
L 485.192586 -187.072599 
L 485.192586 -187.60044 
L 485.192586 -188.12828 
L 485.192586 -188.656121 
L 485.192586 -189.183962 
L 485.192586 -189.711802 
L 485.192586 -190.239643 
L 485.192586 -190.767484 
L 485.192586 -191.295324 
L 485.192586 -191.823165 
L 485.192586 -192.351006 
L 485.192586 -192.878846 
L 485.192586 -193.406687 
L 485.192586 -193.934528 
L 485.192586 -194.462368 
L 485.192586 -194.990209 
L 485.192586 -195.51805 
L 485.192586 -196.04589 
L 485.192586 -196.573731 
L 485.192586 -197.101572 
L 485.192586 -197.629412 
L 485.192586 -198.157253 
L 485.192586 -198.685094 
L 485.192586 -199.212934 
L 485.192586 -199.740775 
L 485.192586 -200.268616 
L 485.192586 -200.796456 
L 485.192586 -201.324297 
L 485.192586 -201.852138 
L 485.192586 -202.379978 
L 485.192586 -202.907819 
L 485.192586 -203.435659 
L 485.192586 -203.9635 
L 485.192586 -204.491341 
L 485.192586 -205.019181 
L 485.192586 -205.547022 
L 485.192586 -206.074863 
L 485.192586 -206.602703 
L 485.192586 -207.130544 
L 485.192586 -207.658385 
L 485.192586 -208.186225 
L 485.192586 -208.714066 
L 485.192586 -209.241907 
L 485.192586 -209.769747 
L 485.192586 -210.297588 
L 485.192586 -210.825429 
L 485.192586 -211.353269 
L 485.192586 -211.88111 
L 485.192586 -212.408951 
L 485.192586 -212.936791 
L 485.192586 -213.464632 
L 485.192586 -213.992473 
L 485.192586 -214.520313 
L 485.192586 -215.048154 
L 485.192586 -215.575995 
L 485.192586 -216.103835 
L 485.192586 -216.631676 
L 485.192586 -217.159517 
L 485.192586 -217.687357 
L 485.192586 -218.215198 
L 485.192586 -218.743038 
L 485.192586 -219.270879 
L 485.192586 -219.79872 
L 485.192586 -220.32656 
L 485.192586 -220.854401 
L 485.192586 -221.382242 
L 485.192586 -221.910082 
L 485.192586 -222.437923 
L 485.192586 -222.965764 
L 485.192586 -223.493604 
L 485.192586 -224.021445 
L 485.192586 -224.549286 
L 485.192586 -225.077126 
L 485.192586 -225.604967 
L 485.192586 -226.132808 
L 485.192586 -226.660648 
L 485.192586 -227.188489 
L 485.192586 -227.71633 
L 485.192586 -228.24417 
L 485.192586 -228.772011 
L 485.192586 -229.299852 
L 485.192586 -229.827692 
L 485.192586 -230.355533 
L 485.192586 -230.883374 
L 485.192586 -231.411214 
L 485.192586 -231.939055 
L 485.192586 -232.466896 
L 485.192586 -232.994736 
L 485.250287 -232.994736 
L 485.250287 -232.994736 
L 485.263755 -232.466896 
L 485.274495 -231.939055 
L 485.283235 -231.411214 
L 485.294939 -230.883374 
L 485.319368 -230.355533 
L 485.368281 -229.827692 
L 485.449978 -229.299852 
L 485.564739 -228.772011 
L 485.704886 -228.24417 
L 485.860073 -227.71633 
L 486.024448 -227.188489 
L 486.200379 -226.660648 
L 486.395709 -226.132808 
L 486.617215 -225.604967 
L 486.866803 -225.077126 
L 487.144297 -224.549286 
L 487.454023 -224.021445 
L 487.808982 -223.493604 
L 488.229273 -222.965764 
L 488.73609 -222.437923 
L 489.344416 -221.910082 
L 490.057285 -221.382242 
L 490.864783 -220.854401 
L 491.749723 -220.32656 
L 492.696059 -219.79872 
L 493.691005 -219.270879 
L 494.717883 -218.743038 
L 495.750442 -218.215198 
L 496.761388 -217.687357 
L 497.740046 -217.159517 
L 498.698452 -216.631676 
L 499.657064 -216.103835 
L 500.628778 -215.575995 
L 501.623539 -215.048154 
L 502.665633 -214.520313 
L 503.792715 -213.992473 
L 505.024842 -213.464632 
L 506.3307 -212.936791 
L 507.626902 -212.408951 
L 508.815049 -211.88111 
L 509.827302 -211.353269 
L 510.648062 -210.825429 
L 511.303458 -210.297588 
L 511.834476 -209.769747 
L 512.273894 -209.241907 
L 512.635172 -208.714066 
L 512.910343 -208.186225 
L 513.073711 -207.658385 
L 513.091938 -207.130544 
L 512.938044 -206.602703 
L 512.600023 -206.074863 
L 512.076464 -205.547022 
L 511.364277 -205.019181 
L 510.453703 -204.491341 
L 509.340752 -203.9635 
L 508.050042 -203.435659 
L 506.64855 -202.907819 
L 505.236758 -202.379978 
L 503.921275 -201.852138 
L 502.78316 -201.324297 
L 501.853009 -200.796456 
L 501.099698 -200.268616 
L 500.439782 -199.740775 
L 499.769071 -199.212934 
L 499.003235 -198.685094 
L 498.105227 -198.157253 
L 497.086882 -197.629412 
L 495.991824 -197.101572 
L 494.875917 -196.573731 
L 493.793482 -196.04589 
L 492.786891 -195.51805 
L 491.878245 -194.990209 
L 491.068322 -194.462368 
L 490.345144 -193.934528 
L 489.69473 -193.406687 
L 489.105839 -192.878846 
L 488.5702 -192.351006 
L 488.084212 -191.823165 
L 487.651221 -191.295324 
L 487.278369 -190.767484 
L 486.968225 -190.239643 
L 486.713378 -189.711802 
L 486.499578 -189.183962 
L 486.313653 -188.656121 
L 486.148426 -188.12828 
L 486.001691 -187.60044 
L 485.872792 -187.072599 
L 485.761049 -186.544759 
L 485.665899 -186.016918 
L 485.586119 -185.489077 
L 485.518241 -184.961237 
L 485.457063 -184.433396 
L 485.398954 -183.905555 
L 485.344708 -183.377715 
L 485.298752 -182.849874 
L 485.265364 -182.322033 
L 485.245211 -181.794193 
L 485.234768 -181.266352 
L 485.228604 -180.738511 
z
" id="m602153531c" style="stroke:#000000;stroke-opacity:0.3;stroke-width:0.48;"/>
    </defs>
    <g clip-path="url(#p2eddb652b8)">
     <use style="fill-opacity:0.3;stroke:#000000;stroke-opacity:0.3;stroke-width:0.48;" x="0" xlink:href="#m602153531c" y="405.453827"/>
    </g>
   </g>
   <g id="PolyCollection_4">
    <defs>
     <path d="M 596.852614 -125.812918 
L 596.792686 -125.812918 
L 596.792686 -126.385539 
L 596.792686 -126.95816 
L 596.792686 -127.53078 
L 596.792686 -128.103401 
L 596.792686 -128.676022 
L 596.792686 -129.248643 
L 596.792686 -129.821264 
L 596.792686 -130.393884 
L 596.792686 -130.966505 
L 596.792686 -131.539126 
L 596.792686 -132.111747 
L 596.792686 -132.684368 
L 596.792686 -133.256989 
L 596.792686 -133.829609 
L 596.792686 -134.40223 
L 596.792686 -134.974851 
L 596.792686 -135.547472 
L 596.792686 -136.120093 
L 596.792686 -136.692713 
L 596.792686 -137.265334 
L 596.792686 -137.837955 
L 596.792686 -138.410576 
L 596.792686 -138.983197 
L 596.792686 -139.555817 
L 596.792686 -140.128438 
L 596.792686 -140.701059 
L 596.792686 -141.27368 
L 596.792686 -141.846301 
L 596.792686 -142.418921 
L 596.792686 -142.991542 
L 596.792686 -143.564163 
L 596.792686 -144.136784 
L 596.792686 -144.709405 
L 596.792686 -145.282026 
L 596.792686 -145.854646 
L 596.792686 -146.427267 
L 596.792686 -146.999888 
L 596.792686 -147.572509 
L 596.792686 -148.14513 
L 596.792686 -148.71775 
L 596.792686 -149.290371 
L 596.792686 -149.862992 
L 596.792686 -150.435613 
L 596.792686 -151.008234 
L 596.792686 -151.580854 
L 596.792686 -152.153475 
L 596.792686 -152.726096 
L 596.792686 -153.298717 
L 596.792686 -153.871338 
L 596.792686 -154.443958 
L 596.792686 -155.016579 
L 596.792686 -155.5892 
L 596.792686 -156.161821 
L 596.792686 -156.734442 
L 596.792686 -157.307063 
L 596.792686 -157.879683 
L 596.792686 -158.452304 
L 596.792686 -159.024925 
L 596.792686 -159.597546 
L 596.792686 -160.170167 
L 596.792686 -160.742787 
L 596.792686 -161.315408 
L 596.792686 -161.888029 
L 596.792686 -162.46065 
L 596.792686 -163.033271 
L 596.792686 -163.605891 
L 596.792686 -164.178512 
L 596.792686 -164.751133 
L 596.792686 -165.323754 
L 596.792686 -165.896375 
L 596.792686 -166.468995 
L 596.792686 -167.041616 
L 596.792686 -167.614237 
L 596.792686 -168.186858 
L 596.792686 -168.759479 
L 596.792686 -169.3321 
L 596.792686 -169.90472 
L 596.792686 -170.477341 
L 596.792686 -171.049962 
L 596.792686 -171.622583 
L 596.792686 -172.195204 
L 596.792686 -172.767824 
L 596.792686 -173.340445 
L 596.792686 -173.913066 
L 596.792686 -174.485687 
L 596.792686 -175.058308 
L 596.792686 -175.630928 
L 596.792686 -176.203549 
L 596.792686 -176.77617 
L 596.792686 -177.348791 
L 596.792686 -177.921412 
L 596.792686 -178.494032 
L 596.792686 -179.066653 
L 596.792686 -179.639274 
L 596.792686 -180.211895 
L 596.792686 -180.784516 
L 596.792686 -181.357137 
L 596.792686 -181.929757 
L 596.792686 -182.502378 
L 596.8225 -182.502378 
L 596.8225 -182.502378 
L 596.821812 -181.929757 
L 596.820179 -181.357137 
L 596.822635 -180.784516 
L 596.835066 -180.211895 
L 596.862437 -179.639274 
L 596.907899 -179.066653 
L 596.973318 -178.494032 
L 597.060567 -177.921412 
L 597.171845 -177.348791 
L 597.307841 -176.77617 
L 597.464916 -176.203549 
L 597.634073 -175.630928 
L 597.803238 -175.058308 
L 597.961879 -174.485687 
L 598.106159 -173.913066 
L 598.243672 -173.340445 
L 598.396799 -172.767824 
L 598.602009 -172.195204 
L 598.901887 -171.622583 
L 599.330188 -171.049962 
L 599.895962 -170.477341 
L 600.575973 -169.90472 
L 601.321838 -169.3321 
L 602.080441 -168.759479 
L 602.817369 -168.186858 
L 603.529556 -167.614237 
L 604.239107 -167.041616 
L 604.973711 -166.468995 
L 605.750668 -165.896375 
L 606.579037 -165.323754 
L 607.47528 -164.751133 
L 608.469336 -164.178512 
L 609.584063 -163.605891 
L 610.801701 -163.033271 
L 612.053533 -162.46065 
L 613.252017 -161.888029 
L 614.34113 -161.315408 
L 615.319512 -160.742787 
L 616.220111 -160.170167 
L 617.076802 -159.597546 
L 617.91638 -159.024925 
L 618.774159 -158.452304 
L 619.695923 -157.879683 
L 620.705408 -157.307063 
L 621.765301 -156.734442 
L 622.777887 -156.161821 
L 623.632167 -155.5892 
L 624.253278 -155.016579 
L 624.610623 -154.443958 
L 624.691937 -153.871338 
L 624.48598 -153.298717 
L 623.995934 -152.726096 
L 623.263416 -152.153475 
L 622.371432 -151.580854 
L 621.417864 -151.008234 
L 620.477387 -150.435613 
L 619.576302 -149.862992 
L 618.692128 -149.290371 
L 617.773936 -148.71775 
L 616.774155 -148.14513 
L 615.681851 -147.572509 
L 614.539367 -146.999888 
L 613.422296 -146.427267 
L 612.388951 -145.854646 
L 611.439727 -145.282026 
L 610.521771 -144.709405 
L 609.570242 -144.136784 
L 608.548143 -143.564163 
L 607.461039 -142.991542 
L 606.350185 -142.418921 
L 605.274819 -141.846301 
L 604.289617 -141.27368 
L 603.424309 -140.701059 
L 602.674961 -140.128438 
L 602.010765 -139.555817 
L 601.391739 -138.983197 
L 600.789373 -138.410576 
L 600.201762 -137.837955 
L 599.654674 -137.265334 
L 599.185191 -136.692713 
L 598.816749 -136.120093 
L 598.543133 -135.547472 
L 598.332824 -134.974851 
L 598.148273 -134.40223 
L 597.964187 -133.829609 
L 597.774022 -133.256989 
L 597.585674 -132.684368 
L 597.413001 -132.111747 
L 597.268142 -131.539126 
L 597.156942 -130.966505 
L 597.078252 -130.393884 
L 597.025977 -129.821264 
L 596.991679 -129.248643 
L 596.966699 -128.676022 
L 596.94419 -128.103401 
L 596.920758 -127.53078 
L 596.896521 -126.95816 
L 596.873308 -126.385539 
L 596.852614 -125.812918 
z
" id="m3237603d7e" style="stroke:#000000;stroke-opacity:0.3;stroke-width:0.48;"/>
    </defs>
    <g clip-path="url(#p2eddb652b8)">
     <use style="fill-opacity:0.3;stroke:#000000;stroke-opacity:0.3;stroke-width:0.48;" x="0" xlink:href="#m3237603d7e" y="405.453827"/>
    </g>
   </g>
   <g id="line2d_25">
    <path clip-path="url(#p2eddb652b8)" d="M 261.991938 209.638573 
" style="fill:none;stroke:#000000;stroke-linecap:round;stroke-width:2.8;"/>
    <defs>
     <path d="M 0 5 
C 1.326016 5 2.597899 4.473168 3.535534 3.535534 
C 4.473168 2.597899 5 1.326016 5 0 
C 5 -1.326016 4.473168 -2.597899 3.535534 -3.535534 
C 2.597899 -4.473168 1.326016 -5 0 -5 
C -1.326016 -5 -2.597899 -4.473168 -3.535534 -3.535534 
C -4.473168 -2.597899 -5 -1.326016 -5 0 
C -5 1.326016 -4.473168 2.597899 -3.535534 3.535534 
C -2.597899 4.473168 -1.326016 5 0 5 
z
" id="md65ee25e7a"/>
    </defs>
    <g clip-path="url(#p2eddb652b8)">
     <use x="261.991938" xlink:href="#md65ee25e7a" y="209.638573"/>
    </g>
   </g>
   <g id="line2d_26">
    <path clip-path="url(#p2eddb652b8)" d="M 261.991938 223.593691 
L 261.991938 196.035362 
" style="fill:none;stroke:#000000;stroke-linecap:round;stroke-width:2;"/>
   </g>
   <g id="line2d_27">
    <path clip-path="url(#p2eddb652b8)" d="M 373.591938 221.701103 
" style="fill:none;stroke:#000000;stroke-linecap:round;stroke-width:2.8;"/>
    <g clip-path="url(#p2eddb652b8)">
     <use x="373.591938" xlink:href="#md65ee25e7a" y="221.701103"/>
    </g>
   </g>
   <g id="line2d_28">
    <path clip-path="url(#p2eddb652b8)" d="M 373.591938 236.627343 
L 373.591938 206.495602 
" style="fill:none;stroke:#000000;stroke-linecap:round;stroke-width:2;"/>
   </g>
   <g id="line2d_29">
    <path clip-path="url(#p2eddb652b8)" d="M 485.191937 197.631017 
" style="fill:none;stroke:#000000;stroke-linecap:round;stroke-width:2.8;"/>
    <g clip-path="url(#p2eddb652b8)">
     <use x="485.191937" xlink:href="#md65ee25e7a" y="197.631017"/>
    </g>
   </g>
   <g id="line2d_30">
    <path clip-path="url(#p2eddb652b8)" d="M 485.191937 211.867747 
L 485.191937 183.447888 
" style="fill:none;stroke:#000000;stroke-linecap:round;stroke-width:2;"/>
   </g>
   <g id="line2d_31">
    <path clip-path="url(#p2eddb652b8)" d="M 596.791938 251.420409 
" style="fill:none;stroke:#000000;stroke-linecap:round;stroke-width:2.8;"/>
    <g clip-path="url(#p2eddb652b8)">
     <use x="596.791938" xlink:href="#md65ee25e7a" y="251.420409"/>
    </g>
   </g>
   <g id="line2d_32">
    <path clip-path="url(#p2eddb652b8)" d="M 596.791938 266.583483 
L 596.791938 236.075608 
" style="fill:none;stroke:#000000;stroke-linecap:round;stroke-width:2;"/>
   </g>
   <g id="line2d_33">
    <path clip-path="url(#p2eddb652b8)" d="M 94.591938 203.428571 
L 652.591937 203.428571 
" style="fill:none;stroke:#000000;stroke-linecap:round;stroke-width:0.5;"/>
   </g>
   <g id="patch_5">
    <path d="M 94.591938 272.121584 
L 94.591938 169.082065 
" style="fill:none;stroke:#262626;stroke-linecap:square;stroke-linejoin:miter;stroke-width:1.25;"/>
   </g>
   <g id="patch_6">
    <path d="M 150.391938 285 
L 596.791938 285 
" style="fill:none;stroke:#262626;stroke-linecap:square;stroke-linejoin:miter;stroke-width:1.25;"/>
   </g>
  </g>
 </g>
 <defs>
  <clipPath id="pcff1bb07f7">
   <rect height="117.9" width="558" x="94.591938" y="13.2"/>
  </clipPath>
  <clipPath id="p2eddb652b8">
   <rect height="117.9" width="558" x="94.591938" y="167.1"/>
  </clipPath>
 </defs>
</svg>
