<?xml version="1.0" encoding="UTF-8" standalone="no"?><!DOCTYPE svg PUBLIC "-//W3C//DTD SVG 1.1//EN" "http://www.w3.org/Graphics/SVG/1.1/DTD/svg11.dtd"><svg width="100%" height="100%" viewBox="0 0 410 459" version="1.1" xmlns="http://www.w3.org/2000/svg" xmlns:xlink="http://www.w3.org/1999/xlink" xml:space="preserve" xmlns:serif="http://www.serif.com/" style="fill-rule:evenodd;clip-rule:evenodd;"><g id="figure_1"><g id="axes_1"><rect id="patch_2" x="95.827" y="13.2" width="167.4" height="326.16" style="fill:none;"/><g id="matplotlib.axis_1"><g id="xtick_1"><path id="md2a1513569" d="M101.502,339.36l0,6" style="fill:#262626;fill-rule:nonzero;stroke:#262626;stroke-width:1.6px;"/><g id="text_1" transform="matrix(0.707107,-0.707107,0.707107,0.707107,-311.746,143.48)"><text x="17.323px" y="448.051px" style="font-family:'ArialMT', 'Arial', sans-serif;font-size:20px;fill:#262626;">Control n=40</text></g></g><g id="xtick_2"><path id="md2a15135691" serif:id="md2a1513569" d="M158.247,339.36l0,6" style="fill:#262626;fill-rule:nonzero;stroke:#262626;stroke-width:1.6px;"/><g id="text_2" transform="matrix(0.707107,-0.707107,0.707107,0.707107,-296.827,183.001)"><text x="72.488px" y="449.803px" style="font-family:'ArialMT', 'Arial', sans-serif;font-size:20px;fill:#262626;">Group4 n=40</text></g></g></g><g id="matplotlib.axis_2"><g id="ytick_1"><path id="m41cbed357a" d="M95.827,299.264l-6,0" style="fill:#262626;fill-rule:nonzero;stroke:#262626;stroke-width:1.6px;"/><text id="text_3" x="55.824px" y="306.422px" style="font-family:'ArialMT', 'Arial', sans-serif;font-size:20px;fill:#262626;">−2</text></g><g id="ytick_2"><path id="m41cbed357a1" serif:id="m41cbed357a" d="M95.827,235.614l-6,0" style="fill:#262626;fill-rule:nonzero;stroke:#262626;stroke-width:1.6px;"/><text id="text_4" x="67.504px" y="242.771px" style="font-family:'ArialMT', 'Arial', sans-serif;font-size:20px;fill:#262626;">0</text></g><g id="ytick_3"><path id="m41cbed357a2" serif:id="m41cbed357a" d="M95.827,171.964l-6,0" style="fill:#262626;fill-rule:nonzero;stroke:#262626;stroke-width:1.6px;"/><text id="text_5" x="67.504px" y="179.121px" style="font-family:'ArialMT', 'Arial', sans-serif;font-size:20px;fill:#262626;">2</text></g><g id="ytick_4"><path id="m41cbed357a3" serif:id="m41cbed357a" d="M95.827,108.314l-6,0" style="fill:#262626;fill-rule:nonzero;stroke:#262626;stroke-width:1.6px;"/><text id="text_6" x="67.504px" y="115.471px" style="font-family:'ArialMT', 'Arial', sans-serif;font-size:20px;fill:#262626;">4</text></g><g id="ytick_5"><path id="m41cbed357a4" serif:id="m41cbed357a" d="M95.827,44.664l-6,0" style="fill:#262626;fill-rule:nonzero;stroke:#262626;stroke-width:1.6px;"/><text id="text_7" x="67.504px" y="51.821px" style="font-family:'ArialMT', 'Arial', sans-serif;font-size:20px;fill:#262626;">6</text></g><g id="text_8" transform="matrix(-3.82857e-16,-1,1,-3.82857e-16,-128.829,223.731)"><text x="21.154px" y="176.28px" style="font-family:'ArialMT', 'Arial', sans-serif;font-size:22px;fill:#262626;">value</text></g></g><path id="line2d_8" d="M101.502,193.236l56.745,-139.231" style="fill:none;stroke:#4c72b0;stroke-width:0.75px;stroke-linecap:round;"/><path id="line2d_9" d="M101.502,212.85l56.745,-107.308" style="fill:none;stroke:#4c72b0;stroke-width:0.75px;stroke-linecap:round;"/><path id="line2d_10" d="M101.502,284.796l56.745,-182.573" style="fill:none;stroke:#4c72b0;stroke-width:0.75px;stroke-linecap:round;"/><path id="line2d_11" d="M101.502,235.88l56.745,-125.034" style="fill:none;stroke:#4c72b0;stroke-width:0.75px;stroke-linecap:round;"/><path id="line2d_12" d="M101.502,215.84l56.745,-37.36" style="fill:none;stroke:#4c72b0;stroke-width:0.75px;stroke-linecap:round;"/><path id="line2d_13" d="M101.502,258.53l56.745,-155.281" style="fill:none;stroke:#4c72b0;stroke-width:0.75px;stroke-linecap:round;"/><path id="line2d_14" d="M101.502,227.164l56.745,-66.298" style="fill:none;stroke:#4c72b0;stroke-width:0.75px;stroke-linecap:round;"/><path id="line2d_15" d="M101.502,232.159l56.745,-131.236" style="fill:none;stroke:#4c72b0;stroke-width:0.75px;stroke-linecap:round;"/><path id="line2d_16" d="M101.502,235.477l56.745,-107.622" style="fill:none;stroke:#4c72b0;stroke-width:0.75px;stroke-linecap:round;"/><path id="line2d_17" d="M101.502,241.17l56.745,-170.823" style="fill:none;stroke:#4c72b0;stroke-width:0.75px;stroke-linecap:round;"/><path id="line2d_18" d="M101.502,221.833l56.745,-106.998" style="fill:none;stroke:#4c72b0;stroke-width:0.75px;stroke-linecap:round;"/><path id="line2d_19" d="M101.502,197.327l56.745,-89.527" style="fill:none;stroke:#4c72b0;stroke-width:0.75px;stroke-linecap:round;"/><path id="line2d_20" d="M101.502,266.327l56.745,-120.36" style="fill:none;stroke:#4c72b0;stroke-width:0.75px;stroke-linecap:round;"/><path id="line2d_21" d="M101.502,202.889l56.745,-117.059" style="fill:none;stroke:#4c72b0;stroke-width:0.75px;stroke-linecap:round;"/><path id="line2d_22" d="M101.502,228.338l56.745,-113.711" style="fill:none;stroke:#4c72b0;stroke-width:0.75px;stroke-linecap:round;"/><path id="line2d_23" d="M101.502,221.447l56.745,-134.849" style="fill:none;stroke:#4c72b0;stroke-width:0.75px;stroke-linecap:round;"/><path id="line2d_24" d="M101.502,271.786l56.745,-191.863" style="fill:none;stroke:#4c72b0;stroke-width:0.75px;stroke-linecap:round;"/><path id="line2d_25" d="M101.502,231.313l56.745,-150.233" style="fill:none;stroke:#4c72b0;stroke-width:0.75px;stroke-linecap:round;"/><path id="line2d_26" d="M101.502,188.368l56.745,-71.74" style="fill:none;stroke:#4c72b0;stroke-width:0.75px;stroke-linecap:round;"/><path id="line2d_27" d="M101.502,269.978l56.745,-95.433" style="fill:none;stroke:#4c72b0;stroke-width:0.75px;stroke-linecap:round;"/><path id="line2d_28" d="M101.502,298.555l56.745,-149.208" style="fill:none;stroke:#55a868;stroke-width:0.75px;stroke-linecap:round;"/><path id="line2d_29" d="M101.502,291.097l56.745,-212.057" style="fill:none;stroke:#55a868;stroke-width:0.75px;stroke-linecap:round;"/><path id="line2d_30" d="M101.502,227.146l56.745,-154.165" style="fill:none;stroke:#55a868;stroke-width:0.75px;stroke-linecap:round;"/><path id="line2d_31" d="M101.502,159.712l56.745,-96.667" style="fill:none;stroke:#55a868;stroke-width:0.75px;stroke-linecap:round;"/><path id="line2d_32" d="M101.502,199.852l56.745,-72.308" style="fill:none;stroke:#55a868;stroke-width:0.75px;stroke-linecap:round;"/><path id="line2d_33" d="M101.502,182.382l56.745,-39.701" style="fill:none;stroke:#55a868;stroke-width:0.75px;stroke-linecap:round;"/><path id="line2d_34" d="M101.502,232.458l56.745,-156.165" style="fill:none;stroke:#55a868;stroke-width:0.75px;stroke-linecap:round;"/><path id="line2d_35" d="M101.502,191.122l56.745,-113.372" style="fill:none;stroke:#55a868;stroke-width:0.75px;stroke-linecap:round;"/><path id="line2d_36" d="M101.502,244.246l56.745,-136.706" style="fill:none;stroke:#55a868;stroke-width:0.75px;stroke-linecap:round;"/><path id="line2d_37" d="M101.502,216.098l56.745,-107.639" style="fill:none;stroke:#55a868;stroke-width:0.75px;stroke-linecap:round;"/><path id="line2d_38" d="M101.502,244.121l56.745,-88.578" style="fill:none;stroke:#55a868;stroke-width:0.75px;stroke-linecap:round;"/><path id="line2d_39" d="M101.502,253.095l56.745,-137.492" style="fill:none;stroke:#55a868;stroke-width:0.75px;stroke-linecap:round;"/><path id="line2d_40" d="M101.502,231.39l56.745,-169.515" style="fill:none;stroke:#55a868;stroke-width:0.75px;stroke-linecap:round;"/><path id="line2d_41" d="M101.502,250.767l56.745,-110.377" style="fill:none;stroke:#55a868;stroke-width:0.75px;stroke-linecap:round;"/><path id="line2d_42" d="M101.502,193.972l56.745,-69.204" style="fill:none;stroke:#55a868;stroke-width:0.75px;stroke-linecap:round;"/><path id="line2d_43" d="M101.502,229.407l56.745,-115.862" style="fill:none;stroke:#55a868;stroke-width:0.75px;stroke-linecap:round;"/><path id="line2d_44" d="M101.502,222.877l56.745,-103.177" style="fill:none;stroke:#55a868;stroke-width:0.75px;stroke-linecap:round;"/><path id="line2d_45" d="M101.502,246.359l56.745,-74.831" style="fill:none;stroke:#55a868;stroke-width:0.75px;stroke-linecap:round;"/><path id="line2d_46" d="M101.502,195.626l56.745,-69.796" style="fill:none;stroke:#55a868;stroke-width:0.75px;stroke-linecap:round;"/><path id="line2d_47" d="M101.502,258.909l56.745,-130.824" style="fill:none;stroke:#55a868;stroke-width:0.75px;stroke-linecap:round;"/><path id="patch_3" d="M95.827,299.264l0,-254.6" style="fill:none;stroke:#262626;stroke-width:1.25px;stroke-linecap:square;"/><path id="patch_4" d="M101.502,339.36l56.745,0" style="fill:none;stroke:#262626;stroke-width:1.25px;stroke-linecap:square;"/><g id="legend_1"><path id="line2d_48" d="M272.857,38.516l40,0" style="fill:none;stroke:#55a868;stroke-width:0.75px;stroke-linecap:round;"/><text id="text_9" x="328.857px" y="45.516px" style="font-family:'ArialMT', 'Arial', sans-serif;font-size:20px;fill:#262626;">Female</text><path id="line2d_50" d="M272.857,66.806l40,0" style="fill:none;stroke:#4c72b0;stroke-width:0.75px;stroke-linecap:round;"/><text id="text_10" x="328.857px" y="73.806px" style="font-family:'ArialMT', 'Arial', sans-serif;font-size:20px;fill:#262626;">Male</text></g></g><g id="axes_2"><g id="matplotlib.axis_3"><g id="ytick_6"><path id="m780496ae1a" d="M263.227,230.148l6,0" style="fill:#262626;fill-rule:nonzero;stroke:#262626;stroke-width:1.6px;"/><text id="text_11" x="280.427px" y="237.305px" style="font-family:'ArialMT', 'Arial', sans-serif;font-size:20px;fill:#262626;">0</text></g><g id="ytick_7"><path id="m780496ae1a1" serif:id="m780496ae1a" d="M263.227,166.498l6,0" style="fill:#262626;fill-rule:nonzero;stroke:#262626;stroke-width:1.6px;"/><text id="text_12" x="280.427px" y="173.655px" style="font-family:'ArialMT', 'Arial', sans-serif;font-size:20px;fill:#262626;">2</text></g><g id="ytick_8"><path id="m780496ae1a2" serif:id="m780496ae1a" d="M263.227,102.847l6,0" style="fill:#262626;fill-rule:nonzero;stroke:#262626;stroke-width:1.6px;"/><text id="text_13" x="280.427px" y="110.005px" style="font-family:'ArialMT', 'Arial', sans-serif;font-size:20px;fill:#262626;">4</text></g></g><path id="m37e5fb40e2" d="M200.889,131.425l-0.081,0l0,-0.423l0,-0.422l0,-0.422l0,-0.423l0,-0.422l0,-0.422l0,-0.423l0,-0.422l0,-0.422l0,-0.423l0,-0.422l0,-0.422l0,-0.423l0,-0.422l0,-0.422l0,-0.423l0,-0.422l0,-0.422l0,-0.422l0,-0.423l0,-0.422l0,-0.422l0,-0.423l0,-0.422l0,-0.422l0,-0.423l0,-0.422l0,-0.422l0,-0.423l0,-0.422l0,-0.422l0,-0.423l0,-0.422l0,-0.422l0,-0.423l0,-0.422l0,-0.422l0,-0.423l0,-0.422l0,-0.422l0,-0.423l0,-0.422l0,-0.422l0,-0.423l0,-0.422l0,-0.422l0,-0.423l0,-0.422l0,-0.422l0,-0.423l0,-0.422l0,-0.422l0,-0.423l0,-0.422l0,-0.422l0,-0.423l0,-0.422l0,-0.422l0,-0.423l0,-0.422l0,-0.422l0,-0.423l0,-0.422l0,-0.422l0,-0.423l0,-0.422l0,-0.422l0,-0.423l0,-0.422l0,-0.422l0,-0.423l0,-0.422l0,-0.422l0,-0.422l0,-0.423l0,-0.422l0,-0.422l0,-0.423l0,-0.422l0,-0.422l0,-0.423l0,-0.422l0,-0.422l0,-0.423l0,-0.422l0,-0.422l0,-0.423l0,-0.422l0,-0.422l0,-0.423l0,-0.422l0,-0.422l0,-0.423l0,-0.422l0,-0.422l0,-0.423l0,-0.422l0,-0.422l0,-0.423l0.035,0l0.005,0.423l0.004,0.422l0.004,0.422l0.004,0.423l0.007,0.422l0.011,0.422l0.016,0.423l0.026,0.422l0.037,0.422l0.05,0.423l0.062,0.422l0.069,0.422l0.076,0.423l0.082,0.422l0.091,0.422l0.106,0.423l0.126,0.422l0.149,0.422l0.171,0.423l0.193,0.422l0.209,0.422l0.222,0.423l0.233,0.422l0.247,0.422l0.27,0.423l0.301,0.422l0.334,0.422l0.366,0.422l0.394,0.423l0.417,0.422l0.442,0.422l0.47,0.423l0.495,0.422l0.51,0.422l0.51,0.423l0.502,0.422l0.494,0.422l0.497,0.423l0.521,0.422l0.562,0.422l0.605,0.423l0.629,0.422l0.614,0.422l0.56,0.423l0.485,0.422l0.411,0.422l0.351,0.423l0.307,0.422l0.268,0.422l0.232,0.423l0.193,0.422l0.143,0.422l0.067,0.423l-0.033,0.422l-0.146,0.422l-0.248,0.423l-0.321,0.422l-0.352,0.422l-0.343,0.423l-0.305,0.422l-0.259,0.422l-0.227,0.423l-0.228,0.422l-0.272,0.422l-0.356,0.423l-0.471,0.422l-0.6,0.422l-0.712,0.423l-0.786,0.422l-0.809,0.422l-0.782,0.423l-0.72,0.422l-0.64,0.422l-0.558,0.423l-0.485,0.422l-0.424,0.422l-0.373,0.423l-0.336,0.422l-0.312,0.422l-0.304,0.423l-0.304,0.422l-0.299,0.422l-0.28,0.422l-0.246,0.423l-0.202,0.422l-0.164,0.422l-0.136,0.423l-0.123,0.422l-0.12,0.422l-0.119,0.423l-0.119,0.422l-0.117,0.422l-0.111,0.423l-0.1,0.422l-0.084,0.422l-0.064,0.423l-0.048,0.422l-0.037,0.422l-0.029,0.423Z" style="fill-opacity:0.298039;fill-rule:nonzero;stroke:#000;stroke-opacity:0.298039;stroke-width:0.48px;"/><path id="LineCollection_1" d="M101.502,230.148l161.725,0" style="fill:none;stroke:#000;stroke-width:0.75px;"/><path id="LineCollection_2" d="M158.247,112.093l104.98,0" style="fill:none;stroke:#000;stroke-width:0.75px;"/><path id="m3f5c8df1c7" d="M200.807,117.093c1.326,0 2.598,-0.527 3.535,-1.465c0.938,-0.937 1.465,-2.209 1.465,-3.535c0,-1.326 -0.527,-2.598 -1.465,-3.536c-0.937,-0.937 -2.209,-1.464 -3.535,-1.464c-1.326,0 -2.598,0.527 -3.536,1.464c-0.938,0.938 -1.464,2.21 -1.464,3.536c0,1.326 0.526,2.598 1.464,3.535c0.938,0.938 2.21,1.465 3.536,1.465Z" style="fill-rule:nonzero;"/><path id="line2d_56" d="M200.807,124.014l0,-24.479" style="fill:none;stroke:#000;stroke-width:2px;stroke-linecap:round;"/><path id="patch_5" d="M263.227,230.148l0,-127.301" style="fill:none;stroke:#262626;stroke-width:1.25px;stroke-linecap:square;"/></g></g></svg>