<?xml version="1.0" encoding="UTF-8" standalone="no"?><!DOCTYPE svg PUBLIC "-//W3C//DTD SVG 1.1//EN" "http://www.w3.org/Graphics/SVG/1.1/DTD/svg11.dtd"><svg width="100%" height="100%" viewBox="0 0 386 459" version="1.1" xmlns="http://www.w3.org/2000/svg" xmlns:xlink="http://www.w3.org/1999/xlink" xml:space="preserve" xmlns:serif="http://www.serif.com/" style="fill-rule:evenodd;clip-rule:evenodd;"><g id="figure_1"><g id="axes_1"><rect id="patch_2" x="71.323" y="13.2" width="167.4" height="326.16" style="fill:none;"/><g id="matplotlib.axis_1"><g id="xtick_1"><path id="m450641a374" d="M101.759,339.36l0,6" style="fill:#262626;fill-rule:nonzero;stroke:#262626;stroke-width:1.6px;"/><g id="text_1" transform="matrix(0.707107,-0.707107,0.707107,0.707107,-311.671,143.662)"><text x="17.58px" y="448.051px" style="font-family:'ArialMT', 'Arial', sans-serif;font-size:20px;fill:#262626;">Control n=40</text></g></g><g id="xtick_2"><path id="m450641a3741" serif:id="m450641a374" d="M162.632,339.36l0,6" style="fill:#262626;fill-rule:nonzero;stroke:#262626;stroke-width:1.6px;"/><g id="text_2" transform="matrix(0.707107,-0.707107,0.707107,0.707107,-295.543,186.102)"><text x="76.873px" y="449.803px" style="font-family:'ArialMT', 'Arial', sans-serif;font-size:20px;fill:#262626;">Group4 n=40</text></g></g></g><g id="matplotlib.axis_2"><g id="ytick_1"><path id="ma14b09d02c" d="M71.323,299.264l-6,0" style="fill:#262626;fill-rule:nonzero;stroke:#262626;stroke-width:1.6px;"/><text id="text_3" x="31.32px" y="306.422px" style="font-family:'ArialMT', 'Arial', sans-serif;font-size:20px;fill:#262626;">−2</text></g><g id="ytick_2"><path id="ma14b09d02c1" serif:id="ma14b09d02c" d="M71.323,235.614l-6,0" style="fill:#262626;fill-rule:nonzero;stroke:#262626;stroke-width:1.6px;"/><text id="text_4" x="43px" y="242.771px" style="font-family:'ArialMT', 'Arial', sans-serif;font-size:20px;fill:#262626;">0</text></g><g id="ytick_3"><path id="ma14b09d02c2" serif:id="ma14b09d02c" d="M71.323,171.964l-6,0" style="fill:#262626;fill-rule:nonzero;stroke:#262626;stroke-width:1.6px;"/><text id="text_5" x="43px" y="179.121px" style="font-family:'ArialMT', 'Arial', sans-serif;font-size:20px;fill:#262626;">2</text></g><g id="ytick_4"><path id="ma14b09d02c3" serif:id="ma14b09d02c" d="M71.323,108.314l-6,0" style="fill:#262626;fill-rule:nonzero;stroke:#262626;stroke-width:1.6px;"/><text id="text_6" x="43px" y="115.471px" style="font-family:'ArialMT', 'Arial', sans-serif;font-size:20px;fill:#262626;">4</text></g><g id="ytick_5"><path id="ma14b09d02c4" serif:id="ma14b09d02c" d="M71.323,44.664l-6,0" style="fill:#262626;fill-rule:nonzero;stroke:#262626;stroke-width:1.6px;"/><text id="text_7" x="43px" y="51.821px" style="font-family:'ArialMT', 'Arial', sans-serif;font-size:20px;fill:#262626;">6</text></g><g id="text_8" transform="matrix(-3.82857e-16,-1,1,-3.82857e-16,-153.333,199.227)"><text x="-3.35px" y="176.28px" style="font-family:'ArialMT', 'Arial', sans-serif;font-size:22px;fill:#262626;">value</text></g></g><path id="patch_3" d="M71.323,299.264l0,-254.6" style="fill:none;stroke:#262626;stroke-width:1.25px;stroke-linecap:square;"/><path id="patch_4" d="M101.759,339.36l60.873,0" style="fill:none;stroke:#262626;stroke-width:1.25px;stroke-linecap:square;"/><g id="PathCollection_3"><path id="C0_0_0030be1c3a" d="M101.759,301.555c0.796,0 1.559,-0.316 2.121,-0.879c0.563,-0.562 0.879,-1.325 0.879,-2.121c0,-0.796 -0.316,-1.559 -0.879,-2.121c-0.562,-0.563 -1.325,-0.879 -2.121,-0.879c-0.795,0 -1.559,0.316 -2.121,0.879c-0.563,0.562 -0.879,1.325 -0.879,2.121c0,0.796 0.316,1.559 0.879,2.121c0.562,0.563 1.326,0.879 2.121,0.879Z" style="fill:#55a868;fill-rule:nonzero;"/><path id="C0_0_0030be1c3a1" serif:id="C0_0_0030be1c3a" d="M101.759,294.097c0.796,0 1.559,-0.317 2.121,-0.879c0.563,-0.563 0.879,-1.326 0.879,-2.121c0,-0.796 -0.316,-1.559 -0.879,-2.122c-0.562,-0.562 -1.325,-0.878 -2.121,-0.878c-0.795,0 -1.559,0.316 -2.121,0.878c-0.563,0.563 -0.879,1.326 -0.879,2.122c0,0.795 0.316,1.558 0.879,2.121c0.562,0.562 1.326,0.879 2.121,0.879Z" style="fill:#55a868;fill-rule:nonzero;"/><path id="C0_0_0030be1c3a2" serif:id="C0_0_0030be1c3a" d="M101.759,287.796c0.796,0 1.559,-0.316 2.121,-0.879c0.563,-0.562 0.879,-1.325 0.879,-2.121c0,-0.796 -0.316,-1.559 -0.879,-2.121c-0.562,-0.563 -1.325,-0.879 -2.121,-0.879c-0.795,0 -1.559,0.316 -2.121,0.879c-0.563,0.562 -0.879,1.325 -0.879,2.121c0,0.796 0.316,1.559 0.879,2.121c0.562,0.563 1.326,0.879 2.121,0.879Z" style="fill:#4c72b0;fill-rule:nonzero;"/><path id="C0_0_0030be1c3a3" serif:id="C0_0_0030be1c3a" d="M101.759,274.786c0.796,0 1.559,-0.316 2.121,-0.879c0.563,-0.562 0.879,-1.325 0.879,-2.121c0,-0.796 -0.316,-1.559 -0.879,-2.121c-0.562,-0.563 -1.325,-0.879 -2.121,-0.879c-0.795,0 -1.559,0.316 -2.121,0.879c-0.563,0.562 -0.879,1.325 -0.879,2.121c0,0.796 0.316,1.559 0.879,2.121c0.562,0.563 1.326,0.879 2.121,0.879Z" style="fill:#4c72b0;fill-rule:nonzero;"/><path id="C0_0_0030be1c3a4" serif:id="C0_0_0030be1c3a" d="M97.39,272.978c0.796,0 1.559,-0.316 2.122,-0.878c0.562,-0.563 0.878,-1.326 0.878,-2.122c0,-0.795 -0.316,-1.558 -0.878,-2.121c-0.563,-0.562 -1.326,-0.879 -2.122,-0.879c-0.795,0 -1.559,0.317 -2.121,0.879c-0.563,0.563 -0.879,1.326 -0.879,2.121c0,0.796 0.316,1.559 0.879,2.122c0.562,0.562 1.326,0.878 2.121,0.878Z" style="fill:#4c72b0;fill-rule:nonzero;"/><path id="C0_0_0030be1c3a5" serif:id="C0_0_0030be1c3a" d="M103.66,269.327c0.796,0 1.559,-0.316 2.122,-0.879c0.562,-0.562 0.878,-1.325 0.878,-2.121c0,-0.796 -0.316,-1.559 -0.878,-2.121c-0.563,-0.563 -1.326,-0.879 -2.122,-0.879c-0.795,0 -1.558,0.316 -2.121,0.879c-0.563,0.562 -0.879,1.325 -0.879,2.121c0,0.796 0.316,1.559 0.879,2.121c0.563,0.563 1.326,0.879 2.121,0.879Z" style="fill:#4c72b0;fill-rule:nonzero;"/><path id="C0_0_0030be1c3a6" serif:id="C0_0_0030be1c3a" d="M101.759,261.909c0.796,0 1.559,-0.316 2.121,-0.879c0.563,-0.563 0.879,-1.326 0.879,-2.121c0,-0.796 -0.316,-1.559 -0.879,-2.122c-0.562,-0.562 -1.325,-0.878 -2.121,-0.878c-0.795,0 -1.559,0.316 -2.121,0.878c-0.563,0.563 -0.879,1.326 -0.879,2.122c0,0.795 0.316,1.558 0.879,2.121c0.562,0.563 1.326,0.879 2.121,0.879Z" style="fill:#55a868;fill-rule:nonzero;"/><path id="C0_0_0030be1c3a7" serif:id="C0_0_0030be1c3a" d="M97.186,261.53c0.796,0 1.559,-0.316 2.122,-0.878c0.562,-0.563 0.878,-1.326 0.878,-2.122c0,-0.795 -0.316,-1.558 -0.878,-2.121c-0.563,-0.562 -1.326,-0.879 -2.122,-0.879c-0.795,0 -1.558,0.317 -2.121,0.879c-0.562,0.563 -0.879,1.326 -0.879,2.121c0,0.796 0.317,1.559 0.879,2.122c0.563,0.562 1.326,0.878 2.121,0.878Z" style="fill:#4c72b0;fill-rule:nonzero;"/><path id="C0_0_0030be1c3a8" serif:id="C0_0_0030be1c3a" d="M100.625,256.095c0.795,0 1.558,-0.316 2.121,-0.878c0.563,-0.563 0.879,-1.326 0.879,-2.122c0,-0.795 -0.316,-1.558 -0.879,-2.121c-0.563,-0.562 -1.326,-0.879 -2.121,-0.879c-0.796,0 -1.559,0.317 -2.122,0.879c-0.562,0.563 -0.878,1.326 -0.878,2.121c0,0.796 0.316,1.559 0.878,2.122c0.563,0.562 1.326,0.878 2.122,0.878Z" style="fill:#55a868;fill-rule:nonzero;"/><path id="C0_0_0030be1c3a9" serif:id="C0_0_0030be1c3a" d="M104.847,253.767c0.796,0 1.559,-0.316 2.122,-0.879c0.562,-0.562 0.878,-1.325 0.878,-2.121c0,-0.796 -0.316,-1.559 -0.878,-2.121c-0.563,-0.563 -1.326,-0.879 -2.122,-0.879c-0.795,0 -1.558,0.316 -2.121,0.879c-0.562,0.562 -0.879,1.325 -0.879,2.121c0,0.796 0.317,1.559 0.879,2.121c0.563,0.563 1.326,0.879 2.121,0.879Z" style="fill:#55a868;fill-rule:nonzero;"/><path id="C0_0_0030be1c3a10" serif:id="C0_0_0030be1c3a" d="M101.759,249.359c0.796,0 1.559,-0.316 2.121,-0.879c0.563,-0.562 0.879,-1.326 0.879,-2.121c0,-0.796 -0.316,-1.559 -0.879,-2.121c-0.562,-0.563 -1.325,-0.879 -2.121,-0.879c-0.795,0 -1.559,0.316 -2.121,0.879c-0.563,0.562 -0.879,1.325 -0.879,2.121c0,0.795 0.316,1.559 0.879,2.121c0.562,0.563 1.326,0.879 2.121,0.879Z" style="fill:#55a868;fill-rule:nonzero;"/><path id="C0_0_0030be1c3a11" serif:id="C0_0_0030be1c3a" d="M106.048,247.246c0.795,0 1.558,-0.316 2.121,-0.879c0.562,-0.562 0.879,-1.325 0.879,-2.121c0,-0.795 -0.317,-1.559 -0.879,-2.121c-0.563,-0.563 -1.326,-0.879 -2.121,-0.879c-0.796,0 -1.559,0.316 -2.122,0.879c-0.562,0.562 -0.878,1.326 -0.878,2.121c0,0.796 0.316,1.559 0.878,2.121c0.563,0.563 1.326,0.879 2.122,0.879Z" style="fill:#55a868;fill-rule:nonzero;"/><path id="C0_0_0030be1c3a12" serif:id="C0_0_0030be1c3a" d="M97.508,247.121c0.796,0 1.559,-0.316 2.121,-0.879c0.563,-0.562 0.879,-1.325 0.879,-2.121c0,-0.796 -0.316,-1.559 -0.879,-2.121c-0.562,-0.563 -1.325,-0.879 -2.121,-0.879c-0.796,0 -1.559,0.316 -2.121,0.879c-0.563,0.562 -0.879,1.325 -0.879,2.121c0,0.796 0.316,1.559 0.879,2.121c0.562,0.563 1.325,0.879 2.121,0.879Z" style="fill:#55a868;fill-rule:nonzero;"/><path id="C0_0_0030be1c3a13" serif:id="C0_0_0030be1c3a" d="M109.982,244.17c0.795,0 1.558,-0.316 2.121,-0.878c0.562,-0.563 0.879,-1.326 0.879,-2.122c0,-0.795 -0.317,-1.558 -0.879,-2.121c-0.563,-0.563 -1.326,-0.879 -2.121,-0.879c-0.796,0 -1.559,0.316 -2.122,0.879c-0.562,0.563 -0.878,1.326 -0.878,2.121c0,0.796 0.316,1.559 0.878,2.122c0.563,0.562 1.326,0.878 2.122,0.878Z" style="fill:#4c72b0;fill-rule:nonzero;"/><path id="C0_0_0030be1c3a14" serif:id="C0_0_0030be1c3a" d="M101.759,238.88c0.796,0 1.559,-0.316 2.121,-0.878c0.563,-0.563 0.879,-1.326 0.879,-2.122c0,-0.795 -0.316,-1.558 -0.879,-2.121c-0.562,-0.562 -1.325,-0.879 -2.121,-0.879c-0.795,0 -1.559,0.317 -2.121,0.879c-0.563,0.563 -0.879,1.326 -0.879,2.121c0,0.796 0.316,1.559 0.879,2.122c0.562,0.562 1.326,0.878 2.121,0.878Z" style="fill:#4c72b0;fill-rule:nonzero;"/><path id="C0_0_0030be1c3a15" serif:id="C0_0_0030be1c3a" d="M106.331,238.477c0.795,0 1.558,-0.316 2.121,-0.879c0.563,-0.562 0.879,-1.325 0.879,-2.121c0,-0.796 -0.316,-1.559 -0.879,-2.121c-0.563,-0.563 -1.326,-0.879 -2.121,-0.879c-0.796,0 -1.559,0.316 -2.122,0.879c-0.562,0.562 -0.878,1.325 -0.878,2.121c0,0.796 0.316,1.559 0.878,2.121c0.563,0.563 1.326,0.879 2.122,0.879Z" style="fill:#4c72b0;fill-rule:nonzero;"/><path id="C0_0_0030be1c3a16" serif:id="C0_0_0030be1c3a" d="M97.996,235.458c0.795,0 1.558,-0.316 2.121,-0.878c0.563,-0.563 0.879,-1.326 0.879,-2.122c0,-0.795 -0.316,-1.558 -0.879,-2.121c-0.563,-0.563 -1.326,-0.879 -2.121,-0.879c-0.796,0 -1.559,0.316 -2.122,0.879c-0.562,0.563 -0.878,1.326 -0.878,2.121c0,0.796 0.316,1.559 0.878,2.122c0.563,0.562 1.326,0.878 2.122,0.878Z" style="fill:#55a868;fill-rule:nonzero;"/><path id="C0_0_0030be1c3a17" serif:id="C0_0_0030be1c3a" d="M93.42,235.159c0.795,0 1.558,-0.316 2.121,-0.879c0.563,-0.562 0.879,-1.325 0.879,-2.121c0,-0.795 -0.316,-1.559 -0.879,-2.121c-0.563,-0.563 -1.326,-0.879 -2.121,-0.879c-0.796,0 -1.559,0.316 -2.122,0.879c-0.562,0.562 -0.878,1.326 -0.878,2.121c0,0.796 0.316,1.559 0.878,2.121c0.563,0.563 1.326,0.879 2.122,0.879Z" style="fill:#4c72b0;fill-rule:nonzero;"/><path id="C0_0_0030be1c3a18" serif:id="C0_0_0030be1c3a" d="M109.685,234.39c0.796,0 1.559,-0.316 2.122,-0.878c0.562,-0.563 0.878,-1.326 0.878,-2.122c0,-0.795 -0.316,-1.559 -0.878,-2.121c-0.563,-0.563 -1.326,-0.879 -2.122,-0.879c-0.795,0 -1.559,0.316 -2.121,0.879c-0.563,0.562 -0.879,1.326 -0.879,2.121c0,0.796 0.316,1.559 0.879,2.122c0.562,0.562 1.326,0.878 2.121,0.878Z" style="fill:#55a868;fill-rule:nonzero;"/><path id="C0_0_0030be1c3a19" serif:id="C0_0_0030be1c3a" d="M114.267,234.313c0.795,0 1.558,-0.316 2.121,-0.879c0.563,-0.562 0.879,-1.325 0.879,-2.121c0,-0.796 -0.316,-1.559 -0.879,-2.121c-0.563,-0.563 -1.326,-0.879 -2.121,-0.879c-0.796,0 -1.559,0.316 -2.122,0.879c-0.562,0.562 -0.878,1.325 -0.878,2.121c0,0.796 0.316,1.559 0.878,2.121c0.563,0.563 1.326,0.879 2.122,0.879Z" style="fill:#4c72b0;fill-rule:nonzero;"/><path id="C0_0_0030be1c3a20" serif:id="C0_0_0030be1c3a" d="M101.759,232.407c0.796,0 1.559,-0.316 2.121,-0.878c0.563,-0.563 0.879,-1.326 0.879,-2.122c0,-0.795 -0.316,-1.558 -0.879,-2.121c-0.562,-0.563 -1.325,-0.879 -2.121,-0.879c-0.795,0 -1.559,0.316 -2.121,0.879c-0.563,0.563 -0.879,1.326 -0.879,2.121c0,0.796 0.316,1.559 0.879,2.122c0.562,0.562 1.326,0.878 2.121,0.878Z" style="fill:#55a868;fill-rule:nonzero;"/><path id="C0_0_0030be1c3a21" serif:id="C0_0_0030be1c3a" d="M89.887,231.338c0.796,0 1.559,-0.317 2.122,-0.879c0.562,-0.563 0.878,-1.326 0.878,-2.121c0,-0.796 -0.316,-1.559 -0.878,-2.122c-0.563,-0.562 -1.326,-0.878 -2.122,-0.878c-0.795,0 -1.558,0.316 -2.121,0.878c-0.562,0.563 -0.879,1.326 -0.879,2.122c0,0.795 0.317,1.558 0.879,2.121c0.563,0.562 1.326,0.879 2.121,0.879Z" style="fill:#4c72b0;fill-rule:nonzero;"/><path id="C0_0_0030be1c3a22" serif:id="C0_0_0030be1c3a" d="M106.009,230.164c0.795,0 1.558,-0.316 2.121,-0.879c0.563,-0.562 0.879,-1.326 0.879,-2.121c0,-0.796 -0.316,-1.559 -0.879,-2.122c-0.563,-0.562 -1.326,-0.878 -2.121,-0.878c-0.796,0 -1.559,0.316 -2.122,0.878c-0.562,0.563 -0.878,1.326 -0.878,2.122c0,0.795 0.316,1.559 0.878,2.121c0.563,0.563 1.326,0.879 2.122,0.879Z" style="fill:#4c72b0;fill-rule:nonzero;"/><path id="C0_0_0030be1c3a23" serif:id="C0_0_0030be1c3a" d="M95.937,230.146c0.796,0 1.559,-0.316 2.121,-0.879c0.563,-0.562 0.879,-1.325 0.879,-2.121c0,-0.796 -0.316,-1.559 -0.879,-2.121c-0.562,-0.563 -1.325,-0.879 -2.121,-0.879c-0.795,0 -1.559,0.316 -2.121,0.879c-0.563,0.562 -0.879,1.325 -0.879,2.121c0,0.796 0.316,1.559 0.879,2.121c0.562,0.563 1.326,0.879 2.121,0.879Z" style="fill:#55a868;fill-rule:nonzero;"/><path id="C0_0_0030be1c3a24" serif:id="C0_0_0030be1c3a" d="M101.759,225.877c0.796,0 1.559,-0.316 2.121,-0.879c0.563,-0.562 0.879,-1.325 0.879,-2.121c0,-0.796 -0.316,-1.559 -0.879,-2.121c-0.562,-0.563 -1.325,-0.879 -2.121,-0.879c-0.795,0 -1.559,0.316 -2.121,0.879c-0.563,0.562 -0.879,1.325 -0.879,2.121c0,0.796 0.316,1.559 0.879,2.121c0.562,0.563 1.326,0.879 2.121,0.879Z" style="fill:#55a868;fill-rule:nonzero;"/><path id="C0_0_0030be1c3a25" serif:id="C0_0_0030be1c3a" d="M108.111,224.833c0.795,0 1.559,-0.316 2.121,-0.879c0.563,-0.563 0.879,-1.326 0.879,-2.121c0,-0.796 -0.316,-1.559 -0.879,-2.122c-0.562,-0.562 -1.326,-0.878 -2.121,-0.878c-0.796,0 -1.559,0.316 -2.121,0.878c-0.563,0.563 -0.879,1.326 -0.879,2.122c0,0.795 0.316,1.558 0.879,2.121c0.562,0.563 1.325,0.879 2.121,0.879Z" style="fill:#4c72b0;fill-rule:nonzero;"/><path id="C0_0_0030be1c3a26" serif:id="C0_0_0030be1c3a" d="M97.371,224.447c0.795,0 1.558,-0.316 2.121,-0.879c0.562,-0.562 0.879,-1.325 0.879,-2.121c0,-0.795 -0.317,-1.559 -0.879,-2.121c-0.563,-0.563 -1.326,-0.879 -2.121,-0.879c-0.796,0 -1.559,0.316 -2.122,0.879c-0.562,0.562 -0.878,1.326 -0.878,2.121c0,0.796 0.316,1.559 0.878,2.121c0.563,0.563 1.326,0.879 2.122,0.879Z" style="fill:#4c72b0;fill-rule:nonzero;"/><path id="C0_0_0030be1c3a27" serif:id="C0_0_0030be1c3a" d="M101.759,219.098c0.796,0 1.559,-0.316 2.121,-0.878c0.563,-0.563 0.879,-1.326 0.879,-2.122c0,-0.795 -0.316,-1.558 -0.879,-2.121c-0.562,-0.562 -1.325,-0.879 -2.121,-0.879c-0.795,0 -1.559,0.317 -2.121,0.879c-0.563,0.563 -0.879,1.326 -0.879,2.121c0,0.796 0.316,1.559 0.879,2.122c0.562,0.562 1.326,0.878 2.121,0.878Z" style="fill:#55a868;fill-rule:nonzero;"/><path id="C0_0_0030be1c3a28" serif:id="C0_0_0030be1c3a" d="M106.337,218.84c0.795,0 1.558,-0.316 2.121,-0.879c0.563,-0.563 0.879,-1.326 0.879,-2.121c0,-0.796 -0.316,-1.559 -0.879,-2.122c-0.563,-0.562 -1.326,-0.878 -2.121,-0.878c-0.796,0 -1.559,0.316 -2.122,0.878c-0.562,0.563 -0.878,1.326 -0.878,2.122c0,0.795 0.316,1.558 0.878,2.121c0.563,0.563 1.326,0.879 2.122,0.879Z" style="fill:#4c72b0;fill-rule:nonzero;"/><path id="C0_0_0030be1c3a29" serif:id="C0_0_0030be1c3a" d="M97.907,215.85c0.796,0 1.559,-0.316 2.121,-0.879c0.563,-0.562 0.879,-1.325 0.879,-2.121c0,-0.796 -0.316,-1.559 -0.879,-2.121c-0.562,-0.563 -1.325,-0.879 -2.121,-0.879c-0.796,0 -1.559,0.316 -2.121,0.879c-0.563,0.562 -0.879,1.325 -0.879,2.121c0,0.796 0.316,1.559 0.879,2.121c0.562,0.563 1.325,0.879 2.121,0.879Z" style="fill:#4c72b0;fill-rule:nonzero;"/><path id="C0_0_0030be1c3a30" serif:id="C0_0_0030be1c3a" d="M101.759,205.889c0.796,0 1.559,-0.316 2.121,-0.879c0.563,-0.562 0.879,-1.326 0.879,-2.121c0,-0.796 -0.316,-1.559 -0.879,-2.121c-0.562,-0.563 -1.325,-0.879 -2.121,-0.879c-0.795,0 -1.559,0.316 -2.121,0.879c-0.563,0.562 -0.879,1.325 -0.879,2.121c0,0.795 0.316,1.559 0.879,2.121c0.562,0.563 1.326,0.879 2.121,0.879Z" style="fill:#4c72b0;fill-rule:nonzero;"/><path id="C0_0_0030be1c3a31" serif:id="C0_0_0030be1c3a" d="M97.807,202.852c0.796,0 1.559,-0.316 2.122,-0.878c0.562,-0.563 0.878,-1.326 0.878,-2.122c0,-0.795 -0.316,-1.559 -0.878,-2.121c-0.563,-0.563 -1.326,-0.879 -2.122,-0.879c-0.795,0 -1.558,0.316 -2.121,0.879c-0.562,0.562 -0.879,1.326 -0.879,2.121c0,0.796 0.317,1.559 0.879,2.122c0.563,0.562 1.326,0.878 2.121,0.878Z" style="fill:#55a868;fill-rule:nonzero;"/><path id="C0_0_0030be1c3a32" serif:id="C0_0_0030be1c3a" d="M103.478,200.327c0.796,0 1.559,-0.316 2.121,-0.879c0.563,-0.562 0.879,-1.325 0.879,-2.121c0,-0.796 -0.316,-1.559 -0.879,-2.121c-0.562,-0.563 -1.325,-0.879 -2.121,-0.879c-0.796,0 -1.559,0.316 -2.121,0.879c-0.563,0.562 -0.879,1.325 -0.879,2.121c0,0.796 0.316,1.559 0.879,2.121c0.562,0.563 1.325,0.879 2.121,0.879Z" style="fill:#4c72b0;fill-rule:nonzero;"/><path id="C0_0_0030be1c3a33" serif:id="C0_0_0030be1c3a" d="M107.872,198.626c0.795,0 1.559,-0.316 2.121,-0.878c0.563,-0.563 0.879,-1.326 0.879,-2.122c0,-0.795 -0.316,-1.558 -0.879,-2.121c-0.562,-0.562 -1.326,-0.879 -2.121,-0.879c-0.796,0 -1.559,0.317 -2.121,0.879c-0.563,0.563 -0.879,1.326 -0.879,2.121c0,0.796 0.316,1.559 0.879,2.122c0.562,0.562 1.325,0.878 2.121,0.878Z" style="fill:#55a868;fill-rule:nonzero;"/><path id="C0_0_0030be1c3a34" serif:id="C0_0_0030be1c3a" d="M99.68,196.972c0.795,0 1.558,-0.317 2.121,-0.879c0.563,-0.563 0.879,-1.326 0.879,-2.121c0,-0.796 -0.316,-1.559 -0.879,-2.122c-0.563,-0.562 -1.326,-0.878 -2.121,-0.878c-0.796,0 -1.559,0.316 -2.122,0.878c-0.562,0.563 -0.878,1.326 -0.878,2.122c0,0.795 0.316,1.558 0.878,2.121c0.563,0.562 1.326,0.879 2.122,0.879Z" style="fill:#55a868;fill-rule:nonzero;"/><path id="C0_0_0030be1c3a35" serif:id="C0_0_0030be1c3a" d="M95.132,196.236c0.796,0 1.559,-0.316 2.122,-0.879c0.562,-0.562 0.878,-1.325 0.878,-2.121c0,-0.796 -0.316,-1.559 -0.878,-2.121c-0.563,-0.563 -1.326,-0.879 -2.122,-0.879c-0.795,0 -1.558,0.316 -2.121,0.879c-0.563,0.562 -0.879,1.325 -0.879,2.121c0,0.796 0.316,1.559 0.879,2.121c0.563,0.563 1.326,0.879 2.121,0.879Z" style="fill:#4c72b0;fill-rule:nonzero;"/><path id="C0_0_0030be1c3a36" serif:id="C0_0_0030be1c3a" d="M103.712,194.122c0.796,0 1.559,-0.316 2.121,-0.878c0.563,-0.563 0.879,-1.326 0.879,-2.122c0,-0.795 -0.316,-1.558 -0.879,-2.121c-0.562,-0.562 -1.325,-0.879 -2.121,-0.879c-0.796,0 -1.559,0.317 -2.121,0.879c-0.563,0.563 -0.879,1.326 -0.879,2.121c0,0.796 0.316,1.559 0.879,2.122c0.562,0.562 1.325,0.878 2.121,0.878Z" style="fill:#55a868;fill-rule:nonzero;"/><path id="C0_0_0030be1c3a37" serif:id="C0_0_0030be1c3a" d="M98.041,191.368c0.796,0 1.559,-0.316 2.121,-0.878c0.563,-0.563 0.879,-1.326 0.879,-2.122c0,-0.795 -0.316,-1.558 -0.879,-2.121c-0.562,-0.563 -1.325,-0.879 -2.121,-0.879c-0.795,0 -1.559,0.316 -2.121,0.879c-0.563,0.563 -0.879,1.326 -0.879,2.121c0,0.796 0.316,1.559 0.879,2.122c0.562,0.562 1.326,0.878 2.121,0.878Z" style="fill:#4c72b0;fill-rule:nonzero;"/><path id="C0_0_0030be1c3a38" serif:id="C0_0_0030be1c3a" d="M101.759,185.382c0.796,0 1.559,-0.316 2.121,-0.878c0.563,-0.563 0.879,-1.326 0.879,-2.122c0,-0.795 -0.316,-1.558 -0.879,-2.121c-0.562,-0.562 -1.325,-0.879 -2.121,-0.879c-0.795,0 -1.559,0.317 -2.121,0.879c-0.563,0.563 -0.879,1.326 -0.879,2.121c0,0.796 0.316,1.559 0.879,2.122c0.562,0.562 1.326,0.878 2.121,0.878Z" style="fill:#55a868;fill-rule:nonzero;"/><path id="C0_0_0030be1c3a39" serif:id="C0_0_0030be1c3a" d="M101.759,162.712c0.796,0 1.559,-0.316 2.121,-0.879c0.563,-0.562 0.879,-1.325 0.879,-2.121c0,-0.796 -0.316,-1.559 -0.879,-2.121c-0.562,-0.563 -1.325,-0.879 -2.121,-0.879c-0.795,0 -1.559,0.316 -2.121,0.879c-0.563,0.562 -0.879,1.325 -0.879,2.121c0,0.796 0.316,1.559 0.879,2.121c0.562,0.563 1.326,0.879 2.121,0.879Z" style="fill:#55a868;fill-rule:nonzero;"/></g><g id="PathCollection_4"><path id="C1_0_9c2c63ec28" d="M162.632,181.48c0.796,0 1.559,-0.316 2.121,-0.878c0.563,-0.563 0.879,-1.326 0.879,-2.122c0,-0.795 -0.316,-1.559 -0.879,-2.121c-0.562,-0.563 -1.325,-0.879 -2.121,-0.879c-0.796,0 -1.559,0.316 -2.121,0.879c-0.563,0.562 -0.879,1.326 -0.879,2.121c0,0.796 0.316,1.559 0.879,2.122c0.562,0.562 1.325,0.878 2.121,0.878Z" style="fill:#4c72b0;fill-rule:nonzero;"/><path id="C1_0_9c2c63ec281" serif:id="C1_0_9c2c63ec28" d="M159.173,177.545c0.796,0 1.559,-0.316 2.122,-0.879c0.562,-0.562 0.878,-1.326 0.878,-2.121c0,-0.796 -0.316,-1.559 -0.878,-2.122c-0.563,-0.562 -1.326,-0.878 -2.122,-0.878c-0.795,0 -1.558,0.316 -2.121,0.878c-0.563,0.563 -0.879,1.326 -0.879,2.122c0,0.795 0.316,1.559 0.879,2.121c0.563,0.563 1.326,0.879 2.121,0.879Z" style="fill:#4c72b0;fill-rule:nonzero;"/><path id="C1_0_9c2c63ec282" serif:id="C1_0_9c2c63ec28" d="M163.134,174.528c0.795,0 1.558,-0.317 2.121,-0.879c0.563,-0.563 0.879,-1.326 0.879,-2.121c0,-0.796 -0.316,-1.559 -0.879,-2.122c-0.563,-0.562 -1.326,-0.878 -2.121,-0.878c-0.796,0 -1.559,0.316 -2.122,0.878c-0.562,0.563 -0.878,1.326 -0.878,2.122c0,0.795 0.316,1.558 0.878,2.121c0.563,0.562 1.326,0.879 2.122,0.879Z" style="fill:#55a868;fill-rule:nonzero;"/><path id="C1_0_9c2c63ec283" serif:id="C1_0_9c2c63ec28" d="M162.632,163.866c0.796,0 1.559,-0.316 2.121,-0.879c0.563,-0.562 0.879,-1.326 0.879,-2.121c0,-0.796 -0.316,-1.559 -0.879,-2.122c-0.562,-0.562 -1.325,-0.878 -2.121,-0.878c-0.796,0 -1.559,0.316 -2.121,0.878c-0.563,0.563 -0.879,1.326 -0.879,2.122c0,0.795 0.316,1.559 0.879,2.121c0.562,0.563 1.325,0.879 2.121,0.879Z" style="fill:#4c72b0;fill-rule:nonzero;"/><path id="C1_0_9c2c63ec284" serif:id="C1_0_9c2c63ec28" d="M160.517,158.543c0.796,0 1.559,-0.316 2.121,-0.879c0.563,-0.562 0.879,-1.325 0.879,-2.121c0,-0.795 -0.316,-1.559 -0.879,-2.121c-0.562,-0.563 -1.325,-0.879 -2.121,-0.879c-0.796,0 -1.559,0.316 -2.121,0.879c-0.563,0.562 -0.879,1.326 -0.879,2.121c0,0.796 0.316,1.559 0.879,2.121c0.562,0.563 1.325,0.879 2.121,0.879Z" style="fill:#55a868;fill-rule:nonzero;"/><path id="C1_0_9c2c63ec285" serif:id="C1_0_9c2c63ec28" d="M162.632,152.347c0.796,0 1.559,-0.316 2.121,-0.879c0.563,-0.563 0.879,-1.326 0.879,-2.121c0,-0.796 -0.316,-1.559 -0.879,-2.122c-0.562,-0.562 -1.325,-0.878 -2.121,-0.878c-0.796,0 -1.559,0.316 -2.121,0.878c-0.563,0.563 -0.879,1.326 -0.879,2.122c0,0.795 0.316,1.558 0.879,2.121c0.562,0.563 1.325,0.879 2.121,0.879Z" style="fill:#55a868;fill-rule:nonzero;"/><path id="C1_0_9c2c63ec286" serif:id="C1_0_9c2c63ec28" d="M158.846,148.967c0.796,0 1.559,-0.316 2.122,-0.879c0.562,-0.563 0.878,-1.326 0.878,-2.121c0,-0.796 -0.316,-1.559 -0.878,-2.122c-0.563,-0.562 -1.326,-0.878 -2.122,-0.878c-0.795,0 -1.558,0.316 -2.121,0.878c-0.563,0.563 -0.879,1.326 -0.879,2.122c0,0.795 0.316,1.558 0.879,2.121c0.563,0.563 1.326,0.879 2.121,0.879Z" style="fill:#4c72b0;fill-rule:nonzero;"/><path id="C1_0_9c2c63ec287" serif:id="C1_0_9c2c63ec28" d="M162.632,145.681c0.796,0 1.559,-0.316 2.121,-0.879c0.563,-0.562 0.879,-1.325 0.879,-2.121c0,-0.796 -0.316,-1.559 -0.879,-2.121c-0.562,-0.563 -1.325,-0.879 -2.121,-0.879c-0.796,0 -1.559,0.316 -2.121,0.879c-0.563,0.562 -0.879,1.325 -0.879,2.121c0,0.796 0.316,1.559 0.879,2.121c0.562,0.563 1.325,0.879 2.121,0.879Z" style="fill:#55a868;fill-rule:nonzero;"/><path id="C1_0_9c2c63ec288" serif:id="C1_0_9c2c63ec28" d="M166.866,143.39c0.796,0 1.559,-0.316 2.122,-0.879c0.562,-0.563 0.878,-1.326 0.878,-2.121c0,-0.796 -0.316,-1.559 -0.878,-2.122c-0.563,-0.562 -1.326,-0.878 -2.122,-0.878c-0.795,0 -1.558,0.316 -2.121,0.878c-0.562,0.563 -0.879,1.326 -0.879,2.122c0,0.795 0.317,1.558 0.879,2.121c0.563,0.563 1.326,0.879 2.121,0.879Z" style="fill:#55a868;fill-rule:nonzero;"/><path id="C1_0_9c2c63ec289" serif:id="C1_0_9c2c63ec28" d="M162.632,131.085c0.796,0 1.559,-0.316 2.121,-0.878c0.563,-0.563 0.879,-1.326 0.879,-2.122c0,-0.795 -0.316,-1.559 -0.879,-2.121c-0.562,-0.563 -1.325,-0.879 -2.121,-0.879c-0.796,0 -1.559,0.316 -2.121,0.879c-0.563,0.562 -0.879,1.326 -0.879,2.121c0,0.796 0.316,1.559 0.879,2.122c0.562,0.562 1.325,0.878 2.121,0.878Z" style="fill:#55a868;fill-rule:nonzero;"/><path id="C1_0_9c2c63ec2810" serif:id="C1_0_9c2c63ec28" d="M158.053,130.855c0.796,0 1.559,-0.316 2.122,-0.879c0.562,-0.562 0.878,-1.325 0.878,-2.121c0,-0.796 -0.316,-1.559 -0.878,-2.121c-0.563,-0.563 -1.326,-0.879 -2.122,-0.879c-0.795,0 -1.558,0.316 -2.121,0.879c-0.562,0.562 -0.879,1.325 -0.879,2.121c0,0.796 0.317,1.559 0.879,2.121c0.563,0.563 1.326,0.879 2.121,0.879Z" style="fill:#4c72b0;fill-rule:nonzero;"/><path id="C1_0_9c2c63ec2811" serif:id="C1_0_9c2c63ec28" d="M167.195,130.544c0.796,0 1.559,-0.316 2.121,-0.878c0.563,-0.563 0.879,-1.326 0.879,-2.122c0,-0.795 -0.316,-1.558 -0.879,-2.121c-0.562,-0.563 -1.325,-0.879 -2.121,-0.879c-0.796,0 -1.559,0.316 -2.121,0.879c-0.563,0.563 -0.879,1.326 -0.879,2.121c0,0.796 0.316,1.559 0.879,2.122c0.562,0.562 1.325,0.878 2.121,0.878Z" style="fill:#55a868;fill-rule:nonzero;"/><path id="C1_0_9c2c63ec2812" serif:id="C1_0_9c2c63ec28" d="M153.74,128.83c0.796,0 1.559,-0.316 2.122,-0.878c0.562,-0.563 0.878,-1.326 0.878,-2.122c0,-0.795 -0.316,-1.558 -0.878,-2.121c-0.563,-0.563 -1.326,-0.879 -2.122,-0.879c-0.795,0 -1.558,0.316 -2.121,0.879c-0.563,0.563 -0.879,1.326 -0.879,2.121c0,0.796 0.316,1.559 0.879,2.122c0.563,0.562 1.326,0.878 2.121,0.878Z" style="fill:#55a868;fill-rule:nonzero;"/><path id="C1_0_9c2c63ec2813" serif:id="C1_0_9c2c63ec28" d="M171.257,127.768c0.795,0 1.558,-0.316 2.121,-0.879c0.563,-0.563 0.879,-1.326 0.879,-2.121c0,-0.796 -0.316,-1.559 -0.879,-2.122c-0.563,-0.562 -1.326,-0.878 -2.121,-0.878c-0.796,0 -1.559,0.316 -2.122,0.878c-0.562,0.563 -0.878,1.326 -0.878,2.122c0,0.795 0.316,1.558 0.878,2.121c0.563,0.563 1.326,0.879 2.122,0.879Z" style="fill:#55a868;fill-rule:nonzero;"/><path id="C1_0_9c2c63ec2814" serif:id="C1_0_9c2c63ec28" d="M162.632,122.7c0.796,0 1.559,-0.316 2.121,-0.879c0.563,-0.562 0.879,-1.325 0.879,-2.121c0,-0.795 -0.316,-1.559 -0.879,-2.121c-0.562,-0.563 -1.325,-0.879 -2.121,-0.879c-0.796,0 -1.559,0.316 -2.121,0.879c-0.563,0.562 -0.879,1.326 -0.879,2.121c0,0.796 0.316,1.559 0.879,2.121c0.562,0.563 1.325,0.879 2.121,0.879Z" style="fill:#55a868;fill-rule:nonzero;"/><path id="C1_0_9c2c63ec2815" serif:id="C1_0_9c2c63ec28" d="M158.696,119.628c0.796,0 1.559,-0.317 2.122,-0.879c0.562,-0.563 0.878,-1.326 0.878,-2.121c0,-0.796 -0.316,-1.559 -0.878,-2.122c-0.563,-0.562 -1.326,-0.878 -2.122,-0.878c-0.795,0 -1.558,0.316 -2.121,0.878c-0.562,0.563 -0.879,1.326 -0.879,2.122c0,0.795 0.317,1.558 0.879,2.121c0.563,0.562 1.326,0.879 2.121,0.879Z" style="fill:#4c72b0;fill-rule:nonzero;"/><path id="C1_0_9c2c63ec2816" serif:id="C1_0_9c2c63ec28" d="M165.979,118.603c0.796,0 1.559,-0.316 2.121,-0.879c0.563,-0.562 0.879,-1.326 0.879,-2.121c0,-0.796 -0.316,-1.559 -0.879,-2.122c-0.562,-0.562 -1.325,-0.878 -2.121,-0.878c-0.796,0 -1.559,0.316 -2.121,0.878c-0.563,0.563 -0.879,1.326 -0.879,2.122c0,0.795 0.316,1.559 0.879,2.121c0.562,0.563 1.325,0.879 2.121,0.879Z" style="fill:#55a868;fill-rule:nonzero;"/><path id="C1_0_9c2c63ec2817" serif:id="C1_0_9c2c63ec28" d="M170.523,117.835c0.796,0 1.559,-0.316 2.121,-0.879c0.563,-0.562 0.879,-1.325 0.879,-2.121c0,-0.795 -0.316,-1.559 -0.879,-2.121c-0.562,-0.563 -1.325,-0.879 -2.121,-0.879c-0.795,0 -1.559,0.316 -2.121,0.879c-0.563,0.562 -0.879,1.326 -0.879,2.121c0,0.796 0.316,1.559 0.879,2.121c0.562,0.563 1.326,0.879 2.121,0.879Z" style="fill:#4c72b0;fill-rule:nonzero;"/><path id="C1_0_9c2c63ec2818" serif:id="C1_0_9c2c63ec28" d="M154.377,117.627c0.796,0 1.559,-0.316 2.121,-0.879c0.563,-0.562 0.879,-1.326 0.879,-2.121c0,-0.796 -0.316,-1.559 -0.879,-2.122c-0.562,-0.562 -1.325,-0.878 -2.121,-0.878c-0.796,0 -1.559,0.316 -2.121,0.878c-0.563,0.563 -0.879,1.326 -0.879,2.122c0,0.795 0.316,1.559 0.879,2.121c0.562,0.563 1.325,0.879 2.121,0.879Z" style="fill:#4c72b0;fill-rule:nonzero;"/><path id="C1_0_9c2c63ec2819" serif:id="C1_0_9c2c63ec28" d="M174.998,116.545c0.795,0 1.559,-0.316 2.121,-0.878c0.563,-0.563 0.879,-1.326 0.879,-2.122c0,-0.795 -0.316,-1.559 -0.879,-2.121c-0.562,-0.563 -1.326,-0.879 -2.121,-0.879c-0.796,0 -1.559,0.316 -2.121,0.879c-0.563,0.562 -0.879,1.326 -0.879,2.121c0,0.796 0.316,1.559 0.879,2.122c0.562,0.562 1.325,0.878 2.121,0.878Z" style="fill:#55a868;fill-rule:nonzero;"/><path id="C1_0_9c2c63ec2820" serif:id="C1_0_9c2c63ec28" d="M162.632,113.846c0.796,0 1.559,-0.316 2.121,-0.879c0.563,-0.562 0.879,-1.325 0.879,-2.121c0,-0.796 -0.316,-1.559 -0.879,-2.121c-0.562,-0.563 -1.325,-0.879 -2.121,-0.879c-0.796,0 -1.559,0.316 -2.121,0.879c-0.563,0.562 -0.879,1.325 -0.879,2.121c0,0.796 0.316,1.559 0.879,2.121c0.562,0.563 1.325,0.879 2.121,0.879Z" style="fill:#4c72b0;fill-rule:nonzero;"/><path id="C1_0_9c2c63ec2821" serif:id="C1_0_9c2c63ec28" d="M166.835,111.459c0.796,0 1.559,-0.316 2.122,-0.879c0.562,-0.563 0.878,-1.326 0.878,-2.121c0,-0.796 -0.316,-1.559 -0.878,-2.122c-0.563,-0.562 -1.326,-0.878 -2.122,-0.878c-0.795,0 -1.558,0.316 -2.121,0.878c-0.562,0.563 -0.879,1.326 -0.879,2.122c0,0.795 0.317,1.558 0.879,2.121c0.563,0.563 1.326,0.879 2.121,0.879Z" style="fill:#55a868;fill-rule:nonzero;"/><path id="C1_0_9c2c63ec2822" serif:id="C1_0_9c2c63ec28" d="M158.684,110.8c0.796,0 1.559,-0.316 2.122,-0.878c0.562,-0.563 0.878,-1.326 0.878,-2.122c0,-0.795 -0.316,-1.558 -0.878,-2.121c-0.563,-0.563 -1.326,-0.879 -2.122,-0.879c-0.795,0 -1.559,0.316 -2.121,0.879c-0.563,0.563 -0.879,1.326 -0.879,2.121c0,0.796 0.316,1.559 0.879,2.122c0.562,0.562 1.326,0.878 2.121,0.878Z" style="fill:#4c72b0;fill-rule:nonzero;"/><path id="C1_0_9c2c63ec2823" serif:id="C1_0_9c2c63ec28" d="M154.107,110.54c0.795,0 1.558,-0.317 2.121,-0.879c0.563,-0.563 0.879,-1.326 0.879,-2.121c0,-0.796 -0.316,-1.559 -0.879,-2.122c-0.563,-0.562 -1.326,-0.878 -2.121,-0.878c-0.796,0 -1.559,0.316 -2.122,0.878c-0.562,0.563 -0.878,1.326 -0.878,2.122c0,0.795 0.316,1.558 0.878,2.121c0.563,0.562 1.326,0.879 2.122,0.879Z" style="fill:#55a868;fill-rule:nonzero;"/><path id="C1_0_9c2c63ec2824" serif:id="C1_0_9c2c63ec28" d="M170.839,108.542c0.796,0 1.559,-0.317 2.122,-0.879c0.562,-0.563 0.878,-1.326 0.878,-2.121c0,-0.796 -0.316,-1.559 -0.878,-2.122c-0.563,-0.562 -1.326,-0.878 -2.122,-0.878c-0.795,0 -1.558,0.316 -2.121,0.878c-0.563,0.563 -0.879,1.326 -0.879,2.122c0,0.795 0.316,1.558 0.879,2.121c0.563,0.562 1.326,0.879 2.121,0.879Z" style="fill:#4c72b0;fill-rule:nonzero;"/><path id="C1_0_9c2c63ec2825" serif:id="C1_0_9c2c63ec28" d="M162.632,106.249c0.796,0 1.559,-0.316 2.121,-0.879c0.563,-0.562 0.879,-1.326 0.879,-2.121c0,-0.796 -0.316,-1.559 -0.879,-2.122c-0.562,-0.562 -1.325,-0.878 -2.121,-0.878c-0.796,0 -1.559,0.316 -2.121,0.878c-0.563,0.563 -0.879,1.326 -0.879,2.122c0,0.795 0.316,1.559 0.879,2.121c0.562,0.563 1.325,0.879 2.121,0.879Z" style="fill:#4c72b0;fill-rule:nonzero;"/><path id="C1_0_9c2c63ec2826" serif:id="C1_0_9c2c63ec28" d="M167.022,105.223c0.796,0 1.559,-0.316 2.121,-0.879c0.563,-0.562 0.879,-1.325 0.879,-2.121c0,-0.795 -0.316,-1.559 -0.879,-2.121c-0.562,-0.563 -1.325,-0.879 -2.121,-0.879c-0.796,0 -1.559,0.316 -2.121,0.879c-0.563,0.562 -0.879,1.326 -0.879,2.121c0,0.796 0.316,1.559 0.879,2.121c0.562,0.563 1.325,0.879 2.121,0.879Z" style="fill:#4c72b0;fill-rule:nonzero;"/><path id="C1_0_9c2c63ec2827" serif:id="C1_0_9c2c63ec28" d="M158.408,103.923c0.796,0 1.559,-0.316 2.122,-0.878c0.562,-0.563 0.878,-1.326 0.878,-2.122c0,-0.795 -0.316,-1.559 -0.878,-2.121c-0.563,-0.563 -1.326,-0.879 -2.122,-0.879c-0.795,0 -1.558,0.316 -2.121,0.879c-0.563,0.562 -0.879,1.326 -0.879,2.121c0,0.796 0.316,1.559 0.879,2.122c0.563,0.562 1.326,0.878 2.121,0.878Z" style="fill:#4c72b0;fill-rule:nonzero;"/><path id="C1_0_9c2c63ec2828" serif:id="C1_0_9c2c63ec28" d="M162.632,89.598c0.796,0 1.559,-0.316 2.121,-0.878c0.563,-0.563 0.879,-1.326 0.879,-2.122c0,-0.795 -0.316,-1.558 -0.879,-2.121c-0.562,-0.562 -1.325,-0.879 -2.121,-0.879c-0.796,0 -1.559,0.317 -2.121,0.879c-0.563,0.563 -0.879,1.326 -0.879,2.121c0,0.796 0.316,1.559 0.879,2.122c0.562,0.562 1.325,0.878 2.121,0.878Z" style="fill:#4c72b0;fill-rule:nonzero;"/><path id="C1_0_9c2c63ec2829" serif:id="C1_0_9c2c63ec28" d="M158.088,88.83c0.795,0 1.559,-0.316 2.121,-0.879c0.563,-0.562 0.879,-1.325 0.879,-2.121c0,-0.796 -0.316,-1.559 -0.879,-2.121c-0.562,-0.563 -1.326,-0.879 -2.121,-0.879c-0.796,0 -1.559,0.316 -2.121,0.879c-0.563,0.562 -0.879,1.325 -0.879,2.121c0,0.796 0.316,1.559 0.879,2.121c0.562,0.563 1.325,0.879 2.121,0.879Z" style="fill:#4c72b0;fill-rule:nonzero;"/><path id="C1_0_9c2c63ec2830" serif:id="C1_0_9c2c63ec28" d="M160.887,84.08c0.796,0 1.559,-0.316 2.121,-0.879c0.563,-0.562 0.879,-1.325 0.879,-2.121c0,-0.796 -0.316,-1.559 -0.879,-2.121c-0.562,-0.563 -1.325,-0.879 -2.121,-0.879c-0.795,0 -1.559,0.316 -2.121,0.879c-0.563,0.562 -0.879,1.325 -0.879,2.121c0,0.796 0.316,1.559 0.879,2.121c0.562,0.563 1.326,0.879 2.121,0.879Z" style="fill:#4c72b0;fill-rule:nonzero;"/><path id="C1_0_9c2c63ec2831" serif:id="C1_0_9c2c63ec28" d="M165.383,82.923c0.796,0 1.559,-0.316 2.121,-0.878c0.563,-0.563 0.879,-1.326 0.879,-2.122c0,-0.795 -0.316,-1.558 -0.879,-2.121c-0.562,-0.562 -1.325,-0.879 -2.121,-0.879c-0.796,0 -1.559,0.317 -2.121,0.879c-0.563,0.563 -0.879,1.326 -0.879,2.121c0,0.796 0.316,1.559 0.879,2.122c0.562,0.562 1.325,0.878 2.121,0.878Z" style="fill:#4c72b0;fill-rule:nonzero;"/><path id="C1_0_9c2c63ec2832" serif:id="C1_0_9c2c63ec28" d="M156.578,82.04c0.796,0 1.559,-0.316 2.122,-0.879c0.562,-0.562 0.878,-1.325 0.878,-2.121c0,-0.796 -0.316,-1.559 -0.878,-2.121c-0.563,-0.563 -1.326,-0.879 -2.122,-0.879c-0.795,0 -1.558,0.316 -2.121,0.879c-0.563,0.562 -0.879,1.325 -0.879,2.121c0,0.796 0.316,1.559 0.879,2.121c0.563,0.563 1.326,0.879 2.121,0.879Z" style="fill:#55a868;fill-rule:nonzero;"/><path id="C1_0_9c2c63ec2833" serif:id="C1_0_9c2c63ec28" d="M169.654,80.75c0.795,0 1.558,-0.316 2.121,-0.879c0.562,-0.563 0.879,-1.326 0.879,-2.121c0,-0.796 -0.317,-1.559 -0.879,-2.122c-0.563,-0.562 -1.326,-0.878 -2.121,-0.878c-0.796,0 -1.559,0.316 -2.122,0.878c-0.562,0.563 -0.878,1.326 -0.878,2.122c0,0.795 0.316,1.558 0.878,2.121c0.563,0.563 1.326,0.879 2.122,0.879Z" style="fill:#55a868;fill-rule:nonzero;"/><path id="C1_0_9c2c63ec2834" serif:id="C1_0_9c2c63ec28" d="M152.505,79.293c0.795,0 1.559,-0.316 2.121,-0.878c0.563,-0.563 0.879,-1.326 0.879,-2.122c0,-0.795 -0.316,-1.559 -0.879,-2.121c-0.562,-0.563 -1.326,-0.879 -2.121,-0.879c-0.796,0 -1.559,0.316 -2.122,0.879c-0.562,0.562 -0.878,1.326 -0.878,2.121c0,0.796 0.316,1.559 0.878,2.122c0.563,0.562 1.326,0.878 2.122,0.878Z" style="fill:#55a868;fill-rule:nonzero;"/><path id="C1_0_9c2c63ec2835" serif:id="C1_0_9c2c63ec28" d="M162.632,75.981c0.796,0 1.559,-0.316 2.121,-0.878c0.563,-0.563 0.879,-1.326 0.879,-2.122c0,-0.795 -0.316,-1.558 -0.879,-2.121c-0.562,-0.562 -1.325,-0.879 -2.121,-0.879c-0.796,0 -1.559,0.317 -2.121,0.879c-0.563,0.563 -0.879,1.326 -0.879,2.121c0,0.796 0.316,1.559 0.879,2.122c0.562,0.562 1.325,0.878 2.121,0.878Z" style="fill:#55a868;fill-rule:nonzero;"/><path id="C1_0_9c2c63ec2836" serif:id="C1_0_9c2c63ec28" d="M166.748,73.347c0.796,0 1.559,-0.316 2.122,-0.879c0.562,-0.562 0.878,-1.325 0.878,-2.121c0,-0.796 -0.316,-1.559 -0.878,-2.121c-0.563,-0.563 -1.326,-0.879 -2.122,-0.879c-0.795,0 -1.558,0.316 -2.121,0.879c-0.562,0.562 -0.879,1.325 -0.879,2.121c0,0.796 0.317,1.559 0.879,2.121c0.563,0.563 1.326,0.879 2.121,0.879Z" style="fill:#4c72b0;fill-rule:nonzero;"/><path id="C1_0_9c2c63ec2837" serif:id="C1_0_9c2c63ec28" d="M162.632,66.045c0.796,0 1.559,-0.316 2.121,-0.878c0.563,-0.563 0.879,-1.326 0.879,-2.122c0,-0.795 -0.316,-1.558 -0.879,-2.121c-0.562,-0.562 -1.325,-0.879 -2.121,-0.879c-0.796,0 -1.559,0.317 -2.121,0.879c-0.563,0.563 -0.879,1.326 -0.879,2.121c0,0.796 0.316,1.559 0.879,2.122c0.562,0.562 1.325,0.878 2.121,0.878Z" style="fill:#55a868;fill-rule:nonzero;"/><path id="C1_0_9c2c63ec2838" serif:id="C1_0_9c2c63ec28" d="M158.138,64.875c0.796,0 1.559,-0.316 2.121,-0.879c0.563,-0.563 0.879,-1.326 0.879,-2.121c0,-0.796 -0.316,-1.559 -0.879,-2.122c-0.562,-0.562 -1.325,-0.878 -2.121,-0.878c-0.795,0 -1.559,0.316 -2.121,0.878c-0.563,0.563 -0.879,1.326 -0.879,2.122c0,0.795 0.316,1.558 0.879,2.121c0.562,0.563 1.326,0.879 2.121,0.879Z" style="fill:#55a868;fill-rule:nonzero;"/><path id="C1_0_9c2c63ec2839" serif:id="C1_0_9c2c63ec28" d="M162.632,57.005c0.796,0 1.559,-0.316 2.121,-0.879c0.563,-0.562 0.879,-1.325 0.879,-2.121c0,-0.796 -0.316,-1.559 -0.879,-2.121c-0.562,-0.563 -1.325,-0.879 -2.121,-0.879c-0.796,0 -1.559,0.316 -2.121,0.879c-0.563,0.562 -0.879,1.325 -0.879,2.121c0,0.796 0.316,1.559 0.879,2.121c0.562,0.563 1.325,0.879 2.121,0.879Z" style="fill:#4c72b0;fill-rule:nonzero;"/></g><g id="legend_1"><path id="m6ed8be5d0c" d="M268.353,44.526c1.13,0 2.213,-0.449 3.012,-1.248c0.799,-0.799 1.248,-1.883 1.248,-3.012c0,-1.13 -0.449,-2.214 -1.248,-3.013c-0.799,-0.799 -1.882,-1.248 -3.012,-1.248c-1.13,0 -2.214,0.449 -3.013,1.248c-0.799,0.799 -1.247,1.883 -1.247,3.013c0,1.129 0.448,2.213 1.247,3.012c0.799,0.799 1.883,1.248 3.013,1.248Z" style="fill:#55a868;fill-rule:nonzero;stroke:#55a868;stroke-width:0.48px;"/><text id="text_9" x="304.353px" y="45.516px" style="font-family:'ArialMT', 'Arial', sans-serif;font-size:20px;fill:#262626;">Female</text><path id="mdb1ee5555b" d="M268.353,72.817c1.13,0 2.213,-0.449 3.012,-1.248c0.799,-0.799 1.248,-1.883 1.248,-3.013c0,-1.13 -0.449,-2.213 -1.248,-3.012c-0.799,-0.799 -1.882,-1.248 -3.012,-1.248c-1.13,0 -2.214,0.449 -3.013,1.248c-0.799,0.799 -1.247,1.882 -1.247,3.012c0,1.13 0.448,2.214 1.247,3.013c0.799,0.799 1.883,1.248 3.013,1.248Z" style="fill:#4c72b0;fill-rule:nonzero;stroke:#4c72b0;stroke-width:0.48px;"/><text id="text_10" x="304.353px" y="73.806px" style="font-family:'ArialMT', 'Arial', sans-serif;font-size:20px;fill:#262626;">Male</text></g></g><g id="axes_2"><g id="matplotlib.axis_3"><g id="ytick_6"><path id="m1f441a202a" d="M238.723,230.148l6,0" style="fill:#262626;fill-rule:nonzero;stroke:#262626;stroke-width:1.6px;"/><text id="text_11" x="255.923px" y="237.305px" style="font-family:'ArialMT', 'Arial', sans-serif;font-size:20px;fill:#262626;">0</text></g><g id="ytick_7"><path id="m1f441a202a1" serif:id="m1f441a202a" d="M238.723,166.498l6,0" style="fill:#262626;fill-rule:nonzero;stroke:#262626;stroke-width:1.6px;"/><text id="text_12" x="255.923px" y="173.655px" style="font-family:'ArialMT', 'Arial', sans-serif;font-size:20px;fill:#262626;">2</text></g><g id="ytick_8"><path id="m1f441a202a2" serif:id="m1f441a202a" d="M238.723,102.847l6,0" style="fill:#262626;fill-rule:nonzero;stroke:#262626;stroke-width:1.6px;"/><text id="text_13" x="255.923px" y="110.005px" style="font-family:'ArialMT', 'Arial', sans-serif;font-size:20px;fill:#262626;">4</text></g></g><path id="m3e556b128b" d="M208.365,135.689l-0.077,0l0,-0.471l0,-0.472l0,-0.472l0,-0.471l0,-0.472l0,-0.472l0,-0.471l0,-0.472l0,-0.472l0,-0.472l0,-0.471l0,-0.472l0,-0.472l0,-0.471l0,-0.472l0,-0.472l0,-0.471l0,-0.472l0,-0.472l0,-0.471l0,-0.472l0,-0.472l0,-0.472l0,-0.471l0,-0.472l0,-0.472l0,-0.471l0,-0.472l0,-0.472l0,-0.471l0,-0.472l0,-0.472l0,-0.471l0,-0.472l0,-0.472l0,-0.472l0,-0.471l0,-0.472l0,-0.472l0,-0.471l0,-0.472l0,-0.472l0,-0.471l0,-0.472l0,-0.472l0,-0.472l0,-0.471l0,-0.472l0,-0.472l0,-0.471l0,-0.472l0,-0.472l0,-0.471l0,-0.472l0,-0.472l0,-0.471l0,-0.472l0,-0.472l0,-0.472l0,-0.471l0,-0.472l0,-0.472l0,-0.471l0,-0.472l0,-0.472l0,-0.471l0,-0.472l0,-0.472l0,-0.471l0,-0.472l0,-0.472l0,-0.472l0,-0.471l0,-0.472l0,-0.472l0,-0.471l0,-0.472l0,-0.472l0,-0.471l0,-0.472l0,-0.472l0,-0.471l0,-0.472l0,-0.472l0,-0.472l0,-0.471l0,-0.472l0,-0.472l0,-0.471l0,-0.472l0,-0.472l0,-0.471l0,-0.472l0,-0.472l0,-0.471l0,-0.472l0,-0.472l0,-0.472l0,-0.471l0.091,0l0.025,0.471l0.023,0.472l0.02,0.472l0.021,0.472l0.026,0.471l0.04,0.472l0.061,0.472l0.09,0.471l0.12,0.472l0.142,0.472l0.147,0.471l0.135,0.472l0.11,0.472l0.089,0.471l0.084,0.472l0.103,0.472l0.139,0.472l0.184,0.471l0.228,0.472l0.27,0.472l0.311,0.471l0.355,0.472l0.398,0.472l0.433,0.471l0.458,0.472l0.473,0.472l0.491,0.471l0.518,0.472l0.554,0.472l0.59,0.472l0.617,0.471l0.631,0.472l0.645,0.472l0.669,0.471l0.701,0.472l0.722,0.472l0.712,0.471l0.66,0.472l0.582,0.472l0.505,0.471l0.452,0.472l0.42,0.472l0.394,0.472l0.346,0.471l0.26,0.472l0.145,0.472l0.027,0.471l-0.068,0.472l-0.122,0.472l-0.146,0.471l-0.155,0.472l-0.171,0.472l-0.206,0.471l-0.264,0.472l-0.336,0.472l-0.416,0.472l-0.497,0.471l-0.565,0.472l-0.613,0.472l-0.63,0.471l-0.613,0.472l-0.567,0.472l-0.514,0.471l-0.478,0.472l-0.473,0.472l-0.495,0.472l-0.523,0.471l-0.534,0.472l-0.521,0.472l-0.493,0.471l-0.466,0.472l-0.455,0.472l-0.457,0.471l-0.46,0.472l-0.45,0.472l-0.419,0.471l-0.374,0.472l-0.326,0.472l-0.289,0.472l-0.266,0.471l-0.252,0.472l-0.24,0.472l-0.224,0.471l-0.2,0.472l-0.17,0.472l-0.137,0.471l-0.103,0.472l-0.075,0.472l-0.053,0.471l-0.042,0.472l-0.038,0.472l-0.038,0.472l-0.04,0.471l-0.041,0.472l-0.036,0.472l-0.03,0.471l-0.023,0.472l-0.019,0.472l-0.017,0.471Z" style="fill-opacity:0.298039;fill-rule:nonzero;stroke:#000;stroke-opacity:0.298039;stroke-width:0.48px;"/><path id="LineCollection_1" d="M101.759,230.148l136.964,0" style="fill:none;stroke:#000;stroke-width:0.75px;"/><path id="LineCollection_2" d="M162.632,112.093l76.091,0" style="fill:none;stroke:#000;stroke-width:0.75px;"/><path id="m81cf79c97c" d="M208.286,117.093c1.326,0 2.598,-0.527 3.536,-1.465c0.938,-0.937 1.464,-2.209 1.464,-3.535c0,-1.326 -0.526,-2.598 -1.464,-3.536c-0.938,-0.937 -2.21,-1.464 -3.536,-1.464c-1.326,0 -2.597,0.527 -3.535,1.464c-0.938,0.938 -1.465,2.21 -1.465,3.536c0,1.326 0.527,2.598 1.465,3.535c0.938,0.938 2.209,1.465 3.535,1.465Z" style="fill-rule:nonzero;"/><path id="line2d_12" d="M208.286,126.107l0,-27.55" style="fill:none;stroke:#000;stroke-width:2px;stroke-linecap:round;"/><path id="patch_5" d="M238.723,230.148l0,-127.301" style="fill:none;stroke:#262626;stroke-width:1.25px;stroke-linecap:square;"/></g></g></svg>