<?xml version="1.0" encoding="utf-8" standalone="no"?>
<!DOCTYPE svg PUBLIC "-//W3C//DTD SVG 1.1//EN"
  "http://www.w3.org/Graphics/SVG/1.1/DTD/svg11.dtd">
<!-- Created with matplotlib (http://matplotlib.org/) -->
<svg height="406pt" version="1.1" viewBox="0 0 691 406" width="691pt" xmlns="http://www.w3.org/2000/svg" xmlns:xlink="http://www.w3.org/1999/xlink">
 <defs>
  <style type="text/css">
*{stroke-linecap:butt;stroke-linejoin:round;}
  </style>
 </defs>
 <g id="figure_1">
  <g id="patch_1">
   <path d="M 0 406.61164 
L 691.334566 406.61164 
L 691.334566 0 
L 0 0 
z
" style="fill:none;"/>
  </g>
  <g id="axes_1">
   <g id="patch_2">
    <path d="M 96.490191 132.257812 
L 245.290191 132.257812 
L 245.290191 14.357812 
L 96.490191 14.357812 
z
" style="fill:none;"/>
   </g>
   <g id="matplotlib.axis_1">
    <g id="ytick_1">
     <g id="line2d_1">
      <defs>
       <path d="M 0 0 
L -6 0 
" id="mc7feed96d9" style="stroke:#262626;stroke-width:1.6;"/>
      </defs>
      <g>
       <use style="fill:#262626;stroke:#262626;stroke-width:1.6;" x="96.490191" xlink:href="#mc7feed96d9" y="132.257812"/>
      </g>
     </g>
     <g id="text_1">
      <text style="fill:#262626;font-family:Arial;font-size:20px;font-style:normal;font-weight:normal;text-anchor:end;" transform="rotate(-0, 79.290191, 139.415625)" x="79.290191" y="139.415625">−4</text>
     </g>
    </g>
    <g id="ytick_2">
     <g id="line2d_2">
      <g>
       <use style="fill:#262626;stroke:#262626;stroke-width:1.6;" x="96.490191" xlink:href="#mc7feed96d9" y="108.677812"/>
      </g>
     </g>
     <g id="text_2">
      <text style="fill:#262626;font-family:Arial;font-size:20px;font-style:normal;font-weight:normal;text-anchor:end;" transform="rotate(-0, 79.290191, 115.835625)" x="79.290191" y="115.835625">−2</text>
     </g>
    </g>
    <g id="ytick_3">
     <g id="line2d_3">
      <g>
       <use style="fill:#262626;stroke:#262626;stroke-width:1.6;" x="96.490191" xlink:href="#mc7feed96d9" y="85.097812"/>
      </g>
     </g>
     <g id="text_3">
      <text style="fill:#262626;font-family:Arial;font-size:20px;font-style:normal;font-weight:normal;text-anchor:end;" transform="rotate(-0, 79.290191, 92.255625)" x="79.290191" y="92.255625">0</text>
     </g>
    </g>
    <g id="ytick_4">
     <g id="line2d_4">
      <g>
       <use style="fill:#262626;stroke:#262626;stroke-width:1.6;" x="96.490191" xlink:href="#mc7feed96d9" y="61.517812"/>
      </g>
     </g>
     <g id="text_4">
      <text style="fill:#262626;font-family:Arial;font-size:20px;font-style:normal;font-weight:normal;text-anchor:end;" transform="rotate(-0, 79.290191, 68.675625)" x="79.290191" y="68.675625">2</text>
     </g>
    </g>
    <g id="ytick_5">
     <g id="line2d_5">
      <g>
       <use style="fill:#262626;stroke:#262626;stroke-width:1.6;" x="96.490191" xlink:href="#mc7feed96d9" y="37.937812"/>
      </g>
     </g>
     <g id="text_5">
      <text style="fill:#262626;font-family:Arial;font-size:20px;font-style:normal;font-weight:normal;text-anchor:end;" transform="rotate(-0, 79.290191, 45.095625)" x="79.290191" y="45.095625">4</text>
     </g>
    </g>
    <g id="ytick_6">
     <g id="line2d_6">
      <g>
       <use style="fill:#262626;stroke:#262626;stroke-width:1.6;" x="96.490191" xlink:href="#mc7feed96d9" y="14.357812"/>
      </g>
     </g>
     <g id="text_6">
      <text style="fill:#262626;font-family:Arial;font-size:20px;font-style:normal;font-weight:normal;text-anchor:end;" transform="rotate(-0, 79.290191, 21.515625)" x="79.290191" y="21.515625">6</text>
     </g>
    </g>
    <g id="text_7">
     <text style="fill:#262626;font-family:Arial;font-size:22px;font-style:normal;font-weight:normal;text-anchor:middle;" transform="rotate(-90, 48.114566, 73.307812)" x="48.114566" y="73.307812">value</text>
    </g>
   </g>
   <g id="line2d_7">
    <path clip-path="url(#p9e5c3f459f)" d="M 103.253827 64.471741 
L 211.472009 80.70031 
" style="fill:none;stroke:#4c72b0;stroke-linecap:round;stroke-width:0.75;"/>
   </g>
   <g id="line2d_8">
    <path clip-path="url(#p9e5c3f459f)" d="M 103.253827 88.470613 
L 211.472009 94.310824 
" style="fill:none;stroke:#4c72b0;stroke-linecap:round;stroke-width:0.75;"/>
   </g>
   <g id="line2d_9">
    <path clip-path="url(#p9e5c3f459f)" d="M 103.253827 90.810835 
L 211.472009 83.418451 
" style="fill:none;stroke:#4c72b0;stroke-linecap:round;stroke-width:0.75;"/>
   </g>
   <g id="line2d_10">
    <path clip-path="url(#p9e5c3f459f)" d="M 103.253827 116.380438 
L 211.472009 106.328486 
" style="fill:none;stroke:#4c72b0;stroke-linecap:round;stroke-width:0.75;"/>
   </g>
   <g id="line2d_11">
    <path clip-path="url(#p9e5c3f459f)" d="M 103.253827 85.195488 
L 211.472009 77.397258 
" style="fill:none;stroke:#4c72b0;stroke-linecap:round;stroke-width:0.75;"/>
   </g>
   <g id="line2d_12">
    <path clip-path="url(#p9e5c3f459f)" d="M 103.253827 88.866266 
L 211.472009 104.371177 
" style="fill:none;stroke:#4c72b0;stroke-linecap:round;stroke-width:0.75;"/>
   </g>
   <g id="line2d_13">
    <path clip-path="url(#p9e5c3f459f)" d="M 103.253827 91.424673 
L 211.472009 86.216364 
" style="fill:none;stroke:#4c72b0;stroke-linecap:round;stroke-width:0.75;"/>
   </g>
   <g id="line2d_14">
    <path clip-path="url(#p9e5c3f459f)" d="M 103.253827 81.379215 
L 211.472009 87.694297 
" style="fill:none;stroke:#4c72b0;stroke-linecap:round;stroke-width:0.75;"/>
   </g>
   <g id="line2d_15">
    <path clip-path="url(#p9e5c3f459f)" d="M 103.253827 80.133625 
L 211.472009 95.791129 
" style="fill:none;stroke:#4c72b0;stroke-linecap:round;stroke-width:0.75;"/>
   </g>
   <g id="line2d_16">
    <path clip-path="url(#p9e5c3f459f)" d="M 103.253827 97.661272 
L 211.472009 52.418062 
" style="fill:none;stroke:#4c72b0;stroke-linecap:round;stroke-width:0.75;"/>
   </g>
   <g id="line2d_17">
    <path clip-path="url(#p9e5c3f459f)" d="M 103.253827 95.546578 
L 211.472009 93.325145 
" style="fill:none;stroke:#4c72b0;stroke-linecap:round;stroke-width:0.75;"/>
   </g>
   <g id="line2d_18">
    <path clip-path="url(#p9e5c3f459f)" d="M 103.253827 90.70671 
L 211.472009 80.706545 
" style="fill:none;stroke:#4c72b0;stroke-linecap:round;stroke-width:0.75;"/>
   </g>
   <g id="line2d_19">
    <path clip-path="url(#p9e5c3f459f)" d="M 103.253827 76.966458 
L 211.472009 73.35549 
" style="fill:none;stroke:#4c72b0;stroke-linecap:round;stroke-width:0.75;"/>
   </g>
   <g id="line2d_20">
    <path clip-path="url(#p9e5c3f459f)" d="M 103.253827 78.481357 
L 211.472009 100.603653 
" style="fill:none;stroke:#4c72b0;stroke-linecap:round;stroke-width:0.75;"/>
   </g>
   <g id="line2d_21">
    <path clip-path="url(#p9e5c3f459f)" d="M 103.253827 100.490229 
L 211.472009 70.450431 
" style="fill:none;stroke:#4c72b0;stroke-linecap:round;stroke-width:0.75;"/>
   </g>
   <g id="line2d_22">
    <path clip-path="url(#p9e5c3f459f)" d="M 103.253827 98.296426 
L 211.472009 87.716958 
" style="fill:none;stroke:#4c72b0;stroke-linecap:round;stroke-width:0.75;"/>
   </g>
   <g id="line2d_23">
    <path clip-path="url(#p9e5c3f459f)" d="M 103.253827 76.4105 
L 211.472009 74.339255 
" style="fill:none;stroke:#4c72b0;stroke-linecap:round;stroke-width:0.75;"/>
   </g>
   <g id="line2d_24">
    <path clip-path="url(#p9e5c3f459f)" d="M 103.253827 66.532877 
L 211.472009 97.05133 
" style="fill:none;stroke:#4c72b0;stroke-linecap:round;stroke-width:0.75;"/>
   </g>
   <g id="line2d_25">
    <path clip-path="url(#p9e5c3f459f)" d="M 103.253827 85.464188 
L 211.472009 98.414974 
" style="fill:none;stroke:#4c72b0;stroke-linecap:round;stroke-width:0.75;"/>
   </g>
   <g id="line2d_26">
    <path clip-path="url(#p9e5c3f459f)" d="M 103.253827 93.155648 
L 211.472009 72.013312 
" style="fill:none;stroke:#4c72b0;stroke-linecap:round;stroke-width:0.75;"/>
   </g>
   <g id="line2d_27">
    <path clip-path="url(#p9e5c3f459f)" d="M 103.253827 72.180338 
L 211.472009 80.359738 
" style="fill:none;stroke:#55a868;stroke-linecap:round;stroke-width:0.75;"/>
   </g>
   <g id="line2d_28">
    <path clip-path="url(#p9e5c3f459f)" d="M 103.253827 88.747721 
L 211.472009 84.639816 
" style="fill:none;stroke:#55a868;stroke-linecap:round;stroke-width:0.75;"/>
   </g>
   <g id="line2d_29">
    <path clip-path="url(#p9e5c3f459f)" d="M 103.253827 76.541194 
L 211.472009 78.722239 
" style="fill:none;stroke:#55a868;stroke-linecap:round;stroke-width:0.75;"/>
   </g>
   <g id="line2d_30">
    <path clip-path="url(#p9e5c3f459f)" d="M 103.253827 66.834258 
L 211.472009 80.05956 
" style="fill:none;stroke:#55a868;stroke-linecap:round;stroke-width:0.75;"/>
   </g>
   <g id="line2d_31">
    <path clip-path="url(#p9e5c3f459f)" d="M 103.253827 77.669171 
L 211.472009 99.88672 
" style="fill:none;stroke:#55a868;stroke-linecap:round;stroke-width:0.75;"/>
   </g>
   <g id="line2d_32">
    <path clip-path="url(#p9e5c3f459f)" d="M 103.253827 84.231327 
L 211.472009 112.372014 
" style="fill:none;stroke:#55a868;stroke-linecap:round;stroke-width:0.75;"/>
   </g>
   <g id="line2d_33">
    <path clip-path="url(#p9e5c3f459f)" d="M 103.253827 76.464333 
L 211.472009 106.104722 
" style="fill:none;stroke:#55a868;stroke-linecap:round;stroke-width:0.75;"/>
   </g>
   <g id="line2d_34">
    <path clip-path="url(#p9e5c3f459f)" d="M 103.253827 92.673776 
L 211.472009 107.358444 
" style="fill:none;stroke:#55a868;stroke-linecap:round;stroke-width:0.75;"/>
   </g>
   <g id="line2d_35">
    <path clip-path="url(#p9e5c3f459f)" d="M 103.253827 87.197531 
L 211.472009 112.43334 
" style="fill:none;stroke:#55a868;stroke-linecap:round;stroke-width:0.75;"/>
   </g>
   <g id="line2d_36">
    <path clip-path="url(#p9e5c3f459f)" d="M 103.253827 91.864737 
L 211.472009 93.910021 
" style="fill:none;stroke:#55a868;stroke-linecap:round;stroke-width:0.75;"/>
   </g>
   <g id="line2d_37">
    <path clip-path="url(#p9e5c3f459f)" d="M 103.253827 87.507397 
L 211.472009 92.506699 
" style="fill:none;stroke:#55a868;stroke-linecap:round;stroke-width:0.75;"/>
   </g>
   <g id="line2d_38">
    <path clip-path="url(#p9e5c3f459f)" d="M 103.253827 90.83359 
L 211.472009 86.739089 
" style="fill:none;stroke:#55a868;stroke-linecap:round;stroke-width:0.75;"/>
   </g>
   <g id="line2d_39">
    <path clip-path="url(#p9e5c3f459f)" d="M 103.253827 87.288104 
L 211.472009 83.742246 
" style="fill:none;stroke:#55a868;stroke-linecap:round;stroke-width:0.75;"/>
   </g>
   <g id="line2d_40">
    <path clip-path="url(#p9e5c3f459f)" d="M 103.253827 89.584337 
L 211.472009 90.808403 
" style="fill:none;stroke:#55a868;stroke-linecap:round;stroke-width:0.75;"/>
   </g>
   <g id="line2d_41">
    <path clip-path="url(#p9e5c3f459f)" d="M 103.253827 84.048766 
L 211.472009 89.270342 
" style="fill:none;stroke:#55a868;stroke-linecap:round;stroke-width:0.75;"/>
   </g>
   <g id="line2d_42">
    <path clip-path="url(#p9e5c3f459f)" d="M 103.253827 84.347124 
L 211.472009 85.413171 
" style="fill:none;stroke:#55a868;stroke-linecap:round;stroke-width:0.75;"/>
   </g>
   <g id="line2d_43">
    <path clip-path="url(#p9e5c3f459f)" d="M 103.253827 81.60388 
L 211.472009 98.033846 
" style="fill:none;stroke:#55a868;stroke-linecap:round;stroke-width:0.75;"/>
   </g>
   <g id="line2d_44">
    <path clip-path="url(#p9e5c3f459f)" d="M 103.253827 68.559141 
L 211.472009 94.693178 
" style="fill:none;stroke:#55a868;stroke-linecap:round;stroke-width:0.75;"/>
   </g>
   <g id="line2d_45">
    <path clip-path="url(#p9e5c3f459f)" d="M 103.253827 103.335322 
L 211.472009 85.859254 
" style="fill:none;stroke:#55a868;stroke-linecap:round;stroke-width:0.75;"/>
   </g>
   <g id="line2d_46">
    <path clip-path="url(#p9e5c3f459f)" d="M 103.253827 69.822469 
L 211.472009 94.269788 
" style="fill:none;stroke:#55a868;stroke-linecap:round;stroke-width:0.75;"/>
   </g>
   <g id="patch_3">
    <path d="M 96.490191 132.257812 
L 96.490191 14.357812 
" style="fill:none;stroke:#262626;stroke-linecap:square;stroke-linejoin:miter;stroke-width:1.25;"/>
   </g>
  </g>
  <g id="axes_2">
   <g id="patch_4">
    <path d="M 245.290191 132.257812 
L 394.090191 132.257812 
L 394.090191 14.357812 
L 245.290191 14.357812 
z
" style="fill:none;"/>
   </g>
   <g id="line2d_47">
    <path clip-path="url(#pb5b5280360)" d="M 252.053827 69.398408 
L 360.272009 100.938401 
" style="fill:none;stroke:#4c72b0;stroke-linecap:round;stroke-width:0.75;"/>
   </g>
   <g id="line2d_48">
    <path clip-path="url(#pb5b5280360)" d="M 252.053827 76.664673 
L 360.272009 92.487629 
" style="fill:none;stroke:#4c72b0;stroke-linecap:round;stroke-width:0.75;"/>
   </g>
   <g id="line2d_49">
    <path clip-path="url(#pb5b5280360)" d="M 252.053827 103.318082 
L 360.272009 98.90979 
" style="fill:none;stroke:#4c72b0;stroke-linecap:round;stroke-width:0.75;"/>
   </g>
   <g id="line2d_50">
    <path clip-path="url(#pb5b5280360)" d="M 252.053827 85.196658 
L 360.272009 103.395523 
" style="fill:none;stroke:#4c72b0;stroke-linecap:round;stroke-width:0.75;"/>
   </g>
   <g id="line2d_51">
    <path clip-path="url(#pb5b5280360)" d="M 252.053827 77.772261 
L 360.272009 93.83272 
" style="fill:none;stroke:#4c72b0;stroke-linecap:round;stroke-width:0.75;"/>
   </g>
   <g id="line2d_52">
    <path clip-path="url(#pb5b5280360)" d="M 252.053827 93.587621 
L 360.272009 119.760009 
" style="fill:none;stroke:#4c72b0;stroke-linecap:round;stroke-width:0.75;"/>
   </g>
   <g id="line2d_53">
    <path clip-path="url(#pb5b5280360)" d="M 252.053827 81.967431 
L 360.272009 111.100047 
" style="fill:none;stroke:#4c72b0;stroke-linecap:round;stroke-width:0.75;"/>
   </g>
   <g id="line2d_54">
    <path clip-path="url(#pb5b5280360)" d="M 252.053827 83.818025 
L 360.272009 110.995046 
" style="fill:none;stroke:#4c72b0;stroke-linecap:round;stroke-width:0.75;"/>
   </g>
   <g id="line2d_55">
    <path clip-path="url(#pb5b5280360)" d="M 252.053827 85.047217 
L 360.272009 100.845563 
" style="fill:none;stroke:#4c72b0;stroke-linecap:round;stroke-width:0.75;"/>
   </g>
   <g id="line2d_56">
    <path clip-path="url(#pb5b5280360)" d="M 252.053827 87.156349 
L 360.272009 103.031855 
" style="fill:none;stroke:#4c72b0;stroke-linecap:round;stroke-width:0.75;"/>
   </g>
   <g id="line2d_57">
    <path clip-path="url(#pb5b5280360)" d="M 252.053827 79.992434 
L 360.272009 99.489323 
" style="fill:none;stroke:#4c72b0;stroke-linecap:round;stroke-width:0.75;"/>
   </g>
   <g id="line2d_58">
    <path clip-path="url(#pb5b5280360)" d="M 252.053827 70.914002 
L 360.272009 92.281266 
" style="fill:none;stroke:#4c72b0;stroke-linecap:round;stroke-width:0.75;"/>
   </g>
   <g id="line2d_59">
    <path clip-path="url(#pb5b5280360)" d="M 252.053827 96.475937 
L 360.272009 87.945457 
" style="fill:none;stroke:#4c72b0;stroke-linecap:round;stroke-width:0.75;"/>
   </g>
   <g id="line2d_60">
    <path clip-path="url(#pb5b5280360)" d="M 252.053827 72.974461 
L 360.272009 91.562875 
" style="fill:none;stroke:#4c72b0;stroke-linecap:round;stroke-width:0.75;"/>
   </g>
   <g id="line2d_61">
    <path clip-path="url(#pb5b5280360)" d="M 252.053827 82.402263 
L 360.272009 104.215018 
" style="fill:none;stroke:#4c72b0;stroke-linecap:round;stroke-width:0.75;"/>
   </g>
   <g id="line2d_62">
    <path clip-path="url(#pb5b5280360)" d="M 252.053827 79.84964 
L 360.272009 89.114315 
" style="fill:none;stroke:#4c72b0;stroke-linecap:round;stroke-width:0.75;"/>
   </g>
   <g id="line2d_63">
    <path clip-path="url(#pb5b5280360)" d="M 252.053827 98.498353 
L 360.272009 99.000933 
" style="fill:none;stroke:#4c72b0;stroke-linecap:round;stroke-width:0.75;"/>
   </g>
   <g id="line2d_64">
    <path clip-path="url(#pb5b5280360)" d="M 252.053827 83.504549 
L 360.272009 76.134631 
" style="fill:none;stroke:#4c72b0;stroke-linecap:round;stroke-width:0.75;"/>
   </g>
   <g id="line2d_65">
    <path clip-path="url(#pb5b5280360)" d="M 252.053827 67.595121 
L 360.272009 88.047789 
" style="fill:none;stroke:#4c72b0;stroke-linecap:round;stroke-width:0.75;"/>
   </g>
   <g id="line2d_66">
    <path clip-path="url(#pb5b5280360)" d="M 252.053827 97.828712 
L 360.272009 96.694832 
" style="fill:none;stroke:#4c72b0;stroke-linecap:round;stroke-width:0.75;"/>
   </g>
   <g id="line2d_67">
    <path clip-path="url(#pb5b5280360)" d="M 252.053827 108.415229 
L 360.272009 98.026227 
" style="fill:none;stroke:#55a868;stroke-linecap:round;stroke-width:0.75;"/>
   </g>
   <g id="line2d_68">
    <path clip-path="url(#pb5b5280360)" d="M 252.053827 105.652172 
L 360.272009 109.624899 
" style="fill:none;stroke:#55a868;stroke-linecap:round;stroke-width:0.75;"/>
   </g>
   <g id="line2d_69">
    <path clip-path="url(#pb5b5280360)" d="M 252.053827 81.960845 
L 360.272009 95.309609 
" style="fill:none;stroke:#55a868;stroke-linecap:round;stroke-width:0.75;"/>
   </g>
   <g id="line2d_70">
    <path clip-path="url(#pb5b5280360)" d="M 252.053827 56.979048 
L 360.272009 111.639237 
" style="fill:none;stroke:#55a868;stroke-linecap:round;stroke-width:0.75;"/>
   </g>
   <g id="line2d_71">
    <path clip-path="url(#pb5b5280360)" d="M 252.053827 71.849493 
L 360.272009 92.361598 
" style="fill:none;stroke:#55a868;stroke-linecap:round;stroke-width:0.75;"/>
   </g>
   <g id="line2d_72">
    <path clip-path="url(#pb5b5280360)" d="M 252.053827 65.377597 
L 360.272009 120.99087 
" style="fill:none;stroke:#55a868;stroke-linecap:round;stroke-width:0.75;"/>
   </g>
   <g id="line2d_73">
    <path clip-path="url(#pb5b5280360)" d="M 252.053827 83.928843 
L 360.272009 112.024994 
" style="fill:none;stroke:#55a868;stroke-linecap:round;stroke-width:0.75;"/>
   </g>
   <g id="line2d_74">
    <path clip-path="url(#pb5b5280360)" d="M 252.053827 68.615435 
L 360.272009 78.408326 
" style="fill:none;stroke:#55a868;stroke-linecap:round;stroke-width:0.75;"/>
   </g>
   <g id="line2d_75">
    <path clip-path="url(#pb5b5280360)" d="M 252.053827 88.295826 
L 360.272009 77.478856 
" style="fill:none;stroke:#55a868;stroke-linecap:round;stroke-width:0.75;"/>
   </g>
   <g id="line2d_76">
    <path clip-path="url(#pb5b5280360)" d="M 252.053827 77.868135 
L 360.272009 80.158684 
" style="fill:none;stroke:#55a868;stroke-linecap:round;stroke-width:0.75;"/>
   </g>
   <g id="line2d_77">
    <path clip-path="url(#pb5b5280360)" d="M 252.053827 88.249482 
L 360.272009 120.384337 
" style="fill:none;stroke:#55a868;stroke-linecap:round;stroke-width:0.75;"/>
   </g>
   <g id="line2d_78">
    <path clip-path="url(#pb5b5280360)" d="M 252.053827 91.574166 
L 360.272009 116.319359 
" style="fill:none;stroke:#55a868;stroke-linecap:round;stroke-width:0.75;"/>
   </g>
   <g id="line2d_79">
    <path clip-path="url(#pb5b5280360)" d="M 252.053827 83.533182 
L 360.272009 115.69472 
" style="fill:none;stroke:#55a868;stroke-linecap:round;stroke-width:0.75;"/>
   </g>
   <g id="line2d_80">
    <path clip-path="url(#pb5b5280360)" d="M 252.053827 90.711527 
L 360.272009 118.856092 
" style="fill:none;stroke:#55a868;stroke-linecap:round;stroke-width:0.75;"/>
   </g>
   <g id="line2d_81">
    <path clip-path="url(#pb5b5280360)" d="M 252.053827 69.670915 
L 360.272009 93.940425 
" style="fill:none;stroke:#55a868;stroke-linecap:round;stroke-width:0.75;"/>
   </g>
   <g id="line2d_82">
    <path clip-path="url(#pb5b5280360)" d="M 252.053827 82.798606 
L 360.272009 103.239182 
" style="fill:none;stroke:#55a868;stroke-linecap:round;stroke-width:0.75;"/>
   </g>
   <g id="line2d_83">
    <path clip-path="url(#pb5b5280360)" d="M 252.053827 80.379337 
L 360.272009 96.894667 
" style="fill:none;stroke:#55a868;stroke-linecap:round;stroke-width:0.75;"/>
   </g>
   <g id="line2d_84">
    <path clip-path="url(#pb5b5280360)" d="M 252.053827 89.078498 
L 360.272009 103.245899 
" style="fill:none;stroke:#55a868;stroke-linecap:round;stroke-width:0.75;"/>
   </g>
   <g id="line2d_85">
    <path clip-path="url(#pb5b5280360)" d="M 252.053827 70.284005 
L 360.272009 107.174945 
" style="fill:none;stroke:#55a868;stroke-linecap:round;stroke-width:0.75;"/>
   </g>
   <g id="line2d_86">
    <path clip-path="url(#pb5b5280360)" d="M 252.053827 93.727733 
L 360.272009 70.315644 
" style="fill:none;stroke:#55a868;stroke-linecap:round;stroke-width:0.75;"/>
   </g>
  </g>
  <g id="axes_3">
   <g id="patch_5">
    <path d="M 394.090191 132.257812 
L 542.890191 132.257812 
L 542.890191 14.357812 
L 394.090191 14.357812 
z
" style="fill:none;"/>
   </g>
   <g id="line2d_87">
    <path clip-path="url(#p8cc0818850)" d="M 400.853827 17.818496 
L 509.072009 91.138898 
" style="fill:none;stroke:#4c72b0;stroke-linecap:round;stroke-width:0.75;"/>
   </g>
   <g id="line2d_88">
    <path clip-path="url(#p8cc0818850)" d="M 400.853827 36.910849 
L 509.072009 73.852907 
" style="fill:none;stroke:#4c72b0;stroke-linecap:round;stroke-width:0.75;"/>
   </g>
   <g id="line2d_89">
    <path clip-path="url(#p8cc0818850)" d="M 400.853827 35.681511 
L 509.072009 83.264504 
" style="fill:none;stroke:#4c72b0;stroke-linecap:round;stroke-width:0.75;"/>
   </g>
   <g id="line2d_90">
    <path clip-path="url(#p8cc0818850)" d="M 400.853827 38.875945 
L 509.072009 77.412945 
" style="fill:none;stroke:#4c72b0;stroke-linecap:round;stroke-width:0.75;"/>
   </g>
   <g id="line2d_91">
    <path clip-path="url(#p8cc0818850)" d="M 400.853827 63.93196 
L 509.072009 66.881063 
" style="fill:none;stroke:#4c72b0;stroke-linecap:round;stroke-width:0.75;"/>
   </g>
   <g id="line2d_92">
    <path clip-path="url(#p8cc0818850)" d="M 400.853827 36.061486 
L 509.072009 76.463549 
" style="fill:none;stroke:#4c72b0;stroke-linecap:round;stroke-width:0.75;"/>
   </g>
   <g id="line2d_93">
    <path clip-path="url(#p8cc0818850)" d="M 400.853827 57.406468 
L 509.072009 66.821097 
" style="fill:none;stroke:#4c72b0;stroke-linecap:round;stroke-width:0.75;"/>
   </g>
   <g id="line2d_94">
    <path clip-path="url(#p8cc0818850)" d="M 400.853827 35.199934 
L 509.072009 72.58613 
" style="fill:none;stroke:#4c72b0;stroke-linecap:round;stroke-width:0.75;"/>
   </g>
   <g id="line2d_95">
    <path clip-path="url(#p8cc0818850)" d="M 400.853827 45.177174 
L 509.072009 65.306108 
" style="fill:none;stroke:#4c72b0;stroke-linecap:round;stroke-width:0.75;"/>
   </g>
   <g id="line2d_96">
    <path clip-path="url(#p8cc0818850)" d="M 400.853827 23.872555 
L 509.072009 95.064809 
" style="fill:none;stroke:#4c72b0;stroke-linecap:round;stroke-width:0.75;"/>
   </g>
   <g id="line2d_97">
    <path clip-path="url(#p8cc0818850)" d="M 400.853827 40.353796 
L 509.072009 92.041993 
" style="fill:none;stroke:#4c72b0;stroke-linecap:round;stroke-width:0.75;"/>
   </g>
   <g id="line2d_98">
    <path clip-path="url(#p8cc0818850)" d="M 400.853827 37.747669 
L 509.072009 97.614147 
" style="fill:none;stroke:#4c72b0;stroke-linecap:round;stroke-width:0.75;"/>
   </g>
   <g id="line2d_99">
    <path clip-path="url(#p8cc0818850)" d="M 400.853827 51.886873 
L 509.072009 76.103849 
" style="fill:none;stroke:#4c72b0;stroke-linecap:round;stroke-width:0.75;"/>
   </g>
   <g id="line2d_100">
    <path clip-path="url(#p8cc0818850)" d="M 400.853827 29.608445 
L 509.072009 85.608629 
" style="fill:none;stroke:#4c72b0;stroke-linecap:round;stroke-width:0.75;"/>
   </g>
   <g id="line2d_101">
    <path clip-path="url(#p8cc0818850)" d="M 400.853827 40.276599 
L 509.072009 71.96681 
" style="fill:none;stroke:#4c72b0;stroke-linecap:round;stroke-width:0.75;"/>
   </g>
   <g id="line2d_102">
    <path clip-path="url(#p8cc0818850)" d="M 400.853827 29.893139 
L 509.072009 78.998245 
" style="fill:none;stroke:#4c72b0;stroke-linecap:round;stroke-width:0.75;"/>
   </g>
   <g id="line2d_103">
    <path clip-path="url(#p8cc0818850)" d="M 400.853827 27.420286 
L 509.072009 81.238907 
" style="fill:none;stroke:#4c72b0;stroke-linecap:round;stroke-width:0.75;"/>
   </g>
   <g id="line2d_104">
    <path clip-path="url(#p8cc0818850)" d="M 400.853827 27.848762 
L 509.072009 57.386797 
" style="fill:none;stroke:#4c72b0;stroke-linecap:round;stroke-width:0.75;"/>
   </g>
   <g id="line2d_105">
    <path clip-path="url(#p8cc0818850)" d="M 400.853827 41.017816 
L 509.072009 75.591669 
" style="fill:none;stroke:#4c72b0;stroke-linecap:round;stroke-width:0.75;"/>
   </g>
   <g id="line2d_106">
    <path clip-path="url(#p8cc0818850)" d="M 400.853827 62.474024 
L 509.072009 83.05545 
" style="fill:none;stroke:#4c72b0;stroke-linecap:round;stroke-width:0.75;"/>
   </g>
   <g id="line2d_107">
    <path clip-path="url(#p8cc0818850)" d="M 400.853827 53.13906 
L 509.072009 94.343068 
" style="fill:none;stroke:#55a868;stroke-linecap:round;stroke-width:0.75;"/>
   </g>
   <g id="line2d_108">
    <path clip-path="url(#p8cc0818850)" d="M 400.853827 27.093044 
L 509.072009 68.701397 
" style="fill:none;stroke:#55a868;stroke-linecap:round;stroke-width:0.75;"/>
   </g>
   <g id="line2d_109">
    <path clip-path="url(#p8cc0818850)" d="M 400.853827 24.848546 
L 509.072009 71.50594 
" style="fill:none;stroke:#55a868;stroke-linecap:round;stroke-width:0.75;"/>
   </g>
   <g id="line2d_110">
    <path clip-path="url(#p8cc0818850)" d="M 400.853827 21.167607 
L 509.072009 95.557683 
" style="fill:none;stroke:#55a868;stroke-linecap:round;stroke-width:0.75;"/>
   </g>
   <g id="line2d_111">
    <path clip-path="url(#p8cc0818850)" d="M 400.853827 45.062088 
L 509.072009 84.451854 
" style="fill:none;stroke:#55a868;stroke-linecap:round;stroke-width:0.75;"/>
   </g>
   <g id="line2d_112">
    <path clip-path="url(#p8cc0818850)" d="M 400.853827 50.669647 
L 509.072009 79.935469 
" style="fill:none;stroke:#55a868;stroke-linecap:round;stroke-width:0.75;"/>
   </g>
   <g id="line2d_113">
    <path clip-path="url(#p8cc0818850)" d="M 400.853827 26.075422 
L 509.072009 102.064724 
" style="fill:none;stroke:#55a868;stroke-linecap:round;stroke-width:0.75;"/>
   </g>
   <g id="line2d_114">
    <path clip-path="url(#p8cc0818850)" d="M 400.853827 26.614963 
L 509.072009 86.019018 
" style="fill:none;stroke:#55a868;stroke-linecap:round;stroke-width:0.75;"/>
   </g>
   <g id="line2d_115">
    <path clip-path="url(#p8cc0818850)" d="M 400.853827 37.651053 
L 509.072009 66.242792 
" style="fill:none;stroke:#55a868;stroke-linecap:round;stroke-width:0.75;"/>
   </g>
   <g id="line2d_116">
    <path clip-path="url(#p8cc0818850)" d="M 400.853827 37.991551 
L 509.072009 101.781935 
" style="fill:none;stroke:#55a868;stroke-linecap:round;stroke-width:0.75;"/>
   </g>
   <g id="line2d_117">
    <path clip-path="url(#p8cc0818850)" d="M 400.853827 55.43463 
L 509.072009 76.952434 
" style="fill:none;stroke:#55a868;stroke-linecap:round;stroke-width:0.75;"/>
   </g>
   <g id="line2d_118">
    <path clip-path="url(#p8cc0818850)" d="M 400.853827 40.63819 
L 509.072009 60.424382 
" style="fill:none;stroke:#55a868;stroke-linecap:round;stroke-width:0.75;"/>
   </g>
   <g id="line2d_119">
    <path clip-path="url(#p8cc0818850)" d="M 400.853827 20.733912 
L 509.072009 90.061163 
" style="fill:none;stroke:#55a868;stroke-linecap:round;stroke-width:0.75;"/>
   </g>
   <g id="line2d_120">
    <path clip-path="url(#p8cc0818850)" d="M 400.853827 49.820796 
L 509.072009 88.089553 
" style="fill:none;stroke:#55a868;stroke-linecap:round;stroke-width:0.75;"/>
   </g>
   <g id="line2d_121">
    <path clip-path="url(#p8cc0818850)" d="M 400.853827 44.033413 
L 509.072009 80.176057 
" style="fill:none;stroke:#55a868;stroke-linecap:round;stroke-width:0.75;"/>
   </g>
   <g id="line2d_122">
    <path clip-path="url(#p8cc0818850)" d="M 400.853827 39.875933 
L 509.072009 76.675875 
" style="fill:none;stroke:#55a868;stroke-linecap:round;stroke-width:0.75;"/>
   </g>
   <g id="line2d_123">
    <path clip-path="url(#p8cc0818850)" d="M 400.853827 42.156111 
L 509.072009 78.056337 
" style="fill:none;stroke:#55a868;stroke-linecap:round;stroke-width:0.75;"/>
   </g>
   <g id="line2d_124">
    <path clip-path="url(#p8cc0818850)" d="M 400.853827 61.35624 
L 509.072009 100.576256 
" style="fill:none;stroke:#55a868;stroke-linecap:round;stroke-width:0.75;"/>
   </g>
   <g id="line2d_125">
    <path clip-path="url(#p8cc0818850)" d="M 400.853827 44.427113 
L 509.072009 91.747773 
" style="fill:none;stroke:#55a868;stroke-linecap:round;stroke-width:0.75;"/>
   </g>
   <g id="line2d_126">
    <path clip-path="url(#p8cc0818850)" d="M 400.853827 45.262453 
L 509.072009 81.545842 
" style="fill:none;stroke:#55a868;stroke-linecap:round;stroke-width:0.75;"/>
   </g>
   <g id="legend_1">
    <g id="line2d_127">
     <path d="M 553.450191 39.673437 
L 593.450191 39.673437 
" style="fill:none;stroke:#55a868;stroke-linecap:round;stroke-width:0.75;"/>
    </g>
    <g id="line2d_128"/>
    <g id="text_8">
     <text style="fill:#262626;font-family:Arial;font-size:20px;font-style:normal;font-weight:normal;text-anchor:start;" transform="rotate(-0, 609.450191, 46.673437)" x="609.450191" y="46.673437">Female</text>
    </g>
    <g id="line2d_129">
     <path d="M 553.450191 67.964062 
L 593.450191 67.964062 
" style="fill:none;stroke:#4c72b0;stroke-linecap:round;stroke-width:0.75;"/>
    </g>
    <g id="line2d_130"/>
    <g id="text_9">
     <text style="fill:#262626;font-family:Arial;font-size:20px;font-style:normal;font-weight:normal;text-anchor:start;" transform="rotate(-0, 609.450191, 74.964062)" x="609.450191" y="74.964062">Male</text>
    </g>
   </g>
  </g>
  <g id="axes_4">
   <g id="patch_6">
    <path d="M 96.490191 286.157812 
L 245.290191 286.157812 
L 245.290191 168.257812 
L 96.490191 168.257812 
z
" style="fill:none;"/>
   </g>
   <g id="matplotlib.axis_2">
    <g id="xtick_1">
     <g id="line2d_131">
      <defs>
       <path d="M 0 0 
L 0 6 
" id="med4ea69e9a" style="stroke:#262626;stroke-width:1.6;"/>
      </defs>
      <g>
       <use style="fill:#262626;stroke:#262626;stroke-width:1.6;" x="103.253827" xlink:href="#med4ea69e9a" y="286.157812"/>
      </g>
     </g>
     <g id="text_10">
      <text style="fill:#262626;font-family:Arial;font-size:20px;font-style:normal;font-weight:normal;" transform="translate(17.495033 396.60089)rotate(-45)">Group1 n=40</text>
     </g>
    </g>
    <g id="xtick_2">
     <g id="line2d_132">
      <g>
       <use style="fill:#262626;stroke:#262626;stroke-width:1.6;" x="211.472009" xlink:href="#med4ea69e9a" y="286.157812"/>
      </g>
     </g>
     <g id="text_11">
      <text style="fill:#262626;font-family:Arial;font-size:20px;font-style:normal;font-weight:normal;" transform="translate(125.713215 396.60089)rotate(-45)">Group2 n=40</text>
     </g>
    </g>
   </g>
   <g id="matplotlib.axis_3">
    <g id="ytick_7">
     <g id="line2d_133">
      <g>
       <use style="fill:#262626;stroke:#262626;stroke-width:1.6;" x="96.490191" xlink:href="#mc7feed96d9" y="270.125268"/>
      </g>
     </g>
     <g id="text_12">
      <text style="fill:#262626;font-family:Arial;font-size:20px;font-style:normal;font-weight:normal;text-anchor:end;" transform="rotate(-0, 79.290191, 277.283081)" x="79.290191" y="277.283081">−4</text>
     </g>
    </g>
    <g id="ytick_8">
     <g id="line2d_134">
      <g>
       <use style="fill:#262626;stroke:#262626;stroke-width:1.6;" x="96.490191" xlink:href="#mc7feed96d9" y="247.713203"/>
      </g>
     </g>
     <g id="text_13">
      <text style="fill:#262626;font-family:Arial;font-size:20px;font-style:normal;font-weight:normal;text-anchor:end;" transform="rotate(-0, 79.290191, 254.871015)" x="79.290191" y="254.871015">−3</text>
     </g>
    </g>
    <g id="ytick_9">
     <g id="line2d_135">
      <g>
       <use style="fill:#262626;stroke:#262626;stroke-width:1.6;" x="96.490191" xlink:href="#mc7feed96d9" y="225.301137"/>
      </g>
     </g>
     <g id="text_14">
      <text style="fill:#262626;font-family:Arial;font-size:20px;font-style:normal;font-weight:normal;text-anchor:end;" transform="rotate(-0, 79.290191, 232.45895)" x="79.290191" y="232.45895">−2</text>
     </g>
    </g>
    <g id="ytick_10">
     <g id="line2d_136">
      <g>
       <use style="fill:#262626;stroke:#262626;stroke-width:1.6;" x="96.490191" xlink:href="#mc7feed96d9" y="202.889071"/>
      </g>
     </g>
     <g id="text_15">
      <text style="fill:#262626;font-family:Arial;font-size:20px;font-style:normal;font-weight:normal;text-anchor:end;" transform="rotate(-0, 79.290191, 210.046884)" x="79.290191" y="210.046884">−1</text>
     </g>
    </g>
    <g id="ytick_11">
     <g id="line2d_137">
      <g>
       <use style="fill:#262626;stroke:#262626;stroke-width:1.6;" x="96.490191" xlink:href="#mc7feed96d9" y="180.477006"/>
      </g>
     </g>
     <g id="text_16">
      <text style="fill:#262626;font-family:Arial;font-size:20px;font-style:normal;font-weight:normal;text-anchor:end;" transform="rotate(-0, 79.290191, 187.634818)" x="79.290191" y="187.634818">0</text>
     </g>
    </g>
    <g id="text_17">
     <text style="fill:#262626;font-family:Arial;font-size:22px;font-style:normal;font-weight:normal;" transform="translate(24.845441 284.689687)rotate(-90)">paired delta</text>
     <text style="fill:#262626;font-family:Arial;font-size:22px;font-style:normal;font-weight:normal;" transform="translate(48.114566 253.502969)rotate(-90)">value</text>
    </g>
   </g>
   <g id="PolyCollection_1">
    <defs>
     <path d="M 211.564176 -201.533505 
L 211.47316 -201.533505 
L 211.47316 -201.887716 
L 211.47316 -202.241928 
L 211.47316 -202.59614 
L 211.47316 -202.950352 
L 211.47316 -203.304564 
L 211.47316 -203.658776 
L 211.47316 -204.012988 
L 211.47316 -204.367199 
L 211.47316 -204.721411 
L 211.47316 -205.075623 
L 211.47316 -205.429835 
L 211.47316 -205.784047 
L 211.47316 -206.138259 
L 211.47316 -206.492471 
L 211.47316 -206.846682 
L 211.47316 -207.200894 
L 211.47316 -207.555106 
L 211.47316 -207.909318 
L 211.47316 -208.26353 
L 211.47316 -208.617742 
L 211.47316 -208.971954 
L 211.47316 -209.326165 
L 211.47316 -209.680377 
L 211.47316 -210.034589 
L 211.47316 -210.388801 
L 211.47316 -210.743013 
L 211.47316 -211.097225 
L 211.47316 -211.451437 
L 211.47316 -211.805648 
L 211.47316 -212.15986 
L 211.47316 -212.514072 
L 211.47316 -212.868284 
L 211.47316 -213.222496 
L 211.47316 -213.576708 
L 211.47316 -213.93092 
L 211.47316 -214.285131 
L 211.47316 -214.639343 
L 211.47316 -214.993555 
L 211.47316 -215.347767 
L 211.47316 -215.701979 
L 211.47316 -216.056191 
L 211.47316 -216.410403 
L 211.47316 -216.764614 
L 211.47316 -217.118826 
L 211.47316 -217.473038 
L 211.47316 -217.82725 
L 211.47316 -218.181462 
L 211.47316 -218.535674 
L 211.47316 -218.889886 
L 211.47316 -219.244097 
L 211.47316 -219.598309 
L 211.47316 -219.952521 
L 211.47316 -220.306733 
L 211.47316 -220.660945 
L 211.47316 -221.015157 
L 211.47316 -221.369369 
L 211.47316 -221.72358 
L 211.47316 -222.077792 
L 211.47316 -222.432004 
L 211.47316 -222.786216 
L 211.47316 -223.140428 
L 211.47316 -223.49464 
L 211.47316 -223.848852 
L 211.47316 -224.203063 
L 211.47316 -224.557275 
L 211.47316 -224.911487 
L 211.47316 -225.265699 
L 211.47316 -225.619911 
L 211.47316 -225.974123 
L 211.47316 -226.328335 
L 211.47316 -226.682546 
L 211.47316 -227.036758 
L 211.47316 -227.39097 
L 211.47316 -227.745182 
L 211.47316 -228.099394 
L 211.47316 -228.453606 
L 211.47316 -228.807818 
L 211.47316 -229.162029 
L 211.47316 -229.516241 
L 211.47316 -229.870453 
L 211.47316 -230.224665 
L 211.47316 -230.578877 
L 211.47316 -230.933089 
L 211.47316 -231.287301 
L 211.47316 -231.641512 
L 211.47316 -231.995724 
L 211.47316 -232.349936 
L 211.47316 -232.704148 
L 211.47316 -233.05836 
L 211.47316 -233.412572 
L 211.47316 -233.766784 
L 211.47316 -234.120995 
L 211.47316 -234.475207 
L 211.47316 -234.829419 
L 211.47316 -235.183631 
L 211.47316 -235.537843 
L 211.47316 -235.892055 
L 211.47316 -236.246267 
L 211.47316 -236.600478 
L 211.521314 -236.600478 
L 211.521314 -236.600478 
L 211.540097 -236.246267 
L 211.568581 -235.892055 
L 211.609834 -235.537843 
L 211.663237 -235.183631 
L 211.724815 -234.829419 
L 211.790355 -234.475207 
L 211.858197 -234.120995 
L 211.928817 -233.766784 
L 212.001957 -233.412572 
L 212.074798 -233.05836 
L 212.143284 -232.704148 
L 212.20556 -232.349936 
L 212.265507 -231.995724 
L 212.335143 -231.641512 
L 212.43436 -231.287301 
L 212.585622 -230.933089 
L 212.803717 -230.578877 
L 213.086346 -230.224665 
L 213.413845 -229.870453 
L 213.760863 -229.516241 
L 214.113602 -229.162029 
L 214.481725 -228.807818 
L 214.897472 -228.453606 
L 215.401752 -228.099394 
L 216.022951 -227.745182 
L 216.757564 -227.39097 
L 217.563358 -227.036758 
L 218.373647 -226.682546 
L 219.130631 -226.328335 
L 219.819304 -225.974123 
L 220.477129 -225.619911 
L 221.171124 -225.265699 
L 221.961025 -224.911487 
L 222.876801 -224.557275 
L 223.92131 -224.203063 
L 225.084029 -223.848852 
L 226.345472 -223.49464 
L 227.668396 -223.140428 
L 228.99189 -222.786216 
L 230.245805 -222.432004 
L 231.382431 -222.077792 
L 232.399617 -221.72358 
L 233.330442 -221.369369 
L 234.204312 -221.015157 
L 235.015167 -220.660945 
L 235.727647 -220.306733 
L 236.311686 -219.952521 
L 236.767467 -219.598309 
L 237.12104 -219.244097 
L 237.407024 -218.889886 
L 237.658573 -218.535674 
L 237.901806 -218.181462 
L 238.145054 -217.82725 
L 238.367656 -217.473038 
L 238.518632 -217.118826 
L 238.526554 -216.764614 
L 238.31657 -216.410403 
L 237.830561 -216.056191 
L 237.043041 -215.701979 
L 235.965851 -215.347767 
L 234.645711 -214.993555 
L 233.164545 -214.639343 
L 231.638851 -214.285131 
L 230.199112 -213.93092 
L 228.942974 -213.576708 
L 227.889682 -213.222496 
L 226.975128 -212.868284 
L 226.094912 -212.514072 
L 225.160614 -212.15986 
L 224.129614 -211.805648 
L 223.002033 -211.451437 
L 221.806668 -211.097225 
L 220.592163 -210.743013 
L 219.418386 -210.388801 
L 218.339353 -210.034589 
L 217.384714 -209.680377 
L 216.555109 -209.326165 
L 215.834661 -208.971954 
L 215.207866 -208.617742 
L 214.667295 -208.26353 
L 214.210581 -207.909318 
L 213.834388 -207.555106 
L 213.531321 -207.200894 
L 213.289213 -206.846682 
L 213.090645 -206.492471 
L 212.914224 -206.138259 
L 212.740404 -205.784047 
L 212.559699 -205.429835 
L 212.376338 -205.075623 
L 212.203221 -204.721411 
L 212.052037 -204.367199 
L 211.926819 -204.012988 
L 211.825197 -203.658776 
L 211.743881 -203.304564 
L 211.681695 -202.950352 
L 211.637701 -202.59614 
L 211.607964 -202.241928 
L 211.585568 -201.887716 
L 211.564176 -201.533505 
z
" id="m956cb69e57" style="stroke:#000000;stroke-opacity:0.3;stroke-width:0.48;"/>
    </defs>
    <g clip-path="url(#pe8b2bd75b7)">
     <use style="fill-opacity:0.3;stroke:#000000;stroke-opacity:0.3;stroke-width:0.48;" x="0" xlink:href="#m956cb69e57" y="406.61164"/>
    </g>
   </g>
   <g id="line2d_138">
    <path clip-path="url(#pe8b2bd75b7)" d="M 211.472009 188.348147 
" style="fill:none;stroke:#000000;stroke-linecap:round;stroke-width:2.8;"/>
    <defs>
     <path d="M 0 5 
C 1.326016 5 2.597899 4.473168 3.535534 3.535534 
C 4.473168 2.597899 5 1.326016 5 0 
C 5 -1.326016 4.473168 -2.597899 3.535534 -3.535534 
C 2.597899 -4.473168 1.326016 -5 0 -5 
C -1.326016 -5 -2.597899 -4.473168 -3.535534 -3.535534 
C -4.473168 -2.597899 -5 -1.326016 -5 0 
C -5 1.326016 -4.473168 2.597899 -3.535534 3.535534 
C -2.597899 4.473168 -1.326016 5 0 5 
z
" id="m224bc03061"/>
    </defs>
    <g clip-path="url(#pe8b2bd75b7)">
     <use x="211.472009" xlink:href="#m224bc03061" y="188.348147"/>
    </g>
   </g>
   <g id="line2d_139">
    <path clip-path="url(#pe8b2bd75b7)" d="M 211.472009 197.172527 
L 211.472009 177.728612 
" style="fill:none;stroke:#000000;stroke-linecap:round;stroke-width:2;"/>
   </g>
   <g id="line2d_140">
    <path clip-path="url(#pe8b2bd75b7)" d="M 96.490191 180.477006 
L 245.290191 180.477006 
" style="fill:none;stroke:#000000;stroke-linecap:round;stroke-width:0.5;"/>
   </g>
   <g id="patch_7">
    <path d="M 96.490191 270.125268 
L 96.490191 180.477006 
" style="fill:none;stroke:#262626;stroke-linecap:square;stroke-linejoin:miter;stroke-width:1.25;"/>
   </g>
   <g id="patch_8">
    <path d="M 103.253827 286.157812 
L 211.472009 286.157812 
" style="fill:none;stroke:#262626;stroke-linecap:square;stroke-linejoin:miter;stroke-width:1.25;"/>
   </g>
  </g>
  <g id="axes_5">
   <g id="patch_9">
    <path d="M 245.290191 286.157812 
L 394.090191 286.157812 
L 394.090191 168.257812 
L 245.290191 168.257812 
z
" style="fill:none;"/>
   </g>
   <g id="matplotlib.axis_4">
    <g id="xtick_3">
     <g id="line2d_141">
      <g>
       <use style="fill:#262626;stroke:#262626;stroke-width:1.6;" x="252.053827" xlink:href="#med4ea69e9a" y="286.157812"/>
      </g>
     </g>
     <g id="text_18">
      <text style="fill:#262626;font-family:Arial;font-size:20px;font-style:normal;font-weight:normal;" transform="translate(167.874975 394.848591)rotate(-45)">Control n=40</text>
     </g>
    </g>
    <g id="xtick_4">
     <g id="line2d_142">
      <g>
       <use style="fill:#262626;stroke:#262626;stroke-width:1.6;" x="360.272009" xlink:href="#med4ea69e9a" y="286.157812"/>
      </g>
     </g>
     <g id="text_19">
      <text style="fill:#262626;font-family:Arial;font-size:20px;font-style:normal;font-weight:normal;" transform="translate(274.513215 396.60089)rotate(-45)">Group5 n=40</text>
     </g>
    </g>
   </g>
   <g id="PolyCollection_2">
    <defs>
     <path d="M 360.305513 -175.559795 
L 360.273394 -175.559795 
L 360.273394 -175.916228 
L 360.273394 -176.272661 
L 360.273394 -176.629094 
L 360.273394 -176.985526 
L 360.273394 -177.341959 
L 360.273394 -177.698392 
L 360.273394 -178.054824 
L 360.273394 -178.411257 
L 360.273394 -178.76769 
L 360.273394 -179.124123 
L 360.273394 -179.480555 
L 360.273394 -179.836988 
L 360.273394 -180.193421 
L 360.273394 -180.549854 
L 360.273394 -180.906286 
L 360.273394 -181.262719 
L 360.273394 -181.619152 
L 360.273394 -181.975585 
L 360.273394 -182.332017 
L 360.273394 -182.68845 
L 360.273394 -183.044883 
L 360.273394 -183.401315 
L 360.273394 -183.757748 
L 360.273394 -184.114181 
L 360.273394 -184.470614 
L 360.273394 -184.827046 
L 360.273394 -185.183479 
L 360.273394 -185.539912 
L 360.273394 -185.896345 
L 360.273394 -186.252777 
L 360.273394 -186.60921 
L 360.273394 -186.965643 
L 360.273394 -187.322075 
L 360.273394 -187.678508 
L 360.273394 -188.034941 
L 360.273394 -188.391374 
L 360.273394 -188.747806 
L 360.273394 -189.104239 
L 360.273394 -189.460672 
L 360.273394 -189.817105 
L 360.273394 -190.173537 
L 360.273394 -190.52997 
L 360.273394 -190.886403 
L 360.273394 -191.242836 
L 360.273394 -191.599268 
L 360.273394 -191.955701 
L 360.273394 -192.312134 
L 360.273394 -192.668566 
L 360.273394 -193.024999 
L 360.273394 -193.381432 
L 360.273394 -193.737865 
L 360.273394 -194.094297 
L 360.273394 -194.45073 
L 360.273394 -194.807163 
L 360.273394 -195.163596 
L 360.273394 -195.520028 
L 360.273394 -195.876461 
L 360.273394 -196.232894 
L 360.273394 -196.589326 
L 360.273394 -196.945759 
L 360.273394 -197.302192 
L 360.273394 -197.658625 
L 360.273394 -198.015057 
L 360.273394 -198.37149 
L 360.273394 -198.727923 
L 360.273394 -199.084356 
L 360.273394 -199.440788 
L 360.273394 -199.797221 
L 360.273394 -200.153654 
L 360.273394 -200.510087 
L 360.273394 -200.866519 
L 360.273394 -201.222952 
L 360.273394 -201.579385 
L 360.273394 -201.935817 
L 360.273394 -202.29225 
L 360.273394 -202.648683 
L 360.273394 -203.005116 
L 360.273394 -203.361548 
L 360.273394 -203.717981 
L 360.273394 -204.074414 
L 360.273394 -204.430847 
L 360.273394 -204.787279 
L 360.273394 -205.143712 
L 360.273394 -205.500145 
L 360.273394 -205.856578 
L 360.273394 -206.21301 
L 360.273394 -206.569443 
L 360.273394 -206.925876 
L 360.273394 -207.282308 
L 360.273394 -207.638741 
L 360.273394 -207.995174 
L 360.273394 -208.351607 
L 360.273394 -208.708039 
L 360.273394 -209.064472 
L 360.273394 -209.420905 
L 360.273394 -209.777338 
L 360.273394 -210.13377 
L 360.273394 -210.490203 
L 360.273394 -210.846636 
L 360.486176 -210.846636 
L 360.486176 -210.846636 
L 360.572473 -210.490203 
L 360.666256 -210.13377 
L 360.760626 -209.777338 
L 360.849833 -209.420905 
L 360.931246 -209.064472 
L 361.006496 -208.708039 
L 361.081786 -208.351607 
L 361.167407 -207.995174 
L 361.27585 -207.638741 
L 361.418036 -207.282308 
L 361.599446 -206.925876 
L 361.819833 -206.569443 
L 362.078277 -206.21301 
L 362.379904 -205.856578 
L 362.737365 -205.500145 
L 363.163922 -205.143712 
L 363.663309 -204.787279 
L 364.225539 -204.430847 
L 364.832132 -204.074414 
L 365.465305 -203.717981 
L 366.114733 -203.361548 
L 366.781493 -203.005116 
L 367.479611 -202.648683 
L 368.230522 -202.29225 
L 369.048942 -201.935817 
L 369.932163 -201.579385 
L 370.866235 -201.222952 
L 371.84192 -200.866519 
L 372.859272 -200.510087 
L 373.918613 -200.153654 
L 375.021022 -199.797221 
L 376.187962 -199.440788 
L 377.470387 -199.084356 
L 378.914522 -198.727923 
L 380.501738 -198.37149 
L 382.121746 -198.015057 
L 383.612852 -197.658625 
L 384.837019 -197.302192 
L 385.729039 -196.945759 
L 386.2974 -196.589326 
L 386.604638 -196.232894 
L 386.753404 -195.876461 
L 386.864465 -195.520028 
L 387.023485 -195.163596 
L 387.218294 -194.807163 
L 387.326554 -194.45073 
L 387.183192 -194.094297 
L 386.683586 -193.737865 
L 385.845108 -193.381432 
L 384.790124 -193.024999 
L 383.677402 -192.668566 
L 382.633343 -192.312134 
L 381.714794 -191.955701 
L 380.907608 -191.599268 
L 380.150862 -191.242836 
L 379.372213 -190.886403 
L 378.519296 -190.52997 
L 377.575705 -190.173537 
L 376.55736 -189.817105 
L 375.494692 -189.460672 
L 374.415024 -189.104239 
L 373.338573 -188.747806 
L 372.286016 -188.391374 
L 371.281321 -188.034941 
L 370.340811 -187.678508 
L 369.460172 -187.322075 
L 368.616742 -186.965643 
L 367.788044 -186.60921 
L 366.97124 -186.252777 
L 366.188237 -185.896345 
L 365.472014 -185.539912 
L 364.842262 -185.183479 
L 364.288029 -184.827046 
L 363.773485 -184.470614 
L 363.264839 -184.114181 
L 362.756279 -183.757748 
L 362.273401 -183.401315 
L 361.854259 -183.044883 
L 361.526269 -182.68845 
L 361.294633 -182.332017 
L 361.143954 -181.975585 
L 361.046716 -181.619152 
L 360.973246 -181.262719 
L 360.900342 -180.906286 
L 360.816423 -180.549854 
L 360.721949 -180.193421 
L 360.62577 -179.836988 
L 360.539352 -179.480555 
L 360.471251 -179.124123 
L 360.423941 -178.76769 
L 360.393955 -178.411257 
L 360.374572 -178.054824 
L 360.359305 -177.698392 
L 360.344609 -177.341959 
L 360.330583 -176.985526 
L 360.319361 -176.629094 
L 360.312369 -176.272661 
L 360.308644 -175.916228 
L 360.305513 -175.559795 
z
" id="m2f8cccb887" style="stroke:#000000;stroke-opacity:0.3;stroke-width:0.48;"/>
    </defs>
    <g clip-path="url(#p1ac6618476)">
     <use style="fill-opacity:0.3;stroke:#000000;stroke-opacity:0.3;stroke-width:0.48;" x="0" xlink:href="#m2f8cccb887" y="406.61164"/>
    </g>
   </g>
   <g id="line2d_143">
    <path clip-path="url(#p1ac6618476)" d="M 360.272009 211.793035 
" style="fill:none;stroke:#000000;stroke-linecap:round;stroke-width:2.8;"/>
    <g clip-path="url(#p1ac6618476)">
     <use x="360.272009" xlink:href="#m224bc03061" y="211.793035"/>
    </g>
   </g>
   <g id="line2d_144">
    <path clip-path="url(#p1ac6618476)" d="M 360.272009 221.201316 
L 360.272009 201.963764 
" style="fill:none;stroke:#000000;stroke-linecap:round;stroke-width:2;"/>
   </g>
   <g id="line2d_145">
    <path clip-path="url(#p1ac6618476)" d="M 245.290191 180.477006 
L 394.090191 180.477006 
" style="fill:none;stroke:#000000;stroke-linecap:round;stroke-width:0.5;"/>
   </g>
   <g id="patch_10">
    <path d="M 252.053827 286.157812 
L 360.272009 286.157812 
" style="fill:none;stroke:#262626;stroke-linecap:square;stroke-linejoin:miter;stroke-width:1.25;"/>
   </g>
  </g>
  <g id="axes_6">
   <g id="patch_11">
    <path d="M 394.090191 286.157812 
L 542.890191 286.157812 
L 542.890191 168.257812 
L 394.090191 168.257812 
z
" style="fill:none;"/>
   </g>
   <g id="matplotlib.axis_5">
    <g id="xtick_5">
     <g id="line2d_146">
      <g>
       <use style="fill:#262626;stroke:#262626;stroke-width:1.6;" x="400.853827" xlink:href="#med4ea69e9a" y="286.157812"/>
      </g>
     </g>
     <g id="text_20">
      <text style="fill:#262626;font-family:Arial;font-size:20px;font-style:normal;font-weight:normal;" transform="translate(315.095033 396.60089)rotate(-45)">Group4 n=40</text>
     </g>
    </g>
    <g id="xtick_6">
     <g id="line2d_147">
      <g>
       <use style="fill:#262626;stroke:#262626;stroke-width:1.6;" x="509.072009" xlink:href="#med4ea69e9a" y="286.157812"/>
      </g>
     </g>
     <g id="text_21">
      <text style="fill:#262626;font-family:Arial;font-size:20px;font-style:normal;font-weight:normal;" transform="translate(423.313215 396.60089)rotate(-45)">Group3 n=40</text>
     </g>
    </g>
   </g>
   <g id="PolyCollection_3">
    <defs>
     <path d="M 509.102225 -122.707441 
L 509.072459 -122.707441 
L 509.072459 -123.162717 
L 509.072459 -123.617992 
L 509.072459 -124.073268 
L 509.072459 -124.528544 
L 509.072459 -124.983819 
L 509.072459 -125.439095 
L 509.072459 -125.89437 
L 509.072459 -126.349646 
L 509.072459 -126.804922 
L 509.072459 -127.260197 
L 509.072459 -127.715473 
L 509.072459 -128.170748 
L 509.072459 -128.626024 
L 509.072459 -129.081299 
L 509.072459 -129.536575 
L 509.072459 -129.991851 
L 509.072459 -130.447126 
L 509.072459 -130.902402 
L 509.072459 -131.357677 
L 509.072459 -131.812953 
L 509.072459 -132.268229 
L 509.072459 -132.723504 
L 509.072459 -133.17878 
L 509.072459 -133.634055 
L 509.072459 -134.089331 
L 509.072459 -134.544607 
L 509.072459 -134.999882 
L 509.072459 -135.455158 
L 509.072459 -135.910433 
L 509.072459 -136.365709 
L 509.072459 -136.820984 
L 509.072459 -137.27626 
L 509.072459 -137.731536 
L 509.072459 -138.186811 
L 509.072459 -138.642087 
L 509.072459 -139.097362 
L 509.072459 -139.552638 
L 509.072459 -140.007914 
L 509.072459 -140.463189 
L 509.072459 -140.918465 
L 509.072459 -141.37374 
L 509.072459 -141.829016 
L 509.072459 -142.284292 
L 509.072459 -142.739567 
L 509.072459 -143.194843 
L 509.072459 -143.650118 
L 509.072459 -144.105394 
L 509.072459 -144.560669 
L 509.072459 -145.015945 
L 509.072459 -145.471221 
L 509.072459 -145.926496 
L 509.072459 -146.381772 
L 509.072459 -146.837047 
L 509.072459 -147.292323 
L 509.072459 -147.747599 
L 509.072459 -148.202874 
L 509.072459 -148.65815 
L 509.072459 -149.113425 
L 509.072459 -149.568701 
L 509.072459 -150.023977 
L 509.072459 -150.479252 
L 509.072459 -150.934528 
L 509.072459 -151.389803 
L 509.072459 -151.845079 
L 509.072459 -152.300354 
L 509.072459 -152.75563 
L 509.072459 -153.210906 
L 509.072459 -153.666181 
L 509.072459 -154.121457 
L 509.072459 -154.576732 
L 509.072459 -155.032008 
L 509.072459 -155.487284 
L 509.072459 -155.942559 
L 509.072459 -156.397835 
L 509.072459 -156.85311 
L 509.072459 -157.308386 
L 509.072459 -157.763662 
L 509.072459 -158.218937 
L 509.072459 -158.674213 
L 509.072459 -159.129488 
L 509.072459 -159.584764 
L 509.072459 -160.040039 
L 509.072459 -160.495315 
L 509.072459 -160.950591 
L 509.072459 -161.405866 
L 509.072459 -161.861142 
L 509.072459 -162.316417 
L 509.072459 -162.771693 
L 509.072459 -163.226969 
L 509.072459 -163.682244 
L 509.072459 -164.13752 
L 509.072459 -164.592795 
L 509.072459 -165.048071 
L 509.072459 -165.503346 
L 509.072459 -165.958622 
L 509.072459 -166.413898 
L 509.072459 -166.869173 
L 509.072459 -167.324449 
L 509.072459 -167.779724 
L 509.102918 -167.779724 
L 509.102918 -167.779724 
L 509.101565 -167.324449 
L 509.09893 -166.869173 
L 509.101852 -166.413898 
L 509.115753 -165.958622 
L 509.14091 -165.503346 
L 509.17205 -165.048071 
L 509.202354 -164.592795 
L 509.230121 -164.13752 
L 509.262606 -163.682244 
L 509.312125 -163.226969 
L 509.387209 -162.771693 
L 509.488308 -162.316417 
L 509.612551 -161.861142 
L 509.759628 -161.405866 
L 509.929256 -160.950591 
L 510.115385 -160.495315 
L 510.311338 -160.040039 
L 510.525678 -159.584764 
L 510.788634 -159.129488 
L 511.134721 -158.674213 
L 511.575693 -158.218937 
L 512.091441 -157.763662 
L 512.650276 -157.308386 
L 513.246667 -156.85311 
L 513.927007 -156.397835 
L 514.770671 -155.942559 
L 515.829066 -155.487284 
L 517.079522 -155.032008 
L 518.446481 -154.576732 
L 519.864412 -154.121457 
L 521.305326 -153.666181 
L 522.747543 -153.210906 
L 524.149328 -152.75563 
L 525.480563 -152.300354 
L 526.771029 -151.845079 
L 528.101572 -151.389803 
L 529.538911 -150.934528 
L 531.074527 -150.479252 
L 532.604003 -150.023977 
L 533.951659 -149.568701 
L 534.946468 -149.113425 
L 535.523848 -148.65815 
L 535.771007 -148.202874 
L 535.862844 -147.747599 
L 535.945053 -147.292323 
L 536.058189 -146.837047 
L 536.126554 -146.381772 
L 535.993102 -145.926496 
L 535.501621 -145.471221 
L 534.60507 -145.015945 
L 533.418024 -144.560669 
L 532.151059 -144.105394 
L 530.969059 -143.650118 
L 529.889062 -143.194843 
L 528.802533 -142.739567 
L 527.595516 -142.284292 
L 526.254206 -141.829016 
L 524.873571 -141.37374 
L 523.582218 -140.918465 
L 522.447276 -140.463189 
L 521.419876 -140.007914 
L 520.364006 -139.552638 
L 519.164088 -139.097362 
L 517.832089 -138.642087 
L 516.514542 -138.186811 
L 515.384691 -137.731536 
L 514.515703 -137.27626 
L 513.84542 -136.820984 
L 513.249475 -136.365709 
L 512.642986 -135.910433 
L 512.023731 -135.455158 
L 511.441674 -134.999882 
L 510.945953 -134.544607 
L 510.558528 -134.089331 
L 510.277282 -133.634055 
L 510.085344 -133.17878 
L 509.955879 -132.723504 
L 509.858303 -132.268229 
L 509.769112 -131.812953 
L 509.68032 -131.357677 
L 509.597057 -130.902402 
L 509.525193 -130.447126 
L 509.4609 -129.991851 
L 509.393294 -129.536575 
L 509.316897 -129.081299 
L 509.239411 -128.626024 
L 509.175936 -128.170748 
L 509.136008 -127.715473 
L 509.116805 -127.260197 
L 509.10778 -126.804922 
L 509.100019 -126.349646 
L 509.091081 -125.89437 
L 509.083071 -125.439095 
L 509.078565 -124.983819 
L 509.078748 -124.528544 
L 509.083539 -124.073268 
L 509.091438 -123.617992 
L 509.099047 -123.162717 
L 509.102225 -122.707441 
z
" id="mb9c9535102" style="stroke:#000000;stroke-opacity:0.3;stroke-width:0.48;"/>
    </defs>
    <g clip-path="url(#p37b7d1ed40)">
     <use style="fill-opacity:0.3;stroke:#000000;stroke-opacity:0.3;stroke-width:0.48;" x="0" xlink:href="#mb9c9535102" y="406.61164"/>
    </g>
   </g>
   <g id="line2d_148">
    <path clip-path="url(#p37b7d1ed40)" d="M 509.072009 259.83133 
" style="fill:none;stroke:#000000;stroke-linecap:round;stroke-width:2.8;"/>
    <g clip-path="url(#p37b7d1ed40)">
     <use x="509.072009" xlink:href="#m224bc03061" y="259.83133"/>
    </g>
   </g>
   <g id="line2d_149">
    <path clip-path="url(#p37b7d1ed40)" d="M 509.072009 270.489413 
L 509.072009 249.810768 
" style="fill:none;stroke:#000000;stroke-linecap:round;stroke-width:2;"/>
   </g>
   <g id="line2d_150">
    <path clip-path="url(#p37b7d1ed40)" d="M 394.090191 180.477006 
L 542.890191 180.477006 
" style="fill:none;stroke:#000000;stroke-linecap:round;stroke-width:0.5;"/>
   </g>
   <g id="patch_12">
    <path d="M 400.853827 286.157812 
L 509.072009 286.157812 
" style="fill:none;stroke:#262626;stroke-linecap:square;stroke-linejoin:miter;stroke-width:1.25;"/>
   </g>
  </g>
 </g>
 <defs>
  <clipPath id="p9e5c3f459f">
   <rect height="117.9" width="148.8" x="96.490191" y="14.357812"/>
  </clipPath>
  <clipPath id="pb5b5280360">
   <rect height="117.9" width="148.8" x="245.290191" y="14.357812"/>
  </clipPath>
  <clipPath id="p8cc0818850">
   <rect height="117.9" width="148.8" x="394.090191" y="14.357812"/>
  </clipPath>
  <clipPath id="pe8b2bd75b7">
   <rect height="117.9" width="148.8" x="96.490191" y="168.257812"/>
  </clipPath>
  <clipPath id="p1ac6618476">
   <rect height="117.9" width="148.8" x="245.290191" y="168.257812"/>
  </clipPath>
  <clipPath id="p37b7d1ed40">
   <rect height="117.9" width="148.8" x="394.090191" y="168.257812"/>
  </clipPath>
 </defs>
</svg>
