<?xml version="1.0" encoding="UTF-8" standalone="no"?><!DOCTYPE svg PUBLIC "-//W3C//DTD SVG 1.1//EN" "http://www.w3.org/Graphics/SVG/1.1/DTD/svg11.dtd"><svg width="100%" height="100%" viewBox="0 0 540 400" version="1.1" xmlns="http://www.w3.org/2000/svg" xmlns:xlink="http://www.w3.org/1999/xlink" xml:space="preserve" xmlns:serif="http://www.serif.com/" style="fill-rule:evenodd;clip-rule:evenodd;"><g><g id="axes_1"><rect id="patch_2" x="91.069" y="11.458" width="148.8" height="117.9" style="fill:none;"/><g id="matplotlib.axis_1"><g id="ytick_1"><path id="mc7feed96d9" d="M91.069,129.358l-6,0" style="fill:#262626;fill-rule:nonzero;stroke:#262626;stroke-width:1.6px;"/><text id="text_1" x="51.066px" y="136.516px" style="font-family:'ArialMT', 'Arial', sans-serif;font-size:20px;fill:#262626;">−4</text></g><g id="ytick_2"><path id="mc7feed96d91" serif:id="mc7feed96d9" d="M91.069,105.778l-6,0" style="fill:#262626;fill-rule:nonzero;stroke:#262626;stroke-width:1.6px;"/><text id="text_2" x="51.066px" y="112.936px" style="font-family:'ArialMT', 'Arial', sans-serif;font-size:20px;fill:#262626;">−2</text></g><g id="ytick_3"><path id="mc7feed96d92" serif:id="mc7feed96d9" d="M91.069,82.198l-6,0" style="fill:#262626;fill-rule:nonzero;stroke:#262626;stroke-width:1.6px;"/><text id="text_3" x="62.746px" y="89.356px" style="font-family:'ArialMT', 'Arial', sans-serif;font-size:20px;fill:#262626;">0</text></g><g id="ytick_4"><path id="mc7feed96d93" serif:id="mc7feed96d9" d="M91.069,58.618l-6,0" style="fill:#262626;fill-rule:nonzero;stroke:#262626;stroke-width:1.6px;"/><text id="text_4" x="62.746px" y="65.776px" style="font-family:'ArialMT', 'Arial', sans-serif;font-size:20px;fill:#262626;">2</text></g><g id="ytick_5"><path id="mc7feed96d94" serif:id="mc7feed96d9" d="M91.069,35.038l-6,0" style="fill:#262626;fill-rule:nonzero;stroke:#262626;stroke-width:1.6px;"/><text id="text_5" x="62.746px" y="42.196px" style="font-family:'ArialMT', 'Arial', sans-serif;font-size:20px;fill:#262626;">4</text></g><g id="ytick_6"><path id="mc7feed96d95" serif:id="mc7feed96d9" d="M91.069,11.458l-6,0" style="fill:#262626;fill-rule:nonzero;stroke:#262626;stroke-width:1.6px;"/><text id="text_6" x="62.746px" y="18.616px" style="font-family:'ArialMT', 'Arial', sans-serif;font-size:20px;fill:#262626;">6</text></g><g id="text_7" transform="matrix(-3.82857e-16,-1,1,-3.82857e-16,-27.7146,113.102)"><text x="16.397px" y="70.408px" style="font-family:'ArialMT', 'Arial', sans-serif;font-size:22px;fill:#262626;">value</text></g></g><path id="line2d_7" d="M97.833,61.572l108.218,16.229" style="fill:none;stroke:#4c72b0;stroke-width:0.75px;stroke-linecap:round;"/><path id="line2d_8" d="M97.833,85.571l108.218,5.84" style="fill:none;stroke:#4c72b0;stroke-width:0.75px;stroke-linecap:round;"/><path id="line2d_9" d="M97.833,87.911l108.218,-7.392" style="fill:none;stroke:#4c72b0;stroke-width:0.75px;stroke-linecap:round;"/><path id="line2d_10" d="M97.833,113.481l108.218,-10.052" style="fill:none;stroke:#4c72b0;stroke-width:0.75px;stroke-linecap:round;"/><path id="line2d_11" d="M97.833,82.296l108.218,-7.798" style="fill:none;stroke:#4c72b0;stroke-width:0.75px;stroke-linecap:round;"/><path id="line2d_12" d="M97.833,85.967l108.218,15.505" style="fill:none;stroke:#4c72b0;stroke-width:0.75px;stroke-linecap:round;"/><path id="line2d_13" d="M97.833,88.525l108.218,-5.208" style="fill:none;stroke:#4c72b0;stroke-width:0.75px;stroke-linecap:round;"/><path id="line2d_14" d="M97.833,78.48l108.218,6.315" style="fill:none;stroke:#4c72b0;stroke-width:0.75px;stroke-linecap:round;"/><path id="line2d_15" d="M97.833,77.234l108.218,15.657" style="fill:none;stroke:#4c72b0;stroke-width:0.75px;stroke-linecap:round;"/><path id="line2d_16" d="M97.833,94.762l108.218,-45.244" style="fill:none;stroke:#4c72b0;stroke-width:0.75px;stroke-linecap:round;"/><path id="line2d_17" d="M97.833,92.647l108.218,-2.222" style="fill:none;stroke:#4c72b0;stroke-width:0.75px;stroke-linecap:round;"/><path id="line2d_18" d="M97.833,87.807l108.218,-10" style="fill:none;stroke:#4c72b0;stroke-width:0.75px;stroke-linecap:round;"/><path id="line2d_19" d="M97.833,74.067l108.218,-3.611" style="fill:none;stroke:#4c72b0;stroke-width:0.75px;stroke-linecap:round;"/><path id="line2d_20" d="M97.833,75.582l108.218,22.122" style="fill:none;stroke:#4c72b0;stroke-width:0.75px;stroke-linecap:round;"/><path id="line2d_21" d="M97.833,97.591l108.218,-30.04" style="fill:none;stroke:#4c72b0;stroke-width:0.75px;stroke-linecap:round;"/><path id="line2d_22" d="M97.833,95.397l108.218,-10.58" style="fill:none;stroke:#4c72b0;stroke-width:0.75px;stroke-linecap:round;"/><path id="line2d_23" d="M97.833,73.511l108.218,-2.071" style="fill:none;stroke:#4c72b0;stroke-width:0.75px;stroke-linecap:round;"/><path id="line2d_24" d="M97.833,63.633l108.218,30.519" style="fill:none;stroke:#4c72b0;stroke-width:0.75px;stroke-linecap:round;"/><path id="line2d_25" d="M97.833,82.565l108.218,12.95" style="fill:none;stroke:#4c72b0;stroke-width:0.75px;stroke-linecap:round;"/><path id="line2d_26" d="M97.833,90.256l108.218,-21.142" style="fill:none;stroke:#4c72b0;stroke-width:0.75px;stroke-linecap:round;"/><path id="line2d_27" d="M97.833,69.281l108.218,8.179" style="fill:none;stroke:#55a868;stroke-width:0.75px;stroke-linecap:round;"/><path id="line2d_28" d="M97.833,85.848l108.218,-4.108" style="fill:none;stroke:#55a868;stroke-width:0.75px;stroke-linecap:round;"/><path id="line2d_29" d="M97.833,73.642l108.218,2.181" style="fill:none;stroke:#55a868;stroke-width:0.75px;stroke-linecap:round;"/><path id="line2d_30" d="M97.833,63.935l108.218,13.225" style="fill:none;stroke:#55a868;stroke-width:0.75px;stroke-linecap:round;"/><path id="line2d_31" d="M97.833,74.77l108.218,22.217" style="fill:none;stroke:#55a868;stroke-width:0.75px;stroke-linecap:round;"/><path id="line2d_32" d="M97.833,81.332l108.218,28.14" style="fill:none;stroke:#55a868;stroke-width:0.75px;stroke-linecap:round;"/><path id="line2d_33" d="M97.833,73.565l108.218,29.64" style="fill:none;stroke:#55a868;stroke-width:0.75px;stroke-linecap:round;"/><path id="line2d_34" d="M97.833,89.774l108.218,14.685" style="fill:none;stroke:#55a868;stroke-width:0.75px;stroke-linecap:round;"/><path id="line2d_35" d="M97.833,84.298l108.218,25.236" style="fill:none;stroke:#55a868;stroke-width:0.75px;stroke-linecap:round;"/><path id="line2d_36" d="M97.833,88.965l108.218,2.045" style="fill:none;stroke:#55a868;stroke-width:0.75px;stroke-linecap:round;"/><path id="line2d_37" d="M97.833,84.608l108.218,4.999" style="fill:none;stroke:#55a868;stroke-width:0.75px;stroke-linecap:round;"/><path id="line2d_38" d="M97.833,87.934l108.218,-4.095" style="fill:none;stroke:#55a868;stroke-width:0.75px;stroke-linecap:round;"/><path id="line2d_39" d="M97.833,84.388l108.218,-3.545" style="fill:none;stroke:#55a868;stroke-width:0.75px;stroke-linecap:round;"/><path id="line2d_40" d="M97.833,86.685l108.218,1.224" style="fill:none;stroke:#55a868;stroke-width:0.75px;stroke-linecap:round;"/><path id="line2d_41" d="M97.833,81.149l108.218,5.222" style="fill:none;stroke:#55a868;stroke-width:0.75px;stroke-linecap:round;"/><path id="line2d_42" d="M97.833,81.447l108.218,1.067" style="fill:none;stroke:#55a868;stroke-width:0.75px;stroke-linecap:round;"/><path id="line2d_43" d="M97.833,78.704l108.218,16.43" style="fill:none;stroke:#55a868;stroke-width:0.75px;stroke-linecap:round;"/><path id="line2d_44" d="M97.833,65.659l108.218,26.135" style="fill:none;stroke:#55a868;stroke-width:0.75px;stroke-linecap:round;"/><path id="line2d_45" d="M97.833,100.436l108.218,-17.476" style="fill:none;stroke:#55a868;stroke-width:0.75px;stroke-linecap:round;"/><path id="line2d_46" d="M97.833,66.923l108.218,24.447" style="fill:none;stroke:#55a868;stroke-width:0.75px;stroke-linecap:round;"/><path id="patch_3" d="M91.069,129.358l0,-117.9" style="fill:none;stroke:#262626;stroke-width:1.25px;stroke-linecap:square;"/></g><g id="axes_2"><rect id="patch_4" x="239.869" y="11.458" width="148.8" height="117.9" style="fill:none;"/><path id="line2d_47" d="M246.633,66.499l108.218,31.54" style="fill:none;stroke:#4c72b0;stroke-width:0.75px;stroke-linecap:round;"/><path id="line2d_48" d="M246.633,73.765l108.218,15.823" style="fill:none;stroke:#4c72b0;stroke-width:0.75px;stroke-linecap:round;"/><path id="line2d_49" d="M246.633,100.418l108.218,-4.408" style="fill:none;stroke:#4c72b0;stroke-width:0.75px;stroke-linecap:round;"/><path id="line2d_50" d="M246.633,82.297l108.218,18.199" style="fill:none;stroke:#4c72b0;stroke-width:0.75px;stroke-linecap:round;"/><path id="line2d_51" d="M246.633,74.873l108.218,16.06" style="fill:none;stroke:#4c72b0;stroke-width:0.75px;stroke-linecap:round;"/><path id="line2d_52" d="M246.633,90.688l108.218,26.172" style="fill:none;stroke:#4c72b0;stroke-width:0.75px;stroke-linecap:round;"/><path id="line2d_53" d="M246.633,79.068l108.218,29.132" style="fill:none;stroke:#4c72b0;stroke-width:0.75px;stroke-linecap:round;"/><path id="line2d_54" d="M246.633,80.918l108.218,27.177" style="fill:none;stroke:#4c72b0;stroke-width:0.75px;stroke-linecap:round;"/><path id="line2d_55" d="M246.633,82.148l108.218,15.798" style="fill:none;stroke:#4c72b0;stroke-width:0.75px;stroke-linecap:round;"/><path id="line2d_56" d="M246.633,84.257l108.218,15.875" style="fill:none;stroke:#4c72b0;stroke-width:0.75px;stroke-linecap:round;"/><path id="line2d_57" d="M246.633,77.093l108.218,19.497" style="fill:none;stroke:#4c72b0;stroke-width:0.75px;stroke-linecap:round;"/><path id="line2d_58" d="M246.633,68.014l108.218,21.368" style="fill:none;stroke:#4c72b0;stroke-width:0.75px;stroke-linecap:round;"/><path id="line2d_59" d="M246.633,93.576l108.218,-8.53" style="fill:none;stroke:#4c72b0;stroke-width:0.75px;stroke-linecap:round;"/><path id="line2d_60" d="M246.633,70.075l108.218,18.588" style="fill:none;stroke:#4c72b0;stroke-width:0.75px;stroke-linecap:round;"/><path id="line2d_61" d="M246.633,79.503l108.218,21.812" style="fill:none;stroke:#4c72b0;stroke-width:0.75px;stroke-linecap:round;"/><path id="line2d_62" d="M246.633,76.95l108.218,9.265" style="fill:none;stroke:#4c72b0;stroke-width:0.75px;stroke-linecap:round;"/><path id="line2d_63" d="M246.633,95.599l108.218,0.502" style="fill:none;stroke:#4c72b0;stroke-width:0.75px;stroke-linecap:round;"/><path id="line2d_64" d="M246.633,80.605l108.218,-7.37" style="fill:none;stroke:#4c72b0;stroke-width:0.75px;stroke-linecap:round;"/><path id="line2d_65" d="M246.633,64.695l108.218,20.453" style="fill:none;stroke:#4c72b0;stroke-width:0.75px;stroke-linecap:round;"/><path id="line2d_66" d="M246.633,94.929l108.218,-1.134" style="fill:none;stroke:#4c72b0;stroke-width:0.75px;stroke-linecap:round;"/><path id="line2d_67" d="M246.633,105.516l108.218,-10.389" style="fill:none;stroke:#55a868;stroke-width:0.75px;stroke-linecap:round;"/><path id="line2d_68" d="M246.633,102.753l108.218,3.972" style="fill:none;stroke:#55a868;stroke-width:0.75px;stroke-linecap:round;"/><path id="line2d_69" d="M246.633,79.061l108.218,13.349" style="fill:none;stroke:#55a868;stroke-width:0.75px;stroke-linecap:round;"/><path id="line2d_70" d="M246.633,54.079l108.218,54.661" style="fill:none;stroke:#55a868;stroke-width:0.75px;stroke-linecap:round;"/><path id="line2d_71" d="M246.633,68.95l108.218,20.512" style="fill:none;stroke:#55a868;stroke-width:0.75px;stroke-linecap:round;"/><path id="line2d_72" d="M246.633,62.478l108.218,55.613" style="fill:none;stroke:#55a868;stroke-width:0.75px;stroke-linecap:round;"/><path id="line2d_73" d="M246.633,81.029l108.218,28.096" style="fill:none;stroke:#55a868;stroke-width:0.75px;stroke-linecap:round;"/><path id="line2d_74" d="M246.633,65.716l108.218,9.793" style="fill:none;stroke:#55a868;stroke-width:0.75px;stroke-linecap:round;"/><path id="line2d_75" d="M246.633,85.396l108.218,-10.817" style="fill:none;stroke:#55a868;stroke-width:0.75px;stroke-linecap:round;"/><path id="line2d_76" d="M246.633,74.968l108.218,2.291" style="fill:none;stroke:#55a868;stroke-width:0.75px;stroke-linecap:round;"/><path id="line2d_77" d="M246.633,85.35l108.218,32.135" style="fill:none;stroke:#55a868;stroke-width:0.75px;stroke-linecap:round;"/><path id="line2d_78" d="M246.633,88.675l108.218,24.745" style="fill:none;stroke:#55a868;stroke-width:0.75px;stroke-linecap:round;"/><path id="line2d_79" d="M246.633,80.634l108.218,32.161" style="fill:none;stroke:#55a868;stroke-width:0.75px;stroke-linecap:round;"/><path id="line2d_80" d="M246.633,87.812l108.218,28.144" style="fill:none;stroke:#55a868;stroke-width:0.75px;stroke-linecap:round;"/><path id="line2d_81" d="M246.633,66.771l108.218,24.27" style="fill:none;stroke:#55a868;stroke-width:0.75px;stroke-linecap:round;"/><path id="line2d_82" d="M246.633,79.899l108.218,20.441" style="fill:none;stroke:#55a868;stroke-width:0.75px;stroke-linecap:round;"/><path id="line2d_83" d="M246.633,77.48l108.218,16.515" style="fill:none;stroke:#55a868;stroke-width:0.75px;stroke-linecap:round;"/><path id="line2d_84" d="M246.633,86.179l108.218,14.167" style="fill:none;stroke:#55a868;stroke-width:0.75px;stroke-linecap:round;"/><path id="line2d_85" d="M246.633,67.384l108.218,36.891" style="fill:none;stroke:#55a868;stroke-width:0.75px;stroke-linecap:round;"/><path id="line2d_86" d="M246.633,90.828l108.218,-23.412" style="fill:none;stroke:#55a868;stroke-width:0.75px;stroke-linecap:round;"/></g><g id="axes_3"><rect id="patch_5" x="388.669" y="11.458" width="148.8" height="117.9" style="fill:none;"/><path id="line2d_87" d="M395.433,14.919l108.218,73.32" style="fill:none;stroke:#4c72b0;stroke-width:0.75px;stroke-linecap:round;"/><path id="line2d_88" d="M395.433,34.011l108.218,36.942" style="fill:none;stroke:#4c72b0;stroke-width:0.75px;stroke-linecap:round;"/><path id="line2d_89" d="M395.433,32.782l108.218,47.583" style="fill:none;stroke:#4c72b0;stroke-width:0.75px;stroke-linecap:round;"/><path id="line2d_90" d="M395.433,35.976l108.218,38.537" style="fill:none;stroke:#4c72b0;stroke-width:0.75px;stroke-linecap:round;"/><path id="line2d_91" d="M395.433,61.032l108.218,2.949" style="fill:none;stroke:#4c72b0;stroke-width:0.75px;stroke-linecap:round;"/><path id="line2d_92" d="M395.433,33.162l108.218,40.402" style="fill:none;stroke:#4c72b0;stroke-width:0.75px;stroke-linecap:round;"/><path id="line2d_93" d="M395.433,54.507l108.218,9.414" style="fill:none;stroke:#4c72b0;stroke-width:0.75px;stroke-linecap:round;"/><path id="line2d_94" d="M395.433,32.3l108.218,37.386" style="fill:none;stroke:#4c72b0;stroke-width:0.75px;stroke-linecap:round;"/><path id="line2d_95" d="M395.433,42.278l108.218,20.128" style="fill:none;stroke:#4c72b0;stroke-width:0.75px;stroke-linecap:round;"/><path id="line2d_96" d="M395.433,20.973l108.218,71.192" style="fill:none;stroke:#4c72b0;stroke-width:0.75px;stroke-linecap:round;"/><path id="line2d_97" d="M395.433,37.454l108.218,51.688" style="fill:none;stroke:#4c72b0;stroke-width:0.75px;stroke-linecap:round;"/><path id="line2d_98" d="M395.433,34.848l108.218,59.866" style="fill:none;stroke:#4c72b0;stroke-width:0.75px;stroke-linecap:round;"/><path id="line2d_99" d="M395.433,48.987l108.218,24.217" style="fill:none;stroke:#4c72b0;stroke-width:0.75px;stroke-linecap:round;"/><path id="line2d_100" d="M395.433,26.709l108.218,56" style="fill:none;stroke:#4c72b0;stroke-width:0.75px;stroke-linecap:round;"/><path id="line2d_101" d="M395.433,37.377l108.218,31.69" style="fill:none;stroke:#4c72b0;stroke-width:0.75px;stroke-linecap:round;"/><path id="line2d_102" d="M395.433,26.993l108.218,49.106" style="fill:none;stroke:#4c72b0;stroke-width:0.75px;stroke-linecap:round;"/><path id="line2d_103" d="M395.433,24.521l108.218,53.818" style="fill:none;stroke:#4c72b0;stroke-width:0.75px;stroke-linecap:round;"/><path id="line2d_104" d="M395.433,24.949l108.218,29.538" style="fill:none;stroke:#4c72b0;stroke-width:0.75px;stroke-linecap:round;"/><path id="line2d_105" d="M395.433,38.118l108.218,34.574" style="fill:none;stroke:#4c72b0;stroke-width:0.75px;stroke-linecap:round;"/><path id="line2d_106" d="M395.433,59.574l108.218,20.582" style="fill:none;stroke:#4c72b0;stroke-width:0.75px;stroke-linecap:round;"/><path id="line2d_107" d="M395.433,50.239l108.218,41.204" style="fill:none;stroke:#55a868;stroke-width:0.75px;stroke-linecap:round;"/><path id="line2d_108" d="M395.433,24.193l108.218,41.609" style="fill:none;stroke:#55a868;stroke-width:0.75px;stroke-linecap:round;"/><path id="line2d_109" d="M395.433,21.949l108.218,46.657" style="fill:none;stroke:#55a868;stroke-width:0.75px;stroke-linecap:round;"/><path id="line2d_110" d="M395.433,18.268l108.218,74.39" style="fill:none;stroke:#55a868;stroke-width:0.75px;stroke-linecap:round;"/><path id="line2d_111" d="M395.433,42.162l108.218,39.39" style="fill:none;stroke:#55a868;stroke-width:0.75px;stroke-linecap:round;"/><path id="line2d_112" d="M395.433,47.77l108.218,29.266" style="fill:none;stroke:#55a868;stroke-width:0.75px;stroke-linecap:round;"/><path id="line2d_113" d="M395.433,23.176l108.218,75.989" style="fill:none;stroke:#55a868;stroke-width:0.75px;stroke-linecap:round;"/><path id="line2d_114" d="M395.433,23.715l108.218,59.404" style="fill:none;stroke:#55a868;stroke-width:0.75px;stroke-linecap:round;"/><path id="line2d_115" d="M395.433,34.751l108.218,28.592" style="fill:none;stroke:#55a868;stroke-width:0.75px;stroke-linecap:round;"/><path id="line2d_116" d="M395.433,35.092l108.218,63.79" style="fill:none;stroke:#55a868;stroke-width:0.75px;stroke-linecap:round;"/><path id="line2d_117" d="M395.433,52.535l108.218,21.518" style="fill:none;stroke:#55a868;stroke-width:0.75px;stroke-linecap:round;"/><path id="line2d_118" d="M395.433,37.739l108.218,19.786" style="fill:none;stroke:#55a868;stroke-width:0.75px;stroke-linecap:round;"/><path id="line2d_119" d="M395.433,17.834l108.218,69.328" style="fill:none;stroke:#55a868;stroke-width:0.75px;stroke-linecap:round;"/><path id="line2d_120" d="M395.433,46.921l108.218,38.269" style="fill:none;stroke:#55a868;stroke-width:0.75px;stroke-linecap:round;"/><path id="line2d_121" d="M395.433,41.134l108.218,36.142" style="fill:none;stroke:#55a868;stroke-width:0.75px;stroke-linecap:round;"/><path id="line2d_122" d="M395.433,36.976l108.218,36.8" style="fill:none;stroke:#55a868;stroke-width:0.75px;stroke-linecap:round;"/><path id="line2d_123" d="M395.433,39.256l108.218,35.901" style="fill:none;stroke:#55a868;stroke-width:0.75px;stroke-linecap:round;"/><path id="line2d_124" d="M395.433,58.457l108.218,39.22" style="fill:none;stroke:#55a868;stroke-width:0.75px;stroke-linecap:round;"/><path id="line2d_125" d="M395.433,41.527l108.218,47.321" style="fill:none;stroke:#55a868;stroke-width:0.75px;stroke-linecap:round;"/><path id="line2d_126" d="M395.433,42.363l108.218,36.283" style="fill:none;stroke:#55a868;stroke-width:0.75px;stroke-linecap:round;"/></g><g id="axes_4"><rect id="patch_6" x="91.069" y="165.358" width="148.8" height="117.9" style="fill:none;"/><g id="matplotlib.axis_2"><g id="xtick_1"><path id="med4ea69e9a" d="M97.833,283.258l0,6" style="fill:#262626;fill-rule:nonzero;stroke:#262626;stroke-width:1.6px;"/><g id="text_10" transform="matrix(0.707107,-0.707107,0.707107,0.707107,-274.852,123.85)"><text x="12.074px" y="393.701px" style="font-family:'ArialMT', 'Arial', sans-serif;font-size:20px;fill:#262626;">Group1 n=40</text></g></g><g id="xtick_2"><path id="med4ea69e9a1" serif:id="med4ea69e9a" d="M206.051,283.258l0,6" style="fill:#262626;fill-rule:nonzero;stroke:#262626;stroke-width:1.6px;"/><g id="text_11" transform="matrix(0.707107,-0.707107,0.707107,0.707107,-243.156,200.372)"><text x="120.292px" y="393.701px" style="font-family:'ArialMT', 'Arial', sans-serif;font-size:20px;fill:#262626;">Group2 n=40</text></g></g></g><g id="matplotlib.axis_3"><g id="ytick_7"><path id="mc7feed96d96" serif:id="mc7feed96d9" d="M91.069,267.226l-6,0" style="fill:#262626;fill-rule:nonzero;stroke:#262626;stroke-width:1.6px;"/><text id="text_12" x="51.066px" y="274.383px" style="font-family:'ArialMT', 'Arial', sans-serif;font-size:20px;fill:#262626;">−4</text></g><g id="ytick_8"><path id="mc7feed96d97" serif:id="mc7feed96d9" d="M91.069,244.814l-6,0" style="fill:#262626;fill-rule:nonzero;stroke:#262626;stroke-width:1.6px;"/><text id="text_13" x="51.066px" y="251.971px" style="font-family:'ArialMT', 'Arial', sans-serif;font-size:20px;fill:#262626;">−3</text></g><g id="ytick_9"><path id="mc7feed96d98" serif:id="mc7feed96d9" d="M91.069,222.401l-6,0" style="fill:#262626;fill-rule:nonzero;stroke:#262626;stroke-width:1.6px;"/><text id="text_14" x="51.066px" y="229.559px" style="font-family:'ArialMT', 'Arial', sans-serif;font-size:20px;fill:#262626;">−2</text></g><g id="ytick_10"><path id="mc7feed96d99" serif:id="mc7feed96d9" d="M91.069,199.989l-6,0" style="fill:#262626;fill-rule:nonzero;stroke:#262626;stroke-width:1.6px;"/><text id="text_15" x="51.066px" y="207.147px" style="font-family:'ArialMT', 'Arial', sans-serif;font-size:20px;fill:#262626;">−1</text></g><g id="ytick_11"><path id="mc7feed96d910" serif:id="mc7feed96d9" d="M91.069,177.577l-6,0" style="fill:#262626;fill-rule:nonzero;stroke:#262626;stroke-width:1.6px;"/><text id="text_16" x="62.746px" y="184.735px" style="font-family:'ArialMT', 'Arial', sans-serif;font-size:20px;fill:#262626;">0</text></g><g id="text_17"><g transform="matrix(-3.82857e-16,-1,1,-3.82857e-16,-262.366,301.214)"><text x="19.424px" y="281.79px" style="font-family:'ArialMT', 'Arial', sans-serif;font-size:22px;fill:#262626;">paired delta</text></g><g transform="matrix(-3.82857e-16,-1,1,-3.82857e-16,-207.91,293.297)"><text x="42.694px" y="250.603px" style="font-family:'ArialMT', 'Arial', sans-serif;font-size:22px;fill:#262626;">value</text></g></g></g><path id="m956cb69e57" d="M206.143,202.178l-0.091,0l0,-0.354l0,-0.354l0,-0.354l0,-0.354l0,-0.355l0,-0.354l0,-0.354l0,-0.354l0,-0.354l0,-0.355l0,-0.354l0,-0.354l0,-0.354l0,-0.354l0,-0.355l0,-0.354l0,-0.354l0,-0.354l0,-0.355l0,-0.354l0,-0.354l0,-0.354l0,-0.354l0,-0.355l0,-0.354l0,-0.354l0,-0.354l0,-0.354l0,-0.355l0,-0.354l0,-0.354l0,-0.354l0,-0.355l0,-0.354l0,-0.354l0,-0.354l0,-0.354l0,-0.355l0,-0.354l0,-0.354l0,-0.354l0,-0.354l0,-0.355l0,-0.354l0,-0.354l0,-0.354l0,-0.354l0,-0.355l0,-0.354l0,-0.354l0,-0.354l0,-0.355l0,-0.354l0,-0.354l0,-0.354l0,-0.354l0,-0.355l0,-0.354l0,-0.354l0,-0.354l0,-0.354l0,-0.355l0,-0.354l0,-0.354l0,-0.354l0,-0.355l0,-0.354l0,-0.354l0,-0.354l0,-0.354l0,-0.355l0,-0.354l0,-0.354l0,-0.354l0,-0.354l0,-0.355l0,-0.354l0,-0.354l0,-0.354l0,-0.354l0,-0.355l0,-0.354l0,-0.354l0,-0.354l0,-0.355l0,-0.354l0,-0.354l0,-0.354l0,-0.354l0,-0.355l0,-0.354l0,-0.354l0,-0.354l0,-0.354l0,-0.355l0,-0.354l0,-0.354l0,-0.354l0,-0.354l0.048,0l0.019,0.354l0.029,0.354l0.041,0.354l0.053,0.354l0.062,0.355l0.065,0.354l0.068,0.354l0.071,0.354l0.073,0.354l0.073,0.355l0.068,0.354l0.063,0.354l0.059,0.354l0.07,0.354l0.099,0.355l0.152,0.354l0.218,0.354l0.282,0.354l0.328,0.355l0.347,0.354l0.353,0.354l0.368,0.354l0.415,0.354l0.505,0.355l0.621,0.354l0.735,0.354l0.805,0.354l0.811,0.354l0.757,0.355l0.688,0.354l0.658,0.354l0.694,0.354l0.79,0.354l0.916,0.355l1.044,0.354l1.163,0.354l1.261,0.354l1.323,0.355l1.324,0.354l1.254,0.354l1.136,0.354l1.018,0.354l0.93,0.355l0.874,0.354l0.811,0.354l0.713,0.354l0.584,0.354l0.455,0.355l0.354,0.354l0.286,0.354l0.252,0.354l0.243,0.355l0.243,0.354l0.223,0.354l0.151,0.354l0.008,0.354l-0.21,0.355l-0.486,0.354l-0.788,0.354l-1.077,0.354l-1.32,0.354l-1.481,0.355l-1.526,0.354l-1.44,0.354l-1.256,0.354l-1.053,0.354l-0.915,0.355l-0.88,0.354l-0.934,0.354l-1.031,0.354l-1.128,0.355l-1.195,0.354l-1.215,0.354l-1.174,0.354l-1.079,0.354l-0.954,0.355l-0.83,0.354l-0.72,0.354l-0.627,0.354l-0.541,0.354l-0.456,0.355l-0.377,0.354l-0.303,0.354l-0.242,0.354l-0.198,0.355l-0.177,0.354l-0.174,0.354l-0.18,0.354l-0.184,0.354l-0.173,0.355l-0.151,0.354l-0.125,0.354l-0.102,0.354l-0.081,0.354l-0.062,0.355l-0.044,0.354l-0.03,0.354l-0.022,0.354l-0.022,0.354Z" style="fill-opacity:0.298039;fill-rule:nonzero;stroke:#000;stroke-opacity:0.298039;stroke-width:0.48px;"/><path id="m224bc03061" d="M206.051,190.448c1.326,0 2.598,-0.526 3.536,-1.464c0.937,-0.938 1.464,-2.209 1.464,-3.536c0,-1.326 -0.527,-2.597 -1.464,-3.535c-0.938,-0.938 -2.21,-1.465 -3.536,-1.465c-1.326,0 -2.598,0.527 -3.536,1.465c-0.937,0.938 -1.464,2.209 -1.464,3.535c0,1.327 0.527,2.598 1.464,3.536c0.938,0.938 2.21,1.464 3.536,1.464Z" style="fill-rule:nonzero;"/><path id="line2d_139" d="M206.051,194.273l0,-19.444" style="fill:none;stroke:#000;stroke-width:2px;stroke-linecap:round;"/><path id="line2d_140" d="M91.069,177.577l148.8,0" style="fill:none;stroke:#000;stroke-width:0.5px;stroke-linecap:round;"/><path id="patch_7" d="M91.069,267.226l0,-89.649" style="fill:none;stroke:#262626;stroke-width:1.25px;stroke-linecap:square;"/><path id="patch_8" d="M97.833,283.258l108.218,0" style="fill:none;stroke:#262626;stroke-width:1.25px;stroke-linecap:square;"/></g><g id="axes_5"><rect id="patch_9" x="239.869" y="165.358" width="148.8" height="117.9" style="fill:none;"/><g id="matplotlib.axis_4"><g id="xtick_3"><path id="med4ea69e9a2" serif:id="med4ea69e9a" d="M246.633,283.258l0,6" style="fill:#262626;fill-rule:nonzero;stroke:#262626;stroke-width:1.6px;"/><g id="text_18" transform="matrix(0.707107,-0.707107,0.707107,0.707107,-229.568,229.671)"><text x="162.454px" y="391.949px" style="font-family:'ArialMT', 'Arial', sans-serif;font-size:20px;fill:#262626;">Control n=40</text></g></g><g id="xtick_4"><path id="med4ea69e9a3" serif:id="med4ea69e9a" d="M354.851,283.258l0,6" style="fill:#262626;fill-rule:nonzero;stroke:#262626;stroke-width:1.6px;"/><g id="text_19" transform="matrix(0.707107,-0.707107,0.707107,0.707107,-199.574,305.589)"><text x="269.092px" y="393.701px" style="font-family:'ArialMT', 'Arial', sans-serif;font-size:20px;fill:#262626;">Group5 n=40</text></g></g></g><path id="m2f8cccb887" d="M354.884,228.152l-0.032,0l0,-0.356l0,-0.357l0,-0.356l0,-0.357l0,-0.356l0,-0.356l0,-0.357l0,-0.356l0,-0.357l0,-0.356l0,-0.357l0,-0.356l0,-0.356l0,-0.357l0,-0.356l0,-0.357l0,-0.356l0,-0.357l0,-0.356l0,-0.356l0,-0.357l0,-0.356l0,-0.357l0,-0.356l0,-0.357l0,-0.356l0,-0.356l0,-0.357l0,-0.356l0,-0.357l0,-0.356l0,-0.357l0,-0.356l0,-0.357l0,-0.356l0,-0.356l0,-0.357l0,-0.356l0,-0.357l0,-0.356l0,-0.357l0,-0.356l0,-0.356l0,-0.357l0,-0.356l0,-0.357l0,-0.356l0,-0.357l0,-0.356l0,-0.356l0,-0.357l0,-0.356l0,-0.357l0,-0.356l0,-0.357l0,-0.356l0,-0.356l0,-0.357l0,-0.356l0,-0.357l0,-0.356l0,-0.357l0,-0.356l0,-0.357l0,-0.356l0,-0.356l0,-0.357l0,-0.356l0,-0.357l0,-0.356l0,-0.357l0,-0.356l0,-0.356l0,-0.357l0,-0.356l0,-0.357l0,-0.356l0,-0.357l0,-0.356l0,-0.356l0,-0.357l0,-0.356l0,-0.357l0,-0.356l0,-0.357l0,-0.356l0,-0.356l0,-0.357l0,-0.356l0,-0.357l0,-0.356l0,-0.357l0,-0.356l0,-0.356l0,-0.357l0,-0.356l0,-0.357l0,-0.356l0,-0.357l0.213,0l0.086,0.357l0.094,0.356l0.095,0.357l0.089,0.356l0.081,0.357l0.075,0.356l0.076,0.356l0.085,0.357l0.109,0.356l0.142,0.357l0.181,0.356l0.221,0.357l0.258,0.356l0.302,0.356l0.357,0.357l0.427,0.356l0.499,0.357l0.563,0.356l0.606,0.357l0.633,0.356l0.65,0.356l0.666,0.357l0.699,0.356l0.75,0.357l0.819,0.356l0.883,0.357l0.934,0.356l0.976,0.356l1.017,0.357l1.06,0.356l1.102,0.357l1.167,0.356l1.282,0.357l1.444,0.356l1.588,0.356l1.62,0.357l1.491,0.356l1.224,0.357l0.892,0.356l0.568,0.357l0.308,0.356l0.148,0.357l0.111,0.356l0.159,0.356l0.195,0.357l0.109,0.356l-0.144,0.357l-0.499,0.356l-0.839,0.357l-1.055,0.356l-1.113,0.356l-1.044,0.357l-0.918,0.356l-0.807,0.357l-0.757,0.356l-0.779,0.357l-0.853,0.356l-0.943,0.356l-1.019,0.357l-1.062,0.356l-1.08,0.357l-1.076,0.356l-1.053,0.357l-1.005,0.356l-0.94,0.356l-0.881,0.357l-0.843,0.356l-0.829,0.357l-0.817,0.356l-0.783,0.357l-0.716,0.356l-0.63,0.357l-0.554,0.356l-0.515,0.356l-0.508,0.357l-0.509,0.356l-0.483,0.357l-0.419,0.356l-0.328,0.357l-0.231,0.356l-0.151,0.356l-0.097,0.357l-0.074,0.356l-0.073,0.357l-0.084,0.356l-0.094,0.357l-0.096,0.356l-0.087,0.356l-0.068,0.357l-0.047,0.356l-0.03,0.357l-0.019,0.356l-0.016,0.357l-0.014,0.356l-0.014,0.356l-0.012,0.357l-0.007,0.356l-0.003,0.357l-0.004,0.356Z" style="fill-opacity:0.298039;fill-rule:nonzero;stroke:#000;stroke-opacity:0.298039;stroke-width:0.48px;"/><path id="m224bc030611" serif:id="m224bc03061" d="M354.851,213.893c1.326,0 2.598,-0.526 3.536,-1.464c0.937,-0.938 1.464,-2.21 1.464,-3.536c0,-1.326 -0.527,-2.598 -1.464,-3.535c-0.938,-0.938 -2.21,-1.465 -3.536,-1.465c-1.326,0 -2.598,0.527 -3.536,1.465c-0.937,0.937 -1.464,2.209 -1.464,3.535c0,1.326 0.527,2.598 1.464,3.536c0.938,0.938 2.21,1.464 3.536,1.464Z" style="fill-rule:nonzero;"/><path id="line2d_144" d="M354.851,218.302l0,-19.238" style="fill:none;stroke:#000;stroke-width:2px;stroke-linecap:round;"/><path id="line2d_145" d="M239.869,177.577l148.8,0" style="fill:none;stroke:#000;stroke-width:0.5px;stroke-linecap:round;"/><path id="patch_10" d="M246.633,283.258l108.218,0" style="fill:none;stroke:#262626;stroke-width:1.25px;stroke-linecap:square;"/></g><g id="axes_6"><rect id="patch_11" x="388.669" y="165.358" width="148.8" height="117.9" style="fill:none;"/><g id="matplotlib.axis_5"><g id="xtick_5"><path id="med4ea69e9a4" serif:id="med4ea69e9a" d="M395.433,283.258l0,6" style="fill:#262626;fill-rule:nonzero;stroke:#262626;stroke-width:1.6px;"/><g id="text_20" transform="matrix(0.707107,-0.707107,0.707107,0.707107,-187.687,334.285)"><text x="309.674px" y="393.701px" style="font-family:'ArialMT', 'Arial', sans-serif;font-size:20px;fill:#262626;">Group4 n=40</text></g></g><g id="xtick_6"><path id="med4ea69e9a5" serif:id="med4ea69e9a" d="M503.651,283.258l0,6" style="fill:#262626;fill-rule:nonzero;stroke:#262626;stroke-width:1.6px;"/><g id="text_21" transform="matrix(0.707107,-0.707107,0.707107,0.707107,-155.991,410.807)"><text x="417.892px" y="393.701px" style="font-family:'ArialMT', 'Arial', sans-serif;font-size:20px;fill:#262626;">Group3 n=40</text></g></g></g><path id="mb9c9535102" d="M503.681,281.005l-0.03,0l0,-0.456l0,-0.455l0,-0.455l0,-0.456l0,-0.455l0,-0.455l0,-0.455l0,-0.456l0,-0.455l0,-0.455l0,-0.455l0,-0.456l0,-0.455l0,-0.455l0,-0.456l0,-0.455l0,-0.455l0,-0.455l0,-0.456l0,-0.455l0,-0.455l0,-0.456l0,-0.455l0,-0.455l0,-0.455l0,-0.456l0,-0.455l0,-0.455l0,-0.455l0,-0.456l0,-0.455l0,-0.455l0,-0.456l0,-0.455l0,-0.455l0,-0.455l0,-0.456l0,-0.455l0,-0.455l0,-0.455l0,-0.456l0,-0.455l0,-0.455l0,-0.456l0,-0.455l0,-0.455l0,-0.455l0,-0.456l0,-0.455l0,-0.455l0,-0.456l0,-0.455l0,-0.455l0,-0.455l0,-0.456l0,-0.455l0,-0.455l0,-0.455l0,-0.456l0,-0.455l0,-0.455l0,-0.456l0,-0.455l0,-0.455l0,-0.455l0,-0.456l0,-0.455l0,-0.455l0,-0.455l0,-0.456l0,-0.455l0,-0.455l0,-0.456l0,-0.455l0,-0.455l0,-0.455l0,-0.456l0,-0.455l0,-0.455l0,-0.456l0,-0.455l0,-0.455l0,-0.455l0,-0.456l0,-0.455l0,-0.455l0,-0.455l0,-0.456l0,-0.455l0,-0.455l0,-0.456l0,-0.455l0,-0.455l0,-0.455l0,-0.456l0,-0.455l0,-0.455l0,-0.455l0,-0.456l0.031,0l-0.001,0.456l-0.003,0.455l0.003,0.455l0.014,0.455l0.025,0.456l0.031,0.455l0.03,0.455l0.028,0.455l0.033,0.456l0.049,0.455l0.075,0.455l0.101,0.456l0.125,0.455l0.147,0.455l0.169,0.455l0.186,0.456l0.196,0.455l0.215,0.455l0.263,0.455l0.346,0.456l0.441,0.455l0.515,0.455l0.559,0.456l0.597,0.455l0.68,0.455l0.844,0.455l1.058,0.456l1.25,0.455l1.367,0.455l1.418,0.456l1.441,0.455l1.443,0.455l1.401,0.455l1.332,0.456l1.29,0.455l1.331,0.455l1.437,0.455l1.536,0.456l1.529,0.455l1.348,0.455l0.994,0.456l0.578,0.455l0.247,0.455l0.092,0.455l0.082,0.456l0.113,0.455l0.069,0.455l-0.134,0.455l-0.491,0.456l-0.897,0.455l-1.187,0.455l-1.267,0.456l-1.182,0.455l-1.08,0.455l-1.086,0.455l-1.208,0.456l-1.341,0.455l-1.38,0.455l-1.292,0.456l-1.135,0.455l-1.027,0.455l-1.056,0.455l-1.2,0.456l-1.332,0.455l-1.317,0.455l-1.13,0.455l-0.869,0.456l-0.671,0.455l-0.596,0.455l-0.606,0.456l-0.619,0.455l-0.582,0.455l-0.496,0.455l-0.387,0.456l-0.282,0.455l-0.192,0.455l-0.129,0.455l-0.098,0.456l-0.089,0.455l-0.089,0.455l-0.083,0.456l-0.072,0.455l-0.064,0.455l-0.068,0.455l-0.076,0.456l-0.078,0.455l-0.063,0.455l-0.04,0.456l-0.019,0.455l-0.009,0.455l-0.008,0.455l-0.009,0.456l-0.008,0.455l-0.004,0.455l0,0.455l0.005,0.456l0.007,0.455l0.008,0.455l0.003,0.456Z" style="fill-opacity:0.298039;fill-rule:nonzero;stroke:#000;stroke-opacity:0.298039;stroke-width:0.48px;"/><path id="m224bc030612" serif:id="m224bc03061" d="M503.651,261.932c1.326,0 2.598,-0.527 3.536,-1.465c0.937,-0.937 1.464,-2.209 1.464,-3.535c0,-1.326 -0.527,-2.598 -1.464,-3.536c-0.938,-0.937 -2.21,-1.464 -3.536,-1.464c-1.326,0 -2.598,0.527 -3.536,1.464c-0.937,0.938 -1.464,2.21 -1.464,3.536c0,1.326 0.527,2.598 1.464,3.535c0.938,0.938 2.21,1.465 3.536,1.465Z" style="fill-rule:nonzero;"/><path id="line2d_149" d="M503.651,267.59l0,-20.679" style="fill:none;stroke:#000;stroke-width:2px;stroke-linecap:round;"/><path id="line2d_150" d="M388.669,177.577l148.8,0" style="fill:none;stroke:#000;stroke-width:0.5px;stroke-linecap:round;"/><path id="patch_12" d="M395.433,283.258l108.218,0" style="fill:none;stroke:#262626;stroke-width:1.25px;stroke-linecap:square;"/></g></g></svg>