<?xml version="1.0" encoding="utf-8" standalone="no"?>
<!DOCTYPE svg PUBLIC "-//W3C//DTD SVG 1.1//EN"
  "http://www.w3.org/Graphics/SVG/1.1/DTD/svg11.dtd">
<!-- Created with matplotlib (http://matplotlib.org/) -->
<svg height="589.359404pt" version="1.1" viewBox="0 0 371.217498 589.359404" width="371.217498pt" xmlns="http://www.w3.org/2000/svg" xmlns:xlink="http://www.w3.org/1999/xlink">
 <defs>
  <style type="text/css">
    @import url('https://fonts.googleapis.com/css?family=Work+Sans');
    *{stroke-linecap:butt;stroke-linejoin:round;}
  </style>
 </defs>
 <g id="figure_1">
  <g id="patch_1">
   <path d="M 0 589.359404
L 371.217498 589.359404
L 371.217498 0
L 0 0
z
" style="fill:none;"/>
  </g>
  <g id="axes_1">
   <g id="patch_2">
    <path d="M 86.561248 454.08
L 309.761248 454.08
L 309.761248 19.2
L 86.561248 19.2
z
" style="fill:none;"/>
   </g>
   <g id="matplotlib.axis_1">
    <g id="xtick_1">
     <g id="line2d_1">
      <defs>
       <path d="M 0 0
L 0 12
" id="meaa60034b6" style="stroke:#262626;stroke-width:1.6;"/>
      </defs>
      <g>
       <use style="fill:#262626;stroke:#262626;stroke-width:1.6;" x="111.361248" xlink:href="#meaa60034b6" y="454.08"/>
      </g>
     </g>
     <g id="text_1">
      <text style="fill:#262626;font-family:Work Sans;font-size:20px;font-style:normal;font-weight:normal;" transform="translate(17.369079 578.4714)rotate(-45)">Control n=20</text>
     </g>
    </g>
    <g id="xtick_2">
     <g id="line2d_2">
      <g>
       <use style="fill:#262626;stroke:#262626;stroke-width:1.6;" x="210.561248" xlink:href="#meaa60034b6" y="454.08"/>
      </g>
     </g>
     <g id="text_2">
      <text style="fill:#262626;font-family:Work Sans;font-size:20px;font-style:normal;font-weight:normal;" transform="translate(115.850924 579.189555)rotate(-45)">Group 1 n=20</text>
     </g>
    </g>
   </g>
   <g id="matplotlib.axis_2">
    <g id="ytick_1">
     <g id="line2d_3">
      <defs>
       <path d="M 0 0
L -12 0
" id="maba214f165" style="stroke:#262626;stroke-width:1.6;"/>
      </defs>
      <g>
       <use style="fill:#262626;stroke:#262626;stroke-width:1.6;" x="86.561248" xlink:href="#maba214f165" y="407.336983"/>
      </g>
     </g>
     <g id="text_3">
      <text style="fill:#262626;font-family:Work Sans;font-size:20px;font-style:normal;font-weight:normal;text-anchor:end;" transform="rotate(-0, 63.361248, 414.527608)" x="63.361248" y="414.527608">2.0</text>
     </g>
    </g>
    <g id="ytick_2">
     <g id="line2d_4">
      <g>
       <use style="fill:#262626;stroke:#262626;stroke-width:1.6;" x="86.561248" xlink:href="#maba214f165" y="346.580057"/>
      </g>
     </g>
     <g id="text_4">
      <text style="fill:#262626;font-family:Work Sans;font-size:20px;font-style:normal;font-weight:normal;text-anchor:end;" transform="rotate(-0, 63.361248, 353.770682)" x="63.361248" y="353.770682">2.5</text>
     </g>
    </g>
    <g id="ytick_3">
     <g id="line2d_5">
      <g>
       <use style="fill:#262626;stroke:#262626;stroke-width:1.6;" x="86.561248" xlink:href="#maba214f165" y="285.823132"/>
      </g>
     </g>
     <g id="text_5">
      <text style="fill:#262626;font-family:Work Sans;font-size:20px;font-style:normal;font-weight:normal;text-anchor:end;" transform="rotate(-0, 63.361248, 293.013757)" x="63.361248" y="293.013757">3.0</text>
     </g>
    </g>
    <g id="ytick_4">
     <g id="line2d_6">
      <g>
       <use style="fill:#262626;stroke:#262626;stroke-width:1.6;" x="86.561248" xlink:href="#maba214f165" y="225.066206"/>
      </g>
     </g>
     <g id="text_6">
      <text style="fill:#262626;font-family:Work Sans;font-size:20px;font-style:normal;font-weight:normal;text-anchor:end;" transform="rotate(-0, 63.361248, 232.256831)" x="63.361248" y="232.256831">3.5</text>
     </g>
    </g>
    <g id="ytick_5">
     <g id="line2d_7">
      <g>
       <use style="fill:#262626;stroke:#262626;stroke-width:1.6;" x="86.561248" xlink:href="#maba214f165" y="164.309281"/>
      </g>
     </g>
     <g id="text_7">
      <text style="fill:#262626;font-family:Work Sans;font-size:20px;font-style:normal;font-weight:normal;text-anchor:end;" transform="rotate(-0, 63.361248, 171.499906)" x="63.361248" y="171.499906">4.0</text>
     </g>
    </g>
    <g id="ytick_6">
     <g id="line2d_8">
      <g>
       <use style="fill:#262626;stroke:#262626;stroke-width:1.6;" x="86.561248" xlink:href="#maba214f165" y="103.552355"/>
      </g>
     </g>
     <g id="text_8">
      <text style="fill:#262626;font-family:Work Sans;font-size:20px;font-style:normal;font-weight:normal;text-anchor:end;" transform="rotate(-0, 63.361248, 110.74298)" x="63.361248" y="110.74298">4.5</text>
     </g>
    </g>
    <g id="ytick_7">
     <g id="line2d_9">
      <g>
       <use style="fill:#262626;stroke:#262626;stroke-width:1.6;" x="86.561248" xlink:href="#maba214f165" y="42.79543"/>
      </g>
     </g>
     <g id="text_9">
      <text style="fill:#262626;font-family:Work Sans;font-size:20px;font-style:normal;font-weight:normal;text-anchor:end;" transform="rotate(-0, 63.361248, 49.986055)" x="63.361248" y="49.986055">5.0</text>
     </g>
    </g>
    <g id="text_10">
     <text style="fill:#262626;font-family:Work Sans;font-size:22px;font-style:normal;font-weight:normal;text-anchor:middle;" transform="rotate(-90, 23.744373, 236.64)" x="23.744373" y="236.64">value</text>
    </g>
   </g>
   <g id="line2d_10">
    <path clip-path="url(#pa1842ab6f3)" d="M 111.361248 339.025426
L 210.561248 178.776058
" style="fill:none;stroke:#000000;stroke-linecap:round;"/>
   </g>
   <g id="line2d_11">
    <path clip-path="url(#pa1842ab6f3)" d="M 111.361248 318.739801
L 210.561248 252.845686
" style="fill:none;stroke:#000000;stroke-linecap:round;"/>
   </g>
   <g id="line2d_12">
    <path clip-path="url(#pa1842ab6f3)" d="M 111.361248 247.756698
L 210.561248 181.77789
" style="fill:none;stroke:#000000;stroke-linecap:round;"/>
   </g>
   <g id="line2d_13">
    <path clip-path="url(#pa1842ab6f3)" d="M 111.361248 346.311192
L 210.561248 138.356878
" style="fill:none;stroke:#000000;stroke-linecap:round;"/>
   </g>
   <g id="line2d_14">
    <path clip-path="url(#pa1842ab6f3)" d="M 111.361248 308.905649
L 210.561248 280.988756
" style="fill:none;stroke:#000000;stroke-linecap:round;"/>
   </g>
   <g id="line2d_15">
    <path clip-path="url(#pa1842ab6f3)" d="M 111.361248 310.756282
L 210.561248 164.395234
" style="fill:none;stroke:#000000;stroke-linecap:round;"/>
   </g>
   <g id="line2d_16">
    <path clip-path="url(#pa1842ab6f3)" d="M 111.361248 307.691146
L 210.561248 267.668383
" style="fill:none;stroke:#000000;stroke-linecap:round;"/>
   </g>
   <g id="line2d_17">
    <path clip-path="url(#pa1842ab6f3)" d="M 111.361248 282.175736
L 210.561248 229.848576
" style="fill:none;stroke:#000000;stroke-linecap:round;"/>
   </g>
   <g id="line2d_18">
    <path clip-path="url(#pa1842ab6f3)" d="M 111.361248 382.38892
L 210.561248 317.110533
" style="fill:none;stroke:#000000;stroke-linecap:round;"/>
   </g>
   <g id="line2d_19">
    <path clip-path="url(#pa1842ab6f3)" d="M 111.361248 321.257236
L 210.561248 235.027262
" style="fill:none;stroke:#000000;stroke-linecap:round;"/>
   </g>
   <g id="line2d_20">
    <path clip-path="url(#pa1842ab6f3)" d="M 111.361248 216.501372
L 210.561248 329.924052
" style="fill:none;stroke:#000000;stroke-linecap:round;"/>
   </g>
   <g id="line2d_21">
    <path clip-path="url(#pa1842ab6f3)" d="M 111.361248 359.883531
L 210.561248 249.957628
" style="fill:none;stroke:#000000;stroke-linecap:round;"/>
   </g>
   <g id="line2d_22">
    <path clip-path="url(#pa1842ab6f3)" d="M 111.361248 265.4308
L 210.561248 90.89108
" style="fill:none;stroke:#000000;stroke-linecap:round;"/>
   </g>
   <g id="line2d_23">
    <path clip-path="url(#pa1842ab6f3)" d="M 111.361248 256.86198
L 210.561248 190.278722
" style="fill:none;stroke:#000000;stroke-linecap:round;"/>
   </g>
   <g id="line2d_24">
    <path clip-path="url(#pa1842ab6f3)" d="M 111.361248 302.348251
L 210.561248 175.988373
" style="fill:none;stroke:#000000;stroke-linecap:round;"/>
   </g>
   <g id="line2d_25">
    <path clip-path="url(#pa1842ab6f3)" d="M 111.361248 249.338685
L 210.561248 202.862165
" style="fill:none;stroke:#000000;stroke-linecap:round;"/>
   </g>
   <g id="line2d_26">
    <path clip-path="url(#pa1842ab6f3)" d="M 111.361248 300.595883
L 210.561248 139.822344
" style="fill:none;stroke:#000000;stroke-linecap:round;"/>
   </g>
   <g id="line2d_27">
    <path clip-path="url(#pa1842ab6f3)" d="M 111.361248 304.431058
L 210.561248 200.737684
" style="fill:none;stroke:#000000;stroke-linecap:round;"/>
   </g>
   <g id="line2d_28">
    <path clip-path="url(#pa1842ab6f3)" d="M 111.361248 316.819142
L 210.561248 216.632077
" style="fill:none;stroke:#000000;stroke-linecap:round;"/>
   </g>
   <g id="line2d_29">
    <path clip-path="url(#pa1842ab6f3)" d="M 111.361248 335.196351
L 210.561248 262.514232
" style="fill:none;stroke:#000000;stroke-linecap:round;"/>
   </g>
   <g id="patch_3">
    <path d="M 86.561248 407.336983
L 86.561248 42.79543
" style="fill:none;stroke:#262626;stroke-linecap:square;stroke-linejoin:miter;stroke-width:1.25;"/>
   </g>
   <g id="patch_4">
    <path d="M 111.361248 454.08
L 210.561248 454.08
" style="fill:none;stroke:#262626;stroke-linecap:square;stroke-linejoin:miter;stroke-width:1.25;"/>
   </g>
   <g id="legend_1"/>
  </g>
  <g id="axes_2">
   <g id="matplotlib.axis_3">
    <g id="ytick_8">
     <g id="line2d_30">
      <defs>
       <path d="M 0 0
L 12 0
" id="m3d1de92ccb" style="stroke:#262626;stroke-width:1.6;"/>
      </defs>
      <g>
       <use style="fill:#262626;stroke:#262626;stroke-width:1.6;" x="309.761248" xlink:href="#m3d1de92ccb" y="303.620757"/>
      </g>
     </g>
     <g id="text_11">
      <text style="fill:#262626;font-family:Work Sans;font-size:20px;font-style:normal;font-weight:normal;text-anchor:start;" transform="rotate(-0, 332.961248, 310.811382)" x="332.961248" y="310.811382">0.0</text>
     </g>
    </g>
    <g id="ytick_9">
     <g id="line2d_31">
      <g>
       <use style="fill:#262626;stroke:#262626;stroke-width:1.6;" x="309.761248" xlink:href="#m3d1de92ccb" y="242.863831"/>
      </g>
     </g>
     <g id="text_12">
      <text style="fill:#262626;font-family:Work Sans;font-size:20px;font-style:normal;font-weight:normal;text-anchor:start;" transform="rotate(-0, 332.961248, 250.054456)" x="332.961248" y="250.054456">0.5</text>
     </g>
    </g>
    <g id="ytick_10">
     <g id="line2d_32">
      <g>
       <use style="fill:#262626;stroke:#262626;stroke-width:1.6;" x="309.761248" xlink:href="#m3d1de92ccb" y="182.106906"/>
      </g>
     </g>
     <g id="text_13">
      <text style="fill:#262626;font-family:Work Sans;font-size:20px;font-style:normal;font-weight:normal;text-anchor:start;" transform="rotate(-0, 332.961248, 189.297531)" x="332.961248" y="189.297531">1.0</text>
     </g>
    </g>
   </g>
   <g id="PolyCollection_1">
    <defs>
     <path d="M 260.188546 -308.665289
L 260.161651 -308.665289
L 260.161651 -309.949544
L 260.161651 -311.233798
L 260.161651 -312.518053
L 260.161651 -313.802308
L 260.161651 -315.086562
L 260.161651 -316.370817
L 260.161651 -317.655072
L 260.161651 -318.939326
L 260.161651 -320.223581
L 260.161651 -321.507835
L 260.161651 -322.79209
L 260.161651 -324.076345
L 260.161651 -325.360599
L 260.161651 -326.644854
L 260.161651 -327.929109
L 260.161651 -329.213363
L 260.161651 -330.497618
L 260.161651 -331.781873
L 260.161651 -333.066127
L 260.161651 -334.350382
L 260.161651 -335.634637
L 260.161651 -336.918891
L 260.161651 -338.203146
L 260.161651 -339.487401
L 260.161651 -340.771655
L 260.161651 -342.05591
L 260.161651 -343.340165
L 260.161651 -344.624419
L 260.161651 -345.908674
L 260.161651 -347.192929
L 260.161651 -348.477183
L 260.161651 -349.761438
L 260.161651 -351.045692
L 260.161651 -352.329947
L 260.161651 -353.614202
L 260.161651 -354.898456
L 260.161651 -356.182711
L 260.161651 -357.466966
L 260.161651 -358.75122
L 260.161651 -360.035475
L 260.161651 -361.31973
L 260.161651 -362.603984
L 260.161651 -363.888239
L 260.161651 -365.172494
L 260.161651 -366.456748
L 260.161651 -367.741003
L 260.161651 -369.025258
L 260.161651 -370.309512
L 260.161651 -371.593767
L 260.161651 -372.878022
L 260.161651 -374.162276
L 260.161651 -375.446531
L 260.161651 -376.730785
L 260.161651 -378.01504
L 260.161651 -379.299295
L 260.161651 -380.583549
L 260.161651 -381.867804
L 260.161651 -383.152059
L 260.161651 -384.436313
L 260.161651 -385.720568
L 260.161651 -387.004823
L 260.161651 -388.289077
L 260.161651 -389.573332
L 260.161651 -390.857587
L 260.161651 -392.141841
L 260.161651 -393.426096
L 260.161651 -394.710351
L 260.161651 -395.994605
L 260.161651 -397.27886
L 260.161651 -398.563115
L 260.161651 -399.847369
L 260.161651 -401.131624
L 260.161651 -402.415879
L 260.161651 -403.700133
L 260.161651 -404.984388
L 260.161651 -406.268642
L 260.161651 -407.552897
L 260.161651 -408.837152
L 260.161651 -410.121406
L 260.161651 -411.405661
L 260.161651 -412.689916
L 260.161651 -413.97417
L 260.161651 -415.258425
L 260.161651 -416.54268
L 260.161651 -417.826934
L 260.161651 -419.111189
L 260.161651 -420.395444
L 260.161651 -421.679698
L 260.161651 -422.963953
L 260.161651 -424.248208
L 260.161651 -425.532462
L 260.161651 -426.816717
L 260.161651 -428.100972
L 260.161651 -429.385226
L 260.161651 -430.669481
L 260.161651 -431.953735
L 260.161651 -433.23799
L 260.161651 -434.522245
L 260.161651 -435.806499
L 260.188496 -435.806499
L 260.188496 -435.806499
L 260.185712 -434.522245
L 260.179038 -433.23799
L 260.172168 -431.953735
L 260.168365 -430.669481
L 260.169533 -429.385226
L 260.176754 -428.100972
L 260.190538 -426.816717
L 260.210195 -425.532462
L 260.23343 -424.248208
L 260.257365 -422.963953
L 260.281272 -421.679698
L 260.309838 -420.395444
L 260.354072 -419.111189
L 260.426997 -417.826934
L 260.535794 -416.54268
L 260.677145 -415.258425
L 260.840763 -413.97417
L 261.018205 -412.689916
L 261.210779 -411.405661
L 261.433925 -410.121406
L 261.716185 -408.837152
L 262.089707 -407.552897
L 262.576303 -406.268642
L 263.179085 -404.984388
L 263.882518 -403.700133
L 264.657531 -402.415879
L 265.47076 -401.131624
L 266.293444 -399.847369
L 267.104491 -398.563115
L 267.897382 -397.27886
L 268.700131 -395.994605
L 269.587148 -394.710351
L 270.655379 -393.426096
L 271.974369 -392.141841
L 273.541904 -390.857587
L 275.266475 -389.573332
L 276.994579 -388.289077
L 278.586181 -387.004823
L 279.987948 -385.720568
L 281.233066 -384.436313
L 282.36785 -383.152059
L 283.382886 -381.867804
L 284.20585 -380.583549
L 284.745741 -379.299295
L 284.961248 -378.01504
L 284.922736 -376.730785
L 284.801432 -375.446531
L 284.748974 -374.162276
L 284.762475 -372.878022
L 284.680027 -371.593767
L 284.3101 -370.309512
L 283.560978 -369.025258
L 282.481127 -367.741003
L 281.222469 -366.456748
L 279.949655 -365.172494
L 278.728116 -363.888239
L 277.487416 -362.603984
L 276.125145 -361.31973
L 274.653672 -360.035475
L 273.221841 -358.75122
L 271.989116 -357.466966
L 270.996129 -356.182711
L 270.154876 -354.898456
L 269.339044 -353.614202
L 268.475295 -352.329947
L 267.569569 -351.045692
L 266.672163 -349.761438
L 265.827827 -348.477183
L 265.05663 -347.192929
L 264.371454 -345.908674
L 263.794216 -344.624419
L 263.340238 -343.340165
L 262.992202 -342.05591
L 262.704214 -340.771655
L 262.434086 -339.487401
L 262.165946 -338.203146
L 261.904137 -336.918891
L 261.654645 -335.634637
L 261.416203 -334.350382
L 261.186491 -333.066127
L 260.97256 -331.781873
L 260.791015 -330.497618
L 260.656116 -329.213363
L 260.568544 -327.929109
L 260.515588 -326.644854
L 260.480321 -325.360599
L 260.450381 -324.076345
L 260.42003 -322.79209
L 260.386543 -321.507835
L 260.34747 -320.223581
L 260.302623 -318.939326
L 260.256737 -317.655072
L 260.217541 -316.370817
L 260.190807 -315.086562
L 260.177663 -313.802308
L 260.175547 -312.518053
L 260.180052 -311.233798
L 260.185962 -309.949544
L 260.188546 -308.665289
z
" id="md5eee26b1a" style="stroke:#000000;stroke-opacity:0.3;stroke-width:0.48;"/>
    </defs>
    <g clip-path="url(#pa1842ab6f3)">
     <use style="fill-opacity:0.3;stroke:#000000;stroke-opacity:0.3;stroke-width:0.48;" x="0" xlink:href="#md5eee26b1a" y="589.359404"/>
    </g>
   </g>
   <g id="LineCollection_1">
    <path clip-path="url(#pa1842ab6f3)" d="M 111.361248 303.620757
L 309.761248 303.620757
" style="fill:none;stroke:#000000;stroke-width:0.75;"/>
   </g>
   <g id="LineCollection_2">
    <path clip-path="url(#pa1842ab6f3)" d="M 210.561248 215.320181
L 309.761248 215.320181
" style="fill:none;stroke:#000000;stroke-width:0.75;"/>
   </g>
   <g id="line2d_33">
    <path clip-path="url(#pa1842ab6f3)" d="M 260.161248 215.320181
" style="fill:none;stroke:#000000;stroke-linecap:round;stroke-width:2.8;"/>
    <defs>
     <path d="M 0 7.5
C 1.989023 7.5 3.896849 6.709753 5.303301 5.303301
C 6.709753 3.896849 7.5 1.989023 7.5 0
C 7.5 -1.989023 6.709753 -3.896849 5.303301 -5.303301
C 3.896849 -6.709753 1.989023 -7.5 0 -7.5
C -1.989023 -7.5 -3.896849 -6.709753 -5.303301 -5.303301
C -6.709753 -3.896849 -7.5 -1.989023 -7.5 0
C -7.5 1.989023 -6.709753 3.896849 -5.303301 5.303301
C -3.896849 6.709753 -1.989023 7.5 0 7.5
z
" id="me6af346b5b"/>
    </defs>
    <g clip-path="url(#pa1842ab6f3)">
     <use x="260.161248" xlink:href="#me6af346b5b" y="215.320181"/>
    </g>
   </g>
   <g id="line2d_34">
    <path clip-path="url(#pa1842ab6f3)" d="M 260.161248 250.928927
L 260.161248 189.079225
" style="fill:none;stroke:#000000;stroke-linecap:round;stroke-width:4;"/>
   </g>
   <g id="patch_5">
    <path d="M 309.761248 303.620757
L 309.761248 182.106906
" style="fill:none;stroke:#262626;stroke-linecap:square;stroke-linejoin:miter;stroke-width:1.25;"/>
   </g>
  </g>
 </g>
 <defs>
  <clipPath id="pa1842ab6f3">
   <rect height="434.88" width="223.2" x="86.561248" y="19.2"/>
  </clipPath>
 </defs>
</svg>
