<?xml version="1.0" encoding="utf-8" standalone="no"?>
<!DOCTYPE svg PUBLIC "-//W3C//DTD SVG 1.1//EN"
  "http://www.w3.org/Graphics/SVG/1.1/DTD/svg11.dtd">
<!-- Created with matplotlib (http://matplotlib.org/) -->
<svg height="592.258541pt" version="1.1" viewBox="0 0 702.402 592.258541" width="702.402pt" xmlns="http://www.w3.org/2000/svg" xmlns:xlink="http://www.w3.org/1999/xlink">
 <defs>
  <style type="text/css">
    @import url('https://fonts.googleapis.com/css?family=Work+Sans');
*{stroke-linecap:butt;stroke-linejoin:round;}
  </style>
 </defs>
 <g id="figure_1">
  <g id="patch_1">
   <path d="M 0 592.258541
L 702.402 592.258541
L 702.402 0
L 0 0
z
" style="fill:none;"/>
  </g>
  <g id="axes_1">
   <g id="patch_2">
    <path d="M 120.502 218.64
L 306.502 218.64
L 306.502 19.2
L 120.502 19.2
z
" style="fill:none;"/>
   </g>
   <g id="matplotlib.axis_1">
    <g id="ytick_1">
     <g id="line2d_1">
      <defs>
       <path d="M 0 0
L -12 0
" id="m79c18bc964" style="stroke:#262626;stroke-width:1.6;"/>
      </defs>
      <g>
       <use style="fill:#262626;stroke:#262626;stroke-width:1.6;" x="120.502" xlink:href="#m79c18bc964" y="209.215894"/>
      </g>
     </g>
     <g id="text_1">
      <text style="fill:#262626;font-family:Work Sans;font-size:20px;font-style:normal;font-weight:normal;text-anchor:end;" transform="rotate(-0, 97.302, 216.406519)" x="97.302" y="216.406519">0</text>
     </g>
    </g>
    <g id="ytick_2">
     <g id="line2d_2">
      <g>
       <use style="fill:#262626;stroke:#262626;stroke-width:1.6;" x="120.502" xlink:href="#m79c18bc964" y="178.724039"/>
      </g>
     </g>
     <g id="text_2">
      <text style="fill:#262626;font-family:Work Sans;font-size:20px;font-style:normal;font-weight:normal;text-anchor:end;" transform="rotate(-0, 97.302, 185.914664)" x="97.302" y="185.914664">1</text>
     </g>
    </g>
    <g id="ytick_3">
     <g id="line2d_3">
      <g>
       <use style="fill:#262626;stroke:#262626;stroke-width:1.6;" x="120.502" xlink:href="#m79c18bc964" y="148.232185"/>
      </g>
     </g>
     <g id="text_3">
      <text style="fill:#262626;font-family:Work Sans;font-size:20px;font-style:normal;font-weight:normal;text-anchor:end;" transform="rotate(-0, 97.302, 155.42281)" x="97.302" y="155.42281">2</text>
     </g>
    </g>
    <g id="ytick_4">
     <g id="line2d_4">
      <g>
       <use style="fill:#262626;stroke:#262626;stroke-width:1.6;" x="120.502" xlink:href="#m79c18bc964" y="117.740331"/>
      </g>
     </g>
     <g id="text_4">
      <text style="fill:#262626;font-family:Work Sans;font-size:20px;font-style:normal;font-weight:normal;text-anchor:end;" transform="rotate(-0, 97.302, 124.930956)" x="97.302" y="124.930956">3</text>
     </g>
    </g>
    <g id="ytick_5">
     <g id="line2d_5">
      <g>
       <use style="fill:#262626;stroke:#262626;stroke-width:1.6;" x="120.502" xlink:href="#m79c18bc964" y="87.248476"/>
      </g>
     </g>
     <g id="text_5">
      <text style="fill:#262626;font-family:Work Sans;font-size:20px;font-style:normal;font-weight:normal;text-anchor:end;" transform="rotate(-0, 97.302, 94.439101)" x="97.302" y="94.439101">4</text>
     </g>
    </g>
    <g id="ytick_6">
     <g id="line2d_6">
      <g>
       <use style="fill:#262626;stroke:#262626;stroke-width:1.6;" x="120.502" xlink:href="#m79c18bc964" y="56.756622"/>
      </g>
     </g>
     <g id="text_6">
      <text style="fill:#262626;font-family:Work Sans;font-size:20px;font-style:normal;font-weight:normal;text-anchor:end;" transform="rotate(-0, 97.302, 63.947247)" x="97.302" y="63.947247">5</text>
     </g>
    </g>
    <g id="ytick_7">
     <g id="line2d_7">
      <g>
       <use style="fill:#262626;stroke:#262626;stroke-width:1.6;" x="120.502" xlink:href="#m79c18bc964" y="26.264768"/>
      </g>
     </g>
     <g id="text_7">
      <text style="fill:#262626;font-family:Work Sans;font-size:20px;font-style:normal;font-weight:normal;text-anchor:end;" transform="rotate(-0, 97.302, 33.455393)" x="97.302" y="33.455393">6</text>
     </g>
    </g>
    <g id="text_8">
     <text style="fill:#262626;font-family:Work Sans;font-size:22px;font-style:normal;font-weight:normal;text-anchor:middle;" transform="rotate(-90, 75.96325, 118.92)" x="75.96325" y="118.92">value</text>
    </g>
   </g>
   <g id="patch_3">
    <path d="M 120.502 209.215894
L 120.502 26.264768
" style="fill:none;stroke:#262626;stroke-linecap:square;stroke-linejoin:miter;stroke-width:1.25;"/>
   </g>
   <g id="PathCollection_1">
    <defs>
     <path d="M 0 5
C 1.326016 5 2.597899 4.473168 3.535534 3.535534
C 4.473168 2.597899 5 1.326016 5 0
C 5 -1.326016 4.473168 -2.597899 3.535534 -3.535534
C 2.597899 -4.473168 1.326016 -5 0 -5
C -1.326016 -5 -2.597899 -4.473168 -3.535534 -3.535534
C -4.473168 -2.597899 -5 -1.326016 -5 0
C -5 1.326016 -4.473168 2.597899 -3.535534 3.535534
C -2.597899 4.473168 -1.326016 5 0 5
z
" id="C0_0_d78984eb47"/>
    </defs>
    <g clip-path="url(#pfd8e1727d1)">
     <use style="fill:#1f77b4;fill-opacity:0.75;" x="167.002" xlink:href="#C0_0_d78984eb47" y="141.971889"/>
    </g>
    <g clip-path="url(#pfd8e1727d1)">
     <use style="fill:#1f77b4;fill-opacity:0.75;" x="167.002" xlink:href="#C0_0_d78984eb47" y="136.324541"/>
    </g>
    <g clip-path="url(#pfd8e1727d1)">
     <use style="fill:#1f77b4;fill-opacity:0.75;" x="159.970078" xlink:href="#C0_0_d78984eb47" y="132.918791"/>
    </g>
    <g clip-path="url(#pfd8e1727d1)">
     <use style="fill:#1f77b4;fill-opacity:0.75;" x="169.599667" xlink:href="#C0_0_d78984eb47" y="131.09055"/>
    </g>
    <g clip-path="url(#pfd8e1727d1)">
     <use style="fill:#1f77b4;fill-opacity:0.75;" x="179.866631" xlink:href="#C0_0_d78984eb47" y="130.129708"/>
    </g>
    <g clip-path="url(#pfd8e1727d1)">
     <use style="fill:#1f77b4;fill-opacity:0.75;" x="167.002" xlink:href="#C0_0_d78984eb47" y="126.631922"/>
    </g>
    <g clip-path="url(#pfd8e1727d1)">
     <use style="fill:#1f77b4;fill-opacity:0.75;" x="156.602088" xlink:href="#C0_0_d78984eb47" y="126.000214"/>
    </g>
    <g clip-path="url(#pfd8e1727d1)">
     <use style="fill:#1f77b4;fill-opacity:0.75;" x="177.187709" xlink:href="#C0_0_d78984eb47" y="125.518257"/>
    </g>
    <g clip-path="url(#pfd8e1727d1)">
     <use style="fill:#1f77b4;fill-opacity:0.75;" x="147.15686" xlink:href="#C0_0_d78984eb47" y="123.996885"/>
    </g>
    <g clip-path="url(#pfd8e1727d1)">
     <use style="fill:#1f77b4;fill-opacity:0.75;" x="186.652368" xlink:href="#C0_0_d78984eb47" y="123.5325"/>
    </g>
    <g clip-path="url(#pfd8e1727d1)">
     <use style="fill:#1f77b4;fill-opacity:0.75;" x="197.129158" xlink:href="#C0_0_d78984eb47" y="123.22774"/>
    </g>
    <g clip-path="url(#pfd8e1727d1)">
     <use style="fill:#1f77b4;fill-opacity:0.75;" x="162.903238" xlink:href="#C0_0_d78984eb47" y="122.409676"/>
    </g>
    <g clip-path="url(#pfd8e1727d1)">
     <use style="fill:#1f77b4;fill-opacity:0.75;" x="137.834009" xlink:href="#C0_0_d78984eb47" y="121.887031"/>
    </g>
    <g clip-path="url(#pfd8e1727d1)">
     <use style="fill:#1f77b4;fill-opacity:0.75;" x="129.802" xlink:href="#C0_0_d78984eb47" y="121.447304"/>
    </g>
    <g clip-path="url(#pfd8e1727d1)">
     <use style="fill:#1f77b4;fill-opacity:0.75;" x="167.002" xlink:href="#C0_0_d78984eb47" y="116.825078"/>
    </g>
    <g clip-path="url(#pfd8e1727d1)">
     <use style="fill:#1f77b4;fill-opacity:0.75;" x="162.794854" xlink:href="#C0_0_d78984eb47" y="112.623218"/>
    </g>
    <g clip-path="url(#pfd8e1727d1)">
     <use style="fill:#1f77b4;fill-opacity:0.75;" x="172.069256" xlink:href="#C0_0_d78984eb47" y="110.473017"/>
    </g>
    <g clip-path="url(#pfd8e1727d1)">
     <use style="fill:#1f77b4;fill-opacity:0.75;" x="157.81733" xlink:href="#C0_0_d78984eb47" y="108.585173"/>
    </g>
    <g clip-path="url(#pfd8e1727d1)">
     <use style="fill:#1f77b4;fill-opacity:0.75;" x="181.173375" xlink:href="#C0_0_d78984eb47" y="108.1882"/>
    </g>
    <g clip-path="url(#pfd8e1727d1)">
     <use style="fill:#1f77b4;fill-opacity:0.75;" x="167.002" xlink:href="#C0_0_d78984eb47" y="100.345203"/>
    </g>
   </g>
   <g id="PathCollection_2">
    <defs>
     <path d="M 0 5
C 1.326016 5 2.597899 4.473168 3.535534 3.535534
C 4.473168 2.597899 5 1.326016 5 0
C 5 -1.326016 4.473168 -2.597899 3.535534 -3.535534
C 2.597899 -4.473168 1.326016 -5 0 -5
C -1.326016 -5 -2.597899 -4.473168 -3.535534 -3.535534
C -4.473168 -2.597899 -5 -1.326016 -5 0
C -5 1.326016 -4.473168 2.597899 -3.535534 3.535534
C -2.597899 4.473168 -1.326016 5 0 5
z
" id="C1_0_b23a887f2a"/>
    </defs>
    <g clip-path="url(#pfd8e1727d1)">
     <use style="fill:#ff7f0e;fill-opacity:0.75;" x="260.002" xlink:href="#C1_0_b23a887f2a" y="128.806714"/>
    </g>
    <g clip-path="url(#pfd8e1727d1)">
     <use style="fill:#ff7f0e;fill-opacity:0.75;" x="252.5149" xlink:href="#C1_0_b23a887f2a" y="125.591377"/>
    </g>
    <g clip-path="url(#pfd8e1727d1)">
     <use style="fill:#ff7f0e;fill-opacity:0.75;" x="260.002" xlink:href="#C1_0_b23a887f2a" y="116.527226"/>
    </g>
    <g clip-path="url(#pfd8e1727d1)">
     <use style="fill:#ff7f0e;fill-opacity:0.75;" x="252.812806" xlink:href="#C1_0_b23a887f2a" y="113.184702"/>
    </g>
    <g clip-path="url(#pfd8e1727d1)">
     <use style="fill:#ff7f0e;fill-opacity:0.75;" x="262.886611" xlink:href="#C1_0_b23a887f2a" y="111.891355"/>
    </g>
    <g clip-path="url(#pfd8e1727d1)">
     <use style="fill:#ff7f0e;fill-opacity:0.75;" x="271.796975" xlink:href="#C1_0_b23a887f2a" y="109.465196"/>
    </g>
    <g clip-path="url(#pfd8e1727d1)">
     <use style="fill:#ff7f0e;fill-opacity:0.75;" x="255.404321" xlink:href="#C1_0_b23a887f2a" y="108.740487"/>
    </g>
    <g clip-path="url(#pfd8e1727d1)">
     <use style="fill:#ff7f0e;fill-opacity:0.75;" x="261.460034" xlink:href="#C1_0_b23a887f2a" y="104.993963"/>
    </g>
    <g clip-path="url(#pfd8e1727d1)">
     <use style="fill:#ff7f0e;fill-opacity:0.75;" x="251.390384" xlink:href="#C1_0_b23a887f2a" y="103.694459"/>
    </g>
    <g clip-path="url(#pfd8e1727d1)">
     <use style="fill:#ff7f0e;fill-opacity:0.75;" x="260.002" xlink:href="#C1_0_b23a887f2a" y="100.378001"/>
    </g>
    <g clip-path="url(#pfd8e1727d1)">
     <use style="fill:#ff7f0e;fill-opacity:0.75;" x="253.098028" xlink:href="#C1_0_b23a887f2a" y="96.922673"/>
    </g>
    <g clip-path="url(#pfd8e1727d1)">
     <use style="fill:#ff7f0e;fill-opacity:0.75;" x="265.184979" xlink:href="#C1_0_b23a887f2a" y="96.389571"/>
    </g>
    <g clip-path="url(#pfd8e1727d1)">
     <use style="fill:#ff7f0e;fill-opacity:0.75;" x="273.795637" xlink:href="#C1_0_b23a887f2a" y="93.76507"/>
    </g>
    <g clip-path="url(#pfd8e1727d1)">
     <use style="fill:#ff7f0e;fill-opacity:0.75;" x="260.002" xlink:href="#C1_0_b23a887f2a" y="91.63193"/>
    </g>
    <g clip-path="url(#pfd8e1727d1)">
     <use style="fill:#ff7f0e;fill-opacity:0.75;" x="249.644601" xlink:href="#C1_0_b23a887f2a" y="90.87867"/>
    </g>
    <g clip-path="url(#pfd8e1727d1)">
     <use style="fill:#ff7f0e;fill-opacity:0.75;" x="280.341216" xlink:href="#C1_0_b23a887f2a" y="90.179148"/>
    </g>
    <g clip-path="url(#pfd8e1727d1)">
     <use style="fill:#ff7f0e;fill-opacity:0.75;" x="256.759094" xlink:href="#C1_0_b23a887f2a" y="87.270045"/>
    </g>
    <g clip-path="url(#pfd8e1727d1)">
     <use style="fill:#ff7f0e;fill-opacity:0.75;" x="260.002" xlink:href="#C1_0_b23a887f2a" y="81.103892"/>
    </g>
    <g clip-path="url(#pfd8e1727d1)">
     <use style="fill:#ff7f0e;fill-opacity:0.75;" x="249.53581" xlink:href="#C1_0_b23a887f2a" y="80.736158"/>
    </g>
    <g clip-path="url(#pfd8e1727d1)">
     <use style="fill:#ff7f0e;fill-opacity:0.75;" x="260.002" xlink:href="#C1_0_b23a887f2a" y="68.825415"/>
    </g>
   </g>
   <g id="line2d_8">
    <path clip-path="url(#pfd8e1727d1)" d="M 205.499158 132.508517
L 205.499158 111.904172
" style="fill:none;stroke:#000000;stroke-linecap:round;stroke-width:4;"/>
   </g>
   <g id="line2d_9">
    <path clip-path="url(#pfd8e1727d1)" d="M 298.499158 115.354326
L 298.499158 84.743279
" style="fill:none;stroke:#000000;stroke-linecap:round;stroke-width:4;"/>
   </g>
   <g id="line2d_10">
    <path clip-path="url(#pfd8e1727d1)" d="M 204.569158 122.206345
L 206.429158 122.206345
" style="fill:none;stroke:#ffffff;stroke-linecap:round;stroke-width:4.5;"/>
   </g>
   <g id="line2d_11">
    <path clip-path="url(#pfd8e1727d1)" d="M 297.569158 100.048803
L 299.429158 100.048803
" style="fill:none;stroke:#ffffff;stroke-linecap:round;stroke-width:4.5;"/>
   </g>
  </g>
  <g id="axes_2">
   <g id="patch_4">
    <path d="M 306.502 218.64
L 492.502 218.64
L 492.502 19.2
L 306.502 19.2
z
" style="fill:none;"/>
   </g>
   <g id="PathCollection_3">
    <defs>
     <path d="M 0 5
C 1.326016 5 2.597899 4.473168 3.535534 3.535534
C 4.473168 2.597899 5 1.326016 5 0
C 5 -1.326016 4.473168 -2.597899 3.535534 -3.535534
C 2.597899 -4.473168 1.326016 -5 0 -5
C -1.326016 -5 -2.597899 -4.473168 -3.535534 -3.535534
C -4.473168 -2.597899 -5 -1.326016 -5 0
C -5 1.326016 -4.473168 2.597899 -3.535534 3.535534
C -2.597899 4.473168 -1.326016 5 0 5
z
" id="C2_0_e7821ab318"/>
    </defs>
    <g clip-path="url(#p35e6409fb9)">
     <use style="fill:#2ca02c;fill-opacity:0.75;" x="353.002" xlink:href="#C2_0_e7821ab318" y="161.179584"/>
    </g>
    <g clip-path="url(#p35e6409fb9)">
     <use style="fill:#2ca02c;fill-opacity:0.75;" x="353.002" xlink:href="#C2_0_e7821ab318" y="151.933931"/>
    </g>
    <g clip-path="url(#p35e6409fb9)">
     <use style="fill:#2ca02c;fill-opacity:0.75;" x="353.002" xlink:href="#C2_0_e7821ab318" y="145.874916"/>
    </g>
    <g clip-path="url(#p35e6409fb9)">
     <use style="fill:#2ca02c;fill-opacity:0.75;" x="353.002" xlink:href="#C2_0_e7821ab318" y="140.848046"/>
    </g>
    <g clip-path="url(#p35e6409fb9)">
     <use style="fill:#2ca02c;fill-opacity:0.75;" x="342.646894" xlink:href="#C2_0_e7821ab318" y="140.088796"/>
    </g>
    <g clip-path="url(#p35e6409fb9)">
     <use style="fill:#2ca02c;fill-opacity:0.75;" x="362.38024" xlink:href="#C2_0_e7821ab318" y="138.785553"/>
    </g>
    <g clip-path="url(#p35e6409fb9)">
     <use style="fill:#2ca02c;fill-opacity:0.75;" x="372.880089" xlink:href="#C2_0_e7821ab318" y="138.760946"/>
    </g>
    <g clip-path="url(#p35e6409fb9)">
     <use style="fill:#2ca02c;fill-opacity:0.75;" x="332.722361" xlink:href="#C2_0_e7821ab318" y="138.591389"/>
    </g>
    <g clip-path="url(#p35e6409fb9)">
     <use style="fill:#2ca02c;fill-opacity:0.75;" x="353.002" xlink:href="#C2_0_e7821ab318" y="134.454876"/>
    </g>
    <g clip-path="url(#p35e6409fb9)">
     <use style="fill:#2ca02c;fill-opacity:0.75;" x="353.002" xlink:href="#C2_0_e7821ab318" y="127.633316"/>
    </g>
    <g clip-path="url(#p35e6409fb9)">
     <use style="fill:#2ca02c;fill-opacity:0.75;" x="342.573846" xlink:href="#C2_0_e7821ab318" y="127.097742"/>
    </g>
    <g clip-path="url(#p35e6409fb9)">
     <use style="fill:#2ca02c;fill-opacity:0.75;" x="353.002" xlink:href="#C2_0_e7821ab318" y="117.903458"/>
    </g>
    <g clip-path="url(#p35e6409fb9)">
     <use style="fill:#2ca02c;fill-opacity:0.75;" x="342.539403" xlink:href="#C2_0_e7821ab318" y="117.516711"/>
    </g>
    <g clip-path="url(#p35e6409fb9)">
     <use style="fill:#2ca02c;fill-opacity:0.75;" x="353.002" xlink:href="#C2_0_e7821ab318" y="110.698517"/>
    </g>
    <g clip-path="url(#p35e6409fb9)">
     <use style="fill:#2ca02c;fill-opacity:0.75;" x="342.528853" xlink:href="#C2_0_e7821ab318" y="110.37074"/>
    </g>
    <g clip-path="url(#p35e6409fb9)">
     <use style="fill:#2ca02c;fill-opacity:0.75;" x="363.235721" xlink:href="#C2_0_e7821ab318" y="109.67225"/>
    </g>
    <g clip-path="url(#p35e6409fb9)">
     <use style="fill:#2ca02c;fill-opacity:0.75;" x="353.002" xlink:href="#C2_0_e7821ab318" y="104.868331"/>
    </g>
    <g clip-path="url(#p35e6409fb9)">
     <use style="fill:#2ca02c;fill-opacity:0.75;" x="342.62877" xlink:href="#C2_0_e7821ab318" y="104.157844"/>
    </g>
    <g clip-path="url(#p35e6409fb9)">
     <use style="fill:#2ca02c;fill-opacity:0.75;" x="362.073965" xlink:href="#C2_0_e7821ab318" y="102.559245"/>
    </g>
    <g clip-path="url(#p35e6409fb9)">
     <use style="fill:#2ca02c;fill-opacity:0.75;" x="353.002" xlink:href="#C2_0_e7821ab318" y="96.030379"/>
    </g>
   </g>
   <g id="PathCollection_4">
    <defs>
     <path d="M 0 5
C 1.326016 5 2.597899 4.473168 3.535534 3.535534
C 4.473168 2.597899 5 1.326016 5 0
C 5 -1.326016 4.473168 -2.597899 3.535534 -3.535534
C 2.597899 -4.473168 1.326016 -5 0 -5
C -1.326016 -5 -2.597899 -4.473168 -3.535534 -3.535534
C -4.473168 -2.597899 -5 -1.326016 -5 0
C -5 1.326016 -4.473168 2.597899 -3.535534 3.535534
C -2.597899 4.473168 -1.326016 5 0 5
z
" id="C3_0_131cf1bd83"/>
    </defs>
    <g clip-path="url(#p35e6409fb9)">
     <use style="fill:#d62728;fill-opacity:0.75;" x="446.002" xlink:href="#C3_0_131cf1bd83" y="179.735969"/>
    </g>
    <g clip-path="url(#p35e6409fb9)">
     <use style="fill:#d62728;fill-opacity:0.75;" x="446.002" xlink:href="#C3_0_131cf1bd83" y="157.341814"/>
    </g>
    <g clip-path="url(#p35e6409fb9)">
     <use style="fill:#d62728;fill-opacity:0.75;" x="446.002" xlink:href="#C3_0_131cf1bd83" y="152.279119"/>
    </g>
    <g clip-path="url(#p35e6409fb9)">
     <use style="fill:#d62728;fill-opacity:0.75;" x="435.574206" xlink:href="#C3_0_131cf1bd83" y="151.74221"/>
    </g>
    <g clip-path="url(#p35e6409fb9)">
     <use style="fill:#d62728;fill-opacity:0.75;" x="446.002" xlink:href="#C3_0_131cf1bd83" y="147.545067"/>
    </g>
    <g clip-path="url(#p35e6409fb9)">
     <use style="fill:#d62728;fill-opacity:0.75;" x="446.002" xlink:href="#C3_0_131cf1bd83" y="137.769675"/>
    </g>
    <g clip-path="url(#p35e6409fb9)">
     <use style="fill:#d62728;fill-opacity:0.75;" x="446.002" xlink:href="#C3_0_131cf1bd83" y="132.824263"/>
    </g>
    <g clip-path="url(#p35e6409fb9)">
     <use style="fill:#d62728;fill-opacity:0.75;" x="443.306892" xlink:href="#C3_0_131cf1bd83" y="128.391817"/>
    </g>
    <g clip-path="url(#p35e6409fb9)">
     <use style="fill:#d62728;fill-opacity:0.75;" x="446.002" xlink:href="#C3_0_131cf1bd83" y="117.902823"/>
    </g>
    <g clip-path="url(#p35e6409fb9)">
     <use style="fill:#d62728;fill-opacity:0.75;" x="435.563562" xlink:href="#C3_0_131cf1bd83" y="117.406935"/>
    </g>
    <g clip-path="url(#p35e6409fb9)">
     <use style="fill:#d62728;fill-opacity:0.75;" x="454.549834" xlink:href="#C3_0_131cf1bd83" y="115.239433"/>
    </g>
    <g clip-path="url(#p35e6409fb9)">
     <use style="fill:#d62728;fill-opacity:0.75;" x="428.209987" xlink:href="#C3_0_131cf1bd83" y="114.133341"/>
    </g>
    <g clip-path="url(#p35e6409fb9)">
     <use style="fill:#d62728;fill-opacity:0.75;" x="445.138899" xlink:href="#C3_0_131cf1bd83" y="113.20555"/>
    </g>
    <g clip-path="url(#p35e6409fb9)">
     <use style="fill:#d62728;fill-opacity:0.75;" x="446.002" xlink:href="#C3_0_131cf1bd83" y="104.132934"/>
    </g>
    <g clip-path="url(#p35e6409fb9)">
     <use style="fill:#d62728;fill-opacity:0.75;" x="440.02976" xlink:href="#C3_0_131cf1bd83" y="100.360935"/>
    </g>
    <g clip-path="url(#p35e6409fb9)">
     <use style="fill:#d62728;fill-opacity:0.75;" x="450.155875" xlink:href="#C3_0_131cf1bd83" y="99.148017"/>
    </g>
    <g clip-path="url(#p35e6409fb9)">
     <use style="fill:#d62728;fill-opacity:0.75;" x="446.002" xlink:href="#C3_0_131cf1bd83" y="94.453089"/>
    </g>
    <g clip-path="url(#p35e6409fb9)">
     <use style="fill:#d62728;fill-opacity:0.75;" x="446.002" xlink:href="#C3_0_131cf1bd83" y="88.5338"/>
    </g>
    <g clip-path="url(#p35e6409fb9)">
     <use style="fill:#d62728;fill-opacity:0.75;" x="435.52315" xlink:href="#C3_0_131cf1bd83" y="88.242861"/>
    </g>
    <g clip-path="url(#p35e6409fb9)">
     <use style="fill:#d62728;fill-opacity:0.75;" x="446.002" xlink:href="#C3_0_131cf1bd83" y="73.934148"/>
    </g>
   </g>
   <g id="line2d_12">
    <path clip-path="url(#p35e6409fb9)" d="M 381.250089 144.501555
L 381.250089 107.401102
" style="fill:none;stroke:#000000;stroke-linecap:round;stroke-width:4;"/>
   </g>
   <g id="line2d_13">
    <path clip-path="url(#p35e6409fb9)" d="M 474.250089 148.122872
L 474.250089 93.309508
" style="fill:none;stroke:#000000;stroke-linecap:round;stroke-width:4;"/>
   </g>
   <g id="line2d_14">
    <path clip-path="url(#p35e6409fb9)" d="M 380.320089 125.951329
L 382.180089 125.951329
" style="fill:none;stroke:#ffffff;stroke-linecap:round;stroke-width:4.5;"/>
   </g>
   <g id="line2d_15">
    <path clip-path="url(#p35e6409fb9)" d="M 473.320089 120.71619
L 475.180089 120.71619
" style="fill:none;stroke:#ffffff;stroke-linecap:round;stroke-width:4.5;"/>
   </g>
  </g>
  <g id="axes_3">
   <g id="patch_5">
    <path d="M 492.502 218.64
L 678.502 218.64
L 678.502 19.2
L 492.502 19.2
z
" style="fill:none;"/>
   </g>
   <g id="PathCollection_5">
    <defs>
     <path d="M 0 5
C 1.326016 5 2.597899 4.473168 3.535534 3.535534
C 4.473168 2.597899 5 1.326016 5 0
C 5 -1.326016 4.473168 -2.597899 3.535534 -3.535534
C 2.597899 -4.473168 1.326016 -5 0 -5
C -1.326016 -5 -2.597899 -4.473168 -3.535534 -3.535534
C -4.473168 -2.597899 -5 -1.326016 -5 0
C -5 1.326016 -4.473168 2.597899 -3.535534 3.535534
C -2.597899 4.473168 -1.326016 5 0 5
z
" id="C4_0_6dd9a248d0"/>
    </defs>
    <g clip-path="url(#p7e5ff00fdd)">
     <use style="fill:#9467bd;fill-opacity:0.75;" x="539.002" xlink:href="#C4_0_6dd9a248d0" y="132.315694"/>
    </g>
    <g clip-path="url(#p7e5ff00fdd)">
     <use style="fill:#9467bd;fill-opacity:0.75;" x="539.002" xlink:href="#C4_0_6dd9a248d0" y="125.078332"/>
    </g>
    <g clip-path="url(#p7e5ff00fdd)">
     <use style="fill:#9467bd;fill-opacity:0.75;" x="530.992854" xlink:href="#C4_0_6dd9a248d0" y="122.112676"/>
    </g>
    <g clip-path="url(#p7e5ff00fdd)">
     <use style="fill:#9467bd;fill-opacity:0.75;" x="539.002" xlink:href="#C4_0_6dd9a248d0" y="119.047592"/>
    </g>
    <g clip-path="url(#p7e5ff00fdd)">
     <use style="fill:#9467bd;fill-opacity:0.75;" x="549.226683" xlink:href="#C4_0_6dd9a248d0" y="118.004281"/>
    </g>
    <g clip-path="url(#p7e5ff00fdd)">
     <use style="fill:#9467bd;fill-opacity:0.75;" x="539.002" xlink:href="#C4_0_6dd9a248d0" y="110.865792"/>
    </g>
    <g clip-path="url(#p7e5ff00fdd)">
     <use style="fill:#9467bd;fill-opacity:0.75;" x="529.015527" xlink:href="#C4_0_6dd9a248d0" y="109.449122"/>
    </g>
    <g clip-path="url(#p7e5ff00fdd)">
     <use style="fill:#9467bd;fill-opacity:0.75;" x="539.002" xlink:href="#C4_0_6dd9a248d0" y="101.172181"/>
    </g>
    <g clip-path="url(#p7e5ff00fdd)">
     <use style="fill:#9467bd;fill-opacity:0.75;" x="531.425169" xlink:href="#C4_0_6dd9a248d0" y="97.997196"/>
    </g>
    <g clip-path="url(#p7e5ff00fdd)">
     <use style="fill:#9467bd;fill-opacity:0.75;" x="544.593457" xlink:href="#C4_0_6dd9a248d0" y="97.290431"/>
    </g>
    <g clip-path="url(#p7e5ff00fdd)">
     <use style="fill:#9467bd;fill-opacity:0.75;" x="539.002" xlink:href="#C4_0_6dd9a248d0" y="93.229927"/>
    </g>
    <g clip-path="url(#p7e5ff00fdd)">
     <use style="fill:#9467bd;fill-opacity:0.75;" x="528.698995" xlink:href="#C4_0_6dd9a248d0" y="92.345739"/>
    </g>
    <g clip-path="url(#p7e5ff00fdd)">
     <use style="fill:#9467bd;fill-opacity:0.75;" x="539.002" xlink:href="#C4_0_6dd9a248d0" y="84.087432"/>
    </g>
    <g clip-path="url(#p7e5ff00fdd)">
     <use style="fill:#9467bd;fill-opacity:0.75;" x="539.002" xlink:href="#C4_0_6dd9a248d0" y="79.284759"/>
    </g>
    <g clip-path="url(#p7e5ff00fdd)">
     <use style="fill:#9467bd;fill-opacity:0.75;" x="549.502" xlink:href="#C4_0_6dd9a248d0" y="79.283531"/>
    </g>
    <g clip-path="url(#p7e5ff00fdd)">
     <use style="fill:#9467bd;fill-opacity:0.75;" x="529.38232" xlink:href="#C4_0_6dd9a248d0" y="77.446595"/>
    </g>
    <g clip-path="url(#p7e5ff00fdd)">
     <use style="fill:#9467bd;fill-opacity:0.75;" x="539.002" xlink:href="#C4_0_6dd9a248d0" y="73.107717"/>
    </g>
    <g clip-path="url(#p7e5ff00fdd)">
     <use style="fill:#9467bd;fill-opacity:0.75;" x="528.77443" xlink:href="#C4_0_6dd9a248d0" y="72.069818"/>
    </g>
    <g clip-path="url(#p7e5ff00fdd)">
     <use style="fill:#9467bd;fill-opacity:0.75;" x="539.002" xlink:href="#C4_0_6dd9a248d0" y="67.338841"/>
    </g>
    <g clip-path="url(#p7e5ff00fdd)">
     <use style="fill:#9467bd;fill-opacity:0.75;" x="539.002" xlink:href="#C4_0_6dd9a248d0" y="58.104031"/>
    </g>
   </g>
   <g id="PathCollection_6">
    <defs>
     <path d="M 0 5
C 1.326016 5 2.597899 4.473168 3.535534 3.535534
C 4.473168 2.597899 5 1.326016 5 0
C 5 -1.326016 4.473168 -2.597899 3.535534 -3.535534
C 2.597899 -4.473168 1.326016 -5 0 -5
C -1.326016 -5 -2.597899 -4.473168 -3.535534 -3.535534
C -4.473168 -2.597899 -5 -1.326016 -5 0
C -5 1.326016 -4.473168 2.597899 -3.535534 3.535534
C -2.597899 4.473168 -1.326016 5 0 5
z
" id="C5_0_432ea094a1"/>
    </defs>
    <g clip-path="url(#p7e5ff00fdd)">
     <use style="fill:#8c564b;fill-opacity:0.75;" x="632.002" xlink:href="#C5_0_432ea094a1" y="127.777005"/>
    </g>
    <g clip-path="url(#p7e5ff00fdd)">
     <use style="fill:#8c564b;fill-opacity:0.75;" x="632.002" xlink:href="#C5_0_432ea094a1" y="120.527476"/>
    </g>
    <g clip-path="url(#p7e5ff00fdd)">
     <use style="fill:#8c564b;fill-opacity:0.75;" x="621.923757" xlink:href="#C5_0_432ea094a1" y="119.240742"/>
    </g>
    <g clip-path="url(#p7e5ff00fdd)">
     <use style="fill:#8c564b;fill-opacity:0.75;" x="641.883062" xlink:href="#C5_0_432ea094a1" y="118.976195"/>
    </g>
    <g clip-path="url(#p7e5ff00fdd)">
     <use style="fill:#8c564b;fill-opacity:0.75;" x="629.514835" xlink:href="#C5_0_432ea094a1" y="116.072256"/>
    </g>
    <g clip-path="url(#p7e5ff00fdd)">
     <use style="fill:#8c564b;fill-opacity:0.75;" x="614.849352" xlink:href="#C5_0_432ea094a1" y="115.851818"/>
    </g>
    <g clip-path="url(#p7e5ff00fdd)">
     <use style="fill:#8c564b;fill-opacity:0.75;" x="647.73825" xlink:href="#C5_0_432ea094a1" y="115.169349"/>
    </g>
    <g clip-path="url(#p7e5ff00fdd)">
     <use style="fill:#8c564b;fill-opacity:0.75;" x="658.088228" xlink:href="#C5_0_432ea094a1" y="114.396874"/>
    </g>
    <g clip-path="url(#p7e5ff00fdd)">
     <use style="fill:#8c564b;fill-opacity:0.75;" x="605.009392" xlink:href="#C5_0_432ea094a1" y="114.251472"/>
    </g>
    <g clip-path="url(#p7e5ff00fdd)">
     <use style="fill:#8c564b;fill-opacity:0.75;" x="637.540058" xlink:href="#C5_0_432ea094a1" y="113.114902"/>
    </g>
    <g clip-path="url(#p7e5ff00fdd)">
     <use style="fill:#8c564b;fill-opacity:0.75;" x="668.04289" xlink:href="#C5_0_432ea094a1" y="112.938119"/>
    </g>
    <g clip-path="url(#p7e5ff00fdd)">
     <use style="fill:#8c564b;fill-opacity:0.75;" x="595.067412" xlink:href="#C5_0_432ea094a1" y="112.776309"/>
    </g>
    <g clip-path="url(#p7e5ff00fdd)">
     <use style="fill:#8c564b;fill-opacity:0.75;" x="629.167935" xlink:href="#C5_0_432ea094a1" y="110.347086"/>
    </g>
    <g clip-path="url(#p7e5ff00fdd)">
     <use style="fill:#8c564b;fill-opacity:0.75;" x="637.180291" xlink:href="#C5_0_432ea094a1" y="107.383084"/>
    </g>
    <g clip-path="url(#p7e5ff00fdd)">
     <use style="fill:#8c564b;fill-opacity:0.75;" x="622.045574" xlink:href="#C5_0_432ea094a1" y="106.977379"/>
    </g>
    <g clip-path="url(#p7e5ff00fdd)">
     <use style="fill:#8c564b;fill-opacity:0.75;" x="647.15541" xlink:href="#C5_0_432ea094a1" y="105.951236"/>
    </g>
    <g clip-path="url(#p7e5ff00fdd)">
     <use style="fill:#8c564b;fill-opacity:0.75;" x="632.002" xlink:href="#C5_0_432ea094a1" y="99.86066"/>
    </g>
    <g clip-path="url(#p7e5ff00fdd)">
     <use style="fill:#8c564b;fill-opacity:0.75;" x="621.734963" xlink:href="#C5_0_432ea094a1" y="98.899968"/>
    </g>
    <g clip-path="url(#p7e5ff00fdd)">
     <use style="fill:#8c564b;fill-opacity:0.75;" x="632.002" xlink:href="#C5_0_432ea094a1" y="93.652861"/>
    </g>
    <g clip-path="url(#p7e5ff00fdd)">
     <use style="fill:#8c564b;fill-opacity:0.75;" x="626.190404" xlink:href="#C5_0_432ea094a1" y="89.833293"/>
    </g>
   </g>
   <g id="line2d_16">
    <path clip-path="url(#p7e5ff00fdd)" d="M 583.41289 116.893353
L 583.41289 74.069815
" style="fill:none;stroke:#000000;stroke-linecap:round;stroke-width:4;"/>
   </g>
   <g id="line2d_17">
    <path clip-path="url(#p7e5ff00fdd)" d="M 676.41289 120.094034
L 676.41289 101.305774
" style="fill:none;stroke:#000000;stroke-linecap:round;stroke-width:4;"/>
   </g>
   <g id="legend_1"/>
   <g id="line2d_18">
    <path clip-path="url(#p7e5ff00fdd)" d="M 582.48289 95.481584
L 584.34289 95.481584
" style="fill:none;stroke:#ffffff;stroke-linecap:round;stroke-width:4.5;"/>
   </g>
   <g id="line2d_19">
    <path clip-path="url(#p7e5ff00fdd)" d="M 675.48289 110.699904
L 677.34289 110.699904
" style="fill:none;stroke:#ffffff;stroke-linecap:round;stroke-width:4.5;"/>
   </g>
  </g>
  <g id="axes_4">
   <g id="patch_6">
    <path d="M 120.502 454.08
L 306.502 454.08
L 306.502 254.64
L 120.502 254.64
z
" style="fill:none;"/>
   </g>
   <g id="matplotlib.axis_2">
    <g id="xtick_1">
     <g id="line2d_20">
      <defs>
       <path d="M 0 0
L 0 12
" id="m0d64c081ea" style="stroke:#262626;stroke-width:1.6;"/>
      </defs>
      <g>
       <use style="fill:#262626;stroke:#262626;stroke-width:1.6;" x="167.002" xlink:href="#m0d64c081ea" y="454.08"/>
      </g>
     </g>
     <g id="text_9">
      <text style="fill:#262626;font-family:Work Sans;font-size:20px;font-style:normal;font-weight:normal;" transform="translate(73.009831 578.4714)rotate(-45)">Control n=20</text>
     </g>
    </g>
    <g id="xtick_2">
     <g id="line2d_21">
      <g>
       <use style="fill:#262626;stroke:#262626;stroke-width:1.6;" x="260.002" xlink:href="#m0d64c081ea" y="454.08"/>
      </g>
     </g>
     <g id="text_10">
      <text style="fill:#262626;font-family:Work Sans;font-size:20px;font-style:normal;font-weight:normal;" transform="translate(165.291676 579.189555)rotate(-45)">Group 1 n=20</text>
     </g>
    </g>
   </g>
   <g id="matplotlib.axis_3">
    <g id="ytick_8">
     <g id="line2d_22">
      <g>
       <use style="fill:#262626;stroke:#262626;stroke-width:1.6;" x="120.502" xlink:href="#m79c18bc964" y="448.206138"/>
      </g>
     </g>
     <g id="text_11">
      <text style="fill:#262626;font-family:Work Sans;font-size:20px;font-style:normal;font-weight:normal;text-anchor:end;" transform="rotate(-0, 97.302, 455.396763)" x="97.302" y="455.396763">−1.0</text>
     </g>
    </g>
    <g id="ytick_9">
     <g id="line2d_23">
      <g>
       <use style="fill:#262626;stroke:#262626;stroke-width:1.6;" x="120.502" xlink:href="#m79c18bc964" y="405.106758"/>
      </g>
     </g>
     <g id="text_12">
      <text style="fill:#262626;font-family:Work Sans;font-size:20px;font-style:normal;font-weight:normal;text-anchor:end;" transform="rotate(-0, 97.302, 412.297383)" x="97.302" y="412.297383">−0.5</text>
     </g>
    </g>
    <g id="ytick_10">
     <g id="line2d_24">
      <g>
       <use style="fill:#262626;stroke:#262626;stroke-width:1.6;" x="120.502" xlink:href="#m79c18bc964" y="362.007378"/>
      </g>
     </g>
     <g id="text_13">
      <text style="fill:#262626;font-family:Work Sans;font-size:20px;font-style:normal;font-weight:normal;text-anchor:end;" transform="rotate(-0, 97.302, 369.198003)" x="97.302" y="369.198003">0.0</text>
     </g>
    </g>
    <g id="ytick_11">
     <g id="line2d_25">
      <g>
       <use style="fill:#262626;stroke:#262626;stroke-width:1.6;" x="120.502" xlink:href="#m79c18bc964" y="318.907998"/>
      </g>
     </g>
     <g id="text_14">
      <text style="fill:#262626;font-family:Work Sans;font-size:20px;font-style:normal;font-weight:normal;text-anchor:end;" transform="rotate(-0, 97.302, 326.098623)" x="97.302" y="326.098623">0.5</text>
     </g>
    </g>
    <g id="ytick_12">
     <g id="line2d_26">
      <g>
       <use style="fill:#262626;stroke:#262626;stroke-width:1.6;" x="120.502" xlink:href="#m79c18bc964" y="275.808618"/>
      </g>
     </g>
     <g id="text_15">
      <text style="fill:#262626;font-family:Work Sans;font-size:20px;font-style:normal;font-weight:normal;text-anchor:end;" transform="rotate(-0, 97.302, 282.999243)" x="97.302" y="282.999243">1.0</text>
     </g>
    </g>
    <g id="text_16">
     <text style="fill:#262626;font-family:Work Sans;font-size:22px;font-style:normal;font-weight:normal;" transform="translate(23.019375 382.226094)rotate(-90)">delta</text>
     <text style="fill:#262626;font-family:Work Sans;font-size:22px;font-style:normal;font-weight:normal;" transform="translate(46.622625 383.401719)rotate(-90)">value</text>
    </g>
   </g>
   <g id="PolyCollection_1">
    <defs>
     <path d="M 260.030598 -252.56364
L 260.002516 -252.56364
L 260.002516 -253.381869
L 260.002516 -254.200098
L 260.002516 -255.018327
L 260.002516 -255.836556
L 260.002516 -256.654785
L 260.002516 -257.473014
L 260.002516 -258.291243
L 260.002516 -259.109472
L 260.002516 -259.9277
L 260.002516 -260.745929
L 260.002516 -261.564158
L 260.002516 -262.382387
L 260.002516 -263.200616
L 260.002516 -264.018845
L 260.002516 -264.837074
L 260.002516 -265.655303
L 260.002516 -266.473532
L 260.002516 -267.291761
L 260.002516 -268.10999
L 260.002516 -268.928219
L 260.002516 -269.746448
L 260.002516 -270.564677
L 260.002516 -271.382906
L 260.002516 -272.201135
L 260.002516 -273.019364
L 260.002516 -273.837593
L 260.002516 -274.655822
L 260.002516 -275.474051
L 260.002516 -276.29228
L 260.002516 -277.110509
L 260.002516 -277.928738
L 260.002516 -278.746967
L 260.002516 -279.565196
L 260.002516 -280.383425
L 260.002516 -281.201654
L 260.002516 -282.019883
L 260.002516 -282.838112
L 260.002516 -283.656341
L 260.002516 -284.47457
L 260.002516 -285.292799
L 260.002516 -286.111028
L 260.002516 -286.929257
L 260.002516 -287.747486
L 260.002516 -288.565715
L 260.002516 -289.383943
L 260.002516 -290.202172
L 260.002516 -291.020401
L 260.002516 -291.83863
L 260.002516 -292.656859
L 260.002516 -293.475088
L 260.002516 -294.293317
L 260.002516 -295.111546
L 260.002516 -295.929775
L 260.002516 -296.748004
L 260.002516 -297.566233
L 260.002516 -298.384462
L 260.002516 -299.202691
L 260.002516 -300.02092
L 260.002516 -300.839149
L 260.002516 -301.657378
L 260.002516 -302.475607
L 260.002516 -303.293836
L 260.002516 -304.112065
L 260.002516 -304.930294
L 260.002516 -305.748523
L 260.002516 -306.566752
L 260.002516 -307.384981
L 260.002516 -308.20321
L 260.002516 -309.021439
L 260.002516 -309.839668
L 260.002516 -310.657897
L 260.002516 -311.476126
L 260.002516 -312.294355
L 260.002516 -313.112584
L 260.002516 -313.930813
L 260.002516 -314.749042
L 260.002516 -315.567271
L 260.002516 -316.3855
L 260.002516 -317.203729
L 260.002516 -318.021958
L 260.002516 -318.840186
L 260.002516 -319.658415
L 260.002516 -320.476644
L 260.002516 -321.294873
L 260.002516 -322.113102
L 260.002516 -322.931331
L 260.002516 -323.74956
L 260.002516 -324.567789
L 260.002516 -325.386018
L 260.002516 -326.204247
L 260.002516 -327.022476
L 260.002516 -327.840705
L 260.002516 -328.658934
L 260.002516 -329.477163
L 260.002516 -330.295392
L 260.002516 -331.113621
L 260.002516 -331.93185
L 260.002516 -332.750079
L 260.002516 -333.568308
L 260.049635 -333.568308
L 260.049635 -333.568308
L 260.07293 -332.750079
L 260.110227 -331.93185
L 260.164228 -331.113621
L 260.230443 -330.295392
L 260.296717 -329.477163
L 260.348917 -328.658934
L 260.380041 -327.840705
L 260.396222 -327.022476
L 260.414684 -326.204247
L 260.454653 -325.386018
L 260.527495 -324.567789
L 260.632617 -323.74956
L 260.761253 -322.931331
L 260.904803 -322.113102
L 261.061702 -321.294873
L 261.238934 -320.476644
L 261.449356 -319.658415
L 261.708145 -318.840186
L 262.028851 -318.021958
L 262.417636 -317.203729
L 262.86827 -316.3855
L 263.364185 -315.567271
L 263.889131 -314.749042
L 264.439023 -313.930813
L 265.026028 -313.112584
L 265.673216 -312.294355
L 266.405316 -311.476126
L 267.241405 -310.657897
L 268.190347 -309.839668
L 269.245769 -309.021439
L 270.379586 -308.20321
L 271.539943 -307.384981
L 272.662284 -306.566752
L 273.694005 -305.748523
L 274.618849 -304.930294
L 275.461751 -304.112065
L 276.268363 -303.293836
L 277.075752 -302.475607
L 277.89799 -301.657378
L 278.732974 -300.839149
L 279.574777 -300.02092
L 280.414525 -299.202691
L 281.230357 -298.384462
L 281.97988 -297.566233
L 282.604189 -296.748004
L 283.042373 -295.929775
L 283.252 -295.111546
L 283.230013 -294.293317
L 283.022556 -293.475088
L 282.711068 -292.656859
L 282.376809 -291.83863
L 282.06491 -291.020401
L 281.770183 -290.202172
L 281.450117 -289.383943
L 281.054054 -288.565715
L 280.55166 -287.747486
L 279.945854 -286.929257
L 279.263733 -286.111028
L 278.532657 -285.292799
L 277.759722 -284.47457
L 276.930757 -283.656341
L 276.029241 -282.838112
L 275.058538 -282.019883
L 274.047776 -281.201654
L 273.035921 -280.383425
L 272.0478 -279.565196
L 271.083826 -278.746967
L 270.133878 -277.928738
L 269.202602 -277.110509
L 268.318889 -276.29228
L 267.515529 -275.474051
L 266.797182 -274.655822
L 266.130572 -273.837593
L 265.469358 -273.019364
L 264.791157 -272.201135
L 264.114051 -271.382906
L 263.481677 -270.564677
L 262.933132 -269.746448
L 262.48211 -268.928219
L 262.117433 -268.10999
L 261.818843 -267.291761
L 261.572141 -266.473532
L 261.372218 -265.655303
L 261.215323 -264.837074
L 261.091039 -264.018845
L 260.98248 -263.200616
L 260.873935 -262.382387
L 260.758324 -261.564158
L 260.638048 -260.745929
L 260.519667 -259.9277
L 260.408261 -259.109472
L 260.30634 -258.291243
L 260.2164 -257.473014
L 260.14255 -256.654785
L 260.088765 -255.836556
L 260.055732 -255.018327
L 260.039566 -254.200098
L 260.033431 -253.381869
L 260.030598 -252.56364
z
" id="mee35f7a890" style="stroke:#000000;stroke-opacity:0.3;stroke-width:0.48;"/>
    </defs>
    <g clip-path="url(#pc838b96b2d)">
     <use style="fill-opacity:0.3;stroke:#000000;stroke-opacity:0.3;stroke-width:0.48;" x="0" xlink:href="#mee35f7a890" y="592.258541"/>
    </g>
   </g>
   <g id="line2d_27">
    <path clip-path="url(#pc838b96b2d)" d="M 260.002 299.36925
" style="fill:none;stroke:#000000;stroke-linecap:round;stroke-width:2.8;"/>
    <defs>
     <path d="M 0 7.5
C 1.989023 7.5 3.896849 6.709753 5.303301 5.303301
C 6.709753 3.896849 7.5 1.989023 7.5 0
C 7.5 -1.989023 6.709753 -3.896849 5.303301 -5.303301
C 3.896849 -6.709753 1.989023 -7.5 0 -7.5
C -1.989023 -7.5 -3.896849 -6.709753 -5.303301 -5.303301
C -6.709753 -3.896849 -7.5 -1.989023 -7.5 0
C -7.5 1.989023 -6.709753 3.896849 -5.303301 5.303301
C -3.896849 6.709753 -1.989023 7.5 0 7.5
z
" id="m5ebe5e9ee5"/>
    </defs>
    <g clip-path="url(#pc838b96b2d)">
     <use x="260.002" xlink:href="#m5ebe5e9ee5" y="299.36925"/>
    </g>
   </g>
   <g id="line2d_28">
    <path clip-path="url(#pc838b96b2d)" d="M 260.002 322.156388
L 260.002 277.904919
" style="fill:none;stroke:#000000;stroke-linecap:round;stroke-width:4;"/>
   </g>
   <g id="line2d_29">
    <path clip-path="url(#pc838b96b2d)" d="M 120.502 362.007378
L 306.502 362.007378
" style="fill:none;stroke:#000000;stroke-linecap:round;stroke-width:0.5;"/>
   </g>
   <g id="patch_7">
    <path d="M 120.502 448.206138
L 120.502 275.808618
" style="fill:none;stroke:#262626;stroke-linecap:square;stroke-linejoin:miter;stroke-width:1.25;"/>
   </g>
   <g id="patch_8">
    <path d="M 167.002 454.08
L 260.002 454.08
" style="fill:none;stroke:#262626;stroke-linecap:square;stroke-linejoin:miter;stroke-width:1.25;"/>
   </g>
  </g>
  <g id="axes_5">
   <g id="patch_9">
    <path d="M 306.502 454.08
L 492.502 454.08
L 492.502 254.64
L 306.502 254.64
z
" style="fill:none;"/>
   </g>
   <g id="matplotlib.axis_4">
    <g id="xtick_3">
     <g id="line2d_30">
      <g>
       <use style="fill:#262626;stroke:#262626;stroke-width:1.6;" x="353.002" xlink:href="#m0d64c081ea" y="454.08"/>
      </g>
     </g>
     <g id="text_17">
      <text style="fill:#262626;font-family:Work Sans;font-size:20px;font-style:normal;font-weight:normal;" transform="translate(255.98695 581.494281)rotate(-45)">Group 2 n=20</text>
     </g>
    </g>
    <g id="xtick_4">
     <g id="line2d_31">
      <g>
       <use style="fill:#262626;stroke:#262626;stroke-width:1.6;" x="446.002" xlink:href="#m0d64c081ea" y="454.08"/>
      </g>
     </g>
     <g id="text_18">
      <text style="fill:#262626;font-family:Work Sans;font-size:20px;font-style:normal;font-weight:normal;" transform="translate(349.013466 581.467765)rotate(-45)">Group 3 n=20</text>
     </g>
    </g>
   </g>
   <g id="PolyCollection_2">
    <defs>
     <path d="M 446.073383 -165.510207
L 446.00284 -165.510207
L 446.00284 -167.051577
L 446.00284 -168.592946
L 446.00284 -170.134316
L 446.00284 -171.675686
L 446.00284 -173.217056
L 446.00284 -174.758426
L 446.00284 -176.299796
L 446.00284 -177.841166
L 446.00284 -179.382535
L 446.00284 -180.923905
L 446.00284 -182.465275
L 446.00284 -184.006645
L 446.00284 -185.548015
L 446.00284 -187.089385
L 446.00284 -188.630755
L 446.00284 -190.172125
L 446.00284 -191.713494
L 446.00284 -193.254864
L 446.00284 -194.796234
L 446.00284 -196.337604
L 446.00284 -197.878974
L 446.00284 -199.420344
L 446.00284 -200.961714
L 446.00284 -202.503083
L 446.00284 -204.044453
L 446.00284 -205.585823
L 446.00284 -207.127193
L 446.00284 -208.668563
L 446.00284 -210.209933
L 446.00284 -211.751303
L 446.00284 -213.292672
L 446.00284 -214.834042
L 446.00284 -216.375412
L 446.00284 -217.916782
L 446.00284 -219.458152
L 446.00284 -220.999522
L 446.00284 -222.540892
L 446.00284 -224.082262
L 446.00284 -225.623631
L 446.00284 -227.165001
L 446.00284 -228.706371
L 446.00284 -230.247741
L 446.00284 -231.789111
L 446.00284 -233.330481
L 446.00284 -234.871851
L 446.00284 -236.41322
L 446.00284 -237.95459
L 446.00284 -239.49596
L 446.00284 -241.03733
L 446.00284 -242.5787
L 446.00284 -244.12007
L 446.00284 -245.66144
L 446.00284 -247.20281
L 446.00284 -248.744179
L 446.00284 -250.285549
L 446.00284 -251.826919
L 446.00284 -253.368289
L 446.00284 -254.909659
L 446.00284 -256.451029
L 446.00284 -257.992399
L 446.00284 -259.533768
L 446.00284 -261.075138
L 446.00284 -262.616508
L 446.00284 -264.157878
L 446.00284 -265.699248
L 446.00284 -267.240618
L 446.00284 -268.781988
L 446.00284 -270.323357
L 446.00284 -271.864727
L 446.00284 -273.406097
L 446.00284 -274.947467
L 446.00284 -276.488837
L 446.00284 -278.030207
L 446.00284 -279.571577
L 446.00284 -281.112947
L 446.00284 -282.654316
L 446.00284 -284.195686
L 446.00284 -285.737056
L 446.00284 -287.278426
L 446.00284 -288.819796
L 446.00284 -290.361166
L 446.00284 -291.902536
L 446.00284 -293.443905
L 446.00284 -294.985275
L 446.00284 -296.526645
L 446.00284 -298.068015
L 446.00284 -299.609385
L 446.00284 -301.150755
L 446.00284 -302.692125
L 446.00284 -304.233495
L 446.00284 -305.774864
L 446.00284 -307.316234
L 446.00284 -308.857604
L 446.00284 -310.398974
L 446.00284 -311.940344
L 446.00284 -313.481714
L 446.00284 -315.023084
L 446.00284 -316.564453
L 446.00284 -318.105823
L 446.029697 -318.105823
L 446.029697 -318.105823
L 446.028847 -316.564453
L 446.026912 -315.023084
L 446.02868 -313.481714
L 446.039408 -311.940344
L 446.062621 -310.398974
L 446.098521 -308.857604
L 446.143791 -307.316234
L 446.193682 -305.774864
L 446.246389 -304.233495
L 446.307585 -302.692125
L 446.391129 -301.150755
L 446.513419 -299.609385
L 446.684349 -298.068015
L 446.902672 -296.526645
L 447.160954 -294.985275
L 447.455917 -293.443905
L 447.793557 -291.902536
L 448.183306 -290.361166
L 448.627846 -288.819796
L 449.121091 -287.278426
L 449.658059 -285.737056
L 450.245345 -284.195686
L 450.897348 -282.654316
L 451.618056 -281.112947
L 452.38671 -279.571577
L 453.165979 -278.030207
L 453.929358 -276.488837
L 454.683248 -274.947467
L 455.464212 -273.406097
L 456.319499 -271.864727
L 457.295227 -270.323357
L 458.437467 -268.781988
L 459.781301 -267.240618
L 461.311771 -265.699248
L 462.928061 -264.157878
L 464.461321 -262.616508
L 465.748125 -261.075138
L 466.70211 -259.533768
L 467.33258 -257.992399
L 467.715882 -256.451029
L 467.955505 -254.909659
L 468.147646 -253.368289
L 468.351519 -251.826919
L 468.575533 -250.285549
L 468.794575 -248.744179
L 468.984691 -247.20281
L 469.13752 -245.66144
L 469.240154 -244.12007
L 469.252 -242.5787
L 469.117345 -241.03733
L 468.808612 -239.49596
L 468.354904 -237.95459
L 467.821383 -236.41322
L 467.25341 -234.871851
L 466.635395 -233.330481
L 465.903788 -231.789111
L 465.004266 -230.247741
L 463.941368 -228.706371
L 462.778022 -227.165001
L 461.591706 -225.623631
L 460.430767 -224.082262
L 459.305682 -222.540892
L 458.21168 -220.999522
L 457.152151 -219.458152
L 456.141415 -217.916782
L 455.193066 -216.375412
L 454.310353 -214.834042
L 453.484428 -213.292672
L 452.699394 -211.751303
L 451.944314 -210.209933
L 451.226148 -208.668563
L 450.568991 -207.127193
L 449.994776 -205.585823
L 449.503036 -204.044453
L 449.071935 -202.503083
L 448.679629 -200.961714
L 448.322135 -199.420344
L 448.009419 -197.878974
L 447.746605 -196.337604
L 447.521395 -194.796234
L 447.309622 -193.254864
L 447.092345 -191.713494
L 446.868657 -190.172125
L 446.654164 -188.630755
L 446.468653 -187.089385
L 446.324316 -185.548015
L 446.221855 -184.006645
L 446.15355 -182.465275
L 446.108938 -180.923905
L 446.079688 -179.382535
L 446.061608 -177.841166
L 446.053333 -176.299796
L 446.053599 -174.758426
L 446.059801 -173.217056
L 446.06857 -171.675686
L 446.07681 -170.134316
L 446.081841 -168.592946
L 446.081202 -167.051577
L 446.073383 -165.510207
z
" id="m26c612c29d" style="stroke:#000000;stroke-opacity:0.3;stroke-width:0.48;"/>
    </defs>
    <g clip-path="url(#pffff618fe4)">
     <use style="fill-opacity:0.3;stroke:#000000;stroke-opacity:0.3;stroke-width:0.48;" x="0" xlink:href="#m26c612c29d" y="592.258541"/>
    </g>
   </g>
   <g id="line2d_32">
    <path clip-path="url(#pffff618fe4)" d="M 446.002 347.207935
" style="fill:none;stroke:#000000;stroke-linecap:round;stroke-width:2.8;"/>
    <g clip-path="url(#pffff618fe4)">
     <use x="446.002" xlink:href="#m5ebe5e9ee5" y="347.207935"/>
    </g>
   </g>
   <g id="line2d_33">
    <path clip-path="url(#pffff618fe4)" d="M 446.002 388.808181
L 446.002 308.325066
" style="fill:none;stroke:#000000;stroke-linecap:round;stroke-width:4;"/>
   </g>
   <g id="line2d_34">
    <path clip-path="url(#pffff618fe4)" d="M 306.502 362.007378
L 492.502 362.007378
" style="fill:none;stroke:#000000;stroke-linecap:round;stroke-width:0.5;"/>
   </g>
   <g id="patch_10">
    <path d="M 353.002 454.08
L 446.002 454.08
" style="fill:none;stroke:#262626;stroke-linecap:square;stroke-linejoin:miter;stroke-width:1.25;"/>
   </g>
  </g>
  <g id="axes_6">
   <g id="patch_11">
    <path d="M 492.502 454.08
L 678.502 454.08
L 678.502 254.64
L 492.502 254.64
z
" style="fill:none;"/>
   </g>
   <g id="matplotlib.axis_5">
    <g id="xtick_5">
     <g id="line2d_35">
      <g>
       <use style="fill:#262626;stroke:#262626;stroke-width:1.6;" x="539.002" xlink:href="#m0d64c081ea" y="454.08"/>
      </g>
     </g>
     <g id="text_19">
      <text style="fill:#262626;font-family:Work Sans;font-size:20px;font-style:normal;font-weight:normal;" transform="translate(441.392538 582.088693)rotate(-45)">Group 4 n=20</text>
     </g>
    </g>
    <g id="xtick_6">
     <g id="line2d_36">
      <g>
       <use style="fill:#262626;stroke:#262626;stroke-width:1.6;" x="632.002" xlink:href="#m0d64c081ea" y="454.08"/>
      </g>
     </g>
     <g id="text_20">
      <text style="fill:#262626;font-family:Work Sans;font-size:20px;font-style:normal;font-weight:normal;" transform="translate(535.112903 581.368328)rotate(-45)">Group 5 n=20</text>
     </g>
    </g>
   </g>
   <g id="PolyCollection_3">
    <defs>
     <path d="M 632.11758 -142.933783
L 632.003281 -142.933783
L 632.003281 -143.894438
L 632.003281 -144.855092
L 632.003281 -145.815747
L 632.003281 -146.776402
L 632.003281 -147.737057
L 632.003281 -148.697712
L 632.003281 -149.658367
L 632.003281 -150.619021
L 632.003281 -151.579676
L 632.003281 -152.540331
L 632.003281 -153.500986
L 632.003281 -154.461641
L 632.003281 -155.422296
L 632.003281 -156.38295
L 632.003281 -157.343605
L 632.003281 -158.30426
L 632.003281 -159.264915
L 632.003281 -160.22557
L 632.003281 -161.186225
L 632.003281 -162.146879
L 632.003281 -163.107534
L 632.003281 -164.068189
L 632.003281 -165.028844
L 632.003281 -165.989499
L 632.003281 -166.950154
L 632.003281 -167.910808
L 632.003281 -168.871463
L 632.003281 -169.832118
L 632.003281 -170.792773
L 632.003281 -171.753428
L 632.003281 -172.714083
L 632.003281 -173.674737
L 632.003281 -174.635392
L 632.003281 -175.596047
L 632.003281 -176.556702
L 632.003281 -177.517357
L 632.003281 -178.478012
L 632.003281 -179.438666
L 632.003281 -180.399321
L 632.003281 -181.359976
L 632.003281 -182.320631
L 632.003281 -183.281286
L 632.003281 -184.241941
L 632.003281 -185.202595
L 632.003281 -186.16325
L 632.003281 -187.123905
L 632.003281 -188.08456
L 632.003281 -189.045215
L 632.003281 -190.00587
L 632.003281 -190.966524
L 632.003281 -191.927179
L 632.003281 -192.887834
L 632.003281 -193.848489
L 632.003281 -194.809144
L 632.003281 -195.769799
L 632.003281 -196.730453
L 632.003281 -197.691108
L 632.003281 -198.651763
L 632.003281 -199.612418
L 632.003281 -200.573073
L 632.003281 -201.533728
L 632.003281 -202.494382
L 632.003281 -203.455037
L 632.003281 -204.415692
L 632.003281 -205.376347
L 632.003281 -206.337002
L 632.003281 -207.297657
L 632.003281 -208.258311
L 632.003281 -209.218966
L 632.003281 -210.179621
L 632.003281 -211.140276
L 632.003281 -212.100931
L 632.003281 -213.061586
L 632.003281 -214.02224
L 632.003281 -214.982895
L 632.003281 -215.94355
L 632.003281 -216.904205
L 632.003281 -217.86486
L 632.003281 -218.825515
L 632.003281 -219.786169
L 632.003281 -220.746824
L 632.003281 -221.707479
L 632.003281 -222.668134
L 632.003281 -223.628789
L 632.003281 -224.589444
L 632.003281 -225.550098
L 632.003281 -226.510753
L 632.003281 -227.471408
L 632.003281 -228.432063
L 632.003281 -229.392718
L 632.003281 -230.353373
L 632.003281 -231.314027
L 632.003281 -232.274682
L 632.003281 -233.235337
L 632.003281 -234.195992
L 632.003281 -235.156647
L 632.003281 -236.117301
L 632.003281 -237.077956
L 632.003281 -238.038611
L 632.030897 -238.038611
L 632.030897 -238.038611
L 632.033785 -237.077956
L 632.038053 -236.117301
L 632.047168 -235.156647
L 632.064475 -234.195992
L 632.0924 -233.235337
L 632.132561 -232.274682
L 632.186115 -231.314027
L 632.253319 -230.353373
L 632.332281 -229.392718
L 632.418103 -228.432063
L 632.503601 -227.471408
L 632.581483 -226.510753
L 632.647011 -225.550098
L 632.700623 -224.589444
L 632.750525 -223.628789
L 632.814505 -222.668134
L 632.918911 -221.707479
L 633.092909 -220.746824
L 633.358835 -219.786169
L 633.722976 -218.825515
L 634.172512 -217.86486
L 634.681366 -216.904205
L 635.22162 -215.94355
L 635.77291 -214.982895
L 636.324168 -214.02224
L 636.868906 -213.061586
L 637.40064 -212.100931
L 637.914316 -211.140276
L 638.413831 -210.179621
L 638.919498 -209.218966
L 639.4674 -208.258311
L 640.096983 -207.297657
L 640.832245 -206.337002
L 641.669165 -205.376347
L 642.580209 -204.415692
L 643.534101 -203.455037
L 644.515212 -202.494382
L 645.525795 -201.533728
L 646.56935 -200.573073
L 647.630716 -199.612418
L 648.6709 -198.651763
L 649.640658 -197.691108
L 650.501756 -196.730453
L 651.241845 -195.769799
L 651.876356 -194.809144
L 652.439238 -193.848489
L 652.968119 -192.887834
L 653.489162 -191.927179
L 654.005382 -190.966524
L 654.491532 -190.00587
L 654.89848 -189.045215
L 655.16769 -188.08456
L 655.252 -187.123905
L 655.13562 -186.16325
L 654.845759 -185.202595
L 654.448253 -184.241941
L 654.02163 -183.281286
L 653.615608 -182.320631
L 653.218493 -181.359976
L 652.762079 -180.399321
L 652.166807 -179.438666
L 651.39394 -178.478012
L 650.464735 -177.517357
L 649.437759 -176.556702
L 648.370158 -175.596047
L 647.293443 -174.635392
L 646.214374 -173.674737
L 645.132254 -172.714083
L 644.057586 -171.753428
L 643.019911 -170.792773
L 642.060203 -169.832118
L 641.212788 -168.871463
L 640.487922 -167.910808
L 639.865586 -166.950154
L 639.305085 -165.989499
L 638.766496 -165.028844
L 638.231614 -164.068189
L 637.710104 -163.107534
L 637.226197 -162.146879
L 636.796485 -161.186225
L 636.416043 -160.22557
L 636.061878 -159.264915
L 635.708117 -158.30426
L 635.339836 -157.343605
L 634.956773 -156.38295
L 634.568135 -155.422296
L 634.185902 -154.461641
L 633.822004 -153.500986
L 633.488639 -152.540331
L 633.197698 -151.579676
L 632.957453 -150.619021
L 632.768576 -149.658367
L 632.623048 -148.697712
L 632.507499 -147.737057
L 632.40918 -146.776402
L 632.320758 -145.815747
L 632.241135 -144.855092
L 632.172665 -143.894438
L 632.11758 -142.933783
z
" id="m5c41cca640" style="stroke:#000000;stroke-opacity:0.3;stroke-width:0.48;"/>
    </defs>
    <g clip-path="url(#p35feb19e1f)">
     <use style="fill-opacity:0.3;stroke:#000000;stroke-opacity:0.3;stroke-width:0.48;" x="0" xlink:href="#m5c41cca640" y="592.258541"/>
    </g>
   </g>
   <g id="line2d_37">
    <path clip-path="url(#p35feb19e1f)" d="M 632.002 405.028713
" style="fill:none;stroke:#000000;stroke-linecap:round;stroke-width:2.8;"/>
    <g clip-path="url(#p35feb19e1f)">
     <use x="632.002" xlink:href="#m5ebe5e9ee5" y="405.028713"/>
    </g>
   </g>
   <g id="line2d_38">
    <path clip-path="url(#p35feb19e1f)" d="M 632.002 433.614995
L 632.002 377.77373
" style="fill:none;stroke:#000000;stroke-linecap:round;stroke-width:4;"/>
   </g>
   <g id="line2d_39">
    <path clip-path="url(#p35feb19e1f)" d="M 492.502 362.007378
L 678.502 362.007378
" style="fill:none;stroke:#000000;stroke-linecap:round;stroke-width:0.5;"/>
   </g>
   <g id="patch_12">
    <path d="M 539.002 454.08
L 632.002 454.08
" style="fill:none;stroke:#262626;stroke-linecap:square;stroke-linejoin:miter;stroke-width:1.25;"/>
   </g>
  </g>
 </g>
 <defs>
  <clipPath id="pfd8e1727d1">
   <rect height="199.44" width="186" x="120.502" y="19.2"/>
  </clipPath>
  <clipPath id="p35e6409fb9">
   <rect height="199.44" width="186" x="306.502" y="19.2"/>
  </clipPath>
  <clipPath id="p7e5ff00fdd">
   <rect height="199.44" width="186" x="492.502" y="19.2"/>
  </clipPath>
  <clipPath id="pc838b96b2d">
   <rect height="199.44" width="186" x="120.502" y="254.64"/>
  </clipPath>
  <clipPath id="pffff618fe4">
   <rect height="199.44" width="186" x="306.502" y="254.64"/>
  </clipPath>
  <clipPath id="p35feb19e1f">
   <rect height="199.44" width="186" x="492.502" y="254.64"/>
  </clipPath>
 </defs>
</svg>
