<?xml version="1.0" encoding="utf-8" standalone="no"?>
<!DOCTYPE svg PUBLIC "-//W3C//DTD SVG 1.1//EN"
  "http://www.w3.org/Graphics/SVG/1.1/DTD/svg11.dtd">
<!-- Created with matplotlib (http://matplotlib.org/) -->
<svg height="526.35566pt" version="1.1" viewBox="0 0 894.307344 526.35566" width="894.307344pt" xmlns="http://www.w3.org/2000/svg" xmlns:xlink="http://www.w3.org/1999/xlink">
 <defs>
  <style type="text/css">
*{stroke-linecap:butt;stroke-linejoin:round;}
  </style>
 </defs>
 <g id="figure_1">
  <g id="patch_1">
   <path d="M 0 526.35566 
L 894.307344 526.35566 
L 894.307344 -0 
L 0 -0 
z
" style="fill:none;"/>
  </g>
  <g id="axes_1">
   <g id="patch_2">
    <path d="M 85.83625 391.2 
L 364.83625 391.2 
L 364.83625 65.04 
L 85.83625 65.04 
z
" style="fill:none;"/>
   </g>
   <g id="matplotlib.axis_1">
    <g id="xtick_1">
     <g id="line2d_1">
      <defs>
       <path d="M 0 0 
L 0 12 
" id="md339fcf193" style="stroke:#262626;stroke-width:1.6;"/>
      </defs>
      <g>
       <use style="fill:#262626;stroke:#262626;stroke-width:1.6;" x="136.563523" xlink:href="#md339fcf193" y="391.2"/>
      </g>
     </g>
     <g id="text_1">
      <text style="fill:#262626;font-family:Work Sans;font-size:20px;font-style:normal;font-weight:normal;" transform="translate(41.976942 516.185811)rotate(-45)">Control n=40</text>
     </g>
    </g>
    <g id="xtick_2">
     <g id="line2d_2">
      <g>
       <use style="fill:#262626;stroke:#262626;stroke-width:1.6;" x="238.018068" xlink:href="#md339fcf193" y="391.2"/>
      </g>
     </g>
     <g id="text_2">
      <text style="fill:#262626;font-family:Work Sans;font-size:20px;font-style:normal;font-weight:normal;" transform="translate(164.691095 494.926204)rotate(-45)">Test n=40</text>
     </g>
    </g>
   </g>
   <g id="matplotlib.axis_2">
    <g id="ytick_1">
     <g id="line2d_3">
      <defs>
       <path d="M 0 0 
L -12 0 
" id="mdc1e9ffc37" style="stroke:#262626;stroke-width:1.6;"/>
      </defs>
      <g>
       <use style="fill:#262626;stroke:#262626;stroke-width:1.6;" x="85.83625" xlink:href="#mdc1e9ffc37" y="391.2"/>
      </g>
     </g>
     <g id="text_3">
      <text style="fill:#262626;font-family:Work Sans;font-size:20px;font-style:normal;font-weight:normal;text-anchor:end;" transform="rotate(-0, 62.63625, 398.390625)" x="62.63625" y="398.390625">2.0</text>
     </g>
    </g>
    <g id="ytick_2">
     <g id="line2d_4">
      <g>
       <use style="fill:#262626;stroke:#262626;stroke-width:1.6;" x="85.83625" xlink:href="#mdc1e9ffc37" y="336.84"/>
      </g>
     </g>
     <g id="text_4">
      <text style="fill:#262626;font-family:Work Sans;font-size:20px;font-style:normal;font-weight:normal;text-anchor:end;" transform="rotate(-0, 62.63625, 344.030625)" x="62.63625" y="344.030625">2.5</text>
     </g>
    </g>
    <g id="ytick_3">
     <g id="line2d_5">
      <g>
       <use style="fill:#262626;stroke:#262626;stroke-width:1.6;" x="85.83625" xlink:href="#mdc1e9ffc37" y="282.48"/>
      </g>
     </g>
     <g id="text_5">
      <text style="fill:#262626;font-family:Work Sans;font-size:20px;font-style:normal;font-weight:normal;text-anchor:end;" transform="rotate(-0, 62.63625, 289.670625)" x="62.63625" y="289.670625">3.0</text>
     </g>
    </g>
    <g id="ytick_4">
     <g id="line2d_6">
      <g>
       <use style="fill:#262626;stroke:#262626;stroke-width:1.6;" x="85.83625" xlink:href="#mdc1e9ffc37" y="228.12"/>
      </g>
     </g>
     <g id="text_6">
      <text style="fill:#262626;font-family:Work Sans;font-size:20px;font-style:normal;font-weight:normal;text-anchor:end;" transform="rotate(-0, 62.63625, 235.310625)" x="62.63625" y="235.310625">3.5</text>
     </g>
    </g>
    <g id="ytick_5">
     <g id="line2d_7">
      <g>
       <use style="fill:#262626;stroke:#262626;stroke-width:1.6;" x="85.83625" xlink:href="#mdc1e9ffc37" y="173.76"/>
      </g>
     </g>
     <g id="text_7">
      <text style="fill:#262626;font-family:Work Sans;font-size:20px;font-style:normal;font-weight:normal;text-anchor:end;" transform="rotate(-0, 62.63625, 180.950625)" x="62.63625" y="180.950625">4.0</text>
     </g>
    </g>
    <g id="ytick_6">
     <g id="line2d_8">
      <g>
       <use style="fill:#262626;stroke:#262626;stroke-width:1.6;" x="85.83625" xlink:href="#mdc1e9ffc37" y="119.4"/>
      </g>
     </g>
     <g id="text_8">
      <text style="fill:#262626;font-family:Work Sans;font-size:20px;font-style:normal;font-weight:normal;text-anchor:end;" transform="rotate(-0, 62.63625, 126.590625)" x="62.63625" y="126.590625">4.5</text>
     </g>
    </g>
    <g id="ytick_7">
     <g id="line2d_9">
      <g>
       <use style="fill:#262626;stroke:#262626;stroke-width:1.6;" x="85.83625" xlink:href="#mdc1e9ffc37" y="65.04"/>
      </g>
     </g>
     <g id="text_9">
      <text style="fill:#262626;font-family:Work Sans;font-size:20px;font-style:normal;font-weight:normal;text-anchor:end;" transform="rotate(-0, 62.63625, 72.230625)" x="62.63625" y="72.230625">5.0</text>
     </g>
    </g>
    <g id="text_10">
     <text style="fill:#262626;font-family:Work Sans;font-size:22px;font-style:normal;font-weight:normal;text-anchor:middle;" transform="rotate(-90, 23.019375, 228.12)" x="23.019375" y="228.12">value</text>
    </g>
   </g>
   <g id="patch_3">
    <path d="M 85.83625 391.2 
L 85.83625 65.04 
" style="fill:none;stroke:#262626;stroke-linecap:square;stroke-linejoin:miter;stroke-width:1.25;"/>
   </g>
   <g id="patch_4">
    <path d="M 136.563523 391.2 
L 238.018068 391.2 
" style="fill:none;stroke:#262626;stroke-linecap:square;stroke-linejoin:miter;stroke-width:1.25;"/>
   </g>
   <g id="PathCollection_1">
    <defs>
     <path d="M 0 5 
C 1.326016 5 2.597899 4.473168 3.535534 3.535534 
C 4.473168 2.597899 5 1.326016 5 0 
C 5 -1.326016 4.473168 -2.597899 3.535534 -3.535534 
C 2.597899 -4.473168 1.326016 -5 0 -5 
C -1.326016 -5 -2.597899 -4.473168 -3.535534 -3.535534 
C -4.473168 -2.597899 -5 -1.326016 -5 0 
C -5 1.326016 -4.473168 2.597899 -3.535534 3.535534 
C -2.597899 4.473168 -1.326016 5 0 5 
z
" id="C0_0_324069c554"/>
    </defs>
    <g clip-path="url(#p1d079f2c0f)">
     <use style="fill:#4c72b0;" x="136.563523" xlink:href="#C0_0_324069c554" y="350.279266"/>
    </g>
    <g clip-path="url(#p1d079f2c0f)">
     <use style="fill:#4c72b0;" x="132.763557" xlink:href="#C0_0_324069c554" y="341.605284"/>
    </g>
    <g clip-path="url(#p1d079f2c0f)">
     <use style="fill:#4c72b0;" x="138.444575" xlink:href="#C0_0_324069c554" y="334.92285"/>
    </g>
    <g clip-path="url(#p1d079f2c0f)">
     <use style="fill:#4c72b0;" x="131.415034" xlink:href="#C0_0_324069c554" y="331.016253"/>
    </g>
    <g clip-path="url(#p1d079f2c0f)">
     <use style="fill:#4c72b0;" x="145.152215" xlink:href="#C0_0_324069c554" y="330.143249"/>
    </g>
    <g clip-path="url(#p1d079f2c0f)">
     <use style="fill:#4c72b0;" x="125.268206" xlink:href="#C0_0_324069c554" y="325.082715"/>
    </g>
    <g clip-path="url(#p1d079f2c0f)">
     <use style="fill:#4c72b0;" x="136.563523" xlink:href="#C0_0_324069c554" y="319.763634"/>
    </g>
    <g clip-path="url(#p1d079f2c0f)">
     <use style="fill:#4c72b0;" x="144.199817" xlink:href="#C0_0_324069c554" y="319.721065"/>
    </g>
    <g clip-path="url(#p1d079f2c0f)">
     <use style="fill:#4c72b0;" x="151.80341" xlink:href="#C0_0_324069c554" y="318.795627"/>
    </g>
    <g clip-path="url(#p1d079f2c0f)">
     <use style="fill:#4c72b0;" x="129.500302" xlink:href="#C0_0_324069c554" y="315.962638"/>
    </g>
    <g clip-path="url(#p1d079f2c0f)">
     <use style="fill:#4c72b0;" x="121.873383" xlink:href="#C0_0_324069c554" y="315.465433"/>
    </g>
    <g clip-path="url(#p1d079f2c0f)">
     <use style="fill:#4c72b0;" x="136.563523" xlink:href="#C0_0_324069c554" y="307.877172"/>
    </g>
    <g clip-path="url(#p1d079f2c0f)">
     <use style="fill:#4c72b0;" x="129.977254" xlink:href="#C0_0_324069c554" y="302.81639"/>
    </g>
    <g clip-path="url(#p1d079f2c0f)">
     <use style="fill:#4c72b0;" x="142.56734" xlink:href="#C0_0_324069c554" y="301.69763"/>
    </g>
    <g clip-path="url(#p1d079f2c0f)">
     <use style="fill:#4c72b0;" x="150.164123" xlink:href="#C0_0_324069c554" y="300.680802"/>
    </g>
    <g clip-path="url(#p1d079f2c0f)">
     <use style="fill:#4c72b0;" x="123.022452" xlink:href="#C0_0_324069c554" y="298.686761"/>
    </g>
    <g clip-path="url(#p1d079f2c0f)">
     <use style="fill:#4c72b0;" x="157.46142" xlink:href="#C0_0_324069c554" y="297.734079"/>
    </g>
    <g clip-path="url(#p1d079f2c0f)">
     <use style="fill:#4c72b0;" x="115.440083" xlink:href="#C0_0_324069c554" y="297.499685"/>
    </g>
    <g clip-path="url(#p1d079f2c0f)">
     <use style="fill:#4c72b0;" x="136.563523" xlink:href="#C0_0_324069c554" y="292.858441"/>
    </g>
    <g clip-path="url(#p1d079f2c0f)">
     <use style="fill:#4c72b0;" x="143.099306" xlink:href="#C0_0_324069c554" y="287.686637"/>
    </g>
    <g clip-path="url(#p1d079f2c0f)">
     <use style="fill:#4c72b0;" x="130.515405" xlink:href="#C0_0_324069c554" y="286.753431"/>
    </g>
    <g clip-path="url(#p1d079f2c0f)">
     <use style="fill:#4c72b0;" x="122.879793" xlink:href="#C0_0_324069c554" y="286.613098"/>
    </g>
    <g clip-path="url(#p1d079f2c0f)">
     <use style="fill:#4c72b0;" x="136.563523" xlink:href="#C0_0_324069c554" y="276.044885"/>
    </g>
    <g clip-path="url(#p1d079f2c0f)">
     <use style="fill:#4c72b0;" x="129.026636" xlink:href="#C0_0_324069c554" y="274.43604"/>
    </g>
    <g clip-path="url(#p1d079f2c0f)">
     <use style="fill:#4c72b0;" x="143.553663" xlink:href="#C0_0_324069c554" y="272.018875"/>
    </g>
    <g clip-path="url(#p1d079f2c0f)">
     <use style="fill:#4c72b0;" x="123.747597" xlink:href="#C0_0_324069c554" y="267.210388"/>
    </g>
    <g clip-path="url(#p1d079f2c0f)">
     <use style="fill:#4c72b0;" x="135.190619" xlink:href="#C0_0_324069c554" y="266.207826"/>
    </g>
    <g clip-path="url(#p1d079f2c0f)">
     <use style="fill:#4c72b0;" x="139.828496" xlink:href="#C0_0_324069c554" y="258.263414"/>
    </g>
    <g clip-path="url(#p1d079f2c0f)">
     <use style="fill:#4c72b0;" x="132.609537" xlink:href="#C0_0_324069c554" y="255.002545"/>
    </g>
    <g clip-path="url(#p1d079f2c0f)">
     <use style="fill:#4c72b0;" x="146.236106" xlink:href="#C0_0_324069c554" y="252.823515"/>
    </g>
    <g clip-path="url(#p1d079f2c0f)">
     <use style="fill:#4c72b0;" x="125.283512" xlink:href="#C0_0_324069c554" y="252.180709"/>
    </g>
    <g clip-path="url(#p1d079f2c0f)">
     <use style="fill:#4c72b0;" x="153.734643" xlink:href="#C0_0_324069c554" y="250.932173"/>
    </g>
    <g clip-path="url(#p1d079f2c0f)">
     <use style="fill:#4c72b0;" x="138.171655" xlink:href="#C0_0_324069c554" y="248.150733"/>
    </g>
    <g clip-path="url(#p1d079f2c0f)">
     <use style="fill:#4c72b0;" x="118.406227" xlink:href="#C0_0_324069c554" y="247.834156"/>
    </g>
    <g clip-path="url(#p1d079f2c0f)">
     <use style="fill:#4c72b0;" x="160.163507" xlink:href="#C0_0_324069c554" y="245.535449"/>
    </g>
    <g clip-path="url(#p1d079f2c0f)">
     <use style="fill:#4c72b0;" x="130.994094" xlink:href="#C0_0_324069c554" y="244.736749"/>
    </g>
    <g clip-path="url(#p1d079f2c0f)">
     <use style="fill:#4c72b0;" x="111.498883" xlink:href="#C0_0_324069c554" y="243.570121"/>
    </g>
    <g clip-path="url(#p1d079f2c0f)">
     <use style="fill:#4c72b0;" x="140.900058" xlink:href="#C0_0_324069c554" y="238.810801"/>
    </g>
    <g clip-path="url(#p1d079f2c0f)">
     <use style="fill:#4c72b0;" x="125.785157" xlink:href="#C0_0_324069c554" y="237.424372"/>
    </g>
    <g clip-path="url(#p1d079f2c0f)">
     <use style="fill:#4c72b0;" x="136.563523" xlink:href="#C0_0_324069c554" y="216.280588"/>
    </g>
   </g>
   <g id="PathCollection_2">
    <defs>
     <path d="M 0 5 
C 1.326016 5 2.597899 4.473168 3.535534 3.535534 
C 4.473168 2.597899 5 1.326016 5 0 
C 5 -1.326016 4.473168 -2.597899 3.535534 -3.535534 
C 2.597899 -4.473168 1.326016 -5 0 -5 
C -1.326016 -5 -2.597899 -4.473168 -3.535534 -3.535534 
C -4.473168 -2.597899 -5 -1.326016 -5 0 
C -5 1.326016 -4.473168 2.597899 -3.535534 3.535534 
C -2.597899 4.473168 -1.326016 5 0 5 
z
" id="C1_0_5a34e1da84"/>
    </defs>
    <g clip-path="url(#p1d079f2c0f)">
     <use style="fill:#55a868;" x="238.018068" xlink:href="#C1_0_5a34e1da84" y="356.175271"/>
    </g>
    <g clip-path="url(#p1d079f2c0f)">
     <use style="fill:#55a868;" x="238.018068" xlink:href="#C1_0_5a34e1da84" y="341.089746"/>
    </g>
    <g clip-path="url(#p1d079f2c0f)">
     <use style="fill:#55a868;" x="238.018068" xlink:href="#C1_0_5a34e1da84" y="316.190286"/>
    </g>
    <g clip-path="url(#p1d079f2c0f)">
     <use style="fill:#55a868;" x="230.511911" xlink:href="#C1_0_5a34e1da84" y="314.351508"/>
    </g>
    <g clip-path="url(#p1d079f2c0f)">
     <use style="fill:#55a868;" x="235.545336" xlink:href="#C1_0_5a34e1da84" y="306.729065"/>
    </g>
    <g clip-path="url(#p1d079f2c0f)">
     <use style="fill:#55a868;" x="242.834625" xlink:href="#C1_0_5a34e1da84" y="303.748549"/>
    </g>
    <g clip-path="url(#p1d079f2c0f)">
     <use style="fill:#55a868;" x="229.923682" xlink:href="#C1_0_5a34e1da84" y="299.961088"/>
    </g>
    <g clip-path="url(#p1d079f2c0f)">
     <use style="fill:#55a868;" x="238.018068" xlink:href="#C1_0_5a34e1da84" y="290.488499"/>
    </g>
    <g clip-path="url(#p1d079f2c0f)">
     <use style="fill:#55a868;" x="233.345406" xlink:href="#C1_0_5a34e1da84" y="282.579119"/>
    </g>
    <g clip-path="url(#p1d079f2c0f)">
     <use style="fill:#55a868;" x="240.919495" xlink:href="#C1_0_5a34e1da84" y="281.304621"/>
    </g>
    <g clip-path="url(#p1d079f2c0f)">
     <use style="fill:#55a868;" x="246.514697" xlink:href="#C1_0_5a34e1da84" y="274.499157"/>
    </g>
    <g clip-path="url(#p1d079f2c0f)">
     <use style="fill:#55a868;" x="238.018068" xlink:href="#C1_0_5a34e1da84" y="271.872426"/>
    </g>
    <g clip-path="url(#p1d079f2c0f)">
     <use style="fill:#55a868;" x="230.407839" xlink:href="#C1_0_5a34e1da84" y="271.045806"/>
    </g>
    <g clip-path="url(#p1d079f2c0f)">
     <use style="fill:#55a868;" x="242.034262" xlink:href="#C1_0_5a34e1da84" y="263.367148"/>
    </g>
    <g clip-path="url(#p1d079f2c0f)">
     <use style="fill:#55a868;" x="236.869052" xlink:href="#C1_0_5a34e1da84" y="256.001772"/>
    </g>
    <g clip-path="url(#p1d079f2c0f)">
     <use style="fill:#55a868;" x="245.150425" xlink:href="#C1_0_5a34e1da84" y="254.237637"/>
    </g>
    <g clip-path="url(#p1d079f2c0f)">
     <use style="fill:#55a868;" x="229.701615" xlink:href="#C1_0_5a34e1da84" y="252.551507"/>
    </g>
    <g clip-path="url(#p1d079f2c0f)">
     <use style="fill:#55a868;" x="252.673765" xlink:href="#C1_0_5a34e1da84" y="252.523503"/>
    </g>
    <g clip-path="url(#p1d079f2c0f)">
     <use style="fill:#55a868;" x="222.075202" xlink:href="#C1_0_5a34e1da84" y="252.041157"/>
    </g>
    <g clip-path="url(#p1d079f2c0f)">
     <use style="fill:#55a868;" x="259.664979" xlink:href="#C1_0_5a34e1da84" y="248.500692"/>
    </g>
    <g clip-path="url(#p1d079f2c0f)">
     <use style="fill:#55a868;" x="239.508913" xlink:href="#C1_0_5a34e1da84" y="246.618307"/>
    </g>
    <g clip-path="url(#p1d079f2c0f)">
     <use style="fill:#55a868;" x="238.018068" xlink:href="#C1_0_5a34e1da84" y="236.526627"/>
    </g>
    <g clip-path="url(#p1d079f2c0f)">
     <use style="fill:#55a868;" x="230.398345" xlink:href="#C1_0_5a34e1da84" y="235.866821"/>
    </g>
    <g clip-path="url(#p1d079f2c0f)">
     <use style="fill:#55a868;" x="244.668528" xlink:href="#C1_0_5a34e1da84" y="231.611909"/>
    </g>
    <g clip-path="url(#p1d079f2c0f)">
     <use style="fill:#55a868;" x="238.018068" xlink:href="#C1_0_5a34e1da84" y="225.426921"/>
    </g>
    <g clip-path="url(#p1d079f2c0f)">
     <use style="fill:#55a868;" x="232.160482" xlink:href="#C1_0_5a34e1da84" y="219.011225"/>
    </g>
    <g clip-path="url(#p1d079f2c0f)">
     <use style="fill:#55a868;" x="242.125917" xlink:href="#C1_0_5a34e1da84" y="216.997043"/>
    </g>
    <g clip-path="url(#p1d079f2c0f)">
     <use style="fill:#55a868;" x="238.018068" xlink:href="#C1_0_5a34e1da84" y="204.277879"/>
    </g>
    <g clip-path="url(#p1d079f2c0f)">
     <use style="fill:#55a868;" x="230.927794" xlink:href="#C1_0_5a34e1da84" y="200.564262"/>
    </g>
    <g clip-path="url(#p1d079f2c0f)">
     <use style="fill:#55a868;" x="242.003426" xlink:href="#C1_0_5a34e1da84" y="195.747764"/>
    </g>
    <g clip-path="url(#p1d079f2c0f)">
     <use style="fill:#55a868;" x="249.477719" xlink:href="#C1_0_5a34e1da84" y="193.698458"/>
    </g>
    <g clip-path="url(#p1d079f2c0f)">
     <use style="fill:#55a868;" x="226.561958" xlink:href="#C1_0_5a34e1da84" y="192.35975"/>
    </g>
    <g clip-path="url(#p1d079f2c0f)">
     <use style="fill:#55a868;" x="235.07187" xlink:href="#C1_0_5a34e1da84" y="191.551648"/>
    </g>
    <g clip-path="url(#p1d079f2c0f)">
     <use style="fill:#55a868;" x="238.018068" xlink:href="#C1_0_5a34e1da84" y="181.368703"/>
    </g>
    <g clip-path="url(#p1d079f2c0f)">
     <use style="fill:#55a868;" x="231.146198" xlink:href="#C1_0_5a34e1da84" y="177.007488"/>
    </g>
    <g clip-path="url(#p1d079f2c0f)">
     <use style="fill:#55a868;" x="243.61035" xlink:href="#C1_0_5a34e1da84" y="174.559124"/>
    </g>
    <g clip-path="url(#p1d079f2c0f)">
     <use style="fill:#55a868;" x="237.12608" xlink:href="#C1_0_5a34e1da84" y="169.277295"/>
    </g>
    <g clip-path="url(#p1d079f2c0f)">
     <use style="fill:#55a868;" x="244.935989" xlink:href="#C1_0_5a34e1da84" y="164.710954"/>
    </g>
    <g clip-path="url(#p1d079f2c0f)">
     <use style="fill:#55a868;" x="232.72088" xlink:href="#C1_0_5a34e1da84" y="161.108945"/>
    </g>
    <g clip-path="url(#p1d079f2c0f)">
     <use style="fill:#55a868;" x="238.018068" xlink:href="#C1_0_5a34e1da84" y="123.12767"/>
    </g>
   </g>
   <g id="text_11">
    <text style="fill:#262626;font-family:Work Sans;font-size:28px;font-style:normal;font-weight:bold;text-anchor:middle;" transform="rotate(-0, 225.33625, 42.732)" x="225.33625" y="42.732">Two-group Contrast Plot</text>
   </g>
   <g id="legend_1"/>
  </g>
  <g id="axes_2">
   <g id="matplotlib.axis_3">
    <g id="ytick_8">
     <g id="line2d_10">
      <defs>
       <path d="M 0 0 
L 12 0 
" id="mdebfaec9f4" style="stroke:#262626;stroke-width:1.6;"/>
      </defs>
      <g>
       <use style="fill:#262626;stroke:#262626;stroke-width:1.6;" x="364.83625" xlink:href="#mdebfaec9f4" y="285.278137"/>
      </g>
     </g>
     <g id="text_12">
      <text style="fill:#262626;font-family:Work Sans;font-size:20px;font-style:normal;font-weight:normal;text-anchor:start;" transform="rotate(-0, 388.03625, 292.468762)" x="388.03625" y="292.468762">0.0</text>
     </g>
    </g>
    <g id="ytick_9">
     <g id="line2d_11">
      <g>
       <use style="fill:#262626;stroke:#262626;stroke-width:1.6;" x="364.83625" xlink:href="#mdebfaec9f4" y="230.918137"/>
      </g>
     </g>
     <g id="text_13">
      <text style="fill:#262626;font-family:Work Sans;font-size:20px;font-style:normal;font-weight:normal;text-anchor:start;" transform="rotate(-0, 388.03625, 238.108762)" x="388.03625" y="238.108762">0.5</text>
     </g>
    </g>
   </g>
   <g id="PolyCollection_1">
    <defs>
     <path d="M 314.172687 -251.008108 
L 314.109793 -251.008108 
L 314.109793 -251.715469 
L 314.109793 -252.42283 
L 314.109793 -253.130191 
L 314.109793 -253.837552 
L 314.109793 -254.544913 
L 314.109793 -255.252274 
L 314.109793 -255.959635 
L 314.109793 -256.666995 
L 314.109793 -257.374356 
L 314.109793 -258.081717 
L 314.109793 -258.789078 
L 314.109793 -259.496439 
L 314.109793 -260.2038 
L 314.109793 -260.911161 
L 314.109793 -261.618522 
L 314.109793 -262.325883 
L 314.109793 -263.033244 
L 314.109793 -263.740605 
L 314.109793 -264.447966 
L 314.109793 -265.155327 
L 314.109793 -265.862688 
L 314.109793 -266.570049 
L 314.109793 -267.27741 
L 314.109793 -267.984771 
L 314.109793 -268.692132 
L 314.109793 -269.399493 
L 314.109793 -270.106854 
L 314.109793 -270.814215 
L 314.109793 -271.521576 
L 314.109793 -272.228937 
L 314.109793 -272.936298 
L 314.109793 -273.643659 
L 314.109793 -274.35102 
L 314.109793 -275.058381 
L 314.109793 -275.765742 
L 314.109793 -276.473103 
L 314.109793 -277.180464 
L 314.109793 -277.887824 
L 314.109793 -278.595185 
L 314.109793 -279.302546 
L 314.109793 -280.009907 
L 314.109793 -280.717268 
L 314.109793 -281.424629 
L 314.109793 -282.13199 
L 314.109793 -282.839351 
L 314.109793 -283.546712 
L 314.109793 -284.254073 
L 314.109793 -284.961434 
L 314.109793 -285.668795 
L 314.109793 -286.376156 
L 314.109793 -287.083517 
L 314.109793 -287.790878 
L 314.109793 -288.498239 
L 314.109793 -289.2056 
L 314.109793 -289.912961 
L 314.109793 -290.620322 
L 314.109793 -291.327683 
L 314.109793 -292.035044 
L 314.109793 -292.742405 
L 314.109793 -293.449766 
L 314.109793 -294.157127 
L 314.109793 -294.864488 
L 314.109793 -295.571849 
L 314.109793 -296.27921 
L 314.109793 -296.986571 
L 314.109793 -297.693932 
L 314.109793 -298.401293 
L 314.109793 -299.108653 
L 314.109793 -299.816014 
L 314.109793 -300.523375 
L 314.109793 -301.230736 
L 314.109793 -301.938097 
L 314.109793 -302.645458 
L 314.109793 -303.352819 
L 314.109793 -304.06018 
L 314.109793 -304.767541 
L 314.109793 -305.474902 
L 314.109793 -306.182263 
L 314.109793 -306.889624 
L 314.109793 -307.596985 
L 314.109793 -308.304346 
L 314.109793 -309.011707 
L 314.109793 -309.719068 
L 314.109793 -310.426429 
L 314.109793 -311.13379 
L 314.109793 -311.841151 
L 314.109793 -312.548512 
L 314.109793 -313.255873 
L 314.109793 -313.963234 
L 314.109793 -314.670595 
L 314.109793 -315.377956 
L 314.109793 -316.085317 
L 314.109793 -316.792678 
L 314.109793 -317.500039 
L 314.109793 -318.2074 
L 314.109793 -318.914761 
L 314.109793 -319.622122 
L 314.109793 -320.329482 
L 314.109793 -321.036843 
L 314.147196 -321.036843 
L 314.147196 -321.036843 
L 314.153743 -320.329482 
L 314.161982 -319.622122 
L 314.176229 -318.914761 
L 314.201734 -318.2074 
L 314.242801 -317.500039 
L 314.300143 -316.792678 
L 314.369058 -316.085317 
L 314.44084 -315.377956 
L 314.508016 -314.670595 
L 314.570333 -313.963234 
L 314.636953 -313.255873 
L 314.722684 -312.548512 
L 314.840653 -311.841151 
L 314.996935 -311.13379 
L 315.191323 -310.426429 
L 315.423044 -309.719068 
L 315.695549 -309.011707 
L 316.015289 -308.304346 
L 316.384988 -307.596985 
L 316.797341 -306.889624 
L 317.23572 -306.182263 
L 317.683754 -305.474902 
L 318.13852 -304.767541 
L 318.617969 -304.06018 
L 319.155847 -303.352819 
L 319.785567 -302.645458 
L 320.523045 -301.938097 
L 321.360851 -301.230736 
L 322.277891 -300.523375 
L 323.254715 -299.816014 
L 324.278953 -299.108653 
L 325.337489 -298.401293 
L 326.410289 -297.693932 
L 327.481304 -296.986571 
L 328.55888 -296.27921 
L 329.678289 -295.571849 
L 330.872404 -294.864488 
L 332.133244 -294.157127 
L 333.40269 -293.449766 
L 334.603003 -292.742405 
L 335.678632 -292.035044 
L 336.613918 -291.327683 
L 337.418572 -290.620322 
L 338.101045 -289.912961 
L 338.654555 -289.2056 
L 339.064712 -288.498239 
L 339.327409 -287.790878 
L 339.456622 -287.083517 
L 339.472614 -286.376156 
L 339.382823 -285.668795 
L 339.176757 -284.961434 
L 338.841025 -284.254073 
L 338.379758 -283.546712 
L 337.822646 -282.839351 
L 337.216094 -282.13199 
L 336.604633 -281.424629 
L 336.012379 -280.717268 
L 335.433099 -280.009907 
L 334.834411 -279.302546 
L 334.174642 -278.595185 
L 333.422747 -277.887824 
L 332.569703 -277.180464 
L 331.626281 -276.473103 
L 330.611561 -275.765742 
L 329.541641 -275.058381 
L 328.426215 -274.35102 
L 327.274409 -273.643659 
L 326.104287 -272.936298 
L 324.946576 -272.228937 
L 323.836394 -271.521576 
L 322.797819 -270.814215 
L 321.835651 -270.106854 
L 320.943912 -269.399493 
L 320.123191 -268.692132 
L 319.387978 -267.984771 
L 318.754921 -267.27741 
L 318.223847 -266.570049 
L 317.771824 -265.862688 
L 317.366731 -265.155327 
L 316.986678 -264.447966 
L 316.62754 -263.740605 
L 316.295044 -263.033244 
L 315.99256 -262.325883 
L 315.716668 -261.618522 
L 315.46213 -260.911161 
L 315.228591 -260.2038 
L 315.021339 -259.496439 
L 314.84578 -258.789078 
L 314.70179 -258.081717 
L 314.58353 -257.374356 
L 314.484185 -256.666995 
L 314.4003 -255.959635 
L 314.331978 -255.252274 
L 314.280022 -254.544913 
L 314.243419 -253.837552 
L 314.218851 -253.130191 
L 314.201658 -252.42283 
L 314.187288 -251.715469 
L 314.172687 -251.008108 
z
" id="mf1ff453377" style="stroke:#000000;stroke-opacity:0.3;stroke-width:0.48;"/>
    </defs>
    <g clip-path="url(#p1d079f2c0f)">
     <use style="fill-opacity:0.3;stroke:#000000;stroke-opacity:0.3;stroke-width:0.48;" x="0" xlink:href="#mf1ff453377" y="526.35566"/>
    </g>
   </g>
   <g id="LineCollection_1">
    <path clip-path="url(#p1d079f2c0f)" d="M 136.563523 285.278137 
L 364.83625 285.278137 
" style="fill:none;stroke:#000000;stroke-width:0.75;"/>
   </g>
   <g id="LineCollection_2">
    <path clip-path="url(#p1d079f2c0f)" d="M 238.018068 240.766934 
L 364.83625 240.766934 
" style="fill:none;stroke:#000000;stroke-width:0.75;"/>
   </g>
   <g id="line2d_12">
    <path clip-path="url(#p1d079f2c0f)" d="M 314.108977 240.766934 
" style="fill:none;stroke:#000000;stroke-linecap:round;stroke-width:2.8;"/>
    <defs>
     <path d="M 0 7.5 
C 1.989023 7.5 3.896849 6.709753 5.303301 5.303301 
C 6.709753 3.896849 7.5 1.989023 7.5 0 
C 7.5 -1.989023 6.709753 -3.896849 5.303301 -5.303301 
C 3.896849 -6.709753 1.989023 -7.5 0 -7.5 
C -1.989023 -7.5 -3.896849 -6.709753 -5.303301 -5.303301 
C -6.709753 -3.896849 -7.5 -1.989023 -7.5 0 
C -7.5 1.989023 -6.709753 3.896849 -5.303301 5.303301 
C -3.896849 6.709753 -1.989023 7.5 0 7.5 
z
" id="maabec1dbe0"/>
    </defs>
    <g clip-path="url(#p1d079f2c0f)">
     <use x="314.108977" xlink:href="#maabec1dbe0" y="240.766934"/>
    </g>
   </g>
   <g id="line2d_13">
    <path clip-path="url(#p1d079f2c0f)" d="M 314.108977 260.495766 
L 314.108977 221.472337 
" style="fill:none;stroke:#000000;stroke-linecap:round;stroke-width:4;"/>
   </g>
   <g id="patch_5">
    <path d="M 364.83625 285.278137 
L 364.83625 230.918137 
" style="fill:none;stroke:#262626;stroke-linecap:square;stroke-linejoin:miter;stroke-width:1.25;"/>
   </g>
  </g>
  <g id="axes_3">
   <g id="text_14">
    <text style="fill:#008000;font-family:Work Sans;font-size:25px;font-style:normal;font-weight:normal;text-anchor:start;" transform="rotate(-0, 433.23625, 139.176562)" x="433.23625" y="139.176562">Shows all datapoints!</text>
   </g>
   <g id="text_15">
    <text style="fill:#008000;font-family:Work Sans;font-size:25px;font-style:normal;font-weight:normal;" transform="translate(433.23625 234.466562)">Sizes of each group shown implicitly</text>
    <text style="fill:#008000;font-family:Work Sans;font-size:25px;font-style:normal;font-weight:normal;" transform="translate(433.23625 261.413437)">in plot and explicitly in group labels</text>
   </g>
   <g id="text_16">
    <text style="fill:#008000;font-family:Work Sans;font-size:25px;font-style:normal;font-weight:normal;" transform="translate(433.23625 355.051562)">Effect size shown on</text>
    <text style="fill:#008000;font-family:Work Sans;font-size:25px;font-style:normal;font-weight:normal;" transform="translate(433.23625 381.873437)">seperate but aligned axes</text>
   </g>
  </g>
 </g>
 <defs>
  <clipPath id="p1d079f2c0f">
   <rect height="326.16" width="279" x="85.83625" y="65.04"/>
  </clipPath>
 </defs>
</svg>
